M48
; DRILL file {KiCad 7.0.1} date Fri Apr 21 07:07:49 2023
; FORMAT={-:-/ absolute / metric / decimal}
; #@! TF.CreationDate,2023-04-21T07:07:49+02:00
; #@! TF.GenerationSoftware,Kicad,Pcbnew,7.0.1
; #@! TF.FileFunction,Plated,1,2,PTH
FMAT,2
METRIC
; #@! TA.AperFunction,Plated,PTH,ViaDrill
T1C0.400
; #@! TA.AperFunction,Plated,PTH,ComponentDrill
T2C0.762
; #@! TA.AperFunction,Plated,PTH,ComponentDrill
T3C1.000
; #@! TA.AperFunction,Plated,PTH,ComponentDrill
T4C1.100
%
G90
G05
T1
X5.969Y36.449
X8.128Y38.989
X9.271Y33.909
X18.161Y40.259
X20.701Y45.593
X25.908Y25.146
X32.258Y31.369
X41.275Y37.846
X47.498Y43.053
X51.308Y32.639
X60.325Y30.226
X61.468Y35.433
X78.842Y59.588
X82.702Y13.665
X85.649Y13.564
X88.189Y13.564
X88.341Y59.995
X91.186Y60.249
T2
X3.865Y39.005
X3.865Y36.465
X3.865Y33.925
X3.865Y31.385
T3
X5.6Y66.74
X5.6Y64.2
X5.6Y5.78
X5.6Y3.24
X8.14Y66.74
X8.14Y64.2
X8.14Y5.78
X8.14Y3.24
X10.68Y66.74
X10.68Y64.2
X10.68Y5.78
X10.68Y3.24
X13.22Y66.74
X13.22Y64.2
X13.22Y5.78
X13.22Y3.24
X15.76Y66.74
X15.76Y64.2
X15.76Y5.78
X15.76Y3.24
X18.3Y66.74
X18.3Y64.2
X18.3Y5.78
X18.3Y3.24
X20.84Y66.74
X20.84Y64.2
X20.84Y5.78
X20.84Y3.24
X23.38Y66.74
X23.38Y64.2
X23.38Y5.78
X23.38Y3.24
X25.92Y66.74
X25.92Y64.2
X25.92Y5.78
X25.92Y3.24
X28.46Y66.74
X28.46Y64.2
X28.46Y5.78
X28.46Y3.24
X31.0Y66.74
X31.0Y64.2
X31.0Y5.78
X31.0Y3.24
X33.54Y66.74
X33.54Y64.2
X33.54Y5.78
X33.54Y3.24
X36.08Y66.74
X36.08Y64.2
X36.08Y5.78
X36.08Y3.24
X38.62Y66.74
X38.62Y64.2
X38.62Y5.78
X38.62Y3.24
X41.16Y66.74
X41.16Y64.2
X41.16Y5.78
X41.16Y3.24
X43.7Y66.74
X43.7Y64.2
X43.7Y5.78
X43.7Y3.24
X46.24Y66.74
X46.24Y64.2
X46.24Y5.78
X46.24Y3.24
X48.78Y66.74
X48.78Y64.2
X48.78Y5.78
X48.78Y3.24
X51.32Y66.74
X51.32Y64.2
X51.32Y5.78
X51.32Y3.24
X53.86Y66.74
X53.86Y64.2
X53.86Y5.78
X53.86Y3.24
X56.4Y66.74
X56.4Y64.2
X56.4Y5.78
X56.4Y3.24
X58.94Y66.74
X58.94Y64.2
X58.94Y5.78
X58.94Y3.24
X61.48Y66.74
X61.48Y64.2
X61.48Y5.78
X61.48Y3.24
X64.02Y66.74
X64.02Y64.2
X64.02Y5.78
X64.02Y3.24
X66.56Y66.74
X66.56Y64.2
X66.56Y5.78
X66.56Y3.24
X67.065Y45.371
X67.065Y42.831
X67.065Y40.291
X67.065Y37.751
X67.065Y35.211
X67.065Y32.671
X67.065Y30.131
X67.065Y27.591
X67.065Y25.051
X69.1Y66.74
X69.1Y64.2
X69.1Y5.78
X69.1Y3.24
X71.64Y66.74
X71.64Y64.2
X71.64Y5.78
X71.64Y3.24
X74.18Y66.74
X74.18Y64.2
X74.18Y5.78
X74.18Y3.24
X76.72Y66.74
X76.72Y64.2
X76.72Y5.78
X76.72Y3.24
X79.26Y66.74
X79.26Y64.2
X79.26Y5.78
X79.26Y3.24
X81.8Y66.74
X81.8Y64.2
X81.8Y5.78
X81.8Y3.24
X84.34Y66.74
X84.34Y64.2
X84.34Y5.78
X84.34Y3.24
X86.88Y66.74
X86.88Y64.2
X86.88Y5.78
X86.88Y3.24
X89.42Y66.74
X89.42Y64.2
X89.42Y5.78
X89.42Y3.24
X91.96Y66.74
X91.96Y64.2
X91.96Y5.78
X91.96Y3.24
X94.5Y66.74
X94.5Y64.2
X94.5Y5.78
X94.5Y3.24
T4
X72.392Y47.985
X72.392Y43.485
X75.387Y24.363
X75.387Y19.863
X78.892Y47.985
X78.892Y43.485
X81.789Y39.74
X81.789Y35.24
X81.887Y24.363
X81.887Y19.863
X81.892Y56.439
X81.892Y51.939
X88.19Y24.297
X88.19Y19.797
X88.289Y39.74
X88.289Y35.24
X88.392Y56.439
X88.392Y51.939
X91.187Y48.072
X91.187Y43.572
X94.69Y24.297
X94.69Y19.797
X97.687Y48.072
X97.687Y43.572
T0
M30
