%TF.GenerationSoftware,KiCad,Pcbnew,(6.0.4)*%
%TF.CreationDate,2022-07-17T12:50:22+02:00*%
%TF.ProjectId,usb_usart_CH340_full_5v,7573625f-7573-4617-9274-5f4348333430,rev?*%
%TF.SameCoordinates,PX47868c0PY2faf080*%
%TF.FileFunction,Copper,L1,Top*%
%TF.FilePolarity,Positive*%
%FSLAX46Y46*%
G04 Gerber Fmt 4.6, Leading zero omitted, Abs format (unit mm)*
G04 Created by KiCad (PCBNEW (6.0.4)) date 2022-07-17 12:50:22*
%MOMM*%
%LPD*%
G01*
G04 APERTURE LIST*
G04 Aperture macros list*
%AMRoundRect*
0 Rectangle with rounded corners*
0 $1 Rounding radius*
0 $2 $3 $4 $5 $6 $7 $8 $9 X,Y pos of 4 corners*
0 Add a 4 corners polygon primitive as box body*
4,1,4,$2,$3,$4,$5,$6,$7,$8,$9,$2,$3,0*
0 Add four circle primitives for the rounded corners*
1,1,$1+$1,$2,$3*
1,1,$1+$1,$4,$5*
1,1,$1+$1,$6,$7*
1,1,$1+$1,$8,$9*
0 Add four rect primitives between the rounded corners*
20,1,$1+$1,$2,$3,$4,$5,0*
20,1,$1+$1,$4,$5,$6,$7,0*
20,1,$1+$1,$6,$7,$8,$9,0*
20,1,$1+$1,$8,$9,$2,$3,0*%
G04 Aperture macros list end*
%TA.AperFunction,ConnectorPad*%
%ADD10C,6.000000*%
%TD*%
%TA.AperFunction,ComponentPad*%
%ADD11C,3.400000*%
%TD*%
%TA.AperFunction,SMDPad,CuDef*%
%ADD12RoundRect,0.250000X0.412500X0.650000X-0.412500X0.650000X-0.412500X-0.650000X0.412500X-0.650000X0*%
%TD*%
%TA.AperFunction,SMDPad,CuDef*%
%ADD13RoundRect,0.150000X-0.850000X-0.150000X0.850000X-0.150000X0.850000X0.150000X-0.850000X0.150000X0*%
%TD*%
%TA.AperFunction,SMDPad,CuDef*%
%ADD14RoundRect,0.250000X0.625000X-0.400000X0.625000X0.400000X-0.625000X0.400000X-0.625000X-0.400000X0*%
%TD*%
%TA.AperFunction,SMDPad,CuDef*%
%ADD15RoundRect,0.250000X-0.625000X0.400000X-0.625000X-0.400000X0.625000X-0.400000X0.625000X0.400000X0*%
%TD*%
%TA.AperFunction,ComponentPad*%
%ADD16R,1.700000X1.700000*%
%TD*%
%TA.AperFunction,ComponentPad*%
%ADD17O,1.700000X1.700000*%
%TD*%
%TA.AperFunction,SMDPad,CuDef*%
%ADD18RoundRect,0.150000X0.587500X0.150000X-0.587500X0.150000X-0.587500X-0.150000X0.587500X-0.150000X0*%
%TD*%
%TA.AperFunction,SMDPad,CuDef*%
%ADD19R,0.400000X3.200000*%
%TD*%
%TA.AperFunction,SMDPad,CuDef*%
%ADD20RoundRect,0.250000X-0.450000X0.325000X-0.450000X-0.325000X0.450000X-0.325000X0.450000X0.325000X0*%
%TD*%
%TA.AperFunction,SMDPad,CuDef*%
%ADD21RoundRect,0.250000X-0.412500X-0.650000X0.412500X-0.650000X0.412500X0.650000X-0.412500X0.650000X0*%
%TD*%
%TA.AperFunction,SMDPad,CuDef*%
%ADD22RoundRect,0.150000X-0.150000X0.587500X-0.150000X-0.587500X0.150000X-0.587500X0.150000X0.587500X0*%
%TD*%
%TA.AperFunction,SMDPad,CuDef*%
%ADD23RoundRect,0.250000X-0.400000X-1.450000X0.400000X-1.450000X0.400000X1.450000X-0.400000X1.450000X0*%
%TD*%
%TA.AperFunction,Conductor*%
%ADD24C,0.250000*%
%TD*%
%TA.AperFunction,Conductor*%
%ADD25C,0.200000*%
%TD*%
G04 APERTURE END LIST*
D10*
X36500000Y-36500000D03*
D11*
X36500000Y-36500000D03*
D12*
X12812500Y-13500000D03*
X9687500Y-13500000D03*
D13*
X16652458Y-14690220D03*
X16652458Y-15960220D03*
X16652458Y-17230220D03*
X16652458Y-18500220D03*
X16652458Y-19770220D03*
X16652458Y-21040220D03*
X16652458Y-22310220D03*
X16652458Y-23580220D03*
X21652458Y-23580220D03*
X21652458Y-22310220D03*
X21652458Y-21040220D03*
X21652458Y-19770220D03*
X21652458Y-18500220D03*
X21652458Y-17230220D03*
X21652458Y-15960220D03*
X21652458Y-14690220D03*
D14*
X15000000Y-11050000D03*
X15000000Y-7950000D03*
D11*
X36500000Y-3500000D03*
D10*
X36500000Y-3500000D03*
D15*
X20000000Y-2700000D03*
X20000000Y-5800000D03*
D16*
X10875000Y-24300000D03*
D17*
X10875000Y-21760000D03*
X10875000Y-19220000D03*
X10875000Y-16680000D03*
D18*
X26687500Y-3950000D03*
X26687500Y-2050000D03*
X24812500Y-3000000D03*
D10*
X3500000Y-36500000D03*
D11*
X3500000Y-36500000D03*
D15*
X17500000Y-2700000D03*
X17500000Y-5800000D03*
D14*
X29000000Y-5800000D03*
X29000000Y-2700000D03*
D11*
X3500000Y-3500000D03*
D10*
X3500000Y-3500000D03*
D19*
X18200000Y-26401215D03*
X17000000Y-26401215D03*
X15800000Y-26401215D03*
D15*
X20000000Y-32950000D03*
X20000000Y-36050000D03*
D20*
X22500000Y-2225000D03*
X22500000Y-4275000D03*
X22500000Y-33475000D03*
X22500000Y-35525000D03*
D21*
X19937500Y-29000000D03*
X23062500Y-29000000D03*
D22*
X12950000Y-3812500D03*
X11050000Y-3812500D03*
X12000000Y-5687500D03*
D20*
X15000000Y-2225000D03*
X15000000Y-4275000D03*
D16*
X29100000Y-31450000D03*
D17*
X29100000Y-28910000D03*
X29100000Y-26370000D03*
X29100000Y-23830000D03*
X29100000Y-21290000D03*
X29100000Y-18750000D03*
X29100000Y-16210000D03*
X29100000Y-13670000D03*
X29100000Y-11130000D03*
X29100000Y-8590000D03*
D23*
X13275000Y-31000000D03*
X17725000Y-31000000D03*
D21*
X19937500Y-26500000D03*
X23062500Y-26500000D03*
D24*
X18175000Y-31450000D02*
X17725000Y-31000000D01*
X17500000Y-5800000D02*
X20000000Y-5800000D01*
X20050000Y-31450000D02*
X18175000Y-31450000D01*
X20000000Y-5800000D02*
X26725000Y-5800000D01*
X19937500Y-26500000D02*
X19937500Y-15062500D01*
X19937500Y-29000000D02*
X19937500Y-26500000D01*
X26725000Y-5800000D02*
X28275000Y-4250000D01*
X20000000Y-32950000D02*
X20000000Y-31500000D01*
X30745489Y-12495489D02*
X27754511Y-12495489D01*
X28275000Y-4250000D02*
X30500000Y-4250000D01*
X31000000Y-12240978D02*
X30745489Y-12495489D01*
X29100000Y-31450000D02*
X20050000Y-31450000D01*
X19937500Y-29000000D02*
X19937500Y-31337500D01*
X20000000Y-31500000D02*
X20050000Y-31450000D01*
X20309780Y-14690220D02*
X21652458Y-14690220D01*
X19937500Y-31337500D02*
X20050000Y-31450000D01*
X19937500Y-15062500D02*
X20309780Y-14690220D01*
X31000000Y-4750000D02*
X31000000Y-12240978D01*
X27754511Y-12495489D02*
X25559780Y-14690220D01*
X25559780Y-14690220D02*
X21652458Y-14690220D01*
X30500000Y-4250000D02*
X31000000Y-4750000D01*
X20000000Y-36050000D02*
X20525000Y-35525000D01*
X20525000Y-35525000D02*
X22500000Y-35525000D01*
D25*
X11425220Y-19770220D02*
X16652458Y-19770220D01*
X10875000Y-19220000D02*
X11425220Y-19770220D01*
X10875000Y-21760000D02*
X11594780Y-21040220D01*
X11594780Y-21040220D02*
X16652458Y-21040220D01*
D24*
X13500000Y-14187500D02*
X13500000Y-17750000D01*
X14250220Y-18500220D02*
X16652458Y-18500220D01*
X12812500Y-13500000D02*
X13500000Y-14187500D01*
X13500000Y-17750000D02*
X14250220Y-18500220D01*
X18250000Y-14500000D02*
X24160000Y-8590000D01*
X29100000Y-8590000D02*
X29100000Y-5900000D01*
X29100000Y-5900000D02*
X29000000Y-5800000D01*
X24160000Y-8590000D02*
X29100000Y-8590000D01*
X18250000Y-15750000D02*
X18250000Y-14500000D01*
X18039780Y-15960220D02*
X18250000Y-15750000D01*
X16652458Y-15960220D02*
X18039780Y-15960220D01*
X16652458Y-17230220D02*
X18269780Y-17230220D01*
X14550000Y-16550000D02*
X15230220Y-17230220D01*
X23500000Y-10250000D02*
X28220000Y-10250000D01*
X19000000Y-14750000D02*
X23500000Y-10250000D01*
X28220000Y-10250000D02*
X29100000Y-11130000D01*
X15230220Y-17230220D02*
X16652458Y-17230220D01*
X15000000Y-11050000D02*
X14550000Y-11500000D01*
X18269780Y-17230220D02*
X19000000Y-16500000D01*
X19000000Y-16500000D02*
X19000000Y-14750000D01*
X14550000Y-11500000D02*
X14550000Y-16550000D01*
X21652458Y-17230220D02*
X25539780Y-17230220D01*
X25539780Y-17230220D02*
X29100000Y-13670000D01*
X21652458Y-18500220D02*
X26809780Y-18500220D01*
X26809780Y-18500220D02*
X29100000Y-16210000D01*
X21652458Y-19770220D02*
X28079780Y-19770220D01*
X28079780Y-19770220D02*
X29100000Y-18750000D01*
X21652458Y-21040220D02*
X28850220Y-21040220D01*
X28850220Y-21040220D02*
X29100000Y-21290000D01*
X27580220Y-22310220D02*
X29100000Y-23830000D01*
X21652458Y-22310220D02*
X27580220Y-22310220D01*
X26310220Y-23580220D02*
X29100000Y-26370000D01*
X21652458Y-23580220D02*
X26310220Y-23580220D01*
X21575000Y-4275000D02*
X22500000Y-4275000D01*
X20000000Y-2700000D02*
X21575000Y-4275000D01*
X12000000Y-2500000D02*
X12275000Y-2225000D01*
X12000000Y-5687500D02*
X12000000Y-2500000D01*
X12275000Y-2225000D02*
X15000000Y-2225000D01*
X15925000Y-4275000D02*
X17500000Y-2700000D01*
X15000000Y-4275000D02*
X15925000Y-4275000D01*
X22500000Y-2225000D02*
X24037500Y-2225000D01*
X24037500Y-2225000D02*
X24812500Y-3000000D01*
X10875000Y-24300000D02*
X12300000Y-24300000D01*
X12300000Y-24300000D02*
X13275000Y-25275000D01*
X13275000Y-25275000D02*
X13275000Y-31000000D01*
X28300000Y-2700000D02*
X29000000Y-2700000D01*
X27050000Y-3950000D02*
X28300000Y-2700000D01*
X26687500Y-3950000D02*
X27050000Y-3950000D01*
X15000000Y-7950000D02*
X12950000Y-5900000D01*
X12950000Y-5900000D02*
X12950000Y-3812500D01*
X17810220Y-22310220D02*
X16652458Y-22310220D01*
X18200000Y-26401215D02*
X18200000Y-22700000D01*
X18200000Y-22700000D02*
X17810220Y-22310220D01*
X15800000Y-24432678D02*
X16652458Y-23580220D01*
X15800000Y-26401215D02*
X15800000Y-24432678D01*
%TA.AperFunction,Conductor*%
G36*
X34331441Y-528502D02*
G01*
X34377934Y-582158D01*
X34388038Y-652432D01*
X34358544Y-717012D01*
X34342614Y-732420D01*
X34149133Y-889098D01*
X33889098Y-1149133D01*
X33657668Y-1434925D01*
X33655866Y-1437700D01*
X33462940Y-1734782D01*
X33457380Y-1743343D01*
X33455885Y-1746277D01*
X33455881Y-1746284D01*
X33322530Y-2008000D01*
X33290427Y-2071006D01*
X33158639Y-2414326D01*
X33063459Y-2769541D01*
X33048993Y-2860878D01*
X33007715Y-3121498D01*
X33005931Y-3132759D01*
X32986685Y-3500000D01*
X33005931Y-3867241D01*
X33006444Y-3870481D01*
X33006445Y-3870489D01*
X33032888Y-4037442D01*
X33063459Y-4230459D01*
X33158639Y-4585674D01*
X33159824Y-4588762D01*
X33159825Y-4588764D01*
X33192350Y-4673495D01*
X33290427Y-4928994D01*
X33291925Y-4931934D01*
X33430115Y-5203146D01*
X33457380Y-5256657D01*
X33459176Y-5259423D01*
X33459178Y-5259426D01*
X33519827Y-5352817D01*
X33657668Y-5565075D01*
X33889098Y-5850867D01*
X34149133Y-6110902D01*
X34434925Y-6342332D01*
X34527108Y-6402196D01*
X34722320Y-6528968D01*
X34743342Y-6542620D01*
X34746276Y-6544115D01*
X34746283Y-6544119D01*
X35016512Y-6681807D01*
X35071006Y-6709573D01*
X35280782Y-6790098D01*
X35398865Y-6835426D01*
X35414326Y-6841361D01*
X35769541Y-6936541D01*
X35962558Y-6967112D01*
X36129511Y-6993555D01*
X36129519Y-6993556D01*
X36132759Y-6994069D01*
X36500000Y-7013315D01*
X36867241Y-6994069D01*
X36870481Y-6993556D01*
X36870489Y-6993555D01*
X37037442Y-6967112D01*
X37230459Y-6936541D01*
X37585674Y-6841361D01*
X37601136Y-6835426D01*
X37719218Y-6790098D01*
X37928994Y-6709573D01*
X37983488Y-6681807D01*
X38253717Y-6544119D01*
X38253724Y-6544115D01*
X38256658Y-6542620D01*
X38277681Y-6528968D01*
X38472892Y-6402196D01*
X38565075Y-6342332D01*
X38850867Y-6110902D01*
X39110902Y-5850867D01*
X39267580Y-5657386D01*
X39325994Y-5617034D01*
X39396951Y-5614668D01*
X39457923Y-5651041D01*
X39489551Y-5714604D01*
X39491500Y-5736680D01*
X39491500Y-34263320D01*
X39471498Y-34331441D01*
X39417842Y-34377934D01*
X39347568Y-34388038D01*
X39282988Y-34358544D01*
X39267580Y-34342614D01*
X39207002Y-34267807D01*
X39110902Y-34149133D01*
X38850867Y-33889098D01*
X38565075Y-33657668D01*
X38331782Y-33506166D01*
X38259427Y-33459178D01*
X38259424Y-33459176D01*
X38256658Y-33457380D01*
X38253724Y-33455885D01*
X38253717Y-33455881D01*
X37931934Y-33291925D01*
X37928994Y-33290427D01*
X37585674Y-33158639D01*
X37230459Y-33063459D01*
X37027390Y-33031296D01*
X36870489Y-33006445D01*
X36870481Y-33006444D01*
X36867241Y-33005931D01*
X36500000Y-32986685D01*
X36132759Y-33005931D01*
X36129519Y-33006444D01*
X36129511Y-33006445D01*
X35972610Y-33031296D01*
X35769541Y-33063459D01*
X35414326Y-33158639D01*
X35071006Y-33290427D01*
X35068066Y-33291925D01*
X34746284Y-33455881D01*
X34746277Y-33455885D01*
X34743343Y-33457380D01*
X34434925Y-33657668D01*
X34149133Y-33889098D01*
X33889098Y-34149133D01*
X33657668Y-34434925D01*
X33655866Y-34437700D01*
X33464144Y-34732928D01*
X33457380Y-34743343D01*
X33455885Y-34746277D01*
X33455881Y-34746284D01*
X33300355Y-35051522D01*
X33290427Y-35071006D01*
X33158639Y-35414326D01*
X33063459Y-35769541D01*
X33005931Y-36132759D01*
X32986685Y-36500000D01*
X33005931Y-36867241D01*
X33006444Y-36870481D01*
X33006445Y-36870489D01*
X33015795Y-36929521D01*
X33063459Y-37230459D01*
X33158639Y-37585674D01*
X33290427Y-37928994D01*
X33457380Y-38256657D01*
X33657668Y-38565075D01*
X33889098Y-38850867D01*
X34149133Y-39110902D01*
X34151708Y-39112987D01*
X34342614Y-39267580D01*
X34382966Y-39325994D01*
X34385332Y-39396951D01*
X34348959Y-39457923D01*
X34285396Y-39489551D01*
X34263320Y-39491500D01*
X5736680Y-39491500D01*
X5668559Y-39471498D01*
X5622066Y-39417842D01*
X5611962Y-39347568D01*
X5641456Y-39282988D01*
X5657386Y-39267580D01*
X5848292Y-39112987D01*
X5850867Y-39110902D01*
X6110902Y-38850867D01*
X6342332Y-38565075D01*
X6542620Y-38256657D01*
X6709573Y-37928994D01*
X6841361Y-37585674D01*
X6936541Y-37230459D01*
X6984205Y-36929521D01*
X6993555Y-36870489D01*
X6993556Y-36870481D01*
X6994069Y-36867241D01*
X7013315Y-36500000D01*
X6994069Y-36132759D01*
X6936541Y-35769541D01*
X6841361Y-35414326D01*
X6709573Y-35071006D01*
X6699645Y-35051522D01*
X6544119Y-34746284D01*
X6544115Y-34746277D01*
X6542620Y-34743343D01*
X6535857Y-34732928D01*
X6344134Y-34437700D01*
X6342332Y-34434925D01*
X6110902Y-34149133D01*
X5850867Y-33889098D01*
X5565075Y-33657668D01*
X5331782Y-33506166D01*
X5259427Y-33459178D01*
X5259424Y-33459176D01*
X5256658Y-33457380D01*
X5253724Y-33455885D01*
X5253717Y-33455881D01*
X4931934Y-33291925D01*
X4928994Y-33290427D01*
X4585674Y-33158639D01*
X4230459Y-33063459D01*
X4027390Y-33031296D01*
X3870489Y-33006445D01*
X3870481Y-33006444D01*
X3867241Y-33005931D01*
X3500000Y-32986685D01*
X3132759Y-33005931D01*
X3129519Y-33006444D01*
X3129511Y-33006445D01*
X2972610Y-33031296D01*
X2769541Y-33063459D01*
X2414326Y-33158639D01*
X2071006Y-33290427D01*
X2068066Y-33291925D01*
X1746284Y-33455881D01*
X1746277Y-33455885D01*
X1743343Y-33457380D01*
X1434925Y-33657668D01*
X1149133Y-33889098D01*
X889098Y-34149133D01*
X792998Y-34267807D01*
X732420Y-34342614D01*
X674006Y-34382966D01*
X603049Y-34385332D01*
X542077Y-34348959D01*
X510449Y-34285396D01*
X508500Y-34263320D01*
X508500Y-21726695D01*
X9512251Y-21726695D01*
X9512548Y-21731848D01*
X9512548Y-21731851D01*
X9522773Y-21909188D01*
X9525110Y-21949715D01*
X9526247Y-21954761D01*
X9526248Y-21954767D01*
X9535603Y-21996277D01*
X9574222Y-22167639D01*
X9658266Y-22374616D01*
X9691573Y-22428968D01*
X9735161Y-22500097D01*
X9774987Y-22565088D01*
X9921250Y-22733938D01*
X9925230Y-22737242D01*
X9929981Y-22741187D01*
X9969616Y-22800090D01*
X9971113Y-22871071D01*
X9933997Y-22931593D01*
X9893725Y-22956112D01*
X9853281Y-22971274D01*
X9778295Y-22999385D01*
X9661739Y-23086739D01*
X9574385Y-23203295D01*
X9523255Y-23339684D01*
X9516500Y-23401866D01*
X9516500Y-25198134D01*
X9523255Y-25260316D01*
X9574385Y-25396705D01*
X9661739Y-25513261D01*
X9778295Y-25600615D01*
X9914684Y-25651745D01*
X9976866Y-25658500D01*
X11773134Y-25658500D01*
X11835316Y-25651745D01*
X11971705Y-25600615D01*
X12088261Y-25513261D01*
X12175615Y-25396705D01*
X12181056Y-25382193D01*
X12195586Y-25343433D01*
X12238227Y-25286668D01*
X12304789Y-25261968D01*
X12374138Y-25277175D01*
X12402663Y-25298567D01*
X12604595Y-25500499D01*
X12638621Y-25562811D01*
X12641500Y-25589594D01*
X12641500Y-28737484D01*
X12621498Y-28805605D01*
X12567842Y-28852098D01*
X12560126Y-28855137D01*
X12558003Y-28856132D01*
X12551054Y-28858450D01*
X12400652Y-28951522D01*
X12275695Y-29076697D01*
X12271855Y-29082927D01*
X12271854Y-29082928D01*
X12213272Y-29177966D01*
X12182885Y-29227262D01*
X12127203Y-29395139D01*
X12116500Y-29499600D01*
X12116500Y-32500400D01*
X12116837Y-32503646D01*
X12116837Y-32503650D01*
X12117701Y-32511972D01*
X12127474Y-32606166D01*
X12183450Y-32773946D01*
X12276522Y-32924348D01*
X12401697Y-33049305D01*
X12407927Y-33053145D01*
X12407928Y-33053146D01*
X12545090Y-33137694D01*
X12552262Y-33142115D01*
X12619061Y-33164271D01*
X12713611Y-33195632D01*
X12713613Y-33195632D01*
X12720139Y-33197797D01*
X12726975Y-33198497D01*
X12726978Y-33198498D01*
X12769798Y-33202885D01*
X12824600Y-33208500D01*
X13725400Y-33208500D01*
X13728646Y-33208163D01*
X13728650Y-33208163D01*
X13824308Y-33198238D01*
X13824312Y-33198237D01*
X13831166Y-33197526D01*
X13837702Y-33195345D01*
X13837704Y-33195345D01*
X13969806Y-33151272D01*
X13998946Y-33141550D01*
X14149348Y-33048478D01*
X14274305Y-32923303D01*
X14345071Y-32808500D01*
X14363275Y-32778968D01*
X14363276Y-32778966D01*
X14367115Y-32772738D01*
X14422797Y-32604861D01*
X14433500Y-32500400D01*
X14433500Y-29499600D01*
X14422526Y-29393834D01*
X14366550Y-29226054D01*
X14273478Y-29075652D01*
X14148303Y-28950695D01*
X14060889Y-28896812D01*
X14003968Y-28861725D01*
X14003966Y-28861724D01*
X13997738Y-28857885D01*
X13990791Y-28855581D01*
X13984156Y-28852487D01*
X13985199Y-28850251D01*
X13936462Y-28816477D01*
X13909234Y-28750909D01*
X13908500Y-28737328D01*
X13908500Y-25353767D01*
X13909027Y-25342584D01*
X13910702Y-25335091D01*
X13908562Y-25267014D01*
X13908500Y-25263055D01*
X13908500Y-25235144D01*
X13907995Y-25231144D01*
X13907062Y-25219301D01*
X13907027Y-25218164D01*
X13905673Y-25175110D01*
X13900022Y-25155658D01*
X13896014Y-25136306D01*
X13894467Y-25124063D01*
X13893474Y-25116203D01*
X13890556Y-25108832D01*
X13877200Y-25075097D01*
X13873355Y-25063870D01*
X13864477Y-25033314D01*
X13861018Y-25021407D01*
X13856984Y-25014585D01*
X13856981Y-25014579D01*
X13850706Y-25003968D01*
X13842010Y-24986218D01*
X13837472Y-24974756D01*
X13837469Y-24974751D01*
X13834552Y-24967383D01*
X13808573Y-24931625D01*
X13802057Y-24921707D01*
X13783575Y-24890457D01*
X13779542Y-24883637D01*
X13765218Y-24869313D01*
X13752376Y-24854278D01*
X13740472Y-24837893D01*
X13706406Y-24809711D01*
X13697627Y-24801722D01*
X12803652Y-23907747D01*
X12796112Y-23899461D01*
X12792000Y-23892982D01*
X12742348Y-23846356D01*
X12739507Y-23843602D01*
X12719770Y-23823865D01*
X12716573Y-23821385D01*
X12707551Y-23813680D01*
X12692108Y-23799178D01*
X12675321Y-23783414D01*
X12668375Y-23779595D01*
X12668372Y-23779593D01*
X12657566Y-23773652D01*
X12641047Y-23762801D01*
X12640583Y-23762441D01*
X12625041Y-23750386D01*
X12617772Y-23747241D01*
X12617768Y-23747238D01*
X12584463Y-23732826D01*
X12573813Y-23727609D01*
X12535060Y-23706305D01*
X12515437Y-23701267D01*
X12496734Y-23694863D01*
X12485420Y-23689967D01*
X12485419Y-23689967D01*
X12478145Y-23686819D01*
X12470322Y-23685580D01*
X12470312Y-23685577D01*
X12434476Y-23679901D01*
X12422856Y-23677495D01*
X12387711Y-23668472D01*
X12387710Y-23668472D01*
X12380030Y-23666500D01*
X12359776Y-23666500D01*
X12339940Y-23664929D01*
X12339664Y-23664885D01*
X12275541Y-23634408D01*
X12238075Y-23574102D01*
X12233500Y-23540456D01*
X12233500Y-23401866D01*
X12226745Y-23339684D01*
X12175615Y-23203295D01*
X12088261Y-23086739D01*
X11971705Y-22999385D01*
X11921663Y-22980625D01*
X11853203Y-22954960D01*
X11796439Y-22912318D01*
X11771739Y-22845756D01*
X11786947Y-22776408D01*
X11808493Y-22747727D01*
X11892405Y-22664108D01*
X11913096Y-22643489D01*
X11938577Y-22608029D01*
X12040435Y-22466277D01*
X12043453Y-22462077D01*
X12059817Y-22428968D01*
X12140136Y-22266453D01*
X12140137Y-22266451D01*
X12142430Y-22261811D01*
X12207370Y-22048069D01*
X12236529Y-21826590D01*
X12237202Y-21799061D01*
X12237872Y-21771641D01*
X12259532Y-21704030D01*
X12314308Y-21658862D01*
X12363834Y-21648720D01*
X15119019Y-21648720D01*
X15187140Y-21668722D01*
X15233633Y-21722378D01*
X15243737Y-21792652D01*
X15227474Y-21838856D01*
X15193313Y-21896619D01*
X15146896Y-22056389D01*
X15143958Y-22093718D01*
X15143958Y-22526722D01*
X15144151Y-22529170D01*
X15144151Y-22529178D01*
X15145098Y-22541203D01*
X15146896Y-22564051D01*
X15193313Y-22723821D01*
X15278005Y-22867027D01*
X15280687Y-22869709D01*
X15305960Y-22934081D01*
X15292058Y-23003704D01*
X15281886Y-23019532D01*
X15278005Y-23023413D01*
X15193313Y-23166619D01*
X15146896Y-23326389D01*
X15146392Y-23332794D01*
X15146391Y-23332799D01*
X15145231Y-23347540D01*
X15143958Y-23363718D01*
X15143958Y-23796722D01*
X15144151Y-23799170D01*
X15144151Y-23799178D01*
X15145904Y-23821441D01*
X15146896Y-23834051D01*
X15193313Y-23993821D01*
X15197349Y-24000645D01*
X15221525Y-24041524D01*
X15238985Y-24110340D01*
X15223488Y-24166362D01*
X15206305Y-24197618D01*
X15201432Y-24216599D01*
X15201267Y-24217240D01*
X15194863Y-24235944D01*
X15191287Y-24244209D01*
X15186819Y-24254533D01*
X15185580Y-24262356D01*
X15185577Y-24262366D01*
X15179901Y-24298202D01*
X15177495Y-24309822D01*
X15171850Y-24331811D01*
X15166500Y-24352648D01*
X15166500Y-24372902D01*
X15164949Y-24392612D01*
X15161780Y-24412621D01*
X15162526Y-24420513D01*
X15165941Y-24456639D01*
X15166500Y-24468497D01*
X15166500Y-24493665D01*
X15151736Y-24551373D01*
X15149385Y-24554510D01*
X15098255Y-24690899D01*
X15091500Y-24753081D01*
X15091500Y-28049349D01*
X15098255Y-28111531D01*
X15149385Y-28247920D01*
X15236739Y-28364476D01*
X15353295Y-28451830D01*
X15489684Y-28502960D01*
X15551866Y-28509715D01*
X16048134Y-28509715D01*
X16110316Y-28502960D01*
X16246705Y-28451830D01*
X16324852Y-28393262D01*
X16391358Y-28368414D01*
X16460741Y-28383467D01*
X16475982Y-28393262D01*
X16546352Y-28446001D01*
X16561946Y-28454539D01*
X16682394Y-28499693D01*
X16697649Y-28503320D01*
X16748514Y-28508846D01*
X16755328Y-28509215D01*
X16781885Y-28509215D01*
X16797124Y-28504740D01*
X16798329Y-28503350D01*
X16800000Y-28495667D01*
X16800000Y-26327215D01*
X16820002Y-26259094D01*
X16873658Y-26212601D01*
X16926000Y-26201215D01*
X17074000Y-26201215D01*
X17142121Y-26221217D01*
X17188614Y-26274873D01*
X17200000Y-26327215D01*
X17200000Y-28491099D01*
X17204475Y-28506338D01*
X17205865Y-28507543D01*
X17213548Y-28509214D01*
X17244669Y-28509214D01*
X17251490Y-28508844D01*
X17302352Y-28503320D01*
X17317604Y-28499694D01*
X17438054Y-28454539D01*
X17453648Y-28446001D01*
X17524018Y-28393262D01*
X17590524Y-28368414D01*
X17659907Y-28383467D01*
X17675148Y-28393262D01*
X17753295Y-28451830D01*
X17889684Y-28502960D01*
X17951866Y-28509715D01*
X18448134Y-28509715D01*
X18510316Y-28502960D01*
X18596271Y-28470737D01*
X18667077Y-28465554D01*
X18729446Y-28499475D01*
X18763576Y-28561730D01*
X18766500Y-28588719D01*
X18766500Y-28828691D01*
X18746498Y-28896812D01*
X18692842Y-28943305D01*
X18622568Y-28953409D01*
X18574384Y-28935951D01*
X18453968Y-28861725D01*
X18453966Y-28861724D01*
X18447738Y-28857885D01*
X18287254Y-28804655D01*
X18286389Y-28804368D01*
X18286387Y-28804368D01*
X18279861Y-28802203D01*
X18273025Y-28801503D01*
X18273022Y-28801502D01*
X18229969Y-28797091D01*
X18175400Y-28791500D01*
X17274600Y-28791500D01*
X17271354Y-28791837D01*
X17271350Y-28791837D01*
X17175692Y-28801762D01*
X17175688Y-28801763D01*
X17168834Y-28802474D01*
X17162298Y-28804655D01*
X17162296Y-28804655D01*
X17091499Y-28828275D01*
X17001054Y-28858450D01*
X16850652Y-28951522D01*
X16725695Y-29076697D01*
X16721855Y-29082927D01*
X16721854Y-29082928D01*
X16663272Y-29177966D01*
X16632885Y-29227262D01*
X16577203Y-29395139D01*
X16566500Y-29499600D01*
X16566500Y-32500400D01*
X16566837Y-32503646D01*
X16566837Y-32503650D01*
X16567701Y-32511972D01*
X16577474Y-32606166D01*
X16633450Y-32773946D01*
X16726522Y-32924348D01*
X16851697Y-33049305D01*
X16857927Y-33053145D01*
X16857928Y-33053146D01*
X16995090Y-33137694D01*
X17002262Y-33142115D01*
X17069061Y-33164271D01*
X17163611Y-33195632D01*
X17163613Y-33195632D01*
X17170139Y-33197797D01*
X17176975Y-33198497D01*
X17176978Y-33198498D01*
X17219798Y-33202885D01*
X17274600Y-33208500D01*
X18175400Y-33208500D01*
X18178646Y-33208163D01*
X18178650Y-33208163D01*
X18274308Y-33198238D01*
X18274312Y-33198237D01*
X18281166Y-33197526D01*
X18287702Y-33195345D01*
X18287704Y-33195345D01*
X18448946Y-33141550D01*
X18449837Y-33144221D01*
X18507226Y-33135403D01*
X18572088Y-33164271D01*
X18611047Y-33223623D01*
X18616500Y-33260288D01*
X18616500Y-33400400D01*
X18616837Y-33403646D01*
X18616837Y-33403650D01*
X18622599Y-33459178D01*
X18627474Y-33506166D01*
X18683450Y-33673946D01*
X18776522Y-33824348D01*
X18901697Y-33949305D01*
X18907927Y-33953145D01*
X18907928Y-33953146D01*
X19045090Y-34037694D01*
X19052262Y-34042115D01*
X19132005Y-34068564D01*
X19213611Y-34095632D01*
X19213613Y-34095632D01*
X19220139Y-34097797D01*
X19226975Y-34098497D01*
X19226978Y-34098498D01*
X19270031Y-34102909D01*
X19324600Y-34108500D01*
X20675400Y-34108500D01*
X20678646Y-34108163D01*
X20678650Y-34108163D01*
X20774308Y-34098238D01*
X20774312Y-34098237D01*
X20781166Y-34097526D01*
X20787702Y-34095345D01*
X20787704Y-34095345D01*
X20919806Y-34051272D01*
X20948946Y-34041550D01*
X21099348Y-33948478D01*
X21105931Y-33941883D01*
X21107133Y-33941226D01*
X21110258Y-33938749D01*
X21110682Y-33939284D01*
X21168212Y-33907802D01*
X21239032Y-33912802D01*
X21295906Y-33955297D01*
X21314631Y-33991022D01*
X21356588Y-34116784D01*
X21362761Y-34129962D01*
X21448063Y-34267807D01*
X21457099Y-34279208D01*
X21571828Y-34393738D01*
X21580762Y-34400794D01*
X21621823Y-34458712D01*
X21625053Y-34529635D01*
X21589426Y-34591046D01*
X21581593Y-34597846D01*
X21575652Y-34601522D01*
X21450695Y-34726697D01*
X21446855Y-34732927D01*
X21446854Y-34732928D01*
X21386022Y-34831616D01*
X21333250Y-34879109D01*
X21278762Y-34891500D01*
X20603767Y-34891500D01*
X20592584Y-34890973D01*
X20585091Y-34889298D01*
X20577165Y-34889547D01*
X20577164Y-34889547D01*
X20517014Y-34891438D01*
X20513055Y-34891500D01*
X19324600Y-34891500D01*
X19321354Y-34891837D01*
X19321350Y-34891837D01*
X19225692Y-34901762D01*
X19225688Y-34901763D01*
X19218834Y-34902474D01*
X19212298Y-34904655D01*
X19212296Y-34904655D01*
X19080194Y-34948728D01*
X19051054Y-34958450D01*
X18900652Y-35051522D01*
X18775695Y-35176697D01*
X18682885Y-35327262D01*
X18627203Y-35495139D01*
X18616500Y-35599600D01*
X18616500Y-36500400D01*
X18616837Y-36503646D01*
X18616837Y-36503650D01*
X18626629Y-36598021D01*
X18627474Y-36606166D01*
X18683450Y-36773946D01*
X18776522Y-36924348D01*
X18901697Y-37049305D01*
X18907927Y-37053145D01*
X18907928Y-37053146D01*
X19045090Y-37137694D01*
X19052262Y-37142115D01*
X19132005Y-37168564D01*
X19213611Y-37195632D01*
X19213613Y-37195632D01*
X19220139Y-37197797D01*
X19226975Y-37198497D01*
X19226978Y-37198498D01*
X19270031Y-37202909D01*
X19324600Y-37208500D01*
X20675400Y-37208500D01*
X20678646Y-37208163D01*
X20678650Y-37208163D01*
X20774308Y-37198238D01*
X20774312Y-37198237D01*
X20781166Y-37197526D01*
X20787702Y-37195345D01*
X20787704Y-37195345D01*
X20919806Y-37151272D01*
X20948946Y-37141550D01*
X21099348Y-37048478D01*
X21224305Y-36923303D01*
X21317115Y-36772738D01*
X21372797Y-36604861D01*
X21378990Y-36544419D01*
X21379524Y-36539210D01*
X21406366Y-36473482D01*
X21464481Y-36432701D01*
X21535419Y-36429813D01*
X21576324Y-36449910D01*
X21576697Y-36449305D01*
X21720090Y-36537694D01*
X21727262Y-36542115D01*
X21807005Y-36568564D01*
X21888611Y-36595632D01*
X21888613Y-36595632D01*
X21895139Y-36597797D01*
X21901975Y-36598497D01*
X21901978Y-36598498D01*
X21945031Y-36602909D01*
X21999600Y-36608500D01*
X23000400Y-36608500D01*
X23003646Y-36608163D01*
X23003650Y-36608163D01*
X23099308Y-36598238D01*
X23099312Y-36598237D01*
X23106166Y-36597526D01*
X23112702Y-36595345D01*
X23112704Y-36595345D01*
X23244806Y-36551272D01*
X23273946Y-36541550D01*
X23424348Y-36448478D01*
X23442981Y-36429813D01*
X23544134Y-36328483D01*
X23549305Y-36323303D01*
X23642115Y-36172738D01*
X23697797Y-36004861D01*
X23708500Y-35900400D01*
X23708500Y-35149600D01*
X23708163Y-35146350D01*
X23698238Y-35050692D01*
X23698237Y-35050688D01*
X23697526Y-35043834D01*
X23641550Y-34876054D01*
X23548478Y-34725652D01*
X23423303Y-34600695D01*
X23418765Y-34597898D01*
X23378176Y-34540647D01*
X23374946Y-34469724D01*
X23410572Y-34408313D01*
X23419068Y-34400938D01*
X23429207Y-34392902D01*
X23543739Y-34278171D01*
X23552751Y-34266760D01*
X23637816Y-34128757D01*
X23643963Y-34115576D01*
X23695138Y-33961290D01*
X23698005Y-33947914D01*
X23707672Y-33853562D01*
X23708000Y-33847146D01*
X23708000Y-33747115D01*
X23703525Y-33731876D01*
X23702135Y-33730671D01*
X23694452Y-33729000D01*
X22372000Y-33729000D01*
X22303879Y-33708998D01*
X22257386Y-33655342D01*
X22246000Y-33603000D01*
X22246000Y-33202885D01*
X22754000Y-33202885D01*
X22758475Y-33218124D01*
X22759865Y-33219329D01*
X22767548Y-33221000D01*
X23689884Y-33221000D01*
X23705123Y-33216525D01*
X23706328Y-33215135D01*
X23707999Y-33207452D01*
X23707999Y-33102905D01*
X23707662Y-33096386D01*
X23697743Y-33000794D01*
X23694851Y-32987400D01*
X23643412Y-32833216D01*
X23637239Y-32820038D01*
X23551937Y-32682193D01*
X23542901Y-32670792D01*
X23428171Y-32556261D01*
X23416760Y-32547249D01*
X23278757Y-32462184D01*
X23265576Y-32456037D01*
X23111290Y-32404862D01*
X23097914Y-32401995D01*
X23003562Y-32392328D01*
X22997145Y-32392000D01*
X22772115Y-32392000D01*
X22756876Y-32396475D01*
X22755671Y-32397865D01*
X22754000Y-32405548D01*
X22754000Y-33202885D01*
X22246000Y-33202885D01*
X22246000Y-32410116D01*
X22241525Y-32394877D01*
X22240135Y-32393672D01*
X22232452Y-32392001D01*
X22002905Y-32392001D01*
X21996386Y-32392338D01*
X21900794Y-32402257D01*
X21887400Y-32405149D01*
X21733216Y-32456588D01*
X21720038Y-32462761D01*
X21575965Y-32551917D01*
X21575123Y-32550556D01*
X21517330Y-32573946D01*
X21447566Y-32560772D01*
X21395999Y-32511972D01*
X21379554Y-32461566D01*
X21373238Y-32400692D01*
X21373237Y-32400688D01*
X21372526Y-32393834D01*
X21324331Y-32249376D01*
X21321747Y-32178427D01*
X21357930Y-32117343D01*
X21421395Y-32085518D01*
X21443855Y-32083500D01*
X27615500Y-32083500D01*
X27683621Y-32103502D01*
X27730114Y-32157158D01*
X27741500Y-32209500D01*
X27741500Y-32348134D01*
X27748255Y-32410316D01*
X27799385Y-32546705D01*
X27886739Y-32663261D01*
X28003295Y-32750615D01*
X28139684Y-32801745D01*
X28201866Y-32808500D01*
X29998134Y-32808500D01*
X30060316Y-32801745D01*
X30196705Y-32750615D01*
X30313261Y-32663261D01*
X30400615Y-32546705D01*
X30451745Y-32410316D01*
X30458500Y-32348134D01*
X30458500Y-30551866D01*
X30451745Y-30489684D01*
X30400615Y-30353295D01*
X30313261Y-30236739D01*
X30196705Y-30149385D01*
X30129919Y-30124348D01*
X30077687Y-30104767D01*
X30020923Y-30062125D01*
X29996223Y-29995564D01*
X30011430Y-29926215D01*
X30032977Y-29897535D01*
X30134052Y-29796812D01*
X30140730Y-29788965D01*
X30265003Y-29616020D01*
X30270313Y-29607183D01*
X30364670Y-29416267D01*
X30368469Y-29406672D01*
X30430377Y-29202910D01*
X30432555Y-29192837D01*
X30433986Y-29181962D01*
X30431775Y-29167778D01*
X30418617Y-29164000D01*
X27783225Y-29164000D01*
X27769694Y-29167973D01*
X27768257Y-29177966D01*
X27798565Y-29312446D01*
X27801645Y-29322275D01*
X27881770Y-29519603D01*
X27886413Y-29528794D01*
X27997694Y-29710388D01*
X28003777Y-29718699D01*
X28143213Y-29879667D01*
X28150577Y-29886879D01*
X28155522Y-29890985D01*
X28195156Y-29949889D01*
X28196653Y-30020870D01*
X28159537Y-30081392D01*
X28119264Y-30105910D01*
X28011705Y-30146232D01*
X28011704Y-30146233D01*
X28003295Y-30149385D01*
X27886739Y-30236739D01*
X27799385Y-30353295D01*
X27748255Y-30489684D01*
X27741500Y-30551866D01*
X27741500Y-30690500D01*
X27721498Y-30758621D01*
X27667842Y-30805114D01*
X27615500Y-30816500D01*
X20697000Y-30816500D01*
X20628879Y-30796498D01*
X20582386Y-30742842D01*
X20571000Y-30690500D01*
X20571000Y-30466686D01*
X20591002Y-30398565D01*
X20644658Y-30352072D01*
X20657115Y-30347165D01*
X20673946Y-30341550D01*
X20680913Y-30337239D01*
X20818120Y-30252332D01*
X20824348Y-30248478D01*
X20949305Y-30123303D01*
X20968909Y-30091500D01*
X21038275Y-29978968D01*
X21038276Y-29978966D01*
X21042115Y-29972738D01*
X21097797Y-29804861D01*
X21108500Y-29700400D01*
X21108500Y-29697095D01*
X21892001Y-29697095D01*
X21892338Y-29703614D01*
X21902257Y-29799206D01*
X21905149Y-29812600D01*
X21956588Y-29966784D01*
X21962761Y-29979962D01*
X22048063Y-30117807D01*
X22057099Y-30129208D01*
X22171829Y-30243739D01*
X22183240Y-30252751D01*
X22321243Y-30337816D01*
X22334424Y-30343963D01*
X22488710Y-30395138D01*
X22502086Y-30398005D01*
X22596438Y-30407672D01*
X22602854Y-30408000D01*
X22790385Y-30408000D01*
X22805624Y-30403525D01*
X22806829Y-30402135D01*
X22808500Y-30394452D01*
X22808500Y-30389884D01*
X23316500Y-30389884D01*
X23320975Y-30405123D01*
X23322365Y-30406328D01*
X23330048Y-30407999D01*
X23522095Y-30407999D01*
X23528614Y-30407662D01*
X23624206Y-30397743D01*
X23637600Y-30394851D01*
X23791784Y-30343412D01*
X23804962Y-30337239D01*
X23942807Y-30251937D01*
X23954208Y-30242901D01*
X24068739Y-30128171D01*
X24077751Y-30116760D01*
X24162816Y-29978757D01*
X24168963Y-29965576D01*
X24220138Y-29811290D01*
X24223005Y-29797914D01*
X24232672Y-29703562D01*
X24233000Y-29697146D01*
X24233000Y-29272115D01*
X24228525Y-29256876D01*
X24227135Y-29255671D01*
X24219452Y-29254000D01*
X23334615Y-29254000D01*
X23319376Y-29258475D01*
X23318171Y-29259865D01*
X23316500Y-29267548D01*
X23316500Y-30389884D01*
X22808500Y-30389884D01*
X22808500Y-29272115D01*
X22804025Y-29256876D01*
X22802635Y-29255671D01*
X22794952Y-29254000D01*
X21910116Y-29254000D01*
X21894877Y-29258475D01*
X21893672Y-29259865D01*
X21892001Y-29267548D01*
X21892001Y-29697095D01*
X21108500Y-29697095D01*
X21108500Y-28727885D01*
X21892000Y-28727885D01*
X21896475Y-28743124D01*
X21897865Y-28744329D01*
X21905548Y-28746000D01*
X22790385Y-28746000D01*
X22805624Y-28741525D01*
X22806829Y-28740135D01*
X22808500Y-28732452D01*
X22808500Y-28727885D01*
X23316500Y-28727885D01*
X23320975Y-28743124D01*
X23322365Y-28744329D01*
X23330048Y-28746000D01*
X24214884Y-28746000D01*
X24230123Y-28741525D01*
X24231328Y-28740135D01*
X24232999Y-28732452D01*
X24232999Y-28302905D01*
X24232662Y-28296386D01*
X24222743Y-28200794D01*
X24219851Y-28187400D01*
X24168412Y-28033216D01*
X24162239Y-28020038D01*
X24076937Y-27882193D01*
X24067901Y-27870792D01*
X24036183Y-27839129D01*
X24002104Y-27776846D01*
X24007107Y-27706026D01*
X24036029Y-27660937D01*
X24068739Y-27628171D01*
X24077751Y-27616760D01*
X24162816Y-27478757D01*
X24168963Y-27465576D01*
X24220138Y-27311290D01*
X24223005Y-27297914D01*
X24232672Y-27203562D01*
X24233000Y-27197146D01*
X24233000Y-26772115D01*
X24228525Y-26756876D01*
X24227135Y-26755671D01*
X24219452Y-26754000D01*
X23334615Y-26754000D01*
X23319376Y-26758475D01*
X23318171Y-26759865D01*
X23316500Y-26767548D01*
X23316500Y-28727885D01*
X22808500Y-28727885D01*
X22808500Y-26772115D01*
X22804025Y-26756876D01*
X22802635Y-26755671D01*
X22794952Y-26754000D01*
X21910116Y-26754000D01*
X21894877Y-26758475D01*
X21893672Y-26759865D01*
X21892001Y-26767548D01*
X21892001Y-27197095D01*
X21892338Y-27203614D01*
X21902257Y-27299206D01*
X21905149Y-27312600D01*
X21956588Y-27466784D01*
X21962761Y-27479962D01*
X22048063Y-27617807D01*
X22057099Y-27629208D01*
X22088817Y-27660871D01*
X22122896Y-27723154D01*
X22117893Y-27793974D01*
X22088971Y-27839063D01*
X22056261Y-27871829D01*
X22047249Y-27883240D01*
X21962184Y-28021243D01*
X21956037Y-28034424D01*
X21904862Y-28188710D01*
X21901995Y-28202086D01*
X21892328Y-28296438D01*
X21892000Y-28302855D01*
X21892000Y-28727885D01*
X21108500Y-28727885D01*
X21108500Y-28299600D01*
X21108163Y-28296350D01*
X21098238Y-28200692D01*
X21098237Y-28200688D01*
X21097526Y-28193834D01*
X21070068Y-28111531D01*
X21043868Y-28033002D01*
X21041550Y-28026054D01*
X20948478Y-27875652D01*
X20943296Y-27870479D01*
X20943292Y-27870474D01*
X20911892Y-27839129D01*
X20877812Y-27776847D01*
X20882815Y-27706027D01*
X20911735Y-27660939D01*
X20944133Y-27628484D01*
X20949305Y-27623303D01*
X20975127Y-27581412D01*
X21038275Y-27478968D01*
X21038276Y-27478966D01*
X21042115Y-27472738D01*
X21097797Y-27304861D01*
X21108500Y-27200400D01*
X21108500Y-26227885D01*
X21892000Y-26227885D01*
X21896475Y-26243124D01*
X21897865Y-26244329D01*
X21905548Y-26246000D01*
X22790385Y-26246000D01*
X22805624Y-26241525D01*
X22806829Y-26240135D01*
X22808500Y-26232452D01*
X22808500Y-26227885D01*
X23316500Y-26227885D01*
X23320975Y-26243124D01*
X23322365Y-26244329D01*
X23330048Y-26246000D01*
X24214884Y-26246000D01*
X24230123Y-26241525D01*
X24231328Y-26240135D01*
X24232999Y-26232452D01*
X24232999Y-25802905D01*
X24232662Y-25796386D01*
X24222743Y-25700794D01*
X24219851Y-25687400D01*
X24168412Y-25533216D01*
X24162239Y-25520038D01*
X24076937Y-25382193D01*
X24067901Y-25370792D01*
X23953171Y-25256261D01*
X23941760Y-25247249D01*
X23803757Y-25162184D01*
X23790576Y-25156037D01*
X23636290Y-25104862D01*
X23622914Y-25101995D01*
X23528562Y-25092328D01*
X23522145Y-25092000D01*
X23334615Y-25092000D01*
X23319376Y-25096475D01*
X23318171Y-25097865D01*
X23316500Y-25105548D01*
X23316500Y-26227885D01*
X22808500Y-26227885D01*
X22808500Y-25110116D01*
X22804025Y-25094877D01*
X22802635Y-25093672D01*
X22794952Y-25092001D01*
X22602905Y-25092001D01*
X22596386Y-25092338D01*
X22500794Y-25102257D01*
X22487400Y-25105149D01*
X22333216Y-25156588D01*
X22320038Y-25162761D01*
X22182193Y-25248063D01*
X22170792Y-25257099D01*
X22056261Y-25371829D01*
X22047249Y-25383240D01*
X21962184Y-25521243D01*
X21956037Y-25534424D01*
X21904862Y-25688710D01*
X21901995Y-25702086D01*
X21892328Y-25796438D01*
X21892000Y-25802855D01*
X21892000Y-26227885D01*
X21108500Y-26227885D01*
X21108500Y-25799600D01*
X21100396Y-25721492D01*
X21098238Y-25700692D01*
X21098237Y-25700688D01*
X21097526Y-25693834D01*
X21082559Y-25648971D01*
X21043868Y-25533002D01*
X21041550Y-25526054D01*
X20948478Y-25375652D01*
X20823303Y-25250695D01*
X20804858Y-25239325D01*
X20678968Y-25161725D01*
X20678966Y-25161724D01*
X20672738Y-25157885D01*
X20665789Y-25155580D01*
X20657330Y-25152774D01*
X20598971Y-25112342D01*
X20571736Y-25046777D01*
X20571000Y-25033182D01*
X20571000Y-24512044D01*
X20591002Y-24443923D01*
X20644658Y-24397430D01*
X20706886Y-24386432D01*
X20733500Y-24388527D01*
X20733508Y-24388527D01*
X20735956Y-24388720D01*
X22568960Y-24388720D01*
X22571408Y-24388527D01*
X22571416Y-24388527D01*
X22599879Y-24386287D01*
X22599884Y-24386286D01*
X22606289Y-24385782D01*
X22720338Y-24352648D01*
X22758446Y-24341577D01*
X22758448Y-24341576D01*
X22766059Y-24339365D01*
X22794869Y-24322327D01*
X22902438Y-24258711D01*
X22902441Y-24258709D01*
X22909265Y-24254673D01*
X22914873Y-24249065D01*
X22921133Y-24244209D01*
X22922302Y-24245716D01*
X22975625Y-24216599D01*
X23002408Y-24213720D01*
X25995626Y-24213720D01*
X26063747Y-24233722D01*
X26084721Y-24250625D01*
X27749778Y-25915682D01*
X27783804Y-25977994D01*
X27782100Y-26038448D01*
X27760989Y-26114570D01*
X27760441Y-26119700D01*
X27760440Y-26119704D01*
X27756933Y-26152522D01*
X27737251Y-26336695D01*
X27737548Y-26341848D01*
X27737548Y-26341851D01*
X27743011Y-26436590D01*
X27750110Y-26559715D01*
X27751247Y-26564761D01*
X27751248Y-26564767D01*
X27771119Y-26652939D01*
X27799222Y-26777639D01*
X27883266Y-26984616D01*
X27999987Y-27175088D01*
X28146250Y-27343938D01*
X28222846Y-27407529D01*
X28308641Y-27478757D01*
X28318126Y-27486632D01*
X28391955Y-27529774D01*
X28440679Y-27581412D01*
X28453750Y-27651195D01*
X28427019Y-27716967D01*
X28386562Y-27750327D01*
X28378457Y-27754546D01*
X28369738Y-27760036D01*
X28199433Y-27887905D01*
X28191726Y-27894748D01*
X28044590Y-28048717D01*
X28038104Y-28056727D01*
X27918098Y-28232649D01*
X27913000Y-28241623D01*
X27823338Y-28434783D01*
X27819775Y-28444470D01*
X27764389Y-28644183D01*
X27765912Y-28652607D01*
X27778292Y-28656000D01*
X30418344Y-28656000D01*
X30431875Y-28652027D01*
X30433180Y-28642947D01*
X30391214Y-28475875D01*
X30387894Y-28466124D01*
X30302972Y-28270814D01*
X30298105Y-28261739D01*
X30182426Y-28082926D01*
X30176136Y-28074757D01*
X30032806Y-27917240D01*
X30025273Y-27910215D01*
X29858139Y-27778222D01*
X29849556Y-27772520D01*
X29812602Y-27752120D01*
X29762631Y-27701687D01*
X29747859Y-27632245D01*
X29772975Y-27565839D01*
X29800327Y-27539232D01*
X29823797Y-27522491D01*
X29979860Y-27411173D01*
X30138096Y-27253489D01*
X30197594Y-27170689D01*
X30265435Y-27076277D01*
X30268453Y-27072077D01*
X30367430Y-26871811D01*
X30432370Y-26658069D01*
X30461529Y-26436590D01*
X30463156Y-26370000D01*
X30444852Y-26147361D01*
X30390431Y-25930702D01*
X30301354Y-25725840D01*
X30251625Y-25648971D01*
X30182822Y-25542617D01*
X30182820Y-25542614D01*
X30180014Y-25538277D01*
X30029670Y-25373051D01*
X30025619Y-25369852D01*
X30025615Y-25369848D01*
X29858414Y-25237800D01*
X29858410Y-25237798D01*
X29854359Y-25234598D01*
X29813053Y-25211796D01*
X29763084Y-25161364D01*
X29748312Y-25091921D01*
X29773428Y-25025516D01*
X29800780Y-24998909D01*
X29901858Y-24926811D01*
X29979860Y-24871173D01*
X30138096Y-24713489D01*
X30148684Y-24698755D01*
X30265435Y-24536277D01*
X30268453Y-24532077D01*
X30287438Y-24493665D01*
X30365136Y-24336453D01*
X30365137Y-24336451D01*
X30367430Y-24331811D01*
X30421270Y-24154604D01*
X30430865Y-24123023D01*
X30430865Y-24123021D01*
X30432370Y-24118069D01*
X30461529Y-23896590D01*
X30461750Y-23887557D01*
X30463074Y-23833365D01*
X30463074Y-23833361D01*
X30463156Y-23830000D01*
X30444852Y-23607361D01*
X30390431Y-23390702D01*
X30301354Y-23185840D01*
X30233762Y-23081358D01*
X30182822Y-23002617D01*
X30182820Y-23002614D01*
X30180014Y-22998277D01*
X30029670Y-22833051D01*
X30025619Y-22829852D01*
X30025615Y-22829848D01*
X29858414Y-22697800D01*
X29858410Y-22697798D01*
X29854359Y-22694598D01*
X29813053Y-22671796D01*
X29763084Y-22621364D01*
X29748312Y-22551921D01*
X29773428Y-22485516D01*
X29800780Y-22458909D01*
X29867640Y-22411218D01*
X29979860Y-22331173D01*
X30138096Y-22173489D01*
X30145924Y-22162596D01*
X30265435Y-21996277D01*
X30268453Y-21992077D01*
X30289390Y-21949715D01*
X30365136Y-21796453D01*
X30365137Y-21796451D01*
X30367430Y-21791811D01*
X30432370Y-21578069D01*
X30461529Y-21356590D01*
X30463156Y-21290000D01*
X30444852Y-21067361D01*
X30390431Y-20850702D01*
X30301354Y-20645840D01*
X30180014Y-20458277D01*
X30029670Y-20293051D01*
X30025619Y-20289852D01*
X30025615Y-20289848D01*
X29858414Y-20157800D01*
X29858410Y-20157798D01*
X29854359Y-20154598D01*
X29813053Y-20131796D01*
X29763084Y-20081364D01*
X29748312Y-20011921D01*
X29773428Y-19945516D01*
X29800780Y-19918909D01*
X29844603Y-19887650D01*
X29979860Y-19791173D01*
X30138096Y-19633489D01*
X30145924Y-19622596D01*
X30265435Y-19456277D01*
X30268453Y-19452077D01*
X30289390Y-19409715D01*
X30365136Y-19256453D01*
X30365137Y-19256451D01*
X30367430Y-19251811D01*
X30428796Y-19049833D01*
X30430865Y-19043023D01*
X30430865Y-19043021D01*
X30432370Y-19038069D01*
X30461529Y-18816590D01*
X30463156Y-18750000D01*
X30444852Y-18527361D01*
X30390431Y-18310702D01*
X30301354Y-18105840D01*
X30239622Y-18010417D01*
X30182822Y-17922617D01*
X30182820Y-17922614D01*
X30180014Y-17918277D01*
X30029670Y-17753051D01*
X30025619Y-17749852D01*
X30025615Y-17749848D01*
X29858414Y-17617800D01*
X29858410Y-17617798D01*
X29854359Y-17614598D01*
X29813053Y-17591796D01*
X29763084Y-17541364D01*
X29748312Y-17471921D01*
X29773428Y-17405516D01*
X29800780Y-17378909D01*
X29864309Y-17333594D01*
X29979860Y-17251173D01*
X29986558Y-17244499D01*
X30134435Y-17097137D01*
X30138096Y-17093489D01*
X30184146Y-17029404D01*
X30265435Y-16916277D01*
X30268453Y-16912077D01*
X30367430Y-16711811D01*
X30432370Y-16498069D01*
X30461529Y-16276590D01*
X30461611Y-16273240D01*
X30463074Y-16213365D01*
X30463074Y-16213361D01*
X30463156Y-16210000D01*
X30444852Y-15987361D01*
X30390431Y-15770702D01*
X30301354Y-15565840D01*
X30219685Y-15439599D01*
X30182822Y-15382617D01*
X30182820Y-15382614D01*
X30180014Y-15378277D01*
X30029670Y-15213051D01*
X30025619Y-15209852D01*
X30025615Y-15209848D01*
X29858414Y-15077800D01*
X29858410Y-15077798D01*
X29854359Y-15074598D01*
X29813053Y-15051796D01*
X29763084Y-15001364D01*
X29748312Y-14931921D01*
X29773428Y-14865516D01*
X29800780Y-14838909D01*
X29844603Y-14807650D01*
X29979860Y-14711173D01*
X30138096Y-14553489D01*
X30190777Y-14480176D01*
X30265435Y-14376277D01*
X30268453Y-14372077D01*
X30304418Y-14299308D01*
X30365136Y-14176453D01*
X30365137Y-14176451D01*
X30367430Y-14171811D01*
X30403272Y-14053841D01*
X30430865Y-13963023D01*
X30430865Y-13963021D01*
X30432370Y-13958069D01*
X30461529Y-13736590D01*
X30463156Y-13670000D01*
X30444852Y-13447361D01*
X30443591Y-13442339D01*
X30404242Y-13285684D01*
X30407046Y-13214743D01*
X30447759Y-13156580D01*
X30513455Y-13129661D01*
X30526446Y-13128989D01*
X30666722Y-13128989D01*
X30677905Y-13129516D01*
X30685398Y-13131191D01*
X30693324Y-13130942D01*
X30693325Y-13130942D01*
X30753475Y-13129051D01*
X30757434Y-13128989D01*
X30785345Y-13128989D01*
X30789280Y-13128492D01*
X30789345Y-13128484D01*
X30801182Y-13127551D01*
X30833440Y-13126537D01*
X30837459Y-13126411D01*
X30845378Y-13126162D01*
X30864832Y-13120510D01*
X30884189Y-13116502D01*
X30896419Y-13114957D01*
X30896420Y-13114957D01*
X30904286Y-13113963D01*
X30911657Y-13111044D01*
X30911659Y-13111044D01*
X30945401Y-13097685D01*
X30956631Y-13093840D01*
X30991472Y-13083718D01*
X30991473Y-13083718D01*
X30999082Y-13081507D01*
X31005901Y-13077474D01*
X31005906Y-13077472D01*
X31016517Y-13071196D01*
X31034265Y-13062501D01*
X31053106Y-13055041D01*
X31088876Y-13029053D01*
X31098796Y-13022537D01*
X31130024Y-13004069D01*
X31130027Y-13004067D01*
X31136851Y-13000031D01*
X31151175Y-12985707D01*
X31166202Y-12972872D01*
X31182596Y-12960961D01*
X31210778Y-12926895D01*
X31218767Y-12918117D01*
X31392258Y-12744626D01*
X31400538Y-12737091D01*
X31407018Y-12732978D01*
X31453645Y-12683325D01*
X31456399Y-12680484D01*
X31476135Y-12660748D01*
X31478615Y-12657551D01*
X31486320Y-12648529D01*
X31511159Y-12622078D01*
X31516586Y-12616299D01*
X31520405Y-12609353D01*
X31520407Y-12609350D01*
X31526348Y-12598544D01*
X31537199Y-12582025D01*
X31544758Y-12572279D01*
X31549614Y-12566019D01*
X31552759Y-12558750D01*
X31552762Y-12558746D01*
X31567174Y-12525441D01*
X31572391Y-12514791D01*
X31593695Y-12476038D01*
X31598733Y-12456415D01*
X31605137Y-12437712D01*
X31610033Y-12426398D01*
X31610033Y-12426397D01*
X31613181Y-12419123D01*
X31614420Y-12411300D01*
X31614423Y-12411290D01*
X31620099Y-12375454D01*
X31622505Y-12363834D01*
X31631528Y-12328689D01*
X31631528Y-12328688D01*
X31633500Y-12321008D01*
X31633500Y-12300754D01*
X31635051Y-12281043D01*
X31636980Y-12268864D01*
X31638220Y-12261035D01*
X31634059Y-12217016D01*
X31633500Y-12205159D01*
X31633500Y-4828768D01*
X31634027Y-4817585D01*
X31635702Y-4810092D01*
X31633562Y-4742001D01*
X31633500Y-4738044D01*
X31633500Y-4710144D01*
X31632996Y-4706153D01*
X31632063Y-4694311D01*
X31630923Y-4658036D01*
X31630674Y-4650111D01*
X31628462Y-4642497D01*
X31628461Y-4642492D01*
X31625023Y-4630659D01*
X31621012Y-4611295D01*
X31619467Y-4599064D01*
X31618474Y-4591203D01*
X31615557Y-4583836D01*
X31615556Y-4583831D01*
X31602198Y-4550092D01*
X31598354Y-4538865D01*
X31589947Y-4509931D01*
X31586018Y-4496407D01*
X31575707Y-4478972D01*
X31567012Y-4461224D01*
X31559552Y-4442383D01*
X31533564Y-4406613D01*
X31527048Y-4396693D01*
X31508580Y-4365465D01*
X31508578Y-4365462D01*
X31504542Y-4358638D01*
X31490221Y-4344317D01*
X31477380Y-4329283D01*
X31470132Y-4319307D01*
X31465472Y-4312893D01*
X31431407Y-4284712D01*
X31422626Y-4276722D01*
X31003647Y-3857742D01*
X30996113Y-3849463D01*
X30992000Y-3842982D01*
X30942348Y-3796356D01*
X30939507Y-3793602D01*
X30919770Y-3773865D01*
X30916573Y-3771385D01*
X30907551Y-3763680D01*
X30881100Y-3738841D01*
X30875321Y-3733414D01*
X30868375Y-3729595D01*
X30868372Y-3729593D01*
X30857566Y-3723652D01*
X30841047Y-3712801D01*
X30840583Y-3712441D01*
X30825041Y-3700386D01*
X30817772Y-3697241D01*
X30817768Y-3697238D01*
X30784463Y-3682826D01*
X30773813Y-3677609D01*
X30735060Y-3656305D01*
X30715437Y-3651267D01*
X30696734Y-3644863D01*
X30685420Y-3639967D01*
X30685419Y-3639967D01*
X30678145Y-3636819D01*
X30670322Y-3635580D01*
X30670312Y-3635577D01*
X30634476Y-3629901D01*
X30622856Y-3627495D01*
X30587711Y-3618472D01*
X30587710Y-3618472D01*
X30580030Y-3616500D01*
X30559776Y-3616500D01*
X30540065Y-3614949D01*
X30527886Y-3613020D01*
X30520057Y-3611780D01*
X30512165Y-3612526D01*
X30476039Y-3615941D01*
X30464181Y-3616500D01*
X30423360Y-3616500D01*
X30355239Y-3596498D01*
X30308746Y-3542842D01*
X30298642Y-3472568D01*
X30311770Y-3436346D01*
X30310180Y-3435605D01*
X30313275Y-3428968D01*
X30317115Y-3422738D01*
X30344105Y-3341365D01*
X30370632Y-3261389D01*
X30370632Y-3261387D01*
X30372797Y-3254861D01*
X30383500Y-3150400D01*
X30383500Y-2249600D01*
X30381072Y-2226198D01*
X30373238Y-2150692D01*
X30373237Y-2150688D01*
X30372526Y-2143834D01*
X30366136Y-2124679D01*
X30318868Y-1983002D01*
X30316550Y-1976054D01*
X30223478Y-1825652D01*
X30098303Y-1700695D01*
X30088946Y-1694927D01*
X29953968Y-1611725D01*
X29953966Y-1611724D01*
X29947738Y-1607885D01*
X29787254Y-1554655D01*
X29786389Y-1554368D01*
X29786387Y-1554368D01*
X29779861Y-1552203D01*
X29773025Y-1551503D01*
X29773022Y-1551502D01*
X29729969Y-1547091D01*
X29675400Y-1541500D01*
X28324600Y-1541500D01*
X28321354Y-1541837D01*
X28321350Y-1541837D01*
X28225692Y-1551762D01*
X28225688Y-1551763D01*
X28218834Y-1552474D01*
X28212298Y-1554655D01*
X28212296Y-1554655D01*
X28080194Y-1598728D01*
X28051054Y-1608450D01*
X28044822Y-1612306D01*
X28044823Y-1612306D01*
X28025654Y-1624168D01*
X27957202Y-1643006D01*
X27889432Y-1621845D01*
X27850897Y-1581163D01*
X27803089Y-1500322D01*
X27793449Y-1487896D01*
X27687104Y-1381551D01*
X27674678Y-1371911D01*
X27545221Y-1295352D01*
X27530790Y-1289107D01*
X27384935Y-1246731D01*
X27372333Y-1244430D01*
X27343916Y-1242193D01*
X27338986Y-1242000D01*
X26959615Y-1242000D01*
X26944376Y-1246475D01*
X26943171Y-1247865D01*
X26941500Y-1255548D01*
X26941500Y-2839884D01*
X26945975Y-2855123D01*
X26947365Y-2856328D01*
X26968283Y-2860878D01*
X26967288Y-2865452D01*
X27010027Y-2878001D01*
X27056520Y-2931657D01*
X27066624Y-3001931D01*
X27037130Y-3066511D01*
X27031001Y-3073094D01*
X26999500Y-3104595D01*
X26937188Y-3138621D01*
X26910405Y-3141500D01*
X26184500Y-3141500D01*
X26116379Y-3121498D01*
X26069886Y-3067842D01*
X26058500Y-3015500D01*
X26058500Y-2984000D01*
X26078502Y-2915879D01*
X26132158Y-2869386D01*
X26184500Y-2858000D01*
X26415385Y-2858000D01*
X26430624Y-2853525D01*
X26431829Y-2852135D01*
X26433500Y-2844452D01*
X26433500Y-2322115D01*
X26429025Y-2306876D01*
X26427635Y-2305671D01*
X26419952Y-2304000D01*
X25804842Y-2304000D01*
X25740703Y-2286453D01*
X25678388Y-2249600D01*
X25663601Y-2240855D01*
X25655990Y-2238644D01*
X25655988Y-2238643D01*
X25576455Y-2215537D01*
X25503831Y-2194438D01*
X25497426Y-2193934D01*
X25497421Y-2193933D01*
X25468958Y-2191693D01*
X25468950Y-2191693D01*
X25466502Y-2191500D01*
X24952095Y-2191500D01*
X24883974Y-2171498D01*
X24862999Y-2154595D01*
X24716405Y-2008000D01*
X24541147Y-1832742D01*
X24533613Y-1824463D01*
X24529500Y-1817982D01*
X24487567Y-1778605D01*
X25450061Y-1778605D01*
X25450101Y-1792706D01*
X25457370Y-1796000D01*
X26415385Y-1796000D01*
X26430624Y-1791525D01*
X26431829Y-1790135D01*
X26433500Y-1782452D01*
X26433500Y-1260116D01*
X26429025Y-1244877D01*
X26427635Y-1243672D01*
X26419952Y-1242001D01*
X26036017Y-1242001D01*
X26031080Y-1242195D01*
X26002664Y-1244430D01*
X25990069Y-1246730D01*
X25844210Y-1289107D01*
X25829779Y-1295352D01*
X25700322Y-1371911D01*
X25687896Y-1381551D01*
X25581551Y-1487896D01*
X25571911Y-1500322D01*
X25495352Y-1629779D01*
X25489107Y-1644210D01*
X25450061Y-1778605D01*
X24487567Y-1778605D01*
X24479848Y-1771356D01*
X24477007Y-1768602D01*
X24457270Y-1748865D01*
X24454073Y-1746385D01*
X24445051Y-1738680D01*
X24425724Y-1720531D01*
X24412821Y-1708414D01*
X24405875Y-1704595D01*
X24405872Y-1704593D01*
X24395066Y-1698652D01*
X24378547Y-1687801D01*
X24378083Y-1687441D01*
X24362541Y-1675386D01*
X24355272Y-1672241D01*
X24355268Y-1672238D01*
X24321963Y-1657826D01*
X24311313Y-1652609D01*
X24272560Y-1631305D01*
X24252937Y-1626267D01*
X24234234Y-1619863D01*
X24222920Y-1614967D01*
X24222919Y-1614967D01*
X24215645Y-1611819D01*
X24207822Y-1610580D01*
X24207812Y-1610577D01*
X24171976Y-1604901D01*
X24160356Y-1602495D01*
X24125211Y-1593472D01*
X24125210Y-1593472D01*
X24117530Y-1591500D01*
X24097276Y-1591500D01*
X24077565Y-1589949D01*
X24065386Y-1588020D01*
X24057557Y-1586780D01*
X24028286Y-1589547D01*
X24013539Y-1590941D01*
X24001681Y-1591500D01*
X23721311Y-1591500D01*
X23653190Y-1571498D01*
X23614167Y-1531804D01*
X23594685Y-1500322D01*
X23548478Y-1425652D01*
X23423303Y-1300695D01*
X23357472Y-1260116D01*
X23278968Y-1211725D01*
X23278966Y-1211724D01*
X23272738Y-1207885D01*
X23112254Y-1154655D01*
X23111389Y-1154368D01*
X23111387Y-1154368D01*
X23104861Y-1152203D01*
X23098025Y-1151503D01*
X23098022Y-1151502D01*
X23054969Y-1147091D01*
X23000400Y-1141500D01*
X21999600Y-1141500D01*
X21996354Y-1141837D01*
X21996350Y-1141837D01*
X21900692Y-1151762D01*
X21900688Y-1151763D01*
X21893834Y-1152474D01*
X21887298Y-1154655D01*
X21887296Y-1154655D01*
X21755194Y-1198728D01*
X21726054Y-1208450D01*
X21575652Y-1301522D01*
X21450695Y-1426697D01*
X21446855Y-1432927D01*
X21446854Y-1432928D01*
X21373165Y-1552474D01*
X21357885Y-1577262D01*
X21345379Y-1614967D01*
X21326785Y-1671026D01*
X21286354Y-1729386D01*
X21220790Y-1756623D01*
X21150909Y-1744090D01*
X21118175Y-1720533D01*
X21098303Y-1700695D01*
X21088946Y-1694927D01*
X20953968Y-1611725D01*
X20953966Y-1611724D01*
X20947738Y-1607885D01*
X20787254Y-1554655D01*
X20786389Y-1554368D01*
X20786387Y-1554368D01*
X20779861Y-1552203D01*
X20773025Y-1551503D01*
X20773022Y-1551502D01*
X20729969Y-1547091D01*
X20675400Y-1541500D01*
X19324600Y-1541500D01*
X19321354Y-1541837D01*
X19321350Y-1541837D01*
X19225692Y-1551762D01*
X19225688Y-1551763D01*
X19218834Y-1552474D01*
X19212298Y-1554655D01*
X19212296Y-1554655D01*
X19080194Y-1598728D01*
X19051054Y-1608450D01*
X18900652Y-1701522D01*
X18895479Y-1706704D01*
X18839172Y-1763109D01*
X18776889Y-1797188D01*
X18706069Y-1792185D01*
X18660981Y-1763264D01*
X18657239Y-1759528D01*
X18598303Y-1700695D01*
X18588946Y-1694927D01*
X18453968Y-1611725D01*
X18453966Y-1611724D01*
X18447738Y-1607885D01*
X18287254Y-1554655D01*
X18286389Y-1554368D01*
X18286387Y-1554368D01*
X18279861Y-1552203D01*
X18273025Y-1551503D01*
X18273022Y-1551502D01*
X18229969Y-1547091D01*
X18175400Y-1541500D01*
X16824600Y-1541500D01*
X16821354Y-1541837D01*
X16821350Y-1541837D01*
X16725692Y-1551762D01*
X16725688Y-1551763D01*
X16718834Y-1552474D01*
X16712298Y-1554655D01*
X16712296Y-1554655D01*
X16580194Y-1598728D01*
X16551054Y-1608450D01*
X16400652Y-1701522D01*
X16388355Y-1713841D01*
X16381960Y-1720247D01*
X16319678Y-1754327D01*
X16248858Y-1749324D01*
X16191984Y-1706828D01*
X16173262Y-1671106D01*
X16146703Y-1591500D01*
X16141550Y-1576054D01*
X16048478Y-1425652D01*
X15923303Y-1300695D01*
X15857472Y-1260116D01*
X15778968Y-1211725D01*
X15778966Y-1211724D01*
X15772738Y-1207885D01*
X15612254Y-1154655D01*
X15611389Y-1154368D01*
X15611387Y-1154368D01*
X15604861Y-1152203D01*
X15598025Y-1151503D01*
X15598022Y-1151502D01*
X15554969Y-1147091D01*
X15500400Y-1141500D01*
X14499600Y-1141500D01*
X14496354Y-1141837D01*
X14496350Y-1141837D01*
X14400692Y-1151762D01*
X14400688Y-1151763D01*
X14393834Y-1152474D01*
X14387298Y-1154655D01*
X14387296Y-1154655D01*
X14255194Y-1198728D01*
X14226054Y-1208450D01*
X14075652Y-1301522D01*
X13950695Y-1426697D01*
X13946855Y-1432927D01*
X13946854Y-1432928D01*
X13886022Y-1531616D01*
X13833250Y-1579109D01*
X13778762Y-1591500D01*
X12353768Y-1591500D01*
X12342585Y-1590973D01*
X12335092Y-1589298D01*
X12327166Y-1589547D01*
X12327165Y-1589547D01*
X12267002Y-1591438D01*
X12263044Y-1591500D01*
X12235144Y-1591500D01*
X12231154Y-1592004D01*
X12219320Y-1592936D01*
X12175111Y-1594326D01*
X12167497Y-1596538D01*
X12167492Y-1596539D01*
X12155659Y-1599977D01*
X12136296Y-1603988D01*
X12116203Y-1606526D01*
X12108836Y-1609443D01*
X12108831Y-1609444D01*
X12075092Y-1622802D01*
X12063865Y-1626646D01*
X12021407Y-1638982D01*
X12014581Y-1643019D01*
X12003972Y-1649293D01*
X11986224Y-1657988D01*
X11967383Y-1665448D01*
X11960967Y-1670110D01*
X11960966Y-1670110D01*
X11931613Y-1691436D01*
X11921693Y-1697952D01*
X11890465Y-1716420D01*
X11890462Y-1716422D01*
X11883638Y-1720458D01*
X11869314Y-1734782D01*
X11854287Y-1747617D01*
X11837893Y-1759528D01*
X11832840Y-1765636D01*
X11809711Y-1793594D01*
X11801722Y-1802372D01*
X11607742Y-1996352D01*
X11599462Y-2003887D01*
X11592982Y-2008000D01*
X11546356Y-2057652D01*
X11543601Y-2060494D01*
X11523865Y-2080230D01*
X11521385Y-2083427D01*
X11513682Y-2092447D01*
X11483414Y-2124679D01*
X11479595Y-2131625D01*
X11479593Y-2131628D01*
X11473652Y-2142434D01*
X11462801Y-2158953D01*
X11450386Y-2174959D01*
X11447241Y-2182228D01*
X11447238Y-2182232D01*
X11432826Y-2215537D01*
X11427609Y-2226187D01*
X11406305Y-2264940D01*
X11404334Y-2272615D01*
X11404334Y-2272616D01*
X11401267Y-2284562D01*
X11394863Y-2303266D01*
X11386819Y-2321855D01*
X11385580Y-2329678D01*
X11385577Y-2329688D01*
X11379901Y-2365524D01*
X11377495Y-2377144D01*
X11366500Y-2419970D01*
X11366500Y-2440224D01*
X11364949Y-2459934D01*
X11361780Y-2479943D01*
X11360849Y-2479796D01*
X11340851Y-2540749D01*
X11308706Y-2571988D01*
X11304000Y-2582371D01*
X11304000Y-4695158D01*
X11286453Y-4759297D01*
X11277372Y-4774653D01*
X11240855Y-4836399D01*
X11238644Y-4844010D01*
X11238643Y-4844012D01*
X11231472Y-4868695D01*
X11194438Y-4996169D01*
X11193934Y-5002574D01*
X11193933Y-5002579D01*
X11193279Y-5010893D01*
X11191500Y-5033498D01*
X11191500Y-6341502D01*
X11191693Y-6343950D01*
X11191693Y-6343958D01*
X11193795Y-6370659D01*
X11194438Y-6378831D01*
X11218444Y-6461462D01*
X11232604Y-6510199D01*
X11240855Y-6538601D01*
X11244892Y-6545427D01*
X11321509Y-6674980D01*
X11321511Y-6674983D01*
X11325547Y-6681807D01*
X11443193Y-6799453D01*
X11450017Y-6803489D01*
X11450020Y-6803491D01*
X11512050Y-6840175D01*
X11586399Y-6884145D01*
X11594010Y-6886356D01*
X11594012Y-6886357D01*
X11646231Y-6901528D01*
X11746169Y-6930562D01*
X11752574Y-6931066D01*
X11752579Y-6931067D01*
X11781042Y-6933307D01*
X11781050Y-6933307D01*
X11783498Y-6933500D01*
X12216502Y-6933500D01*
X12218950Y-6933307D01*
X12218958Y-6933307D01*
X12247421Y-6931067D01*
X12247426Y-6931066D01*
X12253831Y-6930562D01*
X12353769Y-6901528D01*
X12405988Y-6886357D01*
X12405990Y-6886356D01*
X12413601Y-6884145D01*
X12487950Y-6840175D01*
X12549980Y-6803491D01*
X12549983Y-6803489D01*
X12556807Y-6799453D01*
X12666082Y-6690178D01*
X12728394Y-6656152D01*
X12799209Y-6661217D01*
X12844272Y-6690177D01*
X13579595Y-7425499D01*
X13613620Y-7487812D01*
X13616500Y-7514595D01*
X13616500Y-8400400D01*
X13627474Y-8506166D01*
X13683450Y-8673946D01*
X13776522Y-8824348D01*
X13901697Y-8949305D01*
X13907927Y-8953145D01*
X13907928Y-8953146D01*
X14045090Y-9037694D01*
X14052262Y-9042115D01*
X14132005Y-9068564D01*
X14213611Y-9095632D01*
X14213613Y-9095632D01*
X14220139Y-9097797D01*
X14226975Y-9098497D01*
X14226978Y-9098498D01*
X14270031Y-9102909D01*
X14324600Y-9108500D01*
X15675400Y-9108500D01*
X15678646Y-9108163D01*
X15678650Y-9108163D01*
X15774308Y-9098238D01*
X15774312Y-9098237D01*
X15781166Y-9097526D01*
X15787702Y-9095345D01*
X15787704Y-9095345D01*
X15919806Y-9051272D01*
X15948946Y-9041550D01*
X16099348Y-8948478D01*
X16224305Y-8823303D01*
X16317115Y-8672738D01*
X16372797Y-8504861D01*
X16383500Y-8400400D01*
X16383500Y-7499600D01*
X16382277Y-7487812D01*
X16373238Y-7400692D01*
X16373237Y-7400688D01*
X16372526Y-7393834D01*
X16365706Y-7373390D01*
X16318868Y-7233002D01*
X16316550Y-7226054D01*
X16223478Y-7075652D01*
X16098303Y-6950695D01*
X16092072Y-6946854D01*
X15953968Y-6861725D01*
X15953966Y-6861724D01*
X15947738Y-6857885D01*
X15852593Y-6826327D01*
X15786389Y-6804368D01*
X15786387Y-6804368D01*
X15779861Y-6802203D01*
X15773025Y-6801503D01*
X15773022Y-6801502D01*
X15729969Y-6797091D01*
X15675400Y-6791500D01*
X14789594Y-6791500D01*
X14721473Y-6771498D01*
X14700499Y-6754595D01*
X13620405Y-5674500D01*
X13586379Y-5612188D01*
X13583500Y-5585405D01*
X13583500Y-4899950D01*
X13603502Y-4831829D01*
X13614070Y-4818715D01*
X13614000Y-4818661D01*
X13615901Y-4816211D01*
X13616350Y-4815887D01*
X13620405Y-4810855D01*
X13624453Y-4806807D01*
X13626329Y-4808683D01*
X13673464Y-4774653D01*
X13744356Y-4770813D01*
X13806071Y-4805910D01*
X13834972Y-4853575D01*
X13858450Y-4923946D01*
X13951522Y-5074348D01*
X14076697Y-5199305D01*
X14082927Y-5203145D01*
X14082928Y-5203146D01*
X14220090Y-5287694D01*
X14227262Y-5292115D01*
X14275052Y-5307966D01*
X14388611Y-5345632D01*
X14388613Y-5345632D01*
X14395139Y-5347797D01*
X14401975Y-5348497D01*
X14401978Y-5348498D01*
X14444134Y-5352817D01*
X14499600Y-5358500D01*
X15500400Y-5358500D01*
X15503646Y-5358163D01*
X15503650Y-5358163D01*
X15599308Y-5348238D01*
X15599312Y-5348237D01*
X15606166Y-5347526D01*
X15612702Y-5345345D01*
X15612704Y-5345345D01*
X15744806Y-5301272D01*
X15773946Y-5291550D01*
X15924348Y-5198478D01*
X15925335Y-5200073D01*
X15982234Y-5177051D01*
X16051996Y-5190230D01*
X16103559Y-5239033D01*
X16120552Y-5307966D01*
X16120018Y-5315262D01*
X16116500Y-5349600D01*
X16116500Y-6250400D01*
X16116837Y-6253646D01*
X16116837Y-6253650D01*
X16126226Y-6344134D01*
X16127474Y-6356166D01*
X16129655Y-6362702D01*
X16129655Y-6362704D01*
X16152415Y-6430922D01*
X16183450Y-6523946D01*
X16276522Y-6674348D01*
X16401697Y-6799305D01*
X16407927Y-6803145D01*
X16407928Y-6803146D01*
X16545090Y-6887694D01*
X16552262Y-6892115D01*
X16632005Y-6918564D01*
X16713611Y-6945632D01*
X16713613Y-6945632D01*
X16720139Y-6947797D01*
X16726975Y-6948497D01*
X16726978Y-6948498D01*
X16765767Y-6952472D01*
X16824600Y-6958500D01*
X18175400Y-6958500D01*
X18178646Y-6958163D01*
X18178650Y-6958163D01*
X18274308Y-6948238D01*
X18274312Y-6948237D01*
X18281166Y-6947526D01*
X18287702Y-6945345D01*
X18287704Y-6945345D01*
X18419806Y-6901272D01*
X18448946Y-6891550D01*
X18599348Y-6798478D01*
X18643155Y-6754595D01*
X18660828Y-6736891D01*
X18723111Y-6702812D01*
X18793931Y-6707815D01*
X18839019Y-6736736D01*
X18901697Y-6799305D01*
X18907927Y-6803145D01*
X18907928Y-6803146D01*
X19045090Y-6887694D01*
X19052262Y-6892115D01*
X19132005Y-6918564D01*
X19213611Y-6945632D01*
X19213613Y-6945632D01*
X19220139Y-6947797D01*
X19226975Y-6948497D01*
X19226978Y-6948498D01*
X19265767Y-6952472D01*
X19324600Y-6958500D01*
X20675400Y-6958500D01*
X20678646Y-6958163D01*
X20678650Y-6958163D01*
X20774308Y-6948238D01*
X20774312Y-6948237D01*
X20781166Y-6947526D01*
X20787702Y-6945345D01*
X20787704Y-6945345D01*
X20919806Y-6901272D01*
X20948946Y-6891550D01*
X21099348Y-6798478D01*
X21224305Y-6673303D01*
X21317115Y-6522738D01*
X21319419Y-6515791D01*
X21322513Y-6509156D01*
X21324749Y-6510199D01*
X21358523Y-6461462D01*
X21424091Y-6434234D01*
X21437672Y-6433500D01*
X26646233Y-6433500D01*
X26657416Y-6434027D01*
X26664909Y-6435702D01*
X26672835Y-6435453D01*
X26672836Y-6435453D01*
X26732986Y-6433562D01*
X26736945Y-6433500D01*
X26764856Y-6433500D01*
X26768791Y-6433003D01*
X26768856Y-6432995D01*
X26780693Y-6432062D01*
X26812951Y-6431048D01*
X26816970Y-6430922D01*
X26824889Y-6430673D01*
X26844343Y-6425021D01*
X26863700Y-6421013D01*
X26875930Y-6419468D01*
X26875931Y-6419468D01*
X26883797Y-6418474D01*
X26891168Y-6415555D01*
X26891170Y-6415555D01*
X26924912Y-6402196D01*
X26936142Y-6398351D01*
X26970983Y-6388229D01*
X26970984Y-6388229D01*
X26978593Y-6386018D01*
X26985412Y-6381985D01*
X26985417Y-6381983D01*
X26996028Y-6375707D01*
X27013776Y-6367012D01*
X27032617Y-6359552D01*
X27053839Y-6344134D01*
X27068387Y-6333564D01*
X27078307Y-6327048D01*
X27109535Y-6308580D01*
X27109538Y-6308578D01*
X27116362Y-6304542D01*
X27130683Y-6290221D01*
X27145717Y-6277380D01*
X27155694Y-6270131D01*
X27162107Y-6265472D01*
X27190298Y-6231395D01*
X27198288Y-6222616D01*
X27401405Y-6019499D01*
X27463717Y-5985473D01*
X27534532Y-5990538D01*
X27591368Y-6033085D01*
X27616179Y-6099605D01*
X27616500Y-6108594D01*
X27616500Y-6250400D01*
X27616837Y-6253646D01*
X27616837Y-6253650D01*
X27626226Y-6344134D01*
X27627474Y-6356166D01*
X27629655Y-6362702D01*
X27629655Y-6362704D01*
X27652415Y-6430922D01*
X27683450Y-6523946D01*
X27776522Y-6674348D01*
X27901697Y-6799305D01*
X27907927Y-6803145D01*
X27907928Y-6803146D01*
X28045090Y-6887694D01*
X28052262Y-6892115D01*
X28132005Y-6918564D01*
X28213611Y-6945632D01*
X28213613Y-6945632D01*
X28220139Y-6947797D01*
X28226975Y-6948497D01*
X28226978Y-6948498D01*
X28265767Y-6952472D01*
X28324600Y-6958500D01*
X28340500Y-6958500D01*
X28408621Y-6978502D01*
X28455114Y-7032158D01*
X28466500Y-7084500D01*
X28466500Y-7311692D01*
X28446498Y-7379813D01*
X28398683Y-7423453D01*
X28373607Y-7436507D01*
X28369474Y-7439610D01*
X28369471Y-7439612D01*
X28269603Y-7514595D01*
X28194965Y-7570635D01*
X28040629Y-7732138D01*
X28037715Y-7736410D01*
X28037714Y-7736411D01*
X27925095Y-7901504D01*
X27870184Y-7946507D01*
X27821007Y-7956500D01*
X24238767Y-7956500D01*
X24227584Y-7955973D01*
X24220091Y-7954298D01*
X24212165Y-7954547D01*
X24212164Y-7954547D01*
X24152014Y-7956438D01*
X24148055Y-7956500D01*
X24120144Y-7956500D01*
X24116210Y-7956997D01*
X24116209Y-7956997D01*
X24116144Y-7957005D01*
X24104307Y-7957938D01*
X24072490Y-7958938D01*
X24068029Y-7959078D01*
X24060110Y-7959327D01*
X24042454Y-7964456D01*
X24040658Y-7964978D01*
X24021306Y-7968986D01*
X24014235Y-7969880D01*
X24001203Y-7971526D01*
X23993834Y-7974443D01*
X23993832Y-7974444D01*
X23960097Y-7987800D01*
X23948869Y-7991645D01*
X23906407Y-8003982D01*
X23899584Y-8008017D01*
X23899582Y-8008018D01*
X23888972Y-8014293D01*
X23871224Y-8022988D01*
X23852383Y-8030448D01*
X23845967Y-8035110D01*
X23845966Y-8035110D01*
X23816613Y-8056436D01*
X23806693Y-8062952D01*
X23775465Y-8081420D01*
X23775462Y-8081422D01*
X23768638Y-8085458D01*
X23754317Y-8099779D01*
X23739284Y-8112619D01*
X23722893Y-8124528D01*
X23717842Y-8130634D01*
X23694702Y-8158605D01*
X23686712Y-8167384D01*
X17933434Y-13920661D01*
X17871122Y-13954687D01*
X17800307Y-13949622D01*
X17780202Y-13940021D01*
X17772676Y-13935571D01*
X17758251Y-13929328D01*
X17612393Y-13886951D01*
X17599791Y-13884650D01*
X17571374Y-13882413D01*
X17566444Y-13882220D01*
X16924573Y-13882220D01*
X16909334Y-13886695D01*
X16908129Y-13888085D01*
X16906458Y-13895768D01*
X16906458Y-14818220D01*
X16886456Y-14886341D01*
X16832800Y-14932834D01*
X16780458Y-14944220D01*
X16524458Y-14944220D01*
X16456337Y-14924218D01*
X16409844Y-14870562D01*
X16398458Y-14818220D01*
X16398458Y-13900336D01*
X16393983Y-13885097D01*
X16392593Y-13883892D01*
X16384910Y-13882221D01*
X15738475Y-13882221D01*
X15733538Y-13882415D01*
X15705122Y-13884650D01*
X15692527Y-13886950D01*
X15546668Y-13929327D01*
X15532237Y-13935572D01*
X15402781Y-14012131D01*
X15386729Y-14024583D01*
X15320645Y-14050532D01*
X15251022Y-14036634D01*
X15199965Y-13987301D01*
X15183500Y-13925026D01*
X15183500Y-12334500D01*
X15203502Y-12266379D01*
X15257158Y-12219886D01*
X15309500Y-12208500D01*
X15675400Y-12208500D01*
X15678646Y-12208163D01*
X15678650Y-12208163D01*
X15774308Y-12198238D01*
X15774312Y-12198237D01*
X15781166Y-12197526D01*
X15787702Y-12195345D01*
X15787704Y-12195345D01*
X15941998Y-12143868D01*
X15948946Y-12141550D01*
X16099348Y-12048478D01*
X16111679Y-12036126D01*
X16219134Y-11928483D01*
X16224305Y-11923303D01*
X16232831Y-11909471D01*
X16313275Y-11778968D01*
X16313276Y-11778966D01*
X16317115Y-11772738D01*
X16372797Y-11604861D01*
X16383500Y-11500400D01*
X16383500Y-10599600D01*
X16372526Y-10493834D01*
X16316550Y-10326054D01*
X16223478Y-10175652D01*
X16098303Y-10050695D01*
X16012492Y-9997800D01*
X15953968Y-9961725D01*
X15953966Y-9961724D01*
X15947738Y-9957885D01*
X15787254Y-9904655D01*
X15786389Y-9904368D01*
X15786387Y-9904368D01*
X15779861Y-9902203D01*
X15773025Y-9901503D01*
X15773022Y-9901502D01*
X15729969Y-9897091D01*
X15675400Y-9891500D01*
X14324600Y-9891500D01*
X14321354Y-9891837D01*
X14321350Y-9891837D01*
X14225692Y-9901762D01*
X14225688Y-9901763D01*
X14218834Y-9902474D01*
X14212298Y-9904655D01*
X14212296Y-9904655D01*
X14080194Y-9948728D01*
X14051054Y-9958450D01*
X13900652Y-10051522D01*
X13775695Y-10176697D01*
X13771855Y-10182927D01*
X13771854Y-10182928D01*
X13700752Y-10298277D01*
X13682885Y-10327262D01*
X13627203Y-10495139D01*
X13616500Y-10599600D01*
X13616500Y-11500400D01*
X13616837Y-11503646D01*
X13616837Y-11503650D01*
X13619841Y-11532596D01*
X13627474Y-11606166D01*
X13683450Y-11773946D01*
X13776522Y-11924348D01*
X13781704Y-11929521D01*
X13879518Y-12027165D01*
X13913597Y-12089448D01*
X13916500Y-12116338D01*
X13916500Y-12164695D01*
X13896498Y-12232816D01*
X13842842Y-12279309D01*
X13772568Y-12289413D01*
X13707988Y-12259919D01*
X13704458Y-12256636D01*
X13703483Y-12255866D01*
X13698303Y-12250695D01*
X13648322Y-12219886D01*
X13553968Y-12161725D01*
X13553966Y-12161724D01*
X13547738Y-12157885D01*
X13422477Y-12116338D01*
X13386389Y-12104368D01*
X13386387Y-12104368D01*
X13379861Y-12102203D01*
X13373025Y-12101503D01*
X13373022Y-12101502D01*
X13329969Y-12097091D01*
X13275400Y-12091500D01*
X12349600Y-12091500D01*
X12346354Y-12091837D01*
X12346350Y-12091837D01*
X12250692Y-12101762D01*
X12250688Y-12101763D01*
X12243834Y-12102474D01*
X12237298Y-12104655D01*
X12237296Y-12104655D01*
X12138267Y-12137694D01*
X12076054Y-12158450D01*
X11925652Y-12251522D01*
X11800695Y-12376697D01*
X11796855Y-12382927D01*
X11796854Y-12382928D01*
X11735182Y-12482979D01*
X11707885Y-12527262D01*
X11652203Y-12695139D01*
X11641500Y-12799600D01*
X11641500Y-14200400D01*
X11641837Y-14203646D01*
X11641837Y-14203650D01*
X11651752Y-14299206D01*
X11652474Y-14306166D01*
X11708450Y-14473946D01*
X11801522Y-14624348D01*
X11926697Y-14749305D01*
X11932927Y-14753145D01*
X11932928Y-14753146D01*
X12070288Y-14837816D01*
X12077262Y-14842115D01*
X12147814Y-14865516D01*
X12238611Y-14895632D01*
X12238613Y-14895632D01*
X12245139Y-14897797D01*
X12251975Y-14898497D01*
X12251978Y-14898498D01*
X12295031Y-14902909D01*
X12349600Y-14908500D01*
X12740500Y-14908500D01*
X12808621Y-14928502D01*
X12855114Y-14982158D01*
X12866500Y-15034500D01*
X12866500Y-17671233D01*
X12865973Y-17682416D01*
X12864298Y-17689909D01*
X12864547Y-17697835D01*
X12864547Y-17697836D01*
X12866438Y-17757986D01*
X12866500Y-17761945D01*
X12866500Y-17789856D01*
X12866997Y-17793790D01*
X12866997Y-17793791D01*
X12867005Y-17793856D01*
X12867938Y-17805693D01*
X12869327Y-17849889D01*
X12873913Y-17865673D01*
X12874978Y-17869339D01*
X12878987Y-17888700D01*
X12881526Y-17908797D01*
X12884445Y-17916168D01*
X12884445Y-17916170D01*
X12897804Y-17949912D01*
X12901649Y-17961142D01*
X12913982Y-18003593D01*
X12918015Y-18010412D01*
X12918017Y-18010417D01*
X12924293Y-18021028D01*
X12932988Y-18038776D01*
X12940448Y-18057617D01*
X12945110Y-18064033D01*
X12945110Y-18064034D01*
X12966436Y-18093387D01*
X12972952Y-18103307D01*
X12995458Y-18141362D01*
X13009779Y-18155683D01*
X13022619Y-18170716D01*
X13034528Y-18187107D01*
X13050881Y-18200635D01*
X13068605Y-18215298D01*
X13077384Y-18223288D01*
X13746563Y-18892467D01*
X13754107Y-18900757D01*
X13758220Y-18907238D01*
X13763997Y-18912663D01*
X13797229Y-18943870D01*
X13833195Y-19005083D01*
X13830356Y-19076023D01*
X13789616Y-19134167D01*
X13723908Y-19161055D01*
X13710976Y-19161720D01*
X12349431Y-19161720D01*
X12281310Y-19141718D01*
X12234817Y-19088062D01*
X12223855Y-19046046D01*
X12220276Y-19002520D01*
X12219852Y-18997361D01*
X12165431Y-18780702D01*
X12076354Y-18575840D01*
X11955014Y-18388277D01*
X11804670Y-18223051D01*
X11800619Y-18219852D01*
X11800615Y-18219848D01*
X11633414Y-18087800D01*
X11633410Y-18087798D01*
X11629359Y-18084598D01*
X11587569Y-18061529D01*
X11537598Y-18011097D01*
X11522826Y-17941654D01*
X11547942Y-17875248D01*
X11575294Y-17848641D01*
X11750328Y-17723792D01*
X11758200Y-17717139D01*
X11909052Y-17566812D01*
X11915730Y-17558965D01*
X12040003Y-17386020D01*
X12045313Y-17377183D01*
X12139670Y-17186267D01*
X12143469Y-17176672D01*
X12205377Y-16972910D01*
X12207555Y-16962837D01*
X12208986Y-16951962D01*
X12206775Y-16937778D01*
X12193617Y-16934000D01*
X9558225Y-16934000D01*
X9544694Y-16937973D01*
X9543257Y-16947966D01*
X9573565Y-17082446D01*
X9576645Y-17092275D01*
X9656770Y-17289603D01*
X9661413Y-17298794D01*
X9772694Y-17480388D01*
X9778777Y-17488699D01*
X9918213Y-17649667D01*
X9925580Y-17656883D01*
X10089434Y-17792916D01*
X10097881Y-17798831D01*
X10166969Y-17839203D01*
X10215693Y-17890842D01*
X10228764Y-17960625D01*
X10202033Y-18026396D01*
X10161584Y-18059752D01*
X10148607Y-18066507D01*
X10144474Y-18069610D01*
X10144471Y-18069612D01*
X9981255Y-18192158D01*
X9969965Y-18200635D01*
X9815629Y-18362138D01*
X9689743Y-18546680D01*
X9674003Y-18580590D01*
X9611959Y-18714253D01*
X9595688Y-18749305D01*
X9535989Y-18964570D01*
X9512251Y-19186695D01*
X9512548Y-19191848D01*
X9512548Y-19191851D01*
X9524812Y-19404547D01*
X9525110Y-19409715D01*
X9526247Y-19414761D01*
X9526248Y-19414767D01*
X9535603Y-19456277D01*
X9574222Y-19627639D01*
X9658266Y-19834616D01*
X9774987Y-20025088D01*
X9921250Y-20193938D01*
X10093126Y-20336632D01*
X10110417Y-20346736D01*
X10166445Y-20379476D01*
X10215169Y-20431114D01*
X10228240Y-20500897D01*
X10201509Y-20566669D01*
X10161055Y-20600027D01*
X10148607Y-20606507D01*
X10144474Y-20609610D01*
X10144471Y-20609612D01*
X9974100Y-20737530D01*
X9969965Y-20740635D01*
X9815629Y-20902138D01*
X9689743Y-21086680D01*
X9687564Y-21091375D01*
X9611959Y-21254253D01*
X9595688Y-21289305D01*
X9535989Y-21504570D01*
X9512251Y-21726695D01*
X508500Y-21726695D01*
X508500Y-16414183D01*
X9539389Y-16414183D01*
X9540912Y-16422607D01*
X9553292Y-16426000D01*
X10602885Y-16426000D01*
X10618124Y-16421525D01*
X10619329Y-16420135D01*
X10621000Y-16412452D01*
X10621000Y-16407885D01*
X11129000Y-16407885D01*
X11133475Y-16423124D01*
X11134865Y-16424329D01*
X11142548Y-16426000D01*
X12193344Y-16426000D01*
X12206875Y-16422027D01*
X12208180Y-16412947D01*
X12166214Y-16245875D01*
X12162894Y-16236124D01*
X12077972Y-16040814D01*
X12073105Y-16031739D01*
X11957426Y-15852926D01*
X11951136Y-15844757D01*
X11807806Y-15687240D01*
X11800273Y-15680215D01*
X11633139Y-15548222D01*
X11624552Y-15542517D01*
X11438117Y-15439599D01*
X11428705Y-15435369D01*
X11227959Y-15364280D01*
X11217988Y-15361646D01*
X11146837Y-15348972D01*
X11133540Y-15350432D01*
X11129000Y-15364989D01*
X11129000Y-16407885D01*
X10621000Y-16407885D01*
X10621000Y-15363102D01*
X10617082Y-15349758D01*
X10602806Y-15347771D01*
X10564324Y-15353660D01*
X10554288Y-15356051D01*
X10351868Y-15422212D01*
X10342359Y-15426209D01*
X10153463Y-15524542D01*
X10144738Y-15530036D01*
X9974433Y-15657905D01*
X9966726Y-15664748D01*
X9819590Y-15818717D01*
X9813104Y-15826727D01*
X9693098Y-16002649D01*
X9688000Y-16011623D01*
X9598338Y-16204783D01*
X9594775Y-16214470D01*
X9539389Y-16414183D01*
X508500Y-16414183D01*
X508500Y-14197095D01*
X8517001Y-14197095D01*
X8517338Y-14203614D01*
X8527257Y-14299206D01*
X8530149Y-14312600D01*
X8581588Y-14466784D01*
X8587761Y-14479962D01*
X8673063Y-14617807D01*
X8682099Y-14629208D01*
X8796829Y-14743739D01*
X8808240Y-14752751D01*
X8946243Y-14837816D01*
X8959424Y-14843963D01*
X9113710Y-14895138D01*
X9127086Y-14898005D01*
X9221438Y-14907672D01*
X9227854Y-14908000D01*
X9415385Y-14908000D01*
X9430624Y-14903525D01*
X9431829Y-14902135D01*
X9433500Y-14894452D01*
X9433500Y-14889884D01*
X9941500Y-14889884D01*
X9945975Y-14905123D01*
X9947365Y-14906328D01*
X9955048Y-14907999D01*
X10147095Y-14907999D01*
X10153614Y-14907662D01*
X10249206Y-14897743D01*
X10262600Y-14894851D01*
X10416784Y-14843412D01*
X10429962Y-14837239D01*
X10567807Y-14751937D01*
X10579208Y-14742901D01*
X10693739Y-14628171D01*
X10702751Y-14616760D01*
X10787816Y-14478757D01*
X10793963Y-14465576D01*
X10845138Y-14311290D01*
X10848005Y-14297914D01*
X10857672Y-14203562D01*
X10858000Y-14197146D01*
X10858000Y-13772115D01*
X10853525Y-13756876D01*
X10852135Y-13755671D01*
X10844452Y-13754000D01*
X9959615Y-13754000D01*
X9944376Y-13758475D01*
X9943171Y-13759865D01*
X9941500Y-13767548D01*
X9941500Y-14889884D01*
X9433500Y-14889884D01*
X9433500Y-13772115D01*
X9429025Y-13756876D01*
X9427635Y-13755671D01*
X9419952Y-13754000D01*
X8535116Y-13754000D01*
X8519877Y-13758475D01*
X8518672Y-13759865D01*
X8517001Y-13767548D01*
X8517001Y-14197095D01*
X508500Y-14197095D01*
X508500Y-13227885D01*
X8517000Y-13227885D01*
X8521475Y-13243124D01*
X8522865Y-13244329D01*
X8530548Y-13246000D01*
X9415385Y-13246000D01*
X9430624Y-13241525D01*
X9431829Y-13240135D01*
X9433500Y-13232452D01*
X9433500Y-13227885D01*
X9941500Y-13227885D01*
X9945975Y-13243124D01*
X9947365Y-13244329D01*
X9955048Y-13246000D01*
X10839884Y-13246000D01*
X10855123Y-13241525D01*
X10856328Y-13240135D01*
X10857999Y-13232452D01*
X10857999Y-12802905D01*
X10857662Y-12796386D01*
X10847743Y-12700794D01*
X10844851Y-12687400D01*
X10793412Y-12533216D01*
X10787239Y-12520038D01*
X10701937Y-12382193D01*
X10692901Y-12370792D01*
X10578171Y-12256261D01*
X10566760Y-12247249D01*
X10428757Y-12162184D01*
X10415576Y-12156037D01*
X10261290Y-12104862D01*
X10247914Y-12101995D01*
X10153562Y-12092328D01*
X10147145Y-12092000D01*
X9959615Y-12092000D01*
X9944376Y-12096475D01*
X9943171Y-12097865D01*
X9941500Y-12105548D01*
X9941500Y-13227885D01*
X9433500Y-13227885D01*
X9433500Y-12110116D01*
X9429025Y-12094877D01*
X9427635Y-12093672D01*
X9419952Y-12092001D01*
X9227905Y-12092001D01*
X9221386Y-12092338D01*
X9125794Y-12102257D01*
X9112400Y-12105149D01*
X8958216Y-12156588D01*
X8945038Y-12162761D01*
X8807193Y-12248063D01*
X8795792Y-12257099D01*
X8681261Y-12371829D01*
X8672249Y-12383240D01*
X8587184Y-12521243D01*
X8581037Y-12534424D01*
X8529862Y-12688710D01*
X8526995Y-12702086D01*
X8517328Y-12796438D01*
X8517000Y-12802855D01*
X8517000Y-13227885D01*
X508500Y-13227885D01*
X508500Y-5736680D01*
X528502Y-5668559D01*
X582158Y-5622066D01*
X652432Y-5611962D01*
X717012Y-5641456D01*
X732420Y-5657386D01*
X889098Y-5850867D01*
X1149133Y-6110902D01*
X1434925Y-6342332D01*
X1527108Y-6402196D01*
X1722320Y-6528968D01*
X1743342Y-6542620D01*
X1746276Y-6544115D01*
X1746283Y-6544119D01*
X2016512Y-6681807D01*
X2071006Y-6709573D01*
X2280782Y-6790098D01*
X2398865Y-6835426D01*
X2414326Y-6841361D01*
X2769541Y-6936541D01*
X2962558Y-6967112D01*
X3129511Y-6993555D01*
X3129519Y-6993556D01*
X3132759Y-6994069D01*
X3500000Y-7013315D01*
X3867241Y-6994069D01*
X3870481Y-6993556D01*
X3870489Y-6993555D01*
X4037442Y-6967112D01*
X4230459Y-6936541D01*
X4585674Y-6841361D01*
X4601136Y-6835426D01*
X4719218Y-6790098D01*
X4928994Y-6709573D01*
X4983488Y-6681807D01*
X5253717Y-6544119D01*
X5253724Y-6544115D01*
X5256658Y-6542620D01*
X5277681Y-6528968D01*
X5472892Y-6402196D01*
X5565075Y-6342332D01*
X5850867Y-6110902D01*
X6110902Y-5850867D01*
X6342332Y-5565075D01*
X6480173Y-5352817D01*
X6540822Y-5259426D01*
X6540824Y-5259423D01*
X6542620Y-5256657D01*
X6569886Y-5203146D01*
X6708075Y-4931934D01*
X6709573Y-4928994D01*
X6807650Y-4673495D01*
X6840175Y-4588764D01*
X6840176Y-4588762D01*
X6841361Y-4585674D01*
X6873968Y-4463984D01*
X10242001Y-4463984D01*
X10242195Y-4468920D01*
X10244430Y-4497336D01*
X10246730Y-4509931D01*
X10289107Y-4655790D01*
X10295352Y-4670221D01*
X10371911Y-4799678D01*
X10381551Y-4812104D01*
X10487896Y-4918449D01*
X10500322Y-4928089D01*
X10629779Y-5004648D01*
X10644210Y-5010893D01*
X10778605Y-5049939D01*
X10792706Y-5049899D01*
X10796000Y-5042630D01*
X10796000Y-4084615D01*
X10791525Y-4069376D01*
X10790135Y-4068171D01*
X10782452Y-4066500D01*
X10260116Y-4066500D01*
X10244877Y-4070975D01*
X10243672Y-4072365D01*
X10242001Y-4080048D01*
X10242001Y-4463984D01*
X6873968Y-4463984D01*
X6936541Y-4230459D01*
X6967112Y-4037442D01*
X6993555Y-3870489D01*
X6993556Y-3870481D01*
X6994069Y-3867241D01*
X7011199Y-3540385D01*
X10242000Y-3540385D01*
X10246475Y-3555624D01*
X10247865Y-3556829D01*
X10255548Y-3558500D01*
X10777885Y-3558500D01*
X10793124Y-3554025D01*
X10794329Y-3552635D01*
X10796000Y-3544952D01*
X10796000Y-2588122D01*
X10792027Y-2574591D01*
X10784129Y-2573456D01*
X10644210Y-2614107D01*
X10629779Y-2620352D01*
X10500322Y-2696911D01*
X10487896Y-2706551D01*
X10381551Y-2812896D01*
X10371911Y-2825322D01*
X10295352Y-2954779D01*
X10289107Y-2969210D01*
X10246731Y-3115065D01*
X10244430Y-3127667D01*
X10242193Y-3156084D01*
X10242000Y-3161014D01*
X10242000Y-3540385D01*
X7011199Y-3540385D01*
X7013315Y-3500000D01*
X6994069Y-3132759D01*
X6992286Y-3121498D01*
X6951007Y-2860878D01*
X6936541Y-2769541D01*
X6841361Y-2414326D01*
X6709573Y-2071006D01*
X6677470Y-2008000D01*
X6544119Y-1746284D01*
X6544115Y-1746277D01*
X6542620Y-1743343D01*
X6537061Y-1734782D01*
X6344134Y-1437700D01*
X6342332Y-1434925D01*
X6110902Y-1149133D01*
X5850867Y-889098D01*
X5657386Y-732420D01*
X5617034Y-674006D01*
X5614668Y-603049D01*
X5651041Y-542077D01*
X5714604Y-510449D01*
X5736680Y-508500D01*
X34263320Y-508500D01*
X34331441Y-528502D01*
G37*
%TD.AperFunction*%
M02*
