M48
; DRILL file {KiCad 7.0.1} date Fri Apr 21 07:08:46 2023
; FORMAT={-:-/ absolute / metric / decimal}
; #@! TF.CreationDate,2023-04-21T07:08:46+02:00
; #@! TF.GenerationSoftware,Kicad,Pcbnew,7.0.1
; #@! TF.FileFunction,Plated,1,2,PTH
FMAT,2
METRIC
; #@! TA.AperFunction,Plated,PTH,ViaDrill
T1C0.400
; #@! TA.AperFunction,Plated,PTH,ComponentDrill
T2C1.000
; #@! TA.AperFunction,Plated,PTH,ComponentDrill
T3C1.100
%
G90
G05
T1
X23.477Y14.43
X26.449Y48.869
X29.598Y54.206
X29.598Y46.329
X31.427Y40.795
X32.342Y47.602
X41.13Y51.565
X47.328Y55.222
X51.442Y50.193
X52.916Y22.812
X54.973Y24.844
X57.513Y22.177
X58.961Y20.678
X59.012Y45.012
X61.45Y19.764
X62.771Y11.077
X63.99Y27.943
X65.514Y10.722
X66.403Y29.797
X67.698Y26.673
X69.07Y34.75
X71.483Y37.671
X72.931Y18.138
X73.134Y32.21
X75.268Y16.411
X75.42Y27.384
X91.549Y43.767
X91.549Y41.354
T2
X5.564Y66.877
X5.564Y64.337
X5.564Y5.917
X5.564Y3.377
X8.104Y66.877
X8.104Y64.337
X8.104Y5.917
X8.104Y3.377
X10.644Y66.877
X10.644Y64.337
X10.644Y5.917
X10.644Y3.377
X13.184Y66.877
X13.184Y64.337
X13.184Y5.917
X13.184Y3.377
X15.724Y66.877
X15.724Y64.337
X15.724Y5.917
X15.724Y3.377
X18.264Y66.877
X18.264Y64.337
X18.264Y5.917
X18.264Y3.377
X20.804Y66.877
X20.804Y64.337
X20.804Y5.917
X20.804Y3.377
X23.344Y66.877
X23.344Y64.337
X23.344Y5.917
X23.344Y3.377
X25.884Y66.877
X25.884Y64.337
X25.884Y5.917
X25.884Y3.377
X28.424Y66.877
X28.424Y64.337
X28.424Y5.917
X28.424Y3.377
X30.964Y66.877
X30.964Y64.337
X30.964Y5.917
X30.964Y3.377
X33.504Y66.877
X33.504Y64.337
X33.504Y5.917
X33.504Y3.377
X36.044Y66.877
X36.044Y64.337
X36.044Y5.917
X36.044Y3.377
X38.584Y66.877
X38.584Y64.337
X38.584Y5.917
X38.584Y3.377
X41.124Y66.877
X41.124Y64.337
X41.124Y5.917
X41.124Y3.377
X43.664Y66.877
X43.664Y64.337
X43.664Y5.917
X43.664Y3.377
X46.204Y66.877
X46.204Y64.337
X46.204Y5.917
X46.204Y3.377
X48.744Y66.877
X48.744Y64.337
X48.744Y5.917
X48.744Y3.377
X51.284Y66.877
X51.284Y64.337
X51.284Y5.917
X51.284Y3.377
X53.824Y66.877
X53.824Y64.337
X53.824Y5.917
X53.824Y3.377
X56.364Y66.877
X56.364Y64.337
X56.364Y5.917
X56.364Y3.377
X58.904Y66.877
X58.904Y64.337
X58.904Y5.917
X58.904Y3.377
X61.444Y66.877
X61.444Y64.337
X61.444Y5.917
X61.444Y3.377
X63.984Y66.877
X63.984Y64.337
X63.984Y5.917
X63.984Y3.377
X66.524Y66.877
X66.524Y64.337
X66.524Y5.917
X66.524Y3.377
X69.064Y66.877
X69.064Y64.337
X69.064Y5.917
X69.064Y3.377
X71.604Y66.877
X71.604Y64.337
X71.604Y5.917
X71.604Y3.377
X74.144Y66.877
X74.144Y64.337
X74.144Y5.917
X74.144Y3.377
X76.684Y66.877
X76.684Y64.337
X76.684Y5.917
X76.684Y3.377
X79.224Y66.877
X79.224Y64.337
X79.224Y5.917
X79.224Y3.377
X81.764Y66.877
X81.764Y64.337
X81.764Y5.917
X81.764Y3.377
X84.304Y66.877
X84.304Y64.337
X84.304Y5.917
X84.304Y3.377
X84.321Y59.029
X84.321Y56.489
X84.321Y53.949
X84.321Y51.409
X84.321Y48.869
X84.321Y46.329
X84.321Y43.789
X84.321Y41.249
X84.321Y38.709
X84.321Y36.169
X84.321Y33.629
X84.321Y31.089
X84.321Y28.549
X84.321Y26.009
X84.321Y23.469
X84.321Y20.929
X84.321Y18.389
X84.321Y15.849
X84.321Y13.309
X84.321Y10.769
X86.844Y66.877
X86.844Y64.337
X86.844Y5.917
X86.844Y3.377
X86.861Y59.029
X86.861Y56.489
X86.861Y53.949
X86.861Y51.409
X86.861Y48.869
X86.861Y46.329
X86.861Y43.789
X86.861Y41.249
X86.861Y38.709
X86.861Y36.169
X86.861Y33.629
X86.861Y31.089
X86.861Y28.549
X86.861Y26.009
X86.861Y23.469
X86.861Y20.929
X86.861Y18.389
X86.861Y15.849
X86.861Y13.309
X86.861Y10.769
X89.384Y66.877
X89.384Y64.337
X89.384Y5.917
X89.384Y3.377
X91.924Y66.877
X91.924Y64.337
X91.924Y5.917
X91.924Y3.377
X94.464Y66.877
X94.464Y64.337
X94.464Y5.917
X94.464Y3.377
T3
X3.744Y27.058
X3.744Y22.558
X4.098Y51.478
X4.098Y46.978
X10.244Y27.058
X10.244Y22.558
X10.598Y51.478
X10.598Y46.978
X13.293Y19.372
X13.293Y14.872
X13.342Y34.678
X13.342Y30.178
X14.866Y51.565
X14.866Y47.065
X19.793Y19.372
X19.793Y14.872
X19.842Y34.678
X19.842Y30.178
X21.366Y51.565
X21.366Y47.065
X22.894Y26.992
X22.894Y22.492
X29.394Y26.992
X29.394Y22.492
T0
M30
