  0
SECTION
  2
HEADER
  9
$ANGBASE
  50
0.0
  9
$ANGDIR
  70
1
  9
$MEASUREMENT
  70
1
  0
ENDSEC
  0
SECTION
  2
TABLES
  0
TABLE
  2
LTYPE
  70
4
  0
LTYPE
  5
40F
  2
CONTINUOUS
  70
0
  3
Solid line
  72
65
  73
0
  40
0.0
  0
LTYPE
  5
410
  2
DASHDOT
 70
0
  3
Dash Dot ____ _ ____ _
 72
65
 73
4
 40
2.0
 49
1.25
 49
-0.25
 49
0.25
 49
-0.25
  0
LTYPE
  5
411
  2
DASHED
 70
0
  3
Dashed __ __ __ __ __
 72
65
 73
2
 40
0.75
 49
0.5
 49
-0.25
  0
LTYPE
  5
43B
  2
DOTTED
 70
0
  3
Dotted .  .  .  .
 72
65
 73
2
 40
0.2
 49
0.0
 49
-0.2
  0
ENDTAB
  0
TABLE
  2
STYLE
  70
4
  0
STYLE
  2
KICAD
  70
0
  40
0
  41
1
  42
1
  50
0
  71
0
  3
isocp.shx
  0
STYLE
  2
KICADB
  70
0
  40
0
  41
1
  42
1
  50
0
  71
0
  3
isocp.shx
  0
STYLE
  2
KICADI
  70
0
  40
0
  41
1
  42
1
  50
15
  71
0
  3
isocp.shx
  0
STYLE
  2
KICADBI
  70
0
  40
0
  41
1
  42
1
  50
15
  71
0
  3
isocp.shx
  0
ENDTAB
  0
TABLE
  2
LAYER
  70
1
  0
LAYER
  2
BLACK
  70
0
  62
7
  6
CONTINUOUS
  0
ENDTAB
  0
ENDSEC
  0
SECTION
  2
ENTITIES
0
LINE
8
BLACK
6
CONTINUOUS
10
169.965
20
-140.035
11
169.95
21
-140
0
LINE
8
BLACK
6
CONTINUOUS
10
169.95
20
-140
11
169.95
21
-85
0
LINE
8
BLACK
6
CONTINUOUS
10
169.95
20
-85
11
169.965
21
-84.9646
0
LINE
8
BLACK
6
CONTINUOUS
10
169.965
20
-84.9646
11
170
21
-84.95
0
LINE
8
BLACK
6
CONTINUOUS
10
170
20
-84.95
11
255
21
-84.95
0
LINE
8
BLACK
6
CONTINUOUS
10
255
20
-84.95
11
255.035
21
-84.9646
0
LINE
8
BLACK
6
CONTINUOUS
10
255.035
20
-84.9646
11
255.05
21
-85
0
LINE
8
BLACK
6
CONTINUOUS
10
255.05
20
-85
11
255.05
21
-140
0
LINE
8
BLACK
6
CONTINUOUS
10
255.05
20
-140
11
255.035
21
-140.035
0
LINE
8
BLACK
6
CONTINUOUS
10
255.035
20
-140.035
11
255
21
-140.05
0
LINE
8
BLACK
6
CONTINUOUS
10
255
20
-140.05
11
170
21
-140.05
0
LINE
8
BLACK
6
CONTINUOUS
10
170
20
-140.05
11
169.965
21
-140.035
0
LINE
8
BLACK
6
CONTINUOUS
10
170.05
20
-85.05
11
170.05
21
-139.95
0
LINE
8
BLACK
6
CONTINUOUS
10
170.05
20
-139.95
11
254.95
21
-139.95
0
LINE
8
BLACK
6
CONTINUOUS
10
254.95
20
-139.95
11
254.95
21
-85.05
0
LINE
8
BLACK
6
CONTINUOUS
10
254.95
20
-85.05
11
170.05
21
-85.05
0
LINE
8
BLACK
6
CONTINUOUS
10
239.536
20
-116.727
11
239.636
21
-116.486
0
LINE
8
BLACK
6
CONTINUOUS
10
239.636
20
-116.486
11
239.772
21
-116.264
0
LINE
8
BLACK
6
CONTINUOUS
10
239.772
20
-116.264
11
239.941
21
-116.066
0
LINE
8
BLACK
6
CONTINUOUS
10
239.941
20
-116.066
11
240.139
21
-115.897
0
LINE
8
BLACK
6
CONTINUOUS
10
240.139
20
-115.897
11
240.361
21
-115.761
0
LINE
8
BLACK
6
CONTINUOUS
10
240.361
20
-115.761
11
240.602
21
-115.661
0
LINE
8
BLACK
6
CONTINUOUS
10
240.602
20
-115.661
11
240.855
21
-115.6
0
LINE
8
BLACK
6
CONTINUOUS
10
240.855
20
-115.6
11
241.115
21
-115.58
0
LINE
8
BLACK
6
CONTINUOUS
10
241.115
20
-115.58
11
241.375
21
-115.6
0
LINE
8
BLACK
6
CONTINUOUS
10
241.375
20
-115.6
11
241.628
21
-115.661
0
LINE
8
BLACK
6
CONTINUOUS
10
241.628
20
-115.661
11
241.869
21
-115.761
0
LINE
8
BLACK
6
CONTINUOUS
10
241.869
20
-115.761
11
242.091
21
-115.897
0
LINE
8
BLACK
6
CONTINUOUS
10
242.091
20
-115.897
11
242.289
21
-116.066
0
LINE
8
BLACK
6
CONTINUOUS
10
242.289
20
-116.066
11
242.458
21
-116.264
0
LINE
8
BLACK
6
CONTINUOUS
10
242.458
20
-116.264
11
242.594
21
-116.486
0
LINE
8
BLACK
6
CONTINUOUS
10
242.594
20
-116.486
11
242.694
21
-116.727
0
LINE
8
BLACK
6
CONTINUOUS
10
242.694
20
-116.727
11
242.755
21
-116.98
0
LINE
8
BLACK
6
CONTINUOUS
10
242.755
20
-116.98
11
242.775
21
-117.24
0
LINE
8
BLACK
6
CONTINUOUS
10
242.775
20
-117.24
11
242.755
21
-117.5
0
LINE
8
BLACK
6
CONTINUOUS
10
242.755
20
-117.5
11
242.694
21
-117.753
0
LINE
8
BLACK
6
CONTINUOUS
10
242.694
20
-117.753
11
242.594
21
-117.994
0
LINE
8
BLACK
6
CONTINUOUS
10
242.594
20
-117.994
11
242.458
21
-118.216
0
LINE
8
BLACK
6
CONTINUOUS
10
242.458
20
-118.216
11
242.289
21
-118.414
0
LINE
8
BLACK
6
CONTINUOUS
10
242.289
20
-118.414
11
242.091
21
-118.583
0
LINE
8
BLACK
6
CONTINUOUS
10
242.091
20
-118.583
11
241.869
21
-118.719
0
LINE
8
BLACK
6
CONTINUOUS
10
241.869
20
-118.719
11
241.628
21
-118.819
0
LINE
8
BLACK
6
CONTINUOUS
10
241.628
20
-118.819
11
241.375
21
-118.88
0
LINE
8
BLACK
6
CONTINUOUS
10
241.375
20
-118.88
11
241.115
21
-118.9
0
LINE
8
BLACK
6
CONTINUOUS
10
241.115
20
-118.9
11
240.855
21
-118.88
0
LINE
8
BLACK
6
CONTINUOUS
10
240.855
20
-118.88
11
240.602
21
-118.819
0
LINE
8
BLACK
6
CONTINUOUS
10
240.602
20
-118.819
11
240.361
21
-118.719
0
LINE
8
BLACK
6
CONTINUOUS
10
240.361
20
-118.719
11
240.139
21
-118.583
0
LINE
8
BLACK
6
CONTINUOUS
10
240.139
20
-118.583
11
239.941
21
-118.414
0
LINE
8
BLACK
6
CONTINUOUS
10
239.941
20
-118.414
11
239.772
21
-118.216
0
LINE
8
BLACK
6
CONTINUOUS
10
239.772
20
-118.216
11
239.636
21
-117.994
0
LINE
8
BLACK
6
CONTINUOUS
10
239.636
20
-117.994
11
239.536
21
-117.753
0
LINE
8
BLACK
6
CONTINUOUS
10
239.536
20
-117.753
11
239.475
21
-117.5
0
LINE
8
BLACK
6
CONTINUOUS
10
239.475
20
-117.5
11
239.455
21
-117.24
0
LINE
8
BLACK
6
CONTINUOUS
10
239.455
20
-117.24
11
239.475
21
-116.98
0
LINE
8
BLACK
6
CONTINUOUS
10
239.475
20
-116.98
11
239.536
21
-116.727
0
LINE
8
BLACK
6
CONTINUOUS
10
239.646
20
-117.717
11
239.739
21
-117.941
0
LINE
8
BLACK
6
CONTINUOUS
10
239.739
20
-117.941
11
239.865
21
-118.148
0
LINE
8
BLACK
6
CONTINUOUS
10
239.865
20
-118.148
11
240.023
21
-118.332
0
LINE
8
BLACK
6
CONTINUOUS
10
240.023
20
-118.332
11
240.207
21
-118.49
0
LINE
8
BLACK
6
CONTINUOUS
10
240.207
20
-118.49
11
240.414
21
-118.616
0
LINE
8
BLACK
6
CONTINUOUS
10
240.414
20
-118.616
11
240.638
21
-118.709
0
LINE
8
BLACK
6
CONTINUOUS
10
240.638
20
-118.709
11
240.873
21
-118.766
0
LINE
8
BLACK
6
CONTINUOUS
10
240.873
20
-118.766
11
241.115
21
-118.785
0
LINE
8
BLACK
6
CONTINUOUS
10
241.115
20
-118.785
11
241.357
21
-118.766
0
LINE
8
BLACK
6
CONTINUOUS
10
241.357
20
-118.766
11
241.592
21
-118.709
0
LINE
8
BLACK
6
CONTINUOUS
10
241.592
20
-118.709
11
241.816
21
-118.616
0
LINE
8
BLACK
6
CONTINUOUS
10
241.816
20
-118.616
11
242.023
21
-118.49
0
LINE
8
BLACK
6
CONTINUOUS
10
242.023
20
-118.49
11
242.207
21
-118.332
0
LINE
8
BLACK
6
CONTINUOUS
10
242.207
20
-118.332
11
242.365
21
-118.148
0
LINE
8
BLACK
6
CONTINUOUS
10
242.365
20
-118.148
11
242.491
21
-117.941
0
LINE
8
BLACK
6
CONTINUOUS
10
242.491
20
-117.941
11
242.584
21
-117.717
0
LINE
8
BLACK
6
CONTINUOUS
10
242.584
20
-117.717
11
242.641
21
-117.482
0
LINE
8
BLACK
6
CONTINUOUS
10
242.641
20
-117.482
11
242.66
21
-117.24
0
LINE
8
BLACK
6
CONTINUOUS
10
242.66
20
-117.24
11
242.641
21
-116.998
0
LINE
8
BLACK
6
CONTINUOUS
10
242.641
20
-116.998
11
242.584
21
-116.763
0
LINE
8
BLACK
6
CONTINUOUS
10
242.584
20
-116.763
11
242.491
21
-116.539
0
LINE
8
BLACK
6
CONTINUOUS
10
242.491
20
-116.539
11
242.365
21
-116.332
0
LINE
8
BLACK
6
CONTINUOUS
10
242.365
20
-116.332
11
242.207
21
-116.148
0
LINE
8
BLACK
6
CONTINUOUS
10
242.207
20
-116.148
11
242.023
21
-115.99
0
LINE
8
BLACK
6
CONTINUOUS
10
242.023
20
-115.99
11
241.816
21
-115.864
0
LINE
8
BLACK
6
CONTINUOUS
10
241.816
20
-115.864
11
241.592
21
-115.771
0
LINE
8
BLACK
6
CONTINUOUS
10
241.592
20
-115.771
11
241.357
21
-115.714
0
LINE
8
BLACK
6
CONTINUOUS
10
241.357
20
-115.714
11
241.115
21
-115.695
0
LINE
8
BLACK
6
CONTINUOUS
10
241.115
20
-115.695
11
240.873
21
-115.714
0
LINE
8
BLACK
6
CONTINUOUS
10
240.873
20
-115.714
11
240.638
21
-115.771
0
LINE
8
BLACK
6
CONTINUOUS
10
240.638
20
-115.771
11
240.414
21
-115.864
0
LINE
8
BLACK
6
CONTINUOUS
10
240.414
20
-115.864
11
240.207
21
-115.99
0
LINE
8
BLACK
6
CONTINUOUS
10
240.207
20
-115.99
11
240.023
21
-116.148
0
LINE
8
BLACK
6
CONTINUOUS
10
240.023
20
-116.148
11
239.865
21
-116.332
0
LINE
8
BLACK
6
CONTINUOUS
10
239.865
20
-116.332
11
239.739
21
-116.539
0
LINE
8
BLACK
6
CONTINUOUS
10
239.739
20
-116.539
11
239.646
21
-116.763
0
LINE
8
BLACK
6
CONTINUOUS
10
239.646
20
-116.763
11
239.589
21
-116.998
0
LINE
8
BLACK
6
CONTINUOUS
10
239.589
20
-116.998
11
239.57
21
-117.24
0
LINE
8
BLACK
6
CONTINUOUS
10
239.57
20
-117.24
11
239.589
21
-117.482
0
LINE
8
BLACK
6
CONTINUOUS
10
239.589
20
-117.482
11
239.646
21
-117.717
0
LINE
8
BLACK
6
CONTINUOUS
10
184.744
20
-111.785
11
184.834
21
-111.567
0
LINE
8
BLACK
6
CONTINUOUS
10
184.834
20
-111.567
11
184.957
21
-111.365
0
LINE
8
BLACK
6
CONTINUOUS
10
184.957
20
-111.365
11
185.111
21
-111.186
0
LINE
8
BLACK
6
CONTINUOUS
10
185.111
20
-111.186
11
185.29
21
-111.032
0
LINE
8
BLACK
6
CONTINUOUS
10
185.29
20
-111.032
11
185.492
21
-110.909
0
LINE
8
BLACK
6
CONTINUOUS
10
185.492
20
-110.909
11
185.71
21
-110.819
0
LINE
8
BLACK
6
CONTINUOUS
10
185.71
20
-110.819
11
185.94
21
-110.764
0
LINE
8
BLACK
6
CONTINUOUS
10
185.94
20
-110.764
11
186.175
21
-110.745
0
LINE
8
BLACK
6
CONTINUOUS
10
186.175
20
-110.745
11
186.41
21
-110.764
0
LINE
8
BLACK
6
CONTINUOUS
10
186.41
20
-110.764
11
186.64
21
-110.819
0
LINE
8
BLACK
6
CONTINUOUS
10
186.64
20
-110.819
11
186.858
21
-110.909
0
LINE
8
BLACK
6
CONTINUOUS
10
186.858
20
-110.909
11
187.06
21
-111.032
0
LINE
8
BLACK
6
CONTINUOUS
10
187.06
20
-111.032
11
187.239
21
-111.186
0
LINE
8
BLACK
6
CONTINUOUS
10
187.239
20
-111.186
11
187.393
21
-111.365
0
LINE
8
BLACK
6
CONTINUOUS
10
187.393
20
-111.365
11
187.516
21
-111.567
0
LINE
8
BLACK
6
CONTINUOUS
10
187.516
20
-111.567
11
187.606
21
-111.785
0
LINE
8
BLACK
6
CONTINUOUS
10
187.606
20
-111.785
11
187.661
21
-112.015
0
LINE
8
BLACK
6
CONTINUOUS
10
187.661
20
-112.015
11
187.68
21
-112.25
0
LINE
8
BLACK
6
CONTINUOUS
10
187.68
20
-112.25
11
187.661
21
-112.485
0
LINE
8
BLACK
6
CONTINUOUS
10
187.661
20
-112.485
11
187.606
21
-112.715
0
LINE
8
BLACK
6
CONTINUOUS
10
187.606
20
-112.715
11
187.516
21
-112.933
0
LINE
8
BLACK
6
CONTINUOUS
10
187.516
20
-112.933
11
187.393
21
-113.135
0
LINE
8
BLACK
6
CONTINUOUS
10
187.393
20
-113.135
11
187.239
21
-113.314
0
LINE
8
BLACK
6
CONTINUOUS
10
187.239
20
-113.314
11
187.06
21
-113.468
0
LINE
8
BLACK
6
CONTINUOUS
10
187.06
20
-113.468
11
186.858
21
-113.591
0
LINE
8
BLACK
6
CONTINUOUS
10
186.858
20
-113.591
11
186.64
21
-113.681
0
LINE
8
BLACK
6
CONTINUOUS
10
186.64
20
-113.681
11
186.41
21
-113.736
0
LINE
8
BLACK
6
CONTINUOUS
10
186.41
20
-113.736
11
186.175
21
-113.755
0
LINE
8
BLACK
6
CONTINUOUS
10
186.175
20
-113.755
11
185.94
21
-113.736
0
LINE
8
BLACK
6
CONTINUOUS
10
185.94
20
-113.736
11
185.71
21
-113.681
0
LINE
8
BLACK
6
CONTINUOUS
10
185.71
20
-113.681
11
185.492
21
-113.591
0
LINE
8
BLACK
6
CONTINUOUS
10
185.492
20
-113.591
11
185.29
21
-113.468
0
LINE
8
BLACK
6
CONTINUOUS
10
185.29
20
-113.468
11
185.111
21
-113.314
0
LINE
8
BLACK
6
CONTINUOUS
10
185.111
20
-113.314
11
184.957
21
-113.135
0
LINE
8
BLACK
6
CONTINUOUS
10
184.957
20
-113.135
11
184.834
21
-112.933
0
LINE
8
BLACK
6
CONTINUOUS
10
184.834
20
-112.933
11
184.744
21
-112.715
0
LINE
8
BLACK
6
CONTINUOUS
10
184.744
20
-112.715
11
184.689
21
-112.485
0
LINE
8
BLACK
6
CONTINUOUS
10
184.689
20
-112.485
11
184.67
21
-112.25
0
LINE
8
BLACK
6
CONTINUOUS
10
184.67
20
-112.25
11
184.673
21
-112.213
0
LINE
8
BLACK
6
CONTINUOUS
10
184.673
20
-112.213
11
184.689
21
-112.015
0
LINE
8
BLACK
6
CONTINUOUS
10
184.689
20
-112.015
11
184.744
21
-111.785
0
LINE
8
BLACK
6
CONTINUOUS
10
184.744
20
-112.699
11
184.836
21
-112.926
0
LINE
8
BLACK
6
CONTINUOUS
10
184.836
20
-112.926
11
184.964
21
-113.136
0
LINE
8
BLACK
6
CONTINUOUS
10
184.964
20
-113.136
11
185.125
21
-113.322
0
LINE
8
BLACK
6
CONTINUOUS
10
185.125
20
-113.322
11
185.315
21
-113.479
0
LINE
8
BLACK
6
CONTINUOUS
10
185.315
20
-113.479
11
185.527
21
-113.603
0
LINE
8
BLACK
6
CONTINUOUS
10
185.527
20
-113.603
11
185.756
21
-113.691
0
LINE
8
BLACK
6
CONTINUOUS
10
185.756
20
-113.691
11
185.997
21
-113.74
0
LINE
8
BLACK
6
CONTINUOUS
10
185.997
20
-113.74
11
186.243
21
-113.749
0
LINE
8
BLACK
6
CONTINUOUS
10
186.243
20
-113.749
11
186.487
21
-113.717
0
LINE
8
BLACK
6
CONTINUOUS
10
186.487
20
-113.717
11
186.722
21
-113.647
0
LINE
8
BLACK
6
CONTINUOUS
10
186.722
20
-113.647
11
186.943
21
-113.539
0
LINE
8
BLACK
6
CONTINUOUS
10
186.943
20
-113.539
11
187.143
21
-113.396
0
LINE
8
BLACK
6
CONTINUOUS
10
187.143
20
-113.396
11
187.317
21
-113.222
0
LINE
8
BLACK
6
CONTINUOUS
10
187.317
20
-113.222
11
187.461
21
-113.023
0
LINE
8
BLACK
6
CONTINUOUS
10
187.461
20
-113.023
11
187.57
21
-112.802
0
LINE
8
BLACK
6
CONTINUOUS
10
187.57
20
-112.802
11
187.641
21
-112.567
0
LINE
8
BLACK
6
CONTINUOUS
10
187.641
20
-112.567
11
187.673
21
-112.323
0
LINE
8
BLACK
6
CONTINUOUS
10
187.673
20
-112.323
11
187.675
21
-112.25
0
LINE
8
BLACK
6
CONTINUOUS
10
187.675
20
-112.25
11
187.655
21
-112.005
0
LINE
8
BLACK
6
CONTINUOUS
10
187.655
20
-112.005
11
187.595
21
-111.767
0
LINE
8
BLACK
6
CONTINUOUS
10
187.595
20
-111.767
11
187.497
21
-111.541
0
LINE
8
BLACK
6
CONTINUOUS
10
187.497
20
-111.541
11
187.364
21
-111.335
0
LINE
8
BLACK
6
CONTINUOUS
10
187.364
20
-111.335
11
187.198
21
-111.153
0
LINE
8
BLACK
6
CONTINUOUS
10
187.198
20
-111.153
11
187.005
21
-111.001
0
LINE
8
BLACK
6
CONTINUOUS
10
187.005
20
-111.001
11
186.79
21
-110.882
0
LINE
8
BLACK
6
CONTINUOUS
10
186.79
20
-110.882
11
186.558
21
-110.8
0
LINE
8
BLACK
6
CONTINUOUS
10
186.558
20
-110.8
11
186.316
21
-110.757
0
LINE
8
BLACK
6
CONTINUOUS
10
186.316
20
-110.757
11
186.07
21
-110.754
0
LINE
8
BLACK
6
CONTINUOUS
10
186.07
20
-110.754
11
185.827
21
-110.791
0
LINE
8
BLACK
6
CONTINUOUS
10
185.827
20
-110.791
11
185.594
21
-110.867
0
LINE
8
BLACK
6
CONTINUOUS
10
185.594
20
-110.867
11
185.376
21
-110.981
0
LINE
8
BLACK
6
CONTINUOUS
10
185.376
20
-110.981
11
185.179
21
-111.128
0
LINE
8
BLACK
6
CONTINUOUS
10
185.179
20
-111.128
11
185.009
21
-111.306
0
LINE
8
BLACK
6
CONTINUOUS
10
185.009
20
-111.306
11
184.871
21
-111.509
0
LINE
8
BLACK
6
CONTINUOUS
10
184.871
20
-111.509
11
184.767
21
-111.732
0
LINE
8
BLACK
6
CONTINUOUS
10
184.767
20
-111.732
11
184.701
21
-111.969
0
LINE
8
BLACK
6
CONTINUOUS
10
184.701
20
-111.969
11
184.675
21
-112.213
0
LINE
8
BLACK
6
CONTINUOUS
10
184.675
20
-112.213
11
184.689
21
-112.459
0
LINE
8
BLACK
6
CONTINUOUS
10
184.689
20
-112.459
11
184.744
21
-112.699
0
LINE
8
BLACK
6
CONTINUOUS
10
239.536
20
-95.987
11
239.636
21
-95.7464
0
LINE
8
BLACK
6
CONTINUOUS
10
239.636
20
-95.7464
11
239.772
21
-95.5243
0
LINE
8
BLACK
6
CONTINUOUS
10
239.772
20
-95.5243
11
239.941
21
-95.3262
0
LINE
8
BLACK
6
CONTINUOUS
10
239.941
20
-95.3262
11
240.139
21
-95.157
0
LINE
8
BLACK
6
CONTINUOUS
10
240.139
20
-95.157
11
240.361
21
-95.0209
0
LINE
8
BLACK
6
CONTINUOUS
10
240.361
20
-95.0209
11
240.602
21
-94.9212
0
LINE
8
BLACK
6
CONTINUOUS
10
240.602
20
-94.9212
11
240.855
21
-94.8604
0
LINE
8
BLACK
6
CONTINUOUS
10
240.855
20
-94.8604
11
241.115
21
-94.84
0
LINE
8
BLACK
6
CONTINUOUS
10
241.115
20
-94.84
11
241.375
21
-94.8604
0
LINE
8
BLACK
6
CONTINUOUS
10
241.375
20
-94.8604
11
241.628
21
-94.9212
0
LINE
8
BLACK
6
CONTINUOUS
10
241.628
20
-94.9212
11
241.869
21
-95.0209
0
LINE
8
BLACK
6
CONTINUOUS
10
241.869
20
-95.0209
11
242.091
21
-95.157
0
LINE
8
BLACK
6
CONTINUOUS
10
242.091
20
-95.157
11
242.289
21
-95.3262
0
LINE
8
BLACK
6
CONTINUOUS
10
242.289
20
-95.3262
11
242.458
21
-95.5243
0
LINE
8
BLACK
6
CONTINUOUS
10
242.458
20
-95.5243
11
242.594
21
-95.7464
0
LINE
8
BLACK
6
CONTINUOUS
10
242.594
20
-95.7464
11
242.694
21
-95.987
0
LINE
8
BLACK
6
CONTINUOUS
10
242.694
20
-95.987
11
242.755
21
-96.2403
0
LINE
8
BLACK
6
CONTINUOUS
10
242.755
20
-96.2403
11
242.775
21
-96.5
0
LINE
8
BLACK
6
CONTINUOUS
10
242.775
20
-96.5
11
242.755
21
-96.7597
0
LINE
8
BLACK
6
CONTINUOUS
10
242.755
20
-96.7597
11
242.694
21
-97.013
0
LINE
8
BLACK
6
CONTINUOUS
10
242.694
20
-97.013
11
242.594
21
-97.2536
0
LINE
8
BLACK
6
CONTINUOUS
10
242.594
20
-97.2536
11
242.458
21
-97.4757
0
LINE
8
BLACK
6
CONTINUOUS
10
242.458
20
-97.4757
11
242.289
21
-97.6738
0
LINE
8
BLACK
6
CONTINUOUS
10
242.289
20
-97.6738
11
242.091
21
-97.843
0
LINE
8
BLACK
6
CONTINUOUS
10
242.091
20
-97.843
11
241.869
21
-97.9791
0
LINE
8
BLACK
6
CONTINUOUS
10
241.869
20
-97.9791
11
241.628
21
-98.0788
0
LINE
8
BLACK
6
CONTINUOUS
10
241.628
20
-98.0788
11
241.375
21
-98.1396
0
LINE
8
BLACK
6
CONTINUOUS
10
241.375
20
-98.1396
11
241.115
21
-98.16
0
LINE
8
BLACK
6
CONTINUOUS
10
241.115
20
-98.16
11
240.855
21
-98.1396
0
LINE
8
BLACK
6
CONTINUOUS
10
240.855
20
-98.1396
11
240.602
21
-98.0788
0
LINE
8
BLACK
6
CONTINUOUS
10
240.602
20
-98.0788
11
240.361
21
-97.9791
0
LINE
8
BLACK
6
CONTINUOUS
10
240.361
20
-97.9791
11
240.139
21
-97.843
0
LINE
8
BLACK
6
CONTINUOUS
10
240.139
20
-97.843
11
239.941
21
-97.6738
0
LINE
8
BLACK
6
CONTINUOUS
10
239.941
20
-97.6738
11
239.772
21
-97.4757
0
LINE
8
BLACK
6
CONTINUOUS
10
239.772
20
-97.4757
11
239.636
21
-97.2536
0
LINE
8
BLACK
6
CONTINUOUS
10
239.636
20
-97.2536
11
239.536
21
-97.013
0
LINE
8
BLACK
6
CONTINUOUS
10
239.536
20
-97.013
11
239.475
21
-96.7597
0
LINE
8
BLACK
6
CONTINUOUS
10
239.475
20
-96.7597
11
239.455
21
-96.5
0
LINE
8
BLACK
6
CONTINUOUS
10
239.455
20
-96.5
11
239.475
21
-96.2403
0
LINE
8
BLACK
6
CONTINUOUS
10
239.475
20
-96.2403
11
239.536
21
-95.987
0
LINE
8
BLACK
6
CONTINUOUS
10
239.646
20
-96.9774
11
239.739
21
-97.2013
0
LINE
8
BLACK
6
CONTINUOUS
10
239.739
20
-97.2013
11
239.865
21
-97.408
0
LINE
8
BLACK
6
CONTINUOUS
10
239.865
20
-97.408
11
240.023
21
-97.5923
0
LINE
8
BLACK
6
CONTINUOUS
10
240.023
20
-97.5923
11
240.207
21
-97.7497
0
LINE
8
BLACK
6
CONTINUOUS
10
240.207
20
-97.7497
11
240.414
21
-97.8764
0
LINE
8
BLACK
6
CONTINUOUS
10
240.414
20
-97.8764
11
240.638
21
-97.9692
0
LINE
8
BLACK
6
CONTINUOUS
10
240.638
20
-97.9692
11
240.873
21
-98.0257
0
LINE
8
BLACK
6
CONTINUOUS
10
240.873
20
-98.0257
11
241.115
21
-98.0448
0
LINE
8
BLACK
6
CONTINUOUS
10
241.115
20
-98.0448
11
241.357
21
-98.0257
0
LINE
8
BLACK
6
CONTINUOUS
10
241.357
20
-98.0257
11
241.592
21
-97.9692
0
LINE
8
BLACK
6
CONTINUOUS
10
241.592
20
-97.9692
11
241.816
21
-97.8764
0
LINE
8
BLACK
6
CONTINUOUS
10
241.816
20
-97.8764
11
242.023
21
-97.7497
0
LINE
8
BLACK
6
CONTINUOUS
10
242.023
20
-97.7497
11
242.207
21
-97.5923
0
LINE
8
BLACK
6
CONTINUOUS
10
242.207
20
-97.5923
11
242.365
21
-97.408
0
LINE
8
BLACK
6
CONTINUOUS
10
242.365
20
-97.408
11
242.491
21
-97.2013
0
LINE
8
BLACK
6
CONTINUOUS
10
242.491
20
-97.2013
11
242.584
21
-96.9774
0
LINE
8
BLACK
6
CONTINUOUS
10
242.584
20
-96.9774
11
242.641
21
-96.7417
0
LINE
8
BLACK
6
CONTINUOUS
10
242.641
20
-96.7417
11
242.66
21
-96.5
0
LINE
8
BLACK
6
CONTINUOUS
10
242.66
20
-96.5
11
242.641
21
-96.2583
0
LINE
8
BLACK
6
CONTINUOUS
10
242.641
20
-96.2583
11
242.584
21
-96.0226
0
LINE
8
BLACK
6
CONTINUOUS
10
242.584
20
-96.0226
11
242.491
21
-95.7987
0
LINE
8
BLACK
6
CONTINUOUS
10
242.491
20
-95.7987
11
242.365
21
-95.592
0
LINE
8
BLACK
6
CONTINUOUS
10
242.365
20
-95.592
11
242.207
21
-95.4077
0
LINE
8
BLACK
6
CONTINUOUS
10
242.207
20
-95.4077
11
242.023
21
-95.2503
0
LINE
8
BLACK
6
CONTINUOUS
10
242.023
20
-95.2503
11
241.816
21
-95.1236
0
LINE
8
BLACK
6
CONTINUOUS
10
241.816
20
-95.1236
11
241.592
21
-95.0308
0
LINE
8
BLACK
6
CONTINUOUS
10
241.592
20
-95.0308
11
241.357
21
-94.9743
0
LINE
8
BLACK
6
CONTINUOUS
10
241.357
20
-94.9743
11
241.115
21
-94.9552
0
LINE
8
BLACK
6
CONTINUOUS
10
241.115
20
-94.9552
11
240.873
21
-94.9743
0
LINE
8
BLACK
6
CONTINUOUS
10
240.873
20
-94.9743
11
240.638
21
-95.0308
0
LINE
8
BLACK
6
CONTINUOUS
10
240.638
20
-95.0308
11
240.414
21
-95.1236
0
LINE
8
BLACK
6
CONTINUOUS
10
240.414
20
-95.1236
11
240.207
21
-95.2503
0
LINE
8
BLACK
6
CONTINUOUS
10
240.207
20
-95.2503
11
240.023
21
-95.4077
0
LINE
8
BLACK
6
CONTINUOUS
10
240.023
20
-95.4077
11
239.865
21
-95.592
0
LINE
8
BLACK
6
CONTINUOUS
10
239.865
20
-95.592
11
239.739
21
-95.7987
0
LINE
8
BLACK
6
CONTINUOUS
10
239.739
20
-95.7987
11
239.646
21
-96.0226
0
LINE
8
BLACK
6
CONTINUOUS
10
239.646
20
-96.0226
11
239.589
21
-96.2583
0
LINE
8
BLACK
6
CONTINUOUS
10
239.589
20
-96.2583
11
239.57
21
-96.5
0
LINE
8
BLACK
6
CONTINUOUS
10
239.57
20
-96.5
11
239.589
21
-96.7417
0
LINE
8
BLACK
6
CONTINUOUS
10
239.589
20
-96.7417
11
239.646
21
-96.9774
  0
ENDSEC
  0
EOF
