M48
; DRILL file {KiCad (6.0.4)} date Sun Jul 17 15:29:18 2022
; FORMAT={-:-/ absolute / metric / decimal}
; #@! TF.CreationDate,2022-07-17T15:29:18+02:00
; #@! TF.GenerationSoftware,Kicad,Pcbnew,(6.0.4)
; #@! TF.FileFunction,Plated,1,2,PTH
FMAT,2
METRIC
; #@! TA.AperFunction,Plated,PTH,ViaDrill
T1C0.400
; #@! TA.AperFunction,Plated,PTH,ComponentDrill
T2C1.000
%
G90
G05
T1
X7.75Y-2.75
X8.25Y-14.0
X8.25Y-43.75
X10.25Y-2.75
X11.25Y-1.0
X11.25Y-11.0
X20.75Y-2.5
X20.75Y-7.352
T2
X1.422Y-1.887
X1.422Y-4.427
X1.422Y-6.967
X1.422Y-9.507
X1.422Y-12.047
X1.422Y-14.587
X1.422Y-17.127
X1.422Y-19.667
X1.422Y-22.207
X1.422Y-24.747
X1.422Y-27.287
X1.422Y-29.827
X1.422Y-32.367
X24.275Y-1.894
X24.275Y-4.434
X24.275Y-6.974
X24.275Y-9.514
X24.275Y-12.054
X24.275Y-14.594
X24.275Y-17.134
X24.275Y-19.674
X24.275Y-22.214
X24.275Y-24.754
X24.275Y-27.294
X24.275Y-29.834
X24.275Y-32.374
T0
M30
