%TF.GenerationSoftware,KiCad,Pcbnew,(6.0.4)*%
%TF.CreationDate,2022-07-17T15:29:07+02:00*%
%TF.ProjectId,MPU6050_esp32Lolin,4d505536-3035-4305-9f65-737033324c6f,rev?*%
%TF.SameCoordinates,PX6f94740PY4378f30*%
%TF.FileFunction,Copper,L1,Top*%
%TF.FilePolarity,Positive*%
%FSLAX46Y46*%
G04 Gerber Fmt 4.6, Leading zero omitted, Abs format (unit mm)*
G04 Created by KiCad (PCBNEW (6.0.4)) date 2022-07-17 15:29:07*
%MOMM*%
%LPD*%
G01*
G04 APERTURE LIST*
G04 Aperture macros list*
%AMRoundRect*
0 Rectangle with rounded corners*
0 $1 Rounding radius*
0 $2 $3 $4 $5 $6 $7 $8 $9 X,Y pos of 4 corners*
0 Add a 4 corners polygon primitive as box body*
4,1,4,$2,$3,$4,$5,$6,$7,$8,$9,$2,$3,0*
0 Add four circle primitives for the rounded corners*
1,1,$1+$1,$2,$3*
1,1,$1+$1,$4,$5*
1,1,$1+$1,$6,$7*
1,1,$1+$1,$8,$9*
0 Add four rect primitives between the rounded corners*
20,1,$1+$1,$2,$3,$4,$5,0*
20,1,$1+$1,$4,$5,$6,$7,0*
20,1,$1+$1,$6,$7,$8,$9,0*
20,1,$1+$1,$8,$9,$2,$3,0*%
G04 Aperture macros list end*
%TA.AperFunction,SMDPad,CuDef*%
%ADD10RoundRect,0.250000X-0.350000X-0.450000X0.350000X-0.450000X0.350000X0.450000X-0.350000X0.450000X0*%
%TD*%
%TA.AperFunction,SMDPad,CuDef*%
%ADD11RoundRect,0.250001X0.624999X-0.462499X0.624999X0.462499X-0.624999X0.462499X-0.624999X-0.462499X0*%
%TD*%
%TA.AperFunction,SMDPad,CuDef*%
%ADD12RoundRect,0.575000X-0.575000X0.925000X-0.575000X-0.925000X0.575000X-0.925000X0.575000X0.925000X0*%
%TD*%
%TA.AperFunction,SMDPad,CuDef*%
%ADD13RoundRect,0.250000X-0.450000X0.350000X-0.450000X-0.350000X0.450000X-0.350000X0.450000X0.350000X0*%
%TD*%
%TA.AperFunction,ComponentPad*%
%ADD14R,1.700000X1.700000*%
%TD*%
%TA.AperFunction,ComponentPad*%
%ADD15O,1.700000X1.700000*%
%TD*%
%TA.AperFunction,SMDPad,CuDef*%
%ADD16RoundRect,0.250000X-0.700000X0.362500X-0.700000X-0.362500X0.700000X-0.362500X0.700000X0.362500X0*%
%TD*%
%TA.AperFunction,SMDPad,CuDef*%
%ADD17RoundRect,0.250000X0.412500X0.650000X-0.412500X0.650000X-0.412500X-0.650000X0.412500X-0.650000X0*%
%TD*%
%TA.AperFunction,SMDPad,CuDef*%
%ADD18RoundRect,0.250001X0.499999X0.924999X-0.499999X0.924999X-0.499999X-0.924999X0.499999X-0.924999X0*%
%TD*%
%TA.AperFunction,SMDPad,CuDef*%
%ADD19RoundRect,0.075000X-0.075000X0.350000X-0.075000X-0.350000X0.075000X-0.350000X0.075000X0.350000X0*%
%TD*%
%TA.AperFunction,SMDPad,CuDef*%
%ADD20RoundRect,0.075000X-0.350000X-0.075000X0.350000X-0.075000X0.350000X0.075000X-0.350000X0.075000X0*%
%TD*%
%TA.AperFunction,SMDPad,CuDef*%
%ADD21RoundRect,0.250000X-0.475000X0.337500X-0.475000X-0.337500X0.475000X-0.337500X0.475000X0.337500X0*%
%TD*%
%TA.AperFunction,SMDPad,CuDef*%
%ADD22RoundRect,0.250000X0.350000X0.450000X-0.350000X0.450000X-0.350000X-0.450000X0.350000X-0.450000X0*%
%TD*%
%TA.AperFunction,SMDPad,CuDef*%
%ADD23RoundRect,0.250000X-0.337500X-0.475000X0.337500X-0.475000X0.337500X0.475000X-0.337500X0.475000X0*%
%TD*%
%TA.AperFunction,ViaPad*%
%ADD24C,1.200000*%
%TD*%
%TA.AperFunction,Conductor*%
%ADD25C,0.250000*%
%TD*%
G04 APERTURE END LIST*
D10*
X10500000Y-13750000D03*
X12500000Y-13750000D03*
D11*
X14578253Y-18570797D03*
X14578253Y-15595797D03*
D12*
X20250000Y-21750000D03*
X17250000Y-21750000D03*
X14250000Y-21750000D03*
X11250000Y-21750000D03*
X8250000Y-21750000D03*
X5250000Y-21750000D03*
X5250000Y-41250000D03*
X8250000Y-41250000D03*
X11250000Y-41250000D03*
X14250000Y-41250000D03*
X17250000Y-41250000D03*
X20250000Y-41250000D03*
D13*
X12250000Y-16750000D03*
X12250000Y-18750000D03*
D14*
X1421631Y-1886942D03*
D15*
X1421631Y-4426942D03*
X1421631Y-6966942D03*
X1421631Y-9506942D03*
X1421631Y-12046942D03*
X1421631Y-14586942D03*
X1421631Y-17126942D03*
X1421631Y-19666942D03*
X1421631Y-22206942D03*
X1421631Y-24746942D03*
X1421631Y-27286942D03*
X1421631Y-29826942D03*
X1421631Y-32366942D03*
D13*
X6500000Y-9250000D03*
X6500000Y-11250000D03*
D16*
X20750000Y-9587500D03*
X20750000Y-12912500D03*
D17*
X20312500Y-18500000D03*
X17187500Y-18500000D03*
D13*
X7750000Y-16750000D03*
X7750000Y-18750000D03*
D18*
X20125000Y-15500000D03*
X16875000Y-15500000D03*
D19*
X14000000Y-3800000D03*
X13500000Y-3800000D03*
X13000000Y-3800000D03*
X12500000Y-3800000D03*
X12000000Y-3800000D03*
X11500000Y-3800000D03*
D20*
X10800000Y-4500000D03*
X10800000Y-5000000D03*
X10800000Y-5500000D03*
X10800000Y-6000000D03*
X10800000Y-6500000D03*
X10800000Y-7000000D03*
D19*
X11500000Y-7700000D03*
X12000000Y-7700000D03*
X12500000Y-7700000D03*
X13000000Y-7700000D03*
X13500000Y-7700000D03*
X14000000Y-7700000D03*
D20*
X14700000Y-7000000D03*
X14700000Y-6500000D03*
X14700000Y-6000000D03*
X14700000Y-5500000D03*
X14700000Y-5000000D03*
X14700000Y-4500000D03*
D21*
X8500000Y-9212500D03*
X8500000Y-11287500D03*
X4500000Y-9212500D03*
X4500000Y-11287500D03*
X17000000Y-7462500D03*
X17000000Y-9537500D03*
D22*
X18868600Y-5470263D03*
X16868600Y-5470263D03*
D23*
X12462500Y-10250000D03*
X14537500Y-10250000D03*
D14*
X24275370Y-32373691D03*
D15*
X24275370Y-29833691D03*
X24275370Y-27293691D03*
X24275370Y-24753691D03*
X24275370Y-22213691D03*
X24275370Y-19673691D03*
X24275370Y-17133691D03*
X24275370Y-14593691D03*
X24275370Y-12053691D03*
X24275370Y-9513691D03*
X24275370Y-6973691D03*
X24275370Y-4433691D03*
X24275370Y-1893691D03*
D22*
X18868600Y-2500000D03*
X16868600Y-2500000D03*
D13*
X10000000Y-16750000D03*
X10000000Y-18750000D03*
D24*
X20750000Y-7351663D03*
X11250000Y-11000000D03*
X20750000Y-2500000D03*
X11250000Y-1000000D03*
X7750000Y-2750000D03*
X10250000Y-2750000D03*
X8250000Y-43750000D03*
X8250000Y-14000000D03*
D25*
X10750000Y-1000000D02*
X10250000Y-1000000D01*
X18868600Y-1368600D02*
X18500000Y-1000000D01*
X18868600Y-5470263D02*
X20750000Y-7351663D01*
X9000000Y-5000000D02*
X10800000Y-5000000D01*
X9000000Y-2250000D02*
X9000000Y-5000000D01*
X12462500Y-10537500D02*
X12000000Y-11000000D01*
X4500000Y-7250000D02*
X6750000Y-5000000D01*
X11000000Y-1000000D02*
X10750000Y-1000000D01*
X10250000Y-1000000D02*
X9000000Y-2250000D01*
X6750000Y-5000000D02*
X9000000Y-5000000D01*
X20750000Y-7351663D02*
X20750000Y-9587500D01*
X12000000Y-11000000D02*
X11250000Y-11000000D01*
X23669061Y-2500000D02*
X20750000Y-2500000D01*
X24275370Y-1893691D02*
X23669061Y-2500000D01*
X12462500Y-10250000D02*
X11500000Y-9287500D01*
X4500000Y-9212500D02*
X4500000Y-7250000D01*
X20750000Y-2500000D02*
X18868600Y-2500000D01*
X18500000Y-1000000D02*
X11000000Y-1000000D01*
X18868600Y-2500000D02*
X18868600Y-1368600D01*
X11500000Y-9287500D02*
X11500000Y-7700000D01*
X12462500Y-10250000D02*
X12462500Y-10537500D01*
X9750000Y-6500000D02*
X9500000Y-6750000D01*
X10800000Y-6500000D02*
X9750000Y-6500000D01*
X9500000Y-6750000D02*
X9500000Y-7000000D01*
X14000000Y-3800000D02*
X14000000Y-2500000D01*
X14000000Y-7700000D02*
X14000000Y-8750000D01*
X20250000Y-21750000D02*
X20312500Y-21687500D01*
X20312500Y-15687500D02*
X20125000Y-15500000D01*
X20125000Y-13537500D02*
X20750000Y-12912500D01*
X20125000Y-15500000D02*
X20125000Y-13537500D01*
X20312500Y-21687500D02*
X20312500Y-18500000D01*
X20312500Y-18500000D02*
X20312500Y-15687500D01*
X9250000Y-6000000D02*
X10800000Y-6000000D01*
X8500000Y-6750000D02*
X9250000Y-6000000D01*
X8500000Y-9212500D02*
X8500000Y-6750000D01*
X22500000Y-6000000D02*
X20699520Y-4199520D01*
X16853659Y-4199520D02*
X16250000Y-4199520D01*
X22500000Y-7738321D02*
X22500000Y-6000000D01*
X16250000Y-4199520D02*
X15449520Y-5000000D01*
X20699520Y-4199520D02*
X16853659Y-4199520D01*
X16868600Y-5470263D02*
X16868600Y-4214461D01*
X15449520Y-5000000D02*
X14700000Y-5000000D01*
X16868600Y-4214461D02*
X16853659Y-4199520D01*
X24275370Y-9513691D02*
X22500000Y-7738321D01*
X17000000Y-7462500D02*
X16750000Y-7212500D01*
X16750000Y-7212500D02*
X16750000Y-7000000D01*
X16750000Y-7000000D02*
X16250000Y-6500000D01*
X16250000Y-6500000D02*
X14700000Y-6500000D01*
X16860577Y-3750000D02*
X16000000Y-3750000D01*
X15250000Y-4500000D02*
X14700000Y-4500000D01*
X24275370Y-6973691D02*
X21051679Y-3750000D01*
X16868600Y-3741977D02*
X16860577Y-3750000D01*
X16868600Y-2500000D02*
X16868600Y-3741977D01*
X21051679Y-3750000D02*
X16860577Y-3750000D01*
X16000000Y-3750000D02*
X15250000Y-4500000D01*
X14578253Y-14328253D02*
X14578253Y-15595797D01*
X12500000Y-13750000D02*
X14000000Y-13750000D01*
X14000000Y-13750000D02*
X14578253Y-14328253D01*
X5250000Y-16000000D02*
X5250000Y-17000000D01*
X5250000Y-17000000D02*
X2583058Y-19666942D01*
X6250000Y-15000000D02*
X5250000Y-16000000D01*
X10500000Y-15000000D02*
X6250000Y-15000000D01*
X12250000Y-16750000D02*
X10500000Y-15000000D01*
X2583058Y-19666942D02*
X1421631Y-19666942D01*
X11500000Y-20250000D02*
X12250000Y-19500000D01*
X11250000Y-21750000D02*
X11500000Y-21500000D01*
X11500000Y-21500000D02*
X11500000Y-20250000D01*
X12250000Y-19500000D02*
X12250000Y-18750000D01*
X2961087Y-20038913D02*
X2961087Y-21797048D01*
X5750000Y-16250000D02*
X5750000Y-17250000D01*
X5750000Y-17250000D02*
X2961087Y-20038913D01*
X10000000Y-16750000D02*
X8750000Y-15500000D01*
X6500000Y-15500000D02*
X5750000Y-16250000D01*
X2551193Y-22206942D02*
X1421631Y-22206942D01*
X8750000Y-15500000D02*
X6500000Y-15500000D01*
X2961087Y-21797048D02*
X2551193Y-22206942D01*
X8250000Y-21000000D02*
X10000000Y-19250000D01*
X8250000Y-21750000D02*
X8250000Y-21000000D01*
X10000000Y-19250000D02*
X10000000Y-18750000D01*
X3500000Y-24000000D02*
X2753058Y-24746942D01*
X7000000Y-16750000D02*
X3500000Y-20250000D01*
X2753058Y-24746942D02*
X1421631Y-24746942D01*
X7750000Y-16750000D02*
X7000000Y-16750000D01*
X3500000Y-20250000D02*
X3500000Y-24000000D01*
X6500000Y-18750000D02*
X7750000Y-18750000D01*
X5250000Y-20000000D02*
X6500000Y-18750000D01*
X5250000Y-21750000D02*
X5250000Y-20000000D01*
X8250000Y-14000000D02*
X8500000Y-13750000D01*
X8500000Y-13750000D02*
X10500000Y-13750000D01*
X8250000Y-41250000D02*
X8250000Y-43750000D01*
X6500000Y-9250000D02*
X6500000Y-6750000D01*
X6500000Y-6750000D02*
X7750000Y-5500000D01*
X7750000Y-5500000D02*
X10800000Y-5500000D01*
%TA.AperFunction,Conductor*%
G36*
X9609527Y-528502D02*
G01*
X9656020Y-582158D01*
X9666124Y-652432D01*
X9636630Y-717012D01*
X9630503Y-723593D01*
X9114358Y-1239737D01*
X8607747Y-1746348D01*
X8599461Y-1753888D01*
X8592982Y-1758000D01*
X8587557Y-1763777D01*
X8546357Y-1807651D01*
X8543602Y-1810493D01*
X8523865Y-1830230D01*
X8521385Y-1833427D01*
X8513682Y-1842447D01*
X8483414Y-1874679D01*
X8479595Y-1881625D01*
X8479593Y-1881628D01*
X8473652Y-1892434D01*
X8462801Y-1908953D01*
X8450386Y-1924959D01*
X8447241Y-1932228D01*
X8447238Y-1932232D01*
X8432826Y-1965537D01*
X8427609Y-1976187D01*
X8406305Y-2014940D01*
X8404334Y-2022615D01*
X8404334Y-2022616D01*
X8401267Y-2034562D01*
X8394863Y-2053266D01*
X8391933Y-2060038D01*
X8386819Y-2071855D01*
X8385580Y-2079678D01*
X8385577Y-2079688D01*
X8379901Y-2115524D01*
X8377495Y-2127144D01*
X8366500Y-2169970D01*
X8366500Y-2190224D01*
X8364949Y-2209934D01*
X8361780Y-2229943D01*
X8362526Y-2237835D01*
X8365941Y-2273961D01*
X8366500Y-2285819D01*
X8366500Y-4240500D01*
X8346498Y-4308621D01*
X8292842Y-4355114D01*
X8240500Y-4366500D01*
X6828768Y-4366500D01*
X6817585Y-4365973D01*
X6810092Y-4364298D01*
X6802166Y-4364547D01*
X6802165Y-4364547D01*
X6742002Y-4366438D01*
X6738044Y-4366500D01*
X6710144Y-4366500D01*
X6706154Y-4367004D01*
X6694320Y-4367936D01*
X6650111Y-4369326D01*
X6642495Y-4371539D01*
X6642493Y-4371539D01*
X6630652Y-4374979D01*
X6611293Y-4378988D01*
X6609983Y-4379154D01*
X6591203Y-4381526D01*
X6583837Y-4384442D01*
X6583831Y-4384444D01*
X6550098Y-4397800D01*
X6538868Y-4401645D01*
X6504017Y-4411770D01*
X6496407Y-4413981D01*
X6489584Y-4418016D01*
X6478966Y-4424295D01*
X6461213Y-4432992D01*
X6453568Y-4436019D01*
X6442383Y-4440448D01*
X6435968Y-4445109D01*
X6406612Y-4466437D01*
X6396695Y-4472951D01*
X6358638Y-4495458D01*
X6344317Y-4509779D01*
X6329284Y-4522619D01*
X6312893Y-4534528D01*
X6307842Y-4540634D01*
X6284702Y-4568605D01*
X6276712Y-4577384D01*
X4107747Y-6746348D01*
X4099461Y-6753888D01*
X4092982Y-6758000D01*
X4087557Y-6763777D01*
X4046357Y-6807651D01*
X4043602Y-6810493D01*
X4023865Y-6830230D01*
X4021385Y-6833427D01*
X4013682Y-6842447D01*
X3983414Y-6874679D01*
X3979595Y-6881625D01*
X3979593Y-6881628D01*
X3973652Y-6892434D01*
X3962801Y-6908953D01*
X3950386Y-6924959D01*
X3947241Y-6932228D01*
X3947238Y-6932232D01*
X3932826Y-6965537D01*
X3927609Y-6976187D01*
X3906305Y-7014940D01*
X3902392Y-7030182D01*
X3901267Y-7034562D01*
X3894863Y-7053266D01*
X3886819Y-7071855D01*
X3885580Y-7079678D01*
X3885577Y-7079688D01*
X3879901Y-7115524D01*
X3877495Y-7127144D01*
X3871938Y-7148789D01*
X3866500Y-7169970D01*
X3866500Y-7190224D01*
X3864949Y-7209934D01*
X3861780Y-7229943D01*
X3862526Y-7237835D01*
X3865941Y-7273961D01*
X3866500Y-7285819D01*
X3866500Y-8037462D01*
X3846498Y-8105583D01*
X3792842Y-8152076D01*
X3780376Y-8156986D01*
X3725099Y-8175428D01*
X3701054Y-8183450D01*
X3550652Y-8276522D01*
X3425695Y-8401697D01*
X3421855Y-8407927D01*
X3421854Y-8407928D01*
X3337816Y-8544263D01*
X3332885Y-8552262D01*
X3277203Y-8720139D01*
X3276503Y-8726975D01*
X3276502Y-8726978D01*
X3273331Y-8757928D01*
X3266500Y-8824600D01*
X3266500Y-9600400D01*
X3266837Y-9603646D01*
X3266837Y-9603650D01*
X3273933Y-9672035D01*
X3277474Y-9706166D01*
X3333450Y-9873946D01*
X3426522Y-10024348D01*
X3551697Y-10149305D01*
X3556235Y-10152102D01*
X3596824Y-10209353D01*
X3600054Y-10280276D01*
X3564428Y-10341687D01*
X3555932Y-10349062D01*
X3545793Y-10357098D01*
X3431261Y-10471829D01*
X3422249Y-10483240D01*
X3337184Y-10621243D01*
X3331037Y-10634424D01*
X3279862Y-10788710D01*
X3276995Y-10802086D01*
X3267328Y-10896438D01*
X3267000Y-10902855D01*
X3267000Y-11015385D01*
X3271475Y-11030624D01*
X3272865Y-11031829D01*
X3280548Y-11033500D01*
X5233885Y-11033500D01*
X5262407Y-11025125D01*
X5299784Y-11001104D01*
X5335283Y-10996000D01*
X7665521Y-10996000D01*
X7733642Y-11016002D01*
X7748034Y-11026776D01*
X7753865Y-11031829D01*
X7761548Y-11033500D01*
X9714884Y-11033500D01*
X9730123Y-11029025D01*
X9731328Y-11027635D01*
X9732999Y-11019952D01*
X9732999Y-10902905D01*
X9732662Y-10896386D01*
X9722743Y-10800794D01*
X9719851Y-10787400D01*
X9668412Y-10633216D01*
X9662239Y-10620038D01*
X9576937Y-10482193D01*
X9567901Y-10470792D01*
X9453172Y-10356262D01*
X9444238Y-10349206D01*
X9403177Y-10291288D01*
X9399947Y-10220365D01*
X9435574Y-10158954D01*
X9443407Y-10152154D01*
X9449348Y-10148478D01*
X9574305Y-10023303D01*
X9578146Y-10017072D01*
X9663275Y-9878968D01*
X9663276Y-9878966D01*
X9667115Y-9872738D01*
X9722797Y-9704861D01*
X9733500Y-9600400D01*
X9733500Y-8824600D01*
X9733163Y-8821350D01*
X9723238Y-8725692D01*
X9723237Y-8725688D01*
X9722526Y-8718834D01*
X9706701Y-8671399D01*
X9668868Y-8558002D01*
X9666550Y-8551054D01*
X9573478Y-8400652D01*
X9448303Y-8275695D01*
X9419008Y-8257637D01*
X9303968Y-8186725D01*
X9303966Y-8186724D01*
X9297738Y-8182885D01*
X9233544Y-8161593D01*
X9219833Y-8157045D01*
X9161473Y-8116614D01*
X9134236Y-8051050D01*
X9133500Y-8037452D01*
X9133500Y-7064594D01*
X9153502Y-6996473D01*
X9170405Y-6975499D01*
X9475499Y-6670405D01*
X9537811Y-6636379D01*
X9564594Y-6633500D01*
X9756166Y-6633500D01*
X9824287Y-6653502D01*
X9870780Y-6707158D01*
X9881088Y-6775946D01*
X9877783Y-6801054D01*
X9866500Y-6886756D01*
X9866500Y-7113244D01*
X9881519Y-7227324D01*
X9884678Y-7234951D01*
X9884679Y-7234954D01*
X9903286Y-7279875D01*
X9940314Y-7369268D01*
X10033843Y-7491157D01*
X10040393Y-7496183D01*
X10040394Y-7496184D01*
X10040771Y-7496473D01*
X10155733Y-7584686D01*
X10297676Y-7643481D01*
X10368847Y-7652851D01*
X10407669Y-7657962D01*
X10407670Y-7657962D01*
X10411756Y-7658500D01*
X10715500Y-7658500D01*
X10783621Y-7678502D01*
X10830114Y-7732158D01*
X10841500Y-7784500D01*
X10841500Y-8088244D01*
X10847578Y-8134411D01*
X10855424Y-8194005D01*
X10856519Y-8202324D01*
X10859678Y-8209949D01*
X10861817Y-8217934D01*
X10859930Y-8218440D01*
X10866500Y-8251485D01*
X10866500Y-9208733D01*
X10865973Y-9219916D01*
X10864298Y-9227409D01*
X10864547Y-9235335D01*
X10864547Y-9235336D01*
X10866438Y-9295486D01*
X10866500Y-9299445D01*
X10866500Y-9327356D01*
X10866997Y-9331290D01*
X10866997Y-9331291D01*
X10867005Y-9331356D01*
X10867938Y-9343193D01*
X10869327Y-9387389D01*
X10872751Y-9399173D01*
X10874978Y-9406839D01*
X10878987Y-9426200D01*
X10881526Y-9446297D01*
X10884445Y-9453668D01*
X10884445Y-9453670D01*
X10897804Y-9487412D01*
X10901649Y-9498642D01*
X10913982Y-9541093D01*
X10918015Y-9547912D01*
X10918017Y-9547917D01*
X10924293Y-9558528D01*
X10932988Y-9576276D01*
X10940448Y-9595117D01*
X10945110Y-9601533D01*
X10945110Y-9601534D01*
X10966436Y-9630887D01*
X10972952Y-9640807D01*
X10995458Y-9678862D01*
X11009779Y-9693183D01*
X11022620Y-9708217D01*
X11034528Y-9724607D01*
X11032666Y-9725960D01*
X11059467Y-9778933D01*
X11052180Y-9849554D01*
X11007869Y-9905025D01*
X10968175Y-9923542D01*
X10967565Y-9923705D01*
X10961870Y-9924684D01*
X10770734Y-9995198D01*
X10765773Y-9998150D01*
X10765772Y-9998150D01*
X10756528Y-10003650D01*
X10595649Y-10099363D01*
X10442478Y-10233690D01*
X10438911Y-10238215D01*
X10438906Y-10238220D01*
X10391940Y-10297797D01*
X10316351Y-10393681D01*
X10313662Y-10398792D01*
X10313660Y-10398795D01*
X10269232Y-10483240D01*
X10221492Y-10573978D01*
X10161078Y-10768543D01*
X10137132Y-10970859D01*
X10150457Y-11174151D01*
X10200605Y-11371610D01*
X10285898Y-11556624D01*
X10403479Y-11722997D01*
X10407613Y-11727024D01*
X10540146Y-11856132D01*
X10549410Y-11865157D01*
X10554206Y-11868362D01*
X10554209Y-11868364D01*
X10692264Y-11960609D01*
X10718803Y-11978342D01*
X10724106Y-11980620D01*
X10724109Y-11980622D01*
X10828663Y-12025542D01*
X10905987Y-12058763D01*
X10957765Y-12070479D01*
X11099055Y-12102450D01*
X11099060Y-12102451D01*
X11104692Y-12103725D01*
X11110463Y-12103952D01*
X11110465Y-12103952D01*
X11173470Y-12106427D01*
X11308263Y-12111723D01*
X11509883Y-12082490D01*
X11515347Y-12080635D01*
X11515352Y-12080634D01*
X11697327Y-12018862D01*
X11697332Y-12018860D01*
X11702799Y-12017004D01*
X11880551Y-11917458D01*
X12037186Y-11787186D01*
X12164182Y-11634490D01*
X12225905Y-11594062D01*
X12245979Y-11588230D01*
X12253593Y-11586018D01*
X12260412Y-11581985D01*
X12260417Y-11581983D01*
X12271028Y-11575707D01*
X12288776Y-11567012D01*
X12307617Y-11559552D01*
X12318867Y-11551379D01*
X12343387Y-11533564D01*
X12353307Y-11527048D01*
X12391362Y-11504542D01*
X12392336Y-11506188D01*
X12448871Y-11483993D01*
X12460008Y-11483500D01*
X12850400Y-11483500D01*
X12853646Y-11483163D01*
X12853650Y-11483163D01*
X12949308Y-11473238D01*
X12949312Y-11473237D01*
X12956166Y-11472526D01*
X12962702Y-11470345D01*
X12962704Y-11470345D01*
X13116998Y-11418868D01*
X13123946Y-11416550D01*
X13274348Y-11323478D01*
X13399305Y-11198303D01*
X13402102Y-11193765D01*
X13459353Y-11153176D01*
X13530276Y-11149946D01*
X13591687Y-11185572D01*
X13599062Y-11194068D01*
X13607098Y-11204207D01*
X13721829Y-11318739D01*
X13733240Y-11327751D01*
X13871243Y-11412816D01*
X13884424Y-11418963D01*
X14038710Y-11470138D01*
X14052086Y-11473005D01*
X14146438Y-11482672D01*
X14152854Y-11483000D01*
X14265385Y-11483000D01*
X14280624Y-11478525D01*
X14281829Y-11477135D01*
X14283500Y-11469452D01*
X14283500Y-11464884D01*
X14791500Y-11464884D01*
X14795975Y-11480123D01*
X14797365Y-11481328D01*
X14805048Y-11482999D01*
X14922095Y-11482999D01*
X14928614Y-11482662D01*
X15024206Y-11472743D01*
X15037600Y-11469851D01*
X15191784Y-11418412D01*
X15204962Y-11412239D01*
X15342807Y-11326937D01*
X15354208Y-11317901D01*
X15468739Y-11203171D01*
X15477751Y-11191760D01*
X15562816Y-11053757D01*
X15568963Y-11040576D01*
X15620138Y-10886290D01*
X15623005Y-10872914D01*
X15632672Y-10778562D01*
X15633000Y-10772146D01*
X15633000Y-10522115D01*
X15628525Y-10506876D01*
X15627135Y-10505671D01*
X15619452Y-10504000D01*
X14809615Y-10504000D01*
X14794376Y-10508475D01*
X14793171Y-10509865D01*
X14791500Y-10517548D01*
X14791500Y-11464884D01*
X14283500Y-11464884D01*
X14283500Y-9035116D01*
X14279025Y-9019877D01*
X14277635Y-9018672D01*
X14269952Y-9017001D01*
X14152905Y-9017001D01*
X14146386Y-9017338D01*
X14050794Y-9027257D01*
X14037400Y-9030149D01*
X13883216Y-9081588D01*
X13870038Y-9087761D01*
X13732193Y-9173063D01*
X13720792Y-9182099D01*
X13606262Y-9296828D01*
X13599206Y-9305762D01*
X13541288Y-9346823D01*
X13470365Y-9350053D01*
X13408954Y-9314426D01*
X13402154Y-9306593D01*
X13398478Y-9300652D01*
X13387271Y-9289464D01*
X13278483Y-9180866D01*
X13273303Y-9175695D01*
X13267072Y-9171854D01*
X13128968Y-9086725D01*
X13128966Y-9086724D01*
X13122738Y-9082885D01*
X12989554Y-9038710D01*
X12961389Y-9029368D01*
X12961387Y-9029368D01*
X12954861Y-9027203D01*
X12948025Y-9026503D01*
X12948022Y-9026502D01*
X12904969Y-9022091D01*
X12850400Y-9016500D01*
X12259500Y-9016500D01*
X12191379Y-8996498D01*
X12144886Y-8942842D01*
X12133500Y-8890500D01*
X12133500Y-8743834D01*
X12153502Y-8675713D01*
X12207158Y-8629220D01*
X12275946Y-8618912D01*
X12382669Y-8632962D01*
X12382670Y-8632962D01*
X12386756Y-8633500D01*
X12613244Y-8633500D01*
X12617330Y-8632962D01*
X12617331Y-8632962D01*
X12727324Y-8618481D01*
X12727527Y-8620026D01*
X12772473Y-8620026D01*
X12772676Y-8618481D01*
X12882669Y-8632962D01*
X12882670Y-8632962D01*
X12886756Y-8633500D01*
X13113244Y-8633500D01*
X13117330Y-8632962D01*
X13117331Y-8632962D01*
X13227324Y-8618481D01*
X13227527Y-8620026D01*
X13272473Y-8620026D01*
X13272676Y-8618481D01*
X13382669Y-8632962D01*
X13382670Y-8632962D01*
X13386756Y-8633500D01*
X13613244Y-8633500D01*
X13617330Y-8632962D01*
X13617331Y-8632962D01*
X13727324Y-8618481D01*
X13727493Y-8619766D01*
X13772573Y-8619765D01*
X13772806Y-8617994D01*
X13832040Y-8625792D01*
X13846222Y-8623581D01*
X13851783Y-8604216D01*
X13889811Y-8544263D01*
X13896184Y-8539033D01*
X13947296Y-8499813D01*
X14013516Y-8474212D01*
X14083065Y-8488476D01*
X14133861Y-8538077D01*
X14150000Y-8599775D01*
X14150000Y-8610042D01*
X14154044Y-8623813D01*
X14167583Y-8625842D01*
X14219005Y-8619072D01*
X14234825Y-8614833D01*
X14361386Y-8562410D01*
X14375569Y-8554221D01*
X14484248Y-8470829D01*
X14495828Y-8459250D01*
X14579223Y-8350566D01*
X14587410Y-8336385D01*
X14639833Y-8209825D01*
X14644072Y-8194005D01*
X14657462Y-8092300D01*
X14658000Y-8084092D01*
X14658000Y-7868114D01*
X14643872Y-7819997D01*
X14643872Y-7749001D01*
X14682256Y-7689275D01*
X14746837Y-7659782D01*
X14764768Y-7658500D01*
X15088244Y-7658500D01*
X15092330Y-7657962D01*
X15092331Y-7657962D01*
X15131153Y-7652851D01*
X15202324Y-7643481D01*
X15209951Y-7640322D01*
X15209954Y-7640321D01*
X15279422Y-7611546D01*
X15344268Y-7584686D01*
X15466157Y-7491157D01*
X15471184Y-7484606D01*
X15540537Y-7394223D01*
X15597875Y-7352356D01*
X15668746Y-7348134D01*
X15730649Y-7382898D01*
X15763930Y-7445611D01*
X15766500Y-7470927D01*
X15766500Y-7850400D01*
X15766837Y-7853646D01*
X15766837Y-7853650D01*
X15773689Y-7919684D01*
X15777474Y-7956166D01*
X15779655Y-7962702D01*
X15779655Y-7962704D01*
X15804965Y-8038567D01*
X15833450Y-8123946D01*
X15926522Y-8274348D01*
X15931704Y-8279521D01*
X15978022Y-8325758D01*
X16051697Y-8399305D01*
X16056235Y-8402102D01*
X16096824Y-8459353D01*
X16100054Y-8530276D01*
X16064428Y-8591687D01*
X16055932Y-8599062D01*
X16045793Y-8607098D01*
X15931261Y-8721829D01*
X15922249Y-8733240D01*
X15837184Y-8871243D01*
X15831037Y-8884424D01*
X15779862Y-9038710D01*
X15776995Y-9052086D01*
X15767328Y-9146438D01*
X15767000Y-9152855D01*
X15767000Y-9332870D01*
X15746998Y-9400991D01*
X15693342Y-9447484D01*
X15623068Y-9457588D01*
X15558488Y-9428094D01*
X15533856Y-9399173D01*
X15476937Y-9307193D01*
X15467901Y-9295792D01*
X15353171Y-9181261D01*
X15341760Y-9172249D01*
X15203757Y-9087184D01*
X15190576Y-9081037D01*
X15036290Y-9029862D01*
X15022914Y-9026995D01*
X14928562Y-9017328D01*
X14922145Y-9017000D01*
X14809615Y-9017000D01*
X14794376Y-9021475D01*
X14793171Y-9022865D01*
X14791500Y-9030548D01*
X14791500Y-9977885D01*
X14795975Y-9993124D01*
X14797365Y-9994329D01*
X14805048Y-9996000D01*
X15614885Y-9996000D01*
X15636192Y-9989744D01*
X15707188Y-9989744D01*
X15766914Y-10028128D01*
X15791213Y-10070764D01*
X15831588Y-10191784D01*
X15837761Y-10204962D01*
X15923063Y-10342807D01*
X15932099Y-10354208D01*
X16046829Y-10468739D01*
X16058240Y-10477751D01*
X16196243Y-10562816D01*
X16209424Y-10568963D01*
X16363710Y-10620138D01*
X16377086Y-10623005D01*
X16471438Y-10632672D01*
X16477854Y-10633000D01*
X16727885Y-10633000D01*
X16743124Y-10628525D01*
X16744329Y-10627135D01*
X16746000Y-10619452D01*
X16746000Y-10614884D01*
X17254000Y-10614884D01*
X17258475Y-10630123D01*
X17259865Y-10631328D01*
X17267548Y-10632999D01*
X17522095Y-10632999D01*
X17528614Y-10632662D01*
X17624206Y-10622743D01*
X17637600Y-10619851D01*
X17791784Y-10568412D01*
X17804962Y-10562239D01*
X17942807Y-10476937D01*
X17954208Y-10467901D01*
X18068739Y-10353171D01*
X18077751Y-10341760D01*
X18162816Y-10203757D01*
X18168963Y-10190576D01*
X18220138Y-10036290D01*
X18223005Y-10022914D01*
X18232672Y-9928562D01*
X18233000Y-9922146D01*
X18233000Y-9809615D01*
X18228525Y-9794376D01*
X18227135Y-9793171D01*
X18219452Y-9791500D01*
X17272115Y-9791500D01*
X17256876Y-9795975D01*
X17255671Y-9797365D01*
X17254000Y-9805048D01*
X17254000Y-10614884D01*
X16746000Y-10614884D01*
X16746000Y-9409500D01*
X16766002Y-9341379D01*
X16819658Y-9294886D01*
X16872000Y-9283500D01*
X18214884Y-9283500D01*
X18230123Y-9279025D01*
X18231328Y-9277635D01*
X18232999Y-9269952D01*
X18232999Y-9152905D01*
X18232662Y-9146386D01*
X18222743Y-9050794D01*
X18219851Y-9037400D01*
X18168412Y-8883216D01*
X18162239Y-8870038D01*
X18076937Y-8732193D01*
X18067901Y-8720792D01*
X17953172Y-8606262D01*
X17944238Y-8599206D01*
X17903177Y-8541288D01*
X17899947Y-8470365D01*
X17935574Y-8408954D01*
X17943407Y-8402154D01*
X17949348Y-8398478D01*
X17971992Y-8375795D01*
X18069134Y-8278483D01*
X18074305Y-8273303D01*
X18078395Y-8266668D01*
X18163275Y-8128968D01*
X18163276Y-8128966D01*
X18167115Y-8122738D01*
X18213062Y-7984212D01*
X18220632Y-7961389D01*
X18220632Y-7961387D01*
X18222797Y-7954861D01*
X18225458Y-7928895D01*
X18231685Y-7868114D01*
X18233500Y-7850400D01*
X18233500Y-7074600D01*
X18232462Y-7064594D01*
X18223238Y-6975692D01*
X18223237Y-6975688D01*
X18222526Y-6968834D01*
X18175349Y-6827426D01*
X18171754Y-6816652D01*
X18169170Y-6745703D01*
X18205353Y-6684619D01*
X18268818Y-6652794D01*
X18330944Y-6657183D01*
X18357208Y-6665894D01*
X18357210Y-6665894D01*
X18363739Y-6668060D01*
X18370575Y-6668760D01*
X18370578Y-6668761D01*
X18413631Y-6673172D01*
X18468200Y-6678763D01*
X19129006Y-6678763D01*
X19197127Y-6698765D01*
X19218101Y-6715668D01*
X19613795Y-7111362D01*
X19647821Y-7173674D01*
X19649827Y-7215265D01*
X19637132Y-7322522D01*
X19650457Y-7525814D01*
X19700605Y-7723273D01*
X19785898Y-7908287D01*
X19903479Y-8074660D01*
X19954072Y-8123946D01*
X20038440Y-8206133D01*
X20049410Y-8216820D01*
X20060500Y-8224230D01*
X20106028Y-8278705D01*
X20116500Y-8328996D01*
X20116500Y-8340971D01*
X20096498Y-8409092D01*
X20042842Y-8455585D01*
X19999567Y-8466177D01*
X19999600Y-8466500D01*
X19997255Y-8466743D01*
X19997253Y-8466744D01*
X19996354Y-8466837D01*
X19996350Y-8466837D01*
X19900692Y-8476762D01*
X19900688Y-8476763D01*
X19893834Y-8477474D01*
X19887298Y-8479655D01*
X19887296Y-8479655D01*
X19796363Y-8509993D01*
X19726054Y-8533450D01*
X19575652Y-8626522D01*
X19450695Y-8751697D01*
X19446855Y-8757927D01*
X19446854Y-8757928D01*
X19368881Y-8884424D01*
X19357885Y-8902262D01*
X19355581Y-8909209D01*
X19313820Y-9035116D01*
X19302203Y-9070139D01*
X19301503Y-9076975D01*
X19301502Y-9076978D01*
X19300397Y-9087761D01*
X19291500Y-9174600D01*
X19291500Y-10000400D01*
X19291837Y-10003646D01*
X19291837Y-10003650D01*
X19301462Y-10096409D01*
X19302474Y-10106166D01*
X19304655Y-10112702D01*
X19304655Y-10112704D01*
X19333272Y-10198478D01*
X19358450Y-10273946D01*
X19451522Y-10424348D01*
X19576697Y-10549305D01*
X19582927Y-10553145D01*
X19582928Y-10553146D01*
X19720090Y-10637694D01*
X19727262Y-10642115D01*
X19756531Y-10651823D01*
X19888611Y-10695632D01*
X19888613Y-10695632D01*
X19895139Y-10697797D01*
X19901975Y-10698497D01*
X19901978Y-10698498D01*
X19940630Y-10702458D01*
X19999600Y-10708500D01*
X21500400Y-10708500D01*
X21503646Y-10708163D01*
X21503650Y-10708163D01*
X21599308Y-10698238D01*
X21599312Y-10698237D01*
X21606166Y-10697526D01*
X21612702Y-10695345D01*
X21612704Y-10695345D01*
X21744806Y-10651272D01*
X21773946Y-10641550D01*
X21924348Y-10548478D01*
X22049305Y-10423303D01*
X22113735Y-10318779D01*
X22138275Y-10278968D01*
X22138276Y-10278966D01*
X22142115Y-10272738D01*
X22179855Y-10158954D01*
X22195632Y-10111389D01*
X22195632Y-10111387D01*
X22197797Y-10104861D01*
X22208500Y-10000400D01*
X22208500Y-9174600D01*
X22203010Y-9121685D01*
X22198238Y-9075692D01*
X22198237Y-9075688D01*
X22197526Y-9068834D01*
X22191939Y-9052086D01*
X22143868Y-8908002D01*
X22141550Y-8901054D01*
X22048478Y-8750652D01*
X22016605Y-8718834D01*
X21928483Y-8630866D01*
X21923303Y-8625695D01*
X21914106Y-8620026D01*
X21778968Y-8536725D01*
X21778966Y-8536724D01*
X21772738Y-8532885D01*
X21692995Y-8506436D01*
X21611389Y-8479368D01*
X21611387Y-8479368D01*
X21604861Y-8477203D01*
X21598025Y-8476503D01*
X21598022Y-8476502D01*
X21503594Y-8466827D01*
X21503589Y-8466827D01*
X21500400Y-8466500D01*
X21500463Y-8465886D01*
X21436066Y-8443354D01*
X21392368Y-8387398D01*
X21383500Y-8340965D01*
X21383500Y-8325758D01*
X21403502Y-8257637D01*
X21428931Y-8228884D01*
X21532748Y-8142540D01*
X21537186Y-8138849D01*
X21667458Y-7982214D01*
X21680924Y-7958169D01*
X21731658Y-7908510D01*
X21801190Y-7894162D01*
X21867440Y-7919684D01*
X21909376Y-7976972D01*
X21911732Y-7984212D01*
X21911770Y-7984299D01*
X21913982Y-7991914D01*
X21918015Y-7998733D01*
X21918017Y-7998738D01*
X21924293Y-8009349D01*
X21932988Y-8027097D01*
X21940448Y-8045938D01*
X21945110Y-8052354D01*
X21945110Y-8052355D01*
X21966436Y-8081708D01*
X21972952Y-8091628D01*
X21991351Y-8122738D01*
X21995458Y-8129683D01*
X22009779Y-8144004D01*
X22022619Y-8159037D01*
X22034528Y-8175428D01*
X22059734Y-8196280D01*
X22068605Y-8203619D01*
X22077384Y-8211609D01*
X22925148Y-9059373D01*
X22959174Y-9121685D01*
X22957470Y-9182139D01*
X22936359Y-9258261D01*
X22935811Y-9263391D01*
X22935810Y-9263395D01*
X22927476Y-9341379D01*
X22912621Y-9480386D01*
X22912918Y-9485539D01*
X22912918Y-9485542D01*
X22919355Y-9597183D01*
X22925480Y-9703406D01*
X22926617Y-9708452D01*
X22926618Y-9708458D01*
X22942501Y-9778933D01*
X22974592Y-9921330D01*
X23021272Y-10036290D01*
X23049646Y-10106166D01*
X23058636Y-10128307D01*
X23104872Y-10203757D01*
X23158511Y-10291288D01*
X23175357Y-10318779D01*
X23321620Y-10487629D01*
X23493496Y-10630323D01*
X23512709Y-10641550D01*
X23566815Y-10673167D01*
X23615539Y-10724805D01*
X23628610Y-10794588D01*
X23601879Y-10860360D01*
X23561425Y-10893718D01*
X23548977Y-10900198D01*
X23544844Y-10903301D01*
X23544841Y-10903303D01*
X23374470Y-11031221D01*
X23370335Y-11034326D01*
X23366763Y-11038064D01*
X23231362Y-11179753D01*
X23215999Y-11195829D01*
X23213085Y-11200101D01*
X23213084Y-11200102D01*
X23210776Y-11203486D01*
X23090113Y-11380371D01*
X23072199Y-11418963D01*
X23001785Y-11570659D01*
X22996058Y-11582996D01*
X22936359Y-11798261D01*
X22912621Y-12020386D01*
X22912918Y-12025539D01*
X22912918Y-12025542D01*
X22924530Y-12226934D01*
X22925480Y-12243406D01*
X22926617Y-12248452D01*
X22926618Y-12248458D01*
X22947241Y-12339965D01*
X22974592Y-12461330D01*
X23058636Y-12668307D01*
X23078483Y-12700695D01*
X23159516Y-12832928D01*
X23175357Y-12858779D01*
X23321620Y-13027629D01*
X23493496Y-13170323D01*
X23530289Y-13191823D01*
X23566815Y-13213167D01*
X23615539Y-13264805D01*
X23628610Y-13334588D01*
X23601879Y-13400360D01*
X23561425Y-13433718D01*
X23548977Y-13440198D01*
X23544844Y-13443301D01*
X23544841Y-13443303D01*
X23377612Y-13568862D01*
X23370335Y-13574326D01*
X23215999Y-13735829D01*
X23213085Y-13740101D01*
X23213084Y-13740102D01*
X23160628Y-13817000D01*
X23090113Y-13920371D01*
X23066032Y-13972249D01*
X23005945Y-14101697D01*
X22996058Y-14122996D01*
X22936359Y-14338261D01*
X22912621Y-14560386D01*
X22912918Y-14565539D01*
X22912918Y-14565542D01*
X22924962Y-14774422D01*
X22925480Y-14783406D01*
X22926617Y-14788452D01*
X22926618Y-14788458D01*
X22939265Y-14844576D01*
X22974592Y-15001330D01*
X23058636Y-15208307D01*
X23175357Y-15398779D01*
X23321620Y-15567629D01*
X23443360Y-15668699D01*
X23488128Y-15705866D01*
X23493496Y-15710323D01*
X23502419Y-15715537D01*
X23566815Y-15753167D01*
X23615539Y-15804805D01*
X23628610Y-15874588D01*
X23601879Y-15940360D01*
X23561425Y-15973718D01*
X23548977Y-15980198D01*
X23544844Y-15983301D01*
X23544841Y-15983303D01*
X23377832Y-16108697D01*
X23370335Y-16114326D01*
X23215999Y-16275829D01*
X23090113Y-16460371D01*
X23057050Y-16531600D01*
X22998562Y-16657602D01*
X22996058Y-16662996D01*
X22936359Y-16878261D01*
X22912621Y-17100386D01*
X22912918Y-17105539D01*
X22912918Y-17105542D01*
X22921904Y-17261384D01*
X22925480Y-17323406D01*
X22926617Y-17328452D01*
X22926618Y-17328458D01*
X22937254Y-17375652D01*
X22974592Y-17541330D01*
X23013766Y-17637804D01*
X23038739Y-17699305D01*
X23058636Y-17748307D01*
X23175357Y-17938779D01*
X23321620Y-18107629D01*
X23493496Y-18250323D01*
X23512998Y-18261719D01*
X23566815Y-18293167D01*
X23615539Y-18344805D01*
X23628610Y-18414588D01*
X23601879Y-18480360D01*
X23561425Y-18513718D01*
X23548977Y-18520198D01*
X23544844Y-18523301D01*
X23544841Y-18523303D01*
X23374470Y-18651221D01*
X23370335Y-18654326D01*
X23215999Y-18815829D01*
X23090113Y-19000371D01*
X22996058Y-19202996D01*
X22936359Y-19418261D01*
X22912621Y-19640386D01*
X22912918Y-19645539D01*
X22912918Y-19645542D01*
X22924564Y-19847526D01*
X22925480Y-19863406D01*
X22926617Y-19868452D01*
X22926618Y-19868458D01*
X22938182Y-19919770D01*
X22974592Y-20081330D01*
X23058636Y-20288307D01*
X23175357Y-20478779D01*
X23321620Y-20647629D01*
X23493496Y-20790323D01*
X23530289Y-20811823D01*
X23566815Y-20833167D01*
X23615539Y-20884805D01*
X23628610Y-20954588D01*
X23601879Y-21020360D01*
X23561425Y-21053718D01*
X23548977Y-21060198D01*
X23544844Y-21063301D01*
X23544841Y-21063303D01*
X23374470Y-21191221D01*
X23370335Y-21194326D01*
X23215999Y-21355829D01*
X23090113Y-21540371D01*
X22996058Y-21742996D01*
X22936359Y-21958261D01*
X22912621Y-22180386D01*
X22925480Y-22403406D01*
X22926617Y-22408452D01*
X22926618Y-22408458D01*
X22950674Y-22515199D01*
X22974592Y-22621330D01*
X23058636Y-22828307D01*
X23175357Y-23018779D01*
X23321620Y-23187629D01*
X23493496Y-23330323D01*
X23555267Y-23366419D01*
X23566815Y-23373167D01*
X23615539Y-23424805D01*
X23628610Y-23494588D01*
X23601879Y-23560360D01*
X23561425Y-23593718D01*
X23548977Y-23600198D01*
X23544844Y-23603301D01*
X23544841Y-23603303D01*
X23374470Y-23731221D01*
X23370335Y-23734326D01*
X23215999Y-23895829D01*
X23213085Y-23900101D01*
X23213084Y-23900102D01*
X23179837Y-23948840D01*
X23090113Y-24080371D01*
X23048364Y-24170312D01*
X23021874Y-24227381D01*
X22996058Y-24282996D01*
X22936359Y-24498261D01*
X22912621Y-24720386D01*
X22925480Y-24943406D01*
X22926617Y-24948452D01*
X22926618Y-24948458D01*
X22950674Y-25055199D01*
X22974592Y-25161330D01*
X23058636Y-25368307D01*
X23175357Y-25558779D01*
X23321620Y-25727629D01*
X23493496Y-25870323D01*
X23512998Y-25881719D01*
X23566815Y-25913167D01*
X23615539Y-25964805D01*
X23628610Y-26034588D01*
X23601879Y-26100360D01*
X23561425Y-26133718D01*
X23548977Y-26140198D01*
X23544844Y-26143301D01*
X23544841Y-26143303D01*
X23374470Y-26271221D01*
X23370335Y-26274326D01*
X23215999Y-26435829D01*
X23090113Y-26620371D01*
X22996058Y-26822996D01*
X22936359Y-27038261D01*
X22912621Y-27260386D01*
X22912918Y-27265539D01*
X22912918Y-27265542D01*
X22918183Y-27356850D01*
X22925480Y-27483406D01*
X22926617Y-27488452D01*
X22926618Y-27488458D01*
X22944968Y-27569881D01*
X22974592Y-27701330D01*
X23058636Y-27908307D01*
X23175357Y-28098779D01*
X23321620Y-28267629D01*
X23493496Y-28410323D01*
X23512998Y-28421719D01*
X23566815Y-28453167D01*
X23615539Y-28504805D01*
X23628610Y-28574588D01*
X23601879Y-28640360D01*
X23561425Y-28673718D01*
X23548977Y-28680198D01*
X23544844Y-28683301D01*
X23544841Y-28683303D01*
X23374470Y-28811221D01*
X23370335Y-28814326D01*
X23215999Y-28975829D01*
X23090113Y-29160371D01*
X22996058Y-29362996D01*
X22936359Y-29578261D01*
X22912621Y-29800386D01*
X22912918Y-29805539D01*
X22912918Y-29805542D01*
X22918183Y-29896850D01*
X22925480Y-30023406D01*
X22926617Y-30028452D01*
X22926618Y-30028458D01*
X22944968Y-30109881D01*
X22974592Y-30241330D01*
X23058636Y-30448307D01*
X23175357Y-30638779D01*
X23321620Y-30807629D01*
X23325600Y-30810933D01*
X23330351Y-30814878D01*
X23369986Y-30873781D01*
X23371483Y-30944762D01*
X23334367Y-31005284D01*
X23294094Y-31029803D01*
X23178665Y-31073076D01*
X23062109Y-31160430D01*
X22974755Y-31276986D01*
X22923625Y-31413375D01*
X22916870Y-31475557D01*
X22916870Y-33271825D01*
X22923625Y-33334007D01*
X22974755Y-33470396D01*
X23062109Y-33586952D01*
X23178665Y-33674306D01*
X23315054Y-33725436D01*
X23377236Y-33732191D01*
X25115500Y-33732191D01*
X25183621Y-33752193D01*
X25230114Y-33805849D01*
X25241500Y-33858191D01*
X25241500Y-44115500D01*
X25221498Y-44183621D01*
X25167842Y-44230114D01*
X25115500Y-44241500D01*
X9429699Y-44241500D01*
X9361578Y-44221498D01*
X9315085Y-44167842D01*
X9304981Y-44097568D01*
X9310386Y-44074998D01*
X9330635Y-44015348D01*
X9330635Y-44015347D01*
X9332490Y-44009883D01*
X9361723Y-43808263D01*
X9363249Y-43750000D01*
X9344608Y-43547126D01*
X9289307Y-43351047D01*
X9278680Y-43329496D01*
X9268171Y-43308187D01*
X9255981Y-43238245D01*
X9283541Y-43172815D01*
X9331443Y-43136690D01*
X9342178Y-43132078D01*
X9342182Y-43132076D01*
X9347689Y-43129710D01*
X9352650Y-43126345D01*
X9513831Y-43017012D01*
X9513832Y-43017011D01*
X9518790Y-43013648D01*
X9660706Y-42871485D01*
X9722987Y-42837406D01*
X9793807Y-42842409D01*
X9838896Y-42871330D01*
X9840593Y-42873024D01*
X9982675Y-43014858D01*
X9987642Y-43018215D01*
X9987645Y-43018217D01*
X10129051Y-43113776D01*
X10153978Y-43130621D01*
X10159493Y-43132979D01*
X10338564Y-43209544D01*
X10338567Y-43209545D01*
X10344082Y-43211903D01*
X10349945Y-43213176D01*
X10541363Y-43254737D01*
X10541365Y-43254737D01*
X10546126Y-43255771D01*
X10562523Y-43256745D01*
X10590201Y-43258390D01*
X10590210Y-43258390D01*
X10592057Y-43258500D01*
X11233918Y-43258500D01*
X11907942Y-43258499D01*
X11909878Y-43258379D01*
X11909891Y-43258379D01*
X11950920Y-43255844D01*
X11955760Y-43255545D01*
X11960495Y-43254508D01*
X11960497Y-43254508D01*
X12054334Y-43233962D01*
X12157727Y-43211324D01*
X12347689Y-43129710D01*
X12352650Y-43126345D01*
X12513831Y-43017012D01*
X12513832Y-43017011D01*
X12518790Y-43013648D01*
X12660706Y-42871485D01*
X12722987Y-42837406D01*
X12793807Y-42842409D01*
X12838896Y-42871330D01*
X12840593Y-42873024D01*
X12982675Y-43014858D01*
X12987642Y-43018215D01*
X12987645Y-43018217D01*
X13129051Y-43113776D01*
X13153978Y-43130621D01*
X13159493Y-43132979D01*
X13338564Y-43209544D01*
X13338567Y-43209545D01*
X13344082Y-43211903D01*
X13349945Y-43213176D01*
X13541363Y-43254737D01*
X13541365Y-43254737D01*
X13546126Y-43255771D01*
X13562523Y-43256745D01*
X13590201Y-43258390D01*
X13590210Y-43258390D01*
X13592057Y-43258500D01*
X14233918Y-43258500D01*
X14907942Y-43258499D01*
X14909878Y-43258379D01*
X14909891Y-43258379D01*
X14950920Y-43255844D01*
X14955760Y-43255545D01*
X14960495Y-43254508D01*
X14960497Y-43254508D01*
X15054334Y-43233962D01*
X15157727Y-43211324D01*
X15347689Y-43129710D01*
X15352650Y-43126345D01*
X15513831Y-43017012D01*
X15513832Y-43017011D01*
X15518790Y-43013648D01*
X15660706Y-42871485D01*
X15722987Y-42837406D01*
X15793807Y-42842409D01*
X15838896Y-42871330D01*
X15840593Y-42873024D01*
X15982675Y-43014858D01*
X15987642Y-43018215D01*
X15987645Y-43018217D01*
X16129051Y-43113776D01*
X16153978Y-43130621D01*
X16159493Y-43132979D01*
X16338564Y-43209544D01*
X16338567Y-43209545D01*
X16344082Y-43211903D01*
X16349945Y-43213176D01*
X16541363Y-43254737D01*
X16541365Y-43254737D01*
X16546126Y-43255771D01*
X16562523Y-43256745D01*
X16590201Y-43258390D01*
X16590210Y-43258390D01*
X16592057Y-43258500D01*
X17233918Y-43258500D01*
X17907942Y-43258499D01*
X17909878Y-43258379D01*
X17909891Y-43258379D01*
X17950920Y-43255844D01*
X17955760Y-43255545D01*
X17960495Y-43254508D01*
X17960497Y-43254508D01*
X18054334Y-43233962D01*
X18157727Y-43211324D01*
X18347689Y-43129710D01*
X18352650Y-43126345D01*
X18513831Y-43017012D01*
X18513832Y-43017011D01*
X18518790Y-43013648D01*
X18659169Y-42873024D01*
X18661059Y-42871131D01*
X18723342Y-42837052D01*
X18794162Y-42842055D01*
X18839250Y-42870976D01*
X18978754Y-43010237D01*
X18987958Y-43017824D01*
X19149246Y-43126821D01*
X19159740Y-43132542D01*
X19338721Y-43209068D01*
X19350092Y-43212697D01*
X19541425Y-43254240D01*
X19551048Y-43255562D01*
X19590230Y-43257890D01*
X19593942Y-43258000D01*
X19977885Y-43258000D01*
X19993124Y-43253525D01*
X19994329Y-43252135D01*
X19996000Y-43244452D01*
X19996000Y-43239885D01*
X20504000Y-43239885D01*
X20508475Y-43255124D01*
X20509865Y-43256329D01*
X20517548Y-43258000D01*
X20905968Y-43258000D01*
X20909858Y-43257880D01*
X20950860Y-43255346D01*
X20960438Y-43254010D01*
X21151714Y-43212129D01*
X21163083Y-43208479D01*
X21341941Y-43131636D01*
X21352408Y-43125905D01*
X21513511Y-43016625D01*
X21522704Y-43009019D01*
X21660237Y-42871246D01*
X21667824Y-42862042D01*
X21776821Y-42700754D01*
X21782542Y-42690260D01*
X21859068Y-42511279D01*
X21862697Y-42499908D01*
X21904240Y-42308575D01*
X21905562Y-42298952D01*
X21907890Y-42259770D01*
X21908000Y-42256058D01*
X21908000Y-41522115D01*
X21903525Y-41506876D01*
X21902135Y-41505671D01*
X21894452Y-41504000D01*
X20522115Y-41504000D01*
X20506876Y-41508475D01*
X20505671Y-41509865D01*
X20504000Y-41517548D01*
X20504000Y-43239885D01*
X19996000Y-43239885D01*
X19996000Y-40977885D01*
X20504000Y-40977885D01*
X20508475Y-40993124D01*
X20509865Y-40994329D01*
X20517548Y-40996000D01*
X21889885Y-40996000D01*
X21905124Y-40991525D01*
X21906329Y-40990135D01*
X21908000Y-40982452D01*
X21908000Y-40244032D01*
X21907880Y-40240142D01*
X21905346Y-40199140D01*
X21904010Y-40189562D01*
X21862129Y-39998286D01*
X21858479Y-39986917D01*
X21781636Y-39808059D01*
X21775905Y-39797592D01*
X21666625Y-39636489D01*
X21659019Y-39627296D01*
X21521246Y-39489763D01*
X21512042Y-39482176D01*
X21350754Y-39373179D01*
X21340260Y-39367458D01*
X21161279Y-39290932D01*
X21149908Y-39287303D01*
X20958575Y-39245760D01*
X20948952Y-39244438D01*
X20909770Y-39242110D01*
X20906058Y-39242000D01*
X20522115Y-39242000D01*
X20506876Y-39246475D01*
X20505671Y-39247865D01*
X20504000Y-39255548D01*
X20504000Y-40977885D01*
X19996000Y-40977885D01*
X19996000Y-39260115D01*
X19991525Y-39244876D01*
X19990135Y-39243671D01*
X19982452Y-39242000D01*
X19594032Y-39242000D01*
X19590142Y-39242120D01*
X19549140Y-39244654D01*
X19539562Y-39245990D01*
X19348286Y-39287871D01*
X19336917Y-39291521D01*
X19158059Y-39368364D01*
X19147592Y-39374095D01*
X18986489Y-39483375D01*
X18977296Y-39490981D01*
X18839648Y-39628868D01*
X18777365Y-39662947D01*
X18706545Y-39657944D01*
X18661457Y-39629023D01*
X18661302Y-39628868D01*
X18517325Y-39485142D01*
X18512358Y-39481785D01*
X18512355Y-39481783D01*
X18353001Y-39374095D01*
X18346022Y-39369379D01*
X18326465Y-39361017D01*
X18161436Y-39290456D01*
X18161433Y-39290455D01*
X18155918Y-39288097D01*
X18027041Y-39260115D01*
X17958637Y-39245263D01*
X17958635Y-39245263D01*
X17953874Y-39244229D01*
X17937477Y-39243255D01*
X17909799Y-39241610D01*
X17909790Y-39241610D01*
X17907943Y-39241500D01*
X17266082Y-39241500D01*
X16592058Y-39241501D01*
X16590122Y-39241621D01*
X16590109Y-39241621D01*
X16549080Y-39244156D01*
X16544240Y-39244455D01*
X16539505Y-39245492D01*
X16539503Y-39245492D01*
X16472717Y-39260115D01*
X16342273Y-39288676D01*
X16152311Y-39370290D01*
X16147351Y-39373654D01*
X16147350Y-39373655D01*
X15987946Y-39481783D01*
X15981210Y-39486352D01*
X15840512Y-39627296D01*
X15839295Y-39628515D01*
X15777013Y-39662594D01*
X15706193Y-39657591D01*
X15661104Y-39628670D01*
X15523174Y-39490981D01*
X15517325Y-39485142D01*
X15512358Y-39481785D01*
X15512355Y-39481783D01*
X15353001Y-39374095D01*
X15346022Y-39369379D01*
X15326465Y-39361017D01*
X15161436Y-39290456D01*
X15161433Y-39290455D01*
X15155918Y-39288097D01*
X15027041Y-39260115D01*
X14958637Y-39245263D01*
X14958635Y-39245263D01*
X14953874Y-39244229D01*
X14937477Y-39243255D01*
X14909799Y-39241610D01*
X14909790Y-39241610D01*
X14907943Y-39241500D01*
X14266082Y-39241500D01*
X13592058Y-39241501D01*
X13590122Y-39241621D01*
X13590109Y-39241621D01*
X13549080Y-39244156D01*
X13544240Y-39244455D01*
X13539505Y-39245492D01*
X13539503Y-39245492D01*
X13472717Y-39260115D01*
X13342273Y-39288676D01*
X13152311Y-39370290D01*
X13147351Y-39373654D01*
X13147350Y-39373655D01*
X12987946Y-39481783D01*
X12981210Y-39486352D01*
X12840512Y-39627296D01*
X12839295Y-39628515D01*
X12777013Y-39662594D01*
X12706193Y-39657591D01*
X12661104Y-39628670D01*
X12523174Y-39490981D01*
X12517325Y-39485142D01*
X12512358Y-39481785D01*
X12512355Y-39481783D01*
X12353001Y-39374095D01*
X12346022Y-39369379D01*
X12326465Y-39361017D01*
X12161436Y-39290456D01*
X12161433Y-39290455D01*
X12155918Y-39288097D01*
X12027041Y-39260115D01*
X11958637Y-39245263D01*
X11958635Y-39245263D01*
X11953874Y-39244229D01*
X11937477Y-39243255D01*
X11909799Y-39241610D01*
X11909790Y-39241610D01*
X11907943Y-39241500D01*
X11266082Y-39241500D01*
X10592058Y-39241501D01*
X10590122Y-39241621D01*
X10590109Y-39241621D01*
X10549080Y-39244156D01*
X10544240Y-39244455D01*
X10539505Y-39245492D01*
X10539503Y-39245492D01*
X10472717Y-39260115D01*
X10342273Y-39288676D01*
X10152311Y-39370290D01*
X10147351Y-39373654D01*
X10147350Y-39373655D01*
X9987946Y-39481783D01*
X9981210Y-39486352D01*
X9840512Y-39627296D01*
X9839295Y-39628515D01*
X9777013Y-39662594D01*
X9706193Y-39657591D01*
X9661104Y-39628670D01*
X9523174Y-39490981D01*
X9517325Y-39485142D01*
X9512358Y-39481785D01*
X9512355Y-39481783D01*
X9353001Y-39374095D01*
X9346022Y-39369379D01*
X9326465Y-39361017D01*
X9161436Y-39290456D01*
X9161433Y-39290455D01*
X9155918Y-39288097D01*
X9027041Y-39260115D01*
X8958637Y-39245263D01*
X8958635Y-39245263D01*
X8953874Y-39244229D01*
X8937477Y-39243255D01*
X8909799Y-39241610D01*
X8909790Y-39241610D01*
X8907943Y-39241500D01*
X8266082Y-39241500D01*
X7592058Y-39241501D01*
X7590122Y-39241621D01*
X7590109Y-39241621D01*
X7549080Y-39244156D01*
X7544240Y-39244455D01*
X7539505Y-39245492D01*
X7539503Y-39245492D01*
X7472717Y-39260115D01*
X7342273Y-39288676D01*
X7152311Y-39370290D01*
X7147351Y-39373654D01*
X7147350Y-39373655D01*
X6987946Y-39481783D01*
X6981210Y-39486352D01*
X6840512Y-39627296D01*
X6839295Y-39628515D01*
X6777013Y-39662594D01*
X6706193Y-39657591D01*
X6661104Y-39628670D01*
X6523174Y-39490981D01*
X6517325Y-39485142D01*
X6512358Y-39481785D01*
X6512355Y-39481783D01*
X6353001Y-39374095D01*
X6346022Y-39369379D01*
X6326465Y-39361017D01*
X6161436Y-39290456D01*
X6161433Y-39290455D01*
X6155918Y-39288097D01*
X6027041Y-39260115D01*
X5958637Y-39245263D01*
X5958635Y-39245263D01*
X5953874Y-39244229D01*
X5937477Y-39243255D01*
X5909799Y-39241610D01*
X5909790Y-39241610D01*
X5907943Y-39241500D01*
X5266082Y-39241500D01*
X4592058Y-39241501D01*
X4590122Y-39241621D01*
X4590109Y-39241621D01*
X4549080Y-39244156D01*
X4544240Y-39244455D01*
X4539505Y-39245492D01*
X4539503Y-39245492D01*
X4472717Y-39260115D01*
X4342273Y-39288676D01*
X4152311Y-39370290D01*
X4147351Y-39373654D01*
X4147350Y-39373655D01*
X3987946Y-39481783D01*
X3981210Y-39486352D01*
X3835142Y-39632675D01*
X3831785Y-39637642D01*
X3831783Y-39637645D01*
X3814923Y-39662594D01*
X3719379Y-39803978D01*
X3717021Y-39809493D01*
X3641161Y-39986917D01*
X3638097Y-39994082D01*
X3594229Y-40196126D01*
X3591500Y-40242057D01*
X3591501Y-42257942D01*
X3594455Y-42305760D01*
X3638676Y-42507727D01*
X3720290Y-42697689D01*
X3723654Y-42702649D01*
X3723655Y-42702650D01*
X3831775Y-42862042D01*
X3836352Y-42868790D01*
X3982675Y-43014858D01*
X3987642Y-43018215D01*
X3987645Y-43018217D01*
X4129051Y-43113776D01*
X4153978Y-43130621D01*
X4159493Y-43132979D01*
X4338564Y-43209544D01*
X4338567Y-43209545D01*
X4344082Y-43211903D01*
X4349945Y-43213176D01*
X4541363Y-43254737D01*
X4541365Y-43254737D01*
X4546126Y-43255771D01*
X4562523Y-43256745D01*
X4590201Y-43258390D01*
X4590210Y-43258390D01*
X4592057Y-43258500D01*
X5233918Y-43258500D01*
X5907942Y-43258499D01*
X5909878Y-43258379D01*
X5909891Y-43258379D01*
X5950920Y-43255844D01*
X5955760Y-43255545D01*
X5960495Y-43254508D01*
X5960497Y-43254508D01*
X6054334Y-43233962D01*
X6157727Y-43211324D01*
X6347689Y-43129710D01*
X6352650Y-43126345D01*
X6513831Y-43017012D01*
X6513832Y-43017011D01*
X6518790Y-43013648D01*
X6660706Y-42871485D01*
X6722987Y-42837406D01*
X6793807Y-42842409D01*
X6838896Y-42871330D01*
X6840593Y-42873024D01*
X6982675Y-43014858D01*
X6987642Y-43018215D01*
X6987645Y-43018217D01*
X7129051Y-43113776D01*
X7153978Y-43130621D01*
X7166593Y-43136015D01*
X7221364Y-43181187D01*
X7243019Y-43248800D01*
X7228565Y-43310534D01*
X7221492Y-43323978D01*
X7161078Y-43518543D01*
X7137132Y-43720859D01*
X7150457Y-43924151D01*
X7151880Y-43929753D01*
X7191176Y-44084485D01*
X7188557Y-44155433D01*
X7147997Y-44213703D01*
X7082372Y-44240794D01*
X7069053Y-44241500D01*
X634500Y-44241500D01*
X566379Y-44221498D01*
X519886Y-44167842D01*
X508500Y-44115500D01*
X508500Y-35750000D01*
X10500000Y-35750000D01*
X16750000Y-35750000D01*
X16750000Y-29250000D01*
X10500000Y-29250000D01*
X10500000Y-35750000D01*
X508500Y-35750000D01*
X508500Y-33625858D01*
X528502Y-33557737D01*
X582158Y-33511244D01*
X652432Y-33501140D01*
X698071Y-33517070D01*
X828392Y-33593224D01*
X837673Y-33597671D01*
X1036632Y-33673645D01*
X1046530Y-33676521D01*
X1149881Y-33697548D01*
X1163930Y-33696352D01*
X1167631Y-33686007D01*
X1167631Y-33685459D01*
X1675631Y-33685459D01*
X1679695Y-33699301D01*
X1693109Y-33701335D01*
X1699815Y-33700476D01*
X1709893Y-33698334D01*
X1913886Y-33637133D01*
X1923473Y-33633375D01*
X2114726Y-33539681D01*
X2123576Y-33534406D01*
X2296959Y-33410734D01*
X2304831Y-33404081D01*
X2455683Y-33253754D01*
X2462361Y-33245907D01*
X2586634Y-33072962D01*
X2591944Y-33064125D01*
X2686301Y-32873209D01*
X2690100Y-32863614D01*
X2752008Y-32659852D01*
X2754186Y-32649779D01*
X2755617Y-32638904D01*
X2753406Y-32624720D01*
X2740248Y-32620942D01*
X1693746Y-32620942D01*
X1678507Y-32625417D01*
X1677302Y-32626807D01*
X1675631Y-32634490D01*
X1675631Y-33685459D01*
X1167631Y-33685459D01*
X1167631Y-32238942D01*
X1187633Y-32170821D01*
X1241289Y-32124328D01*
X1293631Y-32112942D01*
X2739975Y-32112942D01*
X2753506Y-32108969D01*
X2754811Y-32099889D01*
X2712845Y-31932817D01*
X2709525Y-31923066D01*
X2624603Y-31727756D01*
X2619736Y-31718681D01*
X2504057Y-31539868D01*
X2497767Y-31531699D01*
X2354437Y-31374182D01*
X2346904Y-31367157D01*
X2179770Y-31235164D01*
X2171187Y-31229462D01*
X2134233Y-31209062D01*
X2084262Y-31158629D01*
X2069490Y-31089187D01*
X2094606Y-31022781D01*
X2121958Y-30996174D01*
X2194035Y-30944762D01*
X2301491Y-30868115D01*
X2459727Y-30710431D01*
X2590084Y-30529019D01*
X2689061Y-30328753D01*
X2754001Y-30115011D01*
X2783160Y-29893532D01*
X2784787Y-29826942D01*
X2766483Y-29604303D01*
X2712062Y-29387644D01*
X2622985Y-29182782D01*
X2501645Y-28995219D01*
X2351301Y-28829993D01*
X2347250Y-28826794D01*
X2347246Y-28826790D01*
X2180045Y-28694742D01*
X2180041Y-28694740D01*
X2175990Y-28691540D01*
X2134684Y-28668738D01*
X2084715Y-28618306D01*
X2069943Y-28548863D01*
X2095059Y-28482458D01*
X2122411Y-28455851D01*
X2195701Y-28403574D01*
X2301491Y-28328115D01*
X2459727Y-28170431D01*
X2590084Y-27989019D01*
X2689061Y-27788753D01*
X2754001Y-27575011D01*
X2783160Y-27353532D01*
X2784787Y-27286942D01*
X2766483Y-27064303D01*
X2712062Y-26847644D01*
X2622985Y-26642782D01*
X2501645Y-26455219D01*
X2351301Y-26289993D01*
X2347250Y-26286794D01*
X2347246Y-26286790D01*
X2180045Y-26154742D01*
X2180041Y-26154740D01*
X2175990Y-26151540D01*
X2134684Y-26128738D01*
X2084715Y-26078306D01*
X2069943Y-26008863D01*
X2095059Y-25942458D01*
X2122411Y-25915851D01*
X2195701Y-25863574D01*
X2301491Y-25788115D01*
X2459727Y-25630431D01*
X2590084Y-25449019D01*
X2592374Y-25444385D01*
X2592867Y-25443565D01*
X2645096Y-25395475D01*
X2696912Y-25382520D01*
X2761044Y-25380504D01*
X2765003Y-25380442D01*
X2792914Y-25380442D01*
X2796849Y-25379945D01*
X2796914Y-25379937D01*
X2808751Y-25379004D01*
X2841009Y-25377990D01*
X2845028Y-25377864D01*
X2852947Y-25377615D01*
X2872401Y-25371963D01*
X2891758Y-25367955D01*
X2903988Y-25366410D01*
X2903989Y-25366410D01*
X2911855Y-25365416D01*
X2919226Y-25362497D01*
X2919228Y-25362497D01*
X2952970Y-25349138D01*
X2964200Y-25345293D01*
X2999041Y-25335171D01*
X2999042Y-25335171D01*
X3006651Y-25332960D01*
X3013470Y-25328927D01*
X3013475Y-25328925D01*
X3024086Y-25322649D01*
X3041834Y-25313954D01*
X3060675Y-25306494D01*
X3096445Y-25280506D01*
X3106365Y-25273990D01*
X3137593Y-25255522D01*
X3137596Y-25255520D01*
X3144420Y-25251484D01*
X3158741Y-25237163D01*
X3173775Y-25224322D01*
X3183752Y-25217073D01*
X3190165Y-25212414D01*
X3218356Y-25178337D01*
X3226346Y-25169558D01*
X3892247Y-24503657D01*
X3900537Y-24496113D01*
X3907018Y-24492000D01*
X3953659Y-24442332D01*
X3956413Y-24439491D01*
X3976135Y-24419769D01*
X3978612Y-24416576D01*
X3986317Y-24407555D01*
X4011159Y-24381100D01*
X4016586Y-24375321D01*
X4020407Y-24368371D01*
X4026346Y-24357568D01*
X4037202Y-24341041D01*
X4044757Y-24331302D01*
X4044758Y-24331300D01*
X4049614Y-24325040D01*
X4067174Y-24284460D01*
X4072391Y-24273812D01*
X4089875Y-24242009D01*
X4089876Y-24242007D01*
X4093695Y-24235060D01*
X4098733Y-24215437D01*
X4105137Y-24196734D01*
X4110033Y-24185420D01*
X4110033Y-24185419D01*
X4113181Y-24178145D01*
X4114420Y-24170322D01*
X4114423Y-24170312D01*
X4120099Y-24134476D01*
X4122505Y-24122856D01*
X4131528Y-24087711D01*
X4131528Y-24087710D01*
X4133500Y-24080030D01*
X4133500Y-24059776D01*
X4135051Y-24040065D01*
X4136980Y-24027886D01*
X4138220Y-24020057D01*
X4134059Y-23976038D01*
X4133500Y-23964181D01*
X4133500Y-23812772D01*
X4153502Y-23744651D01*
X4207158Y-23698158D01*
X4277432Y-23688054D01*
X4309032Y-23696917D01*
X4344082Y-23711903D01*
X4349945Y-23713176D01*
X4541363Y-23754737D01*
X4541365Y-23754737D01*
X4546126Y-23755771D01*
X4562469Y-23756742D01*
X4590201Y-23758390D01*
X4590210Y-23758390D01*
X4592057Y-23758500D01*
X5233918Y-23758500D01*
X5907942Y-23758499D01*
X5909878Y-23758379D01*
X5909891Y-23758379D01*
X5950920Y-23755844D01*
X5955760Y-23755545D01*
X5960495Y-23754508D01*
X5960497Y-23754508D01*
X6083496Y-23727577D01*
X6157727Y-23711324D01*
X6347689Y-23629710D01*
X6352650Y-23626345D01*
X6513831Y-23517012D01*
X6513832Y-23517011D01*
X6518790Y-23513648D01*
X6660706Y-23371485D01*
X6722987Y-23337406D01*
X6793807Y-23342409D01*
X6838896Y-23371330D01*
X6885706Y-23418058D01*
X6982675Y-23514858D01*
X6987642Y-23518215D01*
X6987645Y-23518217D01*
X7122052Y-23609046D01*
X7153978Y-23630621D01*
X7159493Y-23632979D01*
X7338564Y-23709544D01*
X7338567Y-23709545D01*
X7344082Y-23711903D01*
X7349945Y-23713176D01*
X7541363Y-23754737D01*
X7541365Y-23754737D01*
X7546126Y-23755771D01*
X7562469Y-23756742D01*
X7590201Y-23758390D01*
X7590210Y-23758390D01*
X7592057Y-23758500D01*
X8233918Y-23758500D01*
X8907942Y-23758499D01*
X8909878Y-23758379D01*
X8909891Y-23758379D01*
X8950920Y-23755844D01*
X8955760Y-23755545D01*
X8960495Y-23754508D01*
X8960497Y-23754508D01*
X9083496Y-23727577D01*
X9157727Y-23711324D01*
X9347689Y-23629710D01*
X9352650Y-23626345D01*
X9513831Y-23517012D01*
X9513832Y-23517011D01*
X9518790Y-23513648D01*
X9660706Y-23371485D01*
X9722987Y-23337406D01*
X9793807Y-23342409D01*
X9838896Y-23371330D01*
X9885706Y-23418058D01*
X9982675Y-23514858D01*
X9987642Y-23518215D01*
X9987645Y-23518217D01*
X10122052Y-23609046D01*
X10153978Y-23630621D01*
X10159493Y-23632979D01*
X10338564Y-23709544D01*
X10338567Y-23709545D01*
X10344082Y-23711903D01*
X10349945Y-23713176D01*
X10541363Y-23754737D01*
X10541365Y-23754737D01*
X10546126Y-23755771D01*
X10562469Y-23756742D01*
X10590201Y-23758390D01*
X10590210Y-23758390D01*
X10592057Y-23758500D01*
X11233918Y-23758500D01*
X11907942Y-23758499D01*
X11909878Y-23758379D01*
X11909891Y-23758379D01*
X11950920Y-23755844D01*
X11955760Y-23755545D01*
X11960495Y-23754508D01*
X11960497Y-23754508D01*
X12083496Y-23727577D01*
X12157727Y-23711324D01*
X12347689Y-23629710D01*
X12352650Y-23626345D01*
X12513831Y-23517012D01*
X12513832Y-23517011D01*
X12518790Y-23513648D01*
X12660706Y-23371485D01*
X12722987Y-23337406D01*
X12793807Y-23342409D01*
X12838896Y-23371330D01*
X12885706Y-23418058D01*
X12982675Y-23514858D01*
X12987642Y-23518215D01*
X12987645Y-23518217D01*
X13122052Y-23609046D01*
X13153978Y-23630621D01*
X13159493Y-23632979D01*
X13338564Y-23709544D01*
X13338567Y-23709545D01*
X13344082Y-23711903D01*
X13349945Y-23713176D01*
X13541363Y-23754737D01*
X13541365Y-23754737D01*
X13546126Y-23755771D01*
X13562469Y-23756742D01*
X13590201Y-23758390D01*
X13590210Y-23758390D01*
X13592057Y-23758500D01*
X14233918Y-23758500D01*
X14907942Y-23758499D01*
X14909878Y-23758379D01*
X14909891Y-23758379D01*
X14950920Y-23755844D01*
X14955760Y-23755545D01*
X14960495Y-23754508D01*
X14960497Y-23754508D01*
X15083496Y-23727577D01*
X15157727Y-23711324D01*
X15347689Y-23629710D01*
X15352650Y-23626345D01*
X15513831Y-23517012D01*
X15513832Y-23517011D01*
X15518790Y-23513648D01*
X15649610Y-23382600D01*
X15661059Y-23371131D01*
X15723342Y-23337052D01*
X15794162Y-23342055D01*
X15839250Y-23370976D01*
X15978754Y-23510237D01*
X15987958Y-23517824D01*
X16149246Y-23626821D01*
X16159740Y-23632542D01*
X16338721Y-23709068D01*
X16350092Y-23712697D01*
X16541425Y-23754240D01*
X16551048Y-23755562D01*
X16590230Y-23757890D01*
X16593942Y-23758000D01*
X16977885Y-23758000D01*
X16993124Y-23753525D01*
X16994329Y-23752135D01*
X16996000Y-23744452D01*
X16996000Y-19966115D01*
X16991525Y-19950876D01*
X16976987Y-19938278D01*
X16938604Y-19878552D01*
X16933500Y-19843054D01*
X16933500Y-19683885D01*
X17441500Y-19683885D01*
X17445975Y-19699124D01*
X17460513Y-19711722D01*
X17498896Y-19771448D01*
X17504000Y-19806946D01*
X17504000Y-23739885D01*
X17508475Y-23755124D01*
X17509865Y-23756329D01*
X17517548Y-23758000D01*
X17905968Y-23758000D01*
X17909858Y-23757880D01*
X17950860Y-23755346D01*
X17960438Y-23754010D01*
X18151714Y-23712129D01*
X18163083Y-23708479D01*
X18341941Y-23631636D01*
X18352408Y-23625905D01*
X18513511Y-23516625D01*
X18522704Y-23509019D01*
X18660352Y-23371132D01*
X18722635Y-23337053D01*
X18793455Y-23342056D01*
X18838542Y-23370977D01*
X18982675Y-23514858D01*
X18987642Y-23518215D01*
X18987645Y-23518217D01*
X19122052Y-23609046D01*
X19153978Y-23630621D01*
X19159493Y-23632979D01*
X19338564Y-23709544D01*
X19338567Y-23709545D01*
X19344082Y-23711903D01*
X19349945Y-23713176D01*
X19541363Y-23754737D01*
X19541365Y-23754737D01*
X19546126Y-23755771D01*
X19562469Y-23756742D01*
X19590201Y-23758390D01*
X19590210Y-23758390D01*
X19592057Y-23758500D01*
X20233918Y-23758500D01*
X20907942Y-23758499D01*
X20909878Y-23758379D01*
X20909891Y-23758379D01*
X20950920Y-23755844D01*
X20955760Y-23755545D01*
X20960495Y-23754508D01*
X20960497Y-23754508D01*
X21083496Y-23727577D01*
X21157727Y-23711324D01*
X21347689Y-23629710D01*
X21352650Y-23626345D01*
X21513831Y-23517012D01*
X21513832Y-23517011D01*
X21518790Y-23513648D01*
X21664858Y-23367325D01*
X21671397Y-23357650D01*
X21777263Y-23200991D01*
X21780621Y-23196022D01*
X21792220Y-23168895D01*
X21859544Y-23011436D01*
X21859545Y-23011433D01*
X21861903Y-23005918D01*
X21901271Y-22824601D01*
X21904737Y-22808637D01*
X21904737Y-22808635D01*
X21905771Y-22803874D01*
X21908500Y-22757943D01*
X21908499Y-20742058D01*
X21905545Y-20694240D01*
X21896063Y-20650931D01*
X21862606Y-20498129D01*
X21861324Y-20492273D01*
X21779710Y-20302311D01*
X21681783Y-20157945D01*
X21667012Y-20136169D01*
X21667011Y-20136168D01*
X21663648Y-20131210D01*
X21517325Y-19985142D01*
X21512358Y-19981785D01*
X21512355Y-19981783D01*
X21353001Y-19874095D01*
X21346022Y-19869379D01*
X21329751Y-19862422D01*
X21274980Y-19817249D01*
X21253326Y-19749635D01*
X21271665Y-19681048D01*
X21290115Y-19657553D01*
X21324305Y-19623303D01*
X21339679Y-19598362D01*
X21413275Y-19478968D01*
X21413276Y-19478966D01*
X21417115Y-19472738D01*
X21472797Y-19304861D01*
X21483500Y-19200400D01*
X21483500Y-17799600D01*
X21481148Y-17776933D01*
X21473238Y-17700692D01*
X21473237Y-17700688D01*
X21472526Y-17693834D01*
X21449161Y-17623799D01*
X21418868Y-17533002D01*
X21416550Y-17526054D01*
X21323478Y-17375652D01*
X21198303Y-17250695D01*
X21132196Y-17209946D01*
X21084704Y-17157175D01*
X21073280Y-17087104D01*
X21101554Y-17021980D01*
X21109140Y-17013669D01*
X21219134Y-16903483D01*
X21224305Y-16898303D01*
X21274546Y-16816797D01*
X21313275Y-16753968D01*
X21313276Y-16753966D01*
X21317115Y-16747738D01*
X21372797Y-16579861D01*
X21373509Y-16572919D01*
X21382257Y-16487532D01*
X21383500Y-16475400D01*
X21383500Y-14524600D01*
X21381962Y-14509779D01*
X21373238Y-14425693D01*
X21373237Y-14425689D01*
X21372526Y-14418835D01*
X21366238Y-14399986D01*
X21318868Y-14258003D01*
X21316550Y-14251055D01*
X21300923Y-14225802D01*
X21282086Y-14157349D01*
X21303248Y-14089580D01*
X21357690Y-14044010D01*
X21408068Y-14033500D01*
X21500400Y-14033500D01*
X21503646Y-14033163D01*
X21503650Y-14033163D01*
X21599308Y-14023238D01*
X21599312Y-14023237D01*
X21606166Y-14022526D01*
X21612702Y-14020345D01*
X21612704Y-14020345D01*
X21766998Y-13968868D01*
X21773946Y-13966550D01*
X21924348Y-13873478D01*
X22049305Y-13748303D01*
X22142115Y-13597738D01*
X22189195Y-13455795D01*
X22195632Y-13436389D01*
X22195632Y-13436387D01*
X22197797Y-13429861D01*
X22208500Y-13325400D01*
X22208500Y-12499600D01*
X22197526Y-12393834D01*
X22193912Y-12383000D01*
X22143868Y-12233002D01*
X22141550Y-12226054D01*
X22048478Y-12075652D01*
X21923303Y-11950695D01*
X21906887Y-11940576D01*
X21778968Y-11861725D01*
X21778966Y-11861724D01*
X21772738Y-11857885D01*
X21612254Y-11804655D01*
X21611389Y-11804368D01*
X21611387Y-11804368D01*
X21604861Y-11802203D01*
X21598025Y-11801503D01*
X21598022Y-11801502D01*
X21554969Y-11797091D01*
X21500400Y-11791500D01*
X19999600Y-11791500D01*
X19996354Y-11791837D01*
X19996350Y-11791837D01*
X19900692Y-11801762D01*
X19900688Y-11801763D01*
X19893834Y-11802474D01*
X19887298Y-11804655D01*
X19887296Y-11804655D01*
X19812935Y-11829464D01*
X19726054Y-11858450D01*
X19575652Y-11951522D01*
X19450695Y-12076697D01*
X19446855Y-12082927D01*
X19446854Y-12082928D01*
X19362803Y-12219284D01*
X19357885Y-12227262D01*
X19352530Y-12243406D01*
X19306230Y-12382999D01*
X19302203Y-12395139D01*
X19291500Y-12499600D01*
X19291500Y-13325400D01*
X19291837Y-13328646D01*
X19291837Y-13328650D01*
X19299278Y-13400360D01*
X19302474Y-13431166D01*
X19304655Y-13437702D01*
X19304655Y-13437704D01*
X19313545Y-13464351D01*
X19358450Y-13598946D01*
X19362306Y-13605177D01*
X19410753Y-13683467D01*
X19429591Y-13751919D01*
X19408430Y-13819689D01*
X19353989Y-13865260D01*
X19343486Y-13869293D01*
X19308008Y-13881130D01*
X19308006Y-13881131D01*
X19301055Y-13883450D01*
X19150652Y-13976522D01*
X19025695Y-14101697D01*
X19021855Y-14107927D01*
X19021854Y-14107928D01*
X18937469Y-14244826D01*
X18932885Y-14252262D01*
X18910983Y-14318295D01*
X18879771Y-14412398D01*
X18877203Y-14420139D01*
X18876503Y-14426975D01*
X18876502Y-14426978D01*
X18872459Y-14466437D01*
X18866500Y-14524600D01*
X18866500Y-16475400D01*
X18877474Y-16581165D01*
X18879655Y-16587701D01*
X18879655Y-16587703D01*
X18911414Y-16682896D01*
X18933450Y-16748945D01*
X19026522Y-16899348D01*
X19151697Y-17024305D01*
X19302262Y-17117115D01*
X19309212Y-17119420D01*
X19315712Y-17122451D01*
X19368998Y-17169367D01*
X19388461Y-17237644D01*
X19367921Y-17305604D01*
X19351638Y-17325665D01*
X19300695Y-17376697D01*
X19296855Y-17382927D01*
X19296854Y-17382928D01*
X19277495Y-17414335D01*
X19207885Y-17527262D01*
X19152203Y-17695139D01*
X19151503Y-17701975D01*
X19151502Y-17701978D01*
X19149307Y-17723400D01*
X19141500Y-17799600D01*
X19141500Y-19200400D01*
X19141837Y-19203646D01*
X19141837Y-19203650D01*
X19151618Y-19297914D01*
X19152474Y-19306166D01*
X19208450Y-19473946D01*
X19256460Y-19551529D01*
X19297671Y-19618126D01*
X19297674Y-19618130D01*
X19301522Y-19624348D01*
X19306699Y-19629516D01*
X19307567Y-19630611D01*
X19334204Y-19696421D01*
X19321033Y-19766185D01*
X19272235Y-19817753D01*
X19258559Y-19824642D01*
X19168334Y-19863406D01*
X19152311Y-19870290D01*
X19147351Y-19873654D01*
X19147350Y-19873655D01*
X18987946Y-19981783D01*
X18981210Y-19986352D01*
X18910887Y-20056798D01*
X18838941Y-20128869D01*
X18776658Y-20162948D01*
X18705838Y-20157945D01*
X18660750Y-20129024D01*
X18521246Y-19989763D01*
X18512042Y-19982176D01*
X18350754Y-19873179D01*
X18340268Y-19867463D01*
X18240846Y-19824954D01*
X18186074Y-19779782D01*
X18164418Y-19712168D01*
X18182755Y-19643581D01*
X18191500Y-19631006D01*
X18202750Y-19616761D01*
X18287816Y-19478757D01*
X18293963Y-19465576D01*
X18345138Y-19311290D01*
X18348005Y-19297914D01*
X18357672Y-19203562D01*
X18358000Y-19197146D01*
X18358000Y-18772115D01*
X18353525Y-18756876D01*
X18352135Y-18755671D01*
X18344452Y-18754000D01*
X17459615Y-18754000D01*
X17444376Y-18758475D01*
X17443171Y-18759865D01*
X17441500Y-18767548D01*
X17441500Y-19683885D01*
X16933500Y-19683885D01*
X16933500Y-18772115D01*
X16929025Y-18756876D01*
X16927635Y-18755671D01*
X16919952Y-18754000D01*
X16035116Y-18754000D01*
X16019877Y-18758475D01*
X16000091Y-18781309D01*
X15940364Y-18819693D01*
X15904866Y-18824797D01*
X14450253Y-18824797D01*
X14382132Y-18804795D01*
X14335639Y-18751139D01*
X14324253Y-18698797D01*
X14324253Y-17368412D01*
X14319778Y-17353173D01*
X14318388Y-17351968D01*
X14310705Y-17350297D01*
X13906157Y-17350297D01*
X13899642Y-17350634D01*
X13804050Y-17360553D01*
X13790651Y-17363447D01*
X13636470Y-17414885D01*
X13616671Y-17424160D01*
X13615431Y-17421513D01*
X13559790Y-17436803D01*
X13492028Y-17415617D01*
X13446477Y-17361160D01*
X13437599Y-17290720D01*
X13442391Y-17271161D01*
X13447797Y-17254861D01*
X13448618Y-17246854D01*
X13456205Y-17172797D01*
X13458500Y-17150400D01*
X13458500Y-16867045D01*
X13478502Y-16798924D01*
X13532158Y-16752431D01*
X13602432Y-16742327D01*
X13630430Y-16750669D01*
X13630515Y-16750412D01*
X13791864Y-16803929D01*
X13791866Y-16803929D01*
X13798392Y-16806094D01*
X13805228Y-16806794D01*
X13805231Y-16806795D01*
X13848284Y-16811206D01*
X13902853Y-16816797D01*
X15253653Y-16816797D01*
X15256899Y-16816460D01*
X15256903Y-16816460D01*
X15352560Y-16806535D01*
X15352564Y-16806534D01*
X15359418Y-16805823D01*
X15365954Y-16803642D01*
X15365956Y-16803642D01*
X15520250Y-16752165D01*
X15527198Y-16749847D01*
X15533866Y-16745721D01*
X15534205Y-16745627D01*
X15540049Y-16742890D01*
X15540518Y-16743890D01*
X15602313Y-16726881D01*
X15670084Y-16748039D01*
X15707315Y-16786560D01*
X15773063Y-16892807D01*
X15782099Y-16904208D01*
X15896830Y-17018739D01*
X15908241Y-17027751D01*
X16046245Y-17112818D01*
X16059420Y-17118961D01*
X16146953Y-17147995D01*
X16205312Y-17188426D01*
X16232549Y-17253990D01*
X16220015Y-17323872D01*
X16196457Y-17356607D01*
X16181261Y-17371829D01*
X16172249Y-17383240D01*
X16087184Y-17521243D01*
X16081037Y-17534424D01*
X16046747Y-17637804D01*
X16006316Y-17696163D01*
X15940752Y-17723400D01*
X15870870Y-17710866D01*
X15820009Y-17664439D01*
X15805185Y-17640484D01*
X15796154Y-17629089D01*
X15681423Y-17514558D01*
X15670012Y-17505546D01*
X15532008Y-17420479D01*
X15518830Y-17414335D01*
X15364537Y-17363158D01*
X15351172Y-17360292D01*
X15256814Y-17350625D01*
X15250397Y-17350297D01*
X14850368Y-17350297D01*
X14835129Y-17354772D01*
X14833924Y-17356162D01*
X14832253Y-17363845D01*
X14832253Y-18298682D01*
X14836728Y-18313921D01*
X14838118Y-18315126D01*
X14845801Y-18316797D01*
X15943138Y-18316797D01*
X15958377Y-18312322D01*
X15978163Y-18289488D01*
X16037890Y-18251104D01*
X16073388Y-18246000D01*
X18339884Y-18246000D01*
X18355123Y-18241525D01*
X18356328Y-18240135D01*
X18357999Y-18232452D01*
X18357999Y-17802905D01*
X18357662Y-17796386D01*
X18347743Y-17700794D01*
X18344851Y-17687400D01*
X18293412Y-17533216D01*
X18287239Y-17520038D01*
X18201937Y-17382193D01*
X18192901Y-17370792D01*
X18078171Y-17256261D01*
X18066760Y-17247249D01*
X17929013Y-17162341D01*
X17881520Y-17109569D01*
X17870096Y-17039497D01*
X17898370Y-16974374D01*
X17905956Y-16966064D01*
X17968735Y-16903175D01*
X17977751Y-16891759D01*
X18062818Y-16753755D01*
X18068962Y-16740577D01*
X18120139Y-16586284D01*
X18123005Y-16572919D01*
X18132672Y-16478561D01*
X18133000Y-16472145D01*
X18133000Y-15772115D01*
X18128525Y-15756876D01*
X18127135Y-15755671D01*
X18119452Y-15754000D01*
X16747000Y-15754000D01*
X16678879Y-15733998D01*
X16632386Y-15680342D01*
X16621000Y-15628000D01*
X16621000Y-15227885D01*
X17129000Y-15227885D01*
X17133475Y-15243124D01*
X17134865Y-15244329D01*
X17142548Y-15246000D01*
X18114885Y-15246000D01*
X18130124Y-15241525D01*
X18131329Y-15240135D01*
X18133000Y-15232452D01*
X18133000Y-14527904D01*
X18132663Y-14521389D01*
X18122744Y-14425797D01*
X18119850Y-14412398D01*
X18068412Y-14258217D01*
X18062238Y-14245038D01*
X17976937Y-14107193D01*
X17967901Y-14095792D01*
X17853170Y-13981261D01*
X17841759Y-13972249D01*
X17703755Y-13887182D01*
X17690577Y-13881038D01*
X17536284Y-13829861D01*
X17522919Y-13826995D01*
X17428561Y-13817328D01*
X17422144Y-13817000D01*
X17147115Y-13817000D01*
X17131876Y-13821475D01*
X17130671Y-13822865D01*
X17129000Y-13830548D01*
X17129000Y-15227885D01*
X16621000Y-15227885D01*
X16621000Y-13835115D01*
X16616525Y-13819876D01*
X16615135Y-13818671D01*
X16607452Y-13817000D01*
X16327904Y-13817000D01*
X16321389Y-13817337D01*
X16225797Y-13827256D01*
X16212398Y-13830150D01*
X16058217Y-13881588D01*
X16045038Y-13887762D01*
X15907193Y-13973063D01*
X15895792Y-13982099D01*
X15781261Y-14096830D01*
X15772249Y-14108241D01*
X15687182Y-14246245D01*
X15681039Y-14259420D01*
X15651026Y-14349905D01*
X15610595Y-14408264D01*
X15545031Y-14435501D01*
X15491766Y-14429830D01*
X15364642Y-14387665D01*
X15364640Y-14387665D01*
X15358114Y-14385500D01*
X15351276Y-14384799D01*
X15351274Y-14384799D01*
X15338594Y-14383500D01*
X15323033Y-14381906D01*
X15257306Y-14355066D01*
X15216524Y-14296951D01*
X15209937Y-14260521D01*
X15209175Y-14236283D01*
X15208926Y-14228363D01*
X15203275Y-14208911D01*
X15199267Y-14189559D01*
X15197720Y-14177316D01*
X15196727Y-14169456D01*
X15190078Y-14152662D01*
X15180453Y-14128350D01*
X15176608Y-14117123D01*
X15172126Y-14101697D01*
X15164271Y-14074660D01*
X15160237Y-14067838D01*
X15160234Y-14067832D01*
X15153959Y-14057221D01*
X15145263Y-14039471D01*
X15140725Y-14028009D01*
X15140722Y-14028004D01*
X15137805Y-14020636D01*
X15111826Y-13984878D01*
X15105310Y-13974960D01*
X15094258Y-13956272D01*
X15082795Y-13936890D01*
X15068471Y-13922566D01*
X15055629Y-13907531D01*
X15043725Y-13891146D01*
X15009659Y-13862964D01*
X15000880Y-13854975D01*
X14503652Y-13357747D01*
X14496112Y-13349461D01*
X14492000Y-13342982D01*
X14476683Y-13328598D01*
X14442349Y-13296357D01*
X14439507Y-13293602D01*
X14419770Y-13273865D01*
X14416573Y-13271385D01*
X14407551Y-13263680D01*
X14381100Y-13238841D01*
X14375321Y-13233414D01*
X14368375Y-13229595D01*
X14368372Y-13229593D01*
X14357566Y-13223652D01*
X14341047Y-13212801D01*
X14332819Y-13206419D01*
X14325041Y-13200386D01*
X14317772Y-13197241D01*
X14317768Y-13197238D01*
X14284463Y-13182826D01*
X14273813Y-13177609D01*
X14235060Y-13156305D01*
X14215437Y-13151267D01*
X14196734Y-13144863D01*
X14185420Y-13139967D01*
X14185419Y-13139967D01*
X14178145Y-13136819D01*
X14170322Y-13135580D01*
X14170312Y-13135577D01*
X14134476Y-13129901D01*
X14122856Y-13127495D01*
X14087711Y-13118472D01*
X14087710Y-13118472D01*
X14080030Y-13116500D01*
X14059776Y-13116500D01*
X14040065Y-13114949D01*
X14027886Y-13113020D01*
X14020057Y-13111780D01*
X14012165Y-13112526D01*
X13976039Y-13115941D01*
X13964181Y-13116500D01*
X13679197Y-13116500D01*
X13611076Y-13096498D01*
X13564583Y-13042842D01*
X13559674Y-13030377D01*
X13543867Y-12982998D01*
X13543866Y-12982996D01*
X13541550Y-12976054D01*
X13511000Y-12926685D01*
X13452332Y-12831880D01*
X13448478Y-12825652D01*
X13323303Y-12700695D01*
X13270760Y-12668307D01*
X13178968Y-12611725D01*
X13178966Y-12611724D01*
X13172738Y-12607885D01*
X13012254Y-12554655D01*
X13011389Y-12554368D01*
X13011387Y-12554368D01*
X13004861Y-12552203D01*
X12998025Y-12551503D01*
X12998022Y-12551502D01*
X12954969Y-12547091D01*
X12900400Y-12541500D01*
X12099600Y-12541500D01*
X12096354Y-12541837D01*
X12096350Y-12541837D01*
X12000692Y-12551762D01*
X12000688Y-12551763D01*
X11993834Y-12552474D01*
X11987298Y-12554655D01*
X11987296Y-12554655D01*
X11855194Y-12598728D01*
X11826054Y-12608450D01*
X11675652Y-12701522D01*
X11670479Y-12706704D01*
X11589216Y-12788109D01*
X11526934Y-12822188D01*
X11456114Y-12817185D01*
X11411025Y-12788264D01*
X11328483Y-12705866D01*
X11323303Y-12700695D01*
X11270760Y-12668307D01*
X11178968Y-12611725D01*
X11178966Y-12611724D01*
X11172738Y-12607885D01*
X11012254Y-12554655D01*
X11011389Y-12554368D01*
X11011387Y-12554368D01*
X11004861Y-12552203D01*
X10998025Y-12551503D01*
X10998022Y-12551502D01*
X10954969Y-12547091D01*
X10900400Y-12541500D01*
X10099600Y-12541500D01*
X10096354Y-12541837D01*
X10096350Y-12541837D01*
X10000692Y-12551762D01*
X10000688Y-12551763D01*
X9993834Y-12552474D01*
X9987298Y-12554655D01*
X9987296Y-12554655D01*
X9855194Y-12598728D01*
X9826054Y-12608450D01*
X9675652Y-12701522D01*
X9550695Y-12826697D01*
X9546855Y-12832927D01*
X9546854Y-12832928D01*
X9490295Y-12924684D01*
X9457885Y-12977262D01*
X9447661Y-13008088D01*
X9440337Y-13030168D01*
X9399906Y-13088527D01*
X9334342Y-13115764D01*
X9320744Y-13116500D01*
X8963655Y-13116500D01*
X8896420Y-13097062D01*
X8892937Y-13094864D01*
X8829125Y-13054602D01*
X8760288Y-13011169D01*
X8760283Y-13011167D01*
X8755404Y-13008088D01*
X8566180Y-12932595D01*
X8366366Y-12892849D01*
X8360592Y-12892773D01*
X8360588Y-12892773D01*
X8257452Y-12891424D01*
X8162655Y-12890183D01*
X8156958Y-12891162D01*
X8156957Y-12891162D01*
X8053582Y-12908925D01*
X7961870Y-12924684D01*
X7770734Y-12995198D01*
X7765773Y-12998150D01*
X7765772Y-12998150D01*
X7613863Y-13088527D01*
X7595649Y-13099363D01*
X7442478Y-13233690D01*
X7438911Y-13238215D01*
X7438906Y-13238220D01*
X7352331Y-13348040D01*
X7316351Y-13393681D01*
X7313662Y-13398792D01*
X7313660Y-13398795D01*
X7285910Y-13451540D01*
X7221492Y-13573978D01*
X7161078Y-13768543D01*
X7137132Y-13970859D01*
X7150457Y-14174151D01*
X7159431Y-14209486D01*
X7156813Y-14280432D01*
X7116253Y-14338702D01*
X7050629Y-14365794D01*
X7037308Y-14366500D01*
X6328768Y-14366500D01*
X6317585Y-14365973D01*
X6310092Y-14364298D01*
X6302166Y-14364547D01*
X6302165Y-14364547D01*
X6242002Y-14366438D01*
X6238044Y-14366500D01*
X6210144Y-14366500D01*
X6206154Y-14367004D01*
X6194320Y-14367936D01*
X6150111Y-14369326D01*
X6142495Y-14371539D01*
X6142493Y-14371539D01*
X6130652Y-14374979D01*
X6111293Y-14378988D01*
X6109983Y-14379154D01*
X6091203Y-14381526D01*
X6083837Y-14384442D01*
X6083831Y-14384444D01*
X6050098Y-14397800D01*
X6038868Y-14401645D01*
X6016085Y-14408264D01*
X5996407Y-14413981D01*
X5989584Y-14418016D01*
X5978966Y-14424295D01*
X5961213Y-14432992D01*
X5954877Y-14435501D01*
X5942383Y-14440448D01*
X5935968Y-14445109D01*
X5906612Y-14466437D01*
X5896695Y-14472951D01*
X5858638Y-14495458D01*
X5844317Y-14509779D01*
X5829284Y-14522619D01*
X5812893Y-14534528D01*
X5807843Y-14540632D01*
X5807838Y-14540637D01*
X5784707Y-14568598D01*
X5776717Y-14577379D01*
X4857742Y-15496353D01*
X4849463Y-15503887D01*
X4842982Y-15508000D01*
X4804579Y-15548895D01*
X4796357Y-15557651D01*
X4793602Y-15560493D01*
X4773865Y-15580230D01*
X4771385Y-15583427D01*
X4763682Y-15592447D01*
X4733414Y-15624679D01*
X4729595Y-15631625D01*
X4729593Y-15631628D01*
X4723652Y-15642434D01*
X4712801Y-15658953D01*
X4700386Y-15674959D01*
X4697241Y-15682228D01*
X4697238Y-15682232D01*
X4682826Y-15715537D01*
X4677609Y-15726187D01*
X4656305Y-15764940D01*
X4654334Y-15772615D01*
X4654334Y-15772616D01*
X4651267Y-15784562D01*
X4644863Y-15803266D01*
X4636819Y-15821855D01*
X4635580Y-15829678D01*
X4635577Y-15829688D01*
X4629901Y-15865524D01*
X4627495Y-15877144D01*
X4616500Y-15919970D01*
X4616500Y-15940224D01*
X4614949Y-15959934D01*
X4611780Y-15979943D01*
X4612526Y-15987835D01*
X4615941Y-16023961D01*
X4616500Y-16035819D01*
X4616500Y-16685406D01*
X4596498Y-16753527D01*
X4579595Y-16774501D01*
X2603251Y-18750845D01*
X2540939Y-18784871D01*
X2470124Y-18779806D01*
X2420962Y-18746549D01*
X2354782Y-18673817D01*
X2354773Y-18673808D01*
X2351301Y-18669993D01*
X2347250Y-18666794D01*
X2347246Y-18666790D01*
X2180045Y-18534742D01*
X2180041Y-18534740D01*
X2175990Y-18531540D01*
X2134684Y-18508738D01*
X2084715Y-18458306D01*
X2069943Y-18388863D01*
X2095059Y-18322458D01*
X2122411Y-18295851D01*
X2190872Y-18247018D01*
X2301491Y-18168115D01*
X2459727Y-18010431D01*
X2505172Y-17947188D01*
X2587066Y-17833219D01*
X2590084Y-17829019D01*
X2602991Y-17802905D01*
X2686767Y-17633395D01*
X2686768Y-17633393D01*
X2689061Y-17628753D01*
X2754001Y-17415011D01*
X2783160Y-17193532D01*
X2783667Y-17172797D01*
X2784705Y-17130307D01*
X2784705Y-17130303D01*
X2784787Y-17126942D01*
X2766483Y-16904303D01*
X2712062Y-16687644D01*
X2622985Y-16482782D01*
X2501645Y-16295219D01*
X2351301Y-16129993D01*
X2347250Y-16126794D01*
X2347246Y-16126790D01*
X2180045Y-15994742D01*
X2180041Y-15994740D01*
X2175990Y-15991540D01*
X2134684Y-15968738D01*
X2084715Y-15918306D01*
X2069943Y-15848863D01*
X2095059Y-15782458D01*
X2122411Y-15755851D01*
X2195701Y-15703574D01*
X2301491Y-15628115D01*
X2325094Y-15604595D01*
X2456066Y-15474079D01*
X2459727Y-15470431D01*
X2590084Y-15289019D01*
X2689061Y-15088753D01*
X2735239Y-14936764D01*
X2752496Y-14879965D01*
X2752496Y-14879963D01*
X2754001Y-14875011D01*
X2783160Y-14653532D01*
X2784787Y-14586942D01*
X2766483Y-14364303D01*
X2712062Y-14147644D01*
X2622985Y-13942782D01*
X2501645Y-13755219D01*
X2351301Y-13589993D01*
X2347250Y-13586794D01*
X2347246Y-13586790D01*
X2180045Y-13454742D01*
X2180041Y-13454740D01*
X2175990Y-13451540D01*
X2134684Y-13428738D01*
X2084715Y-13378306D01*
X2069943Y-13308863D01*
X2095059Y-13242458D01*
X2122411Y-13215851D01*
X2170262Y-13181719D01*
X2301491Y-13088115D01*
X2346923Y-13042842D01*
X2456066Y-12934079D01*
X2459727Y-12930431D01*
X2485923Y-12893976D01*
X2587066Y-12753219D01*
X2590084Y-12749019D01*
X2610998Y-12706704D01*
X2686767Y-12553395D01*
X2686768Y-12553393D01*
X2689061Y-12548753D01*
X2739421Y-12382999D01*
X2752496Y-12339965D01*
X2752496Y-12339963D01*
X2754001Y-12335011D01*
X2783160Y-12113532D01*
X2783431Y-12102450D01*
X2784705Y-12050307D01*
X2784705Y-12050303D01*
X2784787Y-12046942D01*
X2766483Y-11824303D01*
X2728251Y-11672095D01*
X3267001Y-11672095D01*
X3267338Y-11678614D01*
X3277257Y-11774206D01*
X3280149Y-11787600D01*
X3331588Y-11941784D01*
X3337761Y-11954962D01*
X3423063Y-12092807D01*
X3432099Y-12104208D01*
X3546829Y-12218739D01*
X3558240Y-12227751D01*
X3696243Y-12312816D01*
X3709424Y-12318963D01*
X3863710Y-12370138D01*
X3877086Y-12373005D01*
X3971438Y-12382672D01*
X3977854Y-12383000D01*
X4227885Y-12383000D01*
X4243124Y-12378525D01*
X4244329Y-12377135D01*
X4246000Y-12369452D01*
X4246000Y-12364884D01*
X4754000Y-12364884D01*
X4758475Y-12380123D01*
X4759865Y-12381328D01*
X4767548Y-12382999D01*
X5022095Y-12382999D01*
X5028614Y-12382662D01*
X5124206Y-12372743D01*
X5137600Y-12369851D01*
X5291784Y-12318412D01*
X5304962Y-12312239D01*
X5442811Y-12226934D01*
X5452207Y-12219488D01*
X5518018Y-12192853D01*
X5587782Y-12206026D01*
X5596584Y-12210976D01*
X5721243Y-12287816D01*
X5734424Y-12293963D01*
X5888710Y-12345138D01*
X5902086Y-12348005D01*
X5996438Y-12357672D01*
X6002854Y-12358000D01*
X6227885Y-12358000D01*
X6243124Y-12353525D01*
X6244329Y-12352135D01*
X6246000Y-12344452D01*
X6246000Y-12339884D01*
X6754000Y-12339884D01*
X6758475Y-12355123D01*
X6759865Y-12356328D01*
X6767548Y-12357999D01*
X6997095Y-12357999D01*
X7003614Y-12357662D01*
X7099206Y-12347743D01*
X7112600Y-12344851D01*
X7266784Y-12293412D01*
X7279962Y-12287238D01*
X7403125Y-12211023D01*
X7471577Y-12192185D01*
X7539347Y-12213346D01*
X7547519Y-12219284D01*
X7558240Y-12227751D01*
X7696243Y-12312816D01*
X7709424Y-12318963D01*
X7863710Y-12370138D01*
X7877086Y-12373005D01*
X7971438Y-12382672D01*
X7977854Y-12383000D01*
X8227885Y-12383000D01*
X8243124Y-12378525D01*
X8244329Y-12377135D01*
X8246000Y-12369452D01*
X8246000Y-12364884D01*
X8754000Y-12364884D01*
X8758475Y-12380123D01*
X8759865Y-12381328D01*
X8767548Y-12382999D01*
X9022095Y-12382999D01*
X9028614Y-12382662D01*
X9124206Y-12372743D01*
X9137600Y-12369851D01*
X9291784Y-12318412D01*
X9304962Y-12312239D01*
X9442807Y-12226937D01*
X9454208Y-12217901D01*
X9568739Y-12103171D01*
X9577751Y-12091760D01*
X9662816Y-11953757D01*
X9668963Y-11940576D01*
X9720138Y-11786290D01*
X9723005Y-11772914D01*
X9732672Y-11678562D01*
X9733000Y-11672146D01*
X9733000Y-11559615D01*
X9728525Y-11544376D01*
X9727135Y-11543171D01*
X9719452Y-11541500D01*
X8772115Y-11541500D01*
X8756876Y-11545975D01*
X8755671Y-11547365D01*
X8754000Y-11555048D01*
X8754000Y-12364884D01*
X8246000Y-12364884D01*
X8246000Y-11559615D01*
X8241525Y-11544376D01*
X8240135Y-11543171D01*
X8232452Y-11541500D01*
X7309479Y-11541500D01*
X7241358Y-11521498D01*
X7226966Y-11510724D01*
X7221135Y-11505671D01*
X7213452Y-11504000D01*
X6772115Y-11504000D01*
X6756876Y-11508475D01*
X6755671Y-11509865D01*
X6754000Y-11517548D01*
X6754000Y-12339884D01*
X6246000Y-12339884D01*
X6246000Y-11522115D01*
X6241525Y-11506876D01*
X6240135Y-11505671D01*
X6232452Y-11504000D01*
X5791115Y-11504000D01*
X5762593Y-11512375D01*
X5725216Y-11536396D01*
X5689717Y-11541500D01*
X4772115Y-11541500D01*
X4756876Y-11545975D01*
X4755671Y-11547365D01*
X4754000Y-11555048D01*
X4754000Y-12364884D01*
X4246000Y-12364884D01*
X4246000Y-11559615D01*
X4241525Y-11544376D01*
X4240135Y-11543171D01*
X4232452Y-11541500D01*
X3285116Y-11541500D01*
X3269877Y-11545975D01*
X3268672Y-11547365D01*
X3267001Y-11555048D01*
X3267001Y-11672095D01*
X2728251Y-11672095D01*
X2712062Y-11607644D01*
X2622985Y-11402782D01*
X2501645Y-11215219D01*
X2351301Y-11049993D01*
X2347250Y-11046794D01*
X2347246Y-11046790D01*
X2180045Y-10914742D01*
X2180041Y-10914740D01*
X2175990Y-10911540D01*
X2134684Y-10888738D01*
X2084715Y-10838306D01*
X2069943Y-10768863D01*
X2095059Y-10702458D01*
X2122411Y-10675851D01*
X2179131Y-10635393D01*
X2301491Y-10548115D01*
X2345761Y-10504000D01*
X2456066Y-10394079D01*
X2459727Y-10390431D01*
X2489454Y-10349062D01*
X2587066Y-10213219D01*
X2590084Y-10209019D01*
X2618473Y-10151579D01*
X2686767Y-10013395D01*
X2686768Y-10013393D01*
X2689061Y-10008753D01*
X2754001Y-9795011D01*
X2783160Y-9573532D01*
X2784787Y-9506942D01*
X2766483Y-9284303D01*
X2712062Y-9067644D01*
X2622985Y-8862782D01*
X2546034Y-8743834D01*
X2504453Y-8679559D01*
X2504451Y-8679556D01*
X2501645Y-8675219D01*
X2351301Y-8509993D01*
X2347250Y-8506794D01*
X2347246Y-8506790D01*
X2180045Y-8374742D01*
X2180041Y-8374740D01*
X2175990Y-8371540D01*
X2134684Y-8348738D01*
X2084715Y-8298306D01*
X2069943Y-8228863D01*
X2095059Y-8162458D01*
X2122411Y-8135851D01*
X2188370Y-8088803D01*
X2301491Y-8008115D01*
X2354932Y-7954861D01*
X2406932Y-7903042D01*
X2459727Y-7850431D01*
X2511647Y-7778177D01*
X2587066Y-7673219D01*
X2590084Y-7669019D01*
X2604268Y-7640321D01*
X2686767Y-7473395D01*
X2686768Y-7473393D01*
X2689061Y-7468753D01*
X2754001Y-7255011D01*
X2783160Y-7033532D01*
X2783784Y-7007999D01*
X2784705Y-6970307D01*
X2784705Y-6970303D01*
X2784787Y-6966942D01*
X2766483Y-6744303D01*
X2712062Y-6527644D01*
X2622985Y-6322782D01*
X2572301Y-6244436D01*
X2504453Y-6139559D01*
X2504451Y-6139556D01*
X2501645Y-6135219D01*
X2351301Y-5969993D01*
X2347250Y-5966794D01*
X2347246Y-5966790D01*
X2180045Y-5834742D01*
X2180041Y-5834740D01*
X2175990Y-5831540D01*
X2134684Y-5808738D01*
X2084715Y-5758306D01*
X2069943Y-5688863D01*
X2095059Y-5622458D01*
X2122411Y-5595851D01*
X2195701Y-5543574D01*
X2301491Y-5468115D01*
X2459727Y-5310431D01*
X2590084Y-5129019D01*
X2668744Y-4969863D01*
X2686767Y-4933395D01*
X2686768Y-4933393D01*
X2689061Y-4928753D01*
X2754001Y-4715011D01*
X2783160Y-4493532D01*
X2783242Y-4490182D01*
X2784705Y-4430307D01*
X2784705Y-4430303D01*
X2784787Y-4426942D01*
X2766483Y-4204303D01*
X2712062Y-3987644D01*
X2622985Y-3782782D01*
X2501645Y-3595219D01*
X2487890Y-3580102D01*
X2354429Y-3433430D01*
X2323377Y-3369584D01*
X2331772Y-3299085D01*
X2376948Y-3244317D01*
X2403392Y-3230648D01*
X2509928Y-3190709D01*
X2518336Y-3187557D01*
X2634892Y-3100203D01*
X2722246Y-2983647D01*
X2773376Y-2847258D01*
X2780131Y-2785076D01*
X2780131Y-988808D01*
X2773376Y-926626D01*
X2722246Y-790237D01*
X2662160Y-710064D01*
X2637312Y-643559D01*
X2652365Y-574176D01*
X2702539Y-523946D01*
X2762986Y-508500D01*
X9541406Y-508500D01*
X9609527Y-528502D01*
G37*
%TD.AperFunction*%
%TA.AperFunction,Conductor*%
G36*
X15751163Y-1653502D02*
G01*
X15797656Y-1707158D01*
X15807760Y-1777432D01*
X15802635Y-1799167D01*
X15780302Y-1866500D01*
X15770803Y-1895139D01*
X15770103Y-1901975D01*
X15770102Y-1901978D01*
X15767748Y-1924959D01*
X15760100Y-1999600D01*
X15760100Y-3000400D01*
X15760437Y-3003646D01*
X15760437Y-3003650D01*
X15766585Y-3062899D01*
X15753720Y-3132720D01*
X15701960Y-3186317D01*
X15699755Y-3187529D01*
X15692383Y-3190448D01*
X15685968Y-3195109D01*
X15656625Y-3216427D01*
X15646707Y-3222943D01*
X15633679Y-3230648D01*
X15608637Y-3245458D01*
X15594313Y-3259782D01*
X15579281Y-3272621D01*
X15562893Y-3284528D01*
X15545134Y-3305995D01*
X15534712Y-3318593D01*
X15526722Y-3327373D01*
X15049500Y-3804595D01*
X14987188Y-3838621D01*
X14960405Y-3841500D01*
X14761213Y-3841500D01*
X14693092Y-3821498D01*
X14646599Y-3767842D01*
X14636495Y-3697568D01*
X14652174Y-3663237D01*
X14658000Y-3636452D01*
X14658000Y-3415908D01*
X14657462Y-3407700D01*
X14644072Y-3305995D01*
X14639833Y-3290175D01*
X14587410Y-3163614D01*
X14579221Y-3149431D01*
X14495829Y-3040752D01*
X14484250Y-3029172D01*
X14375566Y-2945777D01*
X14361385Y-2937590D01*
X14234825Y-2885167D01*
X14219005Y-2880928D01*
X14167960Y-2874208D01*
X14153778Y-2876419D01*
X14150000Y-2889576D01*
X14150000Y-2900224D01*
X14129998Y-2968345D01*
X14076342Y-3014838D01*
X14006068Y-3024942D01*
X13947297Y-3000187D01*
X13896094Y-2960898D01*
X13854226Y-2903560D01*
X13851901Y-2896433D01*
X13845956Y-2876187D01*
X13832417Y-2874158D01*
X13772806Y-2882006D01*
X13772573Y-2880235D01*
X13727493Y-2880234D01*
X13727324Y-2881519D01*
X13617331Y-2867038D01*
X13617330Y-2867038D01*
X13613244Y-2866500D01*
X13386756Y-2866500D01*
X13382670Y-2867038D01*
X13382669Y-2867038D01*
X13272676Y-2881519D01*
X13272473Y-2879974D01*
X13227527Y-2879974D01*
X13227324Y-2881519D01*
X13117331Y-2867038D01*
X13117330Y-2867038D01*
X13113244Y-2866500D01*
X12886756Y-2866500D01*
X12882670Y-2867038D01*
X12882669Y-2867038D01*
X12772676Y-2881519D01*
X12772473Y-2879974D01*
X12727527Y-2879974D01*
X12727324Y-2881519D01*
X12617331Y-2867038D01*
X12617330Y-2867038D01*
X12613244Y-2866500D01*
X12386756Y-2866500D01*
X12382670Y-2867038D01*
X12382669Y-2867038D01*
X12272676Y-2881519D01*
X12272473Y-2879974D01*
X12227527Y-2879974D01*
X12227324Y-2881519D01*
X12117331Y-2867038D01*
X12117330Y-2867038D01*
X12113244Y-2866500D01*
X11886756Y-2866500D01*
X11882670Y-2867038D01*
X11882669Y-2867038D01*
X11772676Y-2881519D01*
X11772473Y-2879974D01*
X11727527Y-2879974D01*
X11727324Y-2881519D01*
X11617331Y-2867038D01*
X11617330Y-2867038D01*
X11613244Y-2866500D01*
X11386756Y-2866500D01*
X11382670Y-2867038D01*
X11382669Y-2867038D01*
X11343847Y-2872149D01*
X11272676Y-2881519D01*
X11265049Y-2884678D01*
X11265046Y-2884679D01*
X11236670Y-2896433D01*
X11130732Y-2940314D01*
X11008843Y-3033843D01*
X11003817Y-3040393D01*
X11003816Y-3040394D01*
X10988659Y-3060147D01*
X10915314Y-3155733D01*
X10856519Y-3297676D01*
X10841500Y-3411756D01*
X10841500Y-3715500D01*
X10821498Y-3783621D01*
X10767842Y-3830114D01*
X10715500Y-3841500D01*
X10411756Y-3841500D01*
X10407670Y-3842038D01*
X10407669Y-3842038D01*
X10368847Y-3847149D01*
X10297676Y-3856519D01*
X10290049Y-3859678D01*
X10290046Y-3859679D01*
X10258500Y-3872746D01*
X10155732Y-3915314D01*
X10033843Y-4008843D01*
X9940314Y-4130733D01*
X9881519Y-4272676D01*
X9881171Y-4275320D01*
X9845570Y-4333732D01*
X9781710Y-4364755D01*
X9760812Y-4366500D01*
X9759500Y-4366500D01*
X9691379Y-4346498D01*
X9644886Y-4292842D01*
X9633500Y-4240500D01*
X9633500Y-2564595D01*
X9653502Y-2496474D01*
X9670405Y-2475499D01*
X10325384Y-1820521D01*
X10387696Y-1786496D01*
X10458512Y-1791561D01*
X10502400Y-1819363D01*
X10545270Y-1861125D01*
X10545276Y-1861130D01*
X10549410Y-1865157D01*
X10554206Y-1868362D01*
X10554209Y-1868364D01*
X10692264Y-1960609D01*
X10718803Y-1978342D01*
X10724106Y-1980620D01*
X10724109Y-1980622D01*
X10893192Y-2053266D01*
X10905987Y-2058763D01*
X10963846Y-2071855D01*
X11099055Y-2102450D01*
X11099060Y-2102451D01*
X11104692Y-2103725D01*
X11110463Y-2103952D01*
X11110465Y-2103952D01*
X11173470Y-2106427D01*
X11308263Y-2111723D01*
X11509883Y-2082490D01*
X11515347Y-2080635D01*
X11515352Y-2080634D01*
X11697327Y-2018862D01*
X11697332Y-2018860D01*
X11702799Y-2017004D01*
X11739587Y-1996402D01*
X11777567Y-1975132D01*
X11880551Y-1917458D01*
X12037186Y-1787186D01*
X12088029Y-1726054D01*
X12127221Y-1678931D01*
X12186159Y-1639347D01*
X12224095Y-1633500D01*
X15683042Y-1633500D01*
X15751163Y-1653502D01*
G37*
%TD.AperFunction*%
M02*
