G04 #@! TF.GenerationSoftware,KiCad,Pcbnew,7.0.1*
G04 #@! TF.CreationDate,2023-04-10T20:51:59+02:00*
G04 #@! TF.ProjectId,nucleo144 and 3.2 lcd parallel module,6e75636c-656f-4313-9434-20616e642033,rev?*
G04 #@! TF.SameCoordinates,PX68e7780PY7bfa480*
G04 #@! TF.FileFunction,Copper,L2,Bot*
G04 #@! TF.FilePolarity,Positive*
%FSLAX46Y46*%
G04 Gerber Fmt 4.6, Leading zero omitted, Abs format (unit mm)*
G04 Created by KiCad (PCBNEW 7.0.1) date 2023-04-10 20:51:59*
%MOMM*%
%LPD*%
G01*
G04 APERTURE LIST*
G04 #@! TA.AperFunction,ComponentPad*
%ADD10R,1.700000X1.700000*%
G04 #@! TD*
G04 #@! TA.AperFunction,ComponentPad*
%ADD11O,1.700000X1.700000*%
G04 #@! TD*
G04 #@! TA.AperFunction,ComponentPad*
%ADD12C,1.700000*%
G04 #@! TD*
G04 #@! TA.AperFunction,ViaPad*
%ADD13C,1.500000*%
G04 #@! TD*
G04 #@! TA.AperFunction,Conductor*
%ADD14C,0.400000*%
G04 #@! TD*
G04 APERTURE END LIST*
D10*
G04 #@! TO.P,TFT1,1,CS*
G04 #@! TO.N,LCD_CS*
X91374000Y55419000D03*
D11*
G04 #@! TO.P,TFT1,2,RS*
G04 #@! TO.N,LCD_RS*
X93914000Y55419000D03*
G04 #@! TO.P,TFT1,3,WR*
G04 #@! TO.N,LCD_WR*
X91374000Y52879000D03*
G04 #@! TO.P,TFT1,4,RD*
G04 #@! TO.N,LCD_RD*
X93914000Y52879000D03*
G04 #@! TO.P,TFT1,5,RST*
G04 #@! TO.N,LCD_RST*
X91374000Y50339000D03*
G04 #@! TO.P,TFT1,6,DB0*
G04 #@! TO.N,D0*
X93914000Y50339000D03*
G04 #@! TO.P,TFT1,7,DB1*
G04 #@! TO.N,D1*
X91374000Y47799000D03*
G04 #@! TO.P,TFT1,8,DB2*
G04 #@! TO.N,D2*
X93914000Y47799000D03*
G04 #@! TO.P,TFT1,9,DB3*
G04 #@! TO.N,D3*
X91374000Y45259000D03*
G04 #@! TO.P,TFT1,10,DB4*
G04 #@! TO.N,D4*
X93914000Y45259000D03*
G04 #@! TO.P,TFT1,11,DB5*
G04 #@! TO.N,D5*
X91374000Y42719000D03*
G04 #@! TO.P,TFT1,12,DB6*
G04 #@! TO.N,D6*
X93914000Y42719000D03*
G04 #@! TO.P,TFT1,13,DB7*
G04 #@! TO.N,D7*
X91374000Y40179000D03*
G04 #@! TO.P,TFT1,14,DB8*
G04 #@! TO.N,D8*
X93914000Y40179000D03*
G04 #@! TO.P,TFT1,15,DB9*
G04 #@! TO.N,D9*
X91374000Y37639000D03*
G04 #@! TO.P,TFT1,16,DB10*
G04 #@! TO.N,D10*
X93914000Y37639000D03*
G04 #@! TO.P,TFT1,17,DB11*
G04 #@! TO.N,D11*
X91374000Y35099000D03*
G04 #@! TO.P,TFT1,18,DB12*
G04 #@! TO.N,D12*
X93914000Y35099000D03*
G04 #@! TO.P,TFT1,19,DB13*
G04 #@! TO.N,D13*
X91374000Y32559000D03*
G04 #@! TO.P,TFT1,20,DB14*
G04 #@! TO.N,D14*
X93914000Y32559000D03*
G04 #@! TO.P,TFT1,21,DB15*
G04 #@! TO.N,D15*
X91374000Y30019000D03*
G04 #@! TO.P,TFT1,22,SDCS*
G04 #@! TO.N,SD_CS*
X93914000Y30019000D03*
G04 #@! TO.P,TFT1,23,BL*
G04 #@! TO.N,LCD_BL*
X91374000Y27479000D03*
G04 #@! TO.P,TFT1,24,5V*
G04 #@! TO.N,5V*
X93914000Y27479000D03*
G04 #@! TO.P,TFT1,25,5V*
X91374000Y24939000D03*
G04 #@! TO.P,TFT1,26,GND*
G04 #@! TO.N,GND*
X93914000Y24939000D03*
G04 #@! TO.P,TFT1,27,GND*
X91374000Y22399000D03*
G04 #@! TO.P,TFT1,28,NC*
G04 #@! TO.N,unconnected-(TFT1-NC-Pad28)*
X93914000Y22399000D03*
G04 #@! TO.P,TFT1,29,MISO*
G04 #@! TO.N,SPI_MISO*
X91374000Y19859000D03*
G04 #@! TO.P,TFT1,30,MOSI*
G04 #@! TO.N,SPI_MOSI*
X93914000Y19859000D03*
G04 #@! TO.P,TFT1,31,PEN*
G04 #@! TO.N,PEN*
X91374000Y17319000D03*
G04 #@! TO.P,TFT1,32,F_CS*
G04 #@! TO.N,F_CS*
X93914000Y17319000D03*
G04 #@! TO.P,TFT1,33,T_CS*
G04 #@! TO.N,T_CS*
X91374000Y14779000D03*
G04 #@! TO.P,TFT1,34,CLK*
G04 #@! TO.N,SPI_CLK*
X93914000Y14779000D03*
G04 #@! TD*
D12*
G04 #@! TO.P,U1,1,PC10*
G04 #@! TO.N,unconnected-(U1-PC10-Pad1)*
X5564000Y3377000D03*
G04 #@! TO.P,U1,2,PC11*
G04 #@! TO.N,unconnected-(U1-PC11-Pad2)*
X5564000Y5917000D03*
G04 #@! TO.P,U1,3,PC12*
G04 #@! TO.N,unconnected-(U1-PC12-Pad3)*
X8104000Y3377000D03*
G04 #@! TO.P,U1,4,PD2*
G04 #@! TO.N,unconnected-(U1-PD2-Pad4)*
X8104000Y5917000D03*
G04 #@! TO.P,U1,5,VDD*
G04 #@! TO.N,unconnected-(U1-VDD-Pad5)*
X10644000Y3377000D03*
G04 #@! TO.P,U1,6,E5V*
G04 #@! TO.N,unconnected-(U1-E5V-Pad6)*
X10644000Y5917000D03*
G04 #@! TO.P,U1,7,~{BOOT0}*
G04 #@! TO.N,unconnected-(U1-~{BOOT0}-Pad7)*
X13184000Y3377000D03*
G04 #@! TO.P,U1,8,GND*
G04 #@! TO.N,GND*
X13184000Y5917000D03*
G04 #@! TO.P,U1,9,PF6*
G04 #@! TO.N,unconnected-(U1-PF6-Pad9)*
X15724000Y3377000D03*
G04 #@! TO.P,U1,10,NC*
G04 #@! TO.N,unconnected-(U1-NC-Pad10)*
X15724000Y5917000D03*
G04 #@! TO.P,U1,11,PF7*
G04 #@! TO.N,unconnected-(U1-PF7-Pad11)*
X18264000Y3377000D03*
G04 #@! TO.P,U1,12,IOREF*
G04 #@! TO.N,unconnected-(U1-IOREF-Pad12)*
X18264000Y5917000D03*
G04 #@! TO.P,U1,13,TMS/PA13*
G04 #@! TO.N,unconnected-(U1-TMS{slash}PA13-Pad13)*
X20804000Y3377000D03*
G04 #@! TO.P,U1,14,~{RST}*
G04 #@! TO.N,unconnected-(U1-~{RST}-Pad14)*
X20804000Y5917000D03*
G04 #@! TO.P,U1,15,TCK/PA14*
G04 #@! TO.N,unconnected-(U1-TCK{slash}PA14-Pad15)*
X23344000Y3377000D03*
G04 #@! TO.P,U1,16,+3V3*
G04 #@! TO.N,unconnected-(U1-+3V3-Pad16)*
X23344000Y5917000D03*
G04 #@! TO.P,U1,17,PA15*
G04 #@! TO.N,unconnected-(U1-PA15-Pad17)*
X25884000Y3377000D03*
G04 #@! TO.P,U1,18,+5V*
G04 #@! TO.N,5V*
X25884000Y5917000D03*
G04 #@! TO.P,U1,19,GND*
G04 #@! TO.N,GND*
X28424000Y3377000D03*
G04 #@! TO.P,U1,20,GND*
X28424000Y5917000D03*
G04 #@! TO.P,U1,21,LD2/PB7*
G04 #@! TO.N,unconnected-(U1-LD2{slash}PB7-Pad21)*
X30964000Y3377000D03*
G04 #@! TO.P,U1,22,GND*
G04 #@! TO.N,GND*
X30964000Y5917000D03*
G04 #@! TO.P,U1,23,BT/PC13*
G04 #@! TO.N,unconnected-(U1-BT{slash}PC13-Pad23)*
X33504000Y3377000D03*
G04 #@! TO.P,U1,24,VIN*
G04 #@! TO.N,unconnected-(U1-VIN-Pad24)*
X33504000Y5917000D03*
G04 #@! TO.P,U1,25,RTC_CRYSTAL/PC14*
G04 #@! TO.N,unconnected-(U1-RTC_CRYSTAL{slash}PC14-Pad25)*
X36044000Y3377000D03*
G04 #@! TO.P,U1,26,NC*
G04 #@! TO.N,unconnected-(U1-NC-Pad26)*
X36044000Y5917000D03*
G04 #@! TO.P,U1,27,RTC_CRYSTAL/PC15*
G04 #@! TO.N,unconnected-(U1-RTC_CRYSTAL{slash}PC15-Pad27)*
X38584000Y3377000D03*
G04 #@! TO.P,U1,28,ETH_REF_CLK/PA0*
G04 #@! TO.N,unconnected-(U1-ETH_REF_CLK{slash}PA0-Pad28)*
X38584000Y5917000D03*
G04 #@! TO.P,U1,29,PH0*
G04 #@! TO.N,unconnected-(U1-PH0-Pad29)*
X41124000Y3377000D03*
G04 #@! TO.P,U1,30,ETH_MDIO/PA1*
G04 #@! TO.N,unconnected-(U1-ETH_MDIO{slash}PA1-Pad30)*
X41124000Y5917000D03*
G04 #@! TO.P,U1,31,PH1*
G04 #@! TO.N,unconnected-(U1-PH1-Pad31)*
X43664000Y3377000D03*
G04 #@! TO.P,U1,32,PA4*
G04 #@! TO.N,unconnected-(U1-PA4-Pad32)*
X43664000Y5917000D03*
G04 #@! TO.P,U1,33,VBAT*
G04 #@! TO.N,unconnected-(U1-VBAT-Pad33)*
X46204000Y3377000D03*
G04 #@! TO.P,U1,34,PB0*
G04 #@! TO.N,unconnected-(U1-PB0-Pad34)*
X46204000Y5917000D03*
G04 #@! TO.P,U1,35,PC2*
G04 #@! TO.N,LCD_BL*
X48744000Y3377000D03*
G04 #@! TO.P,U1,36,ETH_MDC/PC1*
G04 #@! TO.N,unconnected-(U1-ETH_MDC{slash}PC1-Pad36)*
X48744000Y5917000D03*
G04 #@! TO.P,U1,37,PC3*
G04 #@! TO.N,PEN*
X51284000Y3377000D03*
G04 #@! TO.P,U1,38,PC0*
G04 #@! TO.N,LCD_RST*
X51284000Y5917000D03*
G04 #@! TO.P,U1,39,PD4*
G04 #@! TO.N,LCD_RD*
X53824000Y3377000D03*
G04 #@! TO.P,U1,40,PD3*
G04 #@! TO.N,unconnected-(U1-PD3-Pad40)*
X53824000Y5917000D03*
G04 #@! TO.P,U1,41,PD5*
G04 #@! TO.N,LCD_WR*
X56364000Y3377000D03*
G04 #@! TO.P,U1,42,PG2*
G04 #@! TO.N,unconnected-(U1-PG2-Pad42)*
X56364000Y5917000D03*
G04 #@! TO.P,U1,43,PD6*
G04 #@! TO.N,unconnected-(U1-PD6-Pad43)*
X58904000Y3377000D03*
G04 #@! TO.P,U1,44,PG3*
G04 #@! TO.N,unconnected-(U1-PG3-Pad44)*
X58904000Y5917000D03*
G04 #@! TO.P,U1,45,PD7*
G04 #@! TO.N,LCD_CS*
X61444000Y3377000D03*
G04 #@! TO.P,U1,46,PE2*
G04 #@! TO.N,unconnected-(U1-PE2-Pad46)*
X61444000Y5917000D03*
G04 #@! TO.P,U1,47,PE3*
G04 #@! TO.N,unconnected-(U1-PE3-Pad47)*
X63984000Y3377000D03*
G04 #@! TO.P,U1,48,PE4*
G04 #@! TO.N,unconnected-(U1-PE4-Pad48)*
X63984000Y5917000D03*
G04 #@! TO.P,U1,49,GND*
G04 #@! TO.N,GND*
X66524000Y3377000D03*
G04 #@! TO.P,U1,50,PE5*
G04 #@! TO.N,unconnected-(U1-PE5-Pad50)*
X66524000Y5917000D03*
G04 #@! TO.P,U1,51,PF1*
G04 #@! TO.N,unconnected-(U1-PF1-Pad51)*
X69064000Y3377000D03*
G04 #@! TO.P,U1,52,PF2*
G04 #@! TO.N,unconnected-(U1-PF2-Pad52)*
X69064000Y5917000D03*
G04 #@! TO.P,U1,53,PF0*
G04 #@! TO.N,unconnected-(U1-PF0-Pad53)*
X71604000Y3377000D03*
G04 #@! TO.P,U1,54,PF8*
G04 #@! TO.N,unconnected-(U1-PF8-Pad54)*
X71604000Y5917000D03*
G04 #@! TO.P,U1,55,PD1*
G04 #@! TO.N,D3*
X74144000Y3377000D03*
G04 #@! TO.P,U1,56,PF9*
G04 #@! TO.N,unconnected-(U1-PF9-Pad56)*
X74144000Y5917000D03*
G04 #@! TO.P,U1,57,PD0*
G04 #@! TO.N,D2*
X76684000Y3377000D03*
G04 #@! TO.P,U1,58,PG1*
G04 #@! TO.N,unconnected-(U1-PG1-Pad58)*
X76684000Y5917000D03*
G04 #@! TO.P,U1,59,PG0*
G04 #@! TO.N,unconnected-(U1-PG0-Pad59)*
X79224000Y3377000D03*
G04 #@! TO.P,U1,60,GND*
G04 #@! TO.N,GND*
X79224000Y5917000D03*
G04 #@! TO.P,U1,61,PE1*
G04 #@! TO.N,unconnected-(U1-PE1-Pad61)*
X81764000Y3377000D03*
G04 #@! TO.P,U1,62,PE6*
G04 #@! TO.N,unconnected-(U1-PE6-Pad62)*
X81764000Y5917000D03*
G04 #@! TO.P,U1,63,PG9*
G04 #@! TO.N,unconnected-(U1-PG9-Pad63)*
X84304000Y3377000D03*
G04 #@! TO.P,U1,64,PG15*
G04 #@! TO.N,unconnected-(U1-PG15-Pad64)*
X84304000Y5917000D03*
G04 #@! TO.P,U1,65,PG12*
G04 #@! TO.N,unconnected-(U1-PG12-Pad65)*
X86844000Y3377000D03*
G04 #@! TO.P,U1,66,PG10*
G04 #@! TO.N,unconnected-(U1-PG10-Pad66)*
X86844000Y5917000D03*
G04 #@! TO.P,U1,67,NC*
G04 #@! TO.N,unconnected-(U1-NC-Pad67)*
X89384000Y3377000D03*
G04 #@! TO.P,U1,68,PG13/ETH_TXD0*
G04 #@! TO.N,unconnected-(U1-PG13{slash}ETH_TXD0-Pad68)*
X89384000Y5917000D03*
G04 #@! TO.P,U1,69,STLINK_RX/PD9*
G04 #@! TO.N,D14*
X91924000Y3377000D03*
G04 #@! TO.P,U1,70,PG11/ETH_TX_EN*
G04 #@! TO.N,unconnected-(U1-PG11{slash}ETH_TX_EN-Pad70)*
X91924000Y5917000D03*
G04 #@! TO.P,U1,71,GND*
G04 #@! TO.N,GND*
X94464000Y3377000D03*
G04 #@! TO.P,U1,72,GND*
X94464000Y5917000D03*
G04 #@! TO.P,U1,73,PC9*
G04 #@! TO.N,unconnected-(U1-PC9-Pad73)*
X5564000Y64337000D03*
G04 #@! TO.P,U1,74,PC8*
G04 #@! TO.N,unconnected-(U1-PC8-Pad74)*
X5564000Y66877000D03*
G04 #@! TO.P,U1,75,PB8*
G04 #@! TO.N,unconnected-(U1-PB8-Pad75)*
X8104000Y64337000D03*
G04 #@! TO.P,U1,76,PC6*
G04 #@! TO.N,unconnected-(U1-PC6-Pad76)*
X8104000Y66877000D03*
G04 #@! TO.P,U1,77,PB9*
G04 #@! TO.N,unconnected-(U1-PB9-Pad77)*
X10644000Y64337000D03*
G04 #@! TO.P,U1,78,ETH_RXD1/PC5*
G04 #@! TO.N,unconnected-(U1-ETH_RXD1{slash}PC5-Pad78)*
X10644000Y66877000D03*
G04 #@! TO.P,U1,79,AVDD*
G04 #@! TO.N,unconnected-(U1-AVDD-Pad79)*
X13184000Y64337000D03*
G04 #@! TO.P,U1,80,U5V*
G04 #@! TO.N,unconnected-(U1-U5V-Pad80)*
X13184000Y66877000D03*
G04 #@! TO.P,U1,81,GND*
G04 #@! TO.N,GND*
X15724000Y64337000D03*
G04 #@! TO.P,U1,82,STLINK_TX/PD8*
G04 #@! TO.N,D13*
X15724000Y66877000D03*
G04 #@! TO.P,U1,83,PA5*
G04 #@! TO.N,SPI_CLK*
X18264000Y64337000D03*
G04 #@! TO.P,U1,84,USB_DP/PA12*
G04 #@! TO.N,unconnected-(U1-USB_DP{slash}PA12-Pad84)*
X18264000Y66877000D03*
G04 #@! TO.P,U1,85,PA6*
G04 #@! TO.N,SPI_MISO*
X20804000Y64337000D03*
G04 #@! TO.P,U1,86,USB_DM/PA11*
G04 #@! TO.N,unconnected-(U1-USB_DM{slash}PA11-Pad86)*
X20804000Y66877000D03*
G04 #@! TO.P,U1,87,ETH_CRS_DV/PA7*
G04 #@! TO.N,unconnected-(U1-ETH_CRS_DV{slash}PA7-Pad87)*
X23344000Y64337000D03*
G04 #@! TO.P,U1,88,PB12*
G04 #@! TO.N,unconnected-(U1-PB12-Pad88)*
X23344000Y66877000D03*
G04 #@! TO.P,U1,89,PB6*
G04 #@! TO.N,unconnected-(U1-PB6-Pad89)*
X25884000Y64337000D03*
G04 #@! TO.P,U1,90,PB11*
G04 #@! TO.N,unconnected-(U1-PB11-Pad90)*
X25884000Y66877000D03*
G04 #@! TO.P,U1,91,PC7*
G04 #@! TO.N,unconnected-(U1-PC7-Pad91)*
X28424000Y64337000D03*
G04 #@! TO.P,U1,92,GND*
G04 #@! TO.N,GND*
X28424000Y66877000D03*
G04 #@! TO.P,U1,93,USB_VBUS/PA9*
G04 #@! TO.N,unconnected-(U1-USB_VBUS{slash}PA9-Pad93)*
X30964000Y64337000D03*
G04 #@! TO.P,U1,94,PB2*
G04 #@! TO.N,SD_CS*
X30964000Y66877000D03*
G04 #@! TO.P,U1,95,USB_SOF/PA8*
G04 #@! TO.N,unconnected-(U1-USB_SOF{slash}PA8-Pad95)*
X33504000Y64337000D03*
G04 #@! TO.P,U1,96,PB1*
G04 #@! TO.N,F_CS*
X33504000Y66877000D03*
G04 #@! TO.P,U1,97,PB10*
G04 #@! TO.N,unconnected-(U1-PB10-Pad97)*
X36044000Y64337000D03*
G04 #@! TO.P,U1,98,PB15*
G04 #@! TO.N,unconnected-(U1-PB15-Pad98)*
X36044000Y66877000D03*
G04 #@! TO.P,U1,99,PB4*
G04 #@! TO.N,unconnected-(U1-PB4-Pad99)*
X38584000Y64337000D03*
G04 #@! TO.P,U1,100,LD3/PB14*
G04 #@! TO.N,unconnected-(U1-LD3{slash}PB14-Pad100)*
X38584000Y66877000D03*
G04 #@! TO.P,U1,101,PB5*
G04 #@! TO.N,SPI_MOSI*
X41124000Y64337000D03*
G04 #@! TO.P,U1,102,ETH_TXD1/PB13*
G04 #@! TO.N,unconnected-(U1-ETH_TXD1{slash}PB13-Pad102)*
X41124000Y66877000D03*
G04 #@! TO.P,U1,103,SWO/PB3*
G04 #@! TO.N,unconnected-(U1-SWO{slash}PB3-Pad103)*
X43664000Y64337000D03*
G04 #@! TO.P,U1,104,AGND*
G04 #@! TO.N,unconnected-(U1-AGND-Pad104)*
X43664000Y66877000D03*
G04 #@! TO.P,U1,105,USB_ID/PA10*
G04 #@! TO.N,unconnected-(U1-USB_ID{slash}PA10-Pad105)*
X46204000Y64337000D03*
G04 #@! TO.P,U1,106,ETH_RXD0/PC4*
G04 #@! TO.N,unconnected-(U1-ETH_RXD0{slash}PC4-Pad106)*
X46204000Y66877000D03*
G04 #@! TO.P,U1,107,PA2*
G04 #@! TO.N,unconnected-(U1-PA2-Pad107)*
X48744000Y64337000D03*
G04 #@! TO.P,U1,108,PF5*
G04 #@! TO.N,unconnected-(U1-PF5-Pad108)*
X48744000Y66877000D03*
G04 #@! TO.P,U1,109,PA3*
G04 #@! TO.N,T_CS*
X51284000Y64337000D03*
G04 #@! TO.P,U1,110,PF4*
G04 #@! TO.N,unconnected-(U1-PF4-Pad110)*
X51284000Y66877000D03*
G04 #@! TO.P,U1,111,GND*
G04 #@! TO.N,GND*
X53824000Y64337000D03*
G04 #@! TO.P,U1,112,PE8*
G04 #@! TO.N,D5*
X53824000Y66877000D03*
G04 #@! TO.P,U1,113,PD13*
G04 #@! TO.N,unconnected-(U1-PD13-Pad113)*
X56364000Y64337000D03*
G04 #@! TO.P,U1,114,PF10*
G04 #@! TO.N,unconnected-(U1-PF10-Pad114)*
X56364000Y66877000D03*
G04 #@! TO.P,U1,115,PD12*
G04 #@! TO.N,unconnected-(U1-PD12-Pad115)*
X58904000Y64337000D03*
G04 #@! TO.P,U1,116,PE7*
G04 #@! TO.N,D4*
X58904000Y66877000D03*
G04 #@! TO.P,U1,117,PD11*
G04 #@! TO.N,LCD_RS*
X61444000Y64337000D03*
G04 #@! TO.P,U1,118,PD14*
G04 #@! TO.N,D0*
X61444000Y66877000D03*
G04 #@! TO.P,U1,119,PE10*
G04 #@! TO.N,D7*
X63984000Y64337000D03*
G04 #@! TO.P,U1,120,PD15*
G04 #@! TO.N,D1*
X63984000Y66877000D03*
G04 #@! TO.P,U1,121,PE12*
G04 #@! TO.N,D9*
X66524000Y64337000D03*
G04 #@! TO.P,U1,122,PF14*
G04 #@! TO.N,unconnected-(U1-PF14-Pad122)*
X66524000Y66877000D03*
G04 #@! TO.P,U1,123,PE14*
G04 #@! TO.N,D11*
X69064000Y64337000D03*
G04 #@! TO.P,U1,124,PE9*
G04 #@! TO.N,D6*
X69064000Y66877000D03*
G04 #@! TO.P,U1,125,PE15*
G04 #@! TO.N,D12*
X71604000Y64337000D03*
G04 #@! TO.P,U1,126,GND*
G04 #@! TO.N,GND*
X71604000Y66877000D03*
G04 #@! TO.P,U1,127,PE13*
G04 #@! TO.N,D10*
X74144000Y64337000D03*
G04 #@! TO.P,U1,128,PE11*
G04 #@! TO.N,D8*
X74144000Y66877000D03*
G04 #@! TO.P,U1,129,PF13*
G04 #@! TO.N,unconnected-(U1-PF13-Pad129)*
X76684000Y64337000D03*
G04 #@! TO.P,U1,130,PF3*
G04 #@! TO.N,unconnected-(U1-PF3-Pad130)*
X76684000Y66877000D03*
G04 #@! TO.P,U1,131,PF12*
G04 #@! TO.N,unconnected-(U1-PF12-Pad131)*
X79224000Y64337000D03*
G04 #@! TO.P,U1,132,PF15*
G04 #@! TO.N,unconnected-(U1-PF15-Pad132)*
X79224000Y66877000D03*
G04 #@! TO.P,U1,133,PG14*
G04 #@! TO.N,unconnected-(U1-PG14-Pad133)*
X81764000Y64337000D03*
G04 #@! TO.P,U1,134,PF11*
G04 #@! TO.N,unconnected-(U1-PF11-Pad134)*
X81764000Y66877000D03*
G04 #@! TO.P,U1,135,GND*
G04 #@! TO.N,GND*
X84304000Y64337000D03*
G04 #@! TO.P,U1,136,PE0*
G04 #@! TO.N,unconnected-(U1-PE0-Pad136)*
X84304000Y66877000D03*
G04 #@! TO.P,U1,137,PD10*
G04 #@! TO.N,D15*
X86844000Y64337000D03*
G04 #@! TO.P,U1,138,PG8*
G04 #@! TO.N,unconnected-(U1-PG8-Pad138)*
X86844000Y66877000D03*
G04 #@! TO.P,U1,139,PG7/USB_GPIO_IN*
G04 #@! TO.N,unconnected-(U1-PG7{slash}USB_GPIO_IN-Pad139)*
X89384000Y64337000D03*
G04 #@! TO.P,U1,140,PG5*
G04 #@! TO.N,unconnected-(U1-PG5-Pad140)*
X89384000Y66877000D03*
G04 #@! TO.P,U1,141,PG4*
G04 #@! TO.N,unconnected-(U1-PG4-Pad141)*
X91924000Y64337000D03*
G04 #@! TO.P,U1,142,PG6/USB_GPIO_OUT*
G04 #@! TO.N,unconnected-(U1-PG6{slash}USB_GPIO_OUT-Pad142)*
X91924000Y66877000D03*
G04 #@! TO.P,U1,143,GND*
G04 #@! TO.N,GND*
X94464000Y64337000D03*
G04 #@! TO.P,U1,144,GND*
X94464000Y66877000D03*
G04 #@! TD*
D13*
G04 #@! TO.N,5V*
X25985000Y25122000D03*
G04 #@! TO.N,LCD_RD*
X53798000Y54332000D03*
G04 #@! TO.N,LCD_WR*
X55195000Y52808000D03*
G04 #@! TO.N,LCD_CS*
X60148000Y55475000D03*
G04 #@! TO.N,LCD_RST*
X51258000Y50395000D03*
G04 #@! TO.N,LCD_RS*
X61545000Y58015000D03*
G04 #@! TO.N,LCD_BL*
X47448000Y27662000D03*
G04 #@! TO.N,SPI_MISO*
X20778000Y20042000D03*
G04 #@! TO.N,SPI_MOSI*
X41098000Y21185000D03*
G04 #@! TO.N,PEN*
X49988000Y17375000D03*
G04 #@! TO.N,F_CS*
X32335000Y18645000D03*
G04 #@! TO.N,T_CS*
X48718000Y14835000D03*
G04 #@! TO.N,SPI_CLK*
X18365000Y16613000D03*
G04 #@! TO.N,SD_CS*
X29668000Y29059000D03*
G04 #@! TO.N,D0*
X58497000Y51665000D03*
G04 #@! TO.N,D1*
X62815000Y47855000D03*
G04 #@! TO.N,D2*
X75515000Y48948500D03*
G04 #@! TO.N,D3*
X72848000Y45442000D03*
G04 #@! TO.N,D4*
X57481000Y46839000D03*
G04 #@! TO.N,D5*
X52782000Y42775000D03*
G04 #@! TO.N,D6*
X67768000Y44045000D03*
G04 #@! TO.N,D7*
X63958000Y40235000D03*
G04 #@! TO.N,D8*
X74118000Y41378000D03*
G04 #@! TO.N,D9*
X66498000Y37695000D03*
G04 #@! TO.N,D10*
X77166000Y38965000D03*
G04 #@! TO.N,D11*
X69038000Y35155000D03*
G04 #@! TO.N,D12*
X71324000Y36425000D03*
G04 #@! TO.N,D13*
X14428000Y32488000D03*
G04 #@! TO.N,D14*
X88850000Y33885000D03*
G04 #@! TO.N,D15*
X86945000Y30202000D03*
G04 #@! TD*
D14*
G04 #@! TO.N,5V*
X93914000Y27479000D02*
X91374000Y24939000D01*
X91374000Y24939000D02*
X26168000Y24939000D01*
X26168000Y24939000D02*
X25985000Y25122000D01*
G04 #@! TO.N,LCD_RD*
X54001000Y54129000D02*
X53798000Y54332000D01*
X93914000Y52879000D02*
X92664000Y54129000D01*
X92664000Y54129000D02*
X54001000Y54129000D01*
G04 #@! TO.N,LCD_WR*
X55266000Y52879000D02*
X55195000Y52808000D01*
X91374000Y52879000D02*
X55266000Y52879000D01*
G04 #@! TO.N,LCD_CS*
X60204000Y55419000D02*
X60148000Y55475000D01*
X91374000Y55419000D02*
X60204000Y55419000D01*
G04 #@! TO.N,LCD_RST*
X51314000Y50339000D02*
X51258000Y50395000D01*
X91374000Y50339000D02*
X51314000Y50339000D01*
G04 #@! TO.N,LCD_RS*
X89500000Y57000000D02*
X88485000Y58015000D01*
X89500000Y57000000D02*
X92333000Y57000000D01*
X92333000Y57000000D02*
X93914000Y55419000D01*
X88485000Y58015000D02*
X61545000Y58015000D01*
G04 #@! TO.N,LCD_BL*
X91374000Y27479000D02*
X47631000Y27479000D01*
X47631000Y27479000D02*
X47448000Y27662000D01*
G04 #@! TO.N,GND*
X93914000Y24939000D02*
X91374000Y22399000D01*
G04 #@! TO.N,SPI_MISO*
X91374000Y19859000D02*
X20961000Y19859000D01*
X20961000Y19859000D02*
X20778000Y20042000D01*
G04 #@! TO.N,SPI_MOSI*
X92664000Y21109000D02*
X41174000Y21109000D01*
X93914000Y19859000D02*
X92664000Y21109000D01*
X41174000Y21109000D02*
X41098000Y21185000D01*
G04 #@! TO.N,PEN*
X91374000Y17319000D02*
X50044000Y17319000D01*
X50044000Y17319000D02*
X49988000Y17375000D01*
G04 #@! TO.N,F_CS*
X32411000Y18569000D02*
X32335000Y18645000D01*
X93914000Y17319000D02*
X92664000Y18569000D01*
X92664000Y18569000D02*
X32411000Y18569000D01*
G04 #@! TO.N,T_CS*
X48774000Y14779000D02*
X48718000Y14835000D01*
X91374000Y14779000D02*
X48774000Y14779000D01*
G04 #@! TO.N,SPI_CLK*
X18238000Y16232000D02*
X18365000Y16359000D01*
X18441000Y16029000D02*
X18238000Y16232000D01*
X93914000Y14779000D02*
X92664000Y16029000D01*
X18365000Y16359000D02*
X18365000Y16613000D01*
X92664000Y16029000D02*
X18441000Y16029000D01*
G04 #@! TO.N,SD_CS*
X92664000Y28769000D02*
X47967346Y28769000D01*
X93914000Y30019000D02*
X92664000Y28769000D01*
X47967346Y28769000D02*
X47677346Y29059000D01*
X47677346Y29059000D02*
X29668000Y29059000D01*
G04 #@! TO.N,D0*
X92624000Y51629000D02*
X58533000Y51629000D01*
X93914000Y50339000D02*
X92624000Y51629000D01*
X58533000Y51629000D02*
X58497000Y51665000D01*
G04 #@! TO.N,D1*
X62871000Y47799000D02*
X62815000Y47855000D01*
X91374000Y47799000D02*
X62871000Y47799000D01*
G04 #@! TO.N,D2*
X75615500Y49049000D02*
X75515000Y48948500D01*
X92664000Y49049000D02*
X75615500Y49049000D01*
X93914000Y47799000D02*
X92664000Y49049000D01*
G04 #@! TO.N,D3*
X73031000Y45259000D02*
X72848000Y45442000D01*
X91374000Y45259000D02*
X73031000Y45259000D01*
G04 #@! TO.N,D4*
X73407346Y46509000D02*
X73211346Y46705000D01*
X93914000Y45259000D02*
X92664000Y46509000D01*
X57615000Y46705000D02*
X57481000Y46839000D01*
X92664000Y46509000D02*
X73407346Y46509000D01*
X73211346Y46705000D02*
X57615000Y46705000D01*
G04 #@! TO.N,D5*
X52838000Y42719000D02*
X52782000Y42775000D01*
X91374000Y42719000D02*
X52838000Y42719000D01*
G04 #@! TO.N,D6*
X93914000Y42719000D02*
X92664000Y43969000D01*
X67844000Y43969000D02*
X67768000Y44045000D01*
X92664000Y43969000D02*
X67844000Y43969000D01*
G04 #@! TO.N,D7*
X91374000Y40179000D02*
X64014000Y40179000D01*
X64014000Y40179000D02*
X63958000Y40235000D01*
G04 #@! TO.N,D8*
X93914000Y40179000D02*
X92664000Y41429000D01*
X74169000Y41429000D02*
X74118000Y41378000D01*
X92664000Y41429000D02*
X74169000Y41429000D01*
G04 #@! TO.N,D9*
X66554000Y37639000D02*
X66498000Y37695000D01*
X91374000Y37639000D02*
X66554000Y37639000D01*
G04 #@! TO.N,D10*
X92664000Y38889000D02*
X77242000Y38889000D01*
X77242000Y38889000D02*
X77166000Y38965000D01*
X93914000Y37639000D02*
X92664000Y38889000D01*
G04 #@! TO.N,D11*
X91374000Y35099000D02*
X69094000Y35099000D01*
X69094000Y35099000D02*
X69038000Y35155000D01*
G04 #@! TO.N,D12*
X93914000Y35099000D02*
X92664000Y36349000D01*
X92664000Y36349000D02*
X71400000Y36349000D01*
X71400000Y36349000D02*
X71324000Y36425000D01*
G04 #@! TO.N,D13*
X91374000Y32559000D02*
X14499000Y32559000D01*
X14499000Y32559000D02*
X14428000Y32488000D01*
G04 #@! TO.N,D14*
X93914000Y32559000D02*
X92664000Y33809000D01*
X88926000Y33809000D02*
X88850000Y33885000D01*
X92664000Y33809000D02*
X88926000Y33809000D01*
G04 #@! TO.N,D15*
X91374000Y30019000D02*
X87128000Y30019000D01*
X87128000Y30019000D02*
X86945000Y30202000D01*
G04 #@! TD*
G04 #@! TA.AperFunction,Conductor*
G04 #@! TO.N,GND*
G36*
X92701562Y24292461D02*
G01*
X92745880Y24253596D01*
X92875893Y24067919D01*
X93042918Y23900894D01*
X93228595Y23770881D01*
X93267460Y23726563D01*
X93281471Y23669306D01*
X93267460Y23612049D01*
X93228595Y23567731D01*
X93042595Y23437492D01*
X92875508Y23270405D01*
X92745269Y23084404D01*
X92700951Y23045539D01*
X92643694Y23031528D01*
X92586437Y23045539D01*
X92542119Y23084405D01*
X92412109Y23270079D01*
X92245081Y23437107D01*
X92059404Y23567120D01*
X92020539Y23611438D01*
X92006528Y23668695D01*
X92020539Y23725952D01*
X92059402Y23770268D01*
X92245401Y23900505D01*
X92412495Y24067599D01*
X92542732Y24253598D01*
X92587048Y24292461D01*
X92644305Y24306472D01*
X92701562Y24292461D01*
G37*
G04 #@! TD.AperFunction*
G04 #@! TA.AperFunction,Conductor*
G36*
X99737500Y69782887D02*
G01*
X99782887Y69737500D01*
X99799500Y69675500D01*
X99799500Y324500D01*
X99782887Y262500D01*
X99737500Y217113D01*
X99675500Y200500D01*
X324500Y200500D01*
X262500Y217113D01*
X217113Y262500D01*
X200500Y324500D01*
X200500Y3377001D01*
X4208340Y3377001D01*
X4228936Y3141593D01*
X4260593Y3023447D01*
X4290097Y2913337D01*
X4389965Y2699170D01*
X4525505Y2505599D01*
X4692599Y2338505D01*
X4886170Y2202965D01*
X5100337Y2103097D01*
X5328592Y2041937D01*
X5564000Y2021341D01*
X5799408Y2041937D01*
X6027663Y2103097D01*
X6241830Y2202965D01*
X6435401Y2338505D01*
X6602495Y2505599D01*
X6732426Y2691161D01*
X6776743Y2730025D01*
X6834000Y2744036D01*
X6891257Y2730025D01*
X6935573Y2691161D01*
X7065505Y2505599D01*
X7232599Y2338505D01*
X7426170Y2202965D01*
X7640337Y2103097D01*
X7868592Y2041937D01*
X8104000Y2021341D01*
X8339408Y2041937D01*
X8567663Y2103097D01*
X8781830Y2202965D01*
X8975401Y2338505D01*
X9142495Y2505599D01*
X9272426Y2691161D01*
X9316743Y2730025D01*
X9374000Y2744036D01*
X9431257Y2730025D01*
X9475573Y2691161D01*
X9605505Y2505599D01*
X9772599Y2338505D01*
X9966170Y2202965D01*
X10180337Y2103097D01*
X10408592Y2041937D01*
X10644000Y2021341D01*
X10879408Y2041937D01*
X11107663Y2103097D01*
X11321830Y2202965D01*
X11515401Y2338505D01*
X11682495Y2505599D01*
X11812426Y2691161D01*
X11856743Y2730025D01*
X11914000Y2744036D01*
X11971257Y2730025D01*
X12015573Y2691161D01*
X12145505Y2505599D01*
X12312599Y2338505D01*
X12506170Y2202965D01*
X12720337Y2103097D01*
X12948592Y2041937D01*
X13184000Y2021341D01*
X13419408Y2041937D01*
X13647663Y2103097D01*
X13861830Y2202965D01*
X14055401Y2338505D01*
X14222495Y2505599D01*
X14352426Y2691161D01*
X14396743Y2730025D01*
X14454000Y2744036D01*
X14511257Y2730025D01*
X14555573Y2691161D01*
X14685505Y2505599D01*
X14852599Y2338505D01*
X15046170Y2202965D01*
X15260337Y2103097D01*
X15488592Y2041937D01*
X15724000Y2021341D01*
X15959408Y2041937D01*
X16187663Y2103097D01*
X16401830Y2202965D01*
X16595401Y2338505D01*
X16762495Y2505599D01*
X16892426Y2691161D01*
X16936743Y2730025D01*
X16994000Y2744036D01*
X17051257Y2730025D01*
X17095573Y2691161D01*
X17225505Y2505599D01*
X17392599Y2338505D01*
X17586170Y2202965D01*
X17800337Y2103097D01*
X18028592Y2041937D01*
X18264000Y2021341D01*
X18499408Y2041937D01*
X18727663Y2103097D01*
X18941830Y2202965D01*
X19135401Y2338505D01*
X19302495Y2505599D01*
X19432426Y2691161D01*
X19476743Y2730025D01*
X19534000Y2744036D01*
X19591257Y2730025D01*
X19635573Y2691161D01*
X19765505Y2505599D01*
X19932599Y2338505D01*
X20126170Y2202965D01*
X20340337Y2103097D01*
X20568592Y2041937D01*
X20804000Y2021341D01*
X21039408Y2041937D01*
X21267663Y2103097D01*
X21481830Y2202965D01*
X21675401Y2338505D01*
X21842495Y2505599D01*
X21972426Y2691161D01*
X22016743Y2730025D01*
X22074000Y2744036D01*
X22131257Y2730025D01*
X22175573Y2691161D01*
X22305505Y2505599D01*
X22472599Y2338505D01*
X22666170Y2202965D01*
X22880337Y2103097D01*
X23108592Y2041937D01*
X23344000Y2021341D01*
X23579408Y2041937D01*
X23807663Y2103097D01*
X24021830Y2202965D01*
X24215401Y2338505D01*
X24382495Y2505599D01*
X24512426Y2691161D01*
X24556743Y2730025D01*
X24614000Y2744036D01*
X24671257Y2730025D01*
X24715573Y2691161D01*
X24845505Y2505599D01*
X25012599Y2338505D01*
X25206170Y2202965D01*
X25420337Y2103097D01*
X25648592Y2041937D01*
X25884000Y2021341D01*
X26119408Y2041937D01*
X26347663Y2103097D01*
X26561830Y2202965D01*
X26646248Y2262075D01*
X27662625Y2262075D01*
X27746420Y2203401D01*
X27960507Y2103570D01*
X28188681Y2042431D01*
X28424000Y2021843D01*
X28659318Y2042431D01*
X28887492Y2103570D01*
X29101576Y2203400D01*
X29185373Y2262075D01*
X28424000Y3023447D01*
X27662625Y2262075D01*
X26646248Y2262075D01*
X26755401Y2338505D01*
X26922495Y2505599D01*
X27052732Y2691598D01*
X27097048Y2730461D01*
X27154305Y2744472D01*
X27211562Y2730461D01*
X27255880Y2691595D01*
X27309073Y2615627D01*
X28070447Y3376999D01*
X28070447Y3377000D01*
X28777553Y3377000D01*
X29538925Y2615627D01*
X29592119Y2691595D01*
X29636437Y2730461D01*
X29693694Y2744472D01*
X29750951Y2730461D01*
X29795267Y2691598D01*
X29925505Y2505599D01*
X30092599Y2338505D01*
X30286170Y2202965D01*
X30500337Y2103097D01*
X30728592Y2041937D01*
X30964000Y2021341D01*
X31199408Y2041937D01*
X31427663Y2103097D01*
X31641830Y2202965D01*
X31835401Y2338505D01*
X32002495Y2505599D01*
X32132426Y2691161D01*
X32176743Y2730025D01*
X32234000Y2744036D01*
X32291257Y2730025D01*
X32335573Y2691161D01*
X32465505Y2505599D01*
X32632599Y2338505D01*
X32826170Y2202965D01*
X33040337Y2103097D01*
X33268592Y2041937D01*
X33504000Y2021341D01*
X33739408Y2041937D01*
X33967663Y2103097D01*
X34181830Y2202965D01*
X34375401Y2338505D01*
X34542495Y2505599D01*
X34672426Y2691161D01*
X34716743Y2730025D01*
X34774000Y2744036D01*
X34831257Y2730025D01*
X34875573Y2691161D01*
X35005505Y2505599D01*
X35172599Y2338505D01*
X35366170Y2202965D01*
X35580337Y2103097D01*
X35808592Y2041937D01*
X36044000Y2021341D01*
X36279408Y2041937D01*
X36507663Y2103097D01*
X36721830Y2202965D01*
X36915401Y2338505D01*
X37082495Y2505599D01*
X37212426Y2691161D01*
X37256743Y2730025D01*
X37314000Y2744036D01*
X37371257Y2730025D01*
X37415573Y2691161D01*
X37545505Y2505599D01*
X37712599Y2338505D01*
X37906170Y2202965D01*
X38120337Y2103097D01*
X38348592Y2041937D01*
X38584000Y2021341D01*
X38819408Y2041937D01*
X39047663Y2103097D01*
X39261830Y2202965D01*
X39455401Y2338505D01*
X39622495Y2505599D01*
X39752426Y2691161D01*
X39796743Y2730025D01*
X39854000Y2744036D01*
X39911257Y2730025D01*
X39955573Y2691161D01*
X40085505Y2505599D01*
X40252599Y2338505D01*
X40446170Y2202965D01*
X40660337Y2103097D01*
X40888592Y2041937D01*
X41124000Y2021341D01*
X41359408Y2041937D01*
X41587663Y2103097D01*
X41801830Y2202965D01*
X41995401Y2338505D01*
X42162495Y2505599D01*
X42292426Y2691161D01*
X42336743Y2730025D01*
X42394000Y2744036D01*
X42451257Y2730025D01*
X42495573Y2691161D01*
X42625505Y2505599D01*
X42792599Y2338505D01*
X42986170Y2202965D01*
X43200337Y2103097D01*
X43428592Y2041937D01*
X43664000Y2021341D01*
X43899408Y2041937D01*
X44127663Y2103097D01*
X44341830Y2202965D01*
X44535401Y2338505D01*
X44702495Y2505599D01*
X44832426Y2691161D01*
X44876743Y2730025D01*
X44934000Y2744036D01*
X44991257Y2730025D01*
X45035573Y2691161D01*
X45165505Y2505599D01*
X45332599Y2338505D01*
X45526170Y2202965D01*
X45740337Y2103097D01*
X45968592Y2041937D01*
X46204000Y2021341D01*
X46439408Y2041937D01*
X46667663Y2103097D01*
X46881830Y2202965D01*
X47075401Y2338505D01*
X47242495Y2505599D01*
X47372426Y2691161D01*
X47416743Y2730025D01*
X47474000Y2744036D01*
X47531257Y2730025D01*
X47575573Y2691161D01*
X47705505Y2505599D01*
X47872599Y2338505D01*
X48066170Y2202965D01*
X48280337Y2103097D01*
X48508592Y2041937D01*
X48744000Y2021341D01*
X48979408Y2041937D01*
X49207663Y2103097D01*
X49421830Y2202965D01*
X49615401Y2338505D01*
X49782495Y2505599D01*
X49912426Y2691161D01*
X49956743Y2730025D01*
X50014000Y2744036D01*
X50071257Y2730025D01*
X50115573Y2691161D01*
X50245505Y2505599D01*
X50412599Y2338505D01*
X50606170Y2202965D01*
X50820337Y2103097D01*
X51048592Y2041937D01*
X51284000Y2021341D01*
X51519408Y2041937D01*
X51747663Y2103097D01*
X51961830Y2202965D01*
X52155401Y2338505D01*
X52322495Y2505599D01*
X52452426Y2691161D01*
X52496743Y2730025D01*
X52554000Y2744036D01*
X52611257Y2730025D01*
X52655573Y2691161D01*
X52785505Y2505599D01*
X52952599Y2338505D01*
X53146170Y2202965D01*
X53360337Y2103097D01*
X53588592Y2041937D01*
X53824000Y2021341D01*
X54059408Y2041937D01*
X54287663Y2103097D01*
X54501830Y2202965D01*
X54695401Y2338505D01*
X54862495Y2505599D01*
X54992426Y2691161D01*
X55036743Y2730025D01*
X55094000Y2744036D01*
X55151257Y2730025D01*
X55195573Y2691161D01*
X55325505Y2505599D01*
X55492599Y2338505D01*
X55686170Y2202965D01*
X55900337Y2103097D01*
X56128592Y2041937D01*
X56364000Y2021341D01*
X56599408Y2041937D01*
X56827663Y2103097D01*
X57041830Y2202965D01*
X57235401Y2338505D01*
X57402495Y2505599D01*
X57532426Y2691161D01*
X57576743Y2730025D01*
X57634000Y2744036D01*
X57691257Y2730025D01*
X57735573Y2691161D01*
X57865505Y2505599D01*
X58032599Y2338505D01*
X58226170Y2202965D01*
X58440337Y2103097D01*
X58668592Y2041937D01*
X58904000Y2021341D01*
X59139408Y2041937D01*
X59367663Y2103097D01*
X59581830Y2202965D01*
X59775401Y2338505D01*
X59942495Y2505599D01*
X60072426Y2691161D01*
X60116743Y2730025D01*
X60174000Y2744036D01*
X60231257Y2730025D01*
X60275573Y2691161D01*
X60405505Y2505599D01*
X60572599Y2338505D01*
X60766170Y2202965D01*
X60980337Y2103097D01*
X61208592Y2041937D01*
X61444000Y2021341D01*
X61679408Y2041937D01*
X61907663Y2103097D01*
X62121830Y2202965D01*
X62315401Y2338505D01*
X62482495Y2505599D01*
X62612426Y2691161D01*
X62656743Y2730025D01*
X62714000Y2744036D01*
X62771257Y2730025D01*
X62815573Y2691161D01*
X62945505Y2505599D01*
X63112599Y2338505D01*
X63306170Y2202965D01*
X63520337Y2103097D01*
X63748592Y2041937D01*
X63984000Y2021341D01*
X64219408Y2041937D01*
X64447663Y2103097D01*
X64661830Y2202965D01*
X64746248Y2262075D01*
X65762625Y2262075D01*
X65846420Y2203401D01*
X66060507Y2103570D01*
X66288681Y2042431D01*
X66524000Y2021843D01*
X66759318Y2042431D01*
X66987492Y2103570D01*
X67201576Y2203400D01*
X67285373Y2262075D01*
X66524000Y3023447D01*
X65762625Y2262075D01*
X64746248Y2262075D01*
X64855401Y2338505D01*
X65022495Y2505599D01*
X65152732Y2691598D01*
X65197048Y2730461D01*
X65254305Y2744472D01*
X65311562Y2730461D01*
X65355880Y2691595D01*
X65409073Y2615627D01*
X66170447Y3376999D01*
X66170447Y3377001D01*
X65409073Y4138374D01*
X65355881Y4062406D01*
X65311563Y4023540D01*
X65254306Y4009529D01*
X65197048Y4023540D01*
X65152730Y4062405D01*
X65022495Y4248401D01*
X64855401Y4415495D01*
X64669839Y4545427D01*
X64630974Y4589745D01*
X64616964Y4647001D01*
X64630975Y4704258D01*
X64669837Y4748572D01*
X64855401Y4878505D01*
X65022495Y5045599D01*
X65152426Y5231161D01*
X65196743Y5270025D01*
X65254000Y5284036D01*
X65311257Y5270025D01*
X65355573Y5231161D01*
X65485505Y5045599D01*
X65652599Y4878505D01*
X65838597Y4748268D01*
X65877460Y4703952D01*
X65891471Y4646694D01*
X65877460Y4589437D01*
X65838594Y4545119D01*
X65762626Y4491927D01*
X66524000Y3730553D01*
X66524001Y3730553D01*
X67285373Y4491927D01*
X67285373Y4491928D01*
X67209405Y4545120D01*
X67170539Y4589438D01*
X67156528Y4646695D01*
X67170539Y4703952D01*
X67209402Y4748268D01*
X67395401Y4878505D01*
X67562495Y5045599D01*
X67692426Y5231161D01*
X67736743Y5270025D01*
X67794000Y5284036D01*
X67851257Y5270025D01*
X67895573Y5231161D01*
X68025505Y5045599D01*
X68192599Y4878505D01*
X68378160Y4748574D01*
X68417024Y4704257D01*
X68431035Y4647000D01*
X68417024Y4589743D01*
X68378159Y4545425D01*
X68192595Y4415492D01*
X68025508Y4248405D01*
X68025505Y4248402D01*
X68025505Y4248401D01*
X67895271Y4062406D01*
X67895270Y4062405D01*
X67850952Y4023540D01*
X67793695Y4009529D01*
X67736438Y4023540D01*
X67692120Y4062405D01*
X67638925Y4138374D01*
X67638925Y4138375D01*
X66877553Y3377000D01*
X66877553Y3376999D01*
X67638925Y2615627D01*
X67692119Y2691595D01*
X67736437Y2730461D01*
X67793694Y2744472D01*
X67850951Y2730461D01*
X67895267Y2691598D01*
X68025505Y2505599D01*
X68192599Y2338505D01*
X68386170Y2202965D01*
X68600337Y2103097D01*
X68828592Y2041937D01*
X69064000Y2021341D01*
X69299408Y2041937D01*
X69527663Y2103097D01*
X69741830Y2202965D01*
X69935401Y2338505D01*
X70102495Y2505599D01*
X70232426Y2691161D01*
X70276743Y2730025D01*
X70334000Y2744036D01*
X70391257Y2730025D01*
X70435573Y2691161D01*
X70565505Y2505599D01*
X70732599Y2338505D01*
X70926170Y2202965D01*
X71140337Y2103097D01*
X71368592Y2041937D01*
X71604000Y2021341D01*
X71839408Y2041937D01*
X72067663Y2103097D01*
X72281830Y2202965D01*
X72475401Y2338505D01*
X72642495Y2505599D01*
X72772426Y2691161D01*
X72816743Y2730025D01*
X72874000Y2744036D01*
X72931257Y2730025D01*
X72975573Y2691161D01*
X73105505Y2505599D01*
X73272599Y2338505D01*
X73466170Y2202965D01*
X73680337Y2103097D01*
X73908592Y2041937D01*
X74144000Y2021341D01*
X74379408Y2041937D01*
X74607663Y2103097D01*
X74821830Y2202965D01*
X75015401Y2338505D01*
X75182495Y2505599D01*
X75312426Y2691161D01*
X75356743Y2730025D01*
X75414000Y2744036D01*
X75471257Y2730025D01*
X75515573Y2691161D01*
X75645505Y2505599D01*
X75812599Y2338505D01*
X76006170Y2202965D01*
X76220337Y2103097D01*
X76448592Y2041937D01*
X76684000Y2021341D01*
X76919408Y2041937D01*
X77147663Y2103097D01*
X77361830Y2202965D01*
X77555401Y2338505D01*
X77722495Y2505599D01*
X77852426Y2691161D01*
X77896743Y2730025D01*
X77954000Y2744036D01*
X78011257Y2730025D01*
X78055573Y2691161D01*
X78185505Y2505599D01*
X78352599Y2338505D01*
X78546170Y2202965D01*
X78760337Y2103097D01*
X78988592Y2041937D01*
X79224000Y2021341D01*
X79459408Y2041937D01*
X79687663Y2103097D01*
X79901830Y2202965D01*
X80095401Y2338505D01*
X80262495Y2505599D01*
X80392426Y2691161D01*
X80436743Y2730025D01*
X80494000Y2744036D01*
X80551257Y2730025D01*
X80595573Y2691161D01*
X80725505Y2505599D01*
X80892599Y2338505D01*
X81086170Y2202965D01*
X81300337Y2103097D01*
X81528592Y2041937D01*
X81764000Y2021341D01*
X81999408Y2041937D01*
X82227663Y2103097D01*
X82441830Y2202965D01*
X82635401Y2338505D01*
X82802495Y2505599D01*
X82932426Y2691161D01*
X82976743Y2730025D01*
X83034000Y2744036D01*
X83091257Y2730025D01*
X83135573Y2691161D01*
X83265505Y2505599D01*
X83432599Y2338505D01*
X83626170Y2202965D01*
X83840337Y2103097D01*
X84068592Y2041937D01*
X84304000Y2021341D01*
X84539408Y2041937D01*
X84767663Y2103097D01*
X84981830Y2202965D01*
X85175401Y2338505D01*
X85342495Y2505599D01*
X85472426Y2691161D01*
X85516743Y2730025D01*
X85574000Y2744036D01*
X85631257Y2730025D01*
X85675573Y2691161D01*
X85805505Y2505599D01*
X85972599Y2338505D01*
X86166170Y2202965D01*
X86380337Y2103097D01*
X86608592Y2041937D01*
X86844000Y2021341D01*
X87079408Y2041937D01*
X87307663Y2103097D01*
X87521830Y2202965D01*
X87715401Y2338505D01*
X87882495Y2505599D01*
X88012426Y2691161D01*
X88056743Y2730025D01*
X88114000Y2744036D01*
X88171257Y2730025D01*
X88215573Y2691161D01*
X88345505Y2505599D01*
X88512599Y2338505D01*
X88706170Y2202965D01*
X88920337Y2103097D01*
X89148592Y2041937D01*
X89384000Y2021341D01*
X89619408Y2041937D01*
X89847663Y2103097D01*
X90061830Y2202965D01*
X90255401Y2338505D01*
X90422495Y2505599D01*
X90552426Y2691161D01*
X90596743Y2730025D01*
X90654000Y2744036D01*
X90711257Y2730025D01*
X90755573Y2691161D01*
X90885505Y2505599D01*
X91052599Y2338505D01*
X91246170Y2202965D01*
X91460337Y2103097D01*
X91688592Y2041937D01*
X91924000Y2021341D01*
X92159408Y2041937D01*
X92387663Y2103097D01*
X92601830Y2202965D01*
X92686248Y2262075D01*
X93702625Y2262075D01*
X93786420Y2203401D01*
X94000507Y2103570D01*
X94228681Y2042431D01*
X94464000Y2021843D01*
X94699318Y2042431D01*
X94927492Y2103570D01*
X95141576Y2203400D01*
X95225373Y2262075D01*
X94464000Y3023447D01*
X93702625Y2262075D01*
X92686248Y2262075D01*
X92795401Y2338505D01*
X92962495Y2505599D01*
X93092732Y2691598D01*
X93137048Y2730461D01*
X93194305Y2744472D01*
X93251562Y2730461D01*
X93295880Y2691595D01*
X93349073Y2615627D01*
X94110447Y3376999D01*
X94817553Y3376999D01*
X95578925Y2615627D01*
X95637600Y2699424D01*
X95737430Y2913508D01*
X95798569Y3141682D01*
X95819157Y3377001D01*
X95798569Y3612319D01*
X95737430Y3840493D01*
X95637599Y4054579D01*
X95578926Y4138374D01*
X95578925Y4138375D01*
X94817553Y3377000D01*
X94817553Y3376999D01*
X94110447Y3376999D01*
X94110447Y3377001D01*
X93349073Y4138374D01*
X93295881Y4062406D01*
X93251563Y4023540D01*
X93194306Y4009529D01*
X93137048Y4023540D01*
X93092730Y4062405D01*
X92962495Y4248401D01*
X92795401Y4415495D01*
X92686243Y4491928D01*
X93702625Y4491928D01*
X94464000Y3730553D01*
X94464001Y3730553D01*
X95225373Y4491927D01*
X95225373Y4491928D01*
X95148969Y4545426D01*
X95110103Y4589744D01*
X95096092Y4647001D01*
X95110103Y4704258D01*
X95148969Y4748576D01*
X95225373Y4802075D01*
X94464000Y5563447D01*
X93702625Y4802075D01*
X93779031Y4748575D01*
X93817897Y4704256D01*
X93831907Y4646999D01*
X93817896Y4589742D01*
X93779029Y4545424D01*
X93702625Y4491928D01*
X92686243Y4491928D01*
X92609839Y4545427D01*
X92570974Y4589745D01*
X92556964Y4647001D01*
X92570975Y4704258D01*
X92609837Y4748572D01*
X92795401Y4878505D01*
X92962495Y5045599D01*
X93092732Y5231598D01*
X93137048Y5270461D01*
X93194305Y5284472D01*
X93251562Y5270461D01*
X93295880Y5231595D01*
X93349073Y5155627D01*
X94110447Y5916999D01*
X94817553Y5916999D01*
X95578925Y5155627D01*
X95637600Y5239424D01*
X95737430Y5453508D01*
X95798569Y5681682D01*
X95819157Y5917001D01*
X95798569Y6152319D01*
X95737430Y6380493D01*
X95637599Y6594579D01*
X95578926Y6678374D01*
X95578925Y6678375D01*
X94817553Y5917000D01*
X94817553Y5916999D01*
X94110447Y5916999D01*
X94110447Y5917001D01*
X93349073Y6678374D01*
X93295881Y6602406D01*
X93251563Y6563540D01*
X93194306Y6549529D01*
X93137048Y6563540D01*
X93092730Y6602405D01*
X92962495Y6788401D01*
X92795401Y6955495D01*
X92686243Y7031928D01*
X93702625Y7031928D01*
X94464000Y6270553D01*
X94464001Y6270553D01*
X95225373Y7031927D01*
X95225373Y7031928D01*
X95141580Y7090600D01*
X94927492Y7190431D01*
X94699318Y7251570D01*
X94464000Y7272158D01*
X94228681Y7251570D01*
X94000507Y7190431D01*
X93786422Y7090601D01*
X93702625Y7031928D01*
X92686243Y7031928D01*
X92601830Y7091035D01*
X92387663Y7190903D01*
X92326501Y7207291D01*
X92159407Y7252064D01*
X91924000Y7272660D01*
X91688592Y7252064D01*
X91460336Y7190903D01*
X91246170Y7091035D01*
X91052598Y6955495D01*
X90885505Y6788402D01*
X90755575Y6602841D01*
X90711257Y6563975D01*
X90654000Y6549964D01*
X90596743Y6563975D01*
X90552425Y6602841D01*
X90422494Y6788402D01*
X90255404Y6955492D01*
X90255401Y6955495D01*
X90061830Y7091035D01*
X89847663Y7190903D01*
X89786501Y7207291D01*
X89619407Y7252064D01*
X89384000Y7272660D01*
X89148592Y7252064D01*
X88920336Y7190903D01*
X88706170Y7091035D01*
X88512598Y6955495D01*
X88345505Y6788402D01*
X88215575Y6602841D01*
X88171257Y6563975D01*
X88114000Y6549964D01*
X88056743Y6563975D01*
X88012425Y6602841D01*
X87882494Y6788402D01*
X87715404Y6955492D01*
X87715401Y6955495D01*
X87521830Y7091035D01*
X87307663Y7190903D01*
X87246501Y7207291D01*
X87079407Y7252064D01*
X86844000Y7272660D01*
X86608592Y7252064D01*
X86380336Y7190903D01*
X86166170Y7091035D01*
X85972598Y6955495D01*
X85805505Y6788402D01*
X85675575Y6602841D01*
X85631257Y6563975D01*
X85574000Y6549964D01*
X85516743Y6563975D01*
X85472425Y6602841D01*
X85342494Y6788402D01*
X85175404Y6955492D01*
X85175401Y6955495D01*
X84981830Y7091035D01*
X84767663Y7190903D01*
X84706501Y7207291D01*
X84539407Y7252064D01*
X84304000Y7272660D01*
X84068592Y7252064D01*
X83840336Y7190903D01*
X83626170Y7091035D01*
X83432598Y6955495D01*
X83265505Y6788402D01*
X83135575Y6602841D01*
X83091257Y6563975D01*
X83034000Y6549964D01*
X82976743Y6563975D01*
X82932425Y6602841D01*
X82802494Y6788402D01*
X82635404Y6955492D01*
X82635401Y6955495D01*
X82441830Y7091035D01*
X82227663Y7190903D01*
X82166501Y7207291D01*
X81999407Y7252064D01*
X81764000Y7272660D01*
X81528592Y7252064D01*
X81300336Y7190903D01*
X81086170Y7091035D01*
X80892598Y6955495D01*
X80725508Y6788405D01*
X80725505Y6788402D01*
X80725505Y6788401D01*
X80595271Y6602406D01*
X80595270Y6602405D01*
X80550952Y6563540D01*
X80493695Y6549529D01*
X80436438Y6563540D01*
X80392120Y6602405D01*
X80338925Y6678374D01*
X80338925Y6678375D01*
X79577553Y5917000D01*
X79577553Y5916999D01*
X80338925Y5155627D01*
X80392119Y5231595D01*
X80436437Y5270461D01*
X80493694Y5284472D01*
X80550951Y5270461D01*
X80595267Y5231598D01*
X80725505Y5045599D01*
X80892599Y4878505D01*
X81078160Y4748574D01*
X81117024Y4704257D01*
X81131035Y4647000D01*
X81117024Y4589743D01*
X81078159Y4545425D01*
X80892595Y4415492D01*
X80725505Y4248402D01*
X80595575Y4062841D01*
X80551257Y4023975D01*
X80494000Y4009964D01*
X80436743Y4023975D01*
X80392425Y4062841D01*
X80262494Y4248402D01*
X80095404Y4415492D01*
X80095401Y4415495D01*
X79909402Y4545733D01*
X79870539Y4590049D01*
X79856528Y4647306D01*
X79870539Y4704563D01*
X79909405Y4748881D01*
X79985373Y4802075D01*
X79224000Y5563447D01*
X78462625Y4802075D01*
X78538594Y4748881D01*
X78577460Y4704563D01*
X78591471Y4647306D01*
X78577461Y4590050D01*
X78538595Y4545731D01*
X78352595Y4415492D01*
X78185505Y4248402D01*
X78055575Y4062841D01*
X78011257Y4023975D01*
X77954000Y4009964D01*
X77896743Y4023975D01*
X77852425Y4062841D01*
X77722494Y4248402D01*
X77555404Y4415492D01*
X77555403Y4415493D01*
X77555401Y4415495D01*
X77369839Y4545427D01*
X77330974Y4589745D01*
X77316964Y4647001D01*
X77330975Y4704258D01*
X77369837Y4748572D01*
X77555401Y4878505D01*
X77722495Y5045599D01*
X77852732Y5231598D01*
X77897048Y5270461D01*
X77954305Y5284472D01*
X78011562Y5270461D01*
X78055880Y5231595D01*
X78109073Y5155627D01*
X78870447Y5916999D01*
X78870447Y5917000D01*
X78109073Y6678374D01*
X78055881Y6602406D01*
X78011563Y6563540D01*
X77954306Y6549529D01*
X77897048Y6563540D01*
X77852730Y6602405D01*
X77722495Y6788401D01*
X77555401Y6955495D01*
X77446243Y7031928D01*
X78462625Y7031928D01*
X79224000Y6270553D01*
X79224001Y6270553D01*
X79985373Y7031927D01*
X79985373Y7031928D01*
X79901580Y7090600D01*
X79687492Y7190431D01*
X79459318Y7251570D01*
X79224000Y7272158D01*
X78988681Y7251570D01*
X78760507Y7190431D01*
X78546422Y7090601D01*
X78462625Y7031928D01*
X77446243Y7031928D01*
X77361830Y7091035D01*
X77147663Y7190903D01*
X77086501Y7207291D01*
X76919407Y7252064D01*
X76684000Y7272660D01*
X76448592Y7252064D01*
X76220336Y7190903D01*
X76006170Y7091035D01*
X75812598Y6955495D01*
X75645505Y6788402D01*
X75515575Y6602841D01*
X75471257Y6563975D01*
X75414000Y6549964D01*
X75356743Y6563975D01*
X75312425Y6602841D01*
X75182494Y6788402D01*
X75015404Y6955492D01*
X75015401Y6955495D01*
X74821830Y7091035D01*
X74607663Y7190903D01*
X74546501Y7207291D01*
X74379407Y7252064D01*
X74144000Y7272660D01*
X73908592Y7252064D01*
X73680336Y7190903D01*
X73466170Y7091035D01*
X73272598Y6955495D01*
X73105505Y6788402D01*
X72975575Y6602841D01*
X72931257Y6563975D01*
X72874000Y6549964D01*
X72816743Y6563975D01*
X72772425Y6602841D01*
X72642494Y6788402D01*
X72475404Y6955492D01*
X72475401Y6955495D01*
X72281830Y7091035D01*
X72067663Y7190903D01*
X72006501Y7207291D01*
X71839407Y7252064D01*
X71604000Y7272660D01*
X71368592Y7252064D01*
X71140336Y7190903D01*
X70926170Y7091035D01*
X70732598Y6955495D01*
X70565505Y6788402D01*
X70435575Y6602841D01*
X70391257Y6563975D01*
X70334000Y6549964D01*
X70276743Y6563975D01*
X70232425Y6602841D01*
X70102494Y6788402D01*
X69935404Y6955492D01*
X69935401Y6955495D01*
X69741830Y7091035D01*
X69527663Y7190903D01*
X69466501Y7207291D01*
X69299407Y7252064D01*
X69064000Y7272660D01*
X68828592Y7252064D01*
X68600336Y7190903D01*
X68386170Y7091035D01*
X68192598Y6955495D01*
X68025505Y6788402D01*
X67895575Y6602841D01*
X67851257Y6563975D01*
X67794000Y6549964D01*
X67736743Y6563975D01*
X67692425Y6602841D01*
X67562494Y6788402D01*
X67395404Y6955492D01*
X67395401Y6955495D01*
X67201830Y7091035D01*
X66987663Y7190903D01*
X66926501Y7207291D01*
X66759407Y7252064D01*
X66524000Y7272660D01*
X66288592Y7252064D01*
X66060336Y7190903D01*
X65846170Y7091035D01*
X65652598Y6955495D01*
X65485505Y6788402D01*
X65355575Y6602841D01*
X65311257Y6563975D01*
X65254000Y6549964D01*
X65196743Y6563975D01*
X65152425Y6602841D01*
X65022494Y6788402D01*
X64855404Y6955492D01*
X64855401Y6955495D01*
X64661830Y7091035D01*
X64447663Y7190903D01*
X64386501Y7207291D01*
X64219407Y7252064D01*
X63984000Y7272660D01*
X63748592Y7252064D01*
X63520336Y7190903D01*
X63306170Y7091035D01*
X63112598Y6955495D01*
X62945505Y6788402D01*
X62815575Y6602841D01*
X62771257Y6563975D01*
X62714000Y6549964D01*
X62656743Y6563975D01*
X62612425Y6602841D01*
X62482494Y6788402D01*
X62315404Y6955492D01*
X62315401Y6955495D01*
X62121830Y7091035D01*
X61907663Y7190903D01*
X61846501Y7207291D01*
X61679407Y7252064D01*
X61444000Y7272660D01*
X61208592Y7252064D01*
X60980336Y7190903D01*
X60766170Y7091035D01*
X60572598Y6955495D01*
X60405505Y6788402D01*
X60275575Y6602841D01*
X60231257Y6563975D01*
X60174000Y6549964D01*
X60116743Y6563975D01*
X60072425Y6602841D01*
X59942494Y6788402D01*
X59775404Y6955492D01*
X59775401Y6955495D01*
X59581830Y7091035D01*
X59367663Y7190903D01*
X59306501Y7207291D01*
X59139407Y7252064D01*
X58904000Y7272660D01*
X58668592Y7252064D01*
X58440336Y7190903D01*
X58226170Y7091035D01*
X58032598Y6955495D01*
X57865505Y6788402D01*
X57735575Y6602841D01*
X57691257Y6563975D01*
X57634000Y6549964D01*
X57576743Y6563975D01*
X57532425Y6602841D01*
X57402494Y6788402D01*
X57235404Y6955492D01*
X57235401Y6955495D01*
X57041830Y7091035D01*
X56827663Y7190903D01*
X56766501Y7207291D01*
X56599407Y7252064D01*
X56364000Y7272660D01*
X56128592Y7252064D01*
X55900336Y7190903D01*
X55686170Y7091035D01*
X55492598Y6955495D01*
X55325505Y6788402D01*
X55195575Y6602841D01*
X55151257Y6563975D01*
X55094000Y6549964D01*
X55036743Y6563975D01*
X54992425Y6602841D01*
X54862494Y6788402D01*
X54695404Y6955492D01*
X54695401Y6955495D01*
X54501830Y7091035D01*
X54287663Y7190903D01*
X54226501Y7207291D01*
X54059407Y7252064D01*
X53824000Y7272660D01*
X53588592Y7252064D01*
X53360336Y7190903D01*
X53146170Y7091035D01*
X52952598Y6955495D01*
X52785505Y6788402D01*
X52655575Y6602841D01*
X52611257Y6563975D01*
X52554000Y6549964D01*
X52496743Y6563975D01*
X52452425Y6602841D01*
X52322494Y6788402D01*
X52155404Y6955492D01*
X52155401Y6955495D01*
X51961830Y7091035D01*
X51747663Y7190903D01*
X51686501Y7207291D01*
X51519407Y7252064D01*
X51284000Y7272660D01*
X51048592Y7252064D01*
X50820336Y7190903D01*
X50606170Y7091035D01*
X50412598Y6955495D01*
X50245505Y6788402D01*
X50115575Y6602841D01*
X50071257Y6563975D01*
X50014000Y6549964D01*
X49956743Y6563975D01*
X49912425Y6602841D01*
X49782494Y6788402D01*
X49615404Y6955492D01*
X49615401Y6955495D01*
X49421830Y7091035D01*
X49207663Y7190903D01*
X49146501Y7207291D01*
X48979407Y7252064D01*
X48744000Y7272660D01*
X48508592Y7252064D01*
X48280336Y7190903D01*
X48066170Y7091035D01*
X47872598Y6955495D01*
X47705505Y6788402D01*
X47575575Y6602841D01*
X47531257Y6563975D01*
X47474000Y6549964D01*
X47416743Y6563975D01*
X47372425Y6602841D01*
X47242494Y6788402D01*
X47075404Y6955492D01*
X47075401Y6955495D01*
X46881830Y7091035D01*
X46667663Y7190903D01*
X46606501Y7207291D01*
X46439407Y7252064D01*
X46204000Y7272660D01*
X45968592Y7252064D01*
X45740336Y7190903D01*
X45526170Y7091035D01*
X45332598Y6955495D01*
X45165505Y6788402D01*
X45035575Y6602841D01*
X44991257Y6563975D01*
X44934000Y6549964D01*
X44876743Y6563975D01*
X44832425Y6602841D01*
X44702494Y6788402D01*
X44535404Y6955492D01*
X44535401Y6955495D01*
X44341830Y7091035D01*
X44127663Y7190903D01*
X44066501Y7207291D01*
X43899407Y7252064D01*
X43664000Y7272660D01*
X43428592Y7252064D01*
X43200336Y7190903D01*
X42986170Y7091035D01*
X42792598Y6955495D01*
X42625505Y6788402D01*
X42495575Y6602841D01*
X42451257Y6563975D01*
X42394000Y6549964D01*
X42336743Y6563975D01*
X42292425Y6602841D01*
X42162494Y6788402D01*
X41995404Y6955492D01*
X41995401Y6955495D01*
X41801830Y7091035D01*
X41587663Y7190903D01*
X41526501Y7207291D01*
X41359407Y7252064D01*
X41124000Y7272660D01*
X40888592Y7252064D01*
X40660336Y7190903D01*
X40446170Y7091035D01*
X40252598Y6955495D01*
X40085505Y6788402D01*
X39955575Y6602841D01*
X39911257Y6563975D01*
X39854000Y6549964D01*
X39796743Y6563975D01*
X39752425Y6602841D01*
X39622494Y6788402D01*
X39455404Y6955492D01*
X39455401Y6955495D01*
X39261830Y7091035D01*
X39047663Y7190903D01*
X38986501Y7207291D01*
X38819407Y7252064D01*
X38584000Y7272660D01*
X38348592Y7252064D01*
X38120336Y7190903D01*
X37906170Y7091035D01*
X37712598Y6955495D01*
X37545505Y6788402D01*
X37415575Y6602841D01*
X37371257Y6563975D01*
X37314000Y6549964D01*
X37256743Y6563975D01*
X37212425Y6602841D01*
X37082494Y6788402D01*
X36915404Y6955492D01*
X36915401Y6955495D01*
X36721830Y7091035D01*
X36507663Y7190903D01*
X36446501Y7207291D01*
X36279407Y7252064D01*
X36044000Y7272660D01*
X35808592Y7252064D01*
X35580336Y7190903D01*
X35366170Y7091035D01*
X35172598Y6955495D01*
X35005505Y6788402D01*
X34875575Y6602841D01*
X34831257Y6563975D01*
X34774000Y6549964D01*
X34716743Y6563975D01*
X34672425Y6602841D01*
X34542494Y6788402D01*
X34375404Y6955492D01*
X34375401Y6955495D01*
X34181830Y7091035D01*
X33967663Y7190903D01*
X33906501Y7207291D01*
X33739407Y7252064D01*
X33504000Y7272660D01*
X33268592Y7252064D01*
X33040336Y7190903D01*
X32826170Y7091035D01*
X32632598Y6955495D01*
X32465508Y6788405D01*
X32465505Y6788402D01*
X32465505Y6788401D01*
X32335271Y6602406D01*
X32335270Y6602405D01*
X32290952Y6563540D01*
X32233695Y6549529D01*
X32176438Y6563540D01*
X32132120Y6602405D01*
X32078925Y6678374D01*
X32078925Y6678375D01*
X31317553Y5917000D01*
X31317553Y5916999D01*
X32078925Y5155627D01*
X32132119Y5231595D01*
X32176437Y5270461D01*
X32233694Y5284472D01*
X32290951Y5270461D01*
X32335267Y5231598D01*
X32465505Y5045599D01*
X32632599Y4878505D01*
X32818160Y4748574D01*
X32857024Y4704257D01*
X32871035Y4647000D01*
X32857024Y4589743D01*
X32818159Y4545425D01*
X32632595Y4415492D01*
X32465505Y4248402D01*
X32335575Y4062841D01*
X32291257Y4023975D01*
X32234000Y4009964D01*
X32176743Y4023975D01*
X32132425Y4062841D01*
X32002494Y4248402D01*
X31835404Y4415492D01*
X31835401Y4415495D01*
X31649402Y4545733D01*
X31610539Y4590049D01*
X31596528Y4647306D01*
X31610539Y4704563D01*
X31649405Y4748881D01*
X31725373Y4802075D01*
X30964000Y5563447D01*
X30202625Y4802075D01*
X30278594Y4748881D01*
X30317460Y4704563D01*
X30331471Y4647306D01*
X30317461Y4590050D01*
X30278595Y4545731D01*
X30092595Y4415492D01*
X29925508Y4248405D01*
X29925505Y4248402D01*
X29925505Y4248401D01*
X29795271Y4062406D01*
X29795270Y4062405D01*
X29750952Y4023540D01*
X29693695Y4009529D01*
X29636438Y4023540D01*
X29592120Y4062405D01*
X29538925Y4138374D01*
X29538925Y4138375D01*
X28777553Y3377000D01*
X28070447Y3377000D01*
X27309073Y4138374D01*
X27255881Y4062406D01*
X27211563Y4023540D01*
X27154306Y4009529D01*
X27097048Y4023540D01*
X27052730Y4062405D01*
X26922495Y4248401D01*
X26755401Y4415495D01*
X26646243Y4491928D01*
X27662625Y4491928D01*
X28424000Y3730553D01*
X28424001Y3730553D01*
X29185373Y4491927D01*
X29185373Y4491928D01*
X29108969Y4545426D01*
X29070103Y4589744D01*
X29056092Y4647001D01*
X29070103Y4704258D01*
X29108969Y4748576D01*
X29185373Y4802075D01*
X28424000Y5563447D01*
X27662625Y4802075D01*
X27739031Y4748575D01*
X27777897Y4704256D01*
X27791907Y4646999D01*
X27777896Y4589742D01*
X27739029Y4545424D01*
X27662625Y4491928D01*
X26646243Y4491928D01*
X26569839Y4545427D01*
X26530974Y4589745D01*
X26516964Y4647001D01*
X26530975Y4704258D01*
X26569837Y4748572D01*
X26755401Y4878505D01*
X26922495Y5045599D01*
X27052732Y5231598D01*
X27097048Y5270461D01*
X27154305Y5284472D01*
X27211562Y5270461D01*
X27255880Y5231595D01*
X27309073Y5155627D01*
X28070447Y5916999D01*
X28070447Y5917000D01*
X28777553Y5917000D01*
X29538925Y5155627D01*
X29592424Y5232031D01*
X29636742Y5270897D01*
X29693999Y5284908D01*
X29751256Y5270897D01*
X29795574Y5232031D01*
X29849072Y5155627D01*
X29849073Y5155627D01*
X30610447Y5916999D01*
X30610447Y5917000D01*
X29849072Y6678375D01*
X29849072Y6678374D01*
X29795574Y6601970D01*
X29751256Y6563104D01*
X29693999Y6549093D01*
X29636742Y6563104D01*
X29592424Y6601970D01*
X29538925Y6678374D01*
X29538925Y6678375D01*
X28777553Y5917000D01*
X28070447Y5917000D01*
X27309073Y6678374D01*
X27255881Y6602406D01*
X27211563Y6563540D01*
X27154306Y6549529D01*
X27097048Y6563540D01*
X27052730Y6602405D01*
X26922495Y6788401D01*
X26755401Y6955495D01*
X26646243Y7031928D01*
X27662625Y7031928D01*
X28424000Y6270553D01*
X28424001Y6270553D01*
X29185373Y7031927D01*
X29185373Y7031928D01*
X30202625Y7031928D01*
X30964000Y6270553D01*
X30964001Y6270553D01*
X31725373Y7031927D01*
X31725373Y7031928D01*
X31641580Y7090600D01*
X31427492Y7190431D01*
X31199318Y7251570D01*
X30964000Y7272158D01*
X30728681Y7251570D01*
X30500507Y7190431D01*
X30286422Y7090601D01*
X30202625Y7031928D01*
X29185373Y7031928D01*
X29101580Y7090600D01*
X28887492Y7190431D01*
X28659318Y7251570D01*
X28424000Y7272158D01*
X28188681Y7251570D01*
X27960507Y7190431D01*
X27746422Y7090601D01*
X27662625Y7031928D01*
X26646243Y7031928D01*
X26561830Y7091035D01*
X26347663Y7190903D01*
X26286501Y7207291D01*
X26119407Y7252064D01*
X25884000Y7272660D01*
X25648592Y7252064D01*
X25420336Y7190903D01*
X25206170Y7091035D01*
X25012598Y6955495D01*
X24845505Y6788402D01*
X24715575Y6602841D01*
X24671257Y6563975D01*
X24614000Y6549964D01*
X24556743Y6563975D01*
X24512425Y6602841D01*
X24382494Y6788402D01*
X24215404Y6955492D01*
X24215401Y6955495D01*
X24021830Y7091035D01*
X23807663Y7190903D01*
X23746501Y7207291D01*
X23579407Y7252064D01*
X23344000Y7272660D01*
X23108592Y7252064D01*
X22880336Y7190903D01*
X22666170Y7091035D01*
X22472598Y6955495D01*
X22305505Y6788402D01*
X22175575Y6602841D01*
X22131257Y6563975D01*
X22074000Y6549964D01*
X22016743Y6563975D01*
X21972425Y6602841D01*
X21842494Y6788402D01*
X21675404Y6955492D01*
X21675401Y6955495D01*
X21481830Y7091035D01*
X21267663Y7190903D01*
X21206501Y7207291D01*
X21039407Y7252064D01*
X20804000Y7272660D01*
X20568592Y7252064D01*
X20340336Y7190903D01*
X20126170Y7091035D01*
X19932598Y6955495D01*
X19765505Y6788402D01*
X19635575Y6602841D01*
X19591257Y6563975D01*
X19534000Y6549964D01*
X19476743Y6563975D01*
X19432425Y6602841D01*
X19302494Y6788402D01*
X19135404Y6955492D01*
X19135401Y6955495D01*
X18941830Y7091035D01*
X18727663Y7190903D01*
X18666501Y7207291D01*
X18499407Y7252064D01*
X18264000Y7272660D01*
X18028592Y7252064D01*
X17800336Y7190903D01*
X17586170Y7091035D01*
X17392598Y6955495D01*
X17225505Y6788402D01*
X17095575Y6602841D01*
X17051257Y6563975D01*
X16994000Y6549964D01*
X16936743Y6563975D01*
X16892425Y6602841D01*
X16762494Y6788402D01*
X16595404Y6955492D01*
X16595401Y6955495D01*
X16401830Y7091035D01*
X16187663Y7190903D01*
X16126501Y7207291D01*
X15959407Y7252064D01*
X15724000Y7272660D01*
X15488592Y7252064D01*
X15260336Y7190903D01*
X15046170Y7091035D01*
X14852598Y6955495D01*
X14685508Y6788405D01*
X14685505Y6788402D01*
X14685505Y6788401D01*
X14555271Y6602406D01*
X14555270Y6602405D01*
X14510952Y6563540D01*
X14453695Y6549529D01*
X14396438Y6563540D01*
X14352120Y6602405D01*
X14298925Y6678374D01*
X14298925Y6678375D01*
X13537553Y5917000D01*
X13537553Y5916999D01*
X14298925Y5155627D01*
X14352119Y5231595D01*
X14396437Y5270461D01*
X14453694Y5284472D01*
X14510951Y5270461D01*
X14555267Y5231598D01*
X14685505Y5045599D01*
X14852599Y4878505D01*
X15038160Y4748574D01*
X15077024Y4704257D01*
X15091035Y4647000D01*
X15077024Y4589743D01*
X15038159Y4545425D01*
X14852595Y4415492D01*
X14685505Y4248402D01*
X14555575Y4062841D01*
X14511257Y4023975D01*
X14454000Y4009964D01*
X14396743Y4023975D01*
X14352425Y4062841D01*
X14222494Y4248402D01*
X14055404Y4415492D01*
X14055401Y4415495D01*
X13869402Y4545733D01*
X13830539Y4590049D01*
X13816528Y4647306D01*
X13830539Y4704563D01*
X13869405Y4748881D01*
X13945373Y4802075D01*
X13184000Y5563447D01*
X12422625Y4802075D01*
X12498594Y4748881D01*
X12537460Y4704563D01*
X12551471Y4647306D01*
X12537461Y4590050D01*
X12498595Y4545731D01*
X12312595Y4415492D01*
X12145505Y4248402D01*
X12015575Y4062841D01*
X11971257Y4023975D01*
X11914000Y4009964D01*
X11856743Y4023975D01*
X11812425Y4062841D01*
X11682494Y4248402D01*
X11515404Y4415492D01*
X11515403Y4415493D01*
X11515401Y4415495D01*
X11329839Y4545427D01*
X11290974Y4589745D01*
X11276964Y4647001D01*
X11290975Y4704258D01*
X11329837Y4748572D01*
X11515401Y4878505D01*
X11682495Y5045599D01*
X11812732Y5231598D01*
X11857048Y5270461D01*
X11914305Y5284472D01*
X11971562Y5270461D01*
X12015880Y5231595D01*
X12069073Y5155627D01*
X12830447Y5916999D01*
X12830447Y5917000D01*
X12069073Y6678374D01*
X12015881Y6602406D01*
X11971563Y6563540D01*
X11914306Y6549529D01*
X11857048Y6563540D01*
X11812730Y6602405D01*
X11682495Y6788401D01*
X11515401Y6955495D01*
X11406243Y7031928D01*
X12422625Y7031928D01*
X13184000Y6270553D01*
X13184001Y6270553D01*
X13945373Y7031927D01*
X13945373Y7031928D01*
X13861580Y7090600D01*
X13647492Y7190431D01*
X13419318Y7251570D01*
X13184000Y7272158D01*
X12948681Y7251570D01*
X12720507Y7190431D01*
X12506422Y7090601D01*
X12422625Y7031928D01*
X11406243Y7031928D01*
X11321830Y7091035D01*
X11107663Y7190903D01*
X11046501Y7207291D01*
X10879407Y7252064D01*
X10644000Y7272660D01*
X10408592Y7252064D01*
X10180336Y7190903D01*
X9966170Y7091035D01*
X9772598Y6955495D01*
X9605505Y6788402D01*
X9475575Y6602841D01*
X9431257Y6563975D01*
X9374000Y6549964D01*
X9316743Y6563975D01*
X9272425Y6602841D01*
X9142494Y6788402D01*
X8975404Y6955492D01*
X8975401Y6955495D01*
X8781830Y7091035D01*
X8567663Y7190903D01*
X8506501Y7207291D01*
X8339407Y7252064D01*
X8104000Y7272660D01*
X7868592Y7252064D01*
X7640336Y7190903D01*
X7426170Y7091035D01*
X7232598Y6955495D01*
X7065505Y6788402D01*
X6935575Y6602841D01*
X6891257Y6563975D01*
X6834000Y6549964D01*
X6776743Y6563975D01*
X6732425Y6602841D01*
X6602494Y6788402D01*
X6435404Y6955492D01*
X6435401Y6955495D01*
X6241830Y7091035D01*
X6027663Y7190903D01*
X5966501Y7207291D01*
X5799407Y7252064D01*
X5564000Y7272660D01*
X5328592Y7252064D01*
X5100336Y7190903D01*
X4886170Y7091035D01*
X4692598Y6955495D01*
X4525505Y6788402D01*
X4389965Y6594830D01*
X4290097Y6380664D01*
X4228936Y6152408D01*
X4208340Y5917000D01*
X4228936Y5681593D01*
X4260593Y5563447D01*
X4290097Y5453337D01*
X4389965Y5239170D01*
X4525505Y5045599D01*
X4692599Y4878505D01*
X4878160Y4748574D01*
X4917024Y4704257D01*
X4931035Y4647000D01*
X4917024Y4589743D01*
X4878159Y4545425D01*
X4692595Y4415492D01*
X4525505Y4248402D01*
X4389965Y4054830D01*
X4290097Y3840664D01*
X4228936Y3612408D01*
X4208340Y3377001D01*
X200500Y3377001D01*
X200500Y10065325D01*
X2295747Y10065325D01*
X2305036Y9822987D01*
X2305749Y9804407D01*
X2330790Y9675287D01*
X2355463Y9548070D01*
X2443719Y9302336D01*
X2568460Y9072940D01*
X2726749Y8865285D01*
X2914887Y8684221D01*
X3128453Y8534003D01*
X3128456Y8534001D01*
X3254513Y8471586D01*
X3362453Y8418141D01*
X3611391Y8339360D01*
X3611392Y8339360D01*
X3611395Y8339359D01*
X3869445Y8299500D01*
X4065177Y8299500D01*
X4065179Y8299500D01*
X4089536Y8301371D01*
X4260344Y8314484D01*
X4514586Y8373979D01*
X4661384Y8433144D01*
X4756762Y8471584D01*
X4756764Y8471586D01*
X4756766Y8471586D01*
X4981208Y8605018D01*
X5182652Y8771148D01*
X5356375Y8966080D01*
X5498306Y9185247D01*
X5605118Y9423511D01*
X5674307Y9675287D01*
X5704252Y9934675D01*
X5699244Y10065325D01*
X94295747Y10065325D01*
X94305036Y9822987D01*
X94305749Y9804407D01*
X94330790Y9675287D01*
X94355463Y9548070D01*
X94443719Y9302336D01*
X94568460Y9072940D01*
X94726749Y8865285D01*
X94914887Y8684221D01*
X95128453Y8534003D01*
X95128456Y8534001D01*
X95254513Y8471586D01*
X95362453Y8418141D01*
X95611391Y8339360D01*
X95611392Y8339360D01*
X95611395Y8339359D01*
X95869445Y8299500D01*
X96065177Y8299500D01*
X96065179Y8299500D01*
X96089536Y8301371D01*
X96260344Y8314484D01*
X96514586Y8373979D01*
X96661384Y8433144D01*
X96756762Y8471584D01*
X96756764Y8471586D01*
X96756766Y8471586D01*
X96981208Y8605018D01*
X97182652Y8771148D01*
X97356375Y8966080D01*
X97498306Y9185247D01*
X97605118Y9423511D01*
X97674307Y9675287D01*
X97704252Y9934675D01*
X97694251Y10195593D01*
X97644538Y10451927D01*
X97556279Y10697668D01*
X97431541Y10927057D01*
X97431539Y10927061D01*
X97273250Y11134716D01*
X97085112Y11315780D01*
X96871546Y11465998D01*
X96637546Y11581860D01*
X96388608Y11660641D01*
X96227562Y11685516D01*
X96130555Y11700500D01*
X95934823Y11700500D01*
X95934821Y11700500D01*
X95739656Y11685516D01*
X95485412Y11626021D01*
X95243237Y11528417D01*
X95018791Y11394983D01*
X94817346Y11228852D01*
X94643622Y11033918D01*
X94501693Y10814753D01*
X94394881Y10576491D01*
X94325693Y10324717D01*
X94295747Y10065325D01*
X5699244Y10065325D01*
X5694251Y10195593D01*
X5644538Y10451927D01*
X5556279Y10697668D01*
X5431541Y10927057D01*
X5431539Y10927061D01*
X5273250Y11134716D01*
X5085112Y11315780D01*
X4871546Y11465998D01*
X4637546Y11581860D01*
X4388608Y11660641D01*
X4227562Y11685516D01*
X4130555Y11700500D01*
X3934823Y11700500D01*
X3934821Y11700500D01*
X3739656Y11685516D01*
X3485412Y11626021D01*
X3243237Y11528417D01*
X3018791Y11394983D01*
X2817346Y11228852D01*
X2643622Y11033918D01*
X2501693Y10814753D01*
X2394881Y10576491D01*
X2325693Y10324717D01*
X2295747Y10065325D01*
X200500Y10065325D01*
X200500Y32488001D01*
X13172722Y32488001D01*
X13191792Y32270026D01*
X13240842Y32086968D01*
X13248425Y32058670D01*
X13340898Y31860361D01*
X13466402Y31681123D01*
X13621123Y31526402D01*
X13800361Y31400898D01*
X13998670Y31308425D01*
X14210023Y31251793D01*
X14428000Y31232723D01*
X14645977Y31251793D01*
X14857330Y31308425D01*
X15055639Y31400898D01*
X15234877Y31526402D01*
X15389598Y31681123D01*
X15476775Y31805626D01*
X15521092Y31844489D01*
X15578349Y31858500D01*
X90151289Y31858500D01*
X90208546Y31844489D01*
X90252863Y31805624D01*
X90335505Y31687599D01*
X90502599Y31520505D01*
X90688160Y31390574D01*
X90727024Y31346257D01*
X90741035Y31289000D01*
X90727024Y31231743D01*
X90688159Y31187425D01*
X90502595Y31057492D01*
X90335505Y30890402D01*
X90252864Y30772377D01*
X90208546Y30733511D01*
X90151289Y30719500D01*
X88162457Y30719500D01*
X88095832Y30738919D01*
X88050075Y30791095D01*
X88045705Y30800466D01*
X88032102Y30829638D01*
X87906598Y31008877D01*
X87751877Y31163598D01*
X87572639Y31289102D01*
X87450070Y31346257D01*
X87374331Y31381575D01*
X87162974Y31438208D01*
X86945000Y31457278D01*
X86727025Y31438208D01*
X86515668Y31381575D01*
X86317361Y31289102D01*
X86138122Y31163598D01*
X85983402Y31008878D01*
X85857898Y30829639D01*
X85765425Y30631332D01*
X85708792Y30419975D01*
X85689722Y30202001D01*
X85708792Y29984026D01*
X85765425Y29772669D01*
X85793567Y29712319D01*
X85824537Y29645904D01*
X85835890Y29585390D01*
X85816736Y29526875D01*
X85771798Y29484786D01*
X85712155Y29469500D01*
X48308865Y29469500D01*
X48261412Y29478939D01*
X48221184Y29505819D01*
X48190286Y29536717D01*
X48185168Y29542153D01*
X48145275Y29587183D01*
X48095778Y29621349D01*
X48089751Y29625784D01*
X48042400Y29662880D01*
X48033159Y29667039D01*
X48013619Y29678059D01*
X48005276Y29683818D01*
X48005273Y29683819D01*
X48005272Y29683820D01*
X47949047Y29705144D01*
X47942129Y29708009D01*
X47887275Y29732697D01*
X47877298Y29734525D01*
X47855685Y29740550D01*
X47846219Y29744140D01*
X47786518Y29751390D01*
X47779117Y29752517D01*
X47719953Y29763359D01*
X47659912Y29759726D01*
X47652425Y29759500D01*
X30768634Y29759500D01*
X30711377Y29773511D01*
X30667061Y29812375D01*
X30629598Y29865877D01*
X30474877Y30020598D01*
X30295639Y30146102D01*
X30204205Y30188739D01*
X30097331Y30238575D01*
X29885974Y30295208D01*
X29668000Y30314278D01*
X29450025Y30295208D01*
X29238668Y30238575D01*
X29040361Y30146102D01*
X28861122Y30020598D01*
X28706402Y29865878D01*
X28580898Y29686639D01*
X28488425Y29488332D01*
X28431792Y29276975D01*
X28412722Y29059001D01*
X28431792Y28841026D01*
X28483667Y28647425D01*
X28488425Y28629670D01*
X28580898Y28431361D01*
X28706402Y28252123D01*
X28861123Y28097402D01*
X29040361Y27971898D01*
X29238670Y27879425D01*
X29450023Y27822793D01*
X29668000Y27803723D01*
X29885977Y27822793D01*
X30097330Y27879425D01*
X30295639Y27971898D01*
X30474877Y28097402D01*
X30629598Y28252123D01*
X30667061Y28305626D01*
X30711377Y28344489D01*
X30768634Y28358500D01*
X46198368Y28358500D01*
X46258011Y28343214D01*
X46302949Y28301125D01*
X46322103Y28242609D01*
X46310750Y28182095D01*
X46268425Y28091332D01*
X46211792Y27879975D01*
X46192722Y27662000D01*
X46211792Y27444026D01*
X46211793Y27444023D01*
X46268425Y27232670D01*
X46360898Y27034361D01*
X46486402Y26855123D01*
X46641123Y26700402D01*
X46820361Y26574898D01*
X47018670Y26482425D01*
X47230023Y26425793D01*
X47448000Y26406723D01*
X47665977Y26425793D01*
X47877330Y26482425D01*
X48075639Y26574898D01*
X48254877Y26700402D01*
X48296656Y26742182D01*
X48336884Y26769061D01*
X48384337Y26778500D01*
X90151289Y26778500D01*
X90208546Y26764489D01*
X90252863Y26725624D01*
X90335505Y26607599D01*
X90502599Y26440505D01*
X90688160Y26310574D01*
X90727024Y26266257D01*
X90741035Y26209000D01*
X90727024Y26151743D01*
X90688159Y26107425D01*
X90502595Y25977492D01*
X90335505Y25810402D01*
X90252864Y25692377D01*
X90208546Y25653511D01*
X90151289Y25639500D01*
X27202457Y25639500D01*
X27135832Y25658919D01*
X27090075Y25711095D01*
X27085705Y25720466D01*
X27072102Y25749638D01*
X26946598Y25928877D01*
X26791877Y26083598D01*
X26612639Y26209102D01*
X26490070Y26266257D01*
X26414331Y26301575D01*
X26202974Y26358208D01*
X25985000Y26377278D01*
X25767025Y26358208D01*
X25555668Y26301575D01*
X25357361Y26209102D01*
X25178122Y26083598D01*
X25023402Y25928878D01*
X24897898Y25749639D01*
X24805425Y25551332D01*
X24748792Y25339975D01*
X24729722Y25122001D01*
X24748792Y24904026D01*
X24773182Y24813000D01*
X24805425Y24692670D01*
X24897898Y24494361D01*
X25023402Y24315123D01*
X25178123Y24160402D01*
X25357361Y24034898D01*
X25555670Y23942425D01*
X25767023Y23885793D01*
X25985000Y23866723D01*
X26202977Y23885793D01*
X26414330Y23942425D01*
X26612639Y24034898D01*
X26791877Y24160402D01*
X26833655Y24202181D01*
X26873884Y24229061D01*
X26921337Y24238500D01*
X90151289Y24238500D01*
X90208546Y24224489D01*
X90252863Y24185624D01*
X90335505Y24067599D01*
X90502599Y23900505D01*
X90688597Y23770268D01*
X90727460Y23725952D01*
X90741471Y23668695D01*
X90727461Y23611439D01*
X90688595Y23567120D01*
X90502919Y23437108D01*
X90335890Y23270079D01*
X90200400Y23076579D01*
X90100569Y22862493D01*
X90043364Y22649001D01*
X90043364Y22649000D01*
X91500000Y22649000D01*
X91562000Y22632387D01*
X91607387Y22587000D01*
X91624000Y22525000D01*
X91624000Y22273000D01*
X91607387Y22211000D01*
X91562000Y22165613D01*
X91500000Y22149000D01*
X90043364Y22149000D01*
X90092508Y21965594D01*
X90094350Y21909309D01*
X90071109Y21858014D01*
X90027577Y21822288D01*
X89972733Y21809500D01*
X42251850Y21809500D01*
X42194593Y21823511D01*
X42150275Y21862376D01*
X42059598Y21991877D01*
X41904877Y22146598D01*
X41725639Y22272102D01*
X41634205Y22314739D01*
X41527331Y22364575D01*
X41315974Y22421208D01*
X41098000Y22440278D01*
X40880025Y22421208D01*
X40668668Y22364575D01*
X40470361Y22272102D01*
X40291122Y22146598D01*
X40136402Y21991878D01*
X40010898Y21812639D01*
X39918425Y21614332D01*
X39861792Y21402975D01*
X39842722Y21185001D01*
X39861792Y20967026D01*
X39918425Y20755671D01*
X39927642Y20735904D01*
X39938993Y20675389D01*
X39919839Y20616874D01*
X39874901Y20574786D01*
X39815259Y20559500D01*
X21995457Y20559500D01*
X21928832Y20578919D01*
X21883075Y20631095D01*
X21878705Y20640466D01*
X21865102Y20669638D01*
X21739598Y20848877D01*
X21584877Y21003598D01*
X21405639Y21129102D01*
X21314205Y21171739D01*
X21207331Y21221575D01*
X20995974Y21278208D01*
X20778000Y21297278D01*
X20560025Y21278208D01*
X20348668Y21221575D01*
X20150361Y21129102D01*
X19971122Y21003598D01*
X19816402Y20848878D01*
X19690898Y20669639D01*
X19598425Y20471332D01*
X19541792Y20259975D01*
X19522722Y20042000D01*
X19541792Y19824026D01*
X19541793Y19824023D01*
X19598425Y19612670D01*
X19690898Y19414361D01*
X19816402Y19235123D01*
X19971123Y19080402D01*
X20150361Y18954898D01*
X20348670Y18862425D01*
X20560023Y18805793D01*
X20778000Y18786723D01*
X20995977Y18805793D01*
X21207330Y18862425D01*
X21405639Y18954898D01*
X21584877Y19080402D01*
X21626655Y19122181D01*
X21666884Y19149061D01*
X21714337Y19158500D01*
X31016378Y19158500D01*
X31071222Y19145712D01*
X31114754Y19109986D01*
X31137995Y19058691D01*
X31136153Y19002406D01*
X31098792Y18862975D01*
X31079722Y18645000D01*
X31098792Y18427026D01*
X31155425Y18215669D01*
X31167208Y18190401D01*
X31247898Y18017361D01*
X31373402Y17838123D01*
X31528123Y17683402D01*
X31707361Y17557898D01*
X31905670Y17465425D01*
X32117023Y17408793D01*
X32335000Y17389723D01*
X32552977Y17408793D01*
X32764330Y17465425D01*
X32962639Y17557898D01*
X33141877Y17683402D01*
X33290657Y17832183D01*
X33330885Y17859061D01*
X33378338Y17868500D01*
X48664019Y17868500D01*
X48718863Y17855712D01*
X48762395Y17819986D01*
X48785636Y17768691D01*
X48783794Y17712406D01*
X48751792Y17592975D01*
X48732722Y17375001D01*
X48751792Y17157026D01*
X48808425Y16945671D01*
X48826968Y16905904D01*
X48838319Y16845389D01*
X48819165Y16786874D01*
X48774227Y16744786D01*
X48714585Y16729500D01*
X19723547Y16729500D01*
X19671142Y16741118D01*
X19628558Y16773794D01*
X19603772Y16821406D01*
X19544574Y17042332D01*
X19525334Y17083592D01*
X19452102Y17240638D01*
X19326598Y17419877D01*
X19171877Y17574598D01*
X18992639Y17700102D01*
X18901205Y17742739D01*
X18794331Y17792575D01*
X18582974Y17849208D01*
X18365000Y17868278D01*
X18147025Y17849208D01*
X17935668Y17792575D01*
X17737361Y17700102D01*
X17558122Y17574598D01*
X17403402Y17419878D01*
X17277898Y17240639D01*
X17185425Y17042332D01*
X17128792Y16830975D01*
X17109722Y16613001D01*
X17128792Y16395026D01*
X17128793Y16395023D01*
X17185425Y16183670D01*
X17277898Y15985361D01*
X17403402Y15806123D01*
X17558123Y15651402D01*
X17737361Y15525898D01*
X17935670Y15433425D01*
X18147023Y15376793D01*
X18168470Y15374917D01*
X18171154Y15374682D01*
X18211240Y15364230D01*
X18231068Y15355306D01*
X18241036Y15353480D01*
X18262652Y15347454D01*
X18272128Y15343860D01*
X18331856Y15336608D01*
X18339201Y15335491D01*
X18398394Y15324643D01*
X18458422Y15328274D01*
X18465910Y15328500D01*
X47394019Y15328500D01*
X47448863Y15315712D01*
X47492395Y15279986D01*
X47515636Y15228691D01*
X47513794Y15172406D01*
X47481792Y15052975D01*
X47462722Y14835000D01*
X47481792Y14617026D01*
X47538425Y14405669D01*
X47580548Y14315337D01*
X47630898Y14207361D01*
X47756402Y14028123D01*
X47911123Y13873402D01*
X48090361Y13747898D01*
X48288670Y13655425D01*
X48500023Y13598793D01*
X48718000Y13579723D01*
X48935977Y13598793D01*
X49147330Y13655425D01*
X49345639Y13747898D01*
X49524877Y13873402D01*
X49606075Y13954601D01*
X49687270Y14035794D01*
X49688286Y14034778D01*
X49722165Y14064489D01*
X49779423Y14078500D01*
X90151289Y14078500D01*
X90208546Y14064489D01*
X90252863Y14025624D01*
X90335505Y13907599D01*
X90502599Y13740505D01*
X90696170Y13604965D01*
X90910337Y13505097D01*
X91138592Y13443937D01*
X91374000Y13423341D01*
X91609408Y13443937D01*
X91837663Y13505097D01*
X92051830Y13604965D01*
X92245401Y13740505D01*
X92412495Y13907599D01*
X92542426Y14093161D01*
X92586743Y14132025D01*
X92644000Y14146036D01*
X92701257Y14132025D01*
X92745573Y14093161D01*
X92875505Y13907599D01*
X93042599Y13740505D01*
X93236170Y13604965D01*
X93450337Y13505097D01*
X93678592Y13443937D01*
X93914000Y13423341D01*
X94149408Y13443937D01*
X94377663Y13505097D01*
X94591830Y13604965D01*
X94785401Y13740505D01*
X94952495Y13907599D01*
X95088035Y14101170D01*
X95187903Y14315337D01*
X95249063Y14543592D01*
X95269659Y14779000D01*
X95249063Y15014408D01*
X95187903Y15242663D01*
X95088035Y15456829D01*
X94952495Y15650401D01*
X94785401Y15817495D01*
X94599839Y15947427D01*
X94560975Y15991743D01*
X94546964Y16049000D01*
X94560975Y16106257D01*
X94599839Y16150574D01*
X94785401Y16280505D01*
X94952495Y16447599D01*
X95088035Y16641170D01*
X95187903Y16855337D01*
X95249063Y17083592D01*
X95269659Y17319000D01*
X95264759Y17375001D01*
X95249063Y17554408D01*
X95238729Y17592975D01*
X95187903Y17782663D01*
X95088035Y17996829D01*
X94952495Y18190401D01*
X94785401Y18357495D01*
X94599839Y18487427D01*
X94560974Y18531745D01*
X94546964Y18589001D01*
X94560975Y18646258D01*
X94599837Y18690572D01*
X94785401Y18820505D01*
X94952495Y18987599D01*
X95088035Y19181170D01*
X95187903Y19395337D01*
X95249063Y19623592D01*
X95269659Y19859000D01*
X95249063Y20094408D01*
X95187903Y20322663D01*
X95088035Y20536829D01*
X94952495Y20730401D01*
X94785401Y20897495D01*
X94599839Y21027427D01*
X94560974Y21071745D01*
X94546964Y21129001D01*
X94560975Y21186258D01*
X94599837Y21230572D01*
X94785401Y21360505D01*
X94952495Y21527599D01*
X95088035Y21721170D01*
X95187903Y21935337D01*
X95249063Y22163592D01*
X95269659Y22399000D01*
X95249063Y22634408D01*
X95187903Y22862663D01*
X95088035Y23076829D01*
X94952495Y23270401D01*
X94785401Y23437495D01*
X94599402Y23567733D01*
X94560539Y23612049D01*
X94546528Y23669306D01*
X94560539Y23726563D01*
X94599405Y23770881D01*
X94785078Y23900891D01*
X94952106Y24067919D01*
X95087600Y24261424D01*
X95187430Y24475508D01*
X95244636Y24689000D01*
X93788000Y24689000D01*
X93726000Y24705613D01*
X93680613Y24751000D01*
X93664000Y24813000D01*
X93664000Y25065000D01*
X93680613Y25127000D01*
X93726000Y25172387D01*
X93788000Y25189000D01*
X95244636Y25189000D01*
X95244635Y25189001D01*
X95187430Y25402493D01*
X95087599Y25616579D01*
X94952109Y25810079D01*
X94785081Y25977107D01*
X94599404Y26107120D01*
X94560539Y26151438D01*
X94546528Y26208695D01*
X94560539Y26265952D01*
X94599402Y26310268D01*
X94785401Y26440505D01*
X94952495Y26607599D01*
X95088035Y26801170D01*
X95187903Y27015337D01*
X95249063Y27243592D01*
X95269659Y27479000D01*
X95249063Y27714408D01*
X95187903Y27942663D01*
X95088035Y28156829D01*
X94952495Y28350401D01*
X94785401Y28517495D01*
X94599839Y28647427D01*
X94560975Y28691743D01*
X94546964Y28749000D01*
X94560975Y28806257D01*
X94599839Y28850574D01*
X94785401Y28980505D01*
X94952495Y29147599D01*
X95088035Y29341170D01*
X95187903Y29555337D01*
X95249063Y29783592D01*
X95269659Y30019000D01*
X95269519Y30020595D01*
X95249063Y30254408D01*
X95233021Y30314278D01*
X95187903Y30482663D01*
X95088035Y30696829D01*
X94952495Y30890401D01*
X94785401Y31057495D01*
X94599839Y31187427D01*
X94560975Y31231743D01*
X94546964Y31289000D01*
X94560975Y31346257D01*
X94599839Y31390574D01*
X94785401Y31520505D01*
X94952495Y31687599D01*
X95088035Y31881170D01*
X95187903Y32095337D01*
X95249063Y32323592D01*
X95269659Y32559000D01*
X95249063Y32794408D01*
X95187903Y33022663D01*
X95088035Y33236829D01*
X94952495Y33430401D01*
X94785401Y33597495D01*
X94599839Y33727427D01*
X94560975Y33771743D01*
X94546964Y33829000D01*
X94560975Y33886257D01*
X94599839Y33930574D01*
X94785401Y34060505D01*
X94952495Y34227599D01*
X95088035Y34421170D01*
X95187903Y34635337D01*
X95249063Y34863592D01*
X95269659Y35099000D01*
X95249063Y35334408D01*
X95187903Y35562663D01*
X95088035Y35776829D01*
X94952495Y35970401D01*
X94785401Y36137495D01*
X94599839Y36267427D01*
X94560975Y36311743D01*
X94546964Y36369000D01*
X94560975Y36426257D01*
X94599839Y36470574D01*
X94785401Y36600505D01*
X94952495Y36767599D01*
X95088035Y36961170D01*
X95187903Y37175337D01*
X95249063Y37403592D01*
X95269659Y37639000D01*
X95249063Y37874408D01*
X95187903Y38102663D01*
X95088035Y38316829D01*
X94952495Y38510401D01*
X94785401Y38677495D01*
X94599839Y38807427D01*
X94560976Y38851743D01*
X94546965Y38909000D01*
X94560976Y38966257D01*
X94599839Y39010574D01*
X94785401Y39140505D01*
X94952495Y39307599D01*
X95088035Y39501170D01*
X95187903Y39715337D01*
X95249063Y39943592D01*
X95269659Y40179000D01*
X95249063Y40414408D01*
X95187903Y40642663D01*
X95088035Y40856829D01*
X94952495Y41050401D01*
X94785401Y41217495D01*
X94599839Y41347427D01*
X94560975Y41391743D01*
X94546964Y41449000D01*
X94560975Y41506257D01*
X94599839Y41550574D01*
X94785401Y41680505D01*
X94952495Y41847599D01*
X95088035Y42041170D01*
X95187903Y42255337D01*
X95249063Y42483592D01*
X95269659Y42719000D01*
X95249063Y42954408D01*
X95187903Y43182663D01*
X95088035Y43396829D01*
X94952495Y43590401D01*
X94785401Y43757495D01*
X94599839Y43887427D01*
X94560975Y43931743D01*
X94546964Y43989000D01*
X94560975Y44046257D01*
X94599839Y44090574D01*
X94785401Y44220505D01*
X94952495Y44387599D01*
X95088035Y44581170D01*
X95187903Y44795337D01*
X95249063Y45023592D01*
X95269659Y45259000D01*
X95249063Y45494408D01*
X95187903Y45722663D01*
X95088035Y45936829D01*
X94952495Y46130401D01*
X94785401Y46297495D01*
X94599839Y46427427D01*
X94560975Y46471743D01*
X94546964Y46529000D01*
X94560975Y46586257D01*
X94599839Y46630574D01*
X94785401Y46760505D01*
X94952495Y46927599D01*
X95088035Y47121170D01*
X95187903Y47335337D01*
X95249063Y47563592D01*
X95269659Y47799000D01*
X95269519Y47800595D01*
X95249063Y48034408D01*
X95238729Y48072975D01*
X95187903Y48262663D01*
X95088035Y48476829D01*
X94952495Y48670401D01*
X94785401Y48837495D01*
X94599839Y48967427D01*
X94560975Y49011743D01*
X94546964Y49069000D01*
X94560975Y49126257D01*
X94599839Y49170574D01*
X94785401Y49300505D01*
X94952495Y49467599D01*
X95088035Y49661170D01*
X95187903Y49875337D01*
X95249063Y50103592D01*
X95269659Y50339000D01*
X95249063Y50574408D01*
X95187903Y50802663D01*
X95088035Y51016829D01*
X94952495Y51210401D01*
X94785401Y51377495D01*
X94599839Y51507427D01*
X94560975Y51551743D01*
X94546964Y51609000D01*
X94560975Y51666257D01*
X94599839Y51710574D01*
X94785401Y51840505D01*
X94952495Y52007599D01*
X95088035Y52201170D01*
X95187903Y52415337D01*
X95249063Y52643592D01*
X95269659Y52879000D01*
X95263965Y52944076D01*
X95249063Y53114408D01*
X95238876Y53152426D01*
X95187903Y53342663D01*
X95088035Y53556829D01*
X94952495Y53750401D01*
X94785401Y53917495D01*
X94599839Y54047427D01*
X94560975Y54091743D01*
X94546964Y54149000D01*
X94560975Y54206257D01*
X94599839Y54250574D01*
X94785401Y54380505D01*
X94952495Y54547599D01*
X95088035Y54741170D01*
X95187903Y54955337D01*
X95249063Y55183592D01*
X95269659Y55419000D01*
X95249063Y55654408D01*
X95187903Y55882663D01*
X95088035Y56096829D01*
X94952495Y56290401D01*
X94785401Y56457495D01*
X94591830Y56593035D01*
X94377663Y56692903D01*
X94309347Y56711208D01*
X94149407Y56754064D01*
X93914000Y56774660D01*
X93678590Y56754064D01*
X93661774Y56749558D01*
X93597589Y56749560D01*
X93542004Y56781653D01*
X92845940Y57477717D01*
X92840822Y57483153D01*
X92800929Y57528183D01*
X92751432Y57562349D01*
X92745405Y57566784D01*
X92698054Y57603880D01*
X92688813Y57608039D01*
X92669273Y57619059D01*
X92660930Y57624818D01*
X92660927Y57624819D01*
X92660926Y57624820D01*
X92604701Y57646144D01*
X92597783Y57649009D01*
X92542929Y57673697D01*
X92532952Y57675525D01*
X92511339Y57681550D01*
X92501873Y57685140D01*
X92442172Y57692390D01*
X92434771Y57693517D01*
X92375607Y57704359D01*
X92315566Y57700726D01*
X92308079Y57700500D01*
X89841519Y57700500D01*
X89794066Y57709939D01*
X89753838Y57736819D01*
X88997940Y58492717D01*
X88992822Y58498153D01*
X88952929Y58543183D01*
X88903432Y58577349D01*
X88897405Y58581784D01*
X88850054Y58618880D01*
X88840813Y58623039D01*
X88821273Y58634059D01*
X88812930Y58639818D01*
X88812927Y58639819D01*
X88812926Y58639820D01*
X88756701Y58661144D01*
X88749783Y58664009D01*
X88694929Y58688697D01*
X88684952Y58690525D01*
X88663339Y58696550D01*
X88653873Y58700140D01*
X88594172Y58707390D01*
X88586771Y58708517D01*
X88527607Y58719359D01*
X88467566Y58715726D01*
X88460079Y58715500D01*
X62645634Y58715500D01*
X62588377Y58729511D01*
X62544061Y58768375D01*
X62506598Y58821877D01*
X62351877Y58976598D01*
X62172639Y59102102D01*
X62081205Y59144739D01*
X61974331Y59194575D01*
X61762974Y59251208D01*
X61545000Y59270278D01*
X61327025Y59251208D01*
X61115668Y59194575D01*
X60917361Y59102102D01*
X60738122Y58976598D01*
X60583402Y58821878D01*
X60457898Y58642639D01*
X60365425Y58444332D01*
X60308792Y58232975D01*
X60289722Y58015001D01*
X60308792Y57797026D01*
X60365425Y57585669D01*
X60413221Y57483172D01*
X60457898Y57387361D01*
X60583402Y57208123D01*
X60738123Y57053402D01*
X60917361Y56927898D01*
X61115670Y56835425D01*
X61327023Y56778793D01*
X61545000Y56759723D01*
X61762977Y56778793D01*
X61974330Y56835425D01*
X62172639Y56927898D01*
X62351877Y57053402D01*
X62506598Y57208123D01*
X62544061Y57261626D01*
X62588377Y57300489D01*
X62645634Y57314500D01*
X88143481Y57314500D01*
X88190934Y57305061D01*
X88231162Y57278181D01*
X88987058Y56522285D01*
X88992178Y56516847D01*
X89032071Y56471817D01*
X89032072Y56471816D01*
X89081573Y56437648D01*
X89087591Y56433220D01*
X89134944Y56396122D01*
X89144180Y56391966D01*
X89163731Y56380938D01*
X89172070Y56375182D01*
X89213574Y56359442D01*
X89268131Y56318789D01*
X89293025Y56255469D01*
X89280761Y56188545D01*
X89235032Y56138166D01*
X89169604Y56119500D01*
X61287845Y56119500D01*
X61230588Y56133511D01*
X61186270Y56172377D01*
X61109597Y56281878D01*
X60954880Y56436595D01*
X60954877Y56436598D01*
X60775639Y56562102D01*
X60684205Y56604739D01*
X60577331Y56654575D01*
X60365974Y56711208D01*
X60148000Y56730278D01*
X59930025Y56711208D01*
X59718668Y56654575D01*
X59520361Y56562102D01*
X59341122Y56436598D01*
X59186402Y56281878D01*
X59060898Y56102639D01*
X58968425Y55904332D01*
X58911792Y55692975D01*
X58892722Y55475000D01*
X58911792Y55257026D01*
X58968425Y55045671D01*
X58986968Y55005904D01*
X58998319Y54945389D01*
X58979165Y54886874D01*
X58934227Y54844786D01*
X58874585Y54829500D01*
X55024783Y54829500D01*
X54958158Y54848919D01*
X54912401Y54901095D01*
X54891746Y54945389D01*
X54885102Y54959638D01*
X54759598Y55138877D01*
X54604877Y55293598D01*
X54425639Y55419102D01*
X54334205Y55461739D01*
X54227331Y55511575D01*
X54015974Y55568208D01*
X53798000Y55587278D01*
X53580025Y55568208D01*
X53368668Y55511575D01*
X53170361Y55419102D01*
X52991122Y55293598D01*
X52836402Y55138878D01*
X52710898Y54959639D01*
X52618425Y54761332D01*
X52561792Y54549975D01*
X52542722Y54332000D01*
X52561792Y54114026D01*
X52614452Y53917495D01*
X52618425Y53902670D01*
X52710898Y53704361D01*
X52836402Y53525123D01*
X52991123Y53370402D01*
X53170361Y53244898D01*
X53368670Y53152425D01*
X53580023Y53095793D01*
X53652682Y53089437D01*
X53797996Y53076723D01*
X53797997Y53076724D01*
X53798000Y53076723D01*
X53817290Y53078411D01*
X53870507Y53071406D01*
X53915779Y53042565D01*
X53944621Y52997295D01*
X53951627Y52944076D01*
X53939722Y52808001D01*
X53958792Y52590026D01*
X54007842Y52406968D01*
X54015425Y52378670D01*
X54107898Y52180361D01*
X54233402Y52001123D01*
X54388123Y51846402D01*
X54567361Y51720898D01*
X54765670Y51628425D01*
X54977023Y51571793D01*
X55195000Y51552723D01*
X55412977Y51571793D01*
X55624330Y51628425D01*
X55822639Y51720898D01*
X56001877Y51846402D01*
X56156598Y52001123D01*
X56243775Y52125626D01*
X56288092Y52164489D01*
X56345349Y52178500D01*
X57178378Y52178500D01*
X57233222Y52165712D01*
X57276754Y52129986D01*
X57299995Y52078691D01*
X57298153Y52022406D01*
X57260792Y51882975D01*
X57241722Y51665000D01*
X57260792Y51447026D01*
X57317425Y51235671D01*
X57326642Y51215904D01*
X57337993Y51155389D01*
X57318839Y51096874D01*
X57273901Y51054786D01*
X57214259Y51039500D01*
X52397845Y51039500D01*
X52340588Y51053511D01*
X52296270Y51092377D01*
X52293121Y51096874D01*
X52219598Y51201877D01*
X52064877Y51356598D01*
X51885639Y51482102D01*
X51794205Y51524739D01*
X51687331Y51574575D01*
X51475974Y51631208D01*
X51258000Y51650278D01*
X51040025Y51631208D01*
X50828668Y51574575D01*
X50630361Y51482102D01*
X50451122Y51356598D01*
X50296402Y51201878D01*
X50170898Y51022639D01*
X50078425Y50824332D01*
X50021792Y50612975D01*
X50002722Y50395000D01*
X50021792Y50177026D01*
X50078425Y49965669D01*
X50120548Y49875337D01*
X50170898Y49767361D01*
X50296402Y49588123D01*
X50451123Y49433402D01*
X50630361Y49307898D01*
X50828670Y49215425D01*
X51040023Y49158793D01*
X51258000Y49139723D01*
X51475977Y49158793D01*
X51687330Y49215425D01*
X51885639Y49307898D01*
X52064877Y49433402D01*
X52154084Y49522609D01*
X52227270Y49595794D01*
X52228286Y49594778D01*
X52262165Y49624489D01*
X52319423Y49638500D01*
X74262337Y49638500D01*
X74321980Y49623214D01*
X74366918Y49581125D01*
X74386072Y49522609D01*
X74374719Y49462095D01*
X74335425Y49377832D01*
X74278792Y49166475D01*
X74259722Y48948501D01*
X74278792Y48730526D01*
X74298870Y48655594D01*
X74300712Y48599309D01*
X74277471Y48548014D01*
X74233939Y48512288D01*
X74179095Y48499500D01*
X63954845Y48499500D01*
X63897588Y48513511D01*
X63853270Y48552377D01*
X63776597Y48661878D01*
X63621880Y48816595D01*
X63621877Y48816598D01*
X63442639Y48942102D01*
X63351205Y48984739D01*
X63244331Y49034575D01*
X63032974Y49091208D01*
X62814999Y49110278D01*
X62597025Y49091208D01*
X62385668Y49034575D01*
X62187361Y48942102D01*
X62008122Y48816598D01*
X61853402Y48661878D01*
X61727898Y48482639D01*
X61635425Y48284332D01*
X61578792Y48072975D01*
X61559722Y47855000D01*
X61578792Y47637026D01*
X61599004Y47561594D01*
X61600846Y47505309D01*
X61577605Y47454014D01*
X61534073Y47418288D01*
X61479229Y47405500D01*
X58675461Y47405500D01*
X58618204Y47419511D01*
X58573886Y47458377D01*
X58500213Y47563593D01*
X58442598Y47645877D01*
X58287877Y47800598D01*
X58108639Y47926102D01*
X58017205Y47968739D01*
X57910331Y48018575D01*
X57698974Y48075208D01*
X57481000Y48094278D01*
X57263025Y48075208D01*
X57051668Y48018575D01*
X56853361Y47926102D01*
X56674122Y47800598D01*
X56519402Y47645878D01*
X56393898Y47466639D01*
X56301425Y47268332D01*
X56244792Y47056975D01*
X56225722Y46839000D01*
X56244792Y46621026D01*
X56296667Y46427425D01*
X56301425Y46409670D01*
X56393898Y46211361D01*
X56519402Y46032123D01*
X56674123Y45877402D01*
X56853361Y45751898D01*
X57051670Y45659425D01*
X57263023Y45602793D01*
X57481000Y45583723D01*
X57698977Y45602793D01*
X57910330Y45659425D01*
X58108639Y45751898D01*
X58287877Y45877402D01*
X58378656Y45968181D01*
X58418884Y45995061D01*
X58466337Y46004500D01*
X71542508Y46004500D01*
X71597352Y45991712D01*
X71640884Y45955986D01*
X71664125Y45904691D01*
X71662283Y45848406D01*
X71611792Y45659975D01*
X71592722Y45442001D01*
X71611792Y45224026D01*
X71668425Y45012669D01*
X71746189Y44845905D01*
X71757542Y44785390D01*
X71738388Y44726875D01*
X71693450Y44684786D01*
X71633807Y44669500D01*
X68921850Y44669500D01*
X68864593Y44683511D01*
X68820275Y44722376D01*
X68817125Y44726875D01*
X68729598Y44851877D01*
X68574877Y45006598D01*
X68395639Y45132102D01*
X68304205Y45174739D01*
X68197331Y45224575D01*
X67985974Y45281208D01*
X67768000Y45300278D01*
X67550025Y45281208D01*
X67338668Y45224575D01*
X67140361Y45132102D01*
X66961122Y45006598D01*
X66806402Y44851878D01*
X66680898Y44672639D01*
X66588425Y44474332D01*
X66531792Y44262975D01*
X66512722Y44045001D01*
X66531792Y43827026D01*
X66588425Y43615671D01*
X66597642Y43595904D01*
X66608993Y43535389D01*
X66589839Y43476874D01*
X66544901Y43434786D01*
X66485259Y43419500D01*
X53921845Y43419500D01*
X53864588Y43433511D01*
X53820270Y43472377D01*
X53817121Y43476874D01*
X53743598Y43581877D01*
X53588877Y43736598D01*
X53409639Y43862102D01*
X53318205Y43904739D01*
X53211331Y43954575D01*
X52999974Y44011208D01*
X52782000Y44030278D01*
X52564025Y44011208D01*
X52352668Y43954575D01*
X52154361Y43862102D01*
X51975122Y43736598D01*
X51820402Y43581878D01*
X51694898Y43402639D01*
X51602425Y43204332D01*
X51545792Y42992975D01*
X51526722Y42775000D01*
X51545792Y42557026D01*
X51602425Y42345669D01*
X51644548Y42255337D01*
X51694898Y42147361D01*
X51820402Y41968123D01*
X51975123Y41813402D01*
X52154361Y41687898D01*
X52352670Y41595425D01*
X52564023Y41538793D01*
X52709341Y41526080D01*
X52781999Y41519723D01*
X52781999Y41519724D01*
X52782000Y41519723D01*
X52999977Y41538793D01*
X53211330Y41595425D01*
X53409639Y41687898D01*
X53588877Y41813402D01*
X53678085Y41902610D01*
X53751270Y41975794D01*
X53752286Y41974778D01*
X53786165Y42004489D01*
X53843423Y42018500D01*
X72842254Y42018500D01*
X72901897Y42003214D01*
X72946835Y41961125D01*
X72965989Y41902610D01*
X72954636Y41842095D01*
X72938425Y41807332D01*
X72881792Y41595975D01*
X72862722Y41378001D01*
X72881792Y41160026D01*
X72915134Y41035594D01*
X72916976Y40979309D01*
X72893735Y40928014D01*
X72850203Y40892288D01*
X72795359Y40879500D01*
X65097845Y40879500D01*
X65040588Y40893511D01*
X64996270Y40932377D01*
X64919597Y41041878D01*
X64764880Y41196595D01*
X64764877Y41196598D01*
X64585639Y41322102D01*
X64494205Y41364739D01*
X64387331Y41414575D01*
X64175974Y41471208D01*
X63958000Y41490278D01*
X63740025Y41471208D01*
X63528668Y41414575D01*
X63330361Y41322102D01*
X63151122Y41196598D01*
X62996402Y41041878D01*
X62870898Y40862639D01*
X62778425Y40664332D01*
X62721792Y40452975D01*
X62702722Y40235001D01*
X62721792Y40017026D01*
X62778425Y39805669D01*
X62820548Y39715337D01*
X62870898Y39607361D01*
X62996402Y39428123D01*
X63151123Y39273402D01*
X63330361Y39147898D01*
X63528670Y39055425D01*
X63740023Y38998793D01*
X63958000Y38979723D01*
X64175977Y38998793D01*
X64387330Y39055425D01*
X64585639Y39147898D01*
X64764877Y39273402D01*
X64885805Y39394330D01*
X64927270Y39435794D01*
X64928286Y39434778D01*
X64962165Y39464489D01*
X65019423Y39478500D01*
X75847378Y39478500D01*
X75902222Y39465712D01*
X75945754Y39429986D01*
X75968995Y39378691D01*
X75967153Y39322406D01*
X75929792Y39182975D01*
X75910722Y38965000D01*
X75929792Y38747026D01*
X75986425Y38535671D01*
X75995642Y38515904D01*
X76006993Y38455389D01*
X75987839Y38396874D01*
X75942901Y38354786D01*
X75883259Y38339500D01*
X67637845Y38339500D01*
X67580588Y38353511D01*
X67536270Y38392377D01*
X67533121Y38396874D01*
X67459598Y38501877D01*
X67304877Y38656598D01*
X67125639Y38782102D01*
X67034205Y38824739D01*
X66927331Y38874575D01*
X66715974Y38931208D01*
X66497999Y38950278D01*
X66280025Y38931208D01*
X66068668Y38874575D01*
X65870361Y38782102D01*
X65691122Y38656598D01*
X65536402Y38501878D01*
X65410898Y38322639D01*
X65318425Y38124332D01*
X65261792Y37912975D01*
X65242722Y37695000D01*
X65261792Y37477026D01*
X65318425Y37265669D01*
X65360548Y37175337D01*
X65410898Y37067361D01*
X65536402Y36888123D01*
X65691123Y36733402D01*
X65870361Y36607898D01*
X66068670Y36515425D01*
X66280023Y36458793D01*
X66498000Y36439723D01*
X66715977Y36458793D01*
X66927330Y36515425D01*
X67125639Y36607898D01*
X67304877Y36733402D01*
X67425805Y36854330D01*
X67467270Y36895794D01*
X67468286Y36894778D01*
X67502165Y36924489D01*
X67559423Y36938500D01*
X70005378Y36938500D01*
X70060222Y36925712D01*
X70103754Y36889986D01*
X70126995Y36838691D01*
X70125153Y36782406D01*
X70087792Y36642975D01*
X70068722Y36425001D01*
X70087792Y36207024D01*
X70090029Y36198676D01*
X70090029Y36134489D01*
X70057935Y36078901D01*
X70002347Y36046808D01*
X69938160Y36046808D01*
X69882573Y36078902D01*
X69844880Y36116595D01*
X69844880Y36116596D01*
X69844877Y36116598D01*
X69665639Y36242102D01*
X69574205Y36284739D01*
X69467331Y36334575D01*
X69255974Y36391208D01*
X69038000Y36410278D01*
X68820025Y36391208D01*
X68608668Y36334575D01*
X68410361Y36242102D01*
X68231122Y36116598D01*
X68076402Y35961878D01*
X67950898Y35782639D01*
X67858425Y35584332D01*
X67801792Y35372975D01*
X67782722Y35155000D01*
X67801792Y34937026D01*
X67858425Y34725669D01*
X67900548Y34635337D01*
X67950898Y34527361D01*
X68076402Y34348123D01*
X68231123Y34193402D01*
X68410361Y34067898D01*
X68608670Y33975425D01*
X68820023Y33918793D01*
X69038000Y33899723D01*
X69255977Y33918793D01*
X69467330Y33975425D01*
X69665639Y34067898D01*
X69844877Y34193402D01*
X69965805Y34314330D01*
X70007270Y34355794D01*
X70008286Y34354778D01*
X70042165Y34384489D01*
X70099423Y34398500D01*
X87531378Y34398500D01*
X87586222Y34385712D01*
X87629754Y34349986D01*
X87652995Y34298691D01*
X87651153Y34242406D01*
X87613792Y34102975D01*
X87594722Y33885000D01*
X87613792Y33667026D01*
X87613793Y33667023D01*
X87670425Y33455670D01*
X87678289Y33438804D01*
X87679642Y33435904D01*
X87690993Y33375389D01*
X87671839Y33316874D01*
X87626901Y33274786D01*
X87567259Y33259500D01*
X15476338Y33259500D01*
X15428885Y33268939D01*
X15388657Y33295818D01*
X15367601Y33316874D01*
X15234877Y33449598D01*
X15055639Y33575102D01*
X14964205Y33617739D01*
X14857331Y33667575D01*
X14645974Y33724208D01*
X14428000Y33743278D01*
X14210025Y33724208D01*
X13998668Y33667575D01*
X13800361Y33575102D01*
X13621122Y33449598D01*
X13466402Y33294878D01*
X13340898Y33115639D01*
X13248425Y32917332D01*
X13191792Y32705975D01*
X13172722Y32488001D01*
X200500Y32488001D01*
X200500Y60065325D01*
X2295747Y60065325D01*
X2305036Y59822987D01*
X2305749Y59804407D01*
X2330790Y59675287D01*
X2355463Y59548070D01*
X2443719Y59302336D01*
X2443720Y59302333D01*
X2443721Y59302332D01*
X2461152Y59270277D01*
X2568460Y59072940D01*
X2726749Y58865285D01*
X2914887Y58684221D01*
X3066832Y58577346D01*
X3128456Y58534001D01*
X3362453Y58418141D01*
X3611391Y58339360D01*
X3611392Y58339360D01*
X3611395Y58339359D01*
X3869445Y58299500D01*
X4065177Y58299500D01*
X4065179Y58299500D01*
X4089536Y58301371D01*
X4260344Y58314484D01*
X4514586Y58373979D01*
X4689144Y58444332D01*
X4756762Y58471584D01*
X4756764Y58471586D01*
X4756766Y58471586D01*
X4981208Y58605018D01*
X5182652Y58771148D01*
X5356375Y58966080D01*
X5498306Y59185247D01*
X5605118Y59423511D01*
X5674307Y59675287D01*
X5704252Y59934675D01*
X5699244Y60065325D01*
X94295747Y60065325D01*
X94305036Y59822987D01*
X94305749Y59804407D01*
X94330790Y59675287D01*
X94355463Y59548070D01*
X94443719Y59302336D01*
X94443720Y59302333D01*
X94443721Y59302332D01*
X94461152Y59270277D01*
X94568460Y59072940D01*
X94726749Y58865285D01*
X94914887Y58684221D01*
X95066832Y58577346D01*
X95128456Y58534001D01*
X95362453Y58418141D01*
X95611391Y58339360D01*
X95611392Y58339360D01*
X95611395Y58339359D01*
X95869445Y58299500D01*
X96065177Y58299500D01*
X96065179Y58299500D01*
X96089536Y58301371D01*
X96260344Y58314484D01*
X96514586Y58373979D01*
X96689144Y58444332D01*
X96756762Y58471584D01*
X96756764Y58471586D01*
X96756766Y58471586D01*
X96981208Y58605018D01*
X97182652Y58771148D01*
X97356375Y58966080D01*
X97498306Y59185247D01*
X97605118Y59423511D01*
X97674307Y59675287D01*
X97704252Y59934675D01*
X97694251Y60195593D01*
X97644538Y60451927D01*
X97556279Y60697668D01*
X97431541Y60927057D01*
X97431539Y60927061D01*
X97273250Y61134716D01*
X97085112Y61315780D01*
X96871546Y61465998D01*
X96637546Y61581860D01*
X96388608Y61660641D01*
X96227562Y61685516D01*
X96130555Y61700500D01*
X95934823Y61700500D01*
X95934821Y61700500D01*
X95739656Y61685516D01*
X95485412Y61626021D01*
X95243237Y61528417D01*
X95018791Y61394983D01*
X94817346Y61228852D01*
X94643622Y61033918D01*
X94501693Y60814753D01*
X94394881Y60576491D01*
X94325693Y60324717D01*
X94295747Y60065325D01*
X5699244Y60065325D01*
X5694251Y60195593D01*
X5644538Y60451927D01*
X5556279Y60697668D01*
X5431541Y60927057D01*
X5431539Y60927061D01*
X5273250Y61134716D01*
X5085112Y61315780D01*
X4871546Y61465998D01*
X4637546Y61581860D01*
X4388608Y61660641D01*
X4227562Y61685516D01*
X4130555Y61700500D01*
X3934823Y61700500D01*
X3934821Y61700500D01*
X3739656Y61685516D01*
X3485412Y61626021D01*
X3243237Y61528417D01*
X3018791Y61394983D01*
X2817346Y61228852D01*
X2643622Y61033918D01*
X2501693Y60814753D01*
X2394881Y60576491D01*
X2325693Y60324717D01*
X2295747Y60065325D01*
X200500Y60065325D01*
X200500Y64337000D01*
X4208340Y64337000D01*
X4228936Y64101593D01*
X4260593Y63983447D01*
X4290097Y63873337D01*
X4389965Y63659170D01*
X4525505Y63465599D01*
X4692599Y63298505D01*
X4886170Y63162965D01*
X5100337Y63063097D01*
X5328592Y63001937D01*
X5564000Y62981341D01*
X5799408Y63001937D01*
X6027663Y63063097D01*
X6241830Y63162965D01*
X6435401Y63298505D01*
X6602495Y63465599D01*
X6732426Y63651161D01*
X6776743Y63690025D01*
X6834000Y63704036D01*
X6891257Y63690025D01*
X6935573Y63651161D01*
X7065505Y63465599D01*
X7232599Y63298505D01*
X7426170Y63162965D01*
X7640337Y63063097D01*
X7868592Y63001937D01*
X8104000Y62981341D01*
X8339408Y63001937D01*
X8567663Y63063097D01*
X8781830Y63162965D01*
X8975401Y63298505D01*
X9142495Y63465599D01*
X9272426Y63651161D01*
X9316743Y63690025D01*
X9374000Y63704036D01*
X9431257Y63690025D01*
X9475573Y63651161D01*
X9605505Y63465599D01*
X9772599Y63298505D01*
X9966170Y63162965D01*
X10180337Y63063097D01*
X10408592Y63001937D01*
X10644000Y62981341D01*
X10879408Y63001937D01*
X11107663Y63063097D01*
X11321830Y63162965D01*
X11515401Y63298505D01*
X11682495Y63465599D01*
X11812426Y63651161D01*
X11856743Y63690025D01*
X11914000Y63704036D01*
X11971257Y63690025D01*
X12015573Y63651161D01*
X12145505Y63465599D01*
X12312599Y63298505D01*
X12506170Y63162965D01*
X12720337Y63063097D01*
X12948592Y63001937D01*
X13184000Y62981341D01*
X13419408Y63001937D01*
X13647663Y63063097D01*
X13861830Y63162965D01*
X13946248Y63222075D01*
X14962625Y63222075D01*
X15046420Y63163401D01*
X15260507Y63063570D01*
X15488681Y63002431D01*
X15724000Y62981843D01*
X15959318Y63002431D01*
X16187492Y63063570D01*
X16401576Y63163400D01*
X16485373Y63222075D01*
X15724000Y63983447D01*
X14962625Y63222075D01*
X13946248Y63222075D01*
X14055401Y63298505D01*
X14222495Y63465599D01*
X14352732Y63651598D01*
X14397048Y63690461D01*
X14454305Y63704472D01*
X14511562Y63690461D01*
X14555880Y63651595D01*
X14609073Y63575627D01*
X15370447Y64336999D01*
X15370447Y64337000D01*
X14609073Y65098374D01*
X14555881Y65022406D01*
X14511563Y64983540D01*
X14454306Y64969529D01*
X14397048Y64983540D01*
X14352730Y65022405D01*
X14222495Y65208401D01*
X14055401Y65375495D01*
X13869839Y65505427D01*
X13830974Y65549745D01*
X13816964Y65607001D01*
X13830975Y65664258D01*
X13869837Y65708572D01*
X14055401Y65838505D01*
X14222495Y66005599D01*
X14352426Y66191161D01*
X14396743Y66230025D01*
X14454000Y66244036D01*
X14511257Y66230025D01*
X14555573Y66191161D01*
X14685505Y66005599D01*
X14852599Y65838505D01*
X15038597Y65708268D01*
X15077460Y65663952D01*
X15091471Y65606694D01*
X15077460Y65549437D01*
X15038594Y65505119D01*
X14962626Y65451927D01*
X15724000Y64690553D01*
X15724001Y64690553D01*
X16485373Y65451927D01*
X16485373Y65451928D01*
X16409405Y65505120D01*
X16370539Y65549438D01*
X16356528Y65606695D01*
X16370539Y65663952D01*
X16409402Y65708268D01*
X16595401Y65838505D01*
X16762495Y66005599D01*
X16892426Y66191161D01*
X16936743Y66230025D01*
X16994000Y66244036D01*
X17051257Y66230025D01*
X17095573Y66191161D01*
X17225505Y66005599D01*
X17392599Y65838505D01*
X17578160Y65708574D01*
X17617024Y65664257D01*
X17631035Y65607000D01*
X17617024Y65549743D01*
X17578159Y65505425D01*
X17392595Y65375492D01*
X17225508Y65208405D01*
X17225505Y65208402D01*
X17225505Y65208401D01*
X17095271Y65022406D01*
X17095270Y65022405D01*
X17050952Y64983540D01*
X16993695Y64969529D01*
X16936438Y64983540D01*
X16892120Y65022405D01*
X16838925Y65098374D01*
X16838925Y65098375D01*
X16077553Y64337000D01*
X16077553Y64336999D01*
X16838925Y63575627D01*
X16892119Y63651595D01*
X16936437Y63690461D01*
X16993694Y63704472D01*
X17050951Y63690461D01*
X17095267Y63651598D01*
X17225505Y63465599D01*
X17392599Y63298505D01*
X17586170Y63162965D01*
X17800337Y63063097D01*
X18028592Y63001937D01*
X18264000Y62981341D01*
X18499408Y63001937D01*
X18727663Y63063097D01*
X18941830Y63162965D01*
X19135401Y63298505D01*
X19302495Y63465599D01*
X19432426Y63651161D01*
X19476743Y63690025D01*
X19534000Y63704036D01*
X19591257Y63690025D01*
X19635573Y63651161D01*
X19765505Y63465599D01*
X19932599Y63298505D01*
X20126170Y63162965D01*
X20340337Y63063097D01*
X20568592Y63001937D01*
X20804000Y62981341D01*
X21039408Y63001937D01*
X21267663Y63063097D01*
X21481830Y63162965D01*
X21675401Y63298505D01*
X21842495Y63465599D01*
X21972426Y63651161D01*
X22016743Y63690025D01*
X22074000Y63704036D01*
X22131257Y63690025D01*
X22175573Y63651161D01*
X22305505Y63465599D01*
X22472599Y63298505D01*
X22666170Y63162965D01*
X22880337Y63063097D01*
X23108592Y63001937D01*
X23344000Y62981341D01*
X23579408Y63001937D01*
X23807663Y63063097D01*
X24021830Y63162965D01*
X24215401Y63298505D01*
X24382495Y63465599D01*
X24512426Y63651161D01*
X24556743Y63690025D01*
X24614000Y63704036D01*
X24671257Y63690025D01*
X24715573Y63651161D01*
X24845505Y63465599D01*
X25012599Y63298505D01*
X25206170Y63162965D01*
X25420337Y63063097D01*
X25648592Y63001937D01*
X25884000Y62981341D01*
X26119408Y63001937D01*
X26347663Y63063097D01*
X26561830Y63162965D01*
X26755401Y63298505D01*
X26922495Y63465599D01*
X27052426Y63651161D01*
X27096743Y63690025D01*
X27154000Y63704036D01*
X27211257Y63690025D01*
X27255573Y63651161D01*
X27385505Y63465599D01*
X27552599Y63298505D01*
X27746170Y63162965D01*
X27960337Y63063097D01*
X28188592Y63001937D01*
X28424000Y62981341D01*
X28659408Y63001937D01*
X28887663Y63063097D01*
X29101830Y63162965D01*
X29295401Y63298505D01*
X29462495Y63465599D01*
X29592426Y63651161D01*
X29636743Y63690025D01*
X29694000Y63704036D01*
X29751257Y63690025D01*
X29795573Y63651161D01*
X29925505Y63465599D01*
X30092599Y63298505D01*
X30286170Y63162965D01*
X30500337Y63063097D01*
X30728592Y63001937D01*
X30964000Y62981341D01*
X31199408Y63001937D01*
X31427663Y63063097D01*
X31641830Y63162965D01*
X31835401Y63298505D01*
X32002495Y63465599D01*
X32132426Y63651161D01*
X32176743Y63690025D01*
X32234000Y63704036D01*
X32291257Y63690025D01*
X32335573Y63651161D01*
X32465505Y63465599D01*
X32632599Y63298505D01*
X32826170Y63162965D01*
X33040337Y63063097D01*
X33268592Y63001937D01*
X33504000Y62981341D01*
X33739408Y63001937D01*
X33967663Y63063097D01*
X34181830Y63162965D01*
X34375401Y63298505D01*
X34542495Y63465599D01*
X34672426Y63651161D01*
X34716743Y63690025D01*
X34774000Y63704036D01*
X34831257Y63690025D01*
X34875573Y63651161D01*
X35005505Y63465599D01*
X35172599Y63298505D01*
X35366170Y63162965D01*
X35580337Y63063097D01*
X35808592Y63001937D01*
X36044000Y62981341D01*
X36279408Y63001937D01*
X36507663Y63063097D01*
X36721830Y63162965D01*
X36915401Y63298505D01*
X37082495Y63465599D01*
X37212426Y63651161D01*
X37256743Y63690025D01*
X37314000Y63704036D01*
X37371257Y63690025D01*
X37415573Y63651161D01*
X37545505Y63465599D01*
X37712599Y63298505D01*
X37906170Y63162965D01*
X38120337Y63063097D01*
X38348592Y63001937D01*
X38584000Y62981341D01*
X38819408Y63001937D01*
X39047663Y63063097D01*
X39261830Y63162965D01*
X39455401Y63298505D01*
X39622495Y63465599D01*
X39752426Y63651161D01*
X39796743Y63690025D01*
X39854000Y63704036D01*
X39911257Y63690025D01*
X39955573Y63651161D01*
X40085505Y63465599D01*
X40252599Y63298505D01*
X40446170Y63162965D01*
X40660337Y63063097D01*
X40888592Y63001937D01*
X41124000Y62981341D01*
X41359408Y63001937D01*
X41587663Y63063097D01*
X41801830Y63162965D01*
X41995401Y63298505D01*
X42162495Y63465599D01*
X42292426Y63651161D01*
X42336743Y63690025D01*
X42394000Y63704036D01*
X42451257Y63690025D01*
X42495573Y63651161D01*
X42625505Y63465599D01*
X42792599Y63298505D01*
X42986170Y63162965D01*
X43200337Y63063097D01*
X43428592Y63001937D01*
X43664000Y62981341D01*
X43899408Y63001937D01*
X44127663Y63063097D01*
X44341830Y63162965D01*
X44535401Y63298505D01*
X44702495Y63465599D01*
X44832426Y63651161D01*
X44876743Y63690025D01*
X44934000Y63704036D01*
X44991257Y63690025D01*
X45035573Y63651161D01*
X45165505Y63465599D01*
X45332599Y63298505D01*
X45526170Y63162965D01*
X45740337Y63063097D01*
X45968592Y63001937D01*
X46204000Y62981341D01*
X46439408Y63001937D01*
X46667663Y63063097D01*
X46881830Y63162965D01*
X47075401Y63298505D01*
X47242495Y63465599D01*
X47372426Y63651161D01*
X47416743Y63690025D01*
X47474000Y63704036D01*
X47531257Y63690025D01*
X47575573Y63651161D01*
X47705505Y63465599D01*
X47872599Y63298505D01*
X48066170Y63162965D01*
X48280337Y63063097D01*
X48508592Y63001937D01*
X48744000Y62981341D01*
X48979408Y63001937D01*
X49207663Y63063097D01*
X49421830Y63162965D01*
X49615401Y63298505D01*
X49782495Y63465599D01*
X49912426Y63651161D01*
X49956743Y63690025D01*
X50014000Y63704036D01*
X50071257Y63690025D01*
X50115573Y63651161D01*
X50245505Y63465599D01*
X50412599Y63298505D01*
X50606170Y63162965D01*
X50820337Y63063097D01*
X51048592Y63001937D01*
X51284000Y62981341D01*
X51519408Y63001937D01*
X51747663Y63063097D01*
X51961830Y63162965D01*
X52046248Y63222075D01*
X53062625Y63222075D01*
X53146420Y63163401D01*
X53360507Y63063570D01*
X53588681Y63002431D01*
X53824000Y62981843D01*
X54059318Y63002431D01*
X54287492Y63063570D01*
X54501576Y63163400D01*
X54585373Y63222075D01*
X53824000Y63983447D01*
X53062625Y63222075D01*
X52046248Y63222075D01*
X52155401Y63298505D01*
X52322495Y63465599D01*
X52452732Y63651598D01*
X52497048Y63690461D01*
X52554305Y63704472D01*
X52611562Y63690461D01*
X52655880Y63651595D01*
X52709073Y63575627D01*
X53470447Y64336999D01*
X53470447Y64337001D01*
X52709073Y65098374D01*
X52655881Y65022406D01*
X52611563Y64983540D01*
X52554306Y64969529D01*
X52497048Y64983540D01*
X52452730Y65022405D01*
X52322495Y65208401D01*
X52155401Y65375495D01*
X51969839Y65505427D01*
X51930974Y65549745D01*
X51916964Y65607001D01*
X51930975Y65664258D01*
X51969837Y65708572D01*
X52155401Y65838505D01*
X52322495Y66005599D01*
X52452426Y66191161D01*
X52496743Y66230025D01*
X52554000Y66244036D01*
X52611257Y66230025D01*
X52655573Y66191161D01*
X52785505Y66005599D01*
X52952599Y65838505D01*
X53138597Y65708268D01*
X53177460Y65663952D01*
X53191471Y65606694D01*
X53177460Y65549437D01*
X53138594Y65505119D01*
X53062626Y65451927D01*
X53824000Y64690553D01*
X53824001Y64690553D01*
X54585373Y65451927D01*
X54585373Y65451928D01*
X54509405Y65505120D01*
X54470539Y65549438D01*
X54456528Y65606695D01*
X54470539Y65663952D01*
X54509402Y65708268D01*
X54695401Y65838505D01*
X54862495Y66005599D01*
X54992426Y66191161D01*
X55036743Y66230025D01*
X55094000Y66244036D01*
X55151257Y66230025D01*
X55195573Y66191161D01*
X55325505Y66005599D01*
X55492599Y65838505D01*
X55678160Y65708574D01*
X55717024Y65664257D01*
X55731035Y65607000D01*
X55717024Y65549743D01*
X55678159Y65505425D01*
X55492595Y65375492D01*
X55325508Y65208405D01*
X55325505Y65208402D01*
X55325505Y65208401D01*
X55195271Y65022406D01*
X55195270Y65022405D01*
X55150952Y64983540D01*
X55093695Y64969529D01*
X55036438Y64983540D01*
X54992120Y65022405D01*
X54938925Y65098374D01*
X54938925Y65098375D01*
X54177553Y64337000D01*
X54177553Y64336999D01*
X54938925Y63575627D01*
X54992119Y63651595D01*
X55036437Y63690461D01*
X55093694Y63704472D01*
X55150951Y63690461D01*
X55195267Y63651598D01*
X55325505Y63465599D01*
X55492599Y63298505D01*
X55686170Y63162965D01*
X55900337Y63063097D01*
X56128592Y63001937D01*
X56364000Y62981341D01*
X56599408Y63001937D01*
X56827663Y63063097D01*
X57041830Y63162965D01*
X57235401Y63298505D01*
X57402495Y63465599D01*
X57532426Y63651161D01*
X57576743Y63690025D01*
X57634000Y63704036D01*
X57691257Y63690025D01*
X57735573Y63651161D01*
X57865505Y63465599D01*
X58032599Y63298505D01*
X58226170Y63162965D01*
X58440337Y63063097D01*
X58668592Y63001937D01*
X58904000Y62981341D01*
X59139408Y63001937D01*
X59367663Y63063097D01*
X59581830Y63162965D01*
X59775401Y63298505D01*
X59942495Y63465599D01*
X60072426Y63651161D01*
X60116743Y63690025D01*
X60174000Y63704036D01*
X60231257Y63690025D01*
X60275573Y63651161D01*
X60405505Y63465599D01*
X60572599Y63298505D01*
X60766170Y63162965D01*
X60980337Y63063097D01*
X61208592Y63001937D01*
X61444000Y62981341D01*
X61679408Y63001937D01*
X61907663Y63063097D01*
X62121830Y63162965D01*
X62315401Y63298505D01*
X62482495Y63465599D01*
X62612426Y63651161D01*
X62656743Y63690025D01*
X62714000Y63704036D01*
X62771257Y63690025D01*
X62815573Y63651161D01*
X62945505Y63465599D01*
X63112599Y63298505D01*
X63306170Y63162965D01*
X63520337Y63063097D01*
X63748592Y63001937D01*
X63984000Y62981341D01*
X64219408Y63001937D01*
X64447663Y63063097D01*
X64661830Y63162965D01*
X64855401Y63298505D01*
X65022495Y63465599D01*
X65152426Y63651161D01*
X65196743Y63690025D01*
X65254000Y63704036D01*
X65311257Y63690025D01*
X65355573Y63651161D01*
X65485505Y63465599D01*
X65652599Y63298505D01*
X65846170Y63162965D01*
X66060337Y63063097D01*
X66288592Y63001937D01*
X66524000Y62981341D01*
X66759408Y63001937D01*
X66987663Y63063097D01*
X67201830Y63162965D01*
X67395401Y63298505D01*
X67562495Y63465599D01*
X67692426Y63651161D01*
X67736743Y63690025D01*
X67794000Y63704036D01*
X67851257Y63690025D01*
X67895573Y63651161D01*
X68025505Y63465599D01*
X68192599Y63298505D01*
X68386170Y63162965D01*
X68600337Y63063097D01*
X68828592Y63001937D01*
X69064000Y62981341D01*
X69299408Y63001937D01*
X69527663Y63063097D01*
X69741830Y63162965D01*
X69935401Y63298505D01*
X70102495Y63465599D01*
X70232426Y63651161D01*
X70276743Y63690025D01*
X70334000Y63704036D01*
X70391257Y63690025D01*
X70435573Y63651161D01*
X70565505Y63465599D01*
X70732599Y63298505D01*
X70926170Y63162965D01*
X71140337Y63063097D01*
X71368592Y63001937D01*
X71604000Y62981341D01*
X71839408Y63001937D01*
X72067663Y63063097D01*
X72281830Y63162965D01*
X72475401Y63298505D01*
X72642495Y63465599D01*
X72772426Y63651161D01*
X72816743Y63690025D01*
X72874000Y63704036D01*
X72931257Y63690025D01*
X72975573Y63651161D01*
X73105505Y63465599D01*
X73272599Y63298505D01*
X73466170Y63162965D01*
X73680337Y63063097D01*
X73908592Y63001937D01*
X74144000Y62981341D01*
X74379408Y63001937D01*
X74607663Y63063097D01*
X74821830Y63162965D01*
X75015401Y63298505D01*
X75182495Y63465599D01*
X75312426Y63651161D01*
X75356743Y63690025D01*
X75414000Y63704036D01*
X75471257Y63690025D01*
X75515573Y63651161D01*
X75645505Y63465599D01*
X75812599Y63298505D01*
X76006170Y63162965D01*
X76220337Y63063097D01*
X76448592Y63001937D01*
X76684000Y62981341D01*
X76919408Y63001937D01*
X77147663Y63063097D01*
X77361830Y63162965D01*
X77555401Y63298505D01*
X77722495Y63465599D01*
X77852426Y63651161D01*
X77896743Y63690025D01*
X77954000Y63704036D01*
X78011257Y63690025D01*
X78055573Y63651161D01*
X78185505Y63465599D01*
X78352599Y63298505D01*
X78546170Y63162965D01*
X78760337Y63063097D01*
X78988592Y63001937D01*
X79224000Y62981341D01*
X79459408Y63001937D01*
X79687663Y63063097D01*
X79901830Y63162965D01*
X80095401Y63298505D01*
X80262495Y63465599D01*
X80392426Y63651161D01*
X80436743Y63690025D01*
X80494000Y63704036D01*
X80551257Y63690025D01*
X80595573Y63651161D01*
X80725505Y63465599D01*
X80892599Y63298505D01*
X81086170Y63162965D01*
X81300337Y63063097D01*
X81528592Y63001937D01*
X81764000Y62981341D01*
X81999408Y63001937D01*
X82227663Y63063097D01*
X82441830Y63162965D01*
X82526248Y63222075D01*
X83542625Y63222075D01*
X83626420Y63163401D01*
X83840507Y63063570D01*
X84068681Y63002431D01*
X84304000Y62981843D01*
X84539318Y63002431D01*
X84767492Y63063570D01*
X84981576Y63163400D01*
X85065373Y63222075D01*
X84304000Y63983447D01*
X83542625Y63222075D01*
X82526248Y63222075D01*
X82635401Y63298505D01*
X82802495Y63465599D01*
X82932732Y63651598D01*
X82977048Y63690461D01*
X83034305Y63704472D01*
X83091562Y63690461D01*
X83135880Y63651595D01*
X83189073Y63575627D01*
X83950447Y64336999D01*
X83950447Y64337001D01*
X83189073Y65098374D01*
X83135881Y65022406D01*
X83091563Y64983540D01*
X83034306Y64969529D01*
X82977048Y64983540D01*
X82932730Y65022405D01*
X82802495Y65208401D01*
X82635401Y65375495D01*
X82449839Y65505427D01*
X82410975Y65549743D01*
X82396964Y65607000D01*
X82410975Y65664257D01*
X82449839Y65708574D01*
X82635401Y65838505D01*
X82802495Y66005599D01*
X82932426Y66191161D01*
X82976743Y66230025D01*
X83034000Y66244036D01*
X83091257Y66230025D01*
X83135573Y66191161D01*
X83265505Y66005599D01*
X83432599Y65838505D01*
X83618597Y65708268D01*
X83657460Y65663952D01*
X83671471Y65606694D01*
X83657460Y65549437D01*
X83618594Y65505119D01*
X83542626Y65451927D01*
X84304000Y64690553D01*
X84304001Y64690553D01*
X85065373Y65451927D01*
X85065373Y65451928D01*
X84989405Y65505120D01*
X84950539Y65549438D01*
X84936528Y65606695D01*
X84950539Y65663952D01*
X84989402Y65708268D01*
X85175401Y65838505D01*
X85342495Y66005599D01*
X85472426Y66191161D01*
X85516743Y66230025D01*
X85574000Y66244036D01*
X85631257Y66230025D01*
X85675573Y66191161D01*
X85805505Y66005599D01*
X85972599Y65838505D01*
X86158160Y65708574D01*
X86197024Y65664257D01*
X86211035Y65607000D01*
X86197024Y65549743D01*
X86158159Y65505425D01*
X85972595Y65375492D01*
X85805508Y65208405D01*
X85805505Y65208402D01*
X85805505Y65208401D01*
X85675271Y65022406D01*
X85675270Y65022405D01*
X85630952Y64983540D01*
X85573695Y64969529D01*
X85516438Y64983540D01*
X85472120Y65022405D01*
X85418925Y65098374D01*
X85418925Y65098375D01*
X84657553Y64337000D01*
X85418925Y63575627D01*
X85472119Y63651595D01*
X85516437Y63690461D01*
X85573694Y63704472D01*
X85630951Y63690461D01*
X85675267Y63651598D01*
X85805505Y63465599D01*
X85972599Y63298505D01*
X86166170Y63162965D01*
X86380337Y63063097D01*
X86608592Y63001937D01*
X86844000Y62981341D01*
X87079408Y63001937D01*
X87307663Y63063097D01*
X87521830Y63162965D01*
X87715401Y63298505D01*
X87882495Y63465599D01*
X88012426Y63651161D01*
X88056743Y63690025D01*
X88114000Y63704036D01*
X88171257Y63690025D01*
X88215573Y63651161D01*
X88345505Y63465599D01*
X88512599Y63298505D01*
X88706170Y63162965D01*
X88920337Y63063097D01*
X89148592Y63001937D01*
X89384000Y62981341D01*
X89619408Y63001937D01*
X89847663Y63063097D01*
X90061830Y63162965D01*
X90255401Y63298505D01*
X90422495Y63465599D01*
X90552426Y63651161D01*
X90596743Y63690025D01*
X90654000Y63704036D01*
X90711257Y63690025D01*
X90755573Y63651161D01*
X90885505Y63465599D01*
X91052599Y63298505D01*
X91246170Y63162965D01*
X91460337Y63063097D01*
X91688592Y63001937D01*
X91924000Y62981341D01*
X92159408Y63001937D01*
X92387663Y63063097D01*
X92601830Y63162965D01*
X92686248Y63222075D01*
X93702625Y63222075D01*
X93786420Y63163401D01*
X94000507Y63063570D01*
X94228681Y63002431D01*
X94464000Y62981843D01*
X94699318Y63002431D01*
X94927492Y63063570D01*
X95141576Y63163400D01*
X95225373Y63222075D01*
X94464000Y63983447D01*
X93702625Y63222075D01*
X92686248Y63222075D01*
X92795401Y63298505D01*
X92962495Y63465599D01*
X93092732Y63651598D01*
X93137048Y63690461D01*
X93194305Y63704472D01*
X93251562Y63690461D01*
X93295880Y63651595D01*
X93349073Y63575627D01*
X94110447Y64336999D01*
X94817553Y64336999D01*
X95578925Y63575627D01*
X95637600Y63659424D01*
X95737430Y63873508D01*
X95798569Y64101682D01*
X95819157Y64337000D01*
X95798569Y64572319D01*
X95737430Y64800493D01*
X95637599Y65014579D01*
X95578926Y65098374D01*
X95578925Y65098375D01*
X94817553Y64337000D01*
X94817553Y64336999D01*
X94110447Y64336999D01*
X94110447Y64337001D01*
X93349073Y65098374D01*
X93295881Y65022406D01*
X93251563Y64983540D01*
X93194306Y64969529D01*
X93137048Y64983540D01*
X93092730Y65022405D01*
X92962495Y65208401D01*
X92795401Y65375495D01*
X92686243Y65451928D01*
X93702625Y65451928D01*
X94464000Y64690553D01*
X94464001Y64690553D01*
X95225373Y65451927D01*
X95225373Y65451928D01*
X95148969Y65505426D01*
X95110103Y65549744D01*
X95096092Y65607001D01*
X95110103Y65664258D01*
X95148969Y65708576D01*
X95225373Y65762075D01*
X94464000Y66523447D01*
X93702625Y65762075D01*
X93779031Y65708575D01*
X93817897Y65664256D01*
X93831907Y65606999D01*
X93817896Y65549742D01*
X93779029Y65505424D01*
X93702625Y65451928D01*
X92686243Y65451928D01*
X92609839Y65505427D01*
X92570975Y65549743D01*
X92556964Y65607000D01*
X92570975Y65664257D01*
X92609839Y65708574D01*
X92795401Y65838505D01*
X92962495Y66005599D01*
X93092732Y66191598D01*
X93137048Y66230461D01*
X93194305Y66244472D01*
X93251562Y66230461D01*
X93295880Y66191595D01*
X93349073Y66115627D01*
X94110447Y66876999D01*
X94817553Y66876999D01*
X95578925Y66115627D01*
X95637600Y66199424D01*
X95737430Y66413508D01*
X95798569Y66641682D01*
X95819157Y66877001D01*
X95798569Y67112319D01*
X95737430Y67340493D01*
X95637599Y67554579D01*
X95578926Y67638374D01*
X95578925Y67638375D01*
X94817553Y66877000D01*
X94817553Y66876999D01*
X94110447Y66876999D01*
X94110447Y66877001D01*
X93349073Y67638374D01*
X93295881Y67562406D01*
X93251563Y67523540D01*
X93194306Y67509529D01*
X93137048Y67523540D01*
X93092730Y67562405D01*
X92962495Y67748401D01*
X92795401Y67915495D01*
X92686243Y67991928D01*
X93702625Y67991928D01*
X94464000Y67230553D01*
X94464001Y67230553D01*
X95225373Y67991927D01*
X95225373Y67991928D01*
X95141580Y68050600D01*
X94927492Y68150431D01*
X94699318Y68211570D01*
X94464000Y68232158D01*
X94228681Y68211570D01*
X94000507Y68150431D01*
X93786422Y68050601D01*
X93702625Y67991928D01*
X92686243Y67991928D01*
X92601830Y68051035D01*
X92387663Y68150903D01*
X92326502Y68167291D01*
X92159407Y68212064D01*
X91924000Y68232660D01*
X91688592Y68212064D01*
X91460336Y68150903D01*
X91246170Y68051035D01*
X91052598Y67915495D01*
X90885505Y67748402D01*
X90755575Y67562841D01*
X90711257Y67523975D01*
X90654000Y67509964D01*
X90596743Y67523975D01*
X90552425Y67562841D01*
X90422494Y67748402D01*
X90255404Y67915492D01*
X90255404Y67915493D01*
X90255401Y67915495D01*
X90061830Y68051035D01*
X89847663Y68150903D01*
X89786502Y68167291D01*
X89619407Y68212064D01*
X89384000Y68232660D01*
X89148592Y68212064D01*
X88920336Y68150903D01*
X88706170Y68051035D01*
X88512598Y67915495D01*
X88345505Y67748402D01*
X88215575Y67562841D01*
X88171257Y67523975D01*
X88114000Y67509964D01*
X88056743Y67523975D01*
X88012425Y67562841D01*
X87882494Y67748402D01*
X87715404Y67915492D01*
X87715404Y67915493D01*
X87715401Y67915495D01*
X87521830Y68051035D01*
X87307663Y68150903D01*
X87246502Y68167291D01*
X87079407Y68212064D01*
X86844000Y68232660D01*
X86608592Y68212064D01*
X86380336Y68150903D01*
X86166170Y68051035D01*
X85972598Y67915495D01*
X85805505Y67748402D01*
X85675575Y67562841D01*
X85631257Y67523975D01*
X85574000Y67509964D01*
X85516743Y67523975D01*
X85472425Y67562841D01*
X85342494Y67748402D01*
X85175404Y67915492D01*
X85175404Y67915493D01*
X85175401Y67915495D01*
X84981830Y68051035D01*
X84767663Y68150903D01*
X84706502Y68167291D01*
X84539407Y68212064D01*
X84304000Y68232660D01*
X84068592Y68212064D01*
X83840336Y68150903D01*
X83626170Y68051035D01*
X83432598Y67915495D01*
X83265505Y67748402D01*
X83135575Y67562841D01*
X83091257Y67523975D01*
X83034000Y67509964D01*
X82976743Y67523975D01*
X82932425Y67562841D01*
X82802494Y67748402D01*
X82635404Y67915492D01*
X82635404Y67915493D01*
X82635401Y67915495D01*
X82441830Y68051035D01*
X82227663Y68150903D01*
X82166502Y68167291D01*
X81999407Y68212064D01*
X81764000Y68232660D01*
X81528592Y68212064D01*
X81300336Y68150903D01*
X81086170Y68051035D01*
X80892598Y67915495D01*
X80725505Y67748402D01*
X80595575Y67562841D01*
X80551257Y67523975D01*
X80494000Y67509964D01*
X80436743Y67523975D01*
X80392425Y67562841D01*
X80262494Y67748402D01*
X80095404Y67915492D01*
X80095404Y67915493D01*
X80095401Y67915495D01*
X79901830Y68051035D01*
X79687663Y68150903D01*
X79626502Y68167291D01*
X79459407Y68212064D01*
X79224000Y68232660D01*
X78988592Y68212064D01*
X78760336Y68150903D01*
X78546170Y68051035D01*
X78352598Y67915495D01*
X78185505Y67748402D01*
X78055575Y67562841D01*
X78011257Y67523975D01*
X77954000Y67509964D01*
X77896743Y67523975D01*
X77852425Y67562841D01*
X77722494Y67748402D01*
X77555404Y67915492D01*
X77555404Y67915493D01*
X77555401Y67915495D01*
X77361830Y68051035D01*
X77147663Y68150903D01*
X77086502Y68167291D01*
X76919407Y68212064D01*
X76684000Y68232660D01*
X76448592Y68212064D01*
X76220336Y68150903D01*
X76006170Y68051035D01*
X75812598Y67915495D01*
X75645505Y67748402D01*
X75515575Y67562841D01*
X75471257Y67523975D01*
X75414000Y67509964D01*
X75356743Y67523975D01*
X75312425Y67562841D01*
X75182494Y67748402D01*
X75015404Y67915492D01*
X75015404Y67915493D01*
X75015401Y67915495D01*
X74821830Y68051035D01*
X74607663Y68150903D01*
X74546502Y68167291D01*
X74379407Y68212064D01*
X74144000Y68232660D01*
X73908592Y68212064D01*
X73680336Y68150903D01*
X73466170Y68051035D01*
X73272598Y67915495D01*
X73105508Y67748405D01*
X73105505Y67748402D01*
X73105505Y67748401D01*
X72975271Y67562406D01*
X72975270Y67562405D01*
X72930952Y67523540D01*
X72873695Y67509529D01*
X72816438Y67523540D01*
X72772120Y67562405D01*
X72718925Y67638374D01*
X72718925Y67638375D01*
X71957553Y66877000D01*
X71957553Y66876999D01*
X72718925Y66115627D01*
X72772119Y66191595D01*
X72816437Y66230461D01*
X72873694Y66244472D01*
X72930951Y66230461D01*
X72975267Y66191598D01*
X73105505Y66005599D01*
X73272599Y65838505D01*
X73458160Y65708574D01*
X73497024Y65664257D01*
X73511035Y65607000D01*
X73497024Y65549743D01*
X73458159Y65505425D01*
X73272595Y65375492D01*
X73105505Y65208402D01*
X72975575Y65022841D01*
X72931257Y64983975D01*
X72874000Y64969964D01*
X72816743Y64983975D01*
X72772425Y65022841D01*
X72642494Y65208402D01*
X72475404Y65375492D01*
X72475401Y65375495D01*
X72289402Y65505733D01*
X72250539Y65550049D01*
X72236528Y65607306D01*
X72250539Y65664563D01*
X72289405Y65708881D01*
X72365373Y65762075D01*
X71604000Y66523447D01*
X70842625Y65762075D01*
X70918594Y65708881D01*
X70957460Y65664563D01*
X70971471Y65607306D01*
X70957461Y65550050D01*
X70918595Y65505731D01*
X70732595Y65375492D01*
X70565505Y65208402D01*
X70435575Y65022841D01*
X70391257Y64983975D01*
X70334000Y64969964D01*
X70276743Y64983975D01*
X70232425Y65022841D01*
X70102494Y65208402D01*
X69935401Y65375495D01*
X69935400Y65375496D01*
X69749839Y65505427D01*
X69710975Y65549743D01*
X69696964Y65607000D01*
X69710975Y65664257D01*
X69749839Y65708574D01*
X69935401Y65838505D01*
X70102495Y66005599D01*
X70232732Y66191598D01*
X70277048Y66230461D01*
X70334305Y66244472D01*
X70391562Y66230461D01*
X70435880Y66191595D01*
X70489073Y66115627D01*
X71250447Y66876999D01*
X71250447Y66877001D01*
X70489073Y67638374D01*
X70435881Y67562406D01*
X70391563Y67523540D01*
X70334306Y67509529D01*
X70277048Y67523540D01*
X70232730Y67562405D01*
X70102495Y67748401D01*
X69935401Y67915495D01*
X69826243Y67991928D01*
X70842625Y67991928D01*
X71604000Y67230553D01*
X71604001Y67230553D01*
X72365373Y67991927D01*
X72365373Y67991928D01*
X72281580Y68050600D01*
X72067492Y68150431D01*
X71839318Y68211570D01*
X71604000Y68232158D01*
X71368681Y68211570D01*
X71140507Y68150431D01*
X70926422Y68050601D01*
X70842625Y67991928D01*
X69826243Y67991928D01*
X69741830Y68051035D01*
X69527663Y68150903D01*
X69466502Y68167291D01*
X69299407Y68212064D01*
X69064000Y68232660D01*
X68828592Y68212064D01*
X68600336Y68150903D01*
X68386170Y68051035D01*
X68192598Y67915495D01*
X68025505Y67748402D01*
X67895575Y67562841D01*
X67851257Y67523975D01*
X67794000Y67509964D01*
X67736743Y67523975D01*
X67692425Y67562841D01*
X67562494Y67748402D01*
X67395404Y67915492D01*
X67395404Y67915493D01*
X67395401Y67915495D01*
X67201830Y68051035D01*
X66987663Y68150903D01*
X66926502Y68167291D01*
X66759407Y68212064D01*
X66524000Y68232660D01*
X66288592Y68212064D01*
X66060336Y68150903D01*
X65846170Y68051035D01*
X65652598Y67915495D01*
X65485505Y67748402D01*
X65355575Y67562841D01*
X65311257Y67523975D01*
X65254000Y67509964D01*
X65196743Y67523975D01*
X65152425Y67562841D01*
X65022494Y67748402D01*
X64855404Y67915492D01*
X64855404Y67915493D01*
X64855401Y67915495D01*
X64661830Y68051035D01*
X64447663Y68150903D01*
X64386502Y68167291D01*
X64219407Y68212064D01*
X63984000Y68232660D01*
X63748592Y68212064D01*
X63520336Y68150903D01*
X63306170Y68051035D01*
X63112598Y67915495D01*
X62945505Y67748402D01*
X62815575Y67562841D01*
X62771257Y67523975D01*
X62714000Y67509964D01*
X62656743Y67523975D01*
X62612425Y67562841D01*
X62482494Y67748402D01*
X62315404Y67915492D01*
X62315404Y67915493D01*
X62315401Y67915495D01*
X62121830Y68051035D01*
X61907663Y68150903D01*
X61846502Y68167291D01*
X61679407Y68212064D01*
X61444000Y68232660D01*
X61208592Y68212064D01*
X60980336Y68150903D01*
X60766170Y68051035D01*
X60572598Y67915495D01*
X60405505Y67748402D01*
X60275575Y67562841D01*
X60231257Y67523975D01*
X60174000Y67509964D01*
X60116743Y67523975D01*
X60072425Y67562841D01*
X59942494Y67748402D01*
X59775404Y67915492D01*
X59775404Y67915493D01*
X59775401Y67915495D01*
X59581830Y68051035D01*
X59367663Y68150903D01*
X59306502Y68167291D01*
X59139407Y68212064D01*
X58904000Y68232660D01*
X58668592Y68212064D01*
X58440336Y68150903D01*
X58226170Y68051035D01*
X58032598Y67915495D01*
X57865505Y67748402D01*
X57735575Y67562841D01*
X57691257Y67523975D01*
X57634000Y67509964D01*
X57576743Y67523975D01*
X57532425Y67562841D01*
X57402494Y67748402D01*
X57235404Y67915492D01*
X57235404Y67915493D01*
X57235401Y67915495D01*
X57041830Y68051035D01*
X56827663Y68150903D01*
X56766502Y68167291D01*
X56599407Y68212064D01*
X56364000Y68232660D01*
X56128592Y68212064D01*
X55900336Y68150903D01*
X55686170Y68051035D01*
X55492598Y67915495D01*
X55325505Y67748402D01*
X55195575Y67562841D01*
X55151257Y67523975D01*
X55094000Y67509964D01*
X55036743Y67523975D01*
X54992425Y67562841D01*
X54862494Y67748402D01*
X54695404Y67915492D01*
X54695404Y67915493D01*
X54695401Y67915495D01*
X54501830Y68051035D01*
X54287663Y68150903D01*
X54226502Y68167291D01*
X54059407Y68212064D01*
X53824000Y68232660D01*
X53588592Y68212064D01*
X53360336Y68150903D01*
X53146170Y68051035D01*
X52952598Y67915495D01*
X52785505Y67748402D01*
X52655575Y67562841D01*
X52611257Y67523975D01*
X52554000Y67509964D01*
X52496743Y67523975D01*
X52452425Y67562841D01*
X52322494Y67748402D01*
X52155404Y67915492D01*
X52155404Y67915493D01*
X52155401Y67915495D01*
X51961830Y68051035D01*
X51747663Y68150903D01*
X51686502Y68167291D01*
X51519407Y68212064D01*
X51284000Y68232660D01*
X51048592Y68212064D01*
X50820336Y68150903D01*
X50606170Y68051035D01*
X50412598Y67915495D01*
X50245505Y67748402D01*
X50115575Y67562841D01*
X50071257Y67523975D01*
X50014000Y67509964D01*
X49956743Y67523975D01*
X49912425Y67562841D01*
X49782494Y67748402D01*
X49615404Y67915492D01*
X49615404Y67915493D01*
X49615401Y67915495D01*
X49421830Y68051035D01*
X49207663Y68150903D01*
X49146502Y68167291D01*
X48979407Y68212064D01*
X48744000Y68232660D01*
X48508592Y68212064D01*
X48280336Y68150903D01*
X48066170Y68051035D01*
X47872598Y67915495D01*
X47705505Y67748402D01*
X47575575Y67562841D01*
X47531257Y67523975D01*
X47474000Y67509964D01*
X47416743Y67523975D01*
X47372425Y67562841D01*
X47242494Y67748402D01*
X47075404Y67915492D01*
X47075404Y67915493D01*
X47075401Y67915495D01*
X46881830Y68051035D01*
X46667663Y68150903D01*
X46606502Y68167291D01*
X46439407Y68212064D01*
X46204000Y68232660D01*
X45968592Y68212064D01*
X45740336Y68150903D01*
X45526170Y68051035D01*
X45332598Y67915495D01*
X45165505Y67748402D01*
X45035575Y67562841D01*
X44991257Y67523975D01*
X44934000Y67509964D01*
X44876743Y67523975D01*
X44832425Y67562841D01*
X44702494Y67748402D01*
X44535404Y67915492D01*
X44535404Y67915493D01*
X44535401Y67915495D01*
X44341830Y68051035D01*
X44127663Y68150903D01*
X44066502Y68167291D01*
X43899407Y68212064D01*
X43664000Y68232660D01*
X43428592Y68212064D01*
X43200336Y68150903D01*
X42986170Y68051035D01*
X42792598Y67915495D01*
X42625505Y67748402D01*
X42495575Y67562841D01*
X42451257Y67523975D01*
X42394000Y67509964D01*
X42336743Y67523975D01*
X42292425Y67562841D01*
X42162494Y67748402D01*
X41995404Y67915492D01*
X41995404Y67915493D01*
X41995401Y67915495D01*
X41801830Y68051035D01*
X41587663Y68150903D01*
X41526502Y68167291D01*
X41359407Y68212064D01*
X41124000Y68232660D01*
X40888592Y68212064D01*
X40660336Y68150903D01*
X40446170Y68051035D01*
X40252598Y67915495D01*
X40085505Y67748402D01*
X39955575Y67562841D01*
X39911257Y67523975D01*
X39854000Y67509964D01*
X39796743Y67523975D01*
X39752425Y67562841D01*
X39622494Y67748402D01*
X39455404Y67915492D01*
X39455404Y67915493D01*
X39455401Y67915495D01*
X39261830Y68051035D01*
X39047663Y68150903D01*
X38986502Y68167291D01*
X38819407Y68212064D01*
X38584000Y68232660D01*
X38348592Y68212064D01*
X38120336Y68150903D01*
X37906170Y68051035D01*
X37712598Y67915495D01*
X37545505Y67748402D01*
X37415575Y67562841D01*
X37371257Y67523975D01*
X37314000Y67509964D01*
X37256743Y67523975D01*
X37212425Y67562841D01*
X37082494Y67748402D01*
X36915404Y67915492D01*
X36915404Y67915493D01*
X36915401Y67915495D01*
X36721830Y68051035D01*
X36507663Y68150903D01*
X36446502Y68167291D01*
X36279407Y68212064D01*
X36044000Y68232660D01*
X35808592Y68212064D01*
X35580336Y68150903D01*
X35366170Y68051035D01*
X35172598Y67915495D01*
X35005505Y67748402D01*
X34875575Y67562841D01*
X34831257Y67523975D01*
X34774000Y67509964D01*
X34716743Y67523975D01*
X34672425Y67562841D01*
X34542494Y67748402D01*
X34375404Y67915492D01*
X34375404Y67915493D01*
X34375401Y67915495D01*
X34181830Y68051035D01*
X33967663Y68150903D01*
X33906502Y68167291D01*
X33739407Y68212064D01*
X33504000Y68232660D01*
X33268592Y68212064D01*
X33040336Y68150903D01*
X32826170Y68051035D01*
X32632598Y67915495D01*
X32465505Y67748402D01*
X32335575Y67562841D01*
X32291257Y67523975D01*
X32234000Y67509964D01*
X32176743Y67523975D01*
X32132425Y67562841D01*
X32002494Y67748402D01*
X31835404Y67915492D01*
X31835404Y67915493D01*
X31835401Y67915495D01*
X31641830Y68051035D01*
X31427663Y68150903D01*
X31366502Y68167291D01*
X31199407Y68212064D01*
X30964000Y68232660D01*
X30728592Y68212064D01*
X30500336Y68150903D01*
X30286170Y68051035D01*
X30092598Y67915495D01*
X29925508Y67748405D01*
X29925505Y67748402D01*
X29925505Y67748401D01*
X29795271Y67562406D01*
X29795270Y67562405D01*
X29750952Y67523540D01*
X29693695Y67509529D01*
X29636438Y67523540D01*
X29592120Y67562405D01*
X29538925Y67638374D01*
X29538925Y67638375D01*
X28777553Y66877000D01*
X29538925Y66115627D01*
X29592119Y66191595D01*
X29636437Y66230461D01*
X29693694Y66244472D01*
X29750951Y66230461D01*
X29795267Y66191598D01*
X29925505Y66005599D01*
X30092599Y65838505D01*
X30278160Y65708574D01*
X30317024Y65664257D01*
X30331035Y65607000D01*
X30317024Y65549743D01*
X30278159Y65505425D01*
X30092595Y65375492D01*
X29925505Y65208402D01*
X29795575Y65022841D01*
X29751257Y64983975D01*
X29694000Y64969964D01*
X29636743Y64983975D01*
X29592425Y65022841D01*
X29462494Y65208402D01*
X29295404Y65375492D01*
X29295401Y65375495D01*
X29109402Y65505733D01*
X29070539Y65550049D01*
X29056528Y65607306D01*
X29070539Y65664563D01*
X29109405Y65708881D01*
X29185373Y65762075D01*
X28424000Y66523447D01*
X27662625Y65762075D01*
X27738594Y65708881D01*
X27777460Y65664563D01*
X27791471Y65607306D01*
X27777461Y65550050D01*
X27738595Y65505731D01*
X27552595Y65375492D01*
X27385505Y65208402D01*
X27255575Y65022841D01*
X27211257Y64983975D01*
X27154000Y64969964D01*
X27096743Y64983975D01*
X27052425Y65022841D01*
X26922494Y65208402D01*
X26755404Y65375492D01*
X26755404Y65375493D01*
X26755401Y65375495D01*
X26569839Y65505427D01*
X26530974Y65549745D01*
X26516964Y65607001D01*
X26530975Y65664258D01*
X26569837Y65708572D01*
X26755401Y65838505D01*
X26922495Y66005599D01*
X27052732Y66191598D01*
X27097048Y66230461D01*
X27154305Y66244472D01*
X27211562Y66230461D01*
X27255880Y66191595D01*
X27309073Y66115627D01*
X28070447Y66876999D01*
X28070447Y66877000D01*
X27309073Y67638374D01*
X27255881Y67562406D01*
X27211563Y67523540D01*
X27154306Y67509529D01*
X27097048Y67523540D01*
X27052730Y67562405D01*
X26922495Y67748401D01*
X26755401Y67915495D01*
X26646243Y67991928D01*
X27662625Y67991928D01*
X28424000Y67230553D01*
X28424001Y67230553D01*
X29185373Y67991927D01*
X29185373Y67991928D01*
X29101580Y68050600D01*
X28887492Y68150431D01*
X28659318Y68211570D01*
X28424000Y68232158D01*
X28188681Y68211570D01*
X27960507Y68150431D01*
X27746422Y68050601D01*
X27662625Y67991928D01*
X26646243Y67991928D01*
X26561830Y68051035D01*
X26347663Y68150903D01*
X26286502Y68167291D01*
X26119407Y68212064D01*
X25884000Y68232660D01*
X25648592Y68212064D01*
X25420336Y68150903D01*
X25206170Y68051035D01*
X25012598Y67915495D01*
X24845505Y67748402D01*
X24715575Y67562841D01*
X24671257Y67523975D01*
X24614000Y67509964D01*
X24556743Y67523975D01*
X24512425Y67562841D01*
X24382494Y67748402D01*
X24215404Y67915492D01*
X24215404Y67915493D01*
X24215401Y67915495D01*
X24021830Y68051035D01*
X23807663Y68150903D01*
X23746502Y68167291D01*
X23579407Y68212064D01*
X23344000Y68232660D01*
X23108592Y68212064D01*
X22880336Y68150903D01*
X22666170Y68051035D01*
X22472598Y67915495D01*
X22305505Y67748402D01*
X22175575Y67562841D01*
X22131257Y67523975D01*
X22074000Y67509964D01*
X22016743Y67523975D01*
X21972425Y67562841D01*
X21842494Y67748402D01*
X21675404Y67915492D01*
X21675404Y67915493D01*
X21675401Y67915495D01*
X21481830Y68051035D01*
X21267663Y68150903D01*
X21206502Y68167291D01*
X21039407Y68212064D01*
X20804000Y68232660D01*
X20568592Y68212064D01*
X20340336Y68150903D01*
X20126170Y68051035D01*
X19932598Y67915495D01*
X19765505Y67748402D01*
X19635575Y67562841D01*
X19591257Y67523975D01*
X19534000Y67509964D01*
X19476743Y67523975D01*
X19432425Y67562841D01*
X19302494Y67748402D01*
X19135404Y67915492D01*
X19135404Y67915493D01*
X19135401Y67915495D01*
X18941830Y68051035D01*
X18727663Y68150903D01*
X18666502Y68167291D01*
X18499407Y68212064D01*
X18264000Y68232660D01*
X18028592Y68212064D01*
X17800336Y68150903D01*
X17586170Y68051035D01*
X17392598Y67915495D01*
X17225505Y67748402D01*
X17095575Y67562841D01*
X17051257Y67523975D01*
X16994000Y67509964D01*
X16936743Y67523975D01*
X16892425Y67562841D01*
X16762494Y67748402D01*
X16595404Y67915492D01*
X16595404Y67915493D01*
X16595401Y67915495D01*
X16401830Y68051035D01*
X16187663Y68150903D01*
X16126502Y68167291D01*
X15959407Y68212064D01*
X15724000Y68232660D01*
X15488592Y68212064D01*
X15260336Y68150903D01*
X15046170Y68051035D01*
X14852598Y67915495D01*
X14685505Y67748402D01*
X14555575Y67562841D01*
X14511257Y67523975D01*
X14454000Y67509964D01*
X14396743Y67523975D01*
X14352425Y67562841D01*
X14222494Y67748402D01*
X14055404Y67915492D01*
X14055404Y67915493D01*
X14055401Y67915495D01*
X13861830Y68051035D01*
X13647663Y68150903D01*
X13586502Y68167291D01*
X13419407Y68212064D01*
X13184000Y68232660D01*
X12948592Y68212064D01*
X12720336Y68150903D01*
X12506170Y68051035D01*
X12312598Y67915495D01*
X12145505Y67748402D01*
X12015575Y67562841D01*
X11971257Y67523975D01*
X11914000Y67509964D01*
X11856743Y67523975D01*
X11812425Y67562841D01*
X11682494Y67748402D01*
X11515404Y67915492D01*
X11515404Y67915493D01*
X11515401Y67915495D01*
X11321830Y68051035D01*
X11107663Y68150903D01*
X11046502Y68167291D01*
X10879407Y68212064D01*
X10644000Y68232660D01*
X10408592Y68212064D01*
X10180336Y68150903D01*
X9966170Y68051035D01*
X9772598Y67915495D01*
X9605505Y67748402D01*
X9475575Y67562841D01*
X9431257Y67523975D01*
X9374000Y67509964D01*
X9316743Y67523975D01*
X9272425Y67562841D01*
X9142494Y67748402D01*
X8975404Y67915492D01*
X8975404Y67915493D01*
X8975401Y67915495D01*
X8781830Y68051035D01*
X8567663Y68150903D01*
X8506502Y68167291D01*
X8339407Y68212064D01*
X8104000Y68232660D01*
X7868592Y68212064D01*
X7640336Y68150903D01*
X7426170Y68051035D01*
X7232598Y67915495D01*
X7065505Y67748402D01*
X6935575Y67562841D01*
X6891257Y67523975D01*
X6834000Y67509964D01*
X6776743Y67523975D01*
X6732425Y67562841D01*
X6602494Y67748402D01*
X6435404Y67915492D01*
X6435404Y67915493D01*
X6435401Y67915495D01*
X6241830Y68051035D01*
X6027663Y68150903D01*
X5966502Y68167291D01*
X5799407Y68212064D01*
X5564000Y68232660D01*
X5328592Y68212064D01*
X5100336Y68150903D01*
X4886170Y68051035D01*
X4692598Y67915495D01*
X4525505Y67748402D01*
X4389965Y67554830D01*
X4290097Y67340664D01*
X4228936Y67112408D01*
X4208340Y66877001D01*
X4228936Y66641593D01*
X4260593Y66523447D01*
X4290097Y66413337D01*
X4389965Y66199170D01*
X4525505Y66005599D01*
X4692599Y65838505D01*
X4878160Y65708574D01*
X4917024Y65664257D01*
X4931035Y65607000D01*
X4917024Y65549743D01*
X4878159Y65505425D01*
X4692595Y65375492D01*
X4525505Y65208402D01*
X4389965Y65014830D01*
X4290097Y64800664D01*
X4228936Y64572408D01*
X4208340Y64337000D01*
X200500Y64337000D01*
X200500Y69675500D01*
X217113Y69737500D01*
X262500Y69782887D01*
X324500Y69799500D01*
X99675500Y69799500D01*
X99737500Y69782887D01*
G37*
G04 #@! TD.AperFunction*
G04 #@! TD*
M02*
