M48
; DRILL file {KiCad 7.0.1} date Fri Apr 21 07:09:27 2023
; FORMAT={-:-/ absolute / metric / decimal}
; #@! TF.CreationDate,2023-04-21T07:09:27+02:00
; #@! TF.GenerationSoftware,Kicad,Pcbnew,7.0.1
; #@! TF.FileFunction,Plated,1,2,PTH
FMAT,2
METRIC
; #@! TA.AperFunction,Plated,PTH,ViaDrill
T1C0.400
; #@! TA.AperFunction,Plated,PTH,ComponentDrill
T2C1.000
%
G90
G05
T1
X11.666Y21.034
X11.92Y48.974
X14.428Y32.488
X18.365Y16.613
X20.778Y20.042
X24.874Y48.72
X25.985Y25.122
X29.668Y29.059
X32.335Y18.645
X36.812Y48.72
X36.812Y22.812
X41.098Y21.185
X45.448Y48.72
X47.448Y27.662
X48.718Y14.835
X49.988Y17.375
X51.258Y50.395
X52.782Y42.775
X53.798Y54.332
X55.195Y52.808
X57.481Y46.839
X58.497Y51.665
X60.148Y55.475
X61.545Y58.015
X62.815Y47.855
X63.958Y40.235
X66.498Y37.695
X67.768Y44.045
X69.038Y35.155
X71.324Y36.425
X72.848Y45.442
X74.118Y41.378
X75.515Y48.948
X77.166Y38.965
X80.5Y23.066
X86.945Y30.202
X88.85Y33.885
T2
X5.564Y66.877
X5.564Y64.337
X5.564Y5.917
X5.564Y3.377
X8.104Y66.877
X8.104Y64.337
X8.104Y5.917
X8.104Y3.377
X10.644Y66.877
X10.644Y64.337
X10.644Y5.917
X10.644Y3.377
X13.184Y66.877
X13.184Y64.337
X13.184Y5.917
X13.184Y3.377
X15.724Y66.877
X15.724Y64.337
X15.724Y5.917
X15.724Y3.377
X18.264Y66.877
X18.264Y64.337
X18.264Y5.917
X18.264Y3.377
X20.804Y66.877
X20.804Y64.337
X20.804Y5.917
X20.804Y3.377
X23.344Y66.877
X23.344Y64.337
X23.344Y5.917
X23.344Y3.377
X25.884Y66.877
X25.884Y64.337
X25.884Y5.917
X25.884Y3.377
X28.424Y66.877
X28.424Y64.337
X28.424Y5.917
X28.424Y3.377
X30.964Y66.877
X30.964Y64.337
X30.964Y5.917
X30.964Y3.377
X33.504Y66.877
X33.504Y64.337
X33.504Y5.917
X33.504Y3.377
X36.044Y66.877
X36.044Y64.337
X36.044Y5.917
X36.044Y3.377
X38.584Y66.877
X38.584Y64.337
X38.584Y5.917
X38.584Y3.377
X41.124Y66.877
X41.124Y64.337
X41.124Y5.917
X41.124Y3.377
X43.664Y66.877
X43.664Y64.337
X43.664Y5.917
X43.664Y3.377
X46.204Y66.877
X46.204Y64.337
X46.204Y5.917
X46.204Y3.377
X48.744Y66.877
X48.744Y64.337
X48.744Y5.917
X48.744Y3.377
X51.284Y66.877
X51.284Y64.337
X51.284Y5.917
X51.284Y3.377
X53.824Y66.877
X53.824Y64.337
X53.824Y5.917
X53.824Y3.377
X56.364Y66.877
X56.364Y64.337
X56.364Y5.917
X56.364Y3.377
X58.904Y66.877
X58.904Y64.337
X58.904Y5.917
X58.904Y3.377
X61.444Y66.877
X61.444Y64.337
X61.444Y5.917
X61.444Y3.377
X63.984Y66.877
X63.984Y64.337
X63.984Y5.917
X63.984Y3.377
X66.524Y66.877
X66.524Y64.337
X66.524Y5.917
X66.524Y3.377
X69.064Y66.877
X69.064Y64.337
X69.064Y5.917
X69.064Y3.377
X71.604Y66.877
X71.604Y64.337
X71.604Y5.917
X71.604Y3.377
X74.144Y66.877
X74.144Y64.337
X74.144Y5.917
X74.144Y3.377
X76.684Y66.877
X76.684Y64.337
X76.684Y5.917
X76.684Y3.377
X79.224Y66.877
X79.224Y64.337
X79.224Y5.917
X79.224Y3.377
X81.764Y66.877
X81.764Y64.337
X81.764Y5.917
X81.764Y3.377
X84.304Y66.877
X84.304Y64.337
X84.304Y5.917
X84.304Y3.377
X86.844Y66.877
X86.844Y64.337
X86.844Y5.917
X86.844Y3.377
X89.384Y66.877
X89.384Y64.337
X89.384Y5.917
X89.384Y3.377
X91.374Y55.419
X91.374Y52.879
X91.374Y50.339
X91.374Y47.799
X91.374Y45.259
X91.374Y42.719
X91.374Y40.179
X91.374Y37.639
X91.374Y35.099
X91.374Y32.559
X91.374Y30.019
X91.374Y27.479
X91.374Y24.939
X91.374Y22.399
X91.374Y19.859
X91.374Y17.319
X91.374Y14.779
X91.924Y66.877
X91.924Y64.337
X91.924Y5.917
X91.924Y3.377
X93.914Y55.419
X93.914Y52.879
X93.914Y50.339
X93.914Y47.799
X93.914Y45.259
X93.914Y42.719
X93.914Y40.179
X93.914Y37.639
X93.914Y35.099
X93.914Y32.559
X93.914Y30.019
X93.914Y27.479
X93.914Y24.939
X93.914Y22.399
X93.914Y19.859
X93.914Y17.319
X93.914Y14.779
X94.464Y66.877
X94.464Y64.337
X94.464Y5.917
X94.464Y3.377
T0
M30
