M48
; DRILL file {KiCad 7.0.1} date Wed Apr 26 09:03:03 2023
; FORMAT={-:-/ absolute / inch / decimal}
; #@! TF.CreationDate,2023-04-26T09:03:03+02:00
; #@! TF.GenerationSoftware,Kicad,Pcbnew,7.0.1
; #@! TF.FileFunction,Plated,1,2,PTH
FMAT,2
INCH
; #@! TA.AperFunction,Plated,PTH,ViaDrill
T1C0.0157
; #@! TA.AperFunction,Plated,PTH,ComponentDrill
T2C0.0394
%
G90
G05
T1
X0.4593Y0.8281
X0.4693Y1.9281
X0.568Y1.2791
X0.723Y0.6541
X0.818Y0.7891
X0.9793Y1.9181
X1.023Y0.9891
X1.168Y1.1441
X1.273Y0.7341
X1.4493Y1.9181
X1.4493Y0.8981
X1.618Y0.8341
X1.7893Y1.9181
X1.868Y1.0891
X1.918Y0.5841
X1.968Y0.6841
X2.018Y1.9841
X2.078Y1.6841
X2.118Y2.1391
X2.173Y2.0791
X2.263Y1.8441
X2.303Y2.0341
X2.368Y2.1841
X2.423Y2.2841
X2.473Y1.8841
X2.518Y1.5841
X2.618Y1.4841
X2.668Y1.7341
X2.718Y1.3841
X2.808Y1.4341
X2.868Y1.7891
X2.918Y1.6291
X2.973Y1.9271
X3.038Y1.5341
X3.1693Y0.9081
X3.423Y1.1891
X3.498Y1.3341
T2
X0.2191Y2.633
X0.2191Y2.533
X0.2191Y0.233
X0.2191Y0.133
X0.3191Y2.633
X0.3191Y2.533
X0.3191Y0.233
X0.3191Y0.133
X0.4191Y2.633
X0.4191Y2.533
X0.4191Y0.233
X0.4191Y0.133
X0.5191Y2.633
X0.5191Y2.533
X0.5191Y0.233
X0.5191Y0.133
X0.6191Y2.633
X0.6191Y2.533
X0.6191Y0.233
X0.6191Y0.133
X0.7191Y2.633
X0.7191Y2.533
X0.7191Y0.233
X0.7191Y0.133
X0.8191Y2.633
X0.8191Y2.533
X0.8191Y0.233
X0.8191Y0.133
X0.9191Y2.633
X0.9191Y2.533
X0.9191Y0.233
X0.9191Y0.133
X1.0191Y2.633
X1.0191Y2.533
X1.0191Y0.233
X1.0191Y0.133
X1.1191Y2.633
X1.1191Y2.533
X1.1191Y0.233
X1.1191Y0.133
X1.2191Y2.633
X1.2191Y2.533
X1.2191Y0.233
X1.2191Y0.133
X1.3191Y2.633
X1.3191Y2.533
X1.3191Y0.233
X1.3191Y0.133
X1.4191Y2.633
X1.4191Y2.533
X1.4191Y0.233
X1.4191Y0.133
X1.5191Y2.633
X1.5191Y2.533
X1.5191Y0.233
X1.5191Y0.133
X1.6191Y2.633
X1.6191Y2.533
X1.6191Y0.233
X1.6191Y0.133
X1.7191Y2.633
X1.7191Y2.533
X1.7191Y0.233
X1.7191Y0.133
X1.8191Y2.633
X1.8191Y2.533
X1.8191Y0.233
X1.8191Y0.133
X1.9191Y2.633
X1.9191Y2.533
X1.9191Y0.233
X1.9191Y0.133
X2.0191Y2.633
X2.0191Y2.533
X2.0191Y0.233
X2.0191Y0.133
X2.1191Y2.633
X2.1191Y2.533
X2.1191Y0.233
X2.1191Y0.133
X2.2191Y2.633
X2.2191Y2.533
X2.2191Y0.233
X2.2191Y0.133
X2.3191Y2.633
X2.3191Y2.533
X2.3191Y0.233
X2.3191Y0.133
X2.4191Y2.633
X2.4191Y2.533
X2.4191Y0.233
X2.4191Y0.133
X2.5191Y2.633
X2.5191Y2.533
X2.5191Y0.233
X2.5191Y0.133
X2.6191Y2.633
X2.6191Y2.533
X2.6191Y0.233
X2.6191Y0.133
X2.7191Y2.633
X2.7191Y2.533
X2.7191Y0.233
X2.7191Y0.133
X2.8191Y2.633
X2.8191Y2.533
X2.8191Y0.233
X2.8191Y0.133
X2.9191Y2.633
X2.9191Y2.533
X2.9191Y0.233
X2.9191Y0.133
X3.0191Y2.633
X3.0191Y2.533
X3.0191Y0.233
X3.0191Y0.133
X3.1191Y2.633
X3.1191Y2.533
X3.1191Y0.233
X3.1191Y0.133
X3.2191Y2.633
X3.2191Y2.533
X3.2191Y0.233
X3.2191Y0.133
X3.3191Y2.633
X3.3191Y2.533
X3.3191Y0.233
X3.3191Y0.133
X3.4191Y2.633
X3.4191Y2.533
X3.4191Y0.233
X3.4191Y0.133
X3.5191Y2.633
X3.5191Y2.533
X3.5191Y0.233
X3.5191Y0.133
X3.5974Y2.1819
X3.5974Y2.0819
X3.5974Y1.9819
X3.5974Y1.8819
X3.5974Y1.7819
X3.5974Y1.6819
X3.5974Y1.5819
X3.5974Y1.4819
X3.5974Y1.3819
X3.5974Y1.2819
X3.5974Y1.1819
X3.5974Y1.0819
X3.5974Y0.9819
X3.5974Y0.8819
X3.5974Y0.7819
X3.5974Y0.6819
X3.5974Y0.5819
X3.6191Y2.633
X3.6191Y2.533
X3.6191Y0.233
X3.6191Y0.133
X3.6974Y2.1819
X3.6974Y2.0819
X3.6974Y1.9819
X3.6974Y1.8819
X3.6974Y1.7819
X3.6974Y1.6819
X3.6974Y1.5819
X3.6974Y1.4819
X3.6974Y1.3819
X3.6974Y1.2819
X3.6974Y1.1819
X3.6974Y1.0819
X3.6974Y0.9819
X3.6974Y0.8819
X3.6974Y0.7819
X3.6974Y0.6819
X3.6974Y0.5819
X3.7191Y2.633
X3.7191Y2.533
X3.7191Y0.233
X3.7191Y0.133
T0
M30
