M48
; DRILL file {KiCad 8.0.4} date 2024-09-06T08:24:52+0200
; FORMAT={-:-/ absolute / metric / decimal}
; #@! TF.CreationDate,2024-09-06T08:24:52+02:00
; #@! TF.GenerationSoftware,Kicad,Pcbnew,8.0.4
; #@! TF.FileFunction,Plated,1,2,PTH
FMAT,2
METRIC
; #@! TA.AperFunction,Plated,PTH,ViaDrill
T1C0.800
; #@! TA.AperFunction,Plated,PTH,ComponentDrill
T2C0.800
; #@! TA.AperFunction,Plated,PTH,ComponentDrill
T3C0.850
; #@! TA.AperFunction,Plated,PTH,ComponentDrill
T4C1.000
; #@! TA.AperFunction,Plated,PTH,ComponentDrill
T5C1.100
; #@! TA.AperFunction,Plated,PTH,ComponentDrill
T6C1.200
; #@! TA.AperFunction,Plated,PTH,ComponentDrill
T7C1.400
; #@! TA.AperFunction,Plated,PTH,ComponentDrill
T8C3.200
; #@! TA.AperFunction,Plated,PTH,ComponentDrill
T9C3.400
%
G90
G05
T1
X77.0Y-117.5
X86.75Y-117.5
X89.75Y-101.75
X99.0Y-101.75
X101.75Y-117.75
X108.75Y-101.75
X112.0Y-117.5
X118.75Y-101.75
X121.5Y-117.0
X125.25Y-52.25
X128.75Y-101.5
X151.25Y-88.0
X151.25Y-105.5
X161.25Y-52.25
T2
X82.756Y-104.142
X82.756Y-111.762
X85.296Y-104.142
X85.296Y-111.762
X91.937Y-104.18
X91.937Y-111.8
X94.477Y-104.18
X94.477Y-111.8
X101.741Y-104.106
X101.741Y-111.726
X104.281Y-104.106
X104.281Y-111.726
X111.672Y-104.0
X111.672Y-111.62
X114.212Y-104.0
X114.212Y-111.62
X120.938Y-104.032
X120.938Y-111.652
X122.82Y-61.935
X122.82Y-69.555
X123.478Y-104.032
X123.478Y-111.652
X125.36Y-61.935
X125.36Y-69.555
X127.9Y-61.935
X127.9Y-69.555
X130.44Y-61.935
X130.44Y-69.555
X132.98Y-61.935
X132.98Y-69.555
X135.52Y-61.935
X135.52Y-69.555
X138.06Y-61.935
X138.06Y-69.555
X140.6Y-61.935
X140.6Y-69.555
X143.14Y-61.935
X143.14Y-69.555
X145.68Y-61.935
X145.68Y-69.555
T3
X85.21Y-47.25
X87.75Y-47.25
X90.29Y-47.25
T4
X50.97Y-61.5
X50.97Y-102.14
X68.75Y-61.5
X68.75Y-102.14
X96.62Y-74.88
X96.62Y-90.12
X99.16Y-74.88
X99.16Y-90.12
X101.7Y-74.88
X101.7Y-90.12
X104.24Y-74.88
X104.24Y-90.12
X106.78Y-74.88
X106.78Y-90.12
X109.32Y-74.88
X109.32Y-90.12
X111.86Y-74.88
X111.86Y-90.12
X114.4Y-74.88
X114.4Y-90.12
X116.94Y-74.88
X116.94Y-90.12
X119.48Y-74.88
X119.48Y-90.12
X122.02Y-74.88
X122.02Y-90.12
X124.56Y-74.88
X124.56Y-90.12
X127.1Y-74.88
X127.1Y-90.12
X129.64Y-74.88
X129.64Y-90.12
X132.18Y-74.88
X132.18Y-90.12
X134.72Y-74.88
X134.72Y-90.12
X137.26Y-74.88
X137.26Y-90.12
X139.8Y-74.88
X139.8Y-90.12
X142.34Y-74.88
X142.34Y-90.12
X144.88Y-74.88
X144.88Y-90.12
T5
X180.5Y-75.0
X180.5Y-79.5
X180.5Y-105.0
X180.5Y-109.5
X187.0Y-75.0
X187.0Y-79.5
X187.0Y-105.0
X187.0Y-109.5
X195.5Y-60.0
X195.5Y-64.5
X195.5Y-90.0
X195.5Y-94.5
X202.0Y-60.0
X202.0Y-64.5
X202.0Y-90.0
X202.0Y-94.5
X210.5Y-75.0
X210.5Y-79.5
X210.5Y-105.0
X210.5Y-109.5
X217.0Y-75.0
X217.0Y-79.5
X217.0Y-105.0
X217.0Y-109.5
T6
X82.5Y-53.04
X85.04Y-53.04
X87.58Y-53.04
X90.12Y-53.04
X92.66Y-53.04
X95.2Y-53.04
X97.74Y-53.04
X100.28Y-53.04
X102.82Y-53.04
X105.36Y-53.04
X107.9Y-53.04
X110.44Y-53.04
X112.98Y-53.04
X115.52Y-53.04
X118.06Y-53.04
X120.6Y-53.04
T7
X68.42Y-45.25
X73.5Y-45.25
X79.17Y-123.777
X84.25Y-123.777
X89.33Y-123.777
X97.75Y-123.75
X102.83Y-123.75
X107.91Y-123.75
X116.42Y-123.777
X118.39Y-45.222
X121.5Y-123.777
X123.47Y-45.222
X126.58Y-123.777
X128.55Y-45.222
X133.63Y-45.222
X135.25Y-123.75
X138.71Y-45.222
X140.33Y-123.75
X143.79Y-45.222
X145.41Y-123.75
X148.87Y-45.222
X153.95Y-45.222
X154.25Y-123.75
X159.03Y-45.222
X159.33Y-123.75
X164.11Y-45.222
X164.41Y-123.75
T8
X53.5Y-45.0
X53.5Y-125.0
X218.5Y-45.0
X218.5Y-125.0
T9
X75.0Y-53.0
X75.0Y-108.0
X168.0Y-53.0
X168.0Y-108.0
M30
