G04 #@! TF.GenerationSoftware,KiCad,Pcbnew,7.0.1*
G04 #@! TF.CreationDate,2023-04-11T20:24:04+02:00*
G04 #@! TF.ProjectId,nucleo144 and 4.3 SSD1963 lcd parallel 16bit,6e75636c-656f-4313-9434-20616e642034,rev?*
G04 #@! TF.SameCoordinates,PX68e7780PY7bfa480*
G04 #@! TF.FileFunction,Copper,L1,Top*
G04 #@! TF.FilePolarity,Positive*
%FSLAX46Y46*%
G04 Gerber Fmt 4.6, Leading zero omitted, Abs format (unit mm)*
G04 Created by KiCad (PCBNEW 7.0.1) date 2023-04-11 20:24:04*
%MOMM*%
%LPD*%
G01*
G04 APERTURE LIST*
G04 #@! TA.AperFunction,ComponentPad*
%ADD10C,1.700000*%
G04 #@! TD*
G04 #@! TA.AperFunction,ComponentPad*
%ADD11R,1.700000X1.700000*%
G04 #@! TD*
G04 #@! TA.AperFunction,ComponentPad*
%ADD12O,1.700000X1.700000*%
G04 #@! TD*
G04 #@! TA.AperFunction,ViaPad*
%ADD13C,1.500000*%
G04 #@! TD*
G04 #@! TA.AperFunction,Conductor*
%ADD14C,0.500000*%
G04 #@! TD*
G04 #@! TA.AperFunction,Conductor*
%ADD15C,0.400000*%
G04 #@! TD*
G04 APERTURE END LIST*
D10*
G04 #@! TO.P,U1,1,PC10*
G04 #@! TO.N,SD_CLK*
X94400000Y66760000D03*
G04 #@! TO.P,U1,2,PC11*
G04 #@! TO.N,SD__MISO*
X94400000Y64220000D03*
G04 #@! TO.P,U1,3,PC12*
G04 #@! TO.N,SD_MOSI*
X91860000Y66760000D03*
G04 #@! TO.P,U1,4,PD2*
G04 #@! TO.N,unconnected-(U1-PD2-Pad4)*
X91860000Y64220000D03*
G04 #@! TO.P,U1,5,VDD*
G04 #@! TO.N,unconnected-(U1-VDD-Pad5)*
X89320000Y66760000D03*
G04 #@! TO.P,U1,6,E5V*
G04 #@! TO.N,unconnected-(U1-E5V-Pad6)*
X89320000Y64220000D03*
G04 #@! TO.P,U1,7,~{BOOT0}*
G04 #@! TO.N,unconnected-(U1-~{BOOT0}-Pad7)*
X86780000Y66760000D03*
G04 #@! TO.P,U1,8,GND*
G04 #@! TO.N,GND*
X86780000Y64220000D03*
G04 #@! TO.P,U1,9,PF6*
G04 #@! TO.N,unconnected-(U1-PF6-Pad9)*
X84240000Y66760000D03*
G04 #@! TO.P,U1,10,NC*
G04 #@! TO.N,unconnected-(U1-NC-Pad10)*
X84240000Y64220000D03*
G04 #@! TO.P,U1,11,PF7*
G04 #@! TO.N,unconnected-(U1-PF7-Pad11)*
X81700000Y66760000D03*
G04 #@! TO.P,U1,12,IOREF*
G04 #@! TO.N,unconnected-(U1-IOREF-Pad12)*
X81700000Y64220000D03*
G04 #@! TO.P,U1,13,TMS/PA13*
G04 #@! TO.N,unconnected-(U1-TMS{slash}PA13-Pad13)*
X79160000Y66760000D03*
G04 #@! TO.P,U1,14,~{RST}*
G04 #@! TO.N,unconnected-(U1-~{RST}-Pad14)*
X79160000Y64220000D03*
G04 #@! TO.P,U1,15,TCK/PA14*
G04 #@! TO.N,unconnected-(U1-TCK{slash}PA14-Pad15)*
X76620000Y66760000D03*
G04 #@! TO.P,U1,16,+3V3*
G04 #@! TO.N,unconnected-(U1-+3V3-Pad16)*
X76620000Y64220000D03*
G04 #@! TO.P,U1,17,PA15*
G04 #@! TO.N,unconnected-(U1-PA15-Pad17)*
X74080000Y66760000D03*
G04 #@! TO.P,U1,18,+5V*
G04 #@! TO.N,5V*
X74080000Y64220000D03*
G04 #@! TO.P,U1,19,GND*
G04 #@! TO.N,GND*
X71540000Y66760000D03*
G04 #@! TO.P,U1,20,GND*
X71540000Y64220000D03*
G04 #@! TO.P,U1,21,LD2/PB7*
G04 #@! TO.N,unconnected-(U1-LD2{slash}PB7-Pad21)*
X69000000Y66760000D03*
G04 #@! TO.P,U1,22,GND*
G04 #@! TO.N,GND*
X69000000Y64220000D03*
G04 #@! TO.P,U1,23,BT/PC13*
G04 #@! TO.N,unconnected-(U1-BT{slash}PC13-Pad23)*
X66460000Y66760000D03*
G04 #@! TO.P,U1,24,VIN*
G04 #@! TO.N,unconnected-(U1-VIN-Pad24)*
X66460000Y64220000D03*
G04 #@! TO.P,U1,25,RTC_CRYSTAL/PC14*
G04 #@! TO.N,unconnected-(U1-RTC_CRYSTAL{slash}PC14-Pad25)*
X63920000Y66760000D03*
G04 #@! TO.P,U1,26,NC*
G04 #@! TO.N,unconnected-(U1-NC-Pad26)*
X63920000Y64220000D03*
G04 #@! TO.P,U1,27,RTC_CRYSTAL/PC15*
G04 #@! TO.N,unconnected-(U1-RTC_CRYSTAL{slash}PC15-Pad27)*
X61380000Y66760000D03*
G04 #@! TO.P,U1,28,ETH_REF_CLK/PA0*
G04 #@! TO.N,unconnected-(U1-ETH_REF_CLK{slash}PA0-Pad28)*
X61380000Y64220000D03*
G04 #@! TO.P,U1,29,PH0*
G04 #@! TO.N,unconnected-(U1-PH0-Pad29)*
X58840000Y66760000D03*
G04 #@! TO.P,U1,30,ETH_MDIO/PA1*
G04 #@! TO.N,unconnected-(U1-ETH_MDIO{slash}PA1-Pad30)*
X58840000Y64220000D03*
G04 #@! TO.P,U1,31,PH1*
G04 #@! TO.N,unconnected-(U1-PH1-Pad31)*
X56300000Y66760000D03*
G04 #@! TO.P,U1,32,PA4*
G04 #@! TO.N,unconnected-(U1-PA4-Pad32)*
X56300000Y64220000D03*
G04 #@! TO.P,U1,33,VBAT*
G04 #@! TO.N,unconnected-(U1-VBAT-Pad33)*
X53760000Y66760000D03*
G04 #@! TO.P,U1,34,PB0*
G04 #@! TO.N,unconnected-(U1-PB0-Pad34)*
X53760000Y64220000D03*
G04 #@! TO.P,U1,35,PC2*
G04 #@! TO.N,LCD_BL*
X51220000Y66760000D03*
G04 #@! TO.P,U1,36,ETH_MDC/PC1*
G04 #@! TO.N,unconnected-(U1-ETH_MDC{slash}PC1-Pad36)*
X51220000Y64220000D03*
G04 #@! TO.P,U1,37,PC3*
G04 #@! TO.N,PEN*
X48680000Y66760000D03*
G04 #@! TO.P,U1,38,PC0*
G04 #@! TO.N,LCD_RST*
X48680000Y64220000D03*
G04 #@! TO.P,U1,39,PD4*
G04 #@! TO.N,LCD_RD*
X46140000Y66760000D03*
G04 #@! TO.P,U1,40,PD3*
G04 #@! TO.N,unconnected-(U1-PD3-Pad40)*
X46140000Y64220000D03*
G04 #@! TO.P,U1,41,PD5*
G04 #@! TO.N,LCD_WR*
X43600000Y66760000D03*
G04 #@! TO.P,U1,42,PG2*
G04 #@! TO.N,unconnected-(U1-PG2-Pad42)*
X43600000Y64220000D03*
G04 #@! TO.P,U1,43,PD6*
G04 #@! TO.N,unconnected-(U1-PD6-Pad43)*
X41060000Y66760000D03*
G04 #@! TO.P,U1,44,PG3*
G04 #@! TO.N,unconnected-(U1-PG3-Pad44)*
X41060000Y64220000D03*
G04 #@! TO.P,U1,45,PD7*
G04 #@! TO.N,LCD_CS*
X38520000Y66760000D03*
G04 #@! TO.P,U1,46,PE2*
G04 #@! TO.N,unconnected-(U1-PE2-Pad46)*
X38520000Y64220000D03*
G04 #@! TO.P,U1,47,PE3*
G04 #@! TO.N,unconnected-(U1-PE3-Pad47)*
X35980000Y66760000D03*
G04 #@! TO.P,U1,48,PE4*
G04 #@! TO.N,unconnected-(U1-PE4-Pad48)*
X35980000Y64220000D03*
G04 #@! TO.P,U1,49,GND*
G04 #@! TO.N,GND*
X33440000Y66760000D03*
G04 #@! TO.P,U1,50,PE5*
G04 #@! TO.N,unconnected-(U1-PE5-Pad50)*
X33440000Y64220000D03*
G04 #@! TO.P,U1,51,PF1*
G04 #@! TO.N,unconnected-(U1-PF1-Pad51)*
X30900000Y66760000D03*
G04 #@! TO.P,U1,52,PF2*
G04 #@! TO.N,unconnected-(U1-PF2-Pad52)*
X30900000Y64220000D03*
G04 #@! TO.P,U1,53,PF0*
G04 #@! TO.N,unconnected-(U1-PF0-Pad53)*
X28360000Y66760000D03*
G04 #@! TO.P,U1,54,PF8*
G04 #@! TO.N,unconnected-(U1-PF8-Pad54)*
X28360000Y64220000D03*
G04 #@! TO.P,U1,55,PD1*
G04 #@! TO.N,D3*
X25820000Y66760000D03*
G04 #@! TO.P,U1,56,PF9*
G04 #@! TO.N,unconnected-(U1-PF9-Pad56)*
X25820000Y64220000D03*
G04 #@! TO.P,U1,57,PD0*
G04 #@! TO.N,D2*
X23280000Y66760000D03*
G04 #@! TO.P,U1,58,PG1*
G04 #@! TO.N,unconnected-(U1-PG1-Pad58)*
X23280000Y64220000D03*
G04 #@! TO.P,U1,59,PG0*
G04 #@! TO.N,unconnected-(U1-PG0-Pad59)*
X20740000Y66760000D03*
G04 #@! TO.P,U1,60,GND*
G04 #@! TO.N,GND*
X20740000Y64220000D03*
G04 #@! TO.P,U1,61,PE1*
G04 #@! TO.N,unconnected-(U1-PE1-Pad61)*
X18200000Y66760000D03*
G04 #@! TO.P,U1,62,PE6*
G04 #@! TO.N,unconnected-(U1-PE6-Pad62)*
X18200000Y64220000D03*
G04 #@! TO.P,U1,63,PG9*
G04 #@! TO.N,unconnected-(U1-PG9-Pad63)*
X15660000Y66760000D03*
G04 #@! TO.P,U1,64,PG15*
G04 #@! TO.N,unconnected-(U1-PG15-Pad64)*
X15660000Y64220000D03*
G04 #@! TO.P,U1,65,PG12*
G04 #@! TO.N,unconnected-(U1-PG12-Pad65)*
X13120000Y66760000D03*
G04 #@! TO.P,U1,66,PG10*
G04 #@! TO.N,unconnected-(U1-PG10-Pad66)*
X13120000Y64220000D03*
G04 #@! TO.P,U1,67,NC*
G04 #@! TO.N,unconnected-(U1-NC-Pad67)*
X10580000Y66760000D03*
G04 #@! TO.P,U1,68,PG13/ETH_TXD0*
G04 #@! TO.N,unconnected-(U1-PG13{slash}ETH_TXD0-Pad68)*
X10580000Y64220000D03*
G04 #@! TO.P,U1,69,STLINK_RX/PD9*
G04 #@! TO.N,D14*
X8040000Y66760000D03*
G04 #@! TO.P,U1,70,PG11/ETH_TX_EN*
G04 #@! TO.N,unconnected-(U1-PG11{slash}ETH_TX_EN-Pad70)*
X8040000Y64220000D03*
G04 #@! TO.P,U1,71,GND*
G04 #@! TO.N,GND*
X5500000Y66760000D03*
G04 #@! TO.P,U1,72,GND*
X5500000Y64220000D03*
G04 #@! TO.P,U1,73,PC9*
G04 #@! TO.N,unconnected-(U1-PC9-Pad73)*
X94400000Y5800000D03*
G04 #@! TO.P,U1,74,PC8*
G04 #@! TO.N,unconnected-(U1-PC8-Pad74)*
X94400000Y3260000D03*
G04 #@! TO.P,U1,75,PB8*
G04 #@! TO.N,unconnected-(U1-PB8-Pad75)*
X91860000Y5800000D03*
G04 #@! TO.P,U1,76,PC6*
G04 #@! TO.N,unconnected-(U1-PC6-Pad76)*
X91860000Y3260000D03*
G04 #@! TO.P,U1,77,PB9*
G04 #@! TO.N,unconnected-(U1-PB9-Pad77)*
X89320000Y5800000D03*
G04 #@! TO.P,U1,78,ETH_RXD1/PC5*
G04 #@! TO.N,unconnected-(U1-ETH_RXD1{slash}PC5-Pad78)*
X89320000Y3260000D03*
G04 #@! TO.P,U1,79,AVDD*
G04 #@! TO.N,unconnected-(U1-AVDD-Pad79)*
X86780000Y5800000D03*
G04 #@! TO.P,U1,80,U5V*
G04 #@! TO.N,unconnected-(U1-U5V-Pad80)*
X86780000Y3260000D03*
G04 #@! TO.P,U1,81,GND*
G04 #@! TO.N,GND*
X84240000Y5800000D03*
G04 #@! TO.P,U1,82,STLINK_TX/PD8*
G04 #@! TO.N,D13*
X84240000Y3260000D03*
G04 #@! TO.P,U1,83,PA5*
G04 #@! TO.N,SPI_CLK*
X81700000Y5800000D03*
G04 #@! TO.P,U1,84,USB_DP/PA12*
G04 #@! TO.N,unconnected-(U1-USB_DP{slash}PA12-Pad84)*
X81700000Y3260000D03*
G04 #@! TO.P,U1,85,PA6*
G04 #@! TO.N,SPI_MISO*
X79160000Y5800000D03*
G04 #@! TO.P,U1,86,USB_DM/PA11*
G04 #@! TO.N,unconnected-(U1-USB_DM{slash}PA11-Pad86)*
X79160000Y3260000D03*
G04 #@! TO.P,U1,87,ETH_CRS_DV/PA7*
G04 #@! TO.N,unconnected-(U1-ETH_CRS_DV{slash}PA7-Pad87)*
X76620000Y5800000D03*
G04 #@! TO.P,U1,88,PB12*
G04 #@! TO.N,unconnected-(U1-PB12-Pad88)*
X76620000Y3260000D03*
G04 #@! TO.P,U1,89,PB6*
G04 #@! TO.N,unconnected-(U1-PB6-Pad89)*
X74080000Y5800000D03*
G04 #@! TO.P,U1,90,PB11*
G04 #@! TO.N,unconnected-(U1-PB11-Pad90)*
X74080000Y3260000D03*
G04 #@! TO.P,U1,91,PC7*
G04 #@! TO.N,unconnected-(U1-PC7-Pad91)*
X71540000Y5800000D03*
G04 #@! TO.P,U1,92,GND*
G04 #@! TO.N,GND*
X71540000Y3260000D03*
G04 #@! TO.P,U1,93,USB_VBUS/PA9*
G04 #@! TO.N,unconnected-(U1-USB_VBUS{slash}PA9-Pad93)*
X69000000Y5800000D03*
G04 #@! TO.P,U1,94,PB2*
G04 #@! TO.N,SD_CS*
X69000000Y3260000D03*
G04 #@! TO.P,U1,95,USB_SOF/PA8*
G04 #@! TO.N,unconnected-(U1-USB_SOF{slash}PA8-Pad95)*
X66460000Y5800000D03*
G04 #@! TO.P,U1,96,PB1*
G04 #@! TO.N,F_CS*
X66460000Y3260000D03*
G04 #@! TO.P,U1,97,PB10*
G04 #@! TO.N,unconnected-(U1-PB10-Pad97)*
X63920000Y5800000D03*
G04 #@! TO.P,U1,98,PB15*
G04 #@! TO.N,unconnected-(U1-PB15-Pad98)*
X63920000Y3260000D03*
G04 #@! TO.P,U1,99,PB4*
G04 #@! TO.N,unconnected-(U1-PB4-Pad99)*
X61380000Y5800000D03*
G04 #@! TO.P,U1,100,LD3/PB14*
G04 #@! TO.N,unconnected-(U1-LD3{slash}PB14-Pad100)*
X61380000Y3260000D03*
G04 #@! TO.P,U1,101,PB5*
G04 #@! TO.N,SPI_MOSI*
X58840000Y5800000D03*
G04 #@! TO.P,U1,102,ETH_TXD1/PB13*
G04 #@! TO.N,unconnected-(U1-ETH_TXD1{slash}PB13-Pad102)*
X58840000Y3260000D03*
G04 #@! TO.P,U1,103,SWO/PB3*
G04 #@! TO.N,unconnected-(U1-SWO{slash}PB3-Pad103)*
X56300000Y5800000D03*
G04 #@! TO.P,U1,104,AGND*
G04 #@! TO.N,unconnected-(U1-AGND-Pad104)*
X56300000Y3260000D03*
G04 #@! TO.P,U1,105,USB_ID/PA10*
G04 #@! TO.N,unconnected-(U1-USB_ID{slash}PA10-Pad105)*
X53760000Y5800000D03*
G04 #@! TO.P,U1,106,ETH_RXD0/PC4*
G04 #@! TO.N,unconnected-(U1-ETH_RXD0{slash}PC4-Pad106)*
X53760000Y3260000D03*
G04 #@! TO.P,U1,107,PA2*
G04 #@! TO.N,unconnected-(U1-PA2-Pad107)*
X51220000Y5800000D03*
G04 #@! TO.P,U1,108,PF5*
G04 #@! TO.N,unconnected-(U1-PF5-Pad108)*
X51220000Y3260000D03*
G04 #@! TO.P,U1,109,PA3*
G04 #@! TO.N,T_CS*
X48680000Y5800000D03*
G04 #@! TO.P,U1,110,PF4*
G04 #@! TO.N,unconnected-(U1-PF4-Pad110)*
X48680000Y3260000D03*
G04 #@! TO.P,U1,111,GND*
G04 #@! TO.N,GND*
X46140000Y5800000D03*
G04 #@! TO.P,U1,112,PE8*
G04 #@! TO.N,D5*
X46140000Y3260000D03*
G04 #@! TO.P,U1,113,PD13*
G04 #@! TO.N,unconnected-(U1-PD13-Pad113)*
X43600000Y5800000D03*
G04 #@! TO.P,U1,114,PF10*
G04 #@! TO.N,unconnected-(U1-PF10-Pad114)*
X43600000Y3260000D03*
G04 #@! TO.P,U1,115,PD12*
G04 #@! TO.N,unconnected-(U1-PD12-Pad115)*
X41060000Y5800000D03*
G04 #@! TO.P,U1,116,PE7*
G04 #@! TO.N,D4*
X41060000Y3260000D03*
G04 #@! TO.P,U1,117,PD11*
G04 #@! TO.N,LCD_RS*
X38520000Y5800000D03*
G04 #@! TO.P,U1,118,PD14*
G04 #@! TO.N,D0*
X38520000Y3260000D03*
G04 #@! TO.P,U1,119,PE10*
G04 #@! TO.N,D7*
X35980000Y5800000D03*
G04 #@! TO.P,U1,120,PD15*
G04 #@! TO.N,D1*
X35980000Y3260000D03*
G04 #@! TO.P,U1,121,PE12*
G04 #@! TO.N,D9*
X33440000Y5800000D03*
G04 #@! TO.P,U1,122,PF14*
G04 #@! TO.N,unconnected-(U1-PF14-Pad122)*
X33440000Y3260000D03*
G04 #@! TO.P,U1,123,PE14*
G04 #@! TO.N,D11*
X30900000Y5800000D03*
G04 #@! TO.P,U1,124,PE9*
G04 #@! TO.N,D6*
X30900000Y3260000D03*
G04 #@! TO.P,U1,125,PE15*
G04 #@! TO.N,D12*
X28360000Y5800000D03*
G04 #@! TO.P,U1,126,GND*
G04 #@! TO.N,GND*
X28360000Y3260000D03*
G04 #@! TO.P,U1,127,PE13*
G04 #@! TO.N,D10*
X25820000Y5800000D03*
G04 #@! TO.P,U1,128,PE11*
G04 #@! TO.N,D8*
X25820000Y3260000D03*
G04 #@! TO.P,U1,129,PF13*
G04 #@! TO.N,unconnected-(U1-PF13-Pad129)*
X23280000Y5800000D03*
G04 #@! TO.P,U1,130,PF3*
G04 #@! TO.N,unconnected-(U1-PF3-Pad130)*
X23280000Y3260000D03*
G04 #@! TO.P,U1,131,PF12*
G04 #@! TO.N,unconnected-(U1-PF12-Pad131)*
X20740000Y5800000D03*
G04 #@! TO.P,U1,132,PF15*
G04 #@! TO.N,unconnected-(U1-PF15-Pad132)*
X20740000Y3260000D03*
G04 #@! TO.P,U1,133,PG14*
G04 #@! TO.N,unconnected-(U1-PG14-Pad133)*
X18200000Y5800000D03*
G04 #@! TO.P,U1,134,PF11*
G04 #@! TO.N,unconnected-(U1-PF11-Pad134)*
X18200000Y3260000D03*
G04 #@! TO.P,U1,135,GND*
G04 #@! TO.N,GND*
X15660000Y5800000D03*
G04 #@! TO.P,U1,136,PE0*
G04 #@! TO.N,unconnected-(U1-PE0-Pad136)*
X15660000Y3260000D03*
G04 #@! TO.P,U1,137,PD10*
G04 #@! TO.N,D15*
X13120000Y5800000D03*
G04 #@! TO.P,U1,138,PG8*
G04 #@! TO.N,unconnected-(U1-PG8-Pad138)*
X13120000Y3260000D03*
G04 #@! TO.P,U1,139,PG7/USB_GPIO_IN*
G04 #@! TO.N,unconnected-(U1-PG7{slash}USB_GPIO_IN-Pad139)*
X10580000Y5800000D03*
G04 #@! TO.P,U1,140,PG5*
G04 #@! TO.N,unconnected-(U1-PG5-Pad140)*
X10580000Y3260000D03*
G04 #@! TO.P,U1,141,PG4*
G04 #@! TO.N,unconnected-(U1-PG4-Pad141)*
X8040000Y5800000D03*
G04 #@! TO.P,U1,142,PG6/USB_GPIO_OUT*
G04 #@! TO.N,unconnected-(U1-PG6{slash}USB_GPIO_OUT-Pad142)*
X8040000Y3260000D03*
G04 #@! TO.P,U1,143,GND*
G04 #@! TO.N,GND*
X5500000Y5800000D03*
G04 #@! TO.P,U1,144,GND*
X5500000Y3260000D03*
G04 #@! TD*
D11*
G04 #@! TO.P,TFT1,1,NC*
G04 #@! TO.N,unconnected-(TFT1-NC-Pad1)*
X88160000Y59360000D03*
D12*
G04 #@! TO.P,TFT1,2,NC*
G04 #@! TO.N,unconnected-(TFT1-NC-Pad2)*
X90700000Y59360000D03*
G04 #@! TO.P,TFT1,3,NC*
G04 #@! TO.N,unconnected-(TFT1-NC-Pad3)*
X88160000Y56820000D03*
G04 #@! TO.P,TFT1,4,LED_A*
G04 #@! TO.N,LCD_BL*
X90700000Y56820000D03*
G04 #@! TO.P,TFT1,5,SD_CS*
G04 #@! TO.N,SD_CS*
X88160000Y54280000D03*
G04 #@! TO.P,TFT1,6,NC*
G04 #@! TO.N,unconnected-(TFT1-NC-Pad6)*
X90700000Y54280000D03*
G04 #@! TO.P,TFT1,7,SD_DIN*
G04 #@! TO.N,SD_MOSI*
X88160000Y51740000D03*
G04 #@! TO.P,TFT1,8,RESET*
G04 #@! TO.N,LCD_RST*
X90700000Y51740000D03*
G04 #@! TO.P,TFT1,9,SD_CLK*
G04 #@! TO.N,SD_CLK*
X88160000Y49200000D03*
G04 #@! TO.P,TFT1,10,F_CS*
G04 #@! TO.N,F_CS*
X90700000Y49200000D03*
G04 #@! TO.P,TFT1,11,SD_DO*
G04 #@! TO.N,SD_MISO*
X88160000Y46660000D03*
G04 #@! TO.P,TFT1,12,CS*
G04 #@! TO.N,LCD_CS*
X90700000Y46660000D03*
G04 #@! TO.P,TFT1,13,T_IRQ*
G04 #@! TO.N,PEN*
X88160000Y44120000D03*
G04 #@! TO.P,TFT1,14,DB15*
G04 #@! TO.N,D15*
X90700000Y44120000D03*
G04 #@! TO.P,TFT1,15,T_DO*
G04 #@! TO.N,SPI_MISO*
X88160000Y41580000D03*
G04 #@! TO.P,TFT1,16,DB14*
G04 #@! TO.N,D14*
X90700000Y41580000D03*
G04 #@! TO.P,TFT1,17,NC*
G04 #@! TO.N,unconnected-(TFT1-NC-Pad17)*
X88160000Y39040000D03*
G04 #@! TO.P,TFT1,18,DB13*
G04 #@! TO.N,D13*
X90700000Y39040000D03*
G04 #@! TO.P,TFT1,19,T_DIN*
G04 #@! TO.N,SPI_MOSI*
X88160000Y36500000D03*
G04 #@! TO.P,TFT1,20,DB12*
G04 #@! TO.N,D12*
X90700000Y36500000D03*
G04 #@! TO.P,TFT1,21,T_CS*
G04 #@! TO.N,T_CS*
X88160000Y33960000D03*
G04 #@! TO.P,TFT1,22,DB11*
G04 #@! TO.N,D11*
X90700000Y33960000D03*
G04 #@! TO.P,TFT1,23,T_CLK*
G04 #@! TO.N,SPI_CLK*
X88160000Y31420000D03*
G04 #@! TO.P,TFT1,24,DB10*
G04 #@! TO.N,D10*
X90700000Y31420000D03*
G04 #@! TO.P,TFT1,25,DB7*
G04 #@! TO.N,D7*
X88160000Y28880000D03*
G04 #@! TO.P,TFT1,26,DB9*
G04 #@! TO.N,D9*
X90700000Y28880000D03*
G04 #@! TO.P,TFT1,27,DB6*
G04 #@! TO.N,D6*
X88160000Y26340000D03*
G04 #@! TO.P,TFT1,28,DB8*
G04 #@! TO.N,D8*
X90700000Y26340000D03*
G04 #@! TO.P,TFT1,29,DB5*
G04 #@! TO.N,D5*
X88160000Y23800000D03*
G04 #@! TO.P,TFT1,30,RD*
G04 #@! TO.N,LCD_RD*
X90700000Y23800000D03*
G04 #@! TO.P,TFT1,31,DB4*
G04 #@! TO.N,D4*
X88160000Y21260000D03*
G04 #@! TO.P,TFT1,32,WR*
G04 #@! TO.N,LCD_WR*
X90700000Y21260000D03*
G04 #@! TO.P,TFT1,33,DB3*
G04 #@! TO.N,D3*
X88160000Y18720000D03*
G04 #@! TO.P,TFT1,34,RS*
G04 #@! TO.N,LCD_RS*
X90700000Y18720000D03*
G04 #@! TO.P,TFT1,35,DB2*
G04 #@! TO.N,D2*
X88160000Y16180000D03*
G04 #@! TO.P,TFT1,36,NC*
G04 #@! TO.N,unconnected-(TFT1-NC-Pad36)*
X90700000Y16180000D03*
G04 #@! TO.P,TFT1,37,DB1*
G04 #@! TO.N,D1*
X88160000Y13640000D03*
G04 #@! TO.P,TFT1,38,3.3V*
G04 #@! TO.N,3.3V*
X90700000Y13640000D03*
G04 #@! TO.P,TFT1,39,DB0*
G04 #@! TO.N,D0*
X88160000Y11100000D03*
G04 #@! TO.P,TFT1,40,GND*
G04 #@! TO.N,GND*
X90700000Y11100000D03*
G04 #@! TD*
D13*
G04 #@! TO.N,GND*
X85580000Y9604000D03*
G04 #@! TO.N,3.3V*
X62000000Y9000000D03*
X62000000Y49000000D03*
G04 #@! TO.N,GND*
X61000000Y54000000D03*
X78000000Y54000000D03*
X77000000Y61000000D03*
X66000000Y61000000D03*
X96000000Y53000000D03*
X96000000Y19000000D03*
X5000000Y18000000D03*
X5000000Y53000000D03*
G04 #@! TO.N,SD_MOSI*
X90660000Y62055000D03*
G04 #@! TO.N,SD_CLK*
X84945000Y48085000D03*
G04 #@! TO.N,LCD_RST*
X85580000Y50625000D03*
G04 #@! TO.N,LCD_BL*
X83040000Y58245000D03*
G04 #@! TO.N,SD_CS*
X83040000Y49355000D03*
G04 #@! TO.N,F_CS*
X66530000Y46815000D03*
G04 #@! TO.N,LCD_CS*
X37320000Y45545000D03*
G04 #@! TO.N,D15*
X13190000Y43005000D03*
G04 #@! TO.N,D14*
X9380000Y39830000D03*
G04 #@! TO.N,D13*
X83040000Y37925000D03*
G04 #@! TO.N,D12*
X28430000Y34750000D03*
G04 #@! TO.N,D11*
X30970000Y32845000D03*
G04 #@! TO.N,D10*
X25890000Y30305000D03*
G04 #@! TO.N,D9*
X33510000Y27765000D03*
G04 #@! TO.N,D8*
X23350000Y24590000D03*
G04 #@! TO.N,LCD_RD*
X47480000Y22650500D03*
G04 #@! TO.N,LCD_WR*
X43670000Y20110500D03*
G04 #@! TO.N,PEN*
X47480000Y44275000D03*
G04 #@! TO.N,SPI_MISO*
X79230000Y41100000D03*
G04 #@! TO.N,SPI_MOSI*
X58910000Y36655000D03*
G04 #@! TO.N,T_CS*
X49000000Y34000000D03*
G04 #@! TO.N,SPI_CLK*
X81770000Y31575000D03*
G04 #@! TO.N,D6*
X30000000Y26000000D03*
G04 #@! TO.N,D5*
X46000000Y24000000D03*
G04 #@! TO.N,D4*
X42000000Y21000000D03*
G04 #@! TO.N,D7*
X38000000Y29000000D03*
G04 #@! TO.N,LCD_RS*
X40000000Y17329500D03*
G04 #@! TO.N,D3*
X25000000Y19000000D03*
G04 #@! TO.N,D2*
X22000000Y17000000D03*
G04 #@! TO.N,D1*
X35000000Y13000000D03*
G04 #@! TO.N,D0*
X39000000Y11000000D03*
G04 #@! TD*
D14*
G04 #@! TO.N,3.3V*
X62000000Y9000000D02*
X62000000Y49000000D01*
D15*
G04 #@! TO.N,SD_MOSI*
X90610000Y65510000D02*
X91860000Y66760000D01*
X90610000Y62105000D02*
X90610000Y65510000D01*
X90660000Y62055000D02*
X90610000Y62105000D01*
G04 #@! TO.N,SD_CLK*
X93110000Y49265000D02*
X93110000Y65470000D01*
X91795000Y47950000D02*
X93110000Y49265000D01*
X84945000Y48085000D02*
X85080000Y47950000D01*
X85080000Y47950000D02*
X91795000Y47950000D01*
X93110000Y65470000D02*
X94400000Y66760000D01*
G04 #@! TO.N,LCD_RST*
X50020000Y50625000D02*
X48680000Y51965000D01*
X48680000Y51965000D02*
X48680000Y64220000D01*
X85580000Y50625000D02*
X50020000Y50625000D01*
G04 #@! TO.N,LCD_BL*
X49930000Y65470000D02*
X51220000Y66760000D01*
X49930000Y59605000D02*
X49930000Y65470000D01*
X51290000Y58245000D02*
X49930000Y59605000D01*
X83040000Y58245000D02*
X51290000Y58245000D01*
G04 #@! TO.N,F_CS*
X65170000Y4550000D02*
X66460000Y3260000D01*
X65170000Y45455000D02*
X65170000Y4550000D01*
X66530000Y46815000D02*
X65170000Y45455000D01*
G04 #@! TO.N,SD_CS*
X67750000Y4510000D02*
X69000000Y3260000D01*
X67750000Y43590000D02*
X67750000Y4510000D01*
X69070000Y44910000D02*
X67750000Y43590000D01*
X83040000Y49355000D02*
X78595000Y44910000D01*
X78595000Y44910000D02*
X69070000Y44910000D01*
G04 #@! TO.N,LCD_CS*
X37320000Y45545000D02*
X37270000Y45595000D01*
X37270000Y45595000D02*
X37270000Y65510000D01*
X37270000Y65510000D02*
X38520000Y66760000D01*
G04 #@! TO.N,D15*
X13190000Y43005000D02*
X13120000Y42935000D01*
X13120000Y42935000D02*
X13120000Y5800000D01*
G04 #@! TO.N,D14*
X9330000Y39880000D02*
X9330000Y65470000D01*
X9330000Y65470000D02*
X8040000Y66760000D01*
X9380000Y39830000D02*
X9330000Y39880000D01*
G04 #@! TO.N,D13*
X82990000Y4510000D02*
X84240000Y3260000D01*
X83040000Y37925000D02*
X82990000Y37875000D01*
X82990000Y37875000D02*
X82990000Y4510000D01*
G04 #@! TO.N,D12*
X28360000Y34680000D02*
X28360000Y5800000D01*
X28430000Y34750000D02*
X28360000Y34680000D01*
G04 #@! TO.N,D11*
X31150000Y32665000D02*
X31150000Y6050000D01*
X31150000Y6050000D02*
X30900000Y5800000D01*
X30970000Y32845000D02*
X31150000Y32665000D01*
G04 #@! TO.N,D10*
X26670000Y6650000D02*
X25820000Y5800000D01*
X25890000Y30305000D02*
X26670000Y29525000D01*
X26670000Y29525000D02*
X26670000Y6650000D01*
G04 #@! TO.N,SPI_CLK*
X81700000Y31505000D02*
X81700000Y5800000D01*
X81770000Y31575000D02*
X81700000Y31505000D01*
G04 #@! TO.N,D9*
X33510000Y27765000D02*
X33440000Y27695000D01*
X33440000Y27695000D02*
X33440000Y5800000D01*
G04 #@! TO.N,D8*
X24620000Y15065000D02*
X24570000Y15015000D01*
X23350000Y16335000D02*
X24620000Y15065000D01*
X24570000Y4510000D02*
X25820000Y3260000D01*
X23350000Y24590000D02*
X23350000Y16335000D01*
X24570000Y15015000D02*
X24570000Y4510000D01*
G04 #@! TO.N,LCD_RD*
X44850000Y65470000D02*
X46140000Y66760000D01*
X44850000Y35475000D02*
X44850000Y65470000D01*
X47480000Y32845000D02*
X44850000Y35475000D01*
X47480000Y22650500D02*
X47480000Y32845000D01*
G04 #@! TO.N,LCD_WR*
X42350000Y65510000D02*
X43600000Y66760000D01*
X42350000Y63702233D02*
X42350000Y65510000D01*
X43670000Y62382233D02*
X42350000Y63702233D01*
X43670000Y20110500D02*
X43670000Y62382233D01*
G04 #@! TO.N,PEN*
X47390000Y65470000D02*
X48680000Y66760000D01*
X47390000Y44365000D02*
X47390000Y65470000D01*
X47480000Y44275000D02*
X47390000Y44365000D01*
G04 #@! TO.N,SPI_MISO*
X79230000Y41100000D02*
X79160000Y41030000D01*
X79160000Y41030000D02*
X79160000Y5800000D01*
G04 #@! TO.N,SPI_MOSI*
X58840000Y36585000D02*
X58840000Y5800000D01*
X58910000Y36655000D02*
X58840000Y36585000D01*
G04 #@! TO.N,T_CS*
X49000000Y34000000D02*
X49000000Y10000000D01*
X48680000Y9680000D02*
X48680000Y5800000D01*
X49000000Y10000000D02*
X48680000Y9680000D01*
G04 #@! TO.N,D6*
X29650000Y4510000D02*
X30900000Y3260000D01*
X29650000Y25650000D02*
X29650000Y4510000D01*
X30000000Y26000000D02*
X29650000Y25650000D01*
G04 #@! TO.N,D5*
X44890000Y22890000D02*
X44890000Y4510000D01*
X46000000Y24000000D02*
X44890000Y22890000D01*
X44890000Y4510000D02*
X46140000Y3260000D01*
G04 #@! TO.N,D4*
X39770000Y6770000D02*
X39770000Y4550000D01*
X39770000Y4550000D02*
X41060000Y3260000D01*
X42000000Y9000000D02*
X39770000Y6770000D01*
X42000000Y21000000D02*
X42000000Y9000000D01*
G04 #@! TO.N,D7*
X35980000Y10980000D02*
X35980000Y5800000D01*
X37850000Y12850000D02*
X35980000Y10980000D01*
X37850000Y28850000D02*
X37850000Y12850000D01*
X38000000Y29000000D02*
X37850000Y28850000D01*
G04 #@! TO.N,LCD_RS*
X38520000Y7520000D02*
X38520000Y5800000D01*
X40150000Y9150000D02*
X38520000Y7520000D01*
X40000000Y17329500D02*
X40150000Y17179500D01*
X40150000Y17179500D02*
X40150000Y9150000D01*
G04 #@! TO.N,D3*
X24570000Y65510000D02*
X25820000Y66760000D01*
X25000000Y19000000D02*
X24570000Y19430000D01*
X24570000Y19430000D02*
X24570000Y65510000D01*
G04 #@! TO.N,D2*
X22000000Y65480000D02*
X23280000Y66760000D01*
X22000000Y17000000D02*
X22000000Y65480000D01*
G04 #@! TO.N,D1*
X34730000Y12730000D02*
X34730000Y4510000D01*
X35000000Y13000000D02*
X34730000Y12730000D01*
X34730000Y4510000D02*
X35980000Y3260000D01*
G04 #@! TO.N,D0*
X37270000Y4510000D02*
X38520000Y3260000D01*
X39000000Y11000000D02*
X37270000Y9270000D01*
X37270000Y9270000D02*
X37270000Y4510000D01*
G04 #@! TD*
G04 #@! TA.AperFunction,Conductor*
G04 #@! TO.N,GND*
G36*
X45999999Y22744723D02*
G01*
X45999999Y22744724D01*
X46000000Y22744723D01*
X46091305Y22752711D01*
X46154517Y22741565D01*
X46203688Y22700307D01*
X46225641Y22639991D01*
X46243792Y22432526D01*
X46300425Y22221169D01*
X46342285Y22131401D01*
X46392898Y22022861D01*
X46518402Y21843623D01*
X46673123Y21688902D01*
X46852361Y21563398D01*
X47050670Y21470925D01*
X47262023Y21414293D01*
X47480000Y21395223D01*
X47697977Y21414293D01*
X47909330Y21470925D01*
X48107639Y21563398D01*
X48107640Y21563399D01*
X48117471Y21567983D01*
X48118378Y21566038D01*
X48167390Y21583273D01*
X48232757Y21569528D01*
X48281509Y21523867D01*
X48299500Y21459539D01*
X48299500Y10341520D01*
X48290061Y10294066D01*
X48263180Y10253837D01*
X48202280Y10192939D01*
X48196829Y10187809D01*
X48151816Y10147930D01*
X48117649Y10098432D01*
X48113213Y10092403D01*
X48076121Y10045058D01*
X48071961Y10035814D01*
X48060941Y10016275D01*
X48055182Y10007931D01*
X48033853Y9951695D01*
X48030989Y9944781D01*
X48006303Y9889930D01*
X48004475Y9879953D01*
X47998454Y9858352D01*
X47994859Y9848872D01*
X47987609Y9789173D01*
X47986483Y9781774D01*
X47975641Y9722609D01*
X47979274Y9662566D01*
X47979500Y9655079D01*
X47979500Y7022711D01*
X47965489Y6965454D01*
X47926623Y6921137D01*
X47902686Y6904376D01*
X47808598Y6838495D01*
X47641508Y6671405D01*
X47641507Y6671403D01*
X47641505Y6671401D01*
X47511271Y6485406D01*
X47511270Y6485405D01*
X47466952Y6446540D01*
X47409695Y6432529D01*
X47352438Y6446540D01*
X47308120Y6485405D01*
X47254925Y6561374D01*
X47254925Y6561375D01*
X46493553Y5800000D01*
X46493553Y5799999D01*
X47254925Y5038627D01*
X47308119Y5114595D01*
X47352437Y5153461D01*
X47409694Y5167472D01*
X47466951Y5153461D01*
X47511267Y5114598D01*
X47641505Y4928599D01*
X47808599Y4761505D01*
X47994160Y4631574D01*
X48033024Y4587257D01*
X48047035Y4530000D01*
X48033024Y4472743D01*
X47994160Y4428426D01*
X47810846Y4300068D01*
X47808595Y4298492D01*
X47641505Y4131402D01*
X47511575Y3945841D01*
X47467257Y3906975D01*
X47410000Y3892964D01*
X47352743Y3906975D01*
X47308425Y3945841D01*
X47241044Y4042071D01*
X47178495Y4131401D01*
X47011401Y4298495D01*
X46825402Y4428733D01*
X46786539Y4473049D01*
X46772528Y4530306D01*
X46786539Y4587563D01*
X46825405Y4631881D01*
X46901373Y4685075D01*
X45874128Y5712320D01*
X45842034Y5767908D01*
X45842034Y5832095D01*
X45874128Y5887682D01*
X46140000Y6153553D01*
X46901373Y6914927D01*
X46901373Y6914928D01*
X46817580Y6973600D01*
X46603492Y7073431D01*
X46375318Y7134570D01*
X46140000Y7155158D01*
X45904681Y7134570D01*
X45746594Y7092210D01*
X45690309Y7090368D01*
X45639014Y7113609D01*
X45603288Y7157141D01*
X45590500Y7211985D01*
X45590500Y22548481D01*
X45599939Y22595933D01*
X45626818Y22636161D01*
X45690963Y22700307D01*
X45715782Y22725127D01*
X45761050Y22753966D01*
X45814268Y22760972D01*
X45999999Y22744723D01*
G37*
G04 #@! TD.AperFunction*
G04 #@! TA.AperFunction,Conductor*
G36*
X99737500Y69782887D02*
G01*
X99782887Y69737500D01*
X99799500Y69675500D01*
X99799500Y324500D01*
X99782887Y262500D01*
X99737500Y217113D01*
X99675500Y200500D01*
X324500Y200500D01*
X262500Y217113D01*
X217113Y262500D01*
X200500Y324500D01*
X200500Y2145075D01*
X4738625Y2145075D01*
X4822420Y2086401D01*
X5036507Y1986570D01*
X5264681Y1925431D01*
X5500000Y1904843D01*
X5735318Y1925431D01*
X5963492Y1986570D01*
X6177576Y2086400D01*
X6261373Y2145075D01*
X5500000Y2906447D01*
X4738625Y2145075D01*
X200500Y2145075D01*
X200500Y3260001D01*
X4144842Y3260001D01*
X4165430Y3024682D01*
X4226569Y2796508D01*
X4326400Y2582420D01*
X4385073Y2498627D01*
X5146447Y3259999D01*
X5853553Y3259999D01*
X6614925Y2498627D01*
X6668119Y2574595D01*
X6712437Y2613461D01*
X6769694Y2627472D01*
X6826951Y2613461D01*
X6871267Y2574598D01*
X7001505Y2388599D01*
X7168599Y2221505D01*
X7362170Y2085965D01*
X7576337Y1986097D01*
X7804592Y1924937D01*
X8040000Y1904341D01*
X8275408Y1924937D01*
X8503663Y1986097D01*
X8717830Y2085965D01*
X8911401Y2221505D01*
X9078495Y2388599D01*
X9208426Y2574161D01*
X9252743Y2613025D01*
X9310000Y2627036D01*
X9367257Y2613025D01*
X9411573Y2574161D01*
X9541505Y2388599D01*
X9708599Y2221505D01*
X9902170Y2085965D01*
X10116337Y1986097D01*
X10344592Y1924937D01*
X10580000Y1904341D01*
X10815408Y1924937D01*
X11043663Y1986097D01*
X11257830Y2085965D01*
X11451401Y2221505D01*
X11618495Y2388599D01*
X11748426Y2574161D01*
X11792743Y2613025D01*
X11850000Y2627036D01*
X11907257Y2613025D01*
X11951573Y2574161D01*
X12081505Y2388599D01*
X12248599Y2221505D01*
X12442170Y2085965D01*
X12656337Y1986097D01*
X12884592Y1924937D01*
X13120000Y1904341D01*
X13355408Y1924937D01*
X13583663Y1986097D01*
X13797830Y2085965D01*
X13991401Y2221505D01*
X14158495Y2388599D01*
X14288426Y2574161D01*
X14332743Y2613025D01*
X14390000Y2627036D01*
X14447257Y2613025D01*
X14491573Y2574161D01*
X14621505Y2388599D01*
X14788599Y2221505D01*
X14982170Y2085965D01*
X15196337Y1986097D01*
X15424592Y1924937D01*
X15660000Y1904341D01*
X15895408Y1924937D01*
X16123663Y1986097D01*
X16337830Y2085965D01*
X16531401Y2221505D01*
X16698495Y2388599D01*
X16828426Y2574161D01*
X16872743Y2613025D01*
X16930000Y2627036D01*
X16987257Y2613025D01*
X17031573Y2574161D01*
X17161505Y2388599D01*
X17328599Y2221505D01*
X17522170Y2085965D01*
X17736337Y1986097D01*
X17964592Y1924937D01*
X18200000Y1904341D01*
X18435408Y1924937D01*
X18663663Y1986097D01*
X18877830Y2085965D01*
X19071401Y2221505D01*
X19238495Y2388599D01*
X19368426Y2574161D01*
X19412743Y2613025D01*
X19470000Y2627036D01*
X19527257Y2613025D01*
X19571573Y2574161D01*
X19701505Y2388599D01*
X19868599Y2221505D01*
X20062170Y2085965D01*
X20276337Y1986097D01*
X20504592Y1924937D01*
X20740000Y1904341D01*
X20975408Y1924937D01*
X21203663Y1986097D01*
X21417830Y2085965D01*
X21611401Y2221505D01*
X21778495Y2388599D01*
X21908426Y2574161D01*
X21952743Y2613025D01*
X22010000Y2627036D01*
X22067257Y2613025D01*
X22111573Y2574161D01*
X22241505Y2388599D01*
X22408599Y2221505D01*
X22602170Y2085965D01*
X22816337Y1986097D01*
X23044592Y1924937D01*
X23280000Y1904341D01*
X23515408Y1924937D01*
X23743663Y1986097D01*
X23957830Y2085965D01*
X24151401Y2221505D01*
X24318495Y2388599D01*
X24448426Y2574161D01*
X24492743Y2613025D01*
X24550000Y2627036D01*
X24607257Y2613025D01*
X24651573Y2574161D01*
X24781505Y2388599D01*
X24948599Y2221505D01*
X25142170Y2085965D01*
X25356337Y1986097D01*
X25584592Y1924937D01*
X25820000Y1904341D01*
X26055408Y1924937D01*
X26283663Y1986097D01*
X26497830Y2085965D01*
X26582248Y2145075D01*
X27598625Y2145075D01*
X27682420Y2086401D01*
X27896507Y1986570D01*
X28124681Y1925431D01*
X28360000Y1904843D01*
X28595318Y1925431D01*
X28823492Y1986570D01*
X29037576Y2086400D01*
X29121373Y2145075D01*
X28360000Y2906447D01*
X27598625Y2145075D01*
X26582248Y2145075D01*
X26691401Y2221505D01*
X26858495Y2388599D01*
X26988732Y2574598D01*
X27033048Y2613461D01*
X27090305Y2627472D01*
X27147562Y2613461D01*
X27191880Y2574595D01*
X27245073Y2498627D01*
X28006447Y3259999D01*
X28006447Y3260001D01*
X27245073Y4021374D01*
X27191881Y3945406D01*
X27147563Y3906540D01*
X27090306Y3892529D01*
X27033048Y3906540D01*
X26988730Y3945405D01*
X26858495Y4131401D01*
X26691401Y4298495D01*
X26505839Y4428427D01*
X26466974Y4472745D01*
X26452964Y4530001D01*
X26466975Y4587258D01*
X26505837Y4631572D01*
X26691401Y4761505D01*
X26858495Y4928599D01*
X26988426Y5114161D01*
X27032743Y5153025D01*
X27090000Y5167036D01*
X27147257Y5153025D01*
X27191573Y5114161D01*
X27321505Y4928599D01*
X27488599Y4761505D01*
X27674597Y4631268D01*
X27713460Y4586952D01*
X27727471Y4529694D01*
X27713460Y4472437D01*
X27674594Y4428119D01*
X27598626Y4374927D01*
X28360000Y3613553D01*
X29474925Y2498627D01*
X29528119Y2574595D01*
X29572437Y2613461D01*
X29629694Y2627472D01*
X29686951Y2613461D01*
X29731267Y2574598D01*
X29861505Y2388599D01*
X30028599Y2221505D01*
X30222170Y2085965D01*
X30436337Y1986097D01*
X30664592Y1924937D01*
X30900000Y1904341D01*
X31135408Y1924937D01*
X31363663Y1986097D01*
X31577830Y2085965D01*
X31771401Y2221505D01*
X31938495Y2388599D01*
X32068426Y2574161D01*
X32112743Y2613025D01*
X32170000Y2627036D01*
X32227257Y2613025D01*
X32271573Y2574161D01*
X32401505Y2388599D01*
X32568599Y2221505D01*
X32762170Y2085965D01*
X32976337Y1986097D01*
X33204592Y1924937D01*
X33440000Y1904341D01*
X33675408Y1924937D01*
X33903663Y1986097D01*
X34117830Y2085965D01*
X34311401Y2221505D01*
X34478495Y2388599D01*
X34608426Y2574161D01*
X34652743Y2613025D01*
X34710000Y2627036D01*
X34767257Y2613025D01*
X34811573Y2574161D01*
X34941505Y2388599D01*
X35108599Y2221505D01*
X35302170Y2085965D01*
X35516337Y1986097D01*
X35744592Y1924937D01*
X35980000Y1904341D01*
X36215408Y1924937D01*
X36443663Y1986097D01*
X36657830Y2085965D01*
X36851401Y2221505D01*
X37018495Y2388599D01*
X37148426Y2574161D01*
X37192743Y2613025D01*
X37250000Y2627036D01*
X37307257Y2613025D01*
X37351573Y2574161D01*
X37481505Y2388599D01*
X37648599Y2221505D01*
X37842170Y2085965D01*
X38056337Y1986097D01*
X38284592Y1924937D01*
X38520000Y1904341D01*
X38755408Y1924937D01*
X38983663Y1986097D01*
X39197830Y2085965D01*
X39391401Y2221505D01*
X39558495Y2388599D01*
X39688426Y2574161D01*
X39732743Y2613025D01*
X39790000Y2627036D01*
X39847257Y2613025D01*
X39891573Y2574161D01*
X40021505Y2388599D01*
X40188599Y2221505D01*
X40382170Y2085965D01*
X40596337Y1986097D01*
X40824592Y1924937D01*
X41060000Y1904341D01*
X41295408Y1924937D01*
X41523663Y1986097D01*
X41737830Y2085965D01*
X41931401Y2221505D01*
X42098495Y2388599D01*
X42228426Y2574161D01*
X42272743Y2613025D01*
X42330000Y2627036D01*
X42387257Y2613025D01*
X42431573Y2574161D01*
X42561505Y2388599D01*
X42728599Y2221505D01*
X42922170Y2085965D01*
X43136337Y1986097D01*
X43364592Y1924937D01*
X43600000Y1904341D01*
X43835408Y1924937D01*
X44063663Y1986097D01*
X44277830Y2085965D01*
X44471401Y2221505D01*
X44638495Y2388599D01*
X44768426Y2574161D01*
X44812743Y2613025D01*
X44870000Y2627036D01*
X44927257Y2613025D01*
X44971573Y2574161D01*
X45101505Y2388599D01*
X45268599Y2221505D01*
X45462170Y2085965D01*
X45676337Y1986097D01*
X45904592Y1924937D01*
X46140000Y1904341D01*
X46375408Y1924937D01*
X46603663Y1986097D01*
X46817830Y2085965D01*
X47011401Y2221505D01*
X47178495Y2388599D01*
X47308426Y2574161D01*
X47352743Y2613025D01*
X47410000Y2627036D01*
X47467257Y2613025D01*
X47511573Y2574161D01*
X47641505Y2388599D01*
X47808599Y2221505D01*
X48002170Y2085965D01*
X48216337Y1986097D01*
X48444592Y1924937D01*
X48680000Y1904341D01*
X48915408Y1924937D01*
X49143663Y1986097D01*
X49357830Y2085965D01*
X49551401Y2221505D01*
X49718495Y2388599D01*
X49848426Y2574161D01*
X49892743Y2613025D01*
X49950000Y2627036D01*
X50007257Y2613025D01*
X50051573Y2574161D01*
X50181505Y2388599D01*
X50348599Y2221505D01*
X50542170Y2085965D01*
X50756337Y1986097D01*
X50984592Y1924937D01*
X51220000Y1904341D01*
X51455408Y1924937D01*
X51683663Y1986097D01*
X51897830Y2085965D01*
X52091401Y2221505D01*
X52258495Y2388599D01*
X52388426Y2574161D01*
X52432743Y2613025D01*
X52490000Y2627036D01*
X52547257Y2613025D01*
X52591573Y2574161D01*
X52721505Y2388599D01*
X52888599Y2221505D01*
X53082170Y2085965D01*
X53296337Y1986097D01*
X53524592Y1924937D01*
X53760000Y1904341D01*
X53995408Y1924937D01*
X54223663Y1986097D01*
X54437830Y2085965D01*
X54631401Y2221505D01*
X54798495Y2388599D01*
X54928426Y2574161D01*
X54972743Y2613025D01*
X55030000Y2627036D01*
X55087257Y2613025D01*
X55131573Y2574161D01*
X55261505Y2388599D01*
X55428599Y2221505D01*
X55622170Y2085965D01*
X55836337Y1986097D01*
X56064592Y1924937D01*
X56300000Y1904341D01*
X56535408Y1924937D01*
X56763663Y1986097D01*
X56977830Y2085965D01*
X57171401Y2221505D01*
X57338495Y2388599D01*
X57468426Y2574161D01*
X57512743Y2613025D01*
X57570000Y2627036D01*
X57627257Y2613025D01*
X57671573Y2574161D01*
X57801505Y2388599D01*
X57968599Y2221505D01*
X58162170Y2085965D01*
X58376337Y1986097D01*
X58604592Y1924937D01*
X58840000Y1904341D01*
X59075408Y1924937D01*
X59303663Y1986097D01*
X59517830Y2085965D01*
X59711401Y2221505D01*
X59878495Y2388599D01*
X60008426Y2574161D01*
X60052743Y2613025D01*
X60110000Y2627036D01*
X60167257Y2613025D01*
X60211573Y2574161D01*
X60341505Y2388599D01*
X60508599Y2221505D01*
X60702170Y2085965D01*
X60916337Y1986097D01*
X61144592Y1924937D01*
X61380000Y1904341D01*
X61615408Y1924937D01*
X61843663Y1986097D01*
X62057830Y2085965D01*
X62251401Y2221505D01*
X62418495Y2388599D01*
X62548426Y2574161D01*
X62592743Y2613025D01*
X62650000Y2627036D01*
X62707257Y2613025D01*
X62751573Y2574161D01*
X62881505Y2388599D01*
X63048599Y2221505D01*
X63242170Y2085965D01*
X63456337Y1986097D01*
X63684592Y1924937D01*
X63920000Y1904341D01*
X64155408Y1924937D01*
X64383663Y1986097D01*
X64597830Y2085965D01*
X64791401Y2221505D01*
X64958495Y2388599D01*
X65088426Y2574161D01*
X65132743Y2613025D01*
X65190000Y2627036D01*
X65247257Y2613025D01*
X65291573Y2574161D01*
X65421505Y2388599D01*
X65588599Y2221505D01*
X65782170Y2085965D01*
X65996337Y1986097D01*
X66224592Y1924937D01*
X66460000Y1904341D01*
X66695408Y1924937D01*
X66923663Y1986097D01*
X67137830Y2085965D01*
X67331401Y2221505D01*
X67498495Y2388599D01*
X67628426Y2574161D01*
X67672743Y2613025D01*
X67730000Y2627036D01*
X67787257Y2613025D01*
X67831573Y2574161D01*
X67961505Y2388599D01*
X68128599Y2221505D01*
X68322170Y2085965D01*
X68536337Y1986097D01*
X68764592Y1924937D01*
X69000000Y1904341D01*
X69235408Y1924937D01*
X69463663Y1986097D01*
X69677830Y2085965D01*
X69762248Y2145075D01*
X70778625Y2145075D01*
X70862420Y2086401D01*
X71076507Y1986570D01*
X71304681Y1925431D01*
X71540000Y1904843D01*
X71775318Y1925431D01*
X72003492Y1986570D01*
X72217576Y2086400D01*
X72301373Y2145075D01*
X71540000Y2906447D01*
X70778625Y2145075D01*
X69762248Y2145075D01*
X69871401Y2221505D01*
X70038495Y2388599D01*
X70168732Y2574598D01*
X70213048Y2613461D01*
X70270305Y2627472D01*
X70327562Y2613461D01*
X70371880Y2574595D01*
X70425073Y2498627D01*
X71186447Y3259999D01*
X71186447Y3260000D01*
X70425073Y4021374D01*
X70371881Y3945406D01*
X70327563Y3906540D01*
X70270306Y3892529D01*
X70213048Y3906540D01*
X70168730Y3945405D01*
X70038495Y4131401D01*
X69871401Y4298495D01*
X69685839Y4428427D01*
X69646974Y4472745D01*
X69632964Y4530001D01*
X69646975Y4587258D01*
X69685837Y4631572D01*
X69871401Y4761505D01*
X70038495Y4928599D01*
X70168426Y5114161D01*
X70212743Y5153025D01*
X70270000Y5167036D01*
X70327257Y5153025D01*
X70371573Y5114161D01*
X70501505Y4928599D01*
X70668599Y4761505D01*
X70854597Y4631268D01*
X70893460Y4586952D01*
X70907471Y4529694D01*
X70893460Y4472437D01*
X70854594Y4428119D01*
X70778626Y4374927D01*
X71540000Y3613553D01*
X71540001Y3613553D01*
X72301373Y4374927D01*
X72301373Y4374928D01*
X72225405Y4428120D01*
X72186539Y4472438D01*
X72172528Y4529695D01*
X72186539Y4586952D01*
X72225402Y4631268D01*
X72411401Y4761505D01*
X72578495Y4928599D01*
X72708426Y5114161D01*
X72752743Y5153025D01*
X72810000Y5167036D01*
X72867257Y5153025D01*
X72911573Y5114161D01*
X73041505Y4928599D01*
X73208599Y4761505D01*
X73394160Y4631574D01*
X73433024Y4587257D01*
X73447035Y4530000D01*
X73433024Y4472743D01*
X73394160Y4428426D01*
X73210846Y4300068D01*
X73208595Y4298492D01*
X73041508Y4131405D01*
X73041507Y4131403D01*
X73041505Y4131401D01*
X72911271Y3945406D01*
X72911270Y3945405D01*
X72866952Y3906540D01*
X72809695Y3892529D01*
X72752438Y3906540D01*
X72708120Y3945405D01*
X72654925Y4021374D01*
X72654925Y4021375D01*
X71893553Y3260000D01*
X71893553Y3259999D01*
X72654925Y2498627D01*
X72708119Y2574595D01*
X72752437Y2613461D01*
X72809694Y2627472D01*
X72866951Y2613461D01*
X72911267Y2574598D01*
X73041505Y2388599D01*
X73208599Y2221505D01*
X73402170Y2085965D01*
X73616337Y1986097D01*
X73844592Y1924937D01*
X74080000Y1904341D01*
X74315408Y1924937D01*
X74543663Y1986097D01*
X74757830Y2085965D01*
X74951401Y2221505D01*
X75118495Y2388599D01*
X75248426Y2574161D01*
X75292743Y2613025D01*
X75350000Y2627036D01*
X75407257Y2613025D01*
X75451573Y2574161D01*
X75581505Y2388599D01*
X75748599Y2221505D01*
X75942170Y2085965D01*
X76156337Y1986097D01*
X76384592Y1924937D01*
X76620000Y1904341D01*
X76855408Y1924937D01*
X77083663Y1986097D01*
X77297830Y2085965D01*
X77491401Y2221505D01*
X77658495Y2388599D01*
X77788426Y2574161D01*
X77832743Y2613025D01*
X77890000Y2627036D01*
X77947257Y2613025D01*
X77991573Y2574161D01*
X78121505Y2388599D01*
X78288599Y2221505D01*
X78482170Y2085965D01*
X78696337Y1986097D01*
X78924592Y1924937D01*
X79160000Y1904341D01*
X79395408Y1924937D01*
X79623663Y1986097D01*
X79837830Y2085965D01*
X80031401Y2221505D01*
X80198495Y2388599D01*
X80328426Y2574161D01*
X80372743Y2613025D01*
X80430000Y2627036D01*
X80487257Y2613025D01*
X80531573Y2574161D01*
X80661505Y2388599D01*
X80828599Y2221505D01*
X81022170Y2085965D01*
X81236337Y1986097D01*
X81464592Y1924937D01*
X81700000Y1904341D01*
X81935408Y1924937D01*
X82163663Y1986097D01*
X82377830Y2085965D01*
X82571401Y2221505D01*
X82738495Y2388599D01*
X82868426Y2574161D01*
X82912743Y2613025D01*
X82970000Y2627036D01*
X83027257Y2613025D01*
X83071573Y2574161D01*
X83201505Y2388599D01*
X83368599Y2221505D01*
X83562170Y2085965D01*
X83776337Y1986097D01*
X84004592Y1924937D01*
X84240000Y1904341D01*
X84475408Y1924937D01*
X84703663Y1986097D01*
X84917830Y2085965D01*
X85111401Y2221505D01*
X85278495Y2388599D01*
X85408426Y2574161D01*
X85452743Y2613025D01*
X85510000Y2627036D01*
X85567257Y2613025D01*
X85611573Y2574161D01*
X85741505Y2388599D01*
X85908599Y2221505D01*
X86102170Y2085965D01*
X86316337Y1986097D01*
X86544592Y1924937D01*
X86780000Y1904341D01*
X87015408Y1924937D01*
X87243663Y1986097D01*
X87457830Y2085965D01*
X87651401Y2221505D01*
X87818495Y2388599D01*
X87948426Y2574161D01*
X87992743Y2613025D01*
X88050000Y2627036D01*
X88107257Y2613025D01*
X88151573Y2574161D01*
X88281505Y2388599D01*
X88448599Y2221505D01*
X88642170Y2085965D01*
X88856337Y1986097D01*
X89084592Y1924937D01*
X89320000Y1904341D01*
X89555408Y1924937D01*
X89783663Y1986097D01*
X89997830Y2085965D01*
X90191401Y2221505D01*
X90358495Y2388599D01*
X90488426Y2574161D01*
X90532743Y2613025D01*
X90590000Y2627036D01*
X90647257Y2613025D01*
X90691573Y2574161D01*
X90821505Y2388599D01*
X90988599Y2221505D01*
X91182170Y2085965D01*
X91396337Y1986097D01*
X91624592Y1924937D01*
X91860000Y1904341D01*
X92095408Y1924937D01*
X92323663Y1986097D01*
X92537830Y2085965D01*
X92731401Y2221505D01*
X92898495Y2388599D01*
X93028426Y2574161D01*
X93072743Y2613025D01*
X93130000Y2627036D01*
X93187257Y2613025D01*
X93231573Y2574161D01*
X93361505Y2388599D01*
X93528599Y2221505D01*
X93722170Y2085965D01*
X93936337Y1986097D01*
X94164592Y1924937D01*
X94400000Y1904341D01*
X94635408Y1924937D01*
X94863663Y1986097D01*
X95077830Y2085965D01*
X95271401Y2221505D01*
X95438495Y2388599D01*
X95574035Y2582170D01*
X95673903Y2796337D01*
X95735063Y3024592D01*
X95755659Y3260000D01*
X95735063Y3495408D01*
X95673903Y3723663D01*
X95574035Y3937829D01*
X95438495Y4131401D01*
X95271401Y4298495D01*
X95085839Y4428427D01*
X95046974Y4472745D01*
X95032964Y4530001D01*
X95046975Y4587258D01*
X95085837Y4631572D01*
X95271401Y4761505D01*
X95438495Y4928599D01*
X95574035Y5122170D01*
X95673903Y5336337D01*
X95735063Y5564592D01*
X95755659Y5800000D01*
X95735063Y6035408D01*
X95673903Y6263663D01*
X95574035Y6477829D01*
X95438495Y6671401D01*
X95271401Y6838495D01*
X95077830Y6974035D01*
X94863663Y7073903D01*
X94793406Y7092728D01*
X94635407Y7135064D01*
X94400000Y7155660D01*
X94164592Y7135064D01*
X93936336Y7073903D01*
X93722170Y6974035D01*
X93528598Y6838495D01*
X93361505Y6671402D01*
X93231575Y6485841D01*
X93187257Y6446975D01*
X93130000Y6432964D01*
X93072743Y6446975D01*
X93028425Y6485841D01*
X92898494Y6671402D01*
X92731404Y6838492D01*
X92731401Y6838495D01*
X92537830Y6974035D01*
X92323663Y7073903D01*
X92253406Y7092728D01*
X92095407Y7135064D01*
X91860000Y7155660D01*
X91624592Y7135064D01*
X91396336Y7073903D01*
X91182170Y6974035D01*
X90988598Y6838495D01*
X90821505Y6671402D01*
X90691575Y6485841D01*
X90647257Y6446975D01*
X90590000Y6432964D01*
X90532743Y6446975D01*
X90488425Y6485841D01*
X90358494Y6671402D01*
X90191404Y6838492D01*
X90191401Y6838495D01*
X89997830Y6974035D01*
X89783663Y7073903D01*
X89713406Y7092728D01*
X89555407Y7135064D01*
X89320000Y7155660D01*
X89084592Y7135064D01*
X88856336Y7073903D01*
X88642170Y6974035D01*
X88448598Y6838495D01*
X88281505Y6671402D01*
X88151575Y6485841D01*
X88107257Y6446975D01*
X88050000Y6432964D01*
X87992743Y6446975D01*
X87948425Y6485841D01*
X87818494Y6671402D01*
X87651404Y6838492D01*
X87651401Y6838495D01*
X87457830Y6974035D01*
X87243663Y7073903D01*
X87173406Y7092728D01*
X87015407Y7135064D01*
X86780000Y7155660D01*
X86544592Y7135064D01*
X86316336Y7073903D01*
X86102170Y6974035D01*
X85908598Y6838495D01*
X85741508Y6671405D01*
X85741507Y6671403D01*
X85741505Y6671401D01*
X85611271Y6485406D01*
X85611270Y6485405D01*
X85566952Y6446540D01*
X85509695Y6432529D01*
X85452438Y6446540D01*
X85408120Y6485405D01*
X85354925Y6561374D01*
X85354925Y6561375D01*
X84593553Y5800000D01*
X85354925Y5038627D01*
X85408119Y5114595D01*
X85452437Y5153461D01*
X85509694Y5167472D01*
X85566951Y5153461D01*
X85611267Y5114598D01*
X85741505Y4928599D01*
X85908599Y4761505D01*
X86094160Y4631574D01*
X86133024Y4587257D01*
X86147035Y4530000D01*
X86133024Y4472743D01*
X86094160Y4428426D01*
X85910846Y4300068D01*
X85908595Y4298492D01*
X85741505Y4131402D01*
X85611575Y3945841D01*
X85567257Y3906975D01*
X85510000Y3892964D01*
X85452743Y3906975D01*
X85408425Y3945841D01*
X85341044Y4042071D01*
X85278495Y4131401D01*
X85111401Y4298495D01*
X84925402Y4428733D01*
X84886539Y4473049D01*
X84872528Y4530306D01*
X84886539Y4587563D01*
X84925405Y4631881D01*
X85001373Y4685075D01*
X83974128Y5712320D01*
X83942034Y5767908D01*
X83942034Y5832095D01*
X83974128Y5887682D01*
X84240000Y6153553D01*
X85001373Y6914927D01*
X85001373Y6914928D01*
X84917580Y6973600D01*
X84703492Y7073431D01*
X84475318Y7134570D01*
X84240000Y7155158D01*
X84004681Y7134570D01*
X83846594Y7092210D01*
X83790309Y7090368D01*
X83739014Y7113609D01*
X83703288Y7157141D01*
X83690500Y7211985D01*
X83690500Y36789355D01*
X83704511Y36846612D01*
X83743374Y36890929D01*
X83846877Y36963402D01*
X84001598Y37118123D01*
X84127102Y37297361D01*
X84219575Y37495670D01*
X84276207Y37707023D01*
X84295277Y37925000D01*
X84276207Y38142977D01*
X84219575Y38354330D01*
X84127102Y38552638D01*
X84001598Y38731877D01*
X83846877Y38886598D01*
X83667639Y39012102D01*
X83576205Y39054739D01*
X83469331Y39104575D01*
X83257974Y39161208D01*
X83039999Y39180278D01*
X82822025Y39161208D01*
X82610668Y39104575D01*
X82412361Y39012102D01*
X82233122Y38886598D01*
X82078402Y38731878D01*
X81952898Y38552639D01*
X81860425Y38354332D01*
X81803792Y38142975D01*
X81784722Y37925000D01*
X81803792Y37707026D01*
X81803793Y37707023D01*
X81860425Y37495670D01*
X81952898Y37297361D01*
X82078402Y37118123D01*
X82078405Y37118120D01*
X82233123Y36963402D01*
X82236626Y36960949D01*
X82275490Y36916631D01*
X82289500Y36859376D01*
X82289500Y32892014D01*
X82276712Y32837170D01*
X82240986Y32793638D01*
X82189691Y32770397D01*
X82133407Y32772239D01*
X82042768Y32796526D01*
X81987974Y32811208D01*
X81770000Y32830278D01*
X81552025Y32811208D01*
X81340668Y32754575D01*
X81142361Y32662102D01*
X80963122Y32536598D01*
X80808402Y32381878D01*
X80682898Y32202639D01*
X80590425Y32004332D01*
X80533792Y31792975D01*
X80514722Y31575001D01*
X80533792Y31357026D01*
X80579995Y31184593D01*
X80590425Y31145670D01*
X80682898Y30947361D01*
X80808402Y30768123D01*
X80963123Y30613402D01*
X80963182Y30613343D01*
X80990061Y30573115D01*
X80999500Y30525662D01*
X80999500Y7022711D01*
X80985489Y6965454D01*
X80946623Y6921137D01*
X80922686Y6904376D01*
X80828598Y6838495D01*
X80661505Y6671402D01*
X80531575Y6485841D01*
X80487257Y6446975D01*
X80430000Y6432964D01*
X80372743Y6446975D01*
X80328425Y6485841D01*
X80198494Y6671402D01*
X80031401Y6838495D01*
X79966393Y6884014D01*
X79913376Y6921137D01*
X79874511Y6965454D01*
X79860500Y7022711D01*
X79860500Y39950351D01*
X79874511Y40007608D01*
X79913374Y40051925D01*
X80036877Y40138402D01*
X80191598Y40293123D01*
X80317102Y40472361D01*
X80409575Y40670670D01*
X80466207Y40882023D01*
X80485277Y41100000D01*
X80466207Y41317977D01*
X80409575Y41529330D01*
X80317102Y41727638D01*
X80191598Y41906877D01*
X80036877Y42061598D01*
X79857639Y42187102D01*
X79766205Y42229739D01*
X79659331Y42279575D01*
X79447974Y42336208D01*
X79230000Y42355278D01*
X79012025Y42336208D01*
X78800668Y42279575D01*
X78602361Y42187102D01*
X78423122Y42061598D01*
X78268402Y41906878D01*
X78142898Y41727639D01*
X78050425Y41529332D01*
X77993792Y41317975D01*
X77974722Y41100000D01*
X77993792Y40882026D01*
X78040262Y40708596D01*
X78050425Y40670670D01*
X78142898Y40472361D01*
X78268402Y40293123D01*
X78347490Y40214035D01*
X78423182Y40138343D01*
X78450061Y40098115D01*
X78459500Y40050662D01*
X78459500Y7022711D01*
X78445489Y6965454D01*
X78406623Y6921137D01*
X78382686Y6904376D01*
X78288598Y6838495D01*
X78121505Y6671402D01*
X77991575Y6485841D01*
X77947257Y6446975D01*
X77890000Y6432964D01*
X77832743Y6446975D01*
X77788425Y6485841D01*
X77658494Y6671402D01*
X77491404Y6838492D01*
X77491401Y6838495D01*
X77297830Y6974035D01*
X77083663Y7073903D01*
X77013406Y7092728D01*
X76855407Y7135064D01*
X76620000Y7155660D01*
X76384592Y7135064D01*
X76156336Y7073903D01*
X75942170Y6974035D01*
X75748598Y6838495D01*
X75581505Y6671402D01*
X75451575Y6485841D01*
X75407257Y6446975D01*
X75350000Y6432964D01*
X75292743Y6446975D01*
X75248425Y6485841D01*
X75118494Y6671402D01*
X74951404Y6838492D01*
X74951401Y6838495D01*
X74757830Y6974035D01*
X74543663Y7073903D01*
X74473406Y7092728D01*
X74315407Y7135064D01*
X74080000Y7155660D01*
X73844592Y7135064D01*
X73616336Y7073903D01*
X73402170Y6974035D01*
X73208598Y6838495D01*
X73041505Y6671402D01*
X72911575Y6485841D01*
X72867257Y6446975D01*
X72810000Y6432964D01*
X72752743Y6446975D01*
X72708425Y6485841D01*
X72578494Y6671402D01*
X72411404Y6838492D01*
X72411401Y6838495D01*
X72217830Y6974035D01*
X72003663Y7073903D01*
X71933406Y7092728D01*
X71775407Y7135064D01*
X71540000Y7155660D01*
X71304592Y7135064D01*
X71076336Y7073903D01*
X70862170Y6974035D01*
X70668598Y6838495D01*
X70501505Y6671402D01*
X70371575Y6485841D01*
X70327257Y6446975D01*
X70270000Y6432964D01*
X70212743Y6446975D01*
X70168425Y6485841D01*
X70038494Y6671402D01*
X69871404Y6838492D01*
X69871401Y6838495D01*
X69677830Y6974035D01*
X69463663Y7073903D01*
X69393406Y7092728D01*
X69235407Y7135064D01*
X69000000Y7155660D01*
X68764592Y7135064D01*
X68606593Y7092728D01*
X68550309Y7090886D01*
X68499014Y7114127D01*
X68463288Y7157659D01*
X68450500Y7212503D01*
X68450500Y43248481D01*
X68459939Y43295934D01*
X68486819Y43336162D01*
X69323838Y44173181D01*
X69364066Y44200061D01*
X69411519Y44209500D01*
X78570079Y44209500D01*
X78577566Y44209274D01*
X78580706Y44209085D01*
X78637606Y44205642D01*
X78696782Y44216487D01*
X78704181Y44217613D01*
X78763872Y44224860D01*
X78773335Y44228450D01*
X78794958Y44234478D01*
X78804932Y44236305D01*
X78859808Y44261004D01*
X78866673Y44263848D01*
X78922930Y44285182D01*
X78931270Y44290940D01*
X78950819Y44301965D01*
X78960057Y44306122D01*
X79007413Y44343225D01*
X79013420Y44347645D01*
X79062929Y44381817D01*
X79102823Y44426850D01*
X79107924Y44432269D01*
X82755782Y48080127D01*
X82801051Y48108966D01*
X82854268Y48115972D01*
X83040000Y48099723D01*
X83257977Y48118793D01*
X83469330Y48175425D01*
X83512984Y48195782D01*
X83570796Y48207282D01*
X83627388Y48190788D01*
X83669969Y48150025D01*
X83688917Y48094207D01*
X83708792Y47867026D01*
X83708793Y47867023D01*
X83765425Y47655670D01*
X83857898Y47457361D01*
X83983402Y47278123D01*
X84138123Y47123402D01*
X84317361Y46997898D01*
X84515670Y46905425D01*
X84727023Y46848793D01*
X84872340Y46836080D01*
X84944999Y46829723D01*
X84944999Y46829724D01*
X84945000Y46829723D01*
X85162977Y46848793D01*
X85374330Y46905425D01*
X85572639Y46997898D01*
X85751877Y47123402D01*
X85841656Y47213182D01*
X85881884Y47240061D01*
X85929337Y47249500D01*
X86758215Y47249500D01*
X86813059Y47236712D01*
X86856591Y47200986D01*
X86879832Y47149691D01*
X86877990Y47093407D01*
X86824936Y46895408D01*
X86804340Y46660001D01*
X86824936Y46424593D01*
X86869709Y46257498D01*
X86886097Y46196337D01*
X86985965Y45982170D01*
X87121505Y45788599D01*
X87288599Y45621505D01*
X87474160Y45491574D01*
X87513024Y45447257D01*
X87527035Y45390000D01*
X87513024Y45332743D01*
X87474158Y45288425D01*
X87292083Y45160934D01*
X87288595Y45158492D01*
X87121505Y44991402D01*
X86985965Y44797830D01*
X86886097Y44583664D01*
X86824936Y44355408D01*
X86804340Y44120000D01*
X86824936Y43884593D01*
X86850295Y43789953D01*
X86886097Y43656337D01*
X86985965Y43442170D01*
X87121505Y43248599D01*
X87288599Y43081505D01*
X87474160Y42951574D01*
X87513024Y42907257D01*
X87527035Y42850000D01*
X87513024Y42792743D01*
X87474159Y42748425D01*
X87288595Y42618492D01*
X87121505Y42451402D01*
X86985965Y42257830D01*
X86886097Y42043664D01*
X86824936Y41815408D01*
X86804340Y41580001D01*
X86824936Y41344593D01*
X86869709Y41177498D01*
X86886097Y41116337D01*
X86985965Y40902170D01*
X87121505Y40708599D01*
X87288599Y40541505D01*
X87474160Y40411574D01*
X87513024Y40367257D01*
X87527035Y40310000D01*
X87513024Y40252743D01*
X87474158Y40208425D01*
X87316620Y40098115D01*
X87288595Y40078492D01*
X87121505Y39911402D01*
X86985965Y39717830D01*
X86886097Y39503664D01*
X86824936Y39275408D01*
X86804340Y39040000D01*
X86824936Y38804593D01*
X86866245Y38650426D01*
X86886097Y38576337D01*
X86985965Y38362170D01*
X87121505Y38168599D01*
X87288599Y38001505D01*
X87474160Y37871574D01*
X87513024Y37827257D01*
X87527035Y37770000D01*
X87513024Y37712743D01*
X87474159Y37668425D01*
X87288595Y37538492D01*
X87121505Y37371402D01*
X86985965Y37177830D01*
X86886097Y36963664D01*
X86824936Y36735408D01*
X86804340Y36500001D01*
X86824936Y36264593D01*
X86835366Y36225669D01*
X86886097Y36036337D01*
X86985965Y35822170D01*
X87121505Y35628599D01*
X87288599Y35461505D01*
X87474160Y35331574D01*
X87513024Y35287257D01*
X87527035Y35230000D01*
X87513024Y35172743D01*
X87474159Y35128425D01*
X87288595Y34998492D01*
X87121505Y34831402D01*
X86985965Y34637830D01*
X86886097Y34423664D01*
X86824936Y34195408D01*
X86804340Y33960000D01*
X86824936Y33724593D01*
X86858227Y33600351D01*
X86886097Y33496337D01*
X86985965Y33282170D01*
X87121505Y33088599D01*
X87288599Y32921505D01*
X87474160Y32791574D01*
X87513024Y32747257D01*
X87527035Y32690000D01*
X87513024Y32632743D01*
X87474159Y32588425D01*
X87288595Y32458492D01*
X87121505Y32291402D01*
X86985965Y32097830D01*
X86886097Y31883664D01*
X86824936Y31655408D01*
X86804340Y31420001D01*
X86824936Y31184593D01*
X86869709Y31017498D01*
X86886097Y30956337D01*
X86985965Y30742170D01*
X87121505Y30548599D01*
X87288599Y30381505D01*
X87474160Y30251574D01*
X87513024Y30207257D01*
X87527035Y30150000D01*
X87513024Y30092743D01*
X87474158Y30048425D01*
X87324205Y29943426D01*
X87288595Y29918492D01*
X87121505Y29751402D01*
X86985965Y29557830D01*
X86886097Y29343664D01*
X86824936Y29115408D01*
X86804340Y28880000D01*
X86824936Y28644593D01*
X86844744Y28570670D01*
X86886097Y28416337D01*
X86985965Y28202170D01*
X87121505Y28008599D01*
X87288599Y27841505D01*
X87474160Y27711574D01*
X87513024Y27667257D01*
X87527035Y27610000D01*
X87513024Y27552743D01*
X87474159Y27508425D01*
X87288595Y27378492D01*
X87121505Y27211402D01*
X86985965Y27017830D01*
X86886097Y26803664D01*
X86824936Y26575408D01*
X86804340Y26340001D01*
X86824936Y26104593D01*
X86869709Y25937499D01*
X86886097Y25876337D01*
X86985965Y25662170D01*
X87121505Y25468599D01*
X87288599Y25301505D01*
X87474160Y25171574D01*
X87513024Y25127257D01*
X87527035Y25070000D01*
X87513024Y25012743D01*
X87474159Y24968425D01*
X87288595Y24838492D01*
X87121505Y24671402D01*
X86985965Y24477830D01*
X86886097Y24263664D01*
X86824936Y24035408D01*
X86804340Y23800001D01*
X86824936Y23564593D01*
X86868961Y23400292D01*
X86886097Y23336337D01*
X86985965Y23122170D01*
X87121505Y22928599D01*
X87288599Y22761505D01*
X87474160Y22631574D01*
X87513024Y22587257D01*
X87527035Y22530000D01*
X87513024Y22472743D01*
X87474159Y22428425D01*
X87288595Y22298492D01*
X87121505Y22131402D01*
X86985965Y21937830D01*
X86886097Y21723664D01*
X86824936Y21495408D01*
X86804340Y21260000D01*
X86824936Y21024593D01*
X86831526Y21000000D01*
X86886097Y20796337D01*
X86985965Y20582170D01*
X87121505Y20388599D01*
X87288599Y20221505D01*
X87474160Y20091574D01*
X87513024Y20047257D01*
X87527035Y19990000D01*
X87513024Y19932743D01*
X87474159Y19888425D01*
X87288595Y19758492D01*
X87121505Y19591402D01*
X86985965Y19397830D01*
X86886097Y19183664D01*
X86824936Y18955408D01*
X86804340Y18720001D01*
X86824936Y18484593D01*
X86869709Y18317499D01*
X86886097Y18256337D01*
X86985965Y18042170D01*
X87121505Y17848599D01*
X87288599Y17681505D01*
X87474160Y17551574D01*
X87513024Y17507257D01*
X87527035Y17450000D01*
X87513024Y17392743D01*
X87474159Y17348425D01*
X87288595Y17218492D01*
X87121505Y17051402D01*
X86985965Y16857830D01*
X86886097Y16643664D01*
X86824936Y16415408D01*
X86804340Y16180000D01*
X86824936Y15944593D01*
X86840397Y15886892D01*
X86886097Y15716337D01*
X86985965Y15502170D01*
X87121505Y15308599D01*
X87288599Y15141505D01*
X87474160Y15011574D01*
X87513024Y14967257D01*
X87527035Y14910000D01*
X87513024Y14852743D01*
X87474159Y14808425D01*
X87288595Y14678492D01*
X87121505Y14511402D01*
X86985965Y14317830D01*
X86886097Y14103664D01*
X86824936Y13875408D01*
X86804340Y13640000D01*
X86824936Y13404593D01*
X86869709Y13237498D01*
X86886097Y13176337D01*
X86985965Y12962170D01*
X87121505Y12768599D01*
X87288599Y12601505D01*
X87474160Y12471574D01*
X87513024Y12427257D01*
X87527035Y12370000D01*
X87513024Y12312743D01*
X87474158Y12268425D01*
X87374880Y12198909D01*
X87288595Y12138492D01*
X87121505Y11971402D01*
X86985965Y11777830D01*
X86886097Y11563664D01*
X86824936Y11335408D01*
X86804340Y11100000D01*
X86824936Y10864593D01*
X86838291Y10814753D01*
X86886097Y10636337D01*
X86985965Y10422170D01*
X87121505Y10228599D01*
X87288599Y10061505D01*
X87482170Y9925965D01*
X87696337Y9826097D01*
X87924592Y9764937D01*
X88160000Y9744341D01*
X88395408Y9764937D01*
X88623663Y9826097D01*
X88837830Y9925965D01*
X89031401Y10061505D01*
X89198495Y10228599D01*
X89328732Y10414598D01*
X89373048Y10453461D01*
X89430305Y10467472D01*
X89487562Y10453461D01*
X89531880Y10414596D01*
X89661893Y10228919D01*
X89828918Y10061894D01*
X90022423Y9926400D01*
X90236507Y9826570D01*
X90449999Y9769365D01*
X90450000Y9769364D01*
X90450000Y10850000D01*
X90950000Y10850000D01*
X90950000Y9769365D01*
X91163492Y9826570D01*
X91377576Y9926400D01*
X91571081Y10061894D01*
X91574512Y10065325D01*
X94295747Y10065325D01*
X94302853Y9879953D01*
X94305749Y9804407D01*
X94348367Y9584656D01*
X94355463Y9548070D01*
X94443719Y9302336D01*
X94568460Y9072940D01*
X94726749Y8865285D01*
X94914887Y8684221D01*
X95060831Y8581567D01*
X95128456Y8534001D01*
X95223263Y8487059D01*
X95362453Y8418141D01*
X95611391Y8339360D01*
X95611392Y8339360D01*
X95611395Y8339359D01*
X95869445Y8299500D01*
X96065177Y8299500D01*
X96065179Y8299500D01*
X96089536Y8301371D01*
X96260344Y8314484D01*
X96514586Y8373979D01*
X96661384Y8433144D01*
X96756762Y8471584D01*
X96756764Y8471586D01*
X96756766Y8471586D01*
X96981208Y8605018D01*
X97182652Y8771148D01*
X97192347Y8782026D01*
X97227671Y8821663D01*
X97356375Y8966080D01*
X97498306Y9185247D01*
X97605118Y9423511D01*
X97609693Y9440157D01*
X97673423Y9672070D01*
X97674307Y9675287D01*
X97704252Y9934675D01*
X97694251Y10195593D01*
X97644538Y10451927D01*
X97556279Y10697668D01*
X97431541Y10927057D01*
X97431539Y10927061D01*
X97273250Y11134716D01*
X97085112Y11315780D01*
X96871546Y11465998D01*
X96637546Y11581860D01*
X96388608Y11660641D01*
X96227562Y11685516D01*
X96130555Y11700500D01*
X95934823Y11700500D01*
X95934821Y11700500D01*
X95739656Y11685516D01*
X95485412Y11626021D01*
X95243237Y11528417D01*
X95018791Y11394983D01*
X94817346Y11228852D01*
X94643622Y11033918D01*
X94501693Y10814753D01*
X94394881Y10576491D01*
X94325693Y10324717D01*
X94295747Y10065325D01*
X91574512Y10065325D01*
X91738106Y10228919D01*
X91873600Y10422424D01*
X91973430Y10636508D01*
X92030636Y10850000D01*
X90950000Y10850000D01*
X90450000Y10850000D01*
X90450000Y11226000D01*
X90466613Y11288000D01*
X90512000Y11333387D01*
X90574000Y11350000D01*
X92030636Y11350000D01*
X92030635Y11350001D01*
X91973430Y11563493D01*
X91873599Y11777579D01*
X91738109Y11971079D01*
X91571081Y12138107D01*
X91385404Y12268120D01*
X91346539Y12312438D01*
X91332528Y12369695D01*
X91346539Y12426952D01*
X91385402Y12471268D01*
X91571401Y12601505D01*
X91738495Y12768599D01*
X91874035Y12962170D01*
X91973903Y13176337D01*
X92035063Y13404592D01*
X92055659Y13640000D01*
X92035063Y13875408D01*
X91973903Y14103663D01*
X91874035Y14317829D01*
X91738495Y14511401D01*
X91571401Y14678495D01*
X91385839Y14808427D01*
X91346976Y14852743D01*
X91332965Y14910000D01*
X91346976Y14967257D01*
X91385839Y15011574D01*
X91571401Y15141505D01*
X91738495Y15308599D01*
X91874035Y15502170D01*
X91973903Y15716337D01*
X92035063Y15944592D01*
X92055659Y16180000D01*
X92035063Y16415408D01*
X91973903Y16643663D01*
X91874035Y16857829D01*
X91738495Y17051401D01*
X91571401Y17218495D01*
X91385839Y17348427D01*
X91346974Y17392745D01*
X91332964Y17450001D01*
X91346975Y17507258D01*
X91385837Y17551572D01*
X91571401Y17681505D01*
X91738495Y17848599D01*
X91874035Y18042170D01*
X91973903Y18256337D01*
X92035063Y18484592D01*
X92055659Y18720000D01*
X92035063Y18955408D01*
X91973903Y19183663D01*
X91874035Y19397829D01*
X91738495Y19591401D01*
X91571401Y19758495D01*
X91385839Y19888427D01*
X91346974Y19932745D01*
X91332964Y19990001D01*
X91346975Y20047258D01*
X91385837Y20091572D01*
X91571401Y20221505D01*
X91738495Y20388599D01*
X91874035Y20582170D01*
X91973903Y20796337D01*
X92035063Y21024592D01*
X92055659Y21260000D01*
X92035063Y21495408D01*
X91973903Y21723663D01*
X91874035Y21937829D01*
X91738495Y22131401D01*
X91571401Y22298495D01*
X91385839Y22428427D01*
X91346975Y22472743D01*
X91332964Y22530000D01*
X91346975Y22587257D01*
X91385839Y22631574D01*
X91571401Y22761505D01*
X91738495Y22928599D01*
X91874035Y23122170D01*
X91973903Y23336337D01*
X92035063Y23564592D01*
X92055659Y23800000D01*
X92054410Y23814271D01*
X92035063Y24035408D01*
X92035062Y24035409D01*
X91973903Y24263663D01*
X91874035Y24477829D01*
X91738495Y24671401D01*
X91571401Y24838495D01*
X91385839Y24968427D01*
X91346974Y25012745D01*
X91332964Y25070001D01*
X91346975Y25127258D01*
X91385837Y25171572D01*
X91571401Y25301505D01*
X91738495Y25468599D01*
X91874035Y25662170D01*
X91973903Y25876337D01*
X92035063Y26104592D01*
X92055659Y26340000D01*
X92035063Y26575408D01*
X91973903Y26803663D01*
X91874035Y27017829D01*
X91738495Y27211401D01*
X91571401Y27378495D01*
X91385839Y27508427D01*
X91346975Y27552743D01*
X91332964Y27610000D01*
X91346975Y27667257D01*
X91385839Y27711574D01*
X91571401Y27841505D01*
X91738495Y28008599D01*
X91874035Y28202170D01*
X91973903Y28416337D01*
X92035063Y28644592D01*
X92055659Y28880000D01*
X92035063Y29115408D01*
X91973903Y29343663D01*
X91874035Y29557829D01*
X91738495Y29751401D01*
X91571401Y29918495D01*
X91385839Y30048427D01*
X91346976Y30092743D01*
X91332965Y30150000D01*
X91346976Y30207257D01*
X91385839Y30251574D01*
X91571401Y30381505D01*
X91738495Y30548599D01*
X91874035Y30742170D01*
X91973903Y30956337D01*
X92035063Y31184592D01*
X92055659Y31420000D01*
X92035063Y31655408D01*
X91973903Y31883663D01*
X91874035Y32097829D01*
X91738495Y32291401D01*
X91571401Y32458495D01*
X91385839Y32588427D01*
X91346975Y32632743D01*
X91332964Y32690000D01*
X91346975Y32747257D01*
X91385839Y32791574D01*
X91571401Y32921505D01*
X91738495Y33088599D01*
X91874035Y33282170D01*
X91973903Y33496337D01*
X92035063Y33724592D01*
X92055659Y33960000D01*
X92035063Y34195408D01*
X91973903Y34423663D01*
X91874035Y34637829D01*
X91738495Y34831401D01*
X91571401Y34998495D01*
X91385839Y35128427D01*
X91346974Y35172745D01*
X91332964Y35230001D01*
X91346975Y35287258D01*
X91385837Y35331572D01*
X91571401Y35461505D01*
X91738495Y35628599D01*
X91874035Y35822170D01*
X91973903Y36036337D01*
X92035063Y36264592D01*
X92055659Y36500000D01*
X92035063Y36735408D01*
X91973903Y36963663D01*
X91874035Y37177829D01*
X91738495Y37371401D01*
X91571401Y37538495D01*
X91385839Y37668427D01*
X91346975Y37712743D01*
X91332964Y37770000D01*
X91346975Y37827257D01*
X91385839Y37871574D01*
X91571401Y38001505D01*
X91738495Y38168599D01*
X91874035Y38362170D01*
X91973903Y38576337D01*
X92035063Y38804592D01*
X92055659Y39040000D01*
X92035063Y39275408D01*
X91973903Y39503663D01*
X91874035Y39717829D01*
X91738495Y39911401D01*
X91571401Y40078495D01*
X91385839Y40208427D01*
X91346975Y40252743D01*
X91332964Y40310000D01*
X91346975Y40367257D01*
X91385839Y40411574D01*
X91571401Y40541505D01*
X91738495Y40708599D01*
X91874035Y40902170D01*
X91973903Y41116337D01*
X92035063Y41344592D01*
X92055659Y41580000D01*
X92035063Y41815408D01*
X91973903Y42043663D01*
X91874035Y42257829D01*
X91738495Y42451401D01*
X91571401Y42618495D01*
X91385839Y42748427D01*
X91346975Y42792743D01*
X91332964Y42850000D01*
X91346975Y42907257D01*
X91385839Y42951574D01*
X91571401Y43081505D01*
X91738495Y43248599D01*
X91874035Y43442170D01*
X91973903Y43656337D01*
X92035063Y43884592D01*
X92055659Y44120000D01*
X92035063Y44355408D01*
X91973903Y44583663D01*
X91874035Y44797829D01*
X91738495Y44991401D01*
X91571401Y45158495D01*
X91385839Y45288427D01*
X91346975Y45332743D01*
X91332964Y45390000D01*
X91346975Y45447257D01*
X91385839Y45491574D01*
X91571401Y45621505D01*
X91738495Y45788599D01*
X91874035Y45982170D01*
X91973903Y46196337D01*
X92035063Y46424592D01*
X92055659Y46660000D01*
X92035063Y46895408D01*
X91973903Y47123663D01*
X91973567Y47124384D01*
X91973302Y47125906D01*
X91971095Y47134143D01*
X91971834Y47134342D01*
X91962470Y47188148D01*
X91985013Y47248817D01*
X92035053Y47289863D01*
X92059808Y47301004D01*
X92066673Y47303848D01*
X92122930Y47325182D01*
X92131270Y47330940D01*
X92150819Y47341965D01*
X92160057Y47346122D01*
X92207413Y47383225D01*
X92213420Y47387645D01*
X92262929Y47421817D01*
X92302823Y47466850D01*
X92307924Y47472269D01*
X93587731Y48752076D01*
X93593150Y48757177D01*
X93638183Y48797071D01*
X93672377Y48846611D01*
X93676770Y48852581D01*
X93713878Y48899944D01*
X93718035Y48909182D01*
X93729061Y48928732D01*
X93734818Y48937070D01*
X93756152Y48993326D01*
X93758994Y49000189D01*
X93783695Y49055069D01*
X93785522Y49065044D01*
X93791549Y49086661D01*
X93795140Y49096128D01*
X93802387Y49155821D01*
X93803514Y49163223D01*
X93814358Y49222394D01*
X93810726Y49282434D01*
X93810500Y49289921D01*
X93810500Y60065325D01*
X94295747Y60065325D01*
X94303663Y59858838D01*
X94305749Y59804407D01*
X94330790Y59675287D01*
X94355463Y59548070D01*
X94443719Y59302336D01*
X94568460Y59072940D01*
X94726749Y58865285D01*
X94914887Y58684221D01*
X95128453Y58534003D01*
X95128456Y58534001D01*
X95311376Y58443431D01*
X95362453Y58418141D01*
X95611391Y58339360D01*
X95611392Y58339360D01*
X95611395Y58339359D01*
X95869445Y58299500D01*
X96065177Y58299500D01*
X96065179Y58299500D01*
X96089536Y58301371D01*
X96260344Y58314484D01*
X96514586Y58373979D01*
X96733297Y58462127D01*
X96756762Y58471584D01*
X96756764Y58471586D01*
X96756766Y58471586D01*
X96981208Y58605018D01*
X97182652Y58771148D01*
X97356375Y58966080D01*
X97498306Y59185247D01*
X97564140Y59332102D01*
X97605118Y59423510D01*
X97674306Y59675284D01*
X97674307Y59675287D01*
X97704252Y59934675D01*
X97694251Y60195593D01*
X97644538Y60451927D01*
X97556279Y60697668D01*
X97431541Y60927057D01*
X97431539Y60927061D01*
X97273250Y61134716D01*
X97085112Y61315780D01*
X96871546Y61465998D01*
X96637546Y61581860D01*
X96388608Y61660641D01*
X96227562Y61685516D01*
X96130555Y61700500D01*
X95934823Y61700500D01*
X95934821Y61700500D01*
X95739656Y61685516D01*
X95485412Y61626021D01*
X95243237Y61528417D01*
X95018791Y61394983D01*
X94817346Y61228852D01*
X94643622Y61033918D01*
X94501693Y60814753D01*
X94394881Y60576491D01*
X94325693Y60324717D01*
X94295747Y60065325D01*
X93810500Y60065325D01*
X93810500Y62818215D01*
X93823288Y62873059D01*
X93859014Y62916591D01*
X93910309Y62939832D01*
X93966593Y62937990D01*
X94074525Y62909070D01*
X94164592Y62884937D01*
X94400000Y62864341D01*
X94635408Y62884937D01*
X94863663Y62946097D01*
X95077830Y63045965D01*
X95271401Y63181505D01*
X95438495Y63348599D01*
X95574035Y63542170D01*
X95673903Y63756337D01*
X95735063Y63984592D01*
X95755659Y64220000D01*
X95735063Y64455408D01*
X95673903Y64683663D01*
X95574035Y64897829D01*
X95438495Y65091401D01*
X95271401Y65258495D01*
X95085839Y65388427D01*
X95046974Y65432745D01*
X95032964Y65490001D01*
X95046975Y65547258D01*
X95085837Y65591572D01*
X95271401Y65721505D01*
X95438495Y65888599D01*
X95574035Y66082170D01*
X95673903Y66296337D01*
X95735063Y66524592D01*
X95755659Y66760000D01*
X95735063Y66995408D01*
X95673903Y67223663D01*
X95574035Y67437829D01*
X95438495Y67631401D01*
X95271401Y67798495D01*
X95077830Y67934035D01*
X94863663Y68033903D01*
X94802501Y68050291D01*
X94635407Y68095064D01*
X94400000Y68115660D01*
X94164592Y68095064D01*
X93936336Y68033903D01*
X93722170Y67934035D01*
X93528598Y67798495D01*
X93361505Y67631402D01*
X93231575Y67445841D01*
X93187257Y67406975D01*
X93130000Y67392964D01*
X93072743Y67406975D01*
X93028425Y67445841D01*
X92898494Y67631402D01*
X92731404Y67798492D01*
X92731401Y67798495D01*
X92537830Y67934035D01*
X92323663Y68033903D01*
X92262501Y68050291D01*
X92095407Y68095064D01*
X91860000Y68115660D01*
X91624592Y68095064D01*
X91396336Y68033903D01*
X91182170Y67934035D01*
X90988598Y67798495D01*
X90821505Y67631402D01*
X90691575Y67445841D01*
X90647257Y67406975D01*
X90590000Y67392964D01*
X90532743Y67406975D01*
X90488425Y67445841D01*
X90358494Y67631402D01*
X90191404Y67798492D01*
X90191401Y67798495D01*
X89997830Y67934035D01*
X89783663Y68033903D01*
X89722501Y68050291D01*
X89555407Y68095064D01*
X89320000Y68115660D01*
X89084592Y68095064D01*
X88856336Y68033903D01*
X88642170Y67934035D01*
X88448598Y67798495D01*
X88281505Y67631402D01*
X88151575Y67445841D01*
X88107257Y67406975D01*
X88050000Y67392964D01*
X87992743Y67406975D01*
X87948425Y67445841D01*
X87818494Y67631402D01*
X87651404Y67798492D01*
X87651401Y67798495D01*
X87457830Y67934035D01*
X87243663Y68033903D01*
X87182501Y68050291D01*
X87015407Y68095064D01*
X86780000Y68115660D01*
X86544592Y68095064D01*
X86316336Y68033903D01*
X86102170Y67934035D01*
X85908598Y67798495D01*
X85741505Y67631402D01*
X85611575Y67445841D01*
X85567257Y67406975D01*
X85510000Y67392964D01*
X85452743Y67406975D01*
X85408425Y67445841D01*
X85278494Y67631402D01*
X85111404Y67798492D01*
X85111401Y67798495D01*
X84917830Y67934035D01*
X84703663Y68033903D01*
X84642501Y68050291D01*
X84475407Y68095064D01*
X84240000Y68115660D01*
X84004592Y68095064D01*
X83776336Y68033903D01*
X83562170Y67934035D01*
X83368598Y67798495D01*
X83201505Y67631402D01*
X83071575Y67445841D01*
X83027257Y67406975D01*
X82970000Y67392964D01*
X82912743Y67406975D01*
X82868425Y67445841D01*
X82738494Y67631402D01*
X82571404Y67798492D01*
X82571401Y67798495D01*
X82377830Y67934035D01*
X82163663Y68033903D01*
X82102501Y68050291D01*
X81935407Y68095064D01*
X81700000Y68115660D01*
X81464592Y68095064D01*
X81236336Y68033903D01*
X81022170Y67934035D01*
X80828598Y67798495D01*
X80661505Y67631402D01*
X80531575Y67445841D01*
X80487257Y67406975D01*
X80430000Y67392964D01*
X80372743Y67406975D01*
X80328425Y67445841D01*
X80198494Y67631402D01*
X80031404Y67798492D01*
X80031401Y67798495D01*
X79837830Y67934035D01*
X79623663Y68033903D01*
X79562501Y68050291D01*
X79395407Y68095064D01*
X79160000Y68115660D01*
X78924592Y68095064D01*
X78696336Y68033903D01*
X78482170Y67934035D01*
X78288598Y67798495D01*
X78121505Y67631402D01*
X77991575Y67445841D01*
X77947257Y67406975D01*
X77890000Y67392964D01*
X77832743Y67406975D01*
X77788425Y67445841D01*
X77658494Y67631402D01*
X77491404Y67798492D01*
X77491401Y67798495D01*
X77297830Y67934035D01*
X77083663Y68033903D01*
X77022501Y68050291D01*
X76855407Y68095064D01*
X76620000Y68115660D01*
X76384592Y68095064D01*
X76156336Y68033903D01*
X75942170Y67934035D01*
X75748598Y67798495D01*
X75581505Y67631402D01*
X75451575Y67445841D01*
X75407257Y67406975D01*
X75350000Y67392964D01*
X75292743Y67406975D01*
X75248425Y67445841D01*
X75118494Y67631402D01*
X74951404Y67798492D01*
X74951401Y67798495D01*
X74757830Y67934035D01*
X74543663Y68033903D01*
X74482501Y68050291D01*
X74315407Y68095064D01*
X74080000Y68115660D01*
X73844592Y68095064D01*
X73616336Y68033903D01*
X73402170Y67934035D01*
X73208598Y67798495D01*
X73041508Y67631405D01*
X73041505Y67631402D01*
X73041505Y67631401D01*
X72911271Y67445406D01*
X72911270Y67445405D01*
X72866952Y67406540D01*
X72809695Y67392529D01*
X72752438Y67406540D01*
X72708120Y67445405D01*
X72654925Y67521374D01*
X72654925Y67521375D01*
X71893553Y66760000D01*
X71893553Y66759999D01*
X72654925Y65998627D01*
X72708119Y66074595D01*
X72752437Y66113461D01*
X72809694Y66127472D01*
X72866951Y66113461D01*
X72911267Y66074598D01*
X73041505Y65888599D01*
X73208599Y65721505D01*
X73394160Y65591574D01*
X73433024Y65547257D01*
X73447035Y65490000D01*
X73433024Y65432743D01*
X73394159Y65388425D01*
X73208595Y65258492D01*
X73041508Y65091405D01*
X73041505Y65091402D01*
X73041505Y65091401D01*
X72911271Y64905406D01*
X72911270Y64905405D01*
X72866952Y64866540D01*
X72809695Y64852529D01*
X72752438Y64866540D01*
X72708120Y64905405D01*
X72654925Y64981374D01*
X72654925Y64981375D01*
X71893553Y64220000D01*
X71893553Y64219999D01*
X72654925Y63458627D01*
X72708119Y63534595D01*
X72752437Y63573461D01*
X72809694Y63587472D01*
X72866951Y63573461D01*
X72911267Y63534598D01*
X73041505Y63348599D01*
X73208599Y63181505D01*
X73402170Y63045965D01*
X73616337Y62946097D01*
X73844592Y62884937D01*
X74080000Y62864341D01*
X74315408Y62884937D01*
X74543663Y62946097D01*
X74757830Y63045965D01*
X74951401Y63181505D01*
X75118495Y63348599D01*
X75248426Y63534161D01*
X75292743Y63573025D01*
X75350000Y63587036D01*
X75407257Y63573025D01*
X75451573Y63534161D01*
X75581505Y63348599D01*
X75748599Y63181505D01*
X75942170Y63045965D01*
X76156337Y62946097D01*
X76384592Y62884937D01*
X76620000Y62864341D01*
X76855408Y62884937D01*
X77083663Y62946097D01*
X77297830Y63045965D01*
X77491401Y63181505D01*
X77658495Y63348599D01*
X77788426Y63534161D01*
X77832743Y63573025D01*
X77890000Y63587036D01*
X77947257Y63573025D01*
X77991573Y63534161D01*
X78121505Y63348599D01*
X78288599Y63181505D01*
X78482170Y63045965D01*
X78696337Y62946097D01*
X78924592Y62884937D01*
X79160000Y62864341D01*
X79395408Y62884937D01*
X79623663Y62946097D01*
X79837830Y63045965D01*
X80031401Y63181505D01*
X80198495Y63348599D01*
X80328426Y63534161D01*
X80372743Y63573025D01*
X80430000Y63587036D01*
X80487257Y63573025D01*
X80531573Y63534161D01*
X80661505Y63348599D01*
X80828599Y63181505D01*
X81022170Y63045965D01*
X81236337Y62946097D01*
X81464592Y62884937D01*
X81700000Y62864341D01*
X81935408Y62884937D01*
X82163663Y62946097D01*
X82377830Y63045965D01*
X82571401Y63181505D01*
X82738495Y63348599D01*
X82868426Y63534161D01*
X82912743Y63573025D01*
X82970000Y63587036D01*
X83027257Y63573025D01*
X83071573Y63534161D01*
X83201505Y63348599D01*
X83368599Y63181505D01*
X83562170Y63045965D01*
X83776337Y62946097D01*
X84004592Y62884937D01*
X84240000Y62864341D01*
X84475408Y62884937D01*
X84703663Y62946097D01*
X84917830Y63045965D01*
X85002248Y63105075D01*
X86018625Y63105075D01*
X86102420Y63046401D01*
X86316507Y62946570D01*
X86544681Y62885431D01*
X86780000Y62864843D01*
X87015318Y62885431D01*
X87243492Y62946570D01*
X87457576Y63046400D01*
X87541373Y63105075D01*
X86780000Y63866447D01*
X86018625Y63105075D01*
X85002248Y63105075D01*
X85111401Y63181505D01*
X85278495Y63348599D01*
X85408732Y63534598D01*
X85453048Y63573461D01*
X85510305Y63587472D01*
X85567562Y63573461D01*
X85611880Y63534595D01*
X85665073Y63458627D01*
X86426447Y64219999D01*
X86426447Y64220000D01*
X85665073Y64981374D01*
X85611881Y64905406D01*
X85567563Y64866540D01*
X85510306Y64852529D01*
X85453048Y64866540D01*
X85408730Y64905405D01*
X85278495Y65091401D01*
X85111401Y65258495D01*
X84925839Y65388427D01*
X84886974Y65432745D01*
X84872964Y65490001D01*
X84886975Y65547258D01*
X84925837Y65591572D01*
X85111401Y65721505D01*
X85278495Y65888599D01*
X85408426Y66074161D01*
X85452743Y66113025D01*
X85510000Y66127036D01*
X85567257Y66113025D01*
X85611573Y66074161D01*
X85741505Y65888599D01*
X85908599Y65721505D01*
X86094597Y65591268D01*
X86133460Y65546952D01*
X86147471Y65489694D01*
X86133460Y65432437D01*
X86094594Y65388119D01*
X86018626Y65334927D01*
X86780000Y64573553D01*
X86780001Y64573553D01*
X87541373Y65334927D01*
X87541373Y65334928D01*
X87465405Y65388120D01*
X87426539Y65432438D01*
X87412528Y65489695D01*
X87426539Y65546952D01*
X87465402Y65591268D01*
X87651401Y65721505D01*
X87818495Y65888599D01*
X87948426Y66074161D01*
X87992743Y66113025D01*
X88050000Y66127036D01*
X88107257Y66113025D01*
X88151573Y66074161D01*
X88281505Y65888599D01*
X88448599Y65721505D01*
X88634160Y65591574D01*
X88673024Y65547257D01*
X88687035Y65490000D01*
X88673024Y65432743D01*
X88634159Y65388425D01*
X88448595Y65258492D01*
X88281508Y65091405D01*
X88281505Y65091402D01*
X88281505Y65091401D01*
X88151271Y64905406D01*
X88151270Y64905405D01*
X88106952Y64866540D01*
X88049695Y64852529D01*
X87992438Y64866540D01*
X87948120Y64905405D01*
X87894925Y64981374D01*
X87894925Y64981375D01*
X87133553Y64220000D01*
X87894925Y63458627D01*
X87948119Y63534595D01*
X87992437Y63573461D01*
X88049694Y63587472D01*
X88106951Y63573461D01*
X88151267Y63534598D01*
X88281505Y63348599D01*
X88448599Y63181505D01*
X88642170Y63045965D01*
X88856337Y62946097D01*
X89053045Y62893390D01*
X89084592Y62884937D01*
X89319999Y62864341D01*
X89319999Y62864342D01*
X89320000Y62864341D01*
X89460026Y62876592D01*
X89528088Y62863055D01*
X89578218Y62815069D01*
X89594716Y62747663D01*
X89576190Y62693073D01*
X89577483Y62692470D01*
X89480425Y62484332D01*
X89423792Y62272975D01*
X89404722Y62055000D01*
X89423792Y61837026D01*
X89471054Y61660641D01*
X89480425Y61625670D01*
X89572898Y61427361D01*
X89698402Y61248123D01*
X89853123Y61093402D01*
X90032361Y60967898D01*
X90230670Y60875425D01*
X90237183Y60873680D01*
X90292770Y60841587D01*
X90324863Y60786000D01*
X90324865Y60721814D01*
X90292773Y60666226D01*
X90245864Y60639142D01*
X90246169Y60638488D01*
X90238704Y60635008D01*
X90237187Y60634131D01*
X90236336Y60633904D01*
X90022170Y60534035D01*
X89828601Y60398497D01*
X89706673Y60276569D01*
X89653926Y60245274D01*
X89592634Y60243085D01*
X89537789Y60270538D01*
X89502810Y60320918D01*
X89495658Y60340093D01*
X89453796Y60452331D01*
X89367546Y60567546D01*
X89252331Y60653796D01*
X89117483Y60704091D01*
X89057873Y60710500D01*
X89057869Y60710500D01*
X87262130Y60710500D01*
X87202515Y60704091D01*
X87067669Y60653796D01*
X86952454Y60567546D01*
X86866204Y60452332D01*
X86815909Y60317484D01*
X86809500Y60257870D01*
X86809500Y58462131D01*
X86815909Y58402516D01*
X86826553Y58373979D01*
X86866204Y58267669D01*
X86952454Y58152454D01*
X87067669Y58066204D01*
X87157383Y58032743D01*
X87199082Y58017190D01*
X87249462Y57982211D01*
X87276915Y57927366D01*
X87274726Y57866074D01*
X87243431Y57813327D01*
X87121503Y57691399D01*
X86985965Y57497830D01*
X86886097Y57283664D01*
X86824936Y57055408D01*
X86804340Y56820000D01*
X86824936Y56584593D01*
X86869709Y56417499D01*
X86886097Y56356337D01*
X86985965Y56142170D01*
X87121505Y55948599D01*
X87288599Y55781505D01*
X87474160Y55651574D01*
X87513024Y55607257D01*
X87527035Y55550000D01*
X87513024Y55492743D01*
X87474159Y55448425D01*
X87288595Y55318492D01*
X87121505Y55151402D01*
X86985965Y54957830D01*
X86886097Y54743664D01*
X86824936Y54515408D01*
X86804340Y54280001D01*
X86824936Y54044593D01*
X86869709Y53877499D01*
X86886097Y53816337D01*
X86985965Y53602170D01*
X87121505Y53408599D01*
X87288599Y53241505D01*
X87474160Y53111574D01*
X87513024Y53067257D01*
X87527035Y53010000D01*
X87513024Y52952743D01*
X87474159Y52908425D01*
X87288595Y52778492D01*
X87121505Y52611402D01*
X86985965Y52417830D01*
X86886097Y52203664D01*
X86824936Y51975408D01*
X86804340Y51740000D01*
X86824936Y51504593D01*
X86850123Y51410593D01*
X86848930Y51342245D01*
X86811699Y51284916D01*
X86749745Y51256027D01*
X86681897Y51264358D01*
X86628773Y51307377D01*
X86616083Y51325500D01*
X86541598Y51431877D01*
X86386877Y51586598D01*
X86207639Y51712102D01*
X86116205Y51754739D01*
X86009331Y51804575D01*
X85797974Y51861208D01*
X85580000Y51880278D01*
X85362025Y51861208D01*
X85150668Y51804575D01*
X84952361Y51712102D01*
X84773122Y51586598D01*
X84618405Y51431881D01*
X84618402Y51431878D01*
X84618402Y51431877D01*
X84580938Y51378375D01*
X84536623Y51339511D01*
X84479366Y51325500D01*
X50361519Y51325500D01*
X50314066Y51334939D01*
X50273838Y51361819D01*
X49416819Y52218838D01*
X49389939Y52259066D01*
X49380500Y52306519D01*
X49380500Y58864481D01*
X49394015Y58920776D01*
X49431615Y58964799D01*
X49485102Y58986954D01*
X49542818Y58982412D01*
X49592181Y58952162D01*
X50777058Y57767285D01*
X50782178Y57761847D01*
X50822071Y57716817D01*
X50822072Y57716816D01*
X50871569Y57682651D01*
X50877602Y57678212D01*
X50924943Y57641123D01*
X50934174Y57636969D01*
X50953726Y57625942D01*
X50962070Y57620182D01*
X51018322Y57598849D01*
X51025228Y57595988D01*
X51080068Y57571306D01*
X51090030Y57569481D01*
X51111650Y57563454D01*
X51121125Y57559861D01*
X51121128Y57559860D01*
X51180856Y57552608D01*
X51188201Y57551491D01*
X51247394Y57540643D01*
X51307421Y57544274D01*
X51314909Y57544500D01*
X81939366Y57544500D01*
X81996623Y57530489D01*
X82040938Y57491626D01*
X82078402Y57438123D01*
X82233123Y57283402D01*
X82412361Y57157898D01*
X82610670Y57065425D01*
X82822023Y57008793D01*
X83040000Y56989723D01*
X83257977Y57008793D01*
X83469330Y57065425D01*
X83667639Y57157898D01*
X83846877Y57283402D01*
X84001598Y57438123D01*
X84127102Y57617361D01*
X84219575Y57815670D01*
X84276207Y58027023D01*
X84295277Y58245000D01*
X84276207Y58462977D01*
X84219575Y58674330D01*
X84127102Y58872638D01*
X84001598Y59051877D01*
X83846877Y59206598D01*
X83667639Y59332102D01*
X83576205Y59374739D01*
X83469331Y59424575D01*
X83257974Y59481208D01*
X83040000Y59500278D01*
X82822025Y59481208D01*
X82610668Y59424575D01*
X82412361Y59332102D01*
X82233122Y59206598D01*
X82078405Y59051881D01*
X82078402Y59051878D01*
X82078402Y59051877D01*
X82040938Y58998375D01*
X81996623Y58959511D01*
X81939366Y58945500D01*
X51631519Y58945500D01*
X51584066Y58954939D01*
X51543838Y58981819D01*
X50666819Y59858838D01*
X50639939Y59899066D01*
X50630500Y59946519D01*
X50630500Y62818215D01*
X50643288Y62873059D01*
X50679014Y62916591D01*
X50730309Y62939832D01*
X50786593Y62937990D01*
X50894525Y62909070D01*
X50984592Y62884937D01*
X51220000Y62864341D01*
X51455408Y62884937D01*
X51683663Y62946097D01*
X51897830Y63045965D01*
X52091401Y63181505D01*
X52258495Y63348599D01*
X52388426Y63534161D01*
X52432743Y63573025D01*
X52490000Y63587036D01*
X52547257Y63573025D01*
X52591573Y63534161D01*
X52721505Y63348599D01*
X52888599Y63181505D01*
X53082170Y63045965D01*
X53296337Y62946097D01*
X53524592Y62884937D01*
X53760000Y62864341D01*
X53995408Y62884937D01*
X54223663Y62946097D01*
X54437830Y63045965D01*
X54631401Y63181505D01*
X54798495Y63348599D01*
X54928426Y63534161D01*
X54972743Y63573025D01*
X55030000Y63587036D01*
X55087257Y63573025D01*
X55131573Y63534161D01*
X55261505Y63348599D01*
X55428599Y63181505D01*
X55622170Y63045965D01*
X55836337Y62946097D01*
X56064592Y62884937D01*
X56300000Y62864341D01*
X56535408Y62884937D01*
X56763663Y62946097D01*
X56977830Y63045965D01*
X57171401Y63181505D01*
X57338495Y63348599D01*
X57468426Y63534161D01*
X57512743Y63573025D01*
X57570000Y63587036D01*
X57627257Y63573025D01*
X57671573Y63534161D01*
X57801505Y63348599D01*
X57968599Y63181505D01*
X58162170Y63045965D01*
X58376337Y62946097D01*
X58604592Y62884937D01*
X58840000Y62864341D01*
X59075408Y62884937D01*
X59303663Y62946097D01*
X59517830Y63045965D01*
X59711401Y63181505D01*
X59878495Y63348599D01*
X60008426Y63534161D01*
X60052743Y63573025D01*
X60110000Y63587036D01*
X60167257Y63573025D01*
X60211573Y63534161D01*
X60341505Y63348599D01*
X60508599Y63181505D01*
X60702170Y63045965D01*
X60916337Y62946097D01*
X61144592Y62884937D01*
X61380000Y62864341D01*
X61615408Y62884937D01*
X61843663Y62946097D01*
X62057830Y63045965D01*
X62251401Y63181505D01*
X62418495Y63348599D01*
X62548426Y63534161D01*
X62592743Y63573025D01*
X62650000Y63587036D01*
X62707257Y63573025D01*
X62751573Y63534161D01*
X62881505Y63348599D01*
X63048599Y63181505D01*
X63242170Y63045965D01*
X63456337Y62946097D01*
X63684592Y62884937D01*
X63920000Y62864341D01*
X64155408Y62884937D01*
X64383663Y62946097D01*
X64597830Y63045965D01*
X64791401Y63181505D01*
X64958495Y63348599D01*
X65088426Y63534161D01*
X65132743Y63573025D01*
X65190000Y63587036D01*
X65247257Y63573025D01*
X65291573Y63534161D01*
X65421505Y63348599D01*
X65588599Y63181505D01*
X65782170Y63045965D01*
X65996337Y62946097D01*
X66224592Y62884937D01*
X66460000Y62864341D01*
X66695408Y62884937D01*
X66923663Y62946097D01*
X67137830Y63045965D01*
X67222248Y63105075D01*
X68238625Y63105075D01*
X68322420Y63046401D01*
X68536507Y62946570D01*
X68764681Y62885431D01*
X69000000Y62864843D01*
X69235318Y62885431D01*
X69463492Y62946570D01*
X69677576Y63046400D01*
X69761373Y63105075D01*
X70778625Y63105075D01*
X70862420Y63046401D01*
X71076507Y62946570D01*
X71304681Y62885431D01*
X71540000Y62864843D01*
X71775318Y62885431D01*
X72003492Y62946570D01*
X72217576Y63046400D01*
X72301373Y63105075D01*
X71540000Y63866447D01*
X70778625Y63105075D01*
X69761373Y63105075D01*
X69000000Y63866447D01*
X68238625Y63105075D01*
X67222248Y63105075D01*
X67331401Y63181505D01*
X67498495Y63348599D01*
X67628732Y63534598D01*
X67673048Y63573461D01*
X67730305Y63587472D01*
X67787562Y63573461D01*
X67831880Y63534595D01*
X67885073Y63458627D01*
X68646447Y64219999D01*
X69353553Y64219999D01*
X70114925Y63458627D01*
X70168424Y63535031D01*
X70212742Y63573897D01*
X70269999Y63587908D01*
X70327256Y63573897D01*
X70371574Y63535031D01*
X70425072Y63458627D01*
X70425073Y63458627D01*
X71186447Y64219999D01*
X71186447Y64220000D01*
X70425072Y64981375D01*
X70425072Y64981374D01*
X70371574Y64904970D01*
X70327256Y64866104D01*
X70269999Y64852093D01*
X70212742Y64866104D01*
X70168424Y64904970D01*
X70114925Y64981374D01*
X70114925Y64981375D01*
X69353553Y64220000D01*
X69353553Y64219999D01*
X68646447Y64219999D01*
X68646447Y64220000D01*
X67885073Y64981374D01*
X67831881Y64905406D01*
X67787563Y64866540D01*
X67730306Y64852529D01*
X67673048Y64866540D01*
X67628730Y64905405D01*
X67498495Y65091401D01*
X67331401Y65258495D01*
X67145839Y65388427D01*
X67106974Y65432745D01*
X67092964Y65490001D01*
X67106975Y65547258D01*
X67145837Y65591572D01*
X67331401Y65721505D01*
X67498495Y65888599D01*
X67628426Y66074161D01*
X67672743Y66113025D01*
X67730000Y66127036D01*
X67787257Y66113025D01*
X67831573Y66074161D01*
X67961505Y65888599D01*
X68128599Y65721505D01*
X68314597Y65591268D01*
X68353460Y65546952D01*
X68367471Y65489694D01*
X68353460Y65432437D01*
X68314594Y65388119D01*
X68238626Y65334927D01*
X69000000Y64573553D01*
X69000001Y64573553D01*
X69761373Y65334927D01*
X69761373Y65334928D01*
X70778625Y65334928D01*
X71540000Y64573553D01*
X71540001Y64573553D01*
X72301373Y65334927D01*
X72301373Y65334928D01*
X72224969Y65388426D01*
X72186103Y65432744D01*
X72172092Y65490001D01*
X72186103Y65547258D01*
X72224969Y65591576D01*
X72301373Y65645075D01*
X71540000Y66406447D01*
X70778625Y65645075D01*
X70855031Y65591575D01*
X70893897Y65547256D01*
X70907907Y65489999D01*
X70893896Y65432742D01*
X70855029Y65388424D01*
X70778625Y65334928D01*
X69761373Y65334928D01*
X69685405Y65388120D01*
X69646539Y65432438D01*
X69632528Y65489695D01*
X69646539Y65546952D01*
X69685402Y65591268D01*
X69871401Y65721505D01*
X70038495Y65888599D01*
X70168732Y66074598D01*
X70213048Y66113461D01*
X70270305Y66127472D01*
X70327562Y66113461D01*
X70371880Y66074595D01*
X70425073Y65998627D01*
X71186447Y66759999D01*
X71186447Y66760000D01*
X70425073Y67521374D01*
X70371881Y67445406D01*
X70327563Y67406540D01*
X70270306Y67392529D01*
X70213048Y67406540D01*
X70168730Y67445405D01*
X70038495Y67631401D01*
X69871401Y67798495D01*
X69762243Y67874928D01*
X70778625Y67874928D01*
X71540000Y67113553D01*
X71540001Y67113553D01*
X72301373Y67874927D01*
X72301373Y67874928D01*
X72217580Y67933600D01*
X72003492Y68033431D01*
X71775318Y68094570D01*
X71540000Y68115158D01*
X71304681Y68094570D01*
X71076507Y68033431D01*
X70862422Y67933601D01*
X70778625Y67874928D01*
X69762243Y67874928D01*
X69677830Y67934035D01*
X69463663Y68033903D01*
X69402501Y68050291D01*
X69235407Y68095064D01*
X69000000Y68115660D01*
X68764592Y68095064D01*
X68536336Y68033903D01*
X68322170Y67934035D01*
X68128598Y67798495D01*
X67961505Y67631402D01*
X67831575Y67445841D01*
X67787257Y67406975D01*
X67730000Y67392964D01*
X67672743Y67406975D01*
X67628425Y67445841D01*
X67498494Y67631402D01*
X67331404Y67798492D01*
X67331401Y67798495D01*
X67137830Y67934035D01*
X66923663Y68033903D01*
X66862501Y68050291D01*
X66695407Y68095064D01*
X66460000Y68115660D01*
X66224592Y68095064D01*
X65996336Y68033903D01*
X65782170Y67934035D01*
X65588598Y67798495D01*
X65421505Y67631402D01*
X65291575Y67445841D01*
X65247257Y67406975D01*
X65190000Y67392964D01*
X65132743Y67406975D01*
X65088425Y67445841D01*
X64958494Y67631402D01*
X64791404Y67798492D01*
X64791401Y67798495D01*
X64597830Y67934035D01*
X64383663Y68033903D01*
X64322501Y68050291D01*
X64155407Y68095064D01*
X63920000Y68115660D01*
X63684592Y68095064D01*
X63456336Y68033903D01*
X63242170Y67934035D01*
X63048598Y67798495D01*
X62881505Y67631402D01*
X62751575Y67445841D01*
X62707257Y67406975D01*
X62650000Y67392964D01*
X62592743Y67406975D01*
X62548425Y67445841D01*
X62418494Y67631402D01*
X62251404Y67798492D01*
X62251401Y67798495D01*
X62057830Y67934035D01*
X61843663Y68033903D01*
X61782501Y68050291D01*
X61615407Y68095064D01*
X61380000Y68115660D01*
X61144592Y68095064D01*
X60916336Y68033903D01*
X60702170Y67934035D01*
X60508598Y67798495D01*
X60341505Y67631402D01*
X60211575Y67445841D01*
X60167257Y67406975D01*
X60110000Y67392964D01*
X60052743Y67406975D01*
X60008425Y67445841D01*
X59878494Y67631402D01*
X59711404Y67798492D01*
X59711401Y67798495D01*
X59517830Y67934035D01*
X59303663Y68033903D01*
X59242501Y68050291D01*
X59075407Y68095064D01*
X58840000Y68115660D01*
X58604592Y68095064D01*
X58376336Y68033903D01*
X58162170Y67934035D01*
X57968598Y67798495D01*
X57801505Y67631402D01*
X57671575Y67445841D01*
X57627257Y67406975D01*
X57570000Y67392964D01*
X57512743Y67406975D01*
X57468425Y67445841D01*
X57338494Y67631402D01*
X57171404Y67798492D01*
X57171401Y67798495D01*
X56977830Y67934035D01*
X56763663Y68033903D01*
X56702501Y68050291D01*
X56535407Y68095064D01*
X56300000Y68115660D01*
X56064592Y68095064D01*
X55836336Y68033903D01*
X55622170Y67934035D01*
X55428598Y67798495D01*
X55261505Y67631402D01*
X55131575Y67445841D01*
X55087257Y67406975D01*
X55030000Y67392964D01*
X54972743Y67406975D01*
X54928425Y67445841D01*
X54798494Y67631402D01*
X54631404Y67798492D01*
X54631401Y67798495D01*
X54437830Y67934035D01*
X54223663Y68033903D01*
X54162501Y68050291D01*
X53995407Y68095064D01*
X53760000Y68115660D01*
X53524592Y68095064D01*
X53296336Y68033903D01*
X53082170Y67934035D01*
X52888598Y67798495D01*
X52721505Y67631402D01*
X52591575Y67445841D01*
X52547257Y67406975D01*
X52490000Y67392964D01*
X52432743Y67406975D01*
X52388425Y67445841D01*
X52258494Y67631402D01*
X52091404Y67798492D01*
X52091401Y67798495D01*
X51897830Y67934035D01*
X51683663Y68033903D01*
X51622501Y68050291D01*
X51455407Y68095064D01*
X51220000Y68115660D01*
X50984592Y68095064D01*
X50756336Y68033903D01*
X50542170Y67934035D01*
X50348598Y67798495D01*
X50181505Y67631402D01*
X50051575Y67445841D01*
X50007257Y67406975D01*
X49950000Y67392964D01*
X49892743Y67406975D01*
X49848425Y67445841D01*
X49718494Y67631402D01*
X49551404Y67798492D01*
X49551401Y67798495D01*
X49357830Y67934035D01*
X49143663Y68033903D01*
X49082501Y68050291D01*
X48915407Y68095064D01*
X48680000Y68115660D01*
X48444592Y68095064D01*
X48216336Y68033903D01*
X48002170Y67934035D01*
X47808598Y67798495D01*
X47641505Y67631402D01*
X47511575Y67445841D01*
X47467257Y67406975D01*
X47410000Y67392964D01*
X47352743Y67406975D01*
X47308425Y67445841D01*
X47178494Y67631402D01*
X47011404Y67798492D01*
X47011401Y67798495D01*
X46817830Y67934035D01*
X46603663Y68033903D01*
X46542501Y68050291D01*
X46375407Y68095064D01*
X46140000Y68115660D01*
X45904592Y68095064D01*
X45676336Y68033903D01*
X45462170Y67934035D01*
X45268598Y67798495D01*
X45101505Y67631402D01*
X44971575Y67445841D01*
X44927257Y67406975D01*
X44870000Y67392964D01*
X44812743Y67406975D01*
X44768425Y67445841D01*
X44638494Y67631402D01*
X44471404Y67798492D01*
X44471401Y67798495D01*
X44277830Y67934035D01*
X44063663Y68033903D01*
X44002501Y68050291D01*
X43835407Y68095064D01*
X43600000Y68115660D01*
X43364592Y68095064D01*
X43136336Y68033903D01*
X42922170Y67934035D01*
X42728598Y67798495D01*
X42561505Y67631402D01*
X42431575Y67445841D01*
X42387257Y67406975D01*
X42330000Y67392964D01*
X42272743Y67406975D01*
X42228425Y67445841D01*
X42098494Y67631402D01*
X41931404Y67798492D01*
X41931401Y67798495D01*
X41737830Y67934035D01*
X41523663Y68033903D01*
X41462501Y68050291D01*
X41295407Y68095064D01*
X41060000Y68115660D01*
X40824592Y68095064D01*
X40596336Y68033903D01*
X40382170Y67934035D01*
X40188598Y67798495D01*
X40021505Y67631402D01*
X39891575Y67445841D01*
X39847257Y67406975D01*
X39790000Y67392964D01*
X39732743Y67406975D01*
X39688425Y67445841D01*
X39558494Y67631402D01*
X39391404Y67798492D01*
X39391401Y67798495D01*
X39197830Y67934035D01*
X38983663Y68033903D01*
X38922501Y68050291D01*
X38755407Y68095064D01*
X38520000Y68115660D01*
X38284592Y68095064D01*
X38056336Y68033903D01*
X37842170Y67934035D01*
X37648598Y67798495D01*
X37481505Y67631402D01*
X37351575Y67445841D01*
X37307257Y67406975D01*
X37250000Y67392964D01*
X37192743Y67406975D01*
X37148425Y67445841D01*
X37018494Y67631402D01*
X36851404Y67798492D01*
X36851401Y67798495D01*
X36657830Y67934035D01*
X36443663Y68033903D01*
X36382501Y68050291D01*
X36215407Y68095064D01*
X35980000Y68115660D01*
X35744592Y68095064D01*
X35516336Y68033903D01*
X35302170Y67934035D01*
X35108598Y67798495D01*
X34941508Y67631405D01*
X34941505Y67631402D01*
X34941505Y67631401D01*
X34811271Y67445406D01*
X34811270Y67445405D01*
X34766952Y67406540D01*
X34709695Y67392529D01*
X34652438Y67406540D01*
X34608120Y67445405D01*
X34554925Y67521374D01*
X34554925Y67521375D01*
X33793553Y66760000D01*
X33793553Y66759999D01*
X34554925Y65998627D01*
X34608119Y66074595D01*
X34652437Y66113461D01*
X34709694Y66127472D01*
X34766951Y66113461D01*
X34811267Y66074598D01*
X34941505Y65888599D01*
X35108599Y65721505D01*
X35294160Y65591574D01*
X35333024Y65547257D01*
X35347035Y65490000D01*
X35333024Y65432743D01*
X35294159Y65388425D01*
X35108595Y65258492D01*
X34941505Y65091402D01*
X34811575Y64905841D01*
X34767257Y64866975D01*
X34710000Y64852964D01*
X34652743Y64866975D01*
X34608425Y64905841D01*
X34478494Y65091402D01*
X34311404Y65258492D01*
X34311404Y65258493D01*
X34311401Y65258495D01*
X34125402Y65388733D01*
X34086539Y65433049D01*
X34072528Y65490306D01*
X34086539Y65547563D01*
X34125405Y65591881D01*
X34201373Y65645075D01*
X33440000Y66406447D01*
X32678625Y65645075D01*
X32754594Y65591881D01*
X32793460Y65547563D01*
X32807471Y65490306D01*
X32793461Y65433050D01*
X32754595Y65388731D01*
X32568595Y65258492D01*
X32401505Y65091402D01*
X32271575Y64905841D01*
X32227257Y64866975D01*
X32170000Y64852964D01*
X32112743Y64866975D01*
X32068425Y64905841D01*
X31938494Y65091402D01*
X31771404Y65258492D01*
X31771401Y65258495D01*
X31585839Y65388427D01*
X31546974Y65432745D01*
X31532964Y65490001D01*
X31546975Y65547258D01*
X31585837Y65591572D01*
X31771401Y65721505D01*
X31938495Y65888599D01*
X32068732Y66074598D01*
X32113048Y66113461D01*
X32170305Y66127472D01*
X32227562Y66113461D01*
X32271880Y66074595D01*
X32325073Y65998627D01*
X33086447Y66759999D01*
X33086447Y66760001D01*
X32325073Y67521374D01*
X32271881Y67445406D01*
X32227563Y67406540D01*
X32170306Y67392529D01*
X32113048Y67406540D01*
X32068730Y67445405D01*
X31938495Y67631401D01*
X31771401Y67798495D01*
X31662243Y67874928D01*
X32678625Y67874928D01*
X33440000Y67113553D01*
X33440001Y67113553D01*
X34201373Y67874927D01*
X34201373Y67874928D01*
X34117580Y67933600D01*
X33903492Y68033431D01*
X33675318Y68094570D01*
X33440000Y68115158D01*
X33204681Y68094570D01*
X32976507Y68033431D01*
X32762422Y67933601D01*
X32678625Y67874928D01*
X31662243Y67874928D01*
X31577830Y67934035D01*
X31363663Y68033903D01*
X31302501Y68050291D01*
X31135407Y68095064D01*
X30900000Y68115660D01*
X30664592Y68095064D01*
X30436336Y68033903D01*
X30222170Y67934035D01*
X30028598Y67798495D01*
X29861505Y67631402D01*
X29731575Y67445841D01*
X29687257Y67406975D01*
X29630000Y67392964D01*
X29572743Y67406975D01*
X29528425Y67445841D01*
X29398494Y67631402D01*
X29231404Y67798492D01*
X29231401Y67798495D01*
X29037830Y67934035D01*
X28823663Y68033903D01*
X28762501Y68050291D01*
X28595407Y68095064D01*
X28360000Y68115660D01*
X28124592Y68095064D01*
X27896336Y68033903D01*
X27682170Y67934035D01*
X27488598Y67798495D01*
X27321505Y67631402D01*
X27191575Y67445841D01*
X27147257Y67406975D01*
X27090000Y67392964D01*
X27032743Y67406975D01*
X26988425Y67445841D01*
X26858494Y67631402D01*
X26691404Y67798492D01*
X26691401Y67798495D01*
X26497830Y67934035D01*
X26283663Y68033903D01*
X26222501Y68050291D01*
X26055407Y68095064D01*
X25820000Y68115660D01*
X25584592Y68095064D01*
X25356336Y68033903D01*
X25142170Y67934035D01*
X24948598Y67798495D01*
X24781505Y67631402D01*
X24651575Y67445841D01*
X24607257Y67406975D01*
X24550000Y67392964D01*
X24492743Y67406975D01*
X24448425Y67445841D01*
X24318494Y67631402D01*
X24151404Y67798492D01*
X24151401Y67798495D01*
X23957830Y67934035D01*
X23743663Y68033903D01*
X23682501Y68050291D01*
X23515407Y68095064D01*
X23280000Y68115660D01*
X23044592Y68095064D01*
X22816336Y68033903D01*
X22602170Y67934035D01*
X22408598Y67798495D01*
X22241505Y67631402D01*
X22111575Y67445841D01*
X22067257Y67406975D01*
X22010000Y67392964D01*
X21952743Y67406975D01*
X21908425Y67445841D01*
X21778494Y67631402D01*
X21611404Y67798492D01*
X21611401Y67798495D01*
X21417830Y67934035D01*
X21203663Y68033903D01*
X21142501Y68050291D01*
X20975407Y68095064D01*
X20740000Y68115660D01*
X20504592Y68095064D01*
X20276336Y68033903D01*
X20062170Y67934035D01*
X19868598Y67798495D01*
X19701505Y67631402D01*
X19571575Y67445841D01*
X19527257Y67406975D01*
X19470000Y67392964D01*
X19412743Y67406975D01*
X19368425Y67445841D01*
X19238494Y67631402D01*
X19071404Y67798492D01*
X19071401Y67798495D01*
X18877830Y67934035D01*
X18663663Y68033903D01*
X18602501Y68050291D01*
X18435407Y68095064D01*
X18200000Y68115660D01*
X17964592Y68095064D01*
X17736336Y68033903D01*
X17522170Y67934035D01*
X17328598Y67798495D01*
X17161505Y67631402D01*
X17031575Y67445841D01*
X16987257Y67406975D01*
X16930000Y67392964D01*
X16872743Y67406975D01*
X16828425Y67445841D01*
X16698494Y67631402D01*
X16531404Y67798492D01*
X16531401Y67798495D01*
X16337830Y67934035D01*
X16123663Y68033903D01*
X16062501Y68050291D01*
X15895407Y68095064D01*
X15660000Y68115660D01*
X15424592Y68095064D01*
X15196336Y68033903D01*
X14982170Y67934035D01*
X14788598Y67798495D01*
X14621505Y67631402D01*
X14491575Y67445841D01*
X14447257Y67406975D01*
X14390000Y67392964D01*
X14332743Y67406975D01*
X14288425Y67445841D01*
X14158494Y67631402D01*
X13991404Y67798492D01*
X13991401Y67798495D01*
X13797830Y67934035D01*
X13583663Y68033903D01*
X13522501Y68050291D01*
X13355407Y68095064D01*
X13120000Y68115660D01*
X12884592Y68095064D01*
X12656336Y68033903D01*
X12442170Y67934035D01*
X12248598Y67798495D01*
X12081505Y67631402D01*
X11951575Y67445841D01*
X11907257Y67406975D01*
X11850000Y67392964D01*
X11792743Y67406975D01*
X11748425Y67445841D01*
X11618494Y67631402D01*
X11451404Y67798492D01*
X11451401Y67798495D01*
X11257830Y67934035D01*
X11043663Y68033903D01*
X10982501Y68050291D01*
X10815407Y68095064D01*
X10580000Y68115660D01*
X10344592Y68095064D01*
X10116336Y68033903D01*
X9902170Y67934035D01*
X9708598Y67798495D01*
X9541505Y67631402D01*
X9411575Y67445841D01*
X9367257Y67406975D01*
X9310000Y67392964D01*
X9252743Y67406975D01*
X9208425Y67445841D01*
X9078494Y67631402D01*
X8911404Y67798492D01*
X8911401Y67798495D01*
X8717830Y67934035D01*
X8503663Y68033903D01*
X8442501Y68050291D01*
X8275407Y68095064D01*
X8040000Y68115660D01*
X7804592Y68095064D01*
X7576336Y68033903D01*
X7362170Y67934035D01*
X7168598Y67798495D01*
X7001508Y67631405D01*
X7001505Y67631402D01*
X7001505Y67631401D01*
X6871271Y67445406D01*
X6871270Y67445405D01*
X6826952Y67406540D01*
X6769695Y67392529D01*
X6712438Y67406540D01*
X6668120Y67445405D01*
X6614925Y67521374D01*
X6614925Y67521375D01*
X5853553Y66760000D01*
X5853553Y66759999D01*
X6614925Y65998627D01*
X6668119Y66074595D01*
X6712437Y66113461D01*
X6769694Y66127472D01*
X6826951Y66113461D01*
X6871267Y66074598D01*
X7001505Y65888599D01*
X7168599Y65721505D01*
X7354160Y65591574D01*
X7393024Y65547257D01*
X7407035Y65490000D01*
X7393024Y65432743D01*
X7354159Y65388425D01*
X7168595Y65258492D01*
X7001508Y65091405D01*
X7001505Y65091402D01*
X7001505Y65091401D01*
X6871271Y64905406D01*
X6871270Y64905405D01*
X6826952Y64866540D01*
X6769695Y64852529D01*
X6712438Y64866540D01*
X6668120Y64905405D01*
X6614925Y64981374D01*
X6614925Y64981375D01*
X5853553Y64220000D01*
X5853553Y64219999D01*
X6614925Y63458627D01*
X6668119Y63534595D01*
X6712437Y63573461D01*
X6769694Y63587472D01*
X6826951Y63573461D01*
X6871267Y63534598D01*
X7001505Y63348599D01*
X7168599Y63181505D01*
X7362170Y63045965D01*
X7576337Y62946097D01*
X7804592Y62884937D01*
X8040000Y62864341D01*
X8275408Y62884937D01*
X8473406Y62937990D01*
X8529691Y62939832D01*
X8580986Y62916591D01*
X8616712Y62873059D01*
X8629500Y62818215D01*
X8629500Y40895624D01*
X8615489Y40838366D01*
X8576621Y40794047D01*
X8573119Y40791596D01*
X8418403Y40636879D01*
X8292898Y40457639D01*
X8200425Y40259332D01*
X8143792Y40047975D01*
X8124722Y39830001D01*
X8143792Y39612026D01*
X8143793Y39612023D01*
X8200425Y39400670D01*
X8292898Y39202361D01*
X8418402Y39023123D01*
X8573123Y38868402D01*
X8752361Y38742898D01*
X8950670Y38650425D01*
X9162023Y38593793D01*
X9380000Y38574723D01*
X9597977Y38593793D01*
X9809330Y38650425D01*
X10007639Y38742898D01*
X10186877Y38868402D01*
X10341598Y39023123D01*
X10467102Y39202361D01*
X10559575Y39400670D01*
X10616207Y39612023D01*
X10635277Y39830000D01*
X10616207Y40047977D01*
X10559575Y40259330D01*
X10467102Y40457638D01*
X10341598Y40636877D01*
X10186877Y40791598D01*
X10083374Y40864072D01*
X10044511Y40908388D01*
X10030500Y40965645D01*
X10030500Y62807497D01*
X10043288Y62862341D01*
X10079014Y62905873D01*
X10130309Y62929114D01*
X10186593Y62927272D01*
X10342748Y62885431D01*
X10344592Y62884937D01*
X10580000Y62864341D01*
X10815408Y62884937D01*
X11043663Y62946097D01*
X11257830Y63045965D01*
X11451401Y63181505D01*
X11618495Y63348599D01*
X11748426Y63534161D01*
X11792743Y63573025D01*
X11850000Y63587036D01*
X11907257Y63573025D01*
X11951573Y63534161D01*
X12081505Y63348599D01*
X12248599Y63181505D01*
X12442170Y63045965D01*
X12656337Y62946097D01*
X12884592Y62884937D01*
X13120000Y62864341D01*
X13355408Y62884937D01*
X13583663Y62946097D01*
X13797830Y63045965D01*
X13991401Y63181505D01*
X14158495Y63348599D01*
X14288426Y63534161D01*
X14332743Y63573025D01*
X14390000Y63587036D01*
X14447257Y63573025D01*
X14491573Y63534161D01*
X14621505Y63348599D01*
X14788599Y63181505D01*
X14982170Y63045965D01*
X15196337Y62946097D01*
X15424592Y62884937D01*
X15660000Y62864341D01*
X15895408Y62884937D01*
X16123663Y62946097D01*
X16337830Y63045965D01*
X16531401Y63181505D01*
X16698495Y63348599D01*
X16828426Y63534161D01*
X16872743Y63573025D01*
X16930000Y63587036D01*
X16987257Y63573025D01*
X17031573Y63534161D01*
X17161505Y63348599D01*
X17328599Y63181505D01*
X17522170Y63045965D01*
X17736337Y62946097D01*
X17964592Y62884937D01*
X18200000Y62864341D01*
X18435408Y62884937D01*
X18663663Y62946097D01*
X18877830Y63045965D01*
X19071401Y63181505D01*
X19238495Y63348599D01*
X19368732Y63534598D01*
X19413048Y63573461D01*
X19470305Y63587472D01*
X19527562Y63573461D01*
X19571880Y63534595D01*
X19625073Y63458627D01*
X20386447Y64219999D01*
X20386447Y64220000D01*
X19625073Y64981374D01*
X19571881Y64905406D01*
X19527563Y64866540D01*
X19470306Y64852529D01*
X19413048Y64866540D01*
X19368730Y64905405D01*
X19238495Y65091401D01*
X19071401Y65258495D01*
X18885839Y65388427D01*
X18846976Y65432743D01*
X18832965Y65490000D01*
X18846976Y65547257D01*
X18885839Y65591574D01*
X19071401Y65721505D01*
X19238495Y65888599D01*
X19368426Y66074161D01*
X19412743Y66113025D01*
X19470000Y66127036D01*
X19527257Y66113025D01*
X19571573Y66074161D01*
X19701505Y65888599D01*
X19868599Y65721505D01*
X20054597Y65591268D01*
X20093460Y65546952D01*
X20107471Y65489694D01*
X20093460Y65432437D01*
X20054594Y65388119D01*
X19978626Y65334927D01*
X21005871Y64307682D01*
X21037965Y64252095D01*
X21037965Y64187907D01*
X21005871Y64132320D01*
X19978625Y63105075D01*
X20062420Y63046401D01*
X20276507Y62946570D01*
X20504681Y62885431D01*
X20740000Y62864843D01*
X20975318Y62885431D01*
X21143406Y62930469D01*
X21199691Y62932311D01*
X21250986Y62909070D01*
X21286712Y62865538D01*
X21299500Y62810694D01*
X21299500Y18100634D01*
X21285489Y18043377D01*
X21246625Y17999062D01*
X21213630Y17975957D01*
X21193119Y17961595D01*
X21038402Y17806878D01*
X20912898Y17627639D01*
X20820425Y17429332D01*
X20763792Y17217975D01*
X20744722Y17000000D01*
X20763792Y16782026D01*
X20820425Y16570669D01*
X20842831Y16522620D01*
X20912898Y16372361D01*
X21038402Y16193123D01*
X21193123Y16038402D01*
X21372361Y15912898D01*
X21570670Y15820425D01*
X21782023Y15763793D01*
X22000000Y15744723D01*
X22217977Y15763793D01*
X22429330Y15820425D01*
X22627639Y15912898D01*
X22634960Y15918025D01*
X22695550Y15940004D01*
X22758990Y15928599D01*
X22808135Y15886892D01*
X22821815Y15867073D01*
X22821816Y15867072D01*
X22821817Y15867071D01*
X22866847Y15827178D01*
X22872283Y15822060D01*
X23833181Y14861162D01*
X23860061Y14820934D01*
X23869500Y14773481D01*
X23869500Y7201785D01*
X23856712Y7146941D01*
X23820986Y7103409D01*
X23769691Y7080168D01*
X23713407Y7082010D01*
X23515407Y7135064D01*
X23280000Y7155660D01*
X23044592Y7135064D01*
X22816336Y7073903D01*
X22602170Y6974035D01*
X22408598Y6838495D01*
X22241508Y6671405D01*
X22111574Y6485840D01*
X22067255Y6446974D01*
X22009999Y6432964D01*
X21952742Y6446975D01*
X21908426Y6485839D01*
X21778495Y6671401D01*
X21611401Y6838495D01*
X21417830Y6974035D01*
X21203663Y7073903D01*
X21133406Y7092728D01*
X20975407Y7135064D01*
X20740000Y7155660D01*
X20504592Y7135064D01*
X20276336Y7073903D01*
X20062170Y6974035D01*
X19868598Y6838495D01*
X19701508Y6671405D01*
X19571574Y6485840D01*
X19527255Y6446974D01*
X19469999Y6432964D01*
X19412742Y6446975D01*
X19368426Y6485839D01*
X19238495Y6671401D01*
X19071401Y6838495D01*
X18877830Y6974035D01*
X18663663Y7073903D01*
X18593406Y7092728D01*
X18435407Y7135064D01*
X18200000Y7155660D01*
X17964592Y7135064D01*
X17736336Y7073903D01*
X17522170Y6974035D01*
X17328598Y6838495D01*
X17161508Y6671405D01*
X17161507Y6671403D01*
X17161505Y6671401D01*
X17031271Y6485406D01*
X17031270Y6485405D01*
X16986952Y6446540D01*
X16929695Y6432529D01*
X16872438Y6446540D01*
X16828120Y6485405D01*
X16774925Y6561374D01*
X16774925Y6561375D01*
X16013553Y5800000D01*
X16774925Y5038627D01*
X16828119Y5114595D01*
X16872437Y5153461D01*
X16929694Y5167472D01*
X16986951Y5153461D01*
X17031267Y5114598D01*
X17161505Y4928599D01*
X17328599Y4761505D01*
X17514160Y4631574D01*
X17553024Y4587257D01*
X17567035Y4530000D01*
X17553024Y4472743D01*
X17514160Y4428426D01*
X17330846Y4300068D01*
X17328595Y4298492D01*
X17161508Y4131405D01*
X17161507Y4131403D01*
X17161505Y4131401D01*
X17113405Y4062709D01*
X17031574Y3945840D01*
X16987255Y3906974D01*
X16929999Y3892964D01*
X16872742Y3906975D01*
X16828426Y3945839D01*
X16698495Y4131401D01*
X16531401Y4298495D01*
X16345402Y4428733D01*
X16306539Y4473049D01*
X16292528Y4530306D01*
X16306539Y4587563D01*
X16345405Y4631881D01*
X16421373Y4685075D01*
X15660000Y5446447D01*
X14898625Y4685075D01*
X14974594Y4631881D01*
X15013460Y4587563D01*
X15027471Y4530306D01*
X15013461Y4473050D01*
X14974595Y4428731D01*
X14849485Y4341128D01*
X14790846Y4300068D01*
X14788595Y4298492D01*
X14621508Y4131405D01*
X14621507Y4131403D01*
X14621505Y4131401D01*
X14573405Y4062709D01*
X14491574Y3945840D01*
X14447255Y3906974D01*
X14389999Y3892964D01*
X14332742Y3906975D01*
X14288426Y3945839D01*
X14158495Y4131401D01*
X13991401Y4298495D01*
X13805839Y4428427D01*
X13766974Y4472745D01*
X13752964Y4530001D01*
X13766975Y4587258D01*
X13805837Y4631572D01*
X13991401Y4761505D01*
X14158495Y4928599D01*
X14288732Y5114598D01*
X14333048Y5153461D01*
X14390305Y5167472D01*
X14447562Y5153461D01*
X14491880Y5114595D01*
X14545073Y5038627D01*
X15306447Y5799999D01*
X15306447Y5800001D01*
X14545073Y6561374D01*
X14491881Y6485406D01*
X14447563Y6446540D01*
X14390306Y6432529D01*
X14333048Y6446540D01*
X14288730Y6485405D01*
X14158495Y6671401D01*
X13991401Y6838495D01*
X13882243Y6914928D01*
X14898625Y6914928D01*
X15660000Y6153553D01*
X15660001Y6153553D01*
X16421373Y6914927D01*
X16421373Y6914928D01*
X16337580Y6973600D01*
X16123492Y7073431D01*
X15895318Y7134570D01*
X15660000Y7155158D01*
X15424681Y7134570D01*
X15196507Y7073431D01*
X14982422Y6973601D01*
X14898625Y6914928D01*
X13882243Y6914928D01*
X13873376Y6921137D01*
X13834511Y6965454D01*
X13820500Y7022711D01*
X13820500Y41855351D01*
X13834511Y41912608D01*
X13873374Y41956925D01*
X13996877Y42043402D01*
X14151598Y42198123D01*
X14277102Y42377361D01*
X14369575Y42575670D01*
X14426207Y42787023D01*
X14445277Y43005000D01*
X14426207Y43222977D01*
X14369575Y43434330D01*
X14277102Y43632638D01*
X14151598Y43811877D01*
X13996877Y43966598D01*
X13817639Y44092102D01*
X13643765Y44173181D01*
X13619331Y44184575D01*
X13407974Y44241208D01*
X13189999Y44260278D01*
X12972025Y44241208D01*
X12760668Y44184575D01*
X12562361Y44092102D01*
X12383122Y43966598D01*
X12228402Y43811878D01*
X12102898Y43632639D01*
X12010425Y43434332D01*
X11953792Y43222975D01*
X11934722Y43005001D01*
X11953792Y42787026D01*
X11953793Y42787023D01*
X12010425Y42575670D01*
X12102898Y42377361D01*
X12228402Y42198123D01*
X12364927Y42061598D01*
X12383182Y42043343D01*
X12410061Y42003115D01*
X12419500Y41955662D01*
X12419500Y7022711D01*
X12405489Y6965454D01*
X12366623Y6921137D01*
X12342686Y6904376D01*
X12248598Y6838495D01*
X12081508Y6671405D01*
X11951574Y6485840D01*
X11907255Y6446974D01*
X11849999Y6432964D01*
X11792742Y6446975D01*
X11748426Y6485839D01*
X11618495Y6671401D01*
X11451401Y6838495D01*
X11257830Y6974035D01*
X11043663Y7073903D01*
X10973406Y7092728D01*
X10815407Y7135064D01*
X10580000Y7155660D01*
X10344592Y7135064D01*
X10116336Y7073903D01*
X9902170Y6974035D01*
X9708598Y6838495D01*
X9541508Y6671405D01*
X9411574Y6485840D01*
X9367255Y6446974D01*
X9309999Y6432964D01*
X9252742Y6446975D01*
X9208426Y6485839D01*
X9078495Y6671401D01*
X8911401Y6838495D01*
X8717830Y6974035D01*
X8503663Y7073903D01*
X8433406Y7092728D01*
X8275407Y7135064D01*
X8040000Y7155660D01*
X7804592Y7135064D01*
X7576336Y7073903D01*
X7362170Y6974035D01*
X7168598Y6838495D01*
X7001508Y6671405D01*
X7001507Y6671403D01*
X7001505Y6671401D01*
X6871271Y6485406D01*
X6871270Y6485405D01*
X6826952Y6446540D01*
X6769695Y6432529D01*
X6712438Y6446540D01*
X6668120Y6485405D01*
X6614925Y6561374D01*
X6614925Y6561375D01*
X5853553Y5800000D01*
X5853553Y5799999D01*
X6614925Y5038627D01*
X6668119Y5114595D01*
X6712437Y5153461D01*
X6769694Y5167472D01*
X6826951Y5153461D01*
X6871267Y5114598D01*
X7001505Y4928599D01*
X7168599Y4761505D01*
X7354160Y4631574D01*
X7393024Y4587257D01*
X7407035Y4530000D01*
X7393024Y4472743D01*
X7354160Y4428426D01*
X7170846Y4300068D01*
X7168595Y4298492D01*
X7001508Y4131405D01*
X7001507Y4131403D01*
X7001505Y4131401D01*
X6871271Y3945406D01*
X6871270Y3945405D01*
X6826952Y3906540D01*
X6769695Y3892529D01*
X6712438Y3906540D01*
X6668120Y3945405D01*
X6614925Y4021374D01*
X6614925Y4021375D01*
X5853553Y3260000D01*
X5853553Y3259999D01*
X5146447Y3259999D01*
X5146447Y3260000D01*
X4385072Y4021375D01*
X4326399Y3937578D01*
X4226569Y3723493D01*
X4165430Y3495319D01*
X4144842Y3260001D01*
X200500Y3260001D01*
X200500Y4374928D01*
X4738625Y4374928D01*
X5500000Y3613553D01*
X5500001Y3613553D01*
X6261373Y4374927D01*
X6261373Y4374928D01*
X6184969Y4428426D01*
X6146103Y4472744D01*
X6132092Y4530001D01*
X6146103Y4587258D01*
X6184969Y4631576D01*
X6261373Y4685075D01*
X5500000Y5446447D01*
X4738625Y4685075D01*
X4815031Y4631575D01*
X4853897Y4587256D01*
X4867907Y4529999D01*
X4853896Y4472742D01*
X4815029Y4428424D01*
X4738625Y4374928D01*
X200500Y4374928D01*
X200500Y5800001D01*
X4144842Y5800001D01*
X4165430Y5564682D01*
X4226569Y5336508D01*
X4326400Y5122420D01*
X4385073Y5038627D01*
X5146447Y5799999D01*
X5146447Y5800000D01*
X4385072Y6561375D01*
X4326399Y6477578D01*
X4226569Y6263493D01*
X4165430Y6035319D01*
X4144842Y5800001D01*
X200500Y5800001D01*
X200500Y6914928D01*
X4738625Y6914928D01*
X5500000Y6153553D01*
X5500001Y6153553D01*
X6261373Y6914927D01*
X6261373Y6914928D01*
X6177580Y6973600D01*
X5963492Y7073431D01*
X5735318Y7134570D01*
X5500000Y7155158D01*
X5264681Y7134570D01*
X5036507Y7073431D01*
X4822422Y6973601D01*
X4738625Y6914928D01*
X200500Y6914928D01*
X200500Y10065325D01*
X2295747Y10065325D01*
X2302853Y9879953D01*
X2305749Y9804407D01*
X2348367Y9584656D01*
X2355463Y9548070D01*
X2443719Y9302336D01*
X2568460Y9072940D01*
X2726749Y8865285D01*
X2914887Y8684221D01*
X3060831Y8581567D01*
X3128456Y8534001D01*
X3223263Y8487059D01*
X3362453Y8418141D01*
X3611391Y8339360D01*
X3611392Y8339360D01*
X3611395Y8339359D01*
X3869445Y8299500D01*
X4065177Y8299500D01*
X4065179Y8299500D01*
X4089536Y8301371D01*
X4260344Y8314484D01*
X4514586Y8373979D01*
X4661384Y8433144D01*
X4756762Y8471584D01*
X4756764Y8471586D01*
X4756766Y8471586D01*
X4981208Y8605018D01*
X5182652Y8771148D01*
X5192347Y8782026D01*
X5227671Y8821663D01*
X5356375Y8966080D01*
X5498306Y9185247D01*
X5605118Y9423511D01*
X5609693Y9440157D01*
X5673423Y9672070D01*
X5674307Y9675287D01*
X5704252Y9934675D01*
X5694251Y10195593D01*
X5644538Y10451927D01*
X5556279Y10697668D01*
X5431541Y10927057D01*
X5431539Y10927061D01*
X5273250Y11134716D01*
X5085112Y11315780D01*
X4871546Y11465998D01*
X4637546Y11581860D01*
X4388608Y11660641D01*
X4227562Y11685516D01*
X4130555Y11700500D01*
X3934823Y11700500D01*
X3934821Y11700500D01*
X3739656Y11685516D01*
X3485412Y11626021D01*
X3243237Y11528417D01*
X3018791Y11394983D01*
X2817346Y11228852D01*
X2643622Y11033918D01*
X2501693Y10814753D01*
X2394881Y10576491D01*
X2325693Y10324717D01*
X2295747Y10065325D01*
X200500Y10065325D01*
X200500Y60065325D01*
X2295747Y60065325D01*
X2303663Y59858838D01*
X2305749Y59804407D01*
X2330790Y59675287D01*
X2355463Y59548070D01*
X2443719Y59302336D01*
X2568460Y59072940D01*
X2726749Y58865285D01*
X2914887Y58684221D01*
X3128453Y58534003D01*
X3128456Y58534001D01*
X3311376Y58443431D01*
X3362453Y58418141D01*
X3611391Y58339360D01*
X3611392Y58339360D01*
X3611395Y58339359D01*
X3869445Y58299500D01*
X4065177Y58299500D01*
X4065179Y58299500D01*
X4089536Y58301371D01*
X4260344Y58314484D01*
X4514586Y58373979D01*
X4733297Y58462127D01*
X4756762Y58471584D01*
X4756764Y58471586D01*
X4756766Y58471586D01*
X4981208Y58605018D01*
X5182652Y58771148D01*
X5356375Y58966080D01*
X5498306Y59185247D01*
X5564140Y59332102D01*
X5605118Y59423510D01*
X5674306Y59675284D01*
X5674307Y59675287D01*
X5704252Y59934675D01*
X5694251Y60195593D01*
X5644538Y60451927D01*
X5556279Y60697668D01*
X5431541Y60927057D01*
X5431539Y60927061D01*
X5273250Y61134716D01*
X5085112Y61315780D01*
X4871546Y61465998D01*
X4637546Y61581860D01*
X4388608Y61660641D01*
X4227562Y61685516D01*
X4130555Y61700500D01*
X3934823Y61700500D01*
X3934821Y61700500D01*
X3739656Y61685516D01*
X3485412Y61626021D01*
X3243237Y61528417D01*
X3018791Y61394983D01*
X2817346Y61228852D01*
X2643622Y61033918D01*
X2501693Y60814753D01*
X2394881Y60576491D01*
X2325693Y60324717D01*
X2295747Y60065325D01*
X200500Y60065325D01*
X200500Y63105075D01*
X4738625Y63105075D01*
X4822420Y63046401D01*
X5036507Y62946570D01*
X5264681Y62885431D01*
X5500000Y62864843D01*
X5735318Y62885431D01*
X5963492Y62946570D01*
X6177576Y63046400D01*
X6261373Y63105075D01*
X5500000Y63866447D01*
X4738625Y63105075D01*
X200500Y63105075D01*
X200500Y64220001D01*
X4144842Y64220001D01*
X4165430Y63984682D01*
X4226569Y63756508D01*
X4326400Y63542420D01*
X4385073Y63458627D01*
X5146447Y64219999D01*
X5146447Y64220000D01*
X4385072Y64981375D01*
X4326399Y64897578D01*
X4226569Y64683493D01*
X4165430Y64455319D01*
X4144842Y64220001D01*
X200500Y64220001D01*
X200500Y65334928D01*
X4738625Y65334928D01*
X5500000Y64573553D01*
X5500001Y64573553D01*
X6261373Y65334927D01*
X6261373Y65334928D01*
X6184969Y65388426D01*
X6146103Y65432744D01*
X6132092Y65490001D01*
X6146103Y65547258D01*
X6184969Y65591576D01*
X6261373Y65645075D01*
X5500000Y66406447D01*
X4738625Y65645075D01*
X4815031Y65591575D01*
X4853897Y65547256D01*
X4867907Y65489999D01*
X4853896Y65432742D01*
X4815029Y65388424D01*
X4738625Y65334928D01*
X200500Y65334928D01*
X200500Y66760000D01*
X4144842Y66760000D01*
X4165430Y66524682D01*
X4226569Y66296508D01*
X4326400Y66082420D01*
X4385073Y65998627D01*
X5146447Y66759999D01*
X5146447Y66760000D01*
X4385072Y67521375D01*
X4326399Y67437578D01*
X4226569Y67223493D01*
X4165430Y66995319D01*
X4144842Y66760000D01*
X200500Y66760000D01*
X200500Y67874928D01*
X4738625Y67874928D01*
X5500000Y67113553D01*
X5500001Y67113553D01*
X6261373Y67874927D01*
X6261373Y67874928D01*
X6177580Y67933600D01*
X5963492Y68033431D01*
X5735318Y68094570D01*
X5500000Y68115158D01*
X5264681Y68094570D01*
X5036507Y68033431D01*
X4822422Y67933601D01*
X4738625Y67874928D01*
X200500Y67874928D01*
X200500Y69675500D01*
X217113Y69737500D01*
X262500Y69782887D01*
X324500Y69799500D01*
X99675500Y69799500D01*
X99737500Y69782887D01*
G37*
G04 #@! TD.AperFunction*
G04 #@! TD*
M02*
