M48
; DRILL file {KiCad 7.0.1} date Fri Apr 21 07:10:04 2023
; FORMAT={-:-/ absolute / metric / decimal}
; #@! TF.CreationDate,2023-04-21T07:10:04+02:00
; #@! TF.GenerationSoftware,Kicad,Pcbnew,7.0.1
; #@! TF.FileFunction,Plated,1,2,PTH
FMAT,2
METRIC
; #@! TA.AperFunction,Plated,PTH,ViaDrill
T1C0.400
; #@! TA.AperFunction,Plated,PTH,ComponentDrill
T2C1.000
%
G90
G05
T1
X5.0Y53.0
X5.0Y18.0
X9.38Y39.83
X13.19Y43.005
X15.73Y56.34
X18.27Y22.05
X22.0Y17.0
X23.35Y24.59
X25.0Y19.0
X25.89Y30.305
X28.43Y34.75
X30.0Y26.0
X30.97Y32.845
X33.51Y27.765
X35.0Y13.0
X37.32Y45.545
X38.0Y29.0
X39.0Y11.0
X40.0Y17.329
X42.0Y21.0
X43.67Y20.11
X46.0Y24.0
X46.718Y8.842
X47.48Y44.275
X47.48Y22.65
X49.0Y34.0
X58.91Y36.655
X61.0Y54.0
X62.0Y49.0
X62.0Y9.0
X66.0Y61.0
X66.53Y46.815
X72.626Y41.354
X72.626Y38.052
X72.626Y9.604
X77.0Y61.0
X78.0Y54.0
X79.23Y41.1
X81.77Y31.575
X83.04Y58.245
X83.04Y49.355
X83.04Y37.925
X85.326Y50.295
X85.326Y46.637
X85.428Y52.479
X85.58Y9.604
X90.66Y62.055
X96.0Y53.0
X96.0Y19.0
T2
X5.5Y66.76
X5.5Y64.22
X5.5Y5.8
X5.5Y3.26
X8.04Y66.76
X8.04Y64.22
X8.04Y5.8
X8.04Y3.26
X10.58Y66.76
X10.58Y64.22
X10.58Y5.8
X10.58Y3.26
X13.12Y66.76
X13.12Y64.22
X13.12Y5.8
X13.12Y3.26
X15.66Y66.76
X15.66Y64.22
X15.66Y5.8
X15.66Y3.26
X18.2Y66.76
X18.2Y64.22
X18.2Y5.8
X18.2Y3.26
X20.74Y66.76
X20.74Y64.22
X20.74Y5.8
X20.74Y3.26
X23.28Y66.76
X23.28Y64.22
X23.28Y5.8
X23.28Y3.26
X25.82Y66.76
X25.82Y64.22
X25.82Y5.8
X25.82Y3.26
X28.36Y66.76
X28.36Y64.22
X28.36Y5.8
X28.36Y3.26
X30.9Y66.76
X30.9Y64.22
X30.9Y5.8
X30.9Y3.26
X33.44Y66.76
X33.44Y64.22
X33.44Y5.8
X33.44Y3.26
X35.98Y66.76
X35.98Y64.22
X35.98Y5.8
X35.98Y3.26
X38.52Y66.76
X38.52Y64.22
X38.52Y5.8
X38.52Y3.26
X41.06Y66.76
X41.06Y64.22
X41.06Y5.8
X41.06Y3.26
X43.6Y66.76
X43.6Y64.22
X43.6Y5.8
X43.6Y3.26
X46.14Y66.76
X46.14Y64.22
X46.14Y5.8
X46.14Y3.26
X48.68Y66.76
X48.68Y64.22
X48.68Y5.8
X48.68Y3.26
X51.22Y66.76
X51.22Y64.22
X51.22Y5.8
X51.22Y3.26
X53.76Y66.76
X53.76Y64.22
X53.76Y5.8
X53.76Y3.26
X56.3Y66.76
X56.3Y64.22
X56.3Y5.8
X56.3Y3.26
X58.84Y66.76
X58.84Y64.22
X58.84Y5.8
X58.84Y3.26
X61.38Y66.76
X61.38Y64.22
X61.38Y5.8
X61.38Y3.26
X63.92Y66.76
X63.92Y64.22
X63.92Y5.8
X63.92Y3.26
X66.46Y66.76
X66.46Y64.22
X66.46Y5.8
X66.46Y3.26
X69.0Y66.76
X69.0Y64.22
X69.0Y5.8
X69.0Y3.26
X71.54Y66.76
X71.54Y64.22
X71.54Y5.8
X71.54Y3.26
X74.08Y66.76
X74.08Y64.22
X74.08Y5.8
X74.08Y3.26
X76.62Y66.76
X76.62Y64.22
X76.62Y5.8
X76.62Y3.26
X79.16Y66.76
X79.16Y64.22
X79.16Y5.8
X79.16Y3.26
X81.7Y66.76
X81.7Y64.22
X81.7Y5.8
X81.7Y3.26
X84.24Y66.76
X84.24Y64.22
X84.24Y5.8
X84.24Y3.26
X86.78Y66.76
X86.78Y64.22
X86.78Y5.8
X86.78Y3.26
X88.16Y59.36
X88.16Y56.82
X88.16Y54.28
X88.16Y51.74
X88.16Y49.2
X88.16Y46.66
X88.16Y44.12
X88.16Y41.58
X88.16Y39.04
X88.16Y36.5
X88.16Y33.96
X88.16Y31.42
X88.16Y28.88
X88.16Y26.34
X88.16Y23.8
X88.16Y21.26
X88.16Y18.72
X88.16Y16.18
X88.16Y13.64
X88.16Y11.1
X89.32Y66.76
X89.32Y64.22
X89.32Y5.8
X89.32Y3.26
X90.7Y59.36
X90.7Y56.82
X90.7Y54.28
X90.7Y51.74
X90.7Y49.2
X90.7Y46.66
X90.7Y44.12
X90.7Y41.58
X90.7Y39.04
X90.7Y36.5
X90.7Y33.96
X90.7Y31.42
X90.7Y28.88
X90.7Y26.34
X90.7Y23.8
X90.7Y21.26
X90.7Y18.72
X90.7Y16.18
X90.7Y13.64
X90.7Y11.1
X91.86Y66.76
X91.86Y64.22
X91.86Y5.8
X91.86Y3.26
X94.4Y66.76
X94.4Y64.22
X94.4Y5.8
X94.4Y3.26
T0
M30
