M48
; DRILL file {KiCad 7.0.1} date Wed Apr 26 12:08:39 2023
; FORMAT={-:-/ absolute / inch / decimal}
; #@! TF.CreationDate,2023-04-26T12:08:39+02:00
; #@! TF.GenerationSoftware,Kicad,Pcbnew,7.0.1
; #@! TF.FileFunction,Plated,1,2,PTH
FMAT,2
INCH
; #@! TA.AperFunction,Plated,PTH,ViaDrill
T1C0.0157
; #@! TA.AperFunction,Plated,PTH,ComponentDrill
T2C0.0394
%
G90
G05
T1
X0.1969Y2.0866
X0.1969Y0.7087
X0.3693Y1.5681
X0.5193Y1.6931
X0.6193Y2.2181
X0.7193Y0.8681
X0.8661Y0.6693
X0.9193Y0.9681
X0.9843Y0.748
X1.0193Y1.1931
X1.1193Y1.3681
X1.1811Y1.0236
X1.2193Y1.2931
X1.3193Y1.0931
X1.378Y0.5118
X1.4693Y1.7931
X1.4961Y1.1417
X1.5354Y0.4331
X1.5748Y0.6823
X1.6535Y0.8268
X1.7193Y0.7918
X1.811Y0.9449
X1.8393Y0.3481
X1.8693Y1.7431
X1.8693Y0.8918
X1.9291Y1.3386
X2.3193Y1.4431
X2.4016Y2.126
X2.4409Y1.9291
X2.4409Y0.3543
X2.5984Y2.4016
X2.6193Y1.8431
X2.8593Y1.6281
X2.8593Y1.4981
X2.8593Y0.3781
X3.0315Y2.4016
X3.0709Y2.126
X3.1193Y1.6181
X3.2193Y1.2431
X3.2693Y2.2931
X3.2693Y1.9431
X3.2693Y1.4931
X3.3593Y1.9801
X3.3593Y1.8361
X3.3633Y2.0661
X3.3693Y0.3781
X3.5693Y2.4431
X3.7795Y2.0866
X3.7795Y0.748
T2
X0.2165Y2.6283
X0.2165Y2.5283
X0.2165Y0.2283
X0.2165Y0.1283
X0.3165Y2.6283
X0.3165Y2.5283
X0.3165Y0.2283
X0.3165Y0.1283
X0.4165Y2.6283
X0.4165Y2.5283
X0.4165Y0.2283
X0.4165Y0.1283
X0.5165Y2.6283
X0.5165Y2.5283
X0.5165Y0.2283
X0.5165Y0.1283
X0.6165Y2.6283
X0.6165Y2.5283
X0.6165Y0.2283
X0.6165Y0.1283
X0.7165Y2.6283
X0.7165Y2.5283
X0.7165Y0.2283
X0.7165Y0.1283
X0.8165Y2.6283
X0.8165Y2.5283
X0.8165Y0.2283
X0.8165Y0.1283
X0.9165Y2.6283
X0.9165Y2.5283
X0.9165Y0.2283
X0.9165Y0.1283
X1.0165Y2.6283
X1.0165Y2.5283
X1.0165Y0.2283
X1.0165Y0.1283
X1.1165Y2.6283
X1.1165Y2.5283
X1.1165Y0.2283
X1.1165Y0.1283
X1.2165Y2.6283
X1.2165Y2.5283
X1.2165Y0.2283
X1.2165Y0.1283
X1.3165Y2.6283
X1.3165Y2.5283
X1.3165Y0.2283
X1.3165Y0.1283
X1.4165Y2.6283
X1.4165Y2.5283
X1.4165Y0.2283
X1.4165Y0.1283
X1.5165Y2.6283
X1.5165Y2.5283
X1.5165Y0.2283
X1.5165Y0.1283
X1.6165Y2.6283
X1.6165Y2.5283
X1.6165Y0.2283
X1.6165Y0.1283
X1.7165Y2.6283
X1.7165Y2.5283
X1.7165Y0.2283
X1.7165Y0.1283
X1.8165Y2.6283
X1.8165Y2.5283
X1.8165Y0.2283
X1.8165Y0.1283
X1.9165Y2.6283
X1.9165Y2.5283
X1.9165Y0.2283
X1.9165Y0.1283
X2.0165Y2.6283
X2.0165Y2.5283
X2.0165Y0.2283
X2.0165Y0.1283
X2.1165Y2.6283
X2.1165Y2.5283
X2.1165Y0.2283
X2.1165Y0.1283
X2.2165Y2.6283
X2.2165Y2.5283
X2.2165Y0.2283
X2.2165Y0.1283
X2.3165Y2.6283
X2.3165Y2.5283
X2.3165Y0.2283
X2.3165Y0.1283
X2.4165Y2.6283
X2.4165Y2.5283
X2.4165Y0.2283
X2.4165Y0.1283
X2.5165Y2.6283
X2.5165Y2.5283
X2.5165Y0.2283
X2.5165Y0.1283
X2.6165Y2.6283
X2.6165Y2.5283
X2.6165Y0.2283
X2.6165Y0.1283
X2.7165Y2.6283
X2.7165Y2.5283
X2.7165Y0.2283
X2.7165Y0.1283
X2.8165Y2.6283
X2.8165Y2.5283
X2.8165Y0.2283
X2.8165Y0.1283
X2.9165Y2.6283
X2.9165Y2.5283
X2.9165Y0.2283
X2.9165Y0.1283
X3.0165Y2.6283
X3.0165Y2.5283
X3.0165Y0.2283
X3.0165Y0.1283
X3.1165Y2.6283
X3.1165Y2.5283
X3.1165Y0.2283
X3.1165Y0.1283
X3.2165Y2.6283
X3.2165Y2.5283
X3.2165Y0.2283
X3.2165Y0.1283
X3.3165Y2.6283
X3.3165Y2.5283
X3.3165Y0.2283
X3.3165Y0.1283
X3.4165Y2.6283
X3.4165Y2.5283
X3.4165Y0.2283
X3.4165Y0.1283
X3.4709Y2.337
X3.4709Y2.237
X3.4709Y2.137
X3.4709Y2.037
X3.4709Y1.937
X3.4709Y1.837
X3.4709Y1.737
X3.4709Y1.637
X3.4709Y1.537
X3.4709Y1.437
X3.4709Y1.337
X3.4709Y1.237
X3.4709Y1.137
X3.4709Y1.037
X3.4709Y0.937
X3.4709Y0.837
X3.4709Y0.737
X3.4709Y0.637
X3.4709Y0.537
X3.4709Y0.437
X3.5165Y2.6283
X3.5165Y2.5283
X3.5165Y0.2283
X3.5165Y0.1283
X3.5709Y2.337
X3.5709Y2.237
X3.5709Y2.137
X3.5709Y2.037
X3.5709Y1.937
X3.5709Y1.837
X3.5709Y1.737
X3.5709Y1.637
X3.5709Y1.537
X3.5709Y1.437
X3.5709Y1.337
X3.5709Y1.237
X3.5709Y1.137
X3.5709Y1.037
X3.5709Y0.937
X3.5709Y0.837
X3.5709Y0.737
X3.5709Y0.637
X3.5709Y0.537
X3.5709Y0.437
X3.6165Y2.6283
X3.6165Y2.5283
X3.6165Y0.2283
X3.6165Y0.1283
X3.7165Y2.6283
X3.7165Y2.5283
X3.7165Y0.2283
X3.7165Y0.1283
T0
M30
