G04 #@! TF.GenerationSoftware,KiCad,Pcbnew,7.0.1*
G04 #@! TF.CreationDate,2023-04-21T07:09:59+02:00*
G04 #@! TF.ProjectId,nucleo144 and 4.3 SSD1963 lcd parallel 16bit,6e75636c-656f-4313-9434-20616e642034,rev?*
G04 #@! TF.SameCoordinates,PX68e7780PY7bfa480*
G04 #@! TF.FileFunction,Copper,L2,Bot*
G04 #@! TF.FilePolarity,Positive*
%FSLAX46Y46*%
G04 Gerber Fmt 4.6, Leading zero omitted, Abs format (unit mm)*
G04 Created by KiCad (PCBNEW 7.0.1) date 2023-04-21 07:09:59*
%MOMM*%
%LPD*%
G01*
G04 APERTURE LIST*
G04 Aperture macros list*
%AMRoundRect*
0 Rectangle with rounded corners*
0 $1 Rounding radius*
0 $2 $3 $4 $5 $6 $7 $8 $9 X,Y pos of 4 corners*
0 Add a 4 corners polygon primitive as box body*
4,1,4,$2,$3,$4,$5,$6,$7,$8,$9,$2,$3,0*
0 Add four circle primitives for the rounded corners*
1,1,$1+$1,$2,$3*
1,1,$1+$1,$4,$5*
1,1,$1+$1,$6,$7*
1,1,$1+$1,$8,$9*
0 Add four rect primitives between the rounded corners*
20,1,$1+$1,$2,$3,$4,$5,0*
20,1,$1+$1,$4,$5,$6,$7,0*
20,1,$1+$1,$6,$7,$8,$9,0*
20,1,$1+$1,$8,$9,$2,$3,0*%
G04 Aperture macros list end*
G04 #@! TA.AperFunction,ComponentPad*
%ADD10C,1.700000*%
G04 #@! TD*
G04 #@! TA.AperFunction,ComponentPad*
%ADD11R,1.700000X1.700000*%
G04 #@! TD*
G04 #@! TA.AperFunction,ComponentPad*
%ADD12O,1.700000X1.700000*%
G04 #@! TD*
G04 #@! TA.AperFunction,SMDPad,CuDef*
%ADD13RoundRect,0.250000X0.925000X-0.412500X0.925000X0.412500X-0.925000X0.412500X-0.925000X-0.412500X0*%
G04 #@! TD*
G04 #@! TA.AperFunction,SMDPad,CuDef*
%ADD14RoundRect,0.250000X0.412500X0.925000X-0.412500X0.925000X-0.412500X-0.925000X0.412500X-0.925000X0*%
G04 #@! TD*
G04 #@! TA.AperFunction,SMDPad,CuDef*
%ADD15R,1.500000X2.000000*%
G04 #@! TD*
G04 #@! TA.AperFunction,SMDPad,CuDef*
%ADD16R,3.800000X2.000000*%
G04 #@! TD*
G04 #@! TA.AperFunction,ViaPad*
%ADD17C,1.500000*%
G04 #@! TD*
G04 #@! TA.AperFunction,Conductor*
%ADD18C,0.500000*%
G04 #@! TD*
G04 #@! TA.AperFunction,Conductor*
%ADD19C,0.400000*%
G04 #@! TD*
G04 APERTURE END LIST*
D10*
G04 #@! TO.P,U1,1,PC10*
G04 #@! TO.N,SD_CLK*
X94400000Y66760000D03*
G04 #@! TO.P,U1,2,PC11*
G04 #@! TO.N,SD_MISO*
X94400000Y64220000D03*
G04 #@! TO.P,U1,3,PC12*
G04 #@! TO.N,SD_MOSI*
X91860000Y66760000D03*
G04 #@! TO.P,U1,4,PD2*
G04 #@! TO.N,unconnected-(U1-PD2-Pad4)*
X91860000Y64220000D03*
G04 #@! TO.P,U1,5,VDD*
G04 #@! TO.N,unconnected-(U1-VDD-Pad5)*
X89320000Y66760000D03*
G04 #@! TO.P,U1,6,E5V*
G04 #@! TO.N,unconnected-(U1-E5V-Pad6)*
X89320000Y64220000D03*
G04 #@! TO.P,U1,7,~{BOOT0}*
G04 #@! TO.N,unconnected-(U1-~{BOOT0}-Pad7)*
X86780000Y66760000D03*
G04 #@! TO.P,U1,8,GND*
G04 #@! TO.N,GND*
X86780000Y64220000D03*
G04 #@! TO.P,U1,9,PF6*
G04 #@! TO.N,unconnected-(U1-PF6-Pad9)*
X84240000Y66760000D03*
G04 #@! TO.P,U1,10,NC*
G04 #@! TO.N,unconnected-(U1-NC-Pad10)*
X84240000Y64220000D03*
G04 #@! TO.P,U1,11,PF7*
G04 #@! TO.N,unconnected-(U1-PF7-Pad11)*
X81700000Y66760000D03*
G04 #@! TO.P,U1,12,IOREF*
G04 #@! TO.N,unconnected-(U1-IOREF-Pad12)*
X81700000Y64220000D03*
G04 #@! TO.P,U1,13,TMS/PA13*
G04 #@! TO.N,unconnected-(U1-TMS{slash}PA13-Pad13)*
X79160000Y66760000D03*
G04 #@! TO.P,U1,14,~{RST}*
G04 #@! TO.N,unconnected-(U1-~{RST}-Pad14)*
X79160000Y64220000D03*
G04 #@! TO.P,U1,15,TCK/PA14*
G04 #@! TO.N,unconnected-(U1-TCK{slash}PA14-Pad15)*
X76620000Y66760000D03*
G04 #@! TO.P,U1,16,+3V3*
G04 #@! TO.N,unconnected-(U1-+3V3-Pad16)*
X76620000Y64220000D03*
G04 #@! TO.P,U1,17,PA15*
G04 #@! TO.N,unconnected-(U1-PA15-Pad17)*
X74080000Y66760000D03*
G04 #@! TO.P,U1,18,+5V*
G04 #@! TO.N,5V*
X74080000Y64220000D03*
G04 #@! TO.P,U1,19,GND*
G04 #@! TO.N,GND*
X71540000Y66760000D03*
G04 #@! TO.P,U1,20,GND*
X71540000Y64220000D03*
G04 #@! TO.P,U1,21,LD2/PB7*
G04 #@! TO.N,unconnected-(U1-LD2{slash}PB7-Pad21)*
X69000000Y66760000D03*
G04 #@! TO.P,U1,22,GND*
G04 #@! TO.N,GND*
X69000000Y64220000D03*
G04 #@! TO.P,U1,23,BT/PC13*
G04 #@! TO.N,unconnected-(U1-BT{slash}PC13-Pad23)*
X66460000Y66760000D03*
G04 #@! TO.P,U1,24,VIN*
G04 #@! TO.N,unconnected-(U1-VIN-Pad24)*
X66460000Y64220000D03*
G04 #@! TO.P,U1,25,RTC_CRYSTAL/PC14*
G04 #@! TO.N,unconnected-(U1-RTC_CRYSTAL{slash}PC14-Pad25)*
X63920000Y66760000D03*
G04 #@! TO.P,U1,26,NC*
G04 #@! TO.N,unconnected-(U1-NC-Pad26)*
X63920000Y64220000D03*
G04 #@! TO.P,U1,27,RTC_CRYSTAL/PC15*
G04 #@! TO.N,unconnected-(U1-RTC_CRYSTAL{slash}PC15-Pad27)*
X61380000Y66760000D03*
G04 #@! TO.P,U1,28,ETH_REF_CLK/PA0*
G04 #@! TO.N,unconnected-(U1-ETH_REF_CLK{slash}PA0-Pad28)*
X61380000Y64220000D03*
G04 #@! TO.P,U1,29,PH0*
G04 #@! TO.N,unconnected-(U1-PH0-Pad29)*
X58840000Y66760000D03*
G04 #@! TO.P,U1,30,ETH_MDIO/PA1*
G04 #@! TO.N,unconnected-(U1-ETH_MDIO{slash}PA1-Pad30)*
X58840000Y64220000D03*
G04 #@! TO.P,U1,31,PH1*
G04 #@! TO.N,unconnected-(U1-PH1-Pad31)*
X56300000Y66760000D03*
G04 #@! TO.P,U1,32,PA4*
G04 #@! TO.N,unconnected-(U1-PA4-Pad32)*
X56300000Y64220000D03*
G04 #@! TO.P,U1,33,VBAT*
G04 #@! TO.N,unconnected-(U1-VBAT-Pad33)*
X53760000Y66760000D03*
G04 #@! TO.P,U1,34,PB0*
G04 #@! TO.N,unconnected-(U1-PB0-Pad34)*
X53760000Y64220000D03*
G04 #@! TO.P,U1,35,PC2*
G04 #@! TO.N,LCD_BL*
X51220000Y66760000D03*
G04 #@! TO.P,U1,36,ETH_MDC/PC1*
G04 #@! TO.N,unconnected-(U1-ETH_MDC{slash}PC1-Pad36)*
X51220000Y64220000D03*
G04 #@! TO.P,U1,37,PC3*
G04 #@! TO.N,PEN*
X48680000Y66760000D03*
G04 #@! TO.P,U1,38,PC0*
G04 #@! TO.N,LCD_RST*
X48680000Y64220000D03*
G04 #@! TO.P,U1,39,PD4*
G04 #@! TO.N,LCD_RD*
X46140000Y66760000D03*
G04 #@! TO.P,U1,40,PD3*
G04 #@! TO.N,unconnected-(U1-PD3-Pad40)*
X46140000Y64220000D03*
G04 #@! TO.P,U1,41,PD5*
G04 #@! TO.N,LCD_WR*
X43600000Y66760000D03*
G04 #@! TO.P,U1,42,PG2*
G04 #@! TO.N,unconnected-(U1-PG2-Pad42)*
X43600000Y64220000D03*
G04 #@! TO.P,U1,43,PD6*
G04 #@! TO.N,unconnected-(U1-PD6-Pad43)*
X41060000Y66760000D03*
G04 #@! TO.P,U1,44,PG3*
G04 #@! TO.N,unconnected-(U1-PG3-Pad44)*
X41060000Y64220000D03*
G04 #@! TO.P,U1,45,PD7*
G04 #@! TO.N,LCD_CS*
X38520000Y66760000D03*
G04 #@! TO.P,U1,46,PE2*
G04 #@! TO.N,unconnected-(U1-PE2-Pad46)*
X38520000Y64220000D03*
G04 #@! TO.P,U1,47,PE3*
G04 #@! TO.N,unconnected-(U1-PE3-Pad47)*
X35980000Y66760000D03*
G04 #@! TO.P,U1,48,PE4*
G04 #@! TO.N,unconnected-(U1-PE4-Pad48)*
X35980000Y64220000D03*
G04 #@! TO.P,U1,49,GND*
G04 #@! TO.N,GND*
X33440000Y66760000D03*
G04 #@! TO.P,U1,50,PE5*
G04 #@! TO.N,unconnected-(U1-PE5-Pad50)*
X33440000Y64220000D03*
G04 #@! TO.P,U1,51,PF1*
G04 #@! TO.N,unconnected-(U1-PF1-Pad51)*
X30900000Y66760000D03*
G04 #@! TO.P,U1,52,PF2*
G04 #@! TO.N,unconnected-(U1-PF2-Pad52)*
X30900000Y64220000D03*
G04 #@! TO.P,U1,53,PF0*
G04 #@! TO.N,unconnected-(U1-PF0-Pad53)*
X28360000Y66760000D03*
G04 #@! TO.P,U1,54,PF8*
G04 #@! TO.N,unconnected-(U1-PF8-Pad54)*
X28360000Y64220000D03*
G04 #@! TO.P,U1,55,PD1*
G04 #@! TO.N,D3*
X25820000Y66760000D03*
G04 #@! TO.P,U1,56,PF9*
G04 #@! TO.N,unconnected-(U1-PF9-Pad56)*
X25820000Y64220000D03*
G04 #@! TO.P,U1,57,PD0*
G04 #@! TO.N,D2*
X23280000Y66760000D03*
G04 #@! TO.P,U1,58,PG1*
G04 #@! TO.N,unconnected-(U1-PG1-Pad58)*
X23280000Y64220000D03*
G04 #@! TO.P,U1,59,PG0*
G04 #@! TO.N,unconnected-(U1-PG0-Pad59)*
X20740000Y66760000D03*
G04 #@! TO.P,U1,60,GND*
G04 #@! TO.N,GND*
X20740000Y64220000D03*
G04 #@! TO.P,U1,61,PE1*
G04 #@! TO.N,unconnected-(U1-PE1-Pad61)*
X18200000Y66760000D03*
G04 #@! TO.P,U1,62,PE6*
G04 #@! TO.N,unconnected-(U1-PE6-Pad62)*
X18200000Y64220000D03*
G04 #@! TO.P,U1,63,PG9*
G04 #@! TO.N,unconnected-(U1-PG9-Pad63)*
X15660000Y66760000D03*
G04 #@! TO.P,U1,64,PG15*
G04 #@! TO.N,unconnected-(U1-PG15-Pad64)*
X15660000Y64220000D03*
G04 #@! TO.P,U1,65,PG12*
G04 #@! TO.N,unconnected-(U1-PG12-Pad65)*
X13120000Y66760000D03*
G04 #@! TO.P,U1,66,PG10*
G04 #@! TO.N,unconnected-(U1-PG10-Pad66)*
X13120000Y64220000D03*
G04 #@! TO.P,U1,67,NC*
G04 #@! TO.N,unconnected-(U1-NC-Pad67)*
X10580000Y66760000D03*
G04 #@! TO.P,U1,68,PG13/ETH_TXD0*
G04 #@! TO.N,unconnected-(U1-PG13{slash}ETH_TXD0-Pad68)*
X10580000Y64220000D03*
G04 #@! TO.P,U1,69,STLINK_RX/PD9*
G04 #@! TO.N,D14*
X8040000Y66760000D03*
G04 #@! TO.P,U1,70,PG11/ETH_TX_EN*
G04 #@! TO.N,unconnected-(U1-PG11{slash}ETH_TX_EN-Pad70)*
X8040000Y64220000D03*
G04 #@! TO.P,U1,71,GND*
G04 #@! TO.N,GND*
X5500000Y66760000D03*
G04 #@! TO.P,U1,72,GND*
X5500000Y64220000D03*
G04 #@! TO.P,U1,73,PC9*
G04 #@! TO.N,unconnected-(U1-PC9-Pad73)*
X94400000Y5800000D03*
G04 #@! TO.P,U1,74,PC8*
G04 #@! TO.N,unconnected-(U1-PC8-Pad74)*
X94400000Y3260000D03*
G04 #@! TO.P,U1,75,PB8*
G04 #@! TO.N,unconnected-(U1-PB8-Pad75)*
X91860000Y5800000D03*
G04 #@! TO.P,U1,76,PC6*
G04 #@! TO.N,unconnected-(U1-PC6-Pad76)*
X91860000Y3260000D03*
G04 #@! TO.P,U1,77,PB9*
G04 #@! TO.N,unconnected-(U1-PB9-Pad77)*
X89320000Y5800000D03*
G04 #@! TO.P,U1,78,ETH_RXD1/PC5*
G04 #@! TO.N,unconnected-(U1-ETH_RXD1{slash}PC5-Pad78)*
X89320000Y3260000D03*
G04 #@! TO.P,U1,79,AVDD*
G04 #@! TO.N,unconnected-(U1-AVDD-Pad79)*
X86780000Y5800000D03*
G04 #@! TO.P,U1,80,U5V*
G04 #@! TO.N,unconnected-(U1-U5V-Pad80)*
X86780000Y3260000D03*
G04 #@! TO.P,U1,81,GND*
G04 #@! TO.N,GND*
X84240000Y5800000D03*
G04 #@! TO.P,U1,82,STLINK_TX/PD8*
G04 #@! TO.N,D13*
X84240000Y3260000D03*
G04 #@! TO.P,U1,83,PA5*
G04 #@! TO.N,SPI_CLK*
X81700000Y5800000D03*
G04 #@! TO.P,U1,84,USB_DP/PA12*
G04 #@! TO.N,unconnected-(U1-USB_DP{slash}PA12-Pad84)*
X81700000Y3260000D03*
G04 #@! TO.P,U1,85,PA6*
G04 #@! TO.N,SPI_MISO*
X79160000Y5800000D03*
G04 #@! TO.P,U1,86,USB_DM/PA11*
G04 #@! TO.N,unconnected-(U1-USB_DM{slash}PA11-Pad86)*
X79160000Y3260000D03*
G04 #@! TO.P,U1,87,ETH_CRS_DV/PA7*
G04 #@! TO.N,unconnected-(U1-ETH_CRS_DV{slash}PA7-Pad87)*
X76620000Y5800000D03*
G04 #@! TO.P,U1,88,PB12*
G04 #@! TO.N,unconnected-(U1-PB12-Pad88)*
X76620000Y3260000D03*
G04 #@! TO.P,U1,89,PB6*
G04 #@! TO.N,unconnected-(U1-PB6-Pad89)*
X74080000Y5800000D03*
G04 #@! TO.P,U1,90,PB11*
G04 #@! TO.N,unconnected-(U1-PB11-Pad90)*
X74080000Y3260000D03*
G04 #@! TO.P,U1,91,PC7*
G04 #@! TO.N,unconnected-(U1-PC7-Pad91)*
X71540000Y5800000D03*
G04 #@! TO.P,U1,92,GND*
G04 #@! TO.N,GND*
X71540000Y3260000D03*
G04 #@! TO.P,U1,93,USB_VBUS/PA9*
G04 #@! TO.N,unconnected-(U1-USB_VBUS{slash}PA9-Pad93)*
X69000000Y5800000D03*
G04 #@! TO.P,U1,94,PB2*
G04 #@! TO.N,SD_CS*
X69000000Y3260000D03*
G04 #@! TO.P,U1,95,USB_SOF/PA8*
G04 #@! TO.N,unconnected-(U1-USB_SOF{slash}PA8-Pad95)*
X66460000Y5800000D03*
G04 #@! TO.P,U1,96,PB1*
G04 #@! TO.N,F_CS*
X66460000Y3260000D03*
G04 #@! TO.P,U1,97,PB10*
G04 #@! TO.N,unconnected-(U1-PB10-Pad97)*
X63920000Y5800000D03*
G04 #@! TO.P,U1,98,PB15*
G04 #@! TO.N,unconnected-(U1-PB15-Pad98)*
X63920000Y3260000D03*
G04 #@! TO.P,U1,99,PB4*
G04 #@! TO.N,unconnected-(U1-PB4-Pad99)*
X61380000Y5800000D03*
G04 #@! TO.P,U1,100,LD3/PB14*
G04 #@! TO.N,unconnected-(U1-LD3{slash}PB14-Pad100)*
X61380000Y3260000D03*
G04 #@! TO.P,U1,101,PB5*
G04 #@! TO.N,SPI_MOSI*
X58840000Y5800000D03*
G04 #@! TO.P,U1,102,ETH_TXD1/PB13*
G04 #@! TO.N,unconnected-(U1-ETH_TXD1{slash}PB13-Pad102)*
X58840000Y3260000D03*
G04 #@! TO.P,U1,103,SWO/PB3*
G04 #@! TO.N,unconnected-(U1-SWO{slash}PB3-Pad103)*
X56300000Y5800000D03*
G04 #@! TO.P,U1,104,AGND*
G04 #@! TO.N,unconnected-(U1-AGND-Pad104)*
X56300000Y3260000D03*
G04 #@! TO.P,U1,105,USB_ID/PA10*
G04 #@! TO.N,unconnected-(U1-USB_ID{slash}PA10-Pad105)*
X53760000Y5800000D03*
G04 #@! TO.P,U1,106,ETH_RXD0/PC4*
G04 #@! TO.N,unconnected-(U1-ETH_RXD0{slash}PC4-Pad106)*
X53760000Y3260000D03*
G04 #@! TO.P,U1,107,PA2*
G04 #@! TO.N,unconnected-(U1-PA2-Pad107)*
X51220000Y5800000D03*
G04 #@! TO.P,U1,108,PF5*
G04 #@! TO.N,unconnected-(U1-PF5-Pad108)*
X51220000Y3260000D03*
G04 #@! TO.P,U1,109,PA3*
G04 #@! TO.N,T_CS*
X48680000Y5800000D03*
G04 #@! TO.P,U1,110,PF4*
G04 #@! TO.N,unconnected-(U1-PF4-Pad110)*
X48680000Y3260000D03*
G04 #@! TO.P,U1,111,GND*
G04 #@! TO.N,GND*
X46140000Y5800000D03*
G04 #@! TO.P,U1,112,PE8*
G04 #@! TO.N,D5*
X46140000Y3260000D03*
G04 #@! TO.P,U1,113,PD13*
G04 #@! TO.N,unconnected-(U1-PD13-Pad113)*
X43600000Y5800000D03*
G04 #@! TO.P,U1,114,PF10*
G04 #@! TO.N,unconnected-(U1-PF10-Pad114)*
X43600000Y3260000D03*
G04 #@! TO.P,U1,115,PD12*
G04 #@! TO.N,unconnected-(U1-PD12-Pad115)*
X41060000Y5800000D03*
G04 #@! TO.P,U1,116,PE7*
G04 #@! TO.N,D4*
X41060000Y3260000D03*
G04 #@! TO.P,U1,117,PD11*
G04 #@! TO.N,LCD_RS*
X38520000Y5800000D03*
G04 #@! TO.P,U1,118,PD14*
G04 #@! TO.N,D0*
X38520000Y3260000D03*
G04 #@! TO.P,U1,119,PE10*
G04 #@! TO.N,D7*
X35980000Y5800000D03*
G04 #@! TO.P,U1,120,PD15*
G04 #@! TO.N,D1*
X35980000Y3260000D03*
G04 #@! TO.P,U1,121,PE12*
G04 #@! TO.N,D9*
X33440000Y5800000D03*
G04 #@! TO.P,U1,122,PF14*
G04 #@! TO.N,unconnected-(U1-PF14-Pad122)*
X33440000Y3260000D03*
G04 #@! TO.P,U1,123,PE14*
G04 #@! TO.N,D11*
X30900000Y5800000D03*
G04 #@! TO.P,U1,124,PE9*
G04 #@! TO.N,D6*
X30900000Y3260000D03*
G04 #@! TO.P,U1,125,PE15*
G04 #@! TO.N,D12*
X28360000Y5800000D03*
G04 #@! TO.P,U1,126,GND*
G04 #@! TO.N,GND*
X28360000Y3260000D03*
G04 #@! TO.P,U1,127,PE13*
G04 #@! TO.N,D10*
X25820000Y5800000D03*
G04 #@! TO.P,U1,128,PE11*
G04 #@! TO.N,D8*
X25820000Y3260000D03*
G04 #@! TO.P,U1,129,PF13*
G04 #@! TO.N,unconnected-(U1-PF13-Pad129)*
X23280000Y5800000D03*
G04 #@! TO.P,U1,130,PF3*
G04 #@! TO.N,unconnected-(U1-PF3-Pad130)*
X23280000Y3260000D03*
G04 #@! TO.P,U1,131,PF12*
G04 #@! TO.N,unconnected-(U1-PF12-Pad131)*
X20740000Y5800000D03*
G04 #@! TO.P,U1,132,PF15*
G04 #@! TO.N,unconnected-(U1-PF15-Pad132)*
X20740000Y3260000D03*
G04 #@! TO.P,U1,133,PG14*
G04 #@! TO.N,unconnected-(U1-PG14-Pad133)*
X18200000Y5800000D03*
G04 #@! TO.P,U1,134,PF11*
G04 #@! TO.N,unconnected-(U1-PF11-Pad134)*
X18200000Y3260000D03*
G04 #@! TO.P,U1,135,GND*
G04 #@! TO.N,GND*
X15660000Y5800000D03*
G04 #@! TO.P,U1,136,PE0*
G04 #@! TO.N,unconnected-(U1-PE0-Pad136)*
X15660000Y3260000D03*
G04 #@! TO.P,U1,137,PD10*
G04 #@! TO.N,D15*
X13120000Y5800000D03*
G04 #@! TO.P,U1,138,PG8*
G04 #@! TO.N,unconnected-(U1-PG8-Pad138)*
X13120000Y3260000D03*
G04 #@! TO.P,U1,139,PG7/USB_GPIO_IN*
G04 #@! TO.N,unconnected-(U1-PG7{slash}USB_GPIO_IN-Pad139)*
X10580000Y5800000D03*
G04 #@! TO.P,U1,140,PG5*
G04 #@! TO.N,unconnected-(U1-PG5-Pad140)*
X10580000Y3260000D03*
G04 #@! TO.P,U1,141,PG4*
G04 #@! TO.N,unconnected-(U1-PG4-Pad141)*
X8040000Y5800000D03*
G04 #@! TO.P,U1,142,PG6/USB_GPIO_OUT*
G04 #@! TO.N,unconnected-(U1-PG6{slash}USB_GPIO_OUT-Pad142)*
X8040000Y3260000D03*
G04 #@! TO.P,U1,143,GND*
G04 #@! TO.N,GND*
X5500000Y5800000D03*
G04 #@! TO.P,U1,144,GND*
X5500000Y3260000D03*
G04 #@! TD*
D11*
G04 #@! TO.P,TFT1,1,NC*
G04 #@! TO.N,unconnected-(TFT1-NC-Pad1)*
X88160000Y59360000D03*
D12*
G04 #@! TO.P,TFT1,2,NC*
G04 #@! TO.N,unconnected-(TFT1-NC-Pad2)*
X90700000Y59360000D03*
G04 #@! TO.P,TFT1,3,NC*
G04 #@! TO.N,unconnected-(TFT1-NC-Pad3)*
X88160000Y56820000D03*
G04 #@! TO.P,TFT1,4,LED_A*
G04 #@! TO.N,LCD_BL*
X90700000Y56820000D03*
G04 #@! TO.P,TFT1,5,SD_CS*
G04 #@! TO.N,SD_CS*
X88160000Y54280000D03*
G04 #@! TO.P,TFT1,6,NC*
G04 #@! TO.N,unconnected-(TFT1-NC-Pad6)*
X90700000Y54280000D03*
G04 #@! TO.P,TFT1,7,SD_DIN*
G04 #@! TO.N,SD_MOSI*
X88160000Y51740000D03*
G04 #@! TO.P,TFT1,8,RESET*
G04 #@! TO.N,LCD_RST*
X90700000Y51740000D03*
G04 #@! TO.P,TFT1,9,SD_CLK*
G04 #@! TO.N,SD_CLK*
X88160000Y49200000D03*
G04 #@! TO.P,TFT1,10,F_CS*
G04 #@! TO.N,F_CS*
X90700000Y49200000D03*
G04 #@! TO.P,TFT1,11,SD_DO*
G04 #@! TO.N,SD_MISO*
X88160000Y46660000D03*
G04 #@! TO.P,TFT1,12,CS*
G04 #@! TO.N,LCD_CS*
X90700000Y46660000D03*
G04 #@! TO.P,TFT1,13,T_IRQ*
G04 #@! TO.N,PEN*
X88160000Y44120000D03*
G04 #@! TO.P,TFT1,14,DB15*
G04 #@! TO.N,D15*
X90700000Y44120000D03*
G04 #@! TO.P,TFT1,15,T_DO*
G04 #@! TO.N,SPI_MISO*
X88160000Y41580000D03*
G04 #@! TO.P,TFT1,16,DB14*
G04 #@! TO.N,D14*
X90700000Y41580000D03*
G04 #@! TO.P,TFT1,17,NC*
G04 #@! TO.N,unconnected-(TFT1-NC-Pad17)*
X88160000Y39040000D03*
G04 #@! TO.P,TFT1,18,DB13*
G04 #@! TO.N,D13*
X90700000Y39040000D03*
G04 #@! TO.P,TFT1,19,T_DIN*
G04 #@! TO.N,SPI_MOSI*
X88160000Y36500000D03*
G04 #@! TO.P,TFT1,20,DB12*
G04 #@! TO.N,D12*
X90700000Y36500000D03*
G04 #@! TO.P,TFT1,21,T_CS*
G04 #@! TO.N,T_CS*
X88160000Y33960000D03*
G04 #@! TO.P,TFT1,22,DB11*
G04 #@! TO.N,D11*
X90700000Y33960000D03*
G04 #@! TO.P,TFT1,23,T_CLK*
G04 #@! TO.N,SPI_CLK*
X88160000Y31420000D03*
G04 #@! TO.P,TFT1,24,DB10*
G04 #@! TO.N,D10*
X90700000Y31420000D03*
G04 #@! TO.P,TFT1,25,DB7*
G04 #@! TO.N,D7*
X88160000Y28880000D03*
G04 #@! TO.P,TFT1,26,DB9*
G04 #@! TO.N,D9*
X90700000Y28880000D03*
G04 #@! TO.P,TFT1,27,DB6*
G04 #@! TO.N,D6*
X88160000Y26340000D03*
G04 #@! TO.P,TFT1,28,DB8*
G04 #@! TO.N,D8*
X90700000Y26340000D03*
G04 #@! TO.P,TFT1,29,DB5*
G04 #@! TO.N,D5*
X88160000Y23800000D03*
G04 #@! TO.P,TFT1,30,RD*
G04 #@! TO.N,LCD_RD*
X90700000Y23800000D03*
G04 #@! TO.P,TFT1,31,DB4*
G04 #@! TO.N,D4*
X88160000Y21260000D03*
G04 #@! TO.P,TFT1,32,WR*
G04 #@! TO.N,LCD_WR*
X90700000Y21260000D03*
G04 #@! TO.P,TFT1,33,DB3*
G04 #@! TO.N,D3*
X88160000Y18720000D03*
G04 #@! TO.P,TFT1,34,RS*
G04 #@! TO.N,LCD_RS*
X90700000Y18720000D03*
G04 #@! TO.P,TFT1,35,DB2*
G04 #@! TO.N,D2*
X88160000Y16180000D03*
G04 #@! TO.P,TFT1,36,NC*
G04 #@! TO.N,unconnected-(TFT1-NC-Pad36)*
X90700000Y16180000D03*
G04 #@! TO.P,TFT1,37,DB1*
G04 #@! TO.N,D1*
X88160000Y13640000D03*
G04 #@! TO.P,TFT1,38,3.3V*
G04 #@! TO.N,3.3V*
X90700000Y13640000D03*
G04 #@! TO.P,TFT1,39,DB0*
G04 #@! TO.N,D0*
X88160000Y11100000D03*
G04 #@! TO.P,TFT1,40,GND*
G04 #@! TO.N,GND*
X90700000Y11100000D03*
G04 #@! TD*
D13*
G04 #@! TO.P,C2,1*
G04 #@! TO.N,3.3V*
X65400000Y51925000D03*
G04 #@! TO.P,C2,2*
G04 #@! TO.N,GND*
X65400000Y55000000D03*
G04 #@! TD*
D14*
G04 #@! TO.P,C1,1*
G04 #@! TO.N,5V*
X73100000Y60400000D03*
G04 #@! TO.P,C1,2*
G04 #@! TO.N,GND*
X70025000Y60400000D03*
G04 #@! TD*
D15*
G04 #@! TO.P,U2,1,GND*
G04 #@! TO.N,GND*
X69310000Y56290000D03*
G04 #@! TO.P,U2,2,VO*
G04 #@! TO.N,3.3V*
X71610000Y56290000D03*
D16*
X71610000Y49990000D03*
D15*
G04 #@! TO.P,U2,3,VI*
G04 #@! TO.N,5V*
X73910000Y56290000D03*
G04 #@! TD*
D17*
G04 #@! TO.N,LCD_RD*
X47480000Y22650500D03*
G04 #@! TO.N,LCD_WR*
X43670000Y20110500D03*
G04 #@! TO.N,LCD_CS*
X37320000Y45545000D03*
G04 #@! TO.N,LCD_RST*
X85427600Y52479200D03*
G04 #@! TO.N,LCD_RS*
X40000000Y17329500D03*
G04 #@! TO.N,LCD_BL*
X83040000Y58245000D03*
G04 #@! TO.N,GND*
X66000000Y61000000D03*
X85580000Y9604000D03*
X15730000Y56340000D03*
X72626000Y41354000D03*
X61000000Y54000000D03*
X96000000Y19000000D03*
X5000000Y53000000D03*
X77000000Y61000000D03*
X72626000Y38052000D03*
X46718000Y8842000D03*
X18270000Y22050000D03*
X5000000Y18000000D03*
X72626000Y9604000D03*
X78000000Y54000000D03*
X96000000Y53000000D03*
G04 #@! TO.N,SPI_MISO*
X79230000Y41100000D03*
G04 #@! TO.N,SPI_MOSI*
X58910000Y36655000D03*
G04 #@! TO.N,PEN*
X47480000Y44275000D03*
G04 #@! TO.N,F_CS*
X66530000Y46815000D03*
G04 #@! TO.N,T_CS*
X49000000Y34000000D03*
G04 #@! TO.N,SPI_CLK*
X81770000Y31575000D03*
G04 #@! TO.N,SD_CS*
X83040000Y49355000D03*
G04 #@! TO.N,D0*
X39000000Y11000000D03*
G04 #@! TO.N,D1*
X35000000Y13000000D03*
G04 #@! TO.N,D2*
X22000000Y17000000D03*
G04 #@! TO.N,D3*
X25000000Y19000000D03*
G04 #@! TO.N,D4*
X42000000Y21000000D03*
G04 #@! TO.N,D5*
X46000000Y24000000D03*
G04 #@! TO.N,D6*
X30000000Y26000000D03*
G04 #@! TO.N,D7*
X38000000Y29000000D03*
G04 #@! TO.N,D8*
X23350000Y24590000D03*
G04 #@! TO.N,D9*
X33510000Y27765000D03*
G04 #@! TO.N,D10*
X25890000Y30305000D03*
G04 #@! TO.N,D11*
X30970000Y32845000D03*
G04 #@! TO.N,D12*
X28430000Y34750000D03*
G04 #@! TO.N,D13*
X83040000Y37925000D03*
G04 #@! TO.N,D14*
X9380000Y39830000D03*
G04 #@! TO.N,D15*
X13190000Y43005000D03*
G04 #@! TO.N,SD_MOSI*
X90660000Y62055000D03*
G04 #@! TO.N,SD_CLK*
X85326000Y50294800D03*
G04 #@! TO.N,SD_MISO*
X85326000Y46637200D03*
G04 #@! TO.N,3.3V*
X62000000Y9000000D03*
X62000000Y49000000D03*
G04 #@! TD*
D18*
G04 #@! TO.N,5V*
X73910000Y59590000D02*
X73910000Y56290000D01*
X74080000Y64220000D02*
X74080000Y61380000D01*
X74080000Y61380000D02*
X73100000Y60400000D01*
X73100000Y60400000D02*
X73910000Y59590000D01*
D19*
G04 #@! TO.N,LCD_RD*
X89450000Y22550000D02*
X47580500Y22550000D01*
X90700000Y23800000D02*
X89450000Y22550000D01*
X47580500Y22550000D02*
X47480000Y22650500D01*
G04 #@! TO.N,LCD_WR*
X90700000Y21260000D02*
X89450000Y20010000D01*
X43770500Y20010000D02*
X43670000Y20110500D01*
X89450000Y20010000D02*
X43770500Y20010000D01*
G04 #@! TO.N,LCD_CS*
X48011346Y45370000D02*
X47836346Y45545000D01*
X90700000Y46660000D02*
X89410000Y45370000D01*
X89410000Y45370000D02*
X48011346Y45370000D01*
X47836346Y45545000D02*
X37320000Y45545000D01*
G04 #@! TO.N,LCD_RST*
X87416800Y50490000D02*
X89450000Y50490000D01*
X85427600Y52479200D02*
X87416800Y50490000D01*
X89450000Y50490000D02*
X90700000Y51740000D01*
G04 #@! TO.N,LCD_RS*
X89450000Y17470000D02*
X40140500Y17470000D01*
X40140500Y17470000D02*
X40000000Y17329500D01*
X90700000Y18720000D02*
X89450000Y17470000D01*
G04 #@! TO.N,LCD_BL*
X89450000Y58070000D02*
X83215000Y58070000D01*
X90700000Y56820000D02*
X89450000Y58070000D01*
X83215000Y58070000D02*
X83040000Y58245000D01*
G04 #@! TO.N,SPI_MISO*
X79710000Y41580000D02*
X79230000Y41100000D01*
X88160000Y41580000D02*
X79710000Y41580000D01*
G04 #@! TO.N,SPI_MOSI*
X88160000Y36500000D02*
X59065000Y36500000D01*
X59065000Y36500000D02*
X58910000Y36655000D01*
G04 #@! TO.N,PEN*
X47635000Y44120000D02*
X47480000Y44275000D01*
X88160000Y44120000D02*
X47635000Y44120000D01*
G04 #@! TO.N,F_CS*
X82788800Y47910000D02*
X89410000Y47910000D01*
X89410000Y47910000D02*
X90700000Y49200000D01*
X81693800Y46815000D02*
X82788800Y47910000D01*
X66530000Y46815000D02*
X81693800Y46815000D01*
G04 #@! TO.N,T_CS*
X88160000Y33960000D02*
X49040000Y33960000D01*
X49040000Y33960000D02*
X49000000Y34000000D01*
G04 #@! TO.N,SPI_CLK*
X81770000Y31575000D02*
X81925000Y31420000D01*
X81925000Y31420000D02*
X88160000Y31420000D01*
G04 #@! TO.N,SD_CS*
X83040000Y52530000D02*
X83040000Y49355000D01*
X84790000Y54280000D02*
X83040000Y52530000D01*
X88160000Y54280000D02*
X84790000Y54280000D01*
G04 #@! TO.N,D0*
X39100000Y11100000D02*
X39000000Y11000000D01*
X88160000Y11100000D02*
X39100000Y11100000D01*
G04 #@! TO.N,D1*
X88160000Y13640000D02*
X35640000Y13640000D01*
X35640000Y13640000D02*
X35000000Y13000000D01*
G04 #@! TO.N,D2*
X88160000Y16180000D02*
X22820000Y16180000D01*
X22820000Y16180000D02*
X22000000Y17000000D01*
G04 #@! TO.N,D3*
X25280000Y18720000D02*
X25000000Y19000000D01*
X88160000Y18720000D02*
X25280000Y18720000D01*
G04 #@! TO.N,D4*
X42260000Y21260000D02*
X42000000Y21000000D01*
X88160000Y21260000D02*
X42260000Y21260000D01*
G04 #@! TO.N,D5*
X88160000Y23800000D02*
X46200000Y23800000D01*
X46200000Y23800000D02*
X46000000Y24000000D01*
G04 #@! TO.N,D6*
X30340000Y26340000D02*
X30000000Y26000000D01*
X88160000Y26340000D02*
X30340000Y26340000D01*
G04 #@! TO.N,D7*
X88160000Y28880000D02*
X38120000Y28880000D01*
X38120000Y28880000D02*
X38000000Y29000000D01*
G04 #@! TO.N,D8*
X90700000Y26340000D02*
X89450000Y25090000D01*
X89450000Y25090000D02*
X46536346Y25090000D01*
X31672009Y25190500D02*
X31071509Y24590000D01*
X31071509Y24590000D02*
X23350000Y24590000D01*
X46435846Y25190500D02*
X31672009Y25190500D01*
X46536346Y25090000D02*
X46435846Y25190500D01*
G04 #@! TO.N,D9*
X90700000Y28880000D02*
X89450000Y27630000D01*
X33645000Y27630000D02*
X33510000Y27765000D01*
X89450000Y27630000D02*
X33645000Y27630000D01*
G04 #@! TO.N,D10*
X90700000Y31420000D02*
X89450000Y30170000D01*
X26025000Y30170000D02*
X25890000Y30305000D01*
X89450000Y30170000D02*
X26025000Y30170000D01*
G04 #@! TO.N,D11*
X82905000Y32710000D02*
X82770000Y32845000D01*
X89450000Y32710000D02*
X82905000Y32710000D01*
X82770000Y32845000D02*
X30970000Y32845000D01*
X90700000Y33960000D02*
X89450000Y32710000D01*
G04 #@! TO.N,D12*
X89450000Y35250000D02*
X28930000Y35250000D01*
X28930000Y35250000D02*
X28430000Y34750000D01*
X90700000Y36500000D02*
X89450000Y35250000D01*
G04 #@! TO.N,D13*
X89450000Y37790000D02*
X83175000Y37790000D01*
X90700000Y39040000D02*
X89450000Y37790000D01*
X83175000Y37790000D02*
X83040000Y37925000D01*
G04 #@! TO.N,D14*
X80086346Y40330000D02*
X79586346Y39830000D01*
X90700000Y41580000D02*
X89450000Y40330000D01*
X79586346Y39830000D02*
X9380000Y39830000D01*
X89450000Y40330000D02*
X80086346Y40330000D01*
G04 #@! TO.N,D15*
X13325000Y42870000D02*
X13190000Y43005000D01*
X90700000Y44120000D02*
X89450000Y42870000D01*
X89450000Y42870000D02*
X13325000Y42870000D01*
G04 #@! TO.N,SD_MOSI*
X91295000Y62055000D02*
X90660000Y62055000D01*
X89410000Y52990000D02*
X91177767Y52990000D01*
X92565000Y54377233D02*
X92565000Y60785000D01*
X88160000Y51740000D02*
X89410000Y52990000D01*
X92565000Y60785000D02*
X91295000Y62055000D01*
X91177767Y52990000D02*
X92565000Y54377233D01*
G04 #@! TO.N,SD_CLK*
X85326000Y50294800D02*
X86420800Y49200000D01*
X86420800Y49200000D02*
X88160000Y49200000D01*
G04 #@! TO.N,SD_MISO*
X88160000Y46660000D02*
X85348800Y46660000D01*
X85348800Y46660000D02*
X85326000Y46637200D01*
D18*
G04 #@! TO.N,3.3V*
X92085000Y13640000D02*
X93327000Y12398000D01*
X93327000Y12398000D02*
X93327000Y9327000D01*
X63000000Y8000000D02*
X62000000Y9000000D01*
X92000000Y8000000D02*
X63000000Y8000000D01*
X67335000Y49990000D02*
X71610000Y49990000D01*
X90700000Y13640000D02*
X92085000Y13640000D01*
X93327000Y9327000D02*
X92000000Y8000000D01*
X65400000Y51925000D02*
X67335000Y49990000D01*
X71610000Y56290000D02*
X71610000Y49990000D01*
G04 #@! TD*
G04 #@! TA.AperFunction,Conductor*
G04 #@! TO.N,GND*
G36*
X83658628Y7231789D02*
G01*
X83704248Y7183714D01*
X83718593Y7119010D01*
X83697564Y7056160D01*
X83647168Y7013118D01*
X83562422Y6973601D01*
X83478625Y6914928D01*
X84240000Y6153553D01*
X84240001Y6153553D01*
X85001373Y6914927D01*
X85001373Y6914928D01*
X84917580Y6973600D01*
X84832832Y7013118D01*
X84782436Y7056160D01*
X84761407Y7119010D01*
X84775752Y7183715D01*
X84821372Y7231789D01*
X84885237Y7249500D01*
X86133579Y7249500D01*
X86197444Y7231789D01*
X86243064Y7183715D01*
X86257409Y7119011D01*
X86236380Y7056161D01*
X86185984Y7013118D01*
X86102170Y6974035D01*
X85908598Y6838495D01*
X85741508Y6671405D01*
X85741507Y6671403D01*
X85741505Y6671401D01*
X85611271Y6485406D01*
X85611270Y6485405D01*
X85566952Y6446540D01*
X85509695Y6432529D01*
X85452438Y6446540D01*
X85408120Y6485405D01*
X85354925Y6561374D01*
X85354925Y6561375D01*
X84593553Y5800000D01*
X85354925Y5038627D01*
X85408119Y5114595D01*
X85452437Y5153461D01*
X85509694Y5167472D01*
X85566951Y5153461D01*
X85611267Y5114598D01*
X85741505Y4928599D01*
X85908599Y4761505D01*
X86094160Y4631574D01*
X86133024Y4587257D01*
X86147035Y4530000D01*
X86133024Y4472743D01*
X86094159Y4428425D01*
X85908595Y4298492D01*
X85741505Y4131402D01*
X85611575Y3945841D01*
X85567257Y3906975D01*
X85510000Y3892964D01*
X85452743Y3906975D01*
X85408425Y3945841D01*
X85278494Y4131402D01*
X85111404Y4298492D01*
X85111401Y4298495D01*
X84925402Y4428733D01*
X84886539Y4473049D01*
X84872528Y4530306D01*
X84886539Y4587563D01*
X84925405Y4631881D01*
X85001373Y4685075D01*
X84240000Y5446447D01*
X83478625Y4685075D01*
X83554594Y4631881D01*
X83593460Y4587563D01*
X83607471Y4530306D01*
X83593461Y4473050D01*
X83554595Y4428731D01*
X83368595Y4298492D01*
X83201505Y4131402D01*
X83071575Y3945841D01*
X83027257Y3906975D01*
X82970000Y3892964D01*
X82912743Y3906975D01*
X82868425Y3945841D01*
X82738494Y4131402D01*
X82571404Y4298492D01*
X82571401Y4298495D01*
X82385839Y4428427D01*
X82346974Y4472745D01*
X82332964Y4530001D01*
X82346975Y4587258D01*
X82385837Y4631572D01*
X82571401Y4761505D01*
X82738495Y4928599D01*
X82868732Y5114598D01*
X82913048Y5153461D01*
X82970305Y5167472D01*
X83027562Y5153461D01*
X83071880Y5114595D01*
X83125073Y5038627D01*
X83886447Y5799999D01*
X83886447Y5800001D01*
X83125073Y6561374D01*
X83071881Y6485406D01*
X83027563Y6446540D01*
X82970306Y6432529D01*
X82913048Y6446540D01*
X82868730Y6485405D01*
X82738495Y6671401D01*
X82571401Y6838495D01*
X82377830Y6974035D01*
X82294015Y7013119D01*
X82243620Y7056160D01*
X82222591Y7119010D01*
X82236936Y7183715D01*
X82282556Y7231789D01*
X82346421Y7249500D01*
X83594763Y7249500D01*
X83658628Y7231789D01*
G37*
G04 #@! TD.AperFunction*
G04 #@! TA.AperFunction,Conductor*
G36*
X91904445Y12759188D02*
G01*
X92540181Y12123452D01*
X92567061Y12083224D01*
X92576500Y12035771D01*
X92576500Y9689229D01*
X92567061Y9641776D01*
X92540181Y9601548D01*
X91725451Y8786819D01*
X91685223Y8759939D01*
X91637770Y8750500D01*
X63368771Y8750500D01*
X63303674Y8768962D01*
X63257961Y8818849D01*
X63245243Y8885307D01*
X63255277Y9000001D01*
X63240883Y9164533D01*
X63236207Y9217977D01*
X63179575Y9429330D01*
X63087102Y9627638D01*
X62961598Y9806877D01*
X62806877Y9961598D01*
X62627639Y10087102D01*
X62464621Y10163119D01*
X62414226Y10206160D01*
X62393197Y10269010D01*
X62407542Y10333715D01*
X62453162Y10381789D01*
X62517027Y10399500D01*
X86937289Y10399500D01*
X86994546Y10385489D01*
X87038863Y10346624D01*
X87121505Y10228599D01*
X87288599Y10061505D01*
X87482170Y9925965D01*
X87696337Y9826097D01*
X87924592Y9764937D01*
X88160000Y9744341D01*
X88395408Y9764937D01*
X88623663Y9826097D01*
X88837830Y9925965D01*
X89031401Y10061505D01*
X89198495Y10228599D01*
X89328732Y10414598D01*
X89373048Y10453461D01*
X89430305Y10467472D01*
X89487562Y10453461D01*
X89531880Y10414596D01*
X89661893Y10228919D01*
X89828918Y10061894D01*
X90022423Y9926400D01*
X90236507Y9826570D01*
X90449999Y9769365D01*
X90450000Y9769364D01*
X90450000Y10850000D01*
X90950000Y10850000D01*
X90950000Y9769365D01*
X91163492Y9826570D01*
X91377576Y9926400D01*
X91571081Y10061894D01*
X91738106Y10228919D01*
X91873600Y10422424D01*
X91973430Y10636508D01*
X92030636Y10850000D01*
X90950000Y10850000D01*
X90450000Y10850000D01*
X90450000Y11226000D01*
X90466613Y11288000D01*
X90512000Y11333387D01*
X90574000Y11350000D01*
X92030636Y11350000D01*
X92030635Y11350001D01*
X91973430Y11563493D01*
X91873599Y11777579D01*
X91738109Y11971079D01*
X91571081Y12138107D01*
X91385404Y12268120D01*
X91346539Y12312438D01*
X91332528Y12369695D01*
X91346539Y12426952D01*
X91385402Y12471268D01*
X91571401Y12601505D01*
X91729086Y12759191D01*
X91784670Y12791282D01*
X91848857Y12791282D01*
X91904445Y12759188D01*
G37*
G04 #@! TD.AperFunction*
G04 #@! TA.AperFunction,Conductor*
G36*
X88107257Y66113025D02*
G01*
X88151573Y66074161D01*
X88281505Y65888599D01*
X88448599Y65721505D01*
X88634160Y65591574D01*
X88673024Y65547257D01*
X88687035Y65490000D01*
X88673024Y65432743D01*
X88634159Y65388425D01*
X88448595Y65258492D01*
X88281508Y65091405D01*
X88281505Y65091402D01*
X88281505Y65091401D01*
X88151271Y64905406D01*
X88151270Y64905405D01*
X88106952Y64866540D01*
X88049695Y64852529D01*
X87992438Y64866540D01*
X87948120Y64905405D01*
X87894925Y64981374D01*
X87894925Y64981375D01*
X87133553Y64220000D01*
X87894925Y63458627D01*
X87948119Y63534595D01*
X87992437Y63573461D01*
X88049694Y63587472D01*
X88106951Y63573461D01*
X88151267Y63534598D01*
X88281505Y63348599D01*
X88448599Y63181505D01*
X88642170Y63045965D01*
X88856337Y62946097D01*
X89082748Y62885431D01*
X89084592Y62884937D01*
X89319999Y62864341D01*
X89319999Y62864342D01*
X89320000Y62864341D01*
X89460026Y62876592D01*
X89528088Y62863055D01*
X89578218Y62815069D01*
X89594716Y62747663D01*
X89576190Y62693073D01*
X89577483Y62692470D01*
X89480425Y62484332D01*
X89423792Y62272975D01*
X89404722Y62055000D01*
X89423792Y61837026D01*
X89475480Y61644123D01*
X89480425Y61625670D01*
X89572898Y61427361D01*
X89698402Y61248123D01*
X89853123Y61093402D01*
X90032361Y60967898D01*
X90230670Y60875425D01*
X90237183Y60873680D01*
X90292770Y60841587D01*
X90324863Y60786000D01*
X90324865Y60721814D01*
X90292773Y60666226D01*
X90245864Y60639142D01*
X90246169Y60638488D01*
X90238704Y60635008D01*
X90237187Y60634131D01*
X90236336Y60633904D01*
X90022170Y60534035D01*
X89828601Y60398497D01*
X89706673Y60276569D01*
X89653926Y60245274D01*
X89592634Y60243085D01*
X89537789Y60270538D01*
X89502810Y60320918D01*
X89492063Y60349731D01*
X89453796Y60452331D01*
X89367546Y60567546D01*
X89252331Y60653796D01*
X89117483Y60704091D01*
X89057873Y60710500D01*
X89057869Y60710500D01*
X87262130Y60710500D01*
X87202515Y60704091D01*
X87067669Y60653796D01*
X86952454Y60567546D01*
X86866204Y60452332D01*
X86818605Y60324713D01*
X86815909Y60317483D01*
X86809500Y60257873D01*
X86809500Y59526294D01*
X86809501Y58894500D01*
X86792888Y58832500D01*
X86747501Y58787113D01*
X86685501Y58770500D01*
X84253726Y58770500D01*
X84187101Y58789920D01*
X84141344Y58842096D01*
X84127102Y58872638D01*
X84033480Y59006344D01*
X84001598Y59051877D01*
X83846877Y59206598D01*
X83667639Y59332102D01*
X83576205Y59374739D01*
X83469331Y59424575D01*
X83257974Y59481208D01*
X83040000Y59500278D01*
X82822025Y59481208D01*
X82610668Y59424575D01*
X82412361Y59332102D01*
X82233122Y59206598D01*
X82078402Y59051878D01*
X81952898Y58872639D01*
X81860425Y58674332D01*
X81803792Y58462975D01*
X81784722Y58245000D01*
X81803792Y58027026D01*
X81860425Y57815669D01*
X81875380Y57783598D01*
X81952898Y57617361D01*
X82078402Y57438123D01*
X82233123Y57283402D01*
X82412361Y57157898D01*
X82610670Y57065425D01*
X82822023Y57008793D01*
X83040000Y56989723D01*
X83257977Y57008793D01*
X83469330Y57065425D01*
X83667639Y57157898D01*
X83846877Y57283402D01*
X83896656Y57333182D01*
X83936884Y57360061D01*
X83984337Y57369500D01*
X86747497Y57369500D01*
X86802341Y57356712D01*
X86845873Y57320986D01*
X86869114Y57269691D01*
X86867272Y57213407D01*
X86824936Y57055408D01*
X86804340Y56820000D01*
X86824936Y56584593D01*
X86836885Y56540000D01*
X86886097Y56356337D01*
X86985965Y56142170D01*
X87121505Y55948599D01*
X87288599Y55781505D01*
X87474160Y55651574D01*
X87513024Y55607257D01*
X87527035Y55550000D01*
X87513024Y55492743D01*
X87474159Y55448425D01*
X87288595Y55318492D01*
X87121505Y55151402D01*
X87038864Y55033377D01*
X86994546Y54994511D01*
X86937289Y54980500D01*
X84814921Y54980500D01*
X84807434Y54980726D01*
X84747391Y54984359D01*
X84688227Y54973517D01*
X84680828Y54972390D01*
X84621124Y54965140D01*
X84611651Y54961547D01*
X84590047Y54955524D01*
X84580069Y54953695D01*
X84525225Y54929013D01*
X84518310Y54926149D01*
X84462070Y54904819D01*
X84453723Y54899057D01*
X84434187Y54888039D01*
X84424944Y54883879D01*
X84377608Y54846795D01*
X84371582Y54842361D01*
X84322072Y54808184D01*
X84282184Y54763162D01*
X84277052Y54757711D01*
X82562290Y53042949D01*
X82556838Y53037817D01*
X82511816Y52997930D01*
X82477649Y52948432D01*
X82473213Y52942403D01*
X82436121Y52895058D01*
X82431961Y52885814D01*
X82420941Y52866275D01*
X82415182Y52857931D01*
X82393853Y52801695D01*
X82390989Y52794781D01*
X82366303Y52739930D01*
X82364475Y52729953D01*
X82358454Y52708352D01*
X82354859Y52698872D01*
X82347609Y52639173D01*
X82346483Y52631774D01*
X82335641Y52572609D01*
X82339274Y52512566D01*
X82339500Y52505079D01*
X82339500Y50455634D01*
X82325489Y50398377D01*
X82286625Y50354062D01*
X82233123Y50316598D01*
X82233119Y50316595D01*
X82078402Y50161878D01*
X81952898Y49982639D01*
X81860425Y49784332D01*
X81803792Y49572975D01*
X81784722Y49355000D01*
X81803792Y49137026D01*
X81860425Y48925669D01*
X81908683Y48822181D01*
X81952898Y48727361D01*
X82078402Y48548123D01*
X82078405Y48548121D01*
X82078405Y48548120D01*
X82169652Y48456873D01*
X82201746Y48401286D01*
X82201746Y48337099D01*
X82169652Y48281511D01*
X81666641Y47778499D01*
X81607907Y47745606D01*
X81540642Y47748249D01*
X81484669Y47785649D01*
X81456487Y47846783D01*
X81464398Y47913631D01*
X81471662Y47931166D01*
X81488275Y47993166D01*
X81505500Y48124000D01*
X81505500Y51876000D01*
X81488275Y52006834D01*
X81471662Y52068834D01*
X81421163Y52190750D01*
X81411254Y52203664D01*
X81340829Y52295443D01*
X81295442Y52340830D01*
X81190749Y52421164D01*
X81068838Y52471661D01*
X81006830Y52488276D01*
X80876001Y52505500D01*
X80876000Y52505500D01*
X72484500Y52505500D01*
X72422500Y52522113D01*
X72377113Y52567500D01*
X72360500Y52629500D01*
X72360500Y54673024D01*
X72374969Y54731153D01*
X72414999Y54775716D01*
X72453177Y54789697D01*
X72452890Y54790466D01*
X72500394Y54808184D01*
X72602331Y54846204D01*
X72685689Y54908607D01*
X72733642Y54930506D01*
X72786358Y54930506D01*
X72834311Y54908606D01*
X72916879Y54846795D01*
X72917669Y54846204D01*
X73052517Y54795909D01*
X73112127Y54789500D01*
X74707872Y54789501D01*
X74767483Y54795909D01*
X74902331Y54846204D01*
X75017546Y54932454D01*
X75103796Y55047669D01*
X75154091Y55182517D01*
X75160500Y55242127D01*
X75160499Y57337872D01*
X75154091Y57397483D01*
X75103796Y57532331D01*
X75017546Y57647546D01*
X74902331Y57733796D01*
X74767483Y57784091D01*
X74752890Y57789534D01*
X74753177Y57790305D01*
X74715000Y57804284D01*
X74674969Y57848847D01*
X74660500Y57906976D01*
X74660500Y59526294D01*
X74661809Y59544264D01*
X74662367Y59548073D01*
X74665289Y59568023D01*
X74660972Y59617369D01*
X74660500Y59628176D01*
X74660500Y59633711D01*
X74656903Y59664479D01*
X74656536Y59668071D01*
X74649889Y59744051D01*
X74645672Y59763070D01*
X74619592Y59834726D01*
X74618408Y59838132D01*
X74594417Y59910532D01*
X74585929Y59928064D01*
X74585237Y59929116D01*
X74585237Y59929117D01*
X74543999Y59991816D01*
X74542087Y59994819D01*
X74502050Y60059730D01*
X74489750Y60074828D01*
X74434290Y60127152D01*
X74431703Y60129665D01*
X74299318Y60262050D01*
X74272438Y60302278D01*
X74262999Y60349731D01*
X74262999Y60450271D01*
X74272438Y60497724D01*
X74299318Y60537952D01*
X74415162Y60653796D01*
X74565641Y60804275D01*
X74579258Y60816043D01*
X74598530Y60830390D01*
X74630382Y60868351D01*
X74637668Y60876303D01*
X74641590Y60880223D01*
X74660863Y60904601D01*
X74663030Y60907261D01*
X74711302Y60964786D01*
X74711303Y60964790D01*
X74712119Y60965761D01*
X74722575Y60982175D01*
X74723109Y60983321D01*
X74723111Y60983323D01*
X74754816Y61051318D01*
X74756369Y61054525D01*
X74790040Y61121567D01*
X74790040Y61121571D01*
X74790610Y61122704D01*
X74796999Y61141083D01*
X74798853Y61150062D01*
X74812431Y61215829D01*
X74813186Y61219233D01*
X74830500Y61292279D01*
X74830500Y61292281D01*
X74830790Y61293505D01*
X74832769Y61312877D01*
X74832732Y61314141D01*
X74832733Y61314144D01*
X74830552Y61389111D01*
X74830500Y61392716D01*
X74830500Y63032299D01*
X74844511Y63089556D01*
X74883374Y63133873D01*
X74951401Y63181505D01*
X75118495Y63348599D01*
X75248426Y63534161D01*
X75292743Y63573025D01*
X75350000Y63587036D01*
X75407257Y63573025D01*
X75451573Y63534161D01*
X75581505Y63348599D01*
X75748599Y63181505D01*
X75942170Y63045965D01*
X76156337Y62946097D01*
X76384592Y62884937D01*
X76620000Y62864341D01*
X76855408Y62884937D01*
X77083663Y62946097D01*
X77297830Y63045965D01*
X77491401Y63181505D01*
X77658495Y63348599D01*
X77788426Y63534161D01*
X77832743Y63573025D01*
X77890000Y63587036D01*
X77947257Y63573025D01*
X77991573Y63534161D01*
X78121505Y63348599D01*
X78288599Y63181505D01*
X78482170Y63045965D01*
X78696337Y62946097D01*
X78924592Y62884937D01*
X79160000Y62864341D01*
X79395408Y62884937D01*
X79623663Y62946097D01*
X79837830Y63045965D01*
X80031401Y63181505D01*
X80198495Y63348599D01*
X80328426Y63534161D01*
X80372743Y63573025D01*
X80430000Y63587036D01*
X80487257Y63573025D01*
X80531573Y63534161D01*
X80661505Y63348599D01*
X80828599Y63181505D01*
X81022170Y63045965D01*
X81236337Y62946097D01*
X81464592Y62884937D01*
X81700000Y62864341D01*
X81935408Y62884937D01*
X82163663Y62946097D01*
X82377830Y63045965D01*
X82571401Y63181505D01*
X82738495Y63348599D01*
X82868426Y63534161D01*
X82912743Y63573025D01*
X82970000Y63587036D01*
X83027257Y63573025D01*
X83071573Y63534161D01*
X83201505Y63348599D01*
X83368599Y63181505D01*
X83562170Y63045965D01*
X83776337Y62946097D01*
X84004592Y62884937D01*
X84240000Y62864341D01*
X84475408Y62884937D01*
X84703663Y62946097D01*
X84917830Y63045965D01*
X85002248Y63105075D01*
X86018625Y63105075D01*
X86102420Y63046401D01*
X86316507Y62946570D01*
X86544681Y62885431D01*
X86780000Y62864843D01*
X87015318Y62885431D01*
X87243492Y62946570D01*
X87457576Y63046400D01*
X87541373Y63105075D01*
X86780000Y63866447D01*
X86018625Y63105075D01*
X85002248Y63105075D01*
X85111401Y63181505D01*
X85278495Y63348599D01*
X85408732Y63534598D01*
X85453048Y63573461D01*
X85510305Y63587472D01*
X85567562Y63573461D01*
X85611880Y63534595D01*
X85665073Y63458627D01*
X86426447Y64219999D01*
X86426447Y64220000D01*
X85665073Y64981374D01*
X85611881Y64905406D01*
X85567563Y64866540D01*
X85510306Y64852529D01*
X85453048Y64866540D01*
X85408730Y64905405D01*
X85278495Y65091401D01*
X85111401Y65258495D01*
X84925839Y65388427D01*
X84886974Y65432745D01*
X84872964Y65490001D01*
X84886975Y65547258D01*
X84925837Y65591572D01*
X85111401Y65721505D01*
X85278495Y65888599D01*
X85408426Y66074161D01*
X85452743Y66113025D01*
X85510000Y66127036D01*
X85567257Y66113025D01*
X85611573Y66074161D01*
X85741505Y65888599D01*
X85908599Y65721505D01*
X86094597Y65591268D01*
X86133460Y65546952D01*
X86147471Y65489694D01*
X86133460Y65432437D01*
X86094594Y65388119D01*
X86018626Y65334927D01*
X86780000Y64573553D01*
X86780001Y64573553D01*
X87541373Y65334927D01*
X87541373Y65334928D01*
X87465405Y65388120D01*
X87426539Y65432438D01*
X87412528Y65489695D01*
X87426539Y65546952D01*
X87465402Y65591268D01*
X87651401Y65721505D01*
X87818495Y65888599D01*
X87948426Y66074161D01*
X87992743Y66113025D01*
X88050000Y66127036D01*
X88107257Y66113025D01*
G37*
G04 #@! TD.AperFunction*
G04 #@! TA.AperFunction,Conductor*
G36*
X99737500Y69782887D02*
G01*
X99782887Y69737500D01*
X99799500Y69675500D01*
X99799500Y324500D01*
X99782887Y262500D01*
X99737500Y217113D01*
X99675500Y200500D01*
X324500Y200500D01*
X262500Y217113D01*
X217113Y262500D01*
X200500Y324500D01*
X200500Y2145075D01*
X4738625Y2145075D01*
X4822420Y2086401D01*
X5036507Y1986570D01*
X5264681Y1925431D01*
X5500000Y1904843D01*
X5735318Y1925431D01*
X5963492Y1986570D01*
X6177576Y2086400D01*
X6261373Y2145075D01*
X5500000Y2906447D01*
X4738625Y2145075D01*
X200500Y2145075D01*
X200500Y3260001D01*
X4144842Y3260001D01*
X4165430Y3024682D01*
X4226569Y2796508D01*
X4326400Y2582420D01*
X4385073Y2498627D01*
X5146447Y3259999D01*
X5853553Y3259999D01*
X6614925Y2498627D01*
X6668119Y2574595D01*
X6712437Y2613461D01*
X6769694Y2627472D01*
X6826951Y2613461D01*
X6871267Y2574598D01*
X7001505Y2388599D01*
X7168599Y2221505D01*
X7362170Y2085965D01*
X7576337Y1986097D01*
X7804592Y1924937D01*
X8040000Y1904341D01*
X8275408Y1924937D01*
X8503663Y1986097D01*
X8717830Y2085965D01*
X8911401Y2221505D01*
X9078495Y2388599D01*
X9208426Y2574161D01*
X9252743Y2613025D01*
X9310000Y2627036D01*
X9367257Y2613025D01*
X9411573Y2574161D01*
X9541505Y2388599D01*
X9708599Y2221505D01*
X9902170Y2085965D01*
X10116337Y1986097D01*
X10344592Y1924937D01*
X10580000Y1904341D01*
X10815408Y1924937D01*
X11043663Y1986097D01*
X11257830Y2085965D01*
X11451401Y2221505D01*
X11618495Y2388599D01*
X11748426Y2574161D01*
X11792743Y2613025D01*
X11850000Y2627036D01*
X11907257Y2613025D01*
X11951573Y2574161D01*
X12081505Y2388599D01*
X12248599Y2221505D01*
X12442170Y2085965D01*
X12656337Y1986097D01*
X12884592Y1924937D01*
X13120000Y1904341D01*
X13355408Y1924937D01*
X13583663Y1986097D01*
X13797830Y2085965D01*
X13991401Y2221505D01*
X14158495Y2388599D01*
X14288426Y2574161D01*
X14332743Y2613025D01*
X14390000Y2627036D01*
X14447257Y2613025D01*
X14491573Y2574161D01*
X14621505Y2388599D01*
X14788599Y2221505D01*
X14982170Y2085965D01*
X15196337Y1986097D01*
X15424592Y1924937D01*
X15660000Y1904341D01*
X15895408Y1924937D01*
X16123663Y1986097D01*
X16337830Y2085965D01*
X16531401Y2221505D01*
X16698495Y2388599D01*
X16828426Y2574161D01*
X16872743Y2613025D01*
X16930000Y2627036D01*
X16987257Y2613025D01*
X17031573Y2574161D01*
X17161505Y2388599D01*
X17328599Y2221505D01*
X17522170Y2085965D01*
X17736337Y1986097D01*
X17964592Y1924937D01*
X18200000Y1904341D01*
X18435408Y1924937D01*
X18663663Y1986097D01*
X18877830Y2085965D01*
X19071401Y2221505D01*
X19238495Y2388599D01*
X19368426Y2574161D01*
X19412743Y2613025D01*
X19470000Y2627036D01*
X19527257Y2613025D01*
X19571573Y2574161D01*
X19701505Y2388599D01*
X19868599Y2221505D01*
X20062170Y2085965D01*
X20276337Y1986097D01*
X20504592Y1924937D01*
X20740000Y1904341D01*
X20975408Y1924937D01*
X21203663Y1986097D01*
X21417830Y2085965D01*
X21611401Y2221505D01*
X21778495Y2388599D01*
X21908426Y2574161D01*
X21952743Y2613025D01*
X22010000Y2627036D01*
X22067257Y2613025D01*
X22111573Y2574161D01*
X22241505Y2388599D01*
X22408599Y2221505D01*
X22602170Y2085965D01*
X22816337Y1986097D01*
X23044592Y1924937D01*
X23280000Y1904341D01*
X23515408Y1924937D01*
X23743663Y1986097D01*
X23957830Y2085965D01*
X24151401Y2221505D01*
X24318495Y2388599D01*
X24448426Y2574161D01*
X24492743Y2613025D01*
X24550000Y2627036D01*
X24607257Y2613025D01*
X24651573Y2574161D01*
X24781505Y2388599D01*
X24948599Y2221505D01*
X25142170Y2085965D01*
X25356337Y1986097D01*
X25584592Y1924937D01*
X25820000Y1904341D01*
X26055408Y1924937D01*
X26283663Y1986097D01*
X26497830Y2085965D01*
X26582248Y2145075D01*
X27598625Y2145075D01*
X27682420Y2086401D01*
X27896507Y1986570D01*
X28124681Y1925431D01*
X28360000Y1904843D01*
X28595318Y1925431D01*
X28823492Y1986570D01*
X29037576Y2086400D01*
X29121373Y2145075D01*
X28360000Y2906447D01*
X27598625Y2145075D01*
X26582248Y2145075D01*
X26691401Y2221505D01*
X26858495Y2388599D01*
X26988732Y2574598D01*
X27033048Y2613461D01*
X27090305Y2627472D01*
X27147562Y2613461D01*
X27191880Y2574595D01*
X27245073Y2498627D01*
X28006447Y3259999D01*
X28006447Y3260001D01*
X27245073Y4021374D01*
X27191881Y3945406D01*
X27147563Y3906540D01*
X27090306Y3892529D01*
X27033048Y3906540D01*
X26988730Y3945405D01*
X26858495Y4131401D01*
X26691401Y4298495D01*
X26505839Y4428427D01*
X26466974Y4472745D01*
X26452964Y4530001D01*
X26466975Y4587258D01*
X26505837Y4631572D01*
X26691401Y4761505D01*
X26858495Y4928599D01*
X26988426Y5114161D01*
X27032743Y5153025D01*
X27090000Y5167036D01*
X27147257Y5153025D01*
X27191573Y5114161D01*
X27321505Y4928599D01*
X27488599Y4761505D01*
X27674597Y4631268D01*
X27713460Y4586952D01*
X27727471Y4529694D01*
X27713460Y4472437D01*
X27674594Y4428119D01*
X27598626Y4374927D01*
X28360000Y3613553D01*
X28360001Y3613553D01*
X29121373Y4374927D01*
X29121373Y4374928D01*
X29045405Y4428120D01*
X29006539Y4472438D01*
X28992528Y4529695D01*
X29006539Y4586952D01*
X29045402Y4631268D01*
X29231401Y4761505D01*
X29398495Y4928599D01*
X29528426Y5114161D01*
X29572743Y5153025D01*
X29630000Y5167036D01*
X29687257Y5153025D01*
X29731573Y5114161D01*
X29861505Y4928599D01*
X30028599Y4761505D01*
X30214160Y4631574D01*
X30253024Y4587257D01*
X30267035Y4530000D01*
X30253024Y4472743D01*
X30214159Y4428425D01*
X30028595Y4298492D01*
X29861508Y4131405D01*
X29861507Y4131403D01*
X29861505Y4131401D01*
X29731271Y3945406D01*
X29731270Y3945405D01*
X29686952Y3906540D01*
X29629695Y3892529D01*
X29572438Y3906540D01*
X29528120Y3945405D01*
X29474925Y4021374D01*
X29474925Y4021375D01*
X28713553Y3260000D01*
X28713553Y3259999D01*
X29474925Y2498627D01*
X29528119Y2574595D01*
X29572437Y2613461D01*
X29629694Y2627472D01*
X29686951Y2613461D01*
X29731267Y2574598D01*
X29861505Y2388599D01*
X30028599Y2221505D01*
X30222170Y2085965D01*
X30436337Y1986097D01*
X30664592Y1924937D01*
X30900000Y1904341D01*
X31135408Y1924937D01*
X31363663Y1986097D01*
X31577830Y2085965D01*
X31771401Y2221505D01*
X31938495Y2388599D01*
X32068426Y2574161D01*
X32112743Y2613025D01*
X32170000Y2627036D01*
X32227257Y2613025D01*
X32271573Y2574161D01*
X32401505Y2388599D01*
X32568599Y2221505D01*
X32762170Y2085965D01*
X32976337Y1986097D01*
X33204592Y1924937D01*
X33440000Y1904341D01*
X33675408Y1924937D01*
X33903663Y1986097D01*
X34117830Y2085965D01*
X34311401Y2221505D01*
X34478495Y2388599D01*
X34608426Y2574161D01*
X34652743Y2613025D01*
X34710000Y2627036D01*
X34767257Y2613025D01*
X34811573Y2574161D01*
X34941505Y2388599D01*
X35108599Y2221505D01*
X35302170Y2085965D01*
X35516337Y1986097D01*
X35744592Y1924937D01*
X35980000Y1904341D01*
X36215408Y1924937D01*
X36443663Y1986097D01*
X36657830Y2085965D01*
X36851401Y2221505D01*
X37018495Y2388599D01*
X37148426Y2574161D01*
X37192743Y2613025D01*
X37250000Y2627036D01*
X37307257Y2613025D01*
X37351573Y2574161D01*
X37481505Y2388599D01*
X37648599Y2221505D01*
X37842170Y2085965D01*
X38056337Y1986097D01*
X38284592Y1924937D01*
X38520000Y1904341D01*
X38755408Y1924937D01*
X38983663Y1986097D01*
X39197830Y2085965D01*
X39391401Y2221505D01*
X39558495Y2388599D01*
X39688426Y2574161D01*
X39732743Y2613025D01*
X39790000Y2627036D01*
X39847257Y2613025D01*
X39891573Y2574161D01*
X40021505Y2388599D01*
X40188599Y2221505D01*
X40382170Y2085965D01*
X40596337Y1986097D01*
X40824592Y1924937D01*
X41060000Y1904341D01*
X41295408Y1924937D01*
X41523663Y1986097D01*
X41737830Y2085965D01*
X41931401Y2221505D01*
X42098495Y2388599D01*
X42228426Y2574161D01*
X42272743Y2613025D01*
X42330000Y2627036D01*
X42387257Y2613025D01*
X42431573Y2574161D01*
X42561505Y2388599D01*
X42728599Y2221505D01*
X42922170Y2085965D01*
X43136337Y1986097D01*
X43364592Y1924937D01*
X43600000Y1904341D01*
X43835408Y1924937D01*
X44063663Y1986097D01*
X44277830Y2085965D01*
X44471401Y2221505D01*
X44638495Y2388599D01*
X44768426Y2574161D01*
X44812743Y2613025D01*
X44870000Y2627036D01*
X44927257Y2613025D01*
X44971573Y2574161D01*
X45101505Y2388599D01*
X45268599Y2221505D01*
X45462170Y2085965D01*
X45676337Y1986097D01*
X45904592Y1924937D01*
X46140000Y1904341D01*
X46375408Y1924937D01*
X46603663Y1986097D01*
X46817830Y2085965D01*
X47011401Y2221505D01*
X47178495Y2388599D01*
X47308426Y2574161D01*
X47352743Y2613025D01*
X47410000Y2627036D01*
X47467257Y2613025D01*
X47511573Y2574161D01*
X47641505Y2388599D01*
X47808599Y2221505D01*
X48002170Y2085965D01*
X48216337Y1986097D01*
X48444592Y1924937D01*
X48680000Y1904341D01*
X48915408Y1924937D01*
X49143663Y1986097D01*
X49357830Y2085965D01*
X49551401Y2221505D01*
X49718495Y2388599D01*
X49848426Y2574161D01*
X49892743Y2613025D01*
X49950000Y2627036D01*
X50007257Y2613025D01*
X50051573Y2574161D01*
X50181505Y2388599D01*
X50348599Y2221505D01*
X50542170Y2085965D01*
X50756337Y1986097D01*
X50984592Y1924937D01*
X51220000Y1904341D01*
X51455408Y1924937D01*
X51683663Y1986097D01*
X51897830Y2085965D01*
X52091401Y2221505D01*
X52258495Y2388599D01*
X52388426Y2574161D01*
X52432743Y2613025D01*
X52490000Y2627036D01*
X52547257Y2613025D01*
X52591573Y2574161D01*
X52721505Y2388599D01*
X52888599Y2221505D01*
X53082170Y2085965D01*
X53296337Y1986097D01*
X53524592Y1924937D01*
X53760000Y1904341D01*
X53995408Y1924937D01*
X54223663Y1986097D01*
X54437830Y2085965D01*
X54631401Y2221505D01*
X54798495Y2388599D01*
X54928426Y2574161D01*
X54972743Y2613025D01*
X55030000Y2627036D01*
X55087257Y2613025D01*
X55131573Y2574161D01*
X55261505Y2388599D01*
X55428599Y2221505D01*
X55622170Y2085965D01*
X55836337Y1986097D01*
X56064592Y1924937D01*
X56300000Y1904341D01*
X56535408Y1924937D01*
X56763663Y1986097D01*
X56977830Y2085965D01*
X57171401Y2221505D01*
X57338495Y2388599D01*
X57468426Y2574161D01*
X57512743Y2613025D01*
X57570000Y2627036D01*
X57627257Y2613025D01*
X57671573Y2574161D01*
X57801505Y2388599D01*
X57968599Y2221505D01*
X58162170Y2085965D01*
X58376337Y1986097D01*
X58604592Y1924937D01*
X58840000Y1904341D01*
X59075408Y1924937D01*
X59303663Y1986097D01*
X59517830Y2085965D01*
X59711401Y2221505D01*
X59878495Y2388599D01*
X60008426Y2574161D01*
X60052743Y2613025D01*
X60110000Y2627036D01*
X60167257Y2613025D01*
X60211573Y2574161D01*
X60341505Y2388599D01*
X60508599Y2221505D01*
X60702170Y2085965D01*
X60916337Y1986097D01*
X61144592Y1924937D01*
X61380000Y1904341D01*
X61615408Y1924937D01*
X61843663Y1986097D01*
X62057830Y2085965D01*
X62251401Y2221505D01*
X62418495Y2388599D01*
X62548426Y2574161D01*
X62592743Y2613025D01*
X62650000Y2627036D01*
X62707257Y2613025D01*
X62751573Y2574161D01*
X62881505Y2388599D01*
X63048599Y2221505D01*
X63242170Y2085965D01*
X63456337Y1986097D01*
X63684592Y1924937D01*
X63920000Y1904341D01*
X64155408Y1924937D01*
X64383663Y1986097D01*
X64597830Y2085965D01*
X64791401Y2221505D01*
X64958495Y2388599D01*
X65088426Y2574161D01*
X65132743Y2613025D01*
X65190000Y2627036D01*
X65247257Y2613025D01*
X65291573Y2574161D01*
X65421505Y2388599D01*
X65588599Y2221505D01*
X65782170Y2085965D01*
X65996337Y1986097D01*
X66224592Y1924937D01*
X66460000Y1904341D01*
X66695408Y1924937D01*
X66923663Y1986097D01*
X67137830Y2085965D01*
X67331401Y2221505D01*
X67498495Y2388599D01*
X67628426Y2574161D01*
X67672743Y2613025D01*
X67730000Y2627036D01*
X67787257Y2613025D01*
X67831573Y2574161D01*
X67961505Y2388599D01*
X68128599Y2221505D01*
X68322170Y2085965D01*
X68536337Y1986097D01*
X68764592Y1924937D01*
X69000000Y1904341D01*
X69235408Y1924937D01*
X69463663Y1986097D01*
X69677830Y2085965D01*
X69762248Y2145075D01*
X70778625Y2145075D01*
X70862420Y2086401D01*
X71076507Y1986570D01*
X71304681Y1925431D01*
X71540000Y1904843D01*
X71775318Y1925431D01*
X72003492Y1986570D01*
X72217576Y2086400D01*
X72301373Y2145075D01*
X71540000Y2906447D01*
X70778625Y2145075D01*
X69762248Y2145075D01*
X69871401Y2221505D01*
X70038495Y2388599D01*
X70168732Y2574598D01*
X70213048Y2613461D01*
X70270305Y2627472D01*
X70327562Y2613461D01*
X70371880Y2574595D01*
X70425073Y2498627D01*
X71186447Y3259999D01*
X71186447Y3260000D01*
X70425073Y4021374D01*
X70371881Y3945406D01*
X70327563Y3906540D01*
X70270306Y3892529D01*
X70213048Y3906540D01*
X70168730Y3945405D01*
X70038495Y4131401D01*
X69871401Y4298495D01*
X69685839Y4428427D01*
X69646974Y4472745D01*
X69632964Y4530001D01*
X69646975Y4587258D01*
X69685837Y4631572D01*
X69871401Y4761505D01*
X70038495Y4928599D01*
X70168426Y5114161D01*
X70212743Y5153025D01*
X70270000Y5167036D01*
X70327257Y5153025D01*
X70371573Y5114161D01*
X70501505Y4928599D01*
X70668599Y4761505D01*
X70854597Y4631268D01*
X70893460Y4586952D01*
X70907471Y4529694D01*
X70893460Y4472437D01*
X70854594Y4428119D01*
X70778626Y4374927D01*
X71540000Y3613553D01*
X71540001Y3613553D01*
X72301373Y4374927D01*
X72301373Y4374928D01*
X72225405Y4428120D01*
X72186539Y4472438D01*
X72172528Y4529695D01*
X72186539Y4586952D01*
X72225402Y4631268D01*
X72411401Y4761505D01*
X72578495Y4928599D01*
X72708426Y5114161D01*
X72752743Y5153025D01*
X72810000Y5167036D01*
X72867257Y5153025D01*
X72911573Y5114161D01*
X73041505Y4928599D01*
X73208599Y4761505D01*
X73394160Y4631574D01*
X73433024Y4587257D01*
X73447035Y4530000D01*
X73433024Y4472743D01*
X73394159Y4428425D01*
X73208595Y4298492D01*
X73041508Y4131405D01*
X73041507Y4131403D01*
X73041505Y4131401D01*
X72911271Y3945406D01*
X72911270Y3945405D01*
X72866952Y3906540D01*
X72809695Y3892529D01*
X72752438Y3906540D01*
X72708120Y3945405D01*
X72654925Y4021374D01*
X72654925Y4021375D01*
X71893553Y3260000D01*
X71893553Y3259999D01*
X72654925Y2498627D01*
X72708119Y2574595D01*
X72752437Y2613461D01*
X72809694Y2627472D01*
X72866951Y2613461D01*
X72911267Y2574598D01*
X73041505Y2388599D01*
X73208599Y2221505D01*
X73402170Y2085965D01*
X73616337Y1986097D01*
X73844592Y1924937D01*
X74080000Y1904341D01*
X74315408Y1924937D01*
X74543663Y1986097D01*
X74757830Y2085965D01*
X74951401Y2221505D01*
X75118495Y2388599D01*
X75248426Y2574161D01*
X75292743Y2613025D01*
X75350000Y2627036D01*
X75407257Y2613025D01*
X75451573Y2574161D01*
X75581505Y2388599D01*
X75748599Y2221505D01*
X75942170Y2085965D01*
X76156337Y1986097D01*
X76384592Y1924937D01*
X76620000Y1904341D01*
X76855408Y1924937D01*
X77083663Y1986097D01*
X77297830Y2085965D01*
X77491401Y2221505D01*
X77658495Y2388599D01*
X77788426Y2574161D01*
X77832743Y2613025D01*
X77890000Y2627036D01*
X77947257Y2613025D01*
X77991573Y2574161D01*
X78121505Y2388599D01*
X78288599Y2221505D01*
X78482170Y2085965D01*
X78696337Y1986097D01*
X78924592Y1924937D01*
X79160000Y1904341D01*
X79395408Y1924937D01*
X79623663Y1986097D01*
X79837830Y2085965D01*
X80031401Y2221505D01*
X80198495Y2388599D01*
X80328426Y2574161D01*
X80372743Y2613025D01*
X80430000Y2627036D01*
X80487257Y2613025D01*
X80531573Y2574161D01*
X80661505Y2388599D01*
X80828599Y2221505D01*
X81022170Y2085965D01*
X81236337Y1986097D01*
X81464592Y1924937D01*
X81700000Y1904341D01*
X81935408Y1924937D01*
X82163663Y1986097D01*
X82377830Y2085965D01*
X82571401Y2221505D01*
X82738495Y2388599D01*
X82868426Y2574161D01*
X82912743Y2613025D01*
X82970000Y2627036D01*
X83027257Y2613025D01*
X83071573Y2574161D01*
X83201505Y2388599D01*
X83368599Y2221505D01*
X83562170Y2085965D01*
X83776337Y1986097D01*
X84004592Y1924937D01*
X84240000Y1904341D01*
X84475408Y1924937D01*
X84703663Y1986097D01*
X84917830Y2085965D01*
X85111401Y2221505D01*
X85278495Y2388599D01*
X85408426Y2574161D01*
X85452743Y2613025D01*
X85510000Y2627036D01*
X85567257Y2613025D01*
X85611573Y2574161D01*
X85741505Y2388599D01*
X85908599Y2221505D01*
X86102170Y2085965D01*
X86316337Y1986097D01*
X86544592Y1924937D01*
X86780000Y1904341D01*
X87015408Y1924937D01*
X87243663Y1986097D01*
X87457830Y2085965D01*
X87651401Y2221505D01*
X87818495Y2388599D01*
X87948426Y2574161D01*
X87992743Y2613025D01*
X88050000Y2627036D01*
X88107257Y2613025D01*
X88151573Y2574161D01*
X88281505Y2388599D01*
X88448599Y2221505D01*
X88642170Y2085965D01*
X88856337Y1986097D01*
X89084592Y1924937D01*
X89320000Y1904341D01*
X89555408Y1924937D01*
X89783663Y1986097D01*
X89997830Y2085965D01*
X90191401Y2221505D01*
X90358495Y2388599D01*
X90488426Y2574161D01*
X90532743Y2613025D01*
X90590000Y2627036D01*
X90647257Y2613025D01*
X90691573Y2574161D01*
X90821505Y2388599D01*
X90988599Y2221505D01*
X91182170Y2085965D01*
X91396337Y1986097D01*
X91624592Y1924937D01*
X91860000Y1904341D01*
X92095408Y1924937D01*
X92323663Y1986097D01*
X92537830Y2085965D01*
X92731401Y2221505D01*
X92898495Y2388599D01*
X93028426Y2574161D01*
X93072743Y2613025D01*
X93130000Y2627036D01*
X93187257Y2613025D01*
X93231573Y2574161D01*
X93361505Y2388599D01*
X93528599Y2221505D01*
X93722170Y2085965D01*
X93936337Y1986097D01*
X94164592Y1924937D01*
X94400000Y1904341D01*
X94635408Y1924937D01*
X94863663Y1986097D01*
X95077830Y2085965D01*
X95271401Y2221505D01*
X95438495Y2388599D01*
X95574035Y2582170D01*
X95673903Y2796337D01*
X95735063Y3024592D01*
X95755659Y3260000D01*
X95735063Y3495408D01*
X95673903Y3723663D01*
X95574035Y3937829D01*
X95438495Y4131401D01*
X95271401Y4298495D01*
X95085839Y4428427D01*
X95046974Y4472745D01*
X95032964Y4530001D01*
X95046975Y4587258D01*
X95085837Y4631572D01*
X95271401Y4761505D01*
X95438495Y4928599D01*
X95574035Y5122170D01*
X95673903Y5336337D01*
X95735063Y5564592D01*
X95755659Y5800000D01*
X95735063Y6035408D01*
X95673903Y6263663D01*
X95574035Y6477829D01*
X95438495Y6671401D01*
X95271401Y6838495D01*
X95077830Y6974035D01*
X94863663Y7073903D01*
X94802501Y7090291D01*
X94635407Y7135064D01*
X94400000Y7155660D01*
X94164592Y7135064D01*
X93936336Y7073903D01*
X93722170Y6974035D01*
X93528598Y6838495D01*
X93361505Y6671402D01*
X93231575Y6485841D01*
X93187257Y6446975D01*
X93130000Y6432964D01*
X93072743Y6446975D01*
X93028425Y6485841D01*
X92898494Y6671402D01*
X92731404Y6838492D01*
X92731401Y6838495D01*
X92537830Y6974035D01*
X92323663Y7073903D01*
X92323660Y7073904D01*
X92318742Y7075222D01*
X92264181Y7106303D01*
X92231841Y7160127D01*
X92230017Y7222894D01*
X92259175Y7278506D01*
X92311835Y7312702D01*
X92319334Y7315186D01*
X92319336Y7315188D01*
X92320539Y7315586D01*
X92338063Y7324071D01*
X92339112Y7324762D01*
X92339117Y7324763D01*
X92401806Y7365995D01*
X92404798Y7367901D01*
X92468656Y7407288D01*
X92468656Y7407289D01*
X92469729Y7407950D01*
X92484824Y7420247D01*
X92485692Y7421168D01*
X92485696Y7421170D01*
X92537185Y7475747D01*
X92539631Y7478265D01*
X93812638Y8751273D01*
X93826256Y8763043D01*
X93845530Y8777390D01*
X93877382Y8815351D01*
X93884668Y8823303D01*
X93888590Y8827223D01*
X93907863Y8851601D01*
X93910030Y8854261D01*
X93958302Y8911786D01*
X93958303Y8911790D01*
X93959119Y8912761D01*
X93969575Y8929175D01*
X93970109Y8930321D01*
X93970111Y8930323D01*
X94001816Y8998318D01*
X94003369Y9001525D01*
X94037040Y9068567D01*
X94037040Y9068571D01*
X94037610Y9069704D01*
X94043999Y9088083D01*
X94044256Y9089327D01*
X94059431Y9162829D01*
X94060186Y9166233D01*
X94077500Y9239279D01*
X94077500Y9239281D01*
X94077790Y9240505D01*
X94079769Y9259877D01*
X94079732Y9261141D01*
X94079733Y9261144D01*
X94077552Y9336111D01*
X94077500Y9339716D01*
X94077500Y9690654D01*
X94092188Y9749194D01*
X94132774Y9793866D01*
X94189641Y9814086D01*
X94249318Y9805063D01*
X94297666Y9768936D01*
X94323231Y9714264D01*
X94340031Y9627639D01*
X94355462Y9548071D01*
X94443719Y9302336D01*
X94568460Y9072940D01*
X94726749Y8865285D01*
X94914887Y8684221D01*
X95076323Y8570670D01*
X95128456Y8534001D01*
X95254513Y8471586D01*
X95362453Y8418141D01*
X95611391Y8339360D01*
X95611392Y8339360D01*
X95611395Y8339359D01*
X95869445Y8299500D01*
X96065177Y8299500D01*
X96065179Y8299500D01*
X96089536Y8301371D01*
X96260344Y8314484D01*
X96514586Y8373979D01*
X96661384Y8433144D01*
X96756762Y8471584D01*
X96756764Y8471586D01*
X96756766Y8471586D01*
X96981208Y8605018D01*
X97182652Y8771148D01*
X97192347Y8782026D01*
X97227696Y8821691D01*
X97356375Y8966080D01*
X97498306Y9185247D01*
X97605118Y9423511D01*
X97674307Y9675287D01*
X97704252Y9934675D01*
X97694251Y10195593D01*
X97644538Y10451927D01*
X97556279Y10697668D01*
X97431541Y10927057D01*
X97431539Y10927061D01*
X97273250Y11134716D01*
X97085112Y11315780D01*
X96871546Y11465998D01*
X96637546Y11581860D01*
X96388608Y11660641D01*
X96227562Y11685516D01*
X96130555Y11700500D01*
X95934823Y11700500D01*
X95934821Y11700500D01*
X95739656Y11685516D01*
X95485412Y11626021D01*
X95243237Y11528417D01*
X95018791Y11394983D01*
X94817346Y11228852D01*
X94643622Y11033918D01*
X94501693Y10814753D01*
X94394881Y10576491D01*
X94325693Y10324717D01*
X94324682Y10315954D01*
X94302465Y10258189D01*
X94255097Y10218357D01*
X94194378Y10206380D01*
X94135432Y10225241D01*
X94092945Y10270243D01*
X94077500Y10330175D01*
X94077500Y12334294D01*
X94078809Y12352264D01*
X94079338Y12355882D01*
X94082289Y12376023D01*
X94077971Y12425367D01*
X94077500Y12436173D01*
X94077500Y12441708D01*
X94077500Y12441709D01*
X94073893Y12472564D01*
X94073537Y12476044D01*
X94066998Y12550797D01*
X94066888Y12552057D01*
X94062674Y12571064D01*
X94051595Y12601504D01*
X94036569Y12642789D01*
X94035422Y12646087D01*
X94011814Y12717335D01*
X94011812Y12717338D01*
X94011415Y12718537D01*
X94002929Y12736064D01*
X94002237Y12737116D01*
X94002237Y12737117D01*
X93961025Y12799776D01*
X93959106Y12802788D01*
X93919048Y12867733D01*
X93906750Y12882828D01*
X93851290Y12935152D01*
X93848703Y12937665D01*
X92660728Y14125640D01*
X92648946Y14139273D01*
X92634609Y14158531D01*
X92596666Y14190369D01*
X92588691Y14197677D01*
X92584782Y14201586D01*
X92584782Y14201587D01*
X92584777Y14201591D01*
X92560423Y14220848D01*
X92557647Y14223110D01*
X92499251Y14272110D01*
X92482821Y14282578D01*
X92413691Y14314814D01*
X92410447Y14316385D01*
X92342306Y14350606D01*
X92323903Y14357003D01*
X92249211Y14372426D01*
X92245692Y14373206D01*
X92171490Y14390792D01*
X92152121Y14392771D01*
X92075869Y14390552D01*
X92072263Y14390500D01*
X91887701Y14390500D01*
X91830444Y14404511D01*
X91786126Y14443377D01*
X91738494Y14511402D01*
X91571404Y14678492D01*
X91571401Y14678495D01*
X91385839Y14808427D01*
X91346976Y14852743D01*
X91332965Y14910000D01*
X91346976Y14967257D01*
X91385839Y15011574D01*
X91571401Y15141505D01*
X91738495Y15308599D01*
X91874035Y15502170D01*
X91973903Y15716337D01*
X92035063Y15944592D01*
X92055659Y16180000D01*
X92035063Y16415408D01*
X91973903Y16643663D01*
X91874035Y16857829D01*
X91738495Y17051401D01*
X91571401Y17218495D01*
X91385839Y17348427D01*
X91346974Y17392745D01*
X91332964Y17450001D01*
X91346975Y17507258D01*
X91385837Y17551572D01*
X91571401Y17681505D01*
X91738495Y17848599D01*
X91874035Y18042170D01*
X91973903Y18256337D01*
X92035063Y18484592D01*
X92055659Y18720000D01*
X92035063Y18955408D01*
X91973903Y19183663D01*
X91874035Y19397829D01*
X91738495Y19591401D01*
X91571401Y19758495D01*
X91385839Y19888427D01*
X91346974Y19932745D01*
X91332964Y19990001D01*
X91346975Y20047258D01*
X91385837Y20091572D01*
X91571401Y20221505D01*
X91738495Y20388599D01*
X91874035Y20582170D01*
X91973903Y20796337D01*
X92035063Y21024592D01*
X92055659Y21260000D01*
X92035063Y21495408D01*
X91973903Y21723663D01*
X91874035Y21937829D01*
X91738495Y22131401D01*
X91571401Y22298495D01*
X91385839Y22428427D01*
X91346975Y22472743D01*
X91332964Y22530000D01*
X91346975Y22587257D01*
X91385839Y22631574D01*
X91571401Y22761505D01*
X91738495Y22928599D01*
X91874035Y23122170D01*
X91973903Y23336337D01*
X92035063Y23564592D01*
X92055659Y23800000D01*
X92035063Y24035408D01*
X91973903Y24263663D01*
X91874035Y24477829D01*
X91738495Y24671401D01*
X91571401Y24838495D01*
X91385839Y24968427D01*
X91346974Y25012745D01*
X91332964Y25070001D01*
X91346975Y25127258D01*
X91385837Y25171572D01*
X91571401Y25301505D01*
X91738495Y25468599D01*
X91874035Y25662170D01*
X91973903Y25876337D01*
X92035063Y26104592D01*
X92055659Y26340000D01*
X92047843Y26429330D01*
X92035063Y26575408D01*
X92021068Y26627639D01*
X91973903Y26803663D01*
X91874035Y27017829D01*
X91738495Y27211401D01*
X91571401Y27378495D01*
X91385839Y27508427D01*
X91346975Y27552743D01*
X91332964Y27610000D01*
X91346975Y27667257D01*
X91385839Y27711574D01*
X91571401Y27841505D01*
X91738495Y28008599D01*
X91874035Y28202170D01*
X91973903Y28416337D01*
X92035063Y28644592D01*
X92055659Y28880000D01*
X92035063Y29115408D01*
X91973903Y29343663D01*
X91874035Y29557829D01*
X91738495Y29751401D01*
X91571401Y29918495D01*
X91385839Y30048427D01*
X91346976Y30092743D01*
X91332965Y30150000D01*
X91346976Y30207257D01*
X91385839Y30251574D01*
X91571401Y30381505D01*
X91738495Y30548599D01*
X91874035Y30742170D01*
X91973903Y30956337D01*
X92035063Y31184592D01*
X92055659Y31420000D01*
X92035063Y31655408D01*
X91973903Y31883663D01*
X91874035Y32097829D01*
X91738495Y32291401D01*
X91571401Y32458495D01*
X91385839Y32588427D01*
X91346975Y32632743D01*
X91332964Y32690000D01*
X91346975Y32747257D01*
X91385839Y32791574D01*
X91571401Y32921505D01*
X91738495Y33088599D01*
X91874035Y33282170D01*
X91973903Y33496337D01*
X92035063Y33724592D01*
X92055659Y33960000D01*
X92035063Y34195408D01*
X91973903Y34423663D01*
X91874035Y34637829D01*
X91738495Y34831401D01*
X91571401Y34998495D01*
X91385839Y35128427D01*
X91346974Y35172745D01*
X91332964Y35230001D01*
X91346975Y35287258D01*
X91385837Y35331572D01*
X91571401Y35461505D01*
X91738495Y35628599D01*
X91874035Y35822170D01*
X91973903Y36036337D01*
X92035063Y36264592D01*
X92055659Y36500000D01*
X92035063Y36735408D01*
X91973903Y36963663D01*
X91874035Y37177829D01*
X91738495Y37371401D01*
X91571401Y37538495D01*
X91385839Y37668427D01*
X91346975Y37712743D01*
X91332964Y37770000D01*
X91346975Y37827257D01*
X91385839Y37871574D01*
X91571401Y38001505D01*
X91738495Y38168599D01*
X91874035Y38362170D01*
X91973903Y38576337D01*
X92035063Y38804592D01*
X92055659Y39040000D01*
X92035063Y39275408D01*
X91973903Y39503663D01*
X91874035Y39717829D01*
X91738495Y39911401D01*
X91571401Y40078495D01*
X91385839Y40208427D01*
X91346975Y40252743D01*
X91332964Y40310000D01*
X91346975Y40367257D01*
X91385839Y40411574D01*
X91571401Y40541505D01*
X91738495Y40708599D01*
X91874035Y40902170D01*
X91973903Y41116337D01*
X92035063Y41344592D01*
X92055659Y41580000D01*
X92035063Y41815408D01*
X91973903Y42043663D01*
X91874035Y42257829D01*
X91738495Y42451401D01*
X91571401Y42618495D01*
X91385839Y42748427D01*
X91346975Y42792743D01*
X91332964Y42850000D01*
X91346975Y42907257D01*
X91385839Y42951574D01*
X91571401Y43081505D01*
X91738495Y43248599D01*
X91874035Y43442170D01*
X91973903Y43656337D01*
X92035063Y43884592D01*
X92055659Y44120000D01*
X92035063Y44355408D01*
X91973903Y44583663D01*
X91874035Y44797829D01*
X91738495Y44991401D01*
X91571401Y45158495D01*
X91385839Y45288427D01*
X91346975Y45332743D01*
X91332964Y45390000D01*
X91346975Y45447257D01*
X91385839Y45491574D01*
X91571401Y45621505D01*
X91738495Y45788599D01*
X91874035Y45982170D01*
X91973903Y46196337D01*
X92035063Y46424592D01*
X92055659Y46660000D01*
X92035063Y46895408D01*
X91973903Y47123663D01*
X91874035Y47337829D01*
X91738495Y47531401D01*
X91571401Y47698495D01*
X91385839Y47828427D01*
X91346976Y47872743D01*
X91332965Y47930000D01*
X91346976Y47987257D01*
X91385839Y48031574D01*
X91571401Y48161505D01*
X91738495Y48328599D01*
X91874035Y48522170D01*
X91973903Y48736337D01*
X92035063Y48964592D01*
X92055659Y49200000D01*
X92035063Y49435408D01*
X91973903Y49663663D01*
X91874035Y49877829D01*
X91738495Y50071401D01*
X91571401Y50238495D01*
X91385839Y50368427D01*
X91346975Y50412743D01*
X91332964Y50470000D01*
X91346975Y50527257D01*
X91385839Y50571574D01*
X91571401Y50701505D01*
X91738495Y50868599D01*
X91874035Y51062170D01*
X91973903Y51276337D01*
X92035063Y51504592D01*
X92055659Y51740000D01*
X92035063Y51975408D01*
X91973903Y52203663D01*
X91874035Y52417829D01*
X91831062Y52479201D01*
X91819313Y52495981D01*
X91798197Y52549133D01*
X91803182Y52606108D01*
X91833205Y52654783D01*
X93042731Y53864309D01*
X93048150Y53869410D01*
X93093183Y53909304D01*
X93127377Y53958844D01*
X93131770Y53964814D01*
X93168878Y54012177D01*
X93173035Y54021415D01*
X93184061Y54040965D01*
X93189818Y54049303D01*
X93211152Y54105559D01*
X93213994Y54112422D01*
X93238695Y54167302D01*
X93240522Y54177277D01*
X93246549Y54198894D01*
X93250140Y54208361D01*
X93257387Y54268054D01*
X93258514Y54275456D01*
X93269358Y54334627D01*
X93265726Y54394667D01*
X93265500Y54402154D01*
X93265500Y60065325D01*
X94295747Y60065325D01*
X94301681Y59910532D01*
X94305749Y59804407D01*
X94332886Y59664479D01*
X94355463Y59548070D01*
X94443719Y59302336D01*
X94568460Y59072940D01*
X94726749Y58865285D01*
X94914887Y58684221D01*
X95128453Y58534003D01*
X95128456Y58534001D01*
X95254513Y58471586D01*
X95362453Y58418141D01*
X95611391Y58339360D01*
X95611392Y58339360D01*
X95611395Y58339359D01*
X95869445Y58299500D01*
X96065177Y58299500D01*
X96065179Y58299500D01*
X96089536Y58301371D01*
X96260344Y58314484D01*
X96514586Y58373979D01*
X96735406Y58462977D01*
X96756762Y58471584D01*
X96756764Y58471586D01*
X96756766Y58471586D01*
X96981208Y58605018D01*
X97182652Y58771148D01*
X97356375Y58966080D01*
X97498306Y59185247D01*
X97564140Y59332102D01*
X97605118Y59423510D01*
X97674306Y59675284D01*
X97674307Y59675287D01*
X97704252Y59934675D01*
X97694251Y60195593D01*
X97644538Y60451927D01*
X97556279Y60697668D01*
X97431541Y60927057D01*
X97431539Y60927061D01*
X97273250Y61134716D01*
X97085112Y61315780D01*
X96871546Y61465998D01*
X96637546Y61581860D01*
X96388608Y61660641D01*
X96227562Y61685516D01*
X96130555Y61700500D01*
X95934823Y61700500D01*
X95934821Y61700500D01*
X95739656Y61685516D01*
X95485412Y61626021D01*
X95243237Y61528417D01*
X95018791Y61394983D01*
X94817346Y61228852D01*
X94643622Y61033918D01*
X94501693Y60814753D01*
X94394881Y60576491D01*
X94325693Y60324717D01*
X94295747Y60065325D01*
X93265500Y60065325D01*
X93265500Y60760090D01*
X93265726Y60767577D01*
X93267945Y60804268D01*
X93269357Y60827606D01*
X93258509Y60886799D01*
X93257392Y60894144D01*
X93250140Y60953872D01*
X93246546Y60963348D01*
X93240520Y60984964D01*
X93238694Y60994932D01*
X93213997Y61049805D01*
X93211155Y61056666D01*
X93189818Y61112930D01*
X93184058Y61121274D01*
X93173039Y61140810D01*
X93168878Y61150057D01*
X93165928Y61153822D01*
X93131785Y61197404D01*
X93127354Y61203423D01*
X93093183Y61252929D01*
X93048153Y61292822D01*
X93042715Y61297942D01*
X91840398Y62500259D01*
X91815697Y62535535D01*
X91747102Y62682638D01*
X91747100Y62682641D01*
X91744734Y62687715D01*
X91733588Y62750934D01*
X91755549Y62811255D01*
X91804731Y62852511D01*
X91849455Y62860389D01*
X91849192Y62863395D01*
X92051309Y62881079D01*
X92095408Y62884937D01*
X92323663Y62946097D01*
X92537830Y63045965D01*
X92731401Y63181505D01*
X92898495Y63348599D01*
X93028426Y63534161D01*
X93072743Y63573025D01*
X93130000Y63587036D01*
X93187257Y63573025D01*
X93231573Y63534161D01*
X93361505Y63348599D01*
X93528599Y63181505D01*
X93722170Y63045965D01*
X93936337Y62946097D01*
X94164592Y62884937D01*
X94400000Y62864341D01*
X94635408Y62884937D01*
X94863663Y62946097D01*
X95077830Y63045965D01*
X95271401Y63181505D01*
X95438495Y63348599D01*
X95574035Y63542170D01*
X95673903Y63756337D01*
X95735063Y63984592D01*
X95755659Y64220000D01*
X95735063Y64455408D01*
X95673903Y64683663D01*
X95574035Y64897829D01*
X95438495Y65091401D01*
X95271401Y65258495D01*
X95085839Y65388427D01*
X95046974Y65432745D01*
X95032964Y65490001D01*
X95046975Y65547258D01*
X95085837Y65591572D01*
X95271401Y65721505D01*
X95438495Y65888599D01*
X95574035Y66082170D01*
X95673903Y66296337D01*
X95735063Y66524592D01*
X95755659Y66760000D01*
X95735063Y66995408D01*
X95673903Y67223663D01*
X95574035Y67437829D01*
X95438495Y67631401D01*
X95271401Y67798495D01*
X95077830Y67934035D01*
X94863663Y68033903D01*
X94802501Y68050291D01*
X94635407Y68095064D01*
X94400000Y68115660D01*
X94164592Y68095064D01*
X93936336Y68033903D01*
X93722170Y67934035D01*
X93528598Y67798495D01*
X93361505Y67631402D01*
X93231575Y67445841D01*
X93187257Y67406975D01*
X93130000Y67392964D01*
X93072743Y67406975D01*
X93028425Y67445841D01*
X92898494Y67631402D01*
X92731404Y67798492D01*
X92731401Y67798495D01*
X92537830Y67934035D01*
X92323663Y68033903D01*
X92262501Y68050291D01*
X92095407Y68095064D01*
X91860000Y68115660D01*
X91624592Y68095064D01*
X91396336Y68033903D01*
X91182170Y67934035D01*
X90988598Y67798495D01*
X90821505Y67631402D01*
X90691575Y67445841D01*
X90647257Y67406975D01*
X90590000Y67392964D01*
X90532743Y67406975D01*
X90488425Y67445841D01*
X90358494Y67631402D01*
X90191404Y67798492D01*
X90191401Y67798495D01*
X89997830Y67934035D01*
X89783663Y68033903D01*
X89722501Y68050291D01*
X89555407Y68095064D01*
X89320000Y68115660D01*
X89084592Y68095064D01*
X88856336Y68033903D01*
X88642170Y67934035D01*
X88448598Y67798495D01*
X88281505Y67631402D01*
X88151575Y67445841D01*
X88107257Y67406975D01*
X88050000Y67392964D01*
X87992743Y67406975D01*
X87948425Y67445841D01*
X87818494Y67631402D01*
X87651404Y67798492D01*
X87651401Y67798495D01*
X87457830Y67934035D01*
X87243663Y68033903D01*
X87182501Y68050291D01*
X87015407Y68095064D01*
X86780000Y68115660D01*
X86544592Y68095064D01*
X86316336Y68033903D01*
X86102170Y67934035D01*
X85908598Y67798495D01*
X85741505Y67631402D01*
X85611575Y67445841D01*
X85567257Y67406975D01*
X85510000Y67392964D01*
X85452743Y67406975D01*
X85408425Y67445841D01*
X85278494Y67631402D01*
X85111404Y67798492D01*
X85111401Y67798495D01*
X84917830Y67934035D01*
X84703663Y68033903D01*
X84642501Y68050291D01*
X84475407Y68095064D01*
X84240000Y68115660D01*
X84004592Y68095064D01*
X83776336Y68033903D01*
X83562170Y67934035D01*
X83368598Y67798495D01*
X83201505Y67631402D01*
X83071575Y67445841D01*
X83027257Y67406975D01*
X82970000Y67392964D01*
X82912743Y67406975D01*
X82868425Y67445841D01*
X82738494Y67631402D01*
X82571404Y67798492D01*
X82571401Y67798495D01*
X82377830Y67934035D01*
X82163663Y68033903D01*
X82102501Y68050291D01*
X81935407Y68095064D01*
X81700000Y68115660D01*
X81464592Y68095064D01*
X81236336Y68033903D01*
X81022170Y67934035D01*
X80828598Y67798495D01*
X80661505Y67631402D01*
X80531575Y67445841D01*
X80487257Y67406975D01*
X80430000Y67392964D01*
X80372743Y67406975D01*
X80328425Y67445841D01*
X80198494Y67631402D01*
X80031404Y67798492D01*
X80031401Y67798495D01*
X79837830Y67934035D01*
X79623663Y68033903D01*
X79562501Y68050291D01*
X79395407Y68095064D01*
X79160000Y68115660D01*
X78924592Y68095064D01*
X78696336Y68033903D01*
X78482170Y67934035D01*
X78288598Y67798495D01*
X78121505Y67631402D01*
X77991575Y67445841D01*
X77947257Y67406975D01*
X77890000Y67392964D01*
X77832743Y67406975D01*
X77788425Y67445841D01*
X77658494Y67631402D01*
X77491404Y67798492D01*
X77491401Y67798495D01*
X77297830Y67934035D01*
X77083663Y68033903D01*
X77022501Y68050291D01*
X76855407Y68095064D01*
X76620000Y68115660D01*
X76384592Y68095064D01*
X76156336Y68033903D01*
X75942170Y67934035D01*
X75748598Y67798495D01*
X75581505Y67631402D01*
X75451575Y67445841D01*
X75407257Y67406975D01*
X75350000Y67392964D01*
X75292743Y67406975D01*
X75248425Y67445841D01*
X75118494Y67631402D01*
X74951404Y67798492D01*
X74951401Y67798495D01*
X74757830Y67934035D01*
X74543663Y68033903D01*
X74482501Y68050291D01*
X74315407Y68095064D01*
X74080000Y68115660D01*
X73844592Y68095064D01*
X73616336Y68033903D01*
X73402170Y67934035D01*
X73208598Y67798495D01*
X73041508Y67631405D01*
X73041505Y67631402D01*
X73041505Y67631401D01*
X72911271Y67445406D01*
X72911270Y67445405D01*
X72866952Y67406540D01*
X72809695Y67392529D01*
X72752438Y67406540D01*
X72708120Y67445405D01*
X72654925Y67521374D01*
X72654925Y67521375D01*
X71893553Y66760000D01*
X71893553Y66759999D01*
X72654925Y65998627D01*
X72708119Y66074595D01*
X72752437Y66113461D01*
X72809694Y66127472D01*
X72866951Y66113461D01*
X72911267Y66074598D01*
X73041505Y65888599D01*
X73208599Y65721505D01*
X73394160Y65591574D01*
X73433024Y65547257D01*
X73447035Y65490000D01*
X73433024Y65432743D01*
X73394159Y65388425D01*
X73208595Y65258492D01*
X73041508Y65091405D01*
X73041505Y65091402D01*
X73041505Y65091401D01*
X72911271Y64905406D01*
X72911270Y64905405D01*
X72866952Y64866540D01*
X72809695Y64852529D01*
X72752438Y64866540D01*
X72708120Y64905405D01*
X72654925Y64981374D01*
X72654925Y64981375D01*
X71893553Y64220000D01*
X71893553Y64219999D01*
X72654925Y63458627D01*
X72708119Y63534595D01*
X72752437Y63573461D01*
X72809694Y63587472D01*
X72866951Y63573461D01*
X72911267Y63534598D01*
X73041505Y63348599D01*
X73208599Y63181505D01*
X73276625Y63133873D01*
X73315489Y63089556D01*
X73329500Y63032299D01*
X73329500Y62199500D01*
X73312887Y62137500D01*
X73267500Y62092113D01*
X73205500Y62075500D01*
X72637491Y62075500D01*
X72534703Y62065000D01*
X72368165Y62009814D01*
X72218842Y61917712D01*
X72094788Y61793658D01*
X72002686Y61644335D01*
X71947500Y61477798D01*
X71937000Y61375010D01*
X71937000Y59424992D01*
X71947500Y59322204D01*
X72002686Y59155666D01*
X72094788Y59006343D01*
X72218842Y58882289D01*
X72234489Y58872638D01*
X72368166Y58790186D01*
X72479516Y58753288D01*
X72534702Y58735001D01*
X72544229Y58734028D01*
X72637491Y58724500D01*
X73035500Y58724501D01*
X73097500Y58707888D01*
X73142887Y58662501D01*
X73159500Y58600501D01*
X73159500Y57906976D01*
X73145031Y57848847D01*
X73105001Y57804284D01*
X73066822Y57790304D01*
X73067110Y57789534D01*
X72917669Y57733796D01*
X72834311Y57671394D01*
X72786358Y57649495D01*
X72733642Y57649495D01*
X72685689Y57671394D01*
X72602331Y57733796D01*
X72467483Y57784091D01*
X72407873Y57790500D01*
X72407869Y57790500D01*
X70812130Y57790500D01*
X70752515Y57784091D01*
X70617667Y57733796D01*
X70533892Y57671082D01*
X70485940Y57649183D01*
X70433223Y57649183D01*
X70385271Y57671082D01*
X70302088Y57733353D01*
X70167375Y57783598D01*
X70107824Y57790000D01*
X69560000Y57790000D01*
X69560000Y54790000D01*
X70107824Y54790000D01*
X70167375Y54796403D01*
X70302089Y54846648D01*
X70385270Y54908918D01*
X70433223Y54930818D01*
X70485940Y54930818D01*
X70533892Y54908920D01*
X70617669Y54846204D01*
X70719606Y54808184D01*
X70767110Y54790466D01*
X70766822Y54789696D01*
X70805000Y54775716D01*
X70845031Y54731153D01*
X70859500Y54673024D01*
X70859500Y52629500D01*
X70842887Y52567500D01*
X70797500Y52522113D01*
X70735500Y52505500D01*
X67149502Y52505500D01*
X67099287Y52516123D01*
X67057675Y52546171D01*
X67031796Y52590496D01*
X67024869Y52611401D01*
X67009814Y52656834D01*
X66917712Y52806156D01*
X66917711Y52806158D01*
X66793657Y52930212D01*
X66644334Y53022314D01*
X66477797Y53077500D01*
X66375009Y53088000D01*
X64424991Y53088000D01*
X64322203Y53077500D01*
X64155665Y53022314D01*
X64006342Y52930212D01*
X63882288Y52806158D01*
X63790186Y52656835D01*
X63768204Y52590496D01*
X63742325Y52546171D01*
X63700713Y52516123D01*
X63650498Y52505500D01*
X51123999Y52505500D01*
X50993169Y52488276D01*
X50931161Y52471661D01*
X50809250Y52421164D01*
X50704557Y52340830D01*
X50659170Y52295443D01*
X50578836Y52190750D01*
X50528339Y52068839D01*
X50511724Y52006831D01*
X50494500Y51876001D01*
X50494500Y48123999D01*
X50511724Y47993170D01*
X50528339Y47931162D01*
X50578836Y47809251D01*
X50659170Y47704558D01*
X50704557Y47659171D01*
X50809249Y47578838D01*
X50809250Y47578837D01*
X50931166Y47528338D01*
X50993166Y47511725D01*
X51091291Y47498807D01*
X51123999Y47494500D01*
X51124000Y47494500D01*
X65272440Y47494500D01*
X65332083Y47479214D01*
X65377021Y47437125D01*
X65396175Y47378610D01*
X65384822Y47318095D01*
X65350425Y47244332D01*
X65293792Y47032975D01*
X65274722Y46815001D01*
X65293792Y46597026D01*
X65350425Y46385668D01*
X65415132Y46246905D01*
X65426485Y46186390D01*
X65407331Y46127875D01*
X65362393Y46085786D01*
X65302750Y46070500D01*
X48346802Y46070500D01*
X48309911Y46076115D01*
X48276362Y46092450D01*
X48254772Y46107353D01*
X48248750Y46111784D01*
X48201403Y46148878D01*
X48201401Y46148879D01*
X48201400Y46148880D01*
X48192159Y46153039D01*
X48172619Y46164059D01*
X48164276Y46169818D01*
X48164273Y46169819D01*
X48164272Y46169820D01*
X48108047Y46191144D01*
X48101129Y46194009D01*
X48046275Y46218697D01*
X48036298Y46220525D01*
X48014685Y46226550D01*
X48005219Y46230140D01*
X47945518Y46237390D01*
X47938117Y46238517D01*
X47878953Y46249359D01*
X47818912Y46245726D01*
X47811425Y46245500D01*
X38420634Y46245500D01*
X38363377Y46259511D01*
X38319061Y46298375D01*
X38281598Y46351877D01*
X38126877Y46506598D01*
X37947639Y46632102D01*
X37856205Y46674739D01*
X37749331Y46724575D01*
X37537974Y46781208D01*
X37320000Y46800278D01*
X37102025Y46781208D01*
X36890668Y46724575D01*
X36692361Y46632102D01*
X36513122Y46506598D01*
X36358402Y46351878D01*
X36232898Y46172639D01*
X36140425Y45974332D01*
X36083792Y45762975D01*
X36064722Y45545000D01*
X36083792Y45327026D01*
X36083793Y45327023D01*
X36140425Y45115670D01*
X36232898Y44917361D01*
X36358402Y44738123D01*
X36513123Y44583402D01*
X36692361Y44457898D01*
X36890670Y44365425D01*
X37102023Y44308793D01*
X37320000Y44289723D01*
X37537977Y44308793D01*
X37749330Y44365425D01*
X37947639Y44457898D01*
X38126877Y44583402D01*
X38281598Y44738123D01*
X38319061Y44791626D01*
X38363377Y44830489D01*
X38420634Y44844500D01*
X46176383Y44844500D01*
X46231227Y44831712D01*
X46274759Y44795986D01*
X46298000Y44744691D01*
X46296158Y44688406D01*
X46243792Y44492975D01*
X46224722Y44275000D01*
X46243792Y44057026D01*
X46300425Y43845669D01*
X46346480Y43746905D01*
X46357833Y43686390D01*
X46338679Y43627875D01*
X46293741Y43585786D01*
X46234098Y43570500D01*
X14385074Y43570500D01*
X14318464Y43589910D01*
X14286698Y43626115D01*
X14283324Y43623752D01*
X14260507Y43656338D01*
X14151598Y43811877D01*
X13996877Y43966598D01*
X13817639Y44092102D01*
X13726205Y44134739D01*
X13619331Y44184575D01*
X13407974Y44241208D01*
X13189999Y44260278D01*
X12972025Y44241208D01*
X12760668Y44184575D01*
X12562361Y44092102D01*
X12383122Y43966598D01*
X12228402Y43811878D01*
X12102898Y43632639D01*
X12010425Y43434332D01*
X11953792Y43222975D01*
X11934722Y43005001D01*
X11953792Y42787026D01*
X11953793Y42787023D01*
X12010425Y42575670D01*
X12102898Y42377361D01*
X12228402Y42198123D01*
X12383123Y42043402D01*
X12562361Y41917898D01*
X12760670Y41825425D01*
X12972023Y41768793D01*
X13190000Y41749723D01*
X13407977Y41768793D01*
X13619330Y41825425D01*
X13817639Y41917898D01*
X13996877Y42043402D01*
X14086655Y42133181D01*
X14126884Y42160061D01*
X14174337Y42169500D01*
X78231663Y42169500D01*
X78287958Y42155985D01*
X78331981Y42118385D01*
X78354136Y42064898D01*
X78349594Y42007182D01*
X78319344Y41957819D01*
X78268402Y41906878D01*
X78142898Y41727639D01*
X78050425Y41529332D01*
X77993792Y41317975D01*
X77974722Y41100000D01*
X77993792Y40882026D01*
X77993793Y40882023D01*
X78046159Y40686591D01*
X78048001Y40630309D01*
X78024760Y40579014D01*
X77981228Y40543288D01*
X77926384Y40530500D01*
X10480634Y40530500D01*
X10423377Y40544511D01*
X10379061Y40583375D01*
X10341598Y40636877D01*
X10186877Y40791598D01*
X10007639Y40917102D01*
X9916205Y40959739D01*
X9809331Y41009575D01*
X9597974Y41066208D01*
X9379999Y41085278D01*
X9162025Y41066208D01*
X8950668Y41009575D01*
X8752361Y40917102D01*
X8573122Y40791598D01*
X8418402Y40636878D01*
X8292898Y40457639D01*
X8200425Y40259332D01*
X8143792Y40047975D01*
X8124722Y39830001D01*
X8143792Y39612026D01*
X8143793Y39612023D01*
X8200425Y39400670D01*
X8292898Y39202361D01*
X8418402Y39023123D01*
X8573123Y38868402D01*
X8752361Y38742898D01*
X8950670Y38650425D01*
X9162023Y38593793D01*
X9380000Y38574723D01*
X9597977Y38593793D01*
X9809330Y38650425D01*
X10007639Y38742898D01*
X10186877Y38868402D01*
X10341598Y39023123D01*
X10379061Y39076626D01*
X10423377Y39115489D01*
X10480634Y39129500D01*
X79561425Y39129500D01*
X79568912Y39129274D01*
X79572052Y39129085D01*
X79628952Y39125642D01*
X79688128Y39136487D01*
X79695527Y39137613D01*
X79755218Y39144860D01*
X79764681Y39148450D01*
X79786304Y39154478D01*
X79796278Y39156305D01*
X79851154Y39181004D01*
X79858019Y39183848D01*
X79914276Y39205182D01*
X79922616Y39210940D01*
X79942165Y39221965D01*
X79951403Y39226122D01*
X79998759Y39263225D01*
X80004766Y39267645D01*
X80054275Y39301817D01*
X80094169Y39346851D01*
X80099254Y39352253D01*
X80340186Y39593184D01*
X80380412Y39620061D01*
X80427865Y39629500D01*
X86758215Y39629500D01*
X86813059Y39616712D01*
X86856591Y39580986D01*
X86879832Y39529691D01*
X86877990Y39473407D01*
X86824936Y39275408D01*
X86804340Y39040000D01*
X86824936Y38804593D01*
X86867272Y38646593D01*
X86869114Y38590309D01*
X86845873Y38539014D01*
X86802341Y38503288D01*
X86747497Y38490500D01*
X84235074Y38490500D01*
X84168464Y38509910D01*
X84136698Y38546115D01*
X84133324Y38543752D01*
X84110507Y38576338D01*
X84001598Y38731877D01*
X83846877Y38886598D01*
X83667639Y39012102D01*
X83576205Y39054739D01*
X83469331Y39104575D01*
X83257974Y39161208D01*
X83039999Y39180278D01*
X82822025Y39161208D01*
X82610668Y39104575D01*
X82412361Y39012102D01*
X82233122Y38886598D01*
X82078402Y38731878D01*
X81952898Y38552639D01*
X81860425Y38354332D01*
X81803792Y38142975D01*
X81784722Y37925000D01*
X81803792Y37707026D01*
X81860425Y37495669D01*
X81915806Y37376905D01*
X81927159Y37316390D01*
X81908005Y37257875D01*
X81863067Y37215786D01*
X81803424Y37200500D01*
X60114400Y37200500D01*
X60047775Y37219919D01*
X60002018Y37272095D01*
X59997101Y37282640D01*
X59871597Y37461878D01*
X59716880Y37616595D01*
X59716877Y37616598D01*
X59537639Y37742102D01*
X59355024Y37827257D01*
X59339331Y37834575D01*
X59127974Y37891208D01*
X58910000Y37910278D01*
X58692025Y37891208D01*
X58480668Y37834575D01*
X58282361Y37742102D01*
X58103122Y37616598D01*
X57948402Y37461878D01*
X57822898Y37282639D01*
X57730425Y37084332D01*
X57673792Y36872975D01*
X57654722Y36655001D01*
X57673792Y36437026D01*
X57730425Y36225669D01*
X57776480Y36126905D01*
X57787833Y36066390D01*
X57768679Y36007875D01*
X57723741Y35965786D01*
X57664098Y35950500D01*
X28954921Y35950500D01*
X28947434Y35950726D01*
X28887392Y35954359D01*
X28843270Y35946273D01*
X28788827Y35948467D01*
X28647975Y35986208D01*
X28429999Y36005278D01*
X28212025Y35986208D01*
X28000668Y35929575D01*
X27802361Y35837102D01*
X27623122Y35711598D01*
X27468402Y35556878D01*
X27342898Y35377639D01*
X27250425Y35179332D01*
X27193792Y34967975D01*
X27174722Y34750001D01*
X27193792Y34532026D01*
X27221309Y34429330D01*
X27250425Y34320670D01*
X27342898Y34122361D01*
X27468402Y33943123D01*
X27623123Y33788402D01*
X27802361Y33662898D01*
X28000670Y33570425D01*
X28212023Y33513793D01*
X28430000Y33494723D01*
X28647977Y33513793D01*
X28859330Y33570425D01*
X29057639Y33662898D01*
X29236877Y33788402D01*
X29391598Y33943123D01*
X29517102Y34122361D01*
X29609575Y34320670D01*
X29646263Y34457594D01*
X29671050Y34505206D01*
X29713634Y34537882D01*
X29766039Y34549500D01*
X47691024Y34549500D01*
X47745868Y34536712D01*
X47789400Y34500986D01*
X47812641Y34449691D01*
X47810799Y34393406D01*
X47763792Y34217975D01*
X47744722Y34000001D01*
X47763792Y33782026D01*
X47785344Y33701594D01*
X47787186Y33645309D01*
X47763945Y33594014D01*
X47720413Y33558288D01*
X47665569Y33545500D01*
X32070634Y33545500D01*
X32013377Y33559511D01*
X31969061Y33598375D01*
X31931598Y33651877D01*
X31776877Y33806598D01*
X31597639Y33932102D01*
X31506205Y33974739D01*
X31399331Y34024575D01*
X31187974Y34081208D01*
X30970000Y34100278D01*
X30752025Y34081208D01*
X30540668Y34024575D01*
X30342361Y33932102D01*
X30163122Y33806598D01*
X30008402Y33651878D01*
X29882898Y33472639D01*
X29790425Y33274332D01*
X29733792Y33062975D01*
X29714722Y32845000D01*
X29733792Y32627026D01*
X29733793Y32627023D01*
X29790425Y32415670D01*
X29882898Y32217361D01*
X30008402Y32038123D01*
X30163123Y31883402D01*
X30342361Y31757898D01*
X30540670Y31665425D01*
X30752023Y31608793D01*
X30970000Y31589723D01*
X31187977Y31608793D01*
X31399330Y31665425D01*
X31597639Y31757898D01*
X31776877Y31883402D01*
X31931598Y32038123D01*
X31969061Y32091626D01*
X32013377Y32130489D01*
X32070634Y32144500D01*
X80466383Y32144500D01*
X80521227Y32131712D01*
X80564759Y32095986D01*
X80588000Y32044691D01*
X80586158Y31988406D01*
X80533792Y31792975D01*
X80514722Y31575001D01*
X80533792Y31357026D01*
X80590425Y31145669D01*
X80636480Y31046905D01*
X80647833Y30986390D01*
X80628679Y30927875D01*
X80583741Y30885786D01*
X80524098Y30870500D01*
X27085074Y30870500D01*
X27018464Y30889910D01*
X26986698Y30926115D01*
X26983324Y30923752D01*
X26960507Y30956338D01*
X26851598Y31111877D01*
X26696877Y31266598D01*
X26517639Y31392102D01*
X26426205Y31434739D01*
X26319331Y31484575D01*
X26107974Y31541208D01*
X25890000Y31560278D01*
X25672025Y31541208D01*
X25460668Y31484575D01*
X25262361Y31392102D01*
X25083122Y31266598D01*
X24928402Y31111878D01*
X24802898Y30932639D01*
X24710425Y30734332D01*
X24653792Y30522975D01*
X24634722Y30305000D01*
X24653792Y30087026D01*
X24653793Y30087023D01*
X24710425Y29875670D01*
X24802898Y29677361D01*
X24928402Y29498123D01*
X25083123Y29343402D01*
X25262361Y29217898D01*
X25460670Y29125425D01*
X25672023Y29068793D01*
X25890000Y29049723D01*
X26107977Y29068793D01*
X26319330Y29125425D01*
X26517639Y29217898D01*
X26696877Y29343402D01*
X26786655Y29433181D01*
X26826884Y29460061D01*
X26874337Y29469500D01*
X36669588Y29469500D01*
X36724432Y29456712D01*
X36767964Y29420986D01*
X36791205Y29369691D01*
X36789363Y29313406D01*
X36763792Y29217975D01*
X36744722Y29000000D01*
X36763792Y28782026D01*
X36820425Y28570669D01*
X36850159Y28506905D01*
X36861512Y28446390D01*
X36842358Y28387875D01*
X36797420Y28345786D01*
X36737777Y28330500D01*
X34705074Y28330500D01*
X34638464Y28349910D01*
X34606698Y28386115D01*
X34603324Y28383752D01*
X34580507Y28416338D01*
X34471598Y28571877D01*
X34316877Y28726598D01*
X34137639Y28852102D01*
X34046205Y28894739D01*
X33939331Y28944575D01*
X33727974Y29001208D01*
X33510000Y29020278D01*
X33292025Y29001208D01*
X33080668Y28944575D01*
X32882361Y28852102D01*
X32703122Y28726598D01*
X32548402Y28571878D01*
X32422898Y28392639D01*
X32330425Y28194332D01*
X32273792Y27982975D01*
X32254722Y27765001D01*
X32273792Y27547026D01*
X32330425Y27335669D01*
X32385806Y27216905D01*
X32397159Y27156390D01*
X32378005Y27097875D01*
X32333067Y27055786D01*
X32273424Y27040500D01*
X30733291Y27040500D01*
X30696004Y27046239D01*
X30662168Y27062925D01*
X30627640Y27087102D01*
X30429331Y27179575D01*
X30217974Y27236208D01*
X30000000Y27255278D01*
X29782025Y27236208D01*
X29570668Y27179575D01*
X29372361Y27087102D01*
X29193122Y26961598D01*
X29038402Y26806878D01*
X28912898Y26627639D01*
X28820425Y26429332D01*
X28763792Y26217975D01*
X28744722Y26000001D01*
X28763792Y25782026D01*
X28820425Y25570668D01*
X28868811Y25466905D01*
X28880163Y25406390D01*
X28861010Y25347875D01*
X28816072Y25305786D01*
X28756429Y25290500D01*
X24450634Y25290500D01*
X24393377Y25304511D01*
X24349061Y25343375D01*
X24311598Y25396877D01*
X24156877Y25551598D01*
X23977639Y25677102D01*
X23886205Y25719739D01*
X23779331Y25769575D01*
X23567974Y25826208D01*
X23350000Y25845278D01*
X23132025Y25826208D01*
X22920668Y25769575D01*
X22722361Y25677102D01*
X22543122Y25551598D01*
X22388402Y25396878D01*
X22262898Y25217639D01*
X22170425Y25019332D01*
X22113792Y24807975D01*
X22094722Y24590000D01*
X22113792Y24372026D01*
X22155069Y24217977D01*
X22170425Y24160670D01*
X22262898Y23962361D01*
X22388402Y23783123D01*
X22543123Y23628402D01*
X22722361Y23502898D01*
X22920670Y23410425D01*
X23132023Y23353793D01*
X23350000Y23334723D01*
X23567977Y23353793D01*
X23779330Y23410425D01*
X23977639Y23502898D01*
X24156877Y23628402D01*
X24311598Y23783123D01*
X24349061Y23836626D01*
X24393377Y23875489D01*
X24450634Y23889500D01*
X31046588Y23889500D01*
X31054075Y23889274D01*
X31057215Y23889085D01*
X31114115Y23885642D01*
X31173291Y23896487D01*
X31180690Y23897613D01*
X31240381Y23904860D01*
X31249844Y23908450D01*
X31271467Y23914478D01*
X31281441Y23916305D01*
X31336317Y23941004D01*
X31343182Y23943848D01*
X31399439Y23965182D01*
X31407779Y23970940D01*
X31427328Y23981965D01*
X31436566Y23986122D01*
X31483922Y24023225D01*
X31489929Y24027645D01*
X31539438Y24061817D01*
X31579332Y24106850D01*
X31584433Y24112269D01*
X31925846Y24453681D01*
X31966075Y24480561D01*
X32013528Y24490000D01*
X44675081Y24490000D01*
X44729925Y24477212D01*
X44773457Y24441486D01*
X44796698Y24390191D01*
X44794856Y24333906D01*
X44763792Y24217975D01*
X44744722Y24000001D01*
X44763792Y23782026D01*
X44820425Y23570669D01*
X44870261Y23463795D01*
X44912898Y23372361D01*
X45038402Y23193123D01*
X45193123Y23038402D01*
X45372361Y22912898D01*
X45570670Y22820425D01*
X45782023Y22763793D01*
X45927341Y22751080D01*
X45999999Y22744723D01*
X45999999Y22744724D01*
X46000000Y22744723D01*
X46091305Y22752711D01*
X46154517Y22741565D01*
X46203688Y22700307D01*
X46225641Y22639991D01*
X46243792Y22432526D01*
X46300425Y22221168D01*
X46339718Y22136905D01*
X46351070Y22076390D01*
X46331916Y22017875D01*
X46286979Y21975786D01*
X46227336Y21960500D01*
X42847542Y21960500D01*
X42810254Y21966239D01*
X42776421Y21982924D01*
X42627639Y22087102D01*
X42536205Y22129739D01*
X42429331Y22179575D01*
X42217974Y22236208D01*
X42000000Y22255278D01*
X41782025Y22236208D01*
X41570668Y22179575D01*
X41372361Y22087102D01*
X41193122Y21961598D01*
X41038402Y21806878D01*
X40912898Y21627639D01*
X40820425Y21429332D01*
X40763792Y21217975D01*
X40744722Y21000000D01*
X40763792Y20782026D01*
X40817343Y20582170D01*
X40820425Y20570670D01*
X40912898Y20372361D01*
X41038402Y20193123D01*
X41193123Y20038402D01*
X41372361Y19912898D01*
X41570670Y19820425D01*
X41782023Y19763793D01*
X42000000Y19744723D01*
X42217977Y19763793D01*
X42331745Y19794277D01*
X42395930Y19794277D01*
X42451518Y19762184D01*
X42483612Y19706596D01*
X42490425Y19681169D01*
X42529718Y19596905D01*
X42541070Y19536390D01*
X42521916Y19477875D01*
X42476979Y19435786D01*
X42417336Y19420500D01*
X26262689Y19420500D01*
X26196064Y19439919D01*
X26150307Y19492095D01*
X26129652Y19536390D01*
X26087102Y19627638D01*
X25961598Y19806877D01*
X25806877Y19961598D01*
X25627639Y20087102D01*
X25536205Y20129739D01*
X25429331Y20179575D01*
X25217974Y20236208D01*
X25000000Y20255278D01*
X24782025Y20236208D01*
X24570668Y20179575D01*
X24372361Y20087102D01*
X24193122Y19961598D01*
X24038402Y19806878D01*
X23912898Y19627639D01*
X23820425Y19429332D01*
X23763792Y19217975D01*
X23744722Y19000000D01*
X23763792Y18782026D01*
X23763793Y18782023D01*
X23820425Y18570670D01*
X23912898Y18372361D01*
X24038402Y18193123D01*
X24193123Y18038402D01*
X24372361Y17912898D01*
X24570670Y17820425D01*
X24782023Y17763793D01*
X25000000Y17744723D01*
X25217977Y17763793D01*
X25429330Y17820425D01*
X25627639Y17912898D01*
X25690820Y17957138D01*
X25747857Y17997075D01*
X25781693Y18013761D01*
X25818980Y18019500D01*
X38747337Y18019500D01*
X38806980Y18004214D01*
X38851918Y17962125D01*
X38871072Y17903609D01*
X38859719Y17843095D01*
X38820425Y17758832D01*
X38763792Y17547475D01*
X38744722Y17329500D01*
X38763792Y17111526D01*
X38783870Y17036594D01*
X38785712Y16980309D01*
X38762471Y16929014D01*
X38718939Y16893288D01*
X38664095Y16880500D01*
X23379357Y16880500D01*
X23320506Y16895355D01*
X23275756Y16936361D01*
X23255829Y16993693D01*
X23236207Y17217975D01*
X23236207Y17217977D01*
X23179575Y17429330D01*
X23087102Y17627638D01*
X22961598Y17806877D01*
X22806877Y17961598D01*
X22627639Y18087102D01*
X22536205Y18129739D01*
X22429331Y18179575D01*
X22217974Y18236208D01*
X22000000Y18255278D01*
X21782025Y18236208D01*
X21570668Y18179575D01*
X21372361Y18087102D01*
X21193122Y17961598D01*
X21038402Y17806878D01*
X20912898Y17627639D01*
X20820425Y17429332D01*
X20763792Y17217975D01*
X20744722Y17000000D01*
X20763792Y16782026D01*
X20800866Y16643663D01*
X20820425Y16570670D01*
X20912898Y16372361D01*
X21038402Y16193123D01*
X21193123Y16038402D01*
X21372361Y15912898D01*
X21570670Y15820425D01*
X21782023Y15763793D01*
X21927340Y15751080D01*
X21999999Y15744723D01*
X21999999Y15744724D01*
X22000000Y15744723D01*
X22185730Y15760972D01*
X22238947Y15753966D01*
X22284218Y15725125D01*
X22307058Y15702285D01*
X22312178Y15696847D01*
X22352071Y15651817D01*
X22401577Y15617646D01*
X22407596Y15613215D01*
X22451178Y15579072D01*
X22454943Y15576122D01*
X22464190Y15571961D01*
X22483726Y15560942D01*
X22492070Y15555182D01*
X22548334Y15533845D01*
X22555195Y15531003D01*
X22610068Y15506306D01*
X22620036Y15504480D01*
X22641652Y15498454D01*
X22651128Y15494860D01*
X22710856Y15487608D01*
X22718201Y15486491D01*
X22777394Y15475643D01*
X22837422Y15479274D01*
X22844910Y15479500D01*
X86937289Y15479500D01*
X86994546Y15465489D01*
X87038863Y15426624D01*
X87121505Y15308599D01*
X87288599Y15141505D01*
X87474160Y15011574D01*
X87513024Y14967257D01*
X87527035Y14910000D01*
X87513024Y14852743D01*
X87474159Y14808425D01*
X87288595Y14678492D01*
X87121505Y14511402D01*
X87038864Y14393377D01*
X86994546Y14354511D01*
X86937289Y14340500D01*
X35664921Y14340500D01*
X35657434Y14340726D01*
X35597391Y14344359D01*
X35538227Y14333517D01*
X35530828Y14332390D01*
X35471124Y14325140D01*
X35461651Y14321547D01*
X35440047Y14315524D01*
X35430069Y14313695D01*
X35375225Y14289013D01*
X35368310Y14286149D01*
X35312071Y14264819D01*
X35303723Y14259057D01*
X35284191Y14248041D01*
X35280899Y14246559D01*
X35219190Y14236102D01*
X35000000Y14255278D01*
X34782025Y14236208D01*
X34570668Y14179575D01*
X34372361Y14087102D01*
X34193122Y13961598D01*
X34038402Y13806878D01*
X33912898Y13627639D01*
X33820425Y13429332D01*
X33763792Y13217975D01*
X33744722Y13000000D01*
X33763792Y12782026D01*
X33812161Y12601509D01*
X33820425Y12570670D01*
X33912898Y12372361D01*
X34038402Y12193123D01*
X34193123Y12038402D01*
X34372361Y11912898D01*
X34570670Y11820425D01*
X34782023Y11763793D01*
X35000000Y11744723D01*
X35217977Y11763793D01*
X35429330Y11820425D01*
X35627639Y11912898D01*
X35806877Y12038402D01*
X35961598Y12193123D01*
X36087102Y12372361D01*
X36179575Y12570670D01*
X36236207Y12782023D01*
X36237757Y12799745D01*
X36240082Y12826308D01*
X36260010Y12883639D01*
X36304760Y12924645D01*
X36363610Y12939500D01*
X86937289Y12939500D01*
X86994546Y12925489D01*
X87038863Y12886624D01*
X87121505Y12768599D01*
X87288599Y12601505D01*
X87474160Y12471574D01*
X87513024Y12427257D01*
X87527035Y12370000D01*
X87513024Y12312743D01*
X87474159Y12268425D01*
X87288595Y12138492D01*
X87121505Y11971402D01*
X87038864Y11853377D01*
X86994546Y11814511D01*
X86937289Y11800500D01*
X40019337Y11800500D01*
X39971884Y11809939D01*
X39931656Y11836819D01*
X39806880Y11961595D01*
X39806877Y11961598D01*
X39627639Y12087102D01*
X39536205Y12129739D01*
X39429331Y12179575D01*
X39217974Y12236208D01*
X39000000Y12255278D01*
X38782025Y12236208D01*
X38570668Y12179575D01*
X38372361Y12087102D01*
X38193122Y11961598D01*
X38038402Y11806878D01*
X37912898Y11627639D01*
X37820425Y11429332D01*
X37763792Y11217975D01*
X37744722Y11000000D01*
X37763792Y10782026D01*
X37802829Y10636337D01*
X37820425Y10570670D01*
X37912898Y10372361D01*
X38038402Y10193123D01*
X38193123Y10038402D01*
X38372361Y9912898D01*
X38570670Y9820425D01*
X38782023Y9763793D01*
X39000000Y9744723D01*
X39217977Y9763793D01*
X39429330Y9820425D01*
X39627639Y9912898D01*
X39806877Y10038402D01*
X39961598Y10193123D01*
X40069081Y10346626D01*
X40113398Y10385489D01*
X40170655Y10399500D01*
X61482973Y10399500D01*
X61546838Y10381789D01*
X61592458Y10333715D01*
X61606803Y10269011D01*
X61585774Y10206160D01*
X61535378Y10163118D01*
X61372361Y10087102D01*
X61193122Y9961598D01*
X61038402Y9806878D01*
X60912898Y9627639D01*
X60820425Y9429332D01*
X60763792Y9217975D01*
X60744722Y9000000D01*
X60763792Y8782026D01*
X60772239Y8750500D01*
X60820425Y8570670D01*
X60912898Y8372361D01*
X61038402Y8193123D01*
X61193123Y8038402D01*
X61372361Y7912898D01*
X61570670Y7820425D01*
X61782023Y7763793D01*
X61879284Y7755284D01*
X61999998Y7744723D01*
X61999998Y7744724D01*
X62000000Y7744723D01*
X62120709Y7755284D01*
X62173925Y7748278D01*
X62219196Y7719437D01*
X62424269Y7514363D01*
X62436049Y7500732D01*
X62450390Y7481470D01*
X62457253Y7475711D01*
X62488339Y7449627D01*
X62496314Y7442319D01*
X62500224Y7438409D01*
X62518672Y7423822D01*
X62524543Y7419180D01*
X62527330Y7416910D01*
X62584786Y7368698D01*
X62584788Y7368697D01*
X62585750Y7367890D01*
X62602180Y7357422D01*
X62603322Y7356890D01*
X62603323Y7356889D01*
X62671350Y7325168D01*
X62674527Y7323629D01*
X62741567Y7289960D01*
X62742702Y7289390D01*
X62761085Y7283001D01*
X62762322Y7282746D01*
X62762328Y7282743D01*
X62835852Y7267563D01*
X62839286Y7266801D01*
X62867974Y7260001D01*
X62913506Y7249209D01*
X62932879Y7247230D01*
X62934141Y7247267D01*
X62934145Y7247266D01*
X63006534Y7249373D01*
X63009132Y7249448D01*
X63012738Y7249500D01*
X63273579Y7249500D01*
X63337444Y7231789D01*
X63383064Y7183715D01*
X63397409Y7119011D01*
X63376380Y7056161D01*
X63325984Y7013118D01*
X63242170Y6974035D01*
X63048598Y6838495D01*
X62881505Y6671402D01*
X62751575Y6485841D01*
X62707257Y6446975D01*
X62650000Y6432964D01*
X62592743Y6446975D01*
X62548425Y6485841D01*
X62418494Y6671402D01*
X62251404Y6838492D01*
X62251401Y6838495D01*
X62057830Y6974035D01*
X61843663Y7073903D01*
X61782501Y7090291D01*
X61615407Y7135064D01*
X61380000Y7155660D01*
X61144592Y7135064D01*
X60916336Y7073903D01*
X60702170Y6974035D01*
X60508598Y6838495D01*
X60341505Y6671402D01*
X60211575Y6485841D01*
X60167257Y6446975D01*
X60110000Y6432964D01*
X60052743Y6446975D01*
X60008425Y6485841D01*
X59878494Y6671402D01*
X59711404Y6838492D01*
X59711401Y6838495D01*
X59517830Y6974035D01*
X59303663Y7073903D01*
X59242501Y7090291D01*
X59075407Y7135064D01*
X58840000Y7155660D01*
X58604592Y7135064D01*
X58376336Y7073903D01*
X58162170Y6974035D01*
X57968598Y6838495D01*
X57801505Y6671402D01*
X57671575Y6485841D01*
X57627257Y6446975D01*
X57570000Y6432964D01*
X57512743Y6446975D01*
X57468425Y6485841D01*
X57338494Y6671402D01*
X57171404Y6838492D01*
X57171401Y6838495D01*
X56977830Y6974035D01*
X56763663Y7073903D01*
X56702501Y7090291D01*
X56535407Y7135064D01*
X56300000Y7155660D01*
X56064592Y7135064D01*
X55836336Y7073903D01*
X55622170Y6974035D01*
X55428598Y6838495D01*
X55261505Y6671402D01*
X55131575Y6485841D01*
X55087257Y6446975D01*
X55030000Y6432964D01*
X54972743Y6446975D01*
X54928425Y6485841D01*
X54798494Y6671402D01*
X54631404Y6838492D01*
X54631401Y6838495D01*
X54437830Y6974035D01*
X54223663Y7073903D01*
X54162501Y7090291D01*
X53995407Y7135064D01*
X53760000Y7155660D01*
X53524592Y7135064D01*
X53296336Y7073903D01*
X53082170Y6974035D01*
X52888598Y6838495D01*
X52721505Y6671402D01*
X52591575Y6485841D01*
X52547257Y6446975D01*
X52490000Y6432964D01*
X52432743Y6446975D01*
X52388425Y6485841D01*
X52258494Y6671402D01*
X52091404Y6838492D01*
X52091401Y6838495D01*
X51897830Y6974035D01*
X51683663Y7073903D01*
X51622501Y7090291D01*
X51455407Y7135064D01*
X51220000Y7155660D01*
X50984592Y7135064D01*
X50756336Y7073903D01*
X50542170Y6974035D01*
X50348598Y6838495D01*
X50181505Y6671402D01*
X50051575Y6485841D01*
X50007257Y6446975D01*
X49950000Y6432964D01*
X49892743Y6446975D01*
X49848425Y6485841D01*
X49718494Y6671402D01*
X49551404Y6838492D01*
X49551401Y6838495D01*
X49357830Y6974035D01*
X49143663Y7073903D01*
X49082501Y7090291D01*
X48915407Y7135064D01*
X48680000Y7155660D01*
X48444592Y7135064D01*
X48216336Y7073903D01*
X48002170Y6974035D01*
X47808598Y6838495D01*
X47641508Y6671405D01*
X47641507Y6671403D01*
X47641505Y6671401D01*
X47511271Y6485406D01*
X47511270Y6485405D01*
X47466952Y6446540D01*
X47409695Y6432529D01*
X47352438Y6446540D01*
X47308120Y6485405D01*
X47254925Y6561374D01*
X47254925Y6561375D01*
X46493553Y5800000D01*
X46493553Y5799999D01*
X47254925Y5038627D01*
X47308119Y5114595D01*
X47352437Y5153461D01*
X47409694Y5167472D01*
X47466951Y5153461D01*
X47511267Y5114598D01*
X47641505Y4928599D01*
X47808599Y4761505D01*
X47994160Y4631574D01*
X48033024Y4587257D01*
X48047035Y4530000D01*
X48033024Y4472743D01*
X47994159Y4428425D01*
X47808595Y4298492D01*
X47641505Y4131402D01*
X47511575Y3945841D01*
X47467257Y3906975D01*
X47410000Y3892964D01*
X47352743Y3906975D01*
X47308425Y3945841D01*
X47178494Y4131402D01*
X47011404Y4298492D01*
X47011401Y4298495D01*
X46825402Y4428733D01*
X46786539Y4473049D01*
X46772528Y4530306D01*
X46786539Y4587563D01*
X46825405Y4631881D01*
X46901373Y4685075D01*
X46140000Y5446447D01*
X45378625Y4685075D01*
X45454594Y4631881D01*
X45493460Y4587563D01*
X45507471Y4530306D01*
X45493461Y4473050D01*
X45454595Y4428731D01*
X45268595Y4298492D01*
X45101505Y4131402D01*
X44971575Y3945841D01*
X44927257Y3906975D01*
X44870000Y3892964D01*
X44812743Y3906975D01*
X44768425Y3945841D01*
X44638494Y4131402D01*
X44471404Y4298492D01*
X44471401Y4298495D01*
X44285839Y4428427D01*
X44246974Y4472745D01*
X44232964Y4530001D01*
X44246975Y4587258D01*
X44285837Y4631572D01*
X44471401Y4761505D01*
X44638495Y4928599D01*
X44768732Y5114598D01*
X44813048Y5153461D01*
X44870305Y5167472D01*
X44927562Y5153461D01*
X44971880Y5114595D01*
X45025073Y5038627D01*
X45786447Y5799999D01*
X45786447Y5800001D01*
X45025073Y6561374D01*
X44971881Y6485406D01*
X44927563Y6446540D01*
X44870306Y6432529D01*
X44813048Y6446540D01*
X44768730Y6485405D01*
X44638495Y6671401D01*
X44471401Y6838495D01*
X44362243Y6914928D01*
X45378625Y6914928D01*
X46140000Y6153553D01*
X46140001Y6153553D01*
X46901373Y6914927D01*
X46901373Y6914928D01*
X46817580Y6973600D01*
X46603492Y7073431D01*
X46375318Y7134570D01*
X46140000Y7155158D01*
X45904681Y7134570D01*
X45676507Y7073431D01*
X45462422Y6973601D01*
X45378625Y6914928D01*
X44362243Y6914928D01*
X44277830Y6974035D01*
X44063663Y7073903D01*
X44002501Y7090291D01*
X43835407Y7135064D01*
X43600000Y7155660D01*
X43364592Y7135064D01*
X43136336Y7073903D01*
X42922170Y6974035D01*
X42728598Y6838495D01*
X42561505Y6671402D01*
X42431575Y6485841D01*
X42387257Y6446975D01*
X42330000Y6432964D01*
X42272743Y6446975D01*
X42228425Y6485841D01*
X42098494Y6671402D01*
X41931404Y6838492D01*
X41931401Y6838495D01*
X41737830Y6974035D01*
X41523663Y7073903D01*
X41462501Y7090291D01*
X41295407Y7135064D01*
X41060000Y7155660D01*
X40824592Y7135064D01*
X40596336Y7073903D01*
X40382170Y6974035D01*
X40188598Y6838495D01*
X40021505Y6671402D01*
X39891575Y6485841D01*
X39847257Y6446975D01*
X39790000Y6432964D01*
X39732743Y6446975D01*
X39688425Y6485841D01*
X39558494Y6671402D01*
X39391404Y6838492D01*
X39391401Y6838495D01*
X39197830Y6974035D01*
X38983663Y7073903D01*
X38922501Y7090291D01*
X38755407Y7135064D01*
X38520000Y7155660D01*
X38284592Y7135064D01*
X38056336Y7073903D01*
X37842170Y6974035D01*
X37648598Y6838495D01*
X37481505Y6671402D01*
X37351575Y6485841D01*
X37307257Y6446975D01*
X37250000Y6432964D01*
X37192743Y6446975D01*
X37148425Y6485841D01*
X37018494Y6671402D01*
X36851404Y6838492D01*
X36851401Y6838495D01*
X36657830Y6974035D01*
X36443663Y7073903D01*
X36382501Y7090291D01*
X36215407Y7135064D01*
X35980000Y7155660D01*
X35744592Y7135064D01*
X35516336Y7073903D01*
X35302170Y6974035D01*
X35108598Y6838495D01*
X34941505Y6671402D01*
X34811575Y6485841D01*
X34767257Y6446975D01*
X34710000Y6432964D01*
X34652743Y6446975D01*
X34608425Y6485841D01*
X34478494Y6671402D01*
X34311404Y6838492D01*
X34311401Y6838495D01*
X34117830Y6974035D01*
X33903663Y7073903D01*
X33842501Y7090291D01*
X33675407Y7135064D01*
X33440000Y7155660D01*
X33204592Y7135064D01*
X32976336Y7073903D01*
X32762170Y6974035D01*
X32568598Y6838495D01*
X32401505Y6671402D01*
X32271575Y6485841D01*
X32227257Y6446975D01*
X32170000Y6432964D01*
X32112743Y6446975D01*
X32068425Y6485841D01*
X31938494Y6671402D01*
X31771404Y6838492D01*
X31771401Y6838495D01*
X31577830Y6974035D01*
X31363663Y7073903D01*
X31302501Y7090291D01*
X31135407Y7135064D01*
X30900000Y7155660D01*
X30664592Y7135064D01*
X30436336Y7073903D01*
X30222170Y6974035D01*
X30028598Y6838495D01*
X29861505Y6671402D01*
X29731575Y6485841D01*
X29687257Y6446975D01*
X29630000Y6432964D01*
X29572743Y6446975D01*
X29528425Y6485841D01*
X29398494Y6671402D01*
X29231404Y6838492D01*
X29231401Y6838495D01*
X29037830Y6974035D01*
X28823663Y7073903D01*
X28762501Y7090291D01*
X28595407Y7135064D01*
X28360000Y7155660D01*
X28124592Y7135064D01*
X27896336Y7073903D01*
X27682170Y6974035D01*
X27488598Y6838495D01*
X27321505Y6671402D01*
X27191575Y6485841D01*
X27147257Y6446975D01*
X27090000Y6432964D01*
X27032743Y6446975D01*
X26988425Y6485841D01*
X26858494Y6671402D01*
X26691404Y6838492D01*
X26691401Y6838495D01*
X26497830Y6974035D01*
X26283663Y7073903D01*
X26222501Y7090291D01*
X26055407Y7135064D01*
X25820000Y7155660D01*
X25584592Y7135064D01*
X25356336Y7073903D01*
X25142170Y6974035D01*
X24948598Y6838495D01*
X24781505Y6671402D01*
X24651575Y6485841D01*
X24607257Y6446975D01*
X24550000Y6432964D01*
X24492743Y6446975D01*
X24448425Y6485841D01*
X24318494Y6671402D01*
X24151404Y6838492D01*
X24151401Y6838495D01*
X23957830Y6974035D01*
X23743663Y7073903D01*
X23682501Y7090291D01*
X23515407Y7135064D01*
X23280000Y7155660D01*
X23044592Y7135064D01*
X22816336Y7073903D01*
X22602170Y6974035D01*
X22408598Y6838495D01*
X22241508Y6671405D01*
X22111574Y6485840D01*
X22067255Y6446974D01*
X22009999Y6432964D01*
X21952742Y6446975D01*
X21908426Y6485839D01*
X21778495Y6671401D01*
X21611401Y6838495D01*
X21417830Y6974035D01*
X21203663Y7073903D01*
X21142501Y7090291D01*
X20975407Y7135064D01*
X20740000Y7155660D01*
X20504592Y7135064D01*
X20276336Y7073903D01*
X20062170Y6974035D01*
X19868598Y6838495D01*
X19701508Y6671405D01*
X19571574Y6485840D01*
X19527255Y6446974D01*
X19469999Y6432964D01*
X19412742Y6446975D01*
X19368426Y6485839D01*
X19238495Y6671401D01*
X19071401Y6838495D01*
X18877830Y6974035D01*
X18663663Y7073903D01*
X18602501Y7090291D01*
X18435407Y7135064D01*
X18200000Y7155660D01*
X17964592Y7135064D01*
X17736336Y7073903D01*
X17522170Y6974035D01*
X17328598Y6838495D01*
X17161508Y6671405D01*
X17161507Y6671403D01*
X17161505Y6671401D01*
X17031271Y6485406D01*
X17031270Y6485405D01*
X16986952Y6446540D01*
X16929695Y6432529D01*
X16872438Y6446540D01*
X16828120Y6485405D01*
X16774925Y6561374D01*
X16774925Y6561375D01*
X16013553Y5800000D01*
X16774925Y5038627D01*
X16828119Y5114595D01*
X16872437Y5153461D01*
X16929694Y5167472D01*
X16986951Y5153461D01*
X17031267Y5114598D01*
X17161505Y4928599D01*
X17328599Y4761505D01*
X17514160Y4631574D01*
X17553024Y4587257D01*
X17567035Y4530000D01*
X17553024Y4472743D01*
X17514159Y4428425D01*
X17328595Y4298492D01*
X17161508Y4131405D01*
X17031574Y3945840D01*
X16987255Y3906974D01*
X16929999Y3892964D01*
X16872742Y3906975D01*
X16828426Y3945839D01*
X16698495Y4131401D01*
X16531401Y4298495D01*
X16345402Y4428733D01*
X16306539Y4473049D01*
X16292528Y4530306D01*
X16306539Y4587563D01*
X16345405Y4631881D01*
X16421373Y4685075D01*
X15660000Y5446447D01*
X14898625Y4685075D01*
X14974594Y4631881D01*
X15013460Y4587563D01*
X15027471Y4530306D01*
X15013461Y4473050D01*
X14974595Y4428731D01*
X14788595Y4298492D01*
X14621508Y4131405D01*
X14491574Y3945840D01*
X14447255Y3906974D01*
X14389999Y3892964D01*
X14332742Y3906975D01*
X14288426Y3945839D01*
X14158495Y4131401D01*
X13991401Y4298495D01*
X13805839Y4428427D01*
X13766974Y4472745D01*
X13752964Y4530001D01*
X13766975Y4587258D01*
X13805837Y4631572D01*
X13991401Y4761505D01*
X14158495Y4928599D01*
X14288732Y5114598D01*
X14333048Y5153461D01*
X14390305Y5167472D01*
X14447562Y5153461D01*
X14491880Y5114595D01*
X14545073Y5038627D01*
X15306447Y5799999D01*
X15306447Y5800001D01*
X14545073Y6561374D01*
X14491881Y6485406D01*
X14447563Y6446540D01*
X14390306Y6432529D01*
X14333048Y6446540D01*
X14288730Y6485405D01*
X14158495Y6671401D01*
X13991401Y6838495D01*
X13882243Y6914928D01*
X14898625Y6914928D01*
X15660000Y6153553D01*
X15660001Y6153553D01*
X16421373Y6914927D01*
X16421373Y6914928D01*
X16337580Y6973600D01*
X16123492Y7073431D01*
X15895318Y7134570D01*
X15660000Y7155158D01*
X15424681Y7134570D01*
X15196507Y7073431D01*
X14982422Y6973601D01*
X14898625Y6914928D01*
X13882243Y6914928D01*
X13797830Y6974035D01*
X13583663Y7073903D01*
X13522501Y7090291D01*
X13355407Y7135064D01*
X13120000Y7155660D01*
X12884592Y7135064D01*
X12656336Y7073903D01*
X12442170Y6974035D01*
X12248598Y6838495D01*
X12081508Y6671405D01*
X11951574Y6485840D01*
X11907255Y6446974D01*
X11849999Y6432964D01*
X11792742Y6446975D01*
X11748426Y6485839D01*
X11618495Y6671401D01*
X11451401Y6838495D01*
X11257830Y6974035D01*
X11043663Y7073903D01*
X10982501Y7090291D01*
X10815407Y7135064D01*
X10580000Y7155660D01*
X10344592Y7135064D01*
X10116336Y7073903D01*
X9902170Y6974035D01*
X9708598Y6838495D01*
X9541508Y6671405D01*
X9411574Y6485840D01*
X9367255Y6446974D01*
X9309999Y6432964D01*
X9252742Y6446975D01*
X9208426Y6485839D01*
X9078495Y6671401D01*
X8911401Y6838495D01*
X8717830Y6974035D01*
X8503663Y7073903D01*
X8442501Y7090291D01*
X8275407Y7135064D01*
X8040000Y7155660D01*
X7804592Y7135064D01*
X7576336Y7073903D01*
X7362170Y6974035D01*
X7168598Y6838495D01*
X7001508Y6671405D01*
X7001507Y6671403D01*
X7001505Y6671401D01*
X6871271Y6485406D01*
X6871270Y6485405D01*
X6826952Y6446540D01*
X6769695Y6432529D01*
X6712438Y6446540D01*
X6668120Y6485405D01*
X6614925Y6561374D01*
X6614925Y6561375D01*
X5853553Y5800000D01*
X5853553Y5799999D01*
X6614925Y5038627D01*
X6668119Y5114595D01*
X6712437Y5153461D01*
X6769694Y5167472D01*
X6826951Y5153461D01*
X6871267Y5114598D01*
X7001505Y4928599D01*
X7168599Y4761505D01*
X7354160Y4631574D01*
X7393024Y4587257D01*
X7407035Y4530000D01*
X7393024Y4472743D01*
X7354159Y4428425D01*
X7168595Y4298492D01*
X7001508Y4131405D01*
X7001507Y4131403D01*
X7001505Y4131401D01*
X6871271Y3945406D01*
X6871270Y3945405D01*
X6826952Y3906540D01*
X6769695Y3892529D01*
X6712438Y3906540D01*
X6668120Y3945405D01*
X6614925Y4021374D01*
X6614925Y4021375D01*
X5853553Y3260000D01*
X5853553Y3259999D01*
X5146447Y3259999D01*
X5146447Y3260000D01*
X4385072Y4021375D01*
X4326399Y3937578D01*
X4226569Y3723493D01*
X4165430Y3495319D01*
X4144842Y3260001D01*
X200500Y3260001D01*
X200500Y4374928D01*
X4738625Y4374928D01*
X5500000Y3613553D01*
X5500001Y3613553D01*
X6261373Y4374927D01*
X6261373Y4374928D01*
X6184969Y4428426D01*
X6146103Y4472744D01*
X6132092Y4530001D01*
X6146103Y4587258D01*
X6184969Y4631576D01*
X6261373Y4685075D01*
X5500000Y5446447D01*
X4738625Y4685075D01*
X4815031Y4631575D01*
X4853897Y4587256D01*
X4867907Y4529999D01*
X4853896Y4472742D01*
X4815029Y4428424D01*
X4738625Y4374928D01*
X200500Y4374928D01*
X200500Y5800001D01*
X4144842Y5800001D01*
X4165430Y5564682D01*
X4226569Y5336508D01*
X4326400Y5122420D01*
X4385073Y5038627D01*
X5146447Y5799999D01*
X5146447Y5800000D01*
X4385072Y6561375D01*
X4326399Y6477578D01*
X4226569Y6263493D01*
X4165430Y6035319D01*
X4144842Y5800001D01*
X200500Y5800001D01*
X200500Y6914928D01*
X4738625Y6914928D01*
X5500000Y6153553D01*
X5500001Y6153553D01*
X6261373Y6914927D01*
X6261373Y6914928D01*
X6177580Y6973600D01*
X5963492Y7073431D01*
X5735318Y7134570D01*
X5500000Y7155158D01*
X5264681Y7134570D01*
X5036507Y7073431D01*
X4822422Y6973601D01*
X4738625Y6914928D01*
X200500Y6914928D01*
X200500Y10065325D01*
X2295747Y10065325D01*
X2304899Y9826570D01*
X2305749Y9804407D01*
X2345091Y9601548D01*
X2355463Y9548070D01*
X2443719Y9302336D01*
X2568460Y9072940D01*
X2726749Y8865285D01*
X2914887Y8684221D01*
X3076323Y8570670D01*
X3128456Y8534001D01*
X3254513Y8471586D01*
X3362453Y8418141D01*
X3611391Y8339360D01*
X3611392Y8339360D01*
X3611395Y8339359D01*
X3869445Y8299500D01*
X4065177Y8299500D01*
X4065179Y8299500D01*
X4089536Y8301371D01*
X4260344Y8314484D01*
X4514586Y8373979D01*
X4661384Y8433144D01*
X4756762Y8471584D01*
X4756764Y8471586D01*
X4756766Y8471586D01*
X4981208Y8605018D01*
X5182652Y8771148D01*
X5192347Y8782026D01*
X5227696Y8821691D01*
X5356375Y8966080D01*
X5498306Y9185247D01*
X5605118Y9423511D01*
X5674307Y9675287D01*
X5704252Y9934675D01*
X5694251Y10195593D01*
X5644538Y10451927D01*
X5556279Y10697668D01*
X5431541Y10927057D01*
X5431539Y10927061D01*
X5273250Y11134716D01*
X5085112Y11315780D01*
X4871546Y11465998D01*
X4637546Y11581860D01*
X4388608Y11660641D01*
X4227562Y11685516D01*
X4130555Y11700500D01*
X3934823Y11700500D01*
X3934821Y11700500D01*
X3739656Y11685516D01*
X3485412Y11626021D01*
X3243237Y11528417D01*
X3018791Y11394983D01*
X2817346Y11228852D01*
X2643622Y11033918D01*
X2501693Y10814753D01*
X2394881Y10576491D01*
X2325693Y10324717D01*
X2295747Y10065325D01*
X200500Y10065325D01*
X200500Y54750000D01*
X63725001Y54750000D01*
X63725001Y54537521D01*
X63735493Y54434805D01*
X63790642Y54268378D01*
X63882683Y54119155D01*
X64006654Y53995184D01*
X64155877Y53903143D01*
X64322303Y53847994D01*
X64425021Y53837500D01*
X65150000Y53837500D01*
X65150000Y54750000D01*
X65650000Y54750000D01*
X65650000Y53837501D01*
X66374979Y53837501D01*
X66477695Y53847994D01*
X66644122Y53903143D01*
X66793345Y53995184D01*
X66917316Y54119155D01*
X67009357Y54268378D01*
X67064506Y54434804D01*
X67075000Y54537521D01*
X67075000Y54750000D01*
X65650000Y54750000D01*
X65150000Y54750000D01*
X63725001Y54750000D01*
X200500Y54750000D01*
X200500Y55250000D01*
X63725000Y55250000D01*
X65150000Y55250000D01*
X65150000Y56162499D01*
X64425021Y56162499D01*
X64322304Y56152007D01*
X64155877Y56096858D01*
X64006654Y56004817D01*
X63882683Y55880846D01*
X63790642Y55731623D01*
X63735493Y55565197D01*
X63725000Y55462479D01*
X63725000Y55250000D01*
X200500Y55250000D01*
X200500Y56162500D01*
X65650000Y56162500D01*
X65650000Y55250000D01*
X67074999Y55250000D01*
X67074999Y55462479D01*
X67064506Y55565196D01*
X67009357Y55731623D01*
X66917316Y55880846D01*
X66793345Y56004817D01*
X66736304Y56040000D01*
X68060000Y56040000D01*
X68060000Y55242176D01*
X68066402Y55182625D01*
X68116647Y55047911D01*
X68202811Y54932812D01*
X68317910Y54846648D01*
X68452624Y54796403D01*
X68512176Y54790000D01*
X69060000Y54790000D01*
X69060000Y56040000D01*
X68060000Y56040000D01*
X66736304Y56040000D01*
X66644122Y56096858D01*
X66477696Y56152007D01*
X66374979Y56162500D01*
X65650000Y56162500D01*
X200500Y56162500D01*
X200500Y56540000D01*
X68060000Y56540000D01*
X69060000Y56540000D01*
X69060000Y57790000D01*
X68512176Y57790000D01*
X68452624Y57783598D01*
X68317910Y57733353D01*
X68202811Y57647189D01*
X68116647Y57532090D01*
X68066402Y57397376D01*
X68060000Y57337824D01*
X68060000Y56540000D01*
X200500Y56540000D01*
X200500Y60065325D01*
X2295747Y60065325D01*
X2301681Y59910532D01*
X2305749Y59804407D01*
X2332886Y59664479D01*
X2355463Y59548070D01*
X2443719Y59302336D01*
X2568460Y59072940D01*
X2726749Y58865285D01*
X2914887Y58684221D01*
X3128453Y58534003D01*
X3128456Y58534001D01*
X3254513Y58471586D01*
X3362453Y58418141D01*
X3611391Y58339360D01*
X3611392Y58339360D01*
X3611395Y58339359D01*
X3869445Y58299500D01*
X4065177Y58299500D01*
X4065179Y58299500D01*
X4089536Y58301371D01*
X4260344Y58314484D01*
X4514586Y58373979D01*
X4735406Y58462977D01*
X4756762Y58471584D01*
X4756764Y58471586D01*
X4756766Y58471586D01*
X4981208Y58605018D01*
X5182652Y58771148D01*
X5356375Y58966080D01*
X5498306Y59185247D01*
X5564140Y59332102D01*
X5605118Y59423510D01*
X5674306Y59675284D01*
X5674307Y59675287D01*
X5704252Y59934675D01*
X5695999Y60150000D01*
X68862501Y60150000D01*
X68862501Y59425021D01*
X68872993Y59322305D01*
X68928142Y59155878D01*
X69020183Y59006655D01*
X69144154Y58882684D01*
X69293377Y58790643D01*
X69459803Y58735494D01*
X69562521Y58725000D01*
X69775000Y58725000D01*
X69775000Y60150000D01*
X70275000Y60150000D01*
X70275000Y58725001D01*
X70487479Y58725001D01*
X70590195Y58735494D01*
X70756622Y58790643D01*
X70905845Y58882684D01*
X71029816Y59006655D01*
X71121857Y59155878D01*
X71177006Y59322304D01*
X71187500Y59425021D01*
X71187500Y60150000D01*
X70275000Y60150000D01*
X69775000Y60150000D01*
X68862501Y60150000D01*
X5695999Y60150000D01*
X5694251Y60195593D01*
X5644538Y60451927D01*
X5573399Y60650000D01*
X68862500Y60650000D01*
X69775000Y60650000D01*
X69775000Y62074999D01*
X69562521Y62074999D01*
X69459804Y62064507D01*
X69293377Y62009358D01*
X69144154Y61917317D01*
X69020183Y61793346D01*
X68928142Y61644123D01*
X68872993Y61477697D01*
X68862500Y61374979D01*
X68862500Y60650000D01*
X5573399Y60650000D01*
X5556279Y60697668D01*
X5431541Y60927057D01*
X5431539Y60927061D01*
X5273250Y61134716D01*
X5085112Y61315780D01*
X4871546Y61465998D01*
X4637546Y61581860D01*
X4388608Y61660641D01*
X4227562Y61685516D01*
X4130555Y61700500D01*
X3934823Y61700500D01*
X3934821Y61700500D01*
X3739656Y61685516D01*
X3485412Y61626021D01*
X3243237Y61528417D01*
X3018791Y61394983D01*
X2817346Y61228852D01*
X2643622Y61033918D01*
X2501693Y60814753D01*
X2394881Y60576491D01*
X2325693Y60324717D01*
X2295747Y60065325D01*
X200500Y60065325D01*
X200500Y62075000D01*
X70275000Y62075000D01*
X70275000Y60650000D01*
X71187499Y60650000D01*
X71187499Y61374979D01*
X71177006Y61477696D01*
X71121857Y61644123D01*
X71029816Y61793346D01*
X70905845Y61917317D01*
X70756622Y62009358D01*
X70590196Y62064507D01*
X70487479Y62075000D01*
X70275000Y62075000D01*
X200500Y62075000D01*
X200500Y63105075D01*
X4738625Y63105075D01*
X4822420Y63046401D01*
X5036507Y62946570D01*
X5264681Y62885431D01*
X5500000Y62864843D01*
X5735318Y62885431D01*
X5963492Y62946570D01*
X6177576Y63046400D01*
X6261373Y63105075D01*
X5500000Y63866447D01*
X4738625Y63105075D01*
X200500Y63105075D01*
X200500Y64220001D01*
X4144842Y64220001D01*
X4165430Y63984682D01*
X4226569Y63756508D01*
X4326400Y63542420D01*
X4385073Y63458627D01*
X5146447Y64219999D01*
X5853553Y64219999D01*
X6614925Y63458627D01*
X6668119Y63534595D01*
X6712437Y63573461D01*
X6769694Y63587472D01*
X6826951Y63573461D01*
X6871267Y63534598D01*
X7001505Y63348599D01*
X7168599Y63181505D01*
X7362170Y63045965D01*
X7576337Y62946097D01*
X7804592Y62884937D01*
X8040000Y62864341D01*
X8275408Y62884937D01*
X8503663Y62946097D01*
X8717830Y63045965D01*
X8911401Y63181505D01*
X9078495Y63348599D01*
X9208426Y63534161D01*
X9252743Y63573025D01*
X9310000Y63587036D01*
X9367257Y63573025D01*
X9411573Y63534161D01*
X9541505Y63348599D01*
X9708599Y63181505D01*
X9902170Y63045965D01*
X10116337Y62946097D01*
X10344592Y62884937D01*
X10580000Y62864341D01*
X10815408Y62884937D01*
X11043663Y62946097D01*
X11257830Y63045965D01*
X11451401Y63181505D01*
X11618495Y63348599D01*
X11748426Y63534161D01*
X11792743Y63573025D01*
X11850000Y63587036D01*
X11907257Y63573025D01*
X11951573Y63534161D01*
X12081505Y63348599D01*
X12248599Y63181505D01*
X12442170Y63045965D01*
X12656337Y62946097D01*
X12884592Y62884937D01*
X13120000Y62864341D01*
X13355408Y62884937D01*
X13583663Y62946097D01*
X13797830Y63045965D01*
X13991401Y63181505D01*
X14158495Y63348599D01*
X14288426Y63534161D01*
X14332743Y63573025D01*
X14390000Y63587036D01*
X14447257Y63573025D01*
X14491573Y63534161D01*
X14621505Y63348599D01*
X14788599Y63181505D01*
X14982170Y63045965D01*
X15196337Y62946097D01*
X15424592Y62884937D01*
X15660000Y62864341D01*
X15895408Y62884937D01*
X16123663Y62946097D01*
X16337830Y63045965D01*
X16531401Y63181505D01*
X16698495Y63348599D01*
X16828426Y63534161D01*
X16872743Y63573025D01*
X16930000Y63587036D01*
X16987257Y63573025D01*
X17031573Y63534161D01*
X17161505Y63348599D01*
X17328599Y63181505D01*
X17522170Y63045965D01*
X17736337Y62946097D01*
X17964592Y62884937D01*
X18200000Y62864341D01*
X18435408Y62884937D01*
X18663663Y62946097D01*
X18877830Y63045965D01*
X18962248Y63105075D01*
X19978625Y63105075D01*
X20062420Y63046401D01*
X20276507Y62946570D01*
X20504681Y62885431D01*
X20740000Y62864843D01*
X20975318Y62885431D01*
X21203492Y62946570D01*
X21417576Y63046400D01*
X21501373Y63105075D01*
X20740000Y63866447D01*
X19978625Y63105075D01*
X18962248Y63105075D01*
X19071401Y63181505D01*
X19238495Y63348599D01*
X19368732Y63534598D01*
X19413048Y63573461D01*
X19470305Y63587472D01*
X19527562Y63573461D01*
X19571880Y63534595D01*
X19625073Y63458627D01*
X20386447Y64219999D01*
X20386447Y64220000D01*
X19625073Y64981374D01*
X19571881Y64905406D01*
X19527563Y64866540D01*
X19470306Y64852529D01*
X19413048Y64866540D01*
X19368730Y64905405D01*
X19238495Y65091401D01*
X19071401Y65258495D01*
X18885839Y65388427D01*
X18846976Y65432743D01*
X18832965Y65490000D01*
X18846976Y65547257D01*
X18885839Y65591574D01*
X19071401Y65721505D01*
X19238495Y65888599D01*
X19368426Y66074161D01*
X19412743Y66113025D01*
X19470000Y66127036D01*
X19527257Y66113025D01*
X19571573Y66074161D01*
X19701505Y65888599D01*
X19868599Y65721505D01*
X20054597Y65591268D01*
X20093460Y65546952D01*
X20107471Y65489694D01*
X20093460Y65432437D01*
X20054594Y65388119D01*
X19978626Y65334927D01*
X20740000Y64573553D01*
X20740001Y64573553D01*
X21501373Y65334927D01*
X21501373Y65334928D01*
X21425405Y65388120D01*
X21386539Y65432438D01*
X21372528Y65489695D01*
X21386539Y65546952D01*
X21425402Y65591268D01*
X21611401Y65721505D01*
X21778495Y65888599D01*
X21908426Y66074161D01*
X21952743Y66113025D01*
X22010000Y66127036D01*
X22067257Y66113025D01*
X22111573Y66074161D01*
X22241505Y65888599D01*
X22408599Y65721505D01*
X22594160Y65591574D01*
X22633024Y65547257D01*
X22647035Y65490000D01*
X22633024Y65432743D01*
X22594159Y65388425D01*
X22408595Y65258492D01*
X22241508Y65091405D01*
X22241505Y65091402D01*
X22241505Y65091401D01*
X22111271Y64905406D01*
X22111270Y64905405D01*
X22066952Y64866540D01*
X22009695Y64852529D01*
X21952438Y64866540D01*
X21908120Y64905405D01*
X21854925Y64981374D01*
X21854925Y64981375D01*
X21093553Y64220000D01*
X21093553Y64219999D01*
X21854925Y63458627D01*
X21908119Y63534595D01*
X21952437Y63573461D01*
X22009694Y63587472D01*
X22066951Y63573461D01*
X22111267Y63534598D01*
X22241505Y63348599D01*
X22408599Y63181505D01*
X22602170Y63045965D01*
X22816337Y62946097D01*
X23044592Y62884937D01*
X23280000Y62864341D01*
X23515408Y62884937D01*
X23743663Y62946097D01*
X23957830Y63045965D01*
X24151401Y63181505D01*
X24318495Y63348599D01*
X24448426Y63534161D01*
X24492743Y63573025D01*
X24550000Y63587036D01*
X24607257Y63573025D01*
X24651573Y63534161D01*
X24781505Y63348599D01*
X24948599Y63181505D01*
X25142170Y63045965D01*
X25356337Y62946097D01*
X25584592Y62884937D01*
X25820000Y62864341D01*
X26055408Y62884937D01*
X26283663Y62946097D01*
X26497830Y63045965D01*
X26691401Y63181505D01*
X26858495Y63348599D01*
X26988426Y63534161D01*
X27032743Y63573025D01*
X27090000Y63587036D01*
X27147257Y63573025D01*
X27191573Y63534161D01*
X27321505Y63348599D01*
X27488599Y63181505D01*
X27682170Y63045965D01*
X27896337Y62946097D01*
X28124592Y62884937D01*
X28360000Y62864341D01*
X28595408Y62884937D01*
X28823663Y62946097D01*
X29037830Y63045965D01*
X29231401Y63181505D01*
X29398495Y63348599D01*
X29528426Y63534161D01*
X29572743Y63573025D01*
X29630000Y63587036D01*
X29687257Y63573025D01*
X29731573Y63534161D01*
X29861505Y63348599D01*
X30028599Y63181505D01*
X30222170Y63045965D01*
X30436337Y62946097D01*
X30664592Y62884937D01*
X30900000Y62864341D01*
X31135408Y62884937D01*
X31363663Y62946097D01*
X31577830Y63045965D01*
X31771401Y63181505D01*
X31938495Y63348599D01*
X32068426Y63534161D01*
X32112743Y63573025D01*
X32170000Y63587036D01*
X32227257Y63573025D01*
X32271573Y63534161D01*
X32401505Y63348599D01*
X32568599Y63181505D01*
X32762170Y63045965D01*
X32976337Y62946097D01*
X33204592Y62884937D01*
X33440000Y62864341D01*
X33675408Y62884937D01*
X33903663Y62946097D01*
X34117830Y63045965D01*
X34311401Y63181505D01*
X34478495Y63348599D01*
X34608426Y63534161D01*
X34652743Y63573025D01*
X34710000Y63587036D01*
X34767257Y63573025D01*
X34811573Y63534161D01*
X34941505Y63348599D01*
X35108599Y63181505D01*
X35302170Y63045965D01*
X35516337Y62946097D01*
X35744592Y62884937D01*
X35980000Y62864341D01*
X36215408Y62884937D01*
X36443663Y62946097D01*
X36657830Y63045965D01*
X36851401Y63181505D01*
X37018495Y63348599D01*
X37148426Y63534161D01*
X37192743Y63573025D01*
X37250000Y63587036D01*
X37307257Y63573025D01*
X37351573Y63534161D01*
X37481505Y63348599D01*
X37648599Y63181505D01*
X37842170Y63045965D01*
X38056337Y62946097D01*
X38284592Y62884937D01*
X38520000Y62864341D01*
X38755408Y62884937D01*
X38983663Y62946097D01*
X39197830Y63045965D01*
X39391401Y63181505D01*
X39558495Y63348599D01*
X39688426Y63534161D01*
X39732743Y63573025D01*
X39790000Y63587036D01*
X39847257Y63573025D01*
X39891573Y63534161D01*
X40021505Y63348599D01*
X40188599Y63181505D01*
X40382170Y63045965D01*
X40596337Y62946097D01*
X40824592Y62884937D01*
X41060000Y62864341D01*
X41295408Y62884937D01*
X41523663Y62946097D01*
X41737830Y63045965D01*
X41931401Y63181505D01*
X42098495Y63348599D01*
X42228426Y63534161D01*
X42272743Y63573025D01*
X42330000Y63587036D01*
X42387257Y63573025D01*
X42431573Y63534161D01*
X42561505Y63348599D01*
X42728599Y63181505D01*
X42922170Y63045965D01*
X43136337Y62946097D01*
X43364592Y62884937D01*
X43600000Y62864341D01*
X43835408Y62884937D01*
X44063663Y62946097D01*
X44277830Y63045965D01*
X44471401Y63181505D01*
X44638495Y63348599D01*
X44768426Y63534161D01*
X44812743Y63573025D01*
X44870000Y63587036D01*
X44927257Y63573025D01*
X44971573Y63534161D01*
X45101505Y63348599D01*
X45268599Y63181505D01*
X45462170Y63045965D01*
X45676337Y62946097D01*
X45904592Y62884937D01*
X46140000Y62864341D01*
X46375408Y62884937D01*
X46603663Y62946097D01*
X46817830Y63045965D01*
X47011401Y63181505D01*
X47178495Y63348599D01*
X47308426Y63534161D01*
X47352743Y63573025D01*
X47410000Y63587036D01*
X47467257Y63573025D01*
X47511573Y63534161D01*
X47641505Y63348599D01*
X47808599Y63181505D01*
X48002170Y63045965D01*
X48216337Y62946097D01*
X48444592Y62884937D01*
X48680000Y62864341D01*
X48915408Y62884937D01*
X49143663Y62946097D01*
X49357830Y63045965D01*
X49551401Y63181505D01*
X49718495Y63348599D01*
X49848426Y63534161D01*
X49892743Y63573025D01*
X49950000Y63587036D01*
X50007257Y63573025D01*
X50051573Y63534161D01*
X50181505Y63348599D01*
X50348599Y63181505D01*
X50542170Y63045965D01*
X50756337Y62946097D01*
X50984592Y62884937D01*
X51220000Y62864341D01*
X51455408Y62884937D01*
X51683663Y62946097D01*
X51897830Y63045965D01*
X52091401Y63181505D01*
X52258495Y63348599D01*
X52388426Y63534161D01*
X52432743Y63573025D01*
X52490000Y63587036D01*
X52547257Y63573025D01*
X52591573Y63534161D01*
X52721505Y63348599D01*
X52888599Y63181505D01*
X53082170Y63045965D01*
X53296337Y62946097D01*
X53524592Y62884937D01*
X53760000Y62864341D01*
X53995408Y62884937D01*
X54223663Y62946097D01*
X54437830Y63045965D01*
X54631401Y63181505D01*
X54798495Y63348599D01*
X54928426Y63534161D01*
X54972743Y63573025D01*
X55030000Y63587036D01*
X55087257Y63573025D01*
X55131573Y63534161D01*
X55261505Y63348599D01*
X55428599Y63181505D01*
X55622170Y63045965D01*
X55836337Y62946097D01*
X56064592Y62884937D01*
X56300000Y62864341D01*
X56535408Y62884937D01*
X56763663Y62946097D01*
X56977830Y63045965D01*
X57171401Y63181505D01*
X57338495Y63348599D01*
X57468426Y63534161D01*
X57512743Y63573025D01*
X57570000Y63587036D01*
X57627257Y63573025D01*
X57671573Y63534161D01*
X57801505Y63348599D01*
X57968599Y63181505D01*
X58162170Y63045965D01*
X58376337Y62946097D01*
X58604592Y62884937D01*
X58840000Y62864341D01*
X59075408Y62884937D01*
X59303663Y62946097D01*
X59517830Y63045965D01*
X59711401Y63181505D01*
X59878495Y63348599D01*
X60008426Y63534161D01*
X60052743Y63573025D01*
X60110000Y63587036D01*
X60167257Y63573025D01*
X60211573Y63534161D01*
X60341505Y63348599D01*
X60508599Y63181505D01*
X60702170Y63045965D01*
X60916337Y62946097D01*
X61144592Y62884937D01*
X61380000Y62864341D01*
X61615408Y62884937D01*
X61843663Y62946097D01*
X62057830Y63045965D01*
X62251401Y63181505D01*
X62418495Y63348599D01*
X62548426Y63534161D01*
X62592743Y63573025D01*
X62650000Y63587036D01*
X62707257Y63573025D01*
X62751573Y63534161D01*
X62881505Y63348599D01*
X63048599Y63181505D01*
X63242170Y63045965D01*
X63456337Y62946097D01*
X63684592Y62884937D01*
X63920000Y62864341D01*
X64155408Y62884937D01*
X64383663Y62946097D01*
X64597830Y63045965D01*
X64791401Y63181505D01*
X64958495Y63348599D01*
X65088426Y63534161D01*
X65132743Y63573025D01*
X65190000Y63587036D01*
X65247257Y63573025D01*
X65291573Y63534161D01*
X65421505Y63348599D01*
X65588599Y63181505D01*
X65782170Y63045965D01*
X65996337Y62946097D01*
X66224592Y62884937D01*
X66460000Y62864341D01*
X66695408Y62884937D01*
X66923663Y62946097D01*
X67137830Y63045965D01*
X67222248Y63105075D01*
X68238625Y63105075D01*
X68322420Y63046401D01*
X68536507Y62946570D01*
X68764681Y62885431D01*
X69000000Y62864843D01*
X69235318Y62885431D01*
X69463492Y62946570D01*
X69677576Y63046400D01*
X69761373Y63105075D01*
X70778625Y63105075D01*
X70862420Y63046401D01*
X71076507Y62946570D01*
X71304681Y62885431D01*
X71540000Y62864843D01*
X71775318Y62885431D01*
X72003492Y62946570D01*
X72217576Y63046400D01*
X72301373Y63105075D01*
X71540000Y63866447D01*
X70778625Y63105075D01*
X69761373Y63105075D01*
X69000000Y63866447D01*
X68238625Y63105075D01*
X67222248Y63105075D01*
X67331401Y63181505D01*
X67498495Y63348599D01*
X67628732Y63534598D01*
X67673048Y63573461D01*
X67730305Y63587472D01*
X67787562Y63573461D01*
X67831880Y63534595D01*
X67885073Y63458627D01*
X68646447Y64219999D01*
X69353553Y64219999D01*
X70114925Y63458627D01*
X70168424Y63535031D01*
X70212742Y63573897D01*
X70269999Y63587908D01*
X70327256Y63573897D01*
X70371574Y63535031D01*
X70425072Y63458627D01*
X70425073Y63458627D01*
X71186447Y64219999D01*
X71186447Y64220000D01*
X70425072Y64981375D01*
X70425072Y64981374D01*
X70371574Y64904970D01*
X70327256Y64866104D01*
X70269999Y64852093D01*
X70212742Y64866104D01*
X70168424Y64904970D01*
X70114925Y64981374D01*
X70114925Y64981375D01*
X69353553Y64220000D01*
X69353553Y64219999D01*
X68646447Y64219999D01*
X68646447Y64220000D01*
X67885073Y64981374D01*
X67831881Y64905406D01*
X67787563Y64866540D01*
X67730306Y64852529D01*
X67673048Y64866540D01*
X67628730Y64905405D01*
X67498495Y65091401D01*
X67331401Y65258495D01*
X67145839Y65388427D01*
X67106974Y65432745D01*
X67092964Y65490001D01*
X67106975Y65547258D01*
X67145837Y65591572D01*
X67331401Y65721505D01*
X67498495Y65888599D01*
X67628426Y66074161D01*
X67672743Y66113025D01*
X67730000Y66127036D01*
X67787257Y66113025D01*
X67831573Y66074161D01*
X67961505Y65888599D01*
X68128599Y65721505D01*
X68314597Y65591268D01*
X68353460Y65546952D01*
X68367471Y65489694D01*
X68353460Y65432437D01*
X68314594Y65388119D01*
X68238626Y65334927D01*
X69000000Y64573553D01*
X69000001Y64573553D01*
X69761373Y65334927D01*
X69761373Y65334928D01*
X70778625Y65334928D01*
X71540000Y64573553D01*
X71540001Y64573553D01*
X72301373Y65334927D01*
X72301373Y65334928D01*
X72224969Y65388426D01*
X72186103Y65432744D01*
X72172092Y65490001D01*
X72186103Y65547258D01*
X72224969Y65591576D01*
X72301373Y65645075D01*
X71540000Y66406447D01*
X70778625Y65645075D01*
X70855031Y65591575D01*
X70893897Y65547256D01*
X70907907Y65489999D01*
X70893896Y65432742D01*
X70855029Y65388424D01*
X70778625Y65334928D01*
X69761373Y65334928D01*
X69685405Y65388120D01*
X69646539Y65432438D01*
X69632528Y65489695D01*
X69646539Y65546952D01*
X69685402Y65591268D01*
X69871401Y65721505D01*
X70038495Y65888599D01*
X70168732Y66074598D01*
X70213048Y66113461D01*
X70270305Y66127472D01*
X70327562Y66113461D01*
X70371880Y66074595D01*
X70425073Y65998627D01*
X71186447Y66759999D01*
X71186447Y66760000D01*
X70425073Y67521374D01*
X70371881Y67445406D01*
X70327563Y67406540D01*
X70270306Y67392529D01*
X70213048Y67406540D01*
X70168730Y67445405D01*
X70038495Y67631401D01*
X69871401Y67798495D01*
X69762243Y67874928D01*
X70778625Y67874928D01*
X71540000Y67113553D01*
X71540001Y67113553D01*
X72301373Y67874927D01*
X72301373Y67874928D01*
X72217580Y67933600D01*
X72003492Y68033431D01*
X71775318Y68094570D01*
X71540000Y68115158D01*
X71304681Y68094570D01*
X71076507Y68033431D01*
X70862422Y67933601D01*
X70778625Y67874928D01*
X69762243Y67874928D01*
X69677830Y67934035D01*
X69463663Y68033903D01*
X69402501Y68050291D01*
X69235407Y68095064D01*
X69000000Y68115660D01*
X68764592Y68095064D01*
X68536336Y68033903D01*
X68322170Y67934035D01*
X68128598Y67798495D01*
X67961505Y67631402D01*
X67831575Y67445841D01*
X67787257Y67406975D01*
X67730000Y67392964D01*
X67672743Y67406975D01*
X67628425Y67445841D01*
X67498494Y67631402D01*
X67331404Y67798492D01*
X67331401Y67798495D01*
X67137830Y67934035D01*
X66923663Y68033903D01*
X66862501Y68050291D01*
X66695407Y68095064D01*
X66460000Y68115660D01*
X66224592Y68095064D01*
X65996336Y68033903D01*
X65782170Y67934035D01*
X65588598Y67798495D01*
X65421505Y67631402D01*
X65291575Y67445841D01*
X65247257Y67406975D01*
X65190000Y67392964D01*
X65132743Y67406975D01*
X65088425Y67445841D01*
X64958494Y67631402D01*
X64791404Y67798492D01*
X64791401Y67798495D01*
X64597830Y67934035D01*
X64383663Y68033903D01*
X64322501Y68050291D01*
X64155407Y68095064D01*
X63920000Y68115660D01*
X63684592Y68095064D01*
X63456336Y68033903D01*
X63242170Y67934035D01*
X63048598Y67798495D01*
X62881505Y67631402D01*
X62751575Y67445841D01*
X62707257Y67406975D01*
X62650000Y67392964D01*
X62592743Y67406975D01*
X62548425Y67445841D01*
X62418494Y67631402D01*
X62251404Y67798492D01*
X62251401Y67798495D01*
X62057830Y67934035D01*
X61843663Y68033903D01*
X61782501Y68050291D01*
X61615407Y68095064D01*
X61380000Y68115660D01*
X61144592Y68095064D01*
X60916336Y68033903D01*
X60702170Y67934035D01*
X60508598Y67798495D01*
X60341505Y67631402D01*
X60211575Y67445841D01*
X60167257Y67406975D01*
X60110000Y67392964D01*
X60052743Y67406975D01*
X60008425Y67445841D01*
X59878494Y67631402D01*
X59711404Y67798492D01*
X59711401Y67798495D01*
X59517830Y67934035D01*
X59303663Y68033903D01*
X59242501Y68050291D01*
X59075407Y68095064D01*
X58840000Y68115660D01*
X58604592Y68095064D01*
X58376336Y68033903D01*
X58162170Y67934035D01*
X57968598Y67798495D01*
X57801505Y67631402D01*
X57671575Y67445841D01*
X57627257Y67406975D01*
X57570000Y67392964D01*
X57512743Y67406975D01*
X57468425Y67445841D01*
X57338494Y67631402D01*
X57171404Y67798492D01*
X57171401Y67798495D01*
X56977830Y67934035D01*
X56763663Y68033903D01*
X56702501Y68050291D01*
X56535407Y68095064D01*
X56300000Y68115660D01*
X56064592Y68095064D01*
X55836336Y68033903D01*
X55622170Y67934035D01*
X55428598Y67798495D01*
X55261505Y67631402D01*
X55131575Y67445841D01*
X55087257Y67406975D01*
X55030000Y67392964D01*
X54972743Y67406975D01*
X54928425Y67445841D01*
X54798494Y67631402D01*
X54631404Y67798492D01*
X54631401Y67798495D01*
X54437830Y67934035D01*
X54223663Y68033903D01*
X54162501Y68050291D01*
X53995407Y68095064D01*
X53760000Y68115660D01*
X53524592Y68095064D01*
X53296336Y68033903D01*
X53082170Y67934035D01*
X52888598Y67798495D01*
X52721505Y67631402D01*
X52591575Y67445841D01*
X52547257Y67406975D01*
X52490000Y67392964D01*
X52432743Y67406975D01*
X52388425Y67445841D01*
X52258494Y67631402D01*
X52091404Y67798492D01*
X52091401Y67798495D01*
X51897830Y67934035D01*
X51683663Y68033903D01*
X51622501Y68050291D01*
X51455407Y68095064D01*
X51220000Y68115660D01*
X50984592Y68095064D01*
X50756336Y68033903D01*
X50542170Y67934035D01*
X50348598Y67798495D01*
X50181505Y67631402D01*
X50051575Y67445841D01*
X50007257Y67406975D01*
X49950000Y67392964D01*
X49892743Y67406975D01*
X49848425Y67445841D01*
X49718494Y67631402D01*
X49551404Y67798492D01*
X49551401Y67798495D01*
X49357830Y67934035D01*
X49143663Y68033903D01*
X49082501Y68050291D01*
X48915407Y68095064D01*
X48680000Y68115660D01*
X48444592Y68095064D01*
X48216336Y68033903D01*
X48002170Y67934035D01*
X47808598Y67798495D01*
X47641505Y67631402D01*
X47511575Y67445841D01*
X47467257Y67406975D01*
X47410000Y67392964D01*
X47352743Y67406975D01*
X47308425Y67445841D01*
X47178494Y67631402D01*
X47011404Y67798492D01*
X47011401Y67798495D01*
X46817830Y67934035D01*
X46603663Y68033903D01*
X46542501Y68050291D01*
X46375407Y68095064D01*
X46140000Y68115660D01*
X45904592Y68095064D01*
X45676336Y68033903D01*
X45462170Y67934035D01*
X45268598Y67798495D01*
X45101505Y67631402D01*
X44971575Y67445841D01*
X44927257Y67406975D01*
X44870000Y67392964D01*
X44812743Y67406975D01*
X44768425Y67445841D01*
X44638494Y67631402D01*
X44471404Y67798492D01*
X44471401Y67798495D01*
X44277830Y67934035D01*
X44063663Y68033903D01*
X44002501Y68050291D01*
X43835407Y68095064D01*
X43600000Y68115660D01*
X43364592Y68095064D01*
X43136336Y68033903D01*
X42922170Y67934035D01*
X42728598Y67798495D01*
X42561505Y67631402D01*
X42431575Y67445841D01*
X42387257Y67406975D01*
X42330000Y67392964D01*
X42272743Y67406975D01*
X42228425Y67445841D01*
X42098494Y67631402D01*
X41931404Y67798492D01*
X41931401Y67798495D01*
X41737830Y67934035D01*
X41523663Y68033903D01*
X41462501Y68050291D01*
X41295407Y68095064D01*
X41060000Y68115660D01*
X40824592Y68095064D01*
X40596336Y68033903D01*
X40382170Y67934035D01*
X40188598Y67798495D01*
X40021505Y67631402D01*
X39891575Y67445841D01*
X39847257Y67406975D01*
X39790000Y67392964D01*
X39732743Y67406975D01*
X39688425Y67445841D01*
X39558494Y67631402D01*
X39391404Y67798492D01*
X39391401Y67798495D01*
X39197830Y67934035D01*
X38983663Y68033903D01*
X38922501Y68050291D01*
X38755407Y68095064D01*
X38520000Y68115660D01*
X38284592Y68095064D01*
X38056336Y68033903D01*
X37842170Y67934035D01*
X37648598Y67798495D01*
X37481505Y67631402D01*
X37351575Y67445841D01*
X37307257Y67406975D01*
X37250000Y67392964D01*
X37192743Y67406975D01*
X37148425Y67445841D01*
X37018494Y67631402D01*
X36851404Y67798492D01*
X36851401Y67798495D01*
X36657830Y67934035D01*
X36443663Y68033903D01*
X36382501Y68050291D01*
X36215407Y68095064D01*
X35980000Y68115660D01*
X35744592Y68095064D01*
X35516336Y68033903D01*
X35302170Y67934035D01*
X35108598Y67798495D01*
X34941508Y67631405D01*
X34941505Y67631402D01*
X34941505Y67631401D01*
X34811271Y67445406D01*
X34811270Y67445405D01*
X34766952Y67406540D01*
X34709695Y67392529D01*
X34652438Y67406540D01*
X34608120Y67445405D01*
X34554925Y67521374D01*
X34554925Y67521375D01*
X33793553Y66760000D01*
X33793553Y66759999D01*
X34554925Y65998627D01*
X34608119Y66074595D01*
X34652437Y66113461D01*
X34709694Y66127472D01*
X34766951Y66113461D01*
X34811267Y66074598D01*
X34941505Y65888599D01*
X35108599Y65721505D01*
X35294160Y65591574D01*
X35333024Y65547257D01*
X35347035Y65490000D01*
X35333024Y65432743D01*
X35294159Y65388425D01*
X35108595Y65258492D01*
X34941505Y65091402D01*
X34811575Y64905841D01*
X34767257Y64866975D01*
X34710000Y64852964D01*
X34652743Y64866975D01*
X34608425Y64905841D01*
X34478494Y65091402D01*
X34311404Y65258492D01*
X34311404Y65258493D01*
X34311401Y65258495D01*
X34125402Y65388733D01*
X34086539Y65433049D01*
X34072528Y65490306D01*
X34086539Y65547563D01*
X34125405Y65591881D01*
X34201373Y65645075D01*
X33440000Y66406447D01*
X32678625Y65645075D01*
X32754594Y65591881D01*
X32793460Y65547563D01*
X32807471Y65490306D01*
X32793461Y65433050D01*
X32754595Y65388731D01*
X32568595Y65258492D01*
X32401505Y65091402D01*
X32271575Y64905841D01*
X32227257Y64866975D01*
X32170000Y64852964D01*
X32112743Y64866975D01*
X32068425Y64905841D01*
X31938494Y65091402D01*
X31771404Y65258492D01*
X31771401Y65258495D01*
X31585839Y65388427D01*
X31546974Y65432745D01*
X31532964Y65490001D01*
X31546975Y65547258D01*
X31585837Y65591572D01*
X31771401Y65721505D01*
X31938495Y65888599D01*
X32068732Y66074598D01*
X32113048Y66113461D01*
X32170305Y66127472D01*
X32227562Y66113461D01*
X32271880Y66074595D01*
X32325073Y65998627D01*
X33086447Y66759999D01*
X33086447Y66760001D01*
X32325073Y67521374D01*
X32271881Y67445406D01*
X32227563Y67406540D01*
X32170306Y67392529D01*
X32113048Y67406540D01*
X32068730Y67445405D01*
X31938495Y67631401D01*
X31771401Y67798495D01*
X31662243Y67874928D01*
X32678625Y67874928D01*
X33440000Y67113553D01*
X33440001Y67113553D01*
X34201373Y67874927D01*
X34201373Y67874928D01*
X34117580Y67933600D01*
X33903492Y68033431D01*
X33675318Y68094570D01*
X33440000Y68115158D01*
X33204681Y68094570D01*
X32976507Y68033431D01*
X32762422Y67933601D01*
X32678625Y67874928D01*
X31662243Y67874928D01*
X31577830Y67934035D01*
X31363663Y68033903D01*
X31302501Y68050291D01*
X31135407Y68095064D01*
X30900000Y68115660D01*
X30664592Y68095064D01*
X30436336Y68033903D01*
X30222170Y67934035D01*
X30028598Y67798495D01*
X29861505Y67631402D01*
X29731575Y67445841D01*
X29687257Y67406975D01*
X29630000Y67392964D01*
X29572743Y67406975D01*
X29528425Y67445841D01*
X29398494Y67631402D01*
X29231404Y67798492D01*
X29231401Y67798495D01*
X29037830Y67934035D01*
X28823663Y68033903D01*
X28762501Y68050291D01*
X28595407Y68095064D01*
X28360000Y68115660D01*
X28124592Y68095064D01*
X27896336Y68033903D01*
X27682170Y67934035D01*
X27488598Y67798495D01*
X27321505Y67631402D01*
X27191575Y67445841D01*
X27147257Y67406975D01*
X27090000Y67392964D01*
X27032743Y67406975D01*
X26988425Y67445841D01*
X26858494Y67631402D01*
X26691404Y67798492D01*
X26691401Y67798495D01*
X26497830Y67934035D01*
X26283663Y68033903D01*
X26222501Y68050291D01*
X26055407Y68095064D01*
X25820000Y68115660D01*
X25584592Y68095064D01*
X25356336Y68033903D01*
X25142170Y67934035D01*
X24948598Y67798495D01*
X24781505Y67631402D01*
X24651575Y67445841D01*
X24607257Y67406975D01*
X24550000Y67392964D01*
X24492743Y67406975D01*
X24448425Y67445841D01*
X24318494Y67631402D01*
X24151404Y67798492D01*
X24151401Y67798495D01*
X23957830Y67934035D01*
X23743663Y68033903D01*
X23682501Y68050291D01*
X23515407Y68095064D01*
X23280000Y68115660D01*
X23044592Y68095064D01*
X22816336Y68033903D01*
X22602170Y67934035D01*
X22408598Y67798495D01*
X22241505Y67631402D01*
X22111575Y67445841D01*
X22067257Y67406975D01*
X22010000Y67392964D01*
X21952743Y67406975D01*
X21908425Y67445841D01*
X21778494Y67631402D01*
X21611404Y67798492D01*
X21611401Y67798495D01*
X21417830Y67934035D01*
X21203663Y68033903D01*
X21142501Y68050291D01*
X20975407Y68095064D01*
X20740000Y68115660D01*
X20504592Y68095064D01*
X20276336Y68033903D01*
X20062170Y67934035D01*
X19868598Y67798495D01*
X19701505Y67631402D01*
X19571575Y67445841D01*
X19527257Y67406975D01*
X19470000Y67392964D01*
X19412743Y67406975D01*
X19368425Y67445841D01*
X19238494Y67631402D01*
X19071404Y67798492D01*
X19071401Y67798495D01*
X18877830Y67934035D01*
X18663663Y68033903D01*
X18602501Y68050291D01*
X18435407Y68095064D01*
X18200000Y68115660D01*
X17964592Y68095064D01*
X17736336Y68033903D01*
X17522170Y67934035D01*
X17328598Y67798495D01*
X17161505Y67631402D01*
X17031575Y67445841D01*
X16987257Y67406975D01*
X16930000Y67392964D01*
X16872743Y67406975D01*
X16828425Y67445841D01*
X16698494Y67631402D01*
X16531404Y67798492D01*
X16531401Y67798495D01*
X16337830Y67934035D01*
X16123663Y68033903D01*
X16062501Y68050291D01*
X15895407Y68095064D01*
X15660000Y68115660D01*
X15424592Y68095064D01*
X15196336Y68033903D01*
X14982170Y67934035D01*
X14788598Y67798495D01*
X14621505Y67631402D01*
X14491575Y67445841D01*
X14447257Y67406975D01*
X14390000Y67392964D01*
X14332743Y67406975D01*
X14288425Y67445841D01*
X14158494Y67631402D01*
X13991404Y67798492D01*
X13991401Y67798495D01*
X13797830Y67934035D01*
X13583663Y68033903D01*
X13522501Y68050291D01*
X13355407Y68095064D01*
X13120000Y68115660D01*
X12884592Y68095064D01*
X12656336Y68033903D01*
X12442170Y67934035D01*
X12248598Y67798495D01*
X12081505Y67631402D01*
X11951575Y67445841D01*
X11907257Y67406975D01*
X11850000Y67392964D01*
X11792743Y67406975D01*
X11748425Y67445841D01*
X11618494Y67631402D01*
X11451404Y67798492D01*
X11451401Y67798495D01*
X11257830Y67934035D01*
X11043663Y68033903D01*
X10982501Y68050291D01*
X10815407Y68095064D01*
X10580000Y68115660D01*
X10344592Y68095064D01*
X10116336Y68033903D01*
X9902170Y67934035D01*
X9708598Y67798495D01*
X9541505Y67631402D01*
X9411575Y67445841D01*
X9367257Y67406975D01*
X9310000Y67392964D01*
X9252743Y67406975D01*
X9208425Y67445841D01*
X9078494Y67631402D01*
X8911404Y67798492D01*
X8911401Y67798495D01*
X8717830Y67934035D01*
X8503663Y68033903D01*
X8442501Y68050291D01*
X8275407Y68095064D01*
X8040000Y68115660D01*
X7804592Y68095064D01*
X7576336Y68033903D01*
X7362170Y67934035D01*
X7168598Y67798495D01*
X7001508Y67631405D01*
X7001505Y67631402D01*
X7001505Y67631401D01*
X6871271Y67445406D01*
X6871270Y67445405D01*
X6826952Y67406540D01*
X6769695Y67392529D01*
X6712438Y67406540D01*
X6668120Y67445405D01*
X6614925Y67521374D01*
X6614925Y67521375D01*
X5853553Y66760000D01*
X5853553Y66759999D01*
X6614925Y65998627D01*
X6668119Y66074595D01*
X6712437Y66113461D01*
X6769694Y66127472D01*
X6826951Y66113461D01*
X6871267Y66074598D01*
X7001505Y65888599D01*
X7168599Y65721505D01*
X7354160Y65591574D01*
X7393024Y65547257D01*
X7407035Y65490000D01*
X7393024Y65432743D01*
X7354159Y65388425D01*
X7168595Y65258492D01*
X7001508Y65091405D01*
X7001505Y65091402D01*
X7001505Y65091401D01*
X6871271Y64905406D01*
X6871270Y64905405D01*
X6826952Y64866540D01*
X6769695Y64852529D01*
X6712438Y64866540D01*
X6668120Y64905405D01*
X6614925Y64981374D01*
X6614925Y64981375D01*
X5853553Y64220000D01*
X5853553Y64219999D01*
X5146447Y64219999D01*
X5146447Y64220000D01*
X4385072Y64981375D01*
X4326399Y64897578D01*
X4226569Y64683493D01*
X4165430Y64455319D01*
X4144842Y64220001D01*
X200500Y64220001D01*
X200500Y65334928D01*
X4738625Y65334928D01*
X5500000Y64573553D01*
X5500001Y64573553D01*
X6261373Y65334927D01*
X6261373Y65334928D01*
X6184969Y65388426D01*
X6146103Y65432744D01*
X6132092Y65490001D01*
X6146103Y65547258D01*
X6184969Y65591576D01*
X6261373Y65645075D01*
X5500000Y66406447D01*
X4738625Y65645075D01*
X4815031Y65591575D01*
X4853897Y65547256D01*
X4867907Y65489999D01*
X4853896Y65432742D01*
X4815029Y65388424D01*
X4738625Y65334928D01*
X200500Y65334928D01*
X200500Y66760000D01*
X4144842Y66760000D01*
X4165430Y66524682D01*
X4226569Y66296508D01*
X4326400Y66082420D01*
X4385073Y65998627D01*
X5146447Y66759999D01*
X5146447Y66760000D01*
X4385072Y67521375D01*
X4326399Y67437578D01*
X4226569Y67223493D01*
X4165430Y66995319D01*
X4144842Y66760000D01*
X200500Y66760000D01*
X200500Y67874928D01*
X4738625Y67874928D01*
X5500000Y67113553D01*
X5500001Y67113553D01*
X6261373Y67874927D01*
X6261373Y67874928D01*
X6177580Y67933600D01*
X5963492Y68033431D01*
X5735318Y68094570D01*
X5500000Y68115158D01*
X5264681Y68094570D01*
X5036507Y68033431D01*
X4822422Y67933601D01*
X4738625Y67874928D01*
X200500Y67874928D01*
X200500Y69675500D01*
X217113Y69737500D01*
X262500Y69782887D01*
X324500Y69799500D01*
X99675500Y69799500D01*
X99737500Y69782887D01*
G37*
G04 #@! TD.AperFunction*
G04 #@! TD*
G04 #@! TA.AperFunction,Conductor*
G04 #@! TO.N,3.3V*
G36*
X80938000Y51983387D02*
G01*
X80983387Y51938000D01*
X81000000Y51876000D01*
X81000000Y48124000D01*
X80983387Y48062000D01*
X80938000Y48016613D01*
X80876000Y48000000D01*
X66955410Y48000000D01*
X66923316Y48004225D01*
X66747973Y48051208D01*
X66529999Y48070278D01*
X66312026Y48051208D01*
X66136684Y48004225D01*
X66104590Y48000000D01*
X51124000Y48000000D01*
X51062000Y48016613D01*
X51016613Y48062000D01*
X51000000Y48124000D01*
X51000000Y49740000D01*
X69210000Y49740000D01*
X69210000Y48942176D01*
X69216402Y48882625D01*
X69266647Y48747911D01*
X69352811Y48632812D01*
X69467910Y48546648D01*
X69602624Y48496403D01*
X69662176Y48490000D01*
X71360000Y48490000D01*
X71360000Y49740000D01*
X71860000Y49740000D01*
X71860000Y48490000D01*
X73557824Y48490000D01*
X73617375Y48496403D01*
X73752089Y48546648D01*
X73867188Y48632812D01*
X73953352Y48747911D01*
X74003597Y48882625D01*
X74010000Y48942176D01*
X74010000Y49740000D01*
X71860000Y49740000D01*
X71360000Y49740000D01*
X69210000Y49740000D01*
X51000000Y49740000D01*
X51000000Y50240000D01*
X69210000Y50240000D01*
X71360000Y50240000D01*
X71360000Y51490000D01*
X71860000Y51490000D01*
X71860000Y50240000D01*
X74010000Y50240000D01*
X74010000Y51037824D01*
X74003597Y51097376D01*
X73953352Y51232090D01*
X73867188Y51347189D01*
X73752089Y51433353D01*
X73617375Y51483598D01*
X73557824Y51490000D01*
X71860000Y51490000D01*
X71360000Y51490000D01*
X69662176Y51490000D01*
X69602624Y51483598D01*
X69467910Y51433353D01*
X69352811Y51347189D01*
X69266647Y51232090D01*
X69216402Y51097376D01*
X69210000Y51037824D01*
X69210000Y50240000D01*
X51000000Y50240000D01*
X51000000Y51675000D01*
X63725001Y51675000D01*
X63725001Y51462521D01*
X63735493Y51359805D01*
X63790642Y51193378D01*
X63882683Y51044155D01*
X64006654Y50920184D01*
X64155877Y50828143D01*
X64322303Y50772994D01*
X64425021Y50762500D01*
X65150000Y50762500D01*
X65150000Y51675000D01*
X65650000Y51675000D01*
X65650000Y50762501D01*
X66374979Y50762501D01*
X66477695Y50772994D01*
X66644122Y50828143D01*
X66793345Y50920184D01*
X66917316Y51044155D01*
X67009357Y51193378D01*
X67064506Y51359804D01*
X67075000Y51462521D01*
X67075000Y51675000D01*
X65650000Y51675000D01*
X65150000Y51675000D01*
X63725001Y51675000D01*
X51000000Y51675000D01*
X51000000Y51876000D01*
X51016613Y51938000D01*
X51062000Y51983387D01*
X51124000Y52000000D01*
X63685000Y52000000D01*
X67115000Y52000000D01*
X80876000Y52000000D01*
X80938000Y51983387D01*
G37*
G04 #@! TD.AperFunction*
G04 #@! TD*
M02*
