<?xml version="1.0" standalone="no"?>
<!DOCTYPE svg PUBLIC "-//W3C//DTD SVG 1.1//EN"
"http://www.w3.org/Graphics/SVG/1.1/DTD/svg11.dtd">
<svg width="181.795" height="181.795" viewBox="0 0 3787.4 3787.4" version="1.1"
xmlns="http://www.w3.org/2000/svg"
xmlns:xlink="http://www.w3.org/1999/xlink">
<polyline points="161.418,3468.5 164.444,3499.23 173.406,3528.77 187.958,3555.99 207.544,3579.86 231.408,3599.44 258.634,3614 288.176,3622.96 318.898,3625.98 3468.5,3625.98 3499.23,3622.96 3528.77,3614 3555.99,3599.44 3579.86,3579.86 3599.44,3555.99 3614,3528.77 3622.96,3499.23 3625.98,3468.5 3625.98,318.898 3622.96,288.176 3614,258.634 3599.44,231.408 3579.86,207.544 3555.99,187.958 3528.77,173.406 3499.23,164.444 3468.5,161.418 318.898,161.418 288.176,164.444 258.634,173.406 231.408,187.958 207.544,207.544 187.958,231.408 173.406,258.634 164.444,288.176 161.418,318.898 161.418,3468.5" style="stroke:rgb(41,35,190);stroke-width:314.960630;fill:none;stroke-opacity:0.5;stroke-linecap:round;stroke-linejoin:round;;fill:none"/>
<polyline points="161.418,3468.5 164.444,3499.23 173.406,3528.77 187.958,3555.99 207.544,3579.86 231.408,3599.44 258.634,3614 288.176,3622.96 318.898,3625.98 3468.5,3625.98 3499.23,3622.96 3528.77,3614 3555.99,3599.44 3579.86,3579.86 3599.44,3555.99 3614,3528.77 3622.96,3499.23 3625.98,3468.5 3625.98,318.898 3622.96,288.176 3614,258.634 3599.44,231.408 3579.86,207.544 3555.99,187.958 3528.77,173.406 3499.23,164.444 3468.5,161.418 318.898,161.418 288.176,164.444 258.634,173.406 231.408,187.958 207.544,207.544 187.958,231.408 173.406,258.634 164.444,288.176 161.418,318.898 161.418,3468.5" style="stroke:rgb(0,0,0);stroke-width:1px;fill:none;stroke-opacity:1;stroke-linecap:round;stroke-linejoin:round;;fill:none"/>
</svg>
