<?xml version="1.0" standalone="no"?>
<!DOCTYPE svg PUBLIC "-//W3C//DTD SVG 1.1//EN"
"http://www.w3.org/Graphics/SVG/1.1/DTD/svg11.dtd">
<svg width="408.567" height="295.181" viewBox="0 0 8511.81 6149.61" version="1.1"
xmlns="http://www.w3.org/2000/svg"
xmlns:xlink="http://www.w3.org/1999/xlink">
<circle cx="712.698" cy="4413.31" r="15.7" style=""/>
<circle cx="1757.5" cy="4094.51" r="15.7" style=""/>
<circle cx="2051.1" cy="4492.11" r="15.7" style=""/>
<circle cx="2287.5" cy="4334.71" r="15.7" style=""/>
<circle cx="2157.5" cy="3894.51" r="15.7" style=""/>
<circle cx="3074.9" cy="4807.11" r="15.7" style=""/>
<circle cx="3389.7" cy="4964.51" r="15.7" style=""/>
<circle cx="3997.5" cy="5134.51" r="15.7" style=""/>
<circle cx="3468.5" cy="4466.11" r="15.7" style=""/>
<circle cx="3625.9" cy="4177.11" r="15.7" style=""/>
<circle cx="3757.5" cy="4247.11" r="15.7" style=""/>
<circle cx="3940.9" cy="3940.91" r="15.7" style=""/>
<circle cx="4057.5" cy="4047.11" r="15.7" style=""/>
<circle cx="5200.7" cy="5122.11" r="15.7" style=""/>
<circle cx="6037.5" cy="5074.51" r="15.7" style=""/>
<circle cx="7057.5" cy="5074.51" r="15.7" style=""/>
<circle cx="7877.9" cy="4334.71" r="15.7" style=""/>
<circle cx="6757.5" cy="3344.51" r="15.7" style=""/>
<circle cx="6037.5" cy="2834.51" r="15.7" style=""/>
<circle cx="6037.5" cy="2574.51" r="15.7" style=""/>
<circle cx="6557.5" cy="2594.51" r="15.7" style=""/>
<circle cx="6857.5" cy="2844.51" r="15.7" style=""/>
<circle cx="7037.5" cy="2158.51" r="15.7" style=""/>
<circle cx="7877.9" cy="1657.51" r="15.7" style=""/>
<circle cx="7457.5" cy="944.509" r="15.7" style=""/>
<circle cx="7045.5" cy="1698.51" r="15.7" style=""/>
<circle cx="7037.5" cy="1870.51" r="15.7" style=""/>
<circle cx="6857.5" cy="1944.51" r="15.7" style=""/>
<circle cx="6460.7" cy="1578.71" r="15.7" style=""/>
<circle cx="6857.5" cy="1244.51" r="15.7" style=""/>
<circle cx="6381.9" cy="1027.51" r="15.7" style=""/>
<circle cx="5515.7" cy="1027.51" r="15.7" style=""/>
<circle cx="5122.1" cy="1578.71" r="15.7" style=""/>
<circle cx="5200.7" cy="1972.51" r="15.7" style=""/>
<circle cx="5557.5" cy="2144.51" r="15.7" style=""/>
<circle cx="4957.5" cy="2944.51" r="15.7" style=""/>
<circle cx="4177.1" cy="3153.51" r="15.7" style=""/>
<circle cx="4057.5" cy="2344.51" r="15.7" style=""/>
<circle cx="3257.5" cy="2244.51" r="15.7" style=""/>
<circle cx="2557.5" cy="3094.51" r="15.7" style=""/>
<circle cx="2757.5" cy="3244.51" r="15.7" style=""/>
<circle cx="3311.1" cy="3547.31" r="15.7" style=""/>
<circle cx="2957.5" cy="3644.51" r="15.7" style=""/>
<circle cx="2681.1" cy="3783.51" r="15.7" style=""/>
<circle cx="2357.5" cy="3444.51" r="15.7" style=""/>
<circle cx="1357.5" cy="2444.51" r="15.7" style=""/>
<circle cx="1057.5" cy="2694.51" r="15.7" style=""/>
<circle cx="712.698" cy="1657.51" r="15.7" style=""/>
<circle cx="1557.5" cy="1394.51" r="15.7" style=""/>
<circle cx="751.898" cy="5574.11" r="39.4" style=""/>
<circle cx="751.898" cy="5374.11" r="39.4" style=""/>
<circle cx="951.898" cy="5374.11" r="39.4" style=""/>
<circle cx="951.898" cy="5574.11" r="39.4" style=""/>
<circle cx="1151.9" cy="5574.11" r="39.4" style=""/>
<circle cx="1351.9" cy="5574.11" r="39.4" style=""/>
<circle cx="1151.9" cy="5374.11" r="39.4" style=""/>
<circle cx="1351.9" cy="5374.11" r="39.4" style=""/>
<circle cx="1551.9" cy="5374.11" r="39.4" style=""/>
<circle cx="1551.9" cy="5574.11" r="39.4" style=""/>
<circle cx="1751.9" cy="5574.11" r="39.4" style=""/>
<circle cx="1751.9" cy="5374.11" r="39.4" style=""/>
<circle cx="1951.9" cy="5374.11" r="39.4" style=""/>
<circle cx="1951.9" cy="5574.11" r="39.4" style=""/>
<circle cx="2151.9" cy="5574.11" r="39.4" style=""/>
<circle cx="2351.9" cy="5574.11" r="39.4" style=""/>
<circle cx="2151.9" cy="5374.11" r="39.4" style=""/>
<circle cx="2351.9" cy="5374.11" r="39.4" style=""/>
<circle cx="2551.9" cy="5374.11" r="39.4" style=""/>
<circle cx="2751.9" cy="5374.11" r="39.4" style=""/>
<circle cx="2551.9" cy="5574.11" r="39.4" style=""/>
<circle cx="2751.9" cy="5574.11" r="39.4" style=""/>
<circle cx="2951.9" cy="5374.11" r="39.4" style=""/>
<circle cx="2951.9" cy="5574.11" r="39.4" style=""/>
<circle cx="3151.9" cy="5374.11" r="39.4" style=""/>
<circle cx="3351.9" cy="5374.11" r="39.4" style=""/>
<circle cx="3151.9" cy="5574.11" r="39.4" style=""/>
<circle cx="3351.9" cy="5574.11" r="39.4" style=""/>
<circle cx="3551.9" cy="5374.11" r="39.4" style=""/>
<circle cx="3751.9" cy="5374.11" r="39.4" style=""/>
<circle cx="3551.9" cy="5574.11" r="39.4" style=""/>
<circle cx="3751.9" cy="5574.11" r="39.4" style=""/>
<circle cx="3951.9" cy="5374.11" r="39.4" style=""/>
<circle cx="3951.9" cy="5574.11" r="39.4" style=""/>
<circle cx="4151.9" cy="5374.11" r="39.4" style=""/>
<circle cx="4151.9" cy="5574.11" r="39.4" style=""/>
<circle cx="4351.9" cy="5374.11" r="39.4" style=""/>
<circle cx="4551.9" cy="5374.11" r="39.4" style=""/>
<circle cx="4351.9" cy="5574.11" r="39.4" style=""/>
<circle cx="4551.9" cy="5574.11" r="39.4" style=""/>
<circle cx="4751.9" cy="5374.11" r="39.4" style=""/>
<circle cx="4751.9" cy="5574.11" r="39.4" style=""/>
<circle cx="4951.9" cy="5374.11" r="39.4" style=""/>
<circle cx="4951.9" cy="5574.11" r="39.4" style=""/>
<circle cx="5151.9" cy="5374.11" r="39.4" style=""/>
<circle cx="5151.9" cy="5574.11" r="39.4" style=""/>
<circle cx="5351.9" cy="5374.11" r="39.4" style=""/>
<circle cx="5551.9" cy="5374.11" r="39.4" style=""/>
<circle cx="5351.9" cy="5574.11" r="39.4" style=""/>
<circle cx="5551.9" cy="5574.11" r="39.4" style=""/>
<circle cx="5751.9" cy="5374.11" r="39.4" style=""/>
<circle cx="5751.9" cy="5574.11" r="39.4" style=""/>
<circle cx="5951.9" cy="5374.11" r="39.4" style=""/>
<circle cx="5951.9" cy="5574.11" r="39.4" style=""/>
<circle cx="6151.9" cy="5374.11" r="39.4" style=""/>
<circle cx="6151.9" cy="5574.11" r="39.4" style=""/>
<circle cx="6351.9" cy="5374.11" r="39.4" style=""/>
<circle cx="6551.9" cy="5374.11" r="39.4" style=""/>
<circle cx="6351.9" cy="5574.11" r="39.4" style=""/>
<circle cx="6551.9" cy="5574.11" r="39.4" style=""/>
<circle cx="6751.9" cy="5374.11" r="39.4" style=""/>
<circle cx="6751.9" cy="5574.11" r="39.4" style=""/>
<circle cx="6951.9" cy="5374.11" r="39.4" style=""/>
<circle cx="6951.9" cy="5574.11" r="39.4" style=""/>
<circle cx="7151.9" cy="5374.11" r="39.4" style=""/>
<circle cx="7151.9" cy="5574.11" r="39.4" style=""/>
<circle cx="7351.9" cy="5374.11" r="39.4" style=""/>
<circle cx="7551.9" cy="5374.11" r="39.4" style=""/>
<circle cx="7351.9" cy="5574.11" r="39.4" style=""/>
<circle cx="7551.9" cy="5574.11" r="39.4" style=""/>
<circle cx="7751.9" cy="5574.11" r="39.4" style=""/>
<circle cx="7751.9" cy="5374.11" r="39.4" style=""/>
<circle cx="7460.7" cy="4956.71" r="39.4" style=""/>
<circle cx="7260.7" cy="4956.71" r="39.4" style=""/>
<circle cx="7260.7" cy="4756.71" r="39.4" style=""/>
<circle cx="7460.7" cy="4756.71" r="39.4" style=""/>
<circle cx="7460.7" cy="4556.71" r="39.4" style=""/>
<circle cx="7260.7" cy="4556.71" r="39.4" style=""/>
<circle cx="7260.7" cy="4356.71" r="39.4" style=""/>
<circle cx="7460.7" cy="4356.71" r="39.4" style=""/>
<circle cx="7460.7" cy="4156.71" r="39.4" style=""/>
<circle cx="7260.7" cy="4156.71" r="39.4" style=""/>
<circle cx="7260.7" cy="3956.71" r="39.4" style=""/>
<circle cx="7460.7" cy="3956.71" r="39.4" style=""/>
<circle cx="7460.7" cy="3756.71" r="39.4" style=""/>
<circle cx="7260.7" cy="3756.71" r="39.4" style=""/>
<circle cx="7260.7" cy="3556.71" r="39.4" style=""/>
<circle cx="7460.7" cy="3556.71" r="39.4" style=""/>
<circle cx="7460.7" cy="3356.71" r="39.4" style=""/>
<circle cx="7260.7" cy="3356.71" r="39.4" style=""/>
<circle cx="7260.7" cy="3156.71" r="39.4" style=""/>
<circle cx="7460.7" cy="3156.71" r="39.4" style=""/>
<circle cx="7460.7" cy="2956.71" r="39.4" style=""/>
<circle cx="7260.7" cy="2956.71" r="39.4" style=""/>
<circle cx="7260.7" cy="2756.71" r="39.4" style=""/>
<circle cx="7460.7" cy="2756.71" r="39.4" style=""/>
<circle cx="7460.7" cy="2556.71" r="39.4" style=""/>
<circle cx="7260.7" cy="2556.71" r="39.4" style=""/>
<circle cx="7260.7" cy="2356.71" r="39.4" style=""/>
<circle cx="7460.7" cy="2356.71" r="39.4" style=""/>
<circle cx="7460.7" cy="2156.71" r="39.4" style=""/>
<circle cx="7260.7" cy="2156.71" r="39.4" style=""/>
<circle cx="7260.7" cy="1956.71" r="39.4" style=""/>
<circle cx="7460.7" cy="1956.71" r="39.4" style=""/>
<circle cx="7460.7" cy="1756.71" r="39.4" style=""/>
<circle cx="7260.7" cy="1756.71" r="39.4" style=""/>
<circle cx="7260.7" cy="1556.71" r="39.4" style=""/>
<circle cx="7460.7" cy="1556.71" r="39.4" style=""/>
<circle cx="7460.7" cy="1356.71" r="39.4" style=""/>
<circle cx="7260.7" cy="1356.71" r="39.4" style=""/>
<circle cx="7260.7" cy="1156.71" r="39.4" style=""/>
<circle cx="7460.7" cy="1156.71" r="39.4" style=""/>
<circle cx="7751.9" cy="774.109" r="39.4" style=""/>
<circle cx="7751.9" cy="574.109" r="39.4" style=""/>
<circle cx="7551.9" cy="774.109" r="39.4" style=""/>
<circle cx="7551.9" cy="574.109" r="39.4" style=""/>
<circle cx="7351.9" cy="774.109" r="39.4" style=""/>
<circle cx="7351.9" cy="574.109" r="39.4" style=""/>
<circle cx="7151.9" cy="774.109" r="39.4" style=""/>
<circle cx="7151.9" cy="574.109" r="39.4" style=""/>
<circle cx="6951.9" cy="774.109" r="39.4" style=""/>
<circle cx="6951.9" cy="574.109" r="39.4" style=""/>
<circle cx="6751.9" cy="774.109" r="39.4" style=""/>
<circle cx="6751.9" cy="574.109" r="39.4" style=""/>
<circle cx="6551.9" cy="774.109" r="39.4" style=""/>
<circle cx="6551.9" cy="574.109" r="39.4" style=""/>
<circle cx="6351.9" cy="774.109" r="39.4" style=""/>
<circle cx="6351.9" cy="574.109" r="39.4" style=""/>
<circle cx="6151.9" cy="774.109" r="39.4" style=""/>
<circle cx="6151.9" cy="574.109" r="39.4" style=""/>
<circle cx="5951.9" cy="774.109" r="39.4" style=""/>
<circle cx="5951.9" cy="574.109" r="39.4" style=""/>
<circle cx="5751.9" cy="774.109" r="39.4" style=""/>
<circle cx="5751.9" cy="574.109" r="39.4" style=""/>
<circle cx="5551.9" cy="774.109" r="39.4" style=""/>
<circle cx="5551.9" cy="574.109" r="39.4" style=""/>
<circle cx="5351.9" cy="774.109" r="39.4" style=""/>
<circle cx="5351.9" cy="574.109" r="39.4" style=""/>
<circle cx="5151.9" cy="774.109" r="39.4" style=""/>
<circle cx="5151.9" cy="574.109" r="39.4" style=""/>
<circle cx="4951.9" cy="774.109" r="39.4" style=""/>
<circle cx="4951.9" cy="574.109" r="39.4" style=""/>
<circle cx="4751.9" cy="774.109" r="39.4" style=""/>
<circle cx="4751.9" cy="574.109" r="39.4" style=""/>
<circle cx="4551.9" cy="774.109" r="39.4" style=""/>
<circle cx="4551.9" cy="574.109" r="39.4" style=""/>
<circle cx="4351.9" cy="774.109" r="39.4" style=""/>
<circle cx="4351.9" cy="574.109" r="39.4" style=""/>
<circle cx="4151.9" cy="774.109" r="39.4" style=""/>
<circle cx="4151.9" cy="574.109" r="39.4" style=""/>
<circle cx="3951.9" cy="774.109" r="39.4" style=""/>
<circle cx="3951.9" cy="574.109" r="39.4" style=""/>
<circle cx="3751.9" cy="774.109" r="39.4" style=""/>
<circle cx="3751.9" cy="574.109" r="39.4" style=""/>
<circle cx="3551.9" cy="774.109" r="39.4" style=""/>
<circle cx="3551.9" cy="574.109" r="39.4" style=""/>
<circle cx="3351.9" cy="774.109" r="39.4" style=""/>
<circle cx="3351.9" cy="574.109" r="39.4" style=""/>
<circle cx="3151.9" cy="574.109" r="39.4" style=""/>
<circle cx="3151.9" cy="774.109" r="39.4" style=""/>
<circle cx="2951.9" cy="574.109" r="39.4" style=""/>
<circle cx="2951.9" cy="774.109" r="39.4" style=""/>
<circle cx="2751.9" cy="574.109" r="39.4" style=""/>
<circle cx="2751.9" cy="774.109" r="39.4" style=""/>
<circle cx="2551.9" cy="574.109" r="39.4" style=""/>
<circle cx="2551.9" cy="774.109" r="39.4" style=""/>
<circle cx="2351.9" cy="574.109" r="39.4" style=""/>
<circle cx="2351.9" cy="774.109" r="39.4" style=""/>
<circle cx="2151.9" cy="574.109" r="39.4" style=""/>
<circle cx="2151.9" cy="774.109" r="39.4" style=""/>
<circle cx="1951.9" cy="574.109" r="39.4" style=""/>
<circle cx="1951.9" cy="774.109" r="39.4" style=""/>
<circle cx="1751.9" cy="574.109" r="39.4" style=""/>
<circle cx="1751.9" cy="774.109" r="39.4" style=""/>
<circle cx="1551.9" cy="574.109" r="39.4" style=""/>
<circle cx="1551.9" cy="774.109" r="39.4" style=""/>
<circle cx="1351.9" cy="574.109" r="39.4" style=""/>
<circle cx="1351.9" cy="774.109" r="39.4" style=""/>
<circle cx="1151.9" cy="574.109" r="39.4" style=""/>
<circle cx="1151.9" cy="774.109" r="39.4" style=""/>
<circle cx="951.898" cy="574.109" r="39.4" style=""/>
<circle cx="951.898" cy="774.109" r="39.4" style=""/>
<circle cx="751.898" cy="574.109" r="39.4" style=""/>
<circle cx="751.898" cy="774.109" r="39.4" style=""/>
</svg>
