<?xml version="1.0" standalone="no"?>
<!DOCTYPE svg PUBLIC "-//W3C//DTD SVG 1.1//EN"
"http://www.w3.org/Graphics/SVG/1.1/DTD/svg11.dtd">
<svg width="181.795" height="181.795" viewBox="0 0 3787.4 3787.4" version="1.1"
xmlns="http://www.w3.org/2000/svg"
xmlns:xlink="http://www.w3.org/1999/xlink">
<polyline points="2564.69,1327.6 2568.75,1326.28 2571.53,1325.53 2585.52,1322.56 2587.56,1322.23 2601.55,1320.76 2603.24,1320.67 2617.23,1320.67 2618.92,1320.76 2632.91,1322.23 2634.95,1322.56 2648.94,1325.53 2651.72,1326.28 2655.78,1327.6" style="stroke:rgb(255,0,0);stroke-width:31.496063;fill:none;stroke-opacity:0.5;stroke-linecap:round;stroke-linejoin:round;;fill:none"/>
<polyline points="2564.69,1327.6 2568.75,1326.28 2571.53,1325.53 2585.52,1322.56 2587.56,1322.23 2601.55,1320.76 2603.24,1320.67 2617.23,1320.67 2618.92,1320.76 2632.91,1322.23 2634.95,1322.56 2648.94,1325.53 2651.72,1326.28 2655.78,1327.6" style="stroke:rgb(0,0,0);stroke-width:1px;fill:none;stroke-opacity:1;stroke-linecap:round;stroke-linejoin:round;;fill:none"/>
<polyline points="2564.69,1327.6 2568.75,1326.28 2571.53,1325.53 2585.52,1322.56 2587.56,1322.23 2601.55,1320.76 2603.24,1320.67 2617.23,1320.67 2618.92,1320.76 2632.91,1322.23 2634.95,1322.56 2648.94,1325.53 2651.72,1326.28 2655.78,1327.6" style="stroke:rgb(255,0,0);stroke-width:31.496063;fill:none;stroke-opacity:0.5;stroke-linecap:round;stroke-linejoin:round;;fill:none"/>
<polyline points="2564.69,1327.6 2568.75,1326.28 2571.53,1325.53 2585.52,1322.56 2587.56,1322.23 2601.55,1320.76 2603.24,1320.67 2617.23,1320.67 2618.92,1320.76 2632.91,1322.23 2634.95,1322.56 2648.94,1325.53 2651.72,1326.28 2655.78,1327.6" style="stroke:rgb(0,0,0);stroke-width:1px;fill:none;stroke-opacity:1;stroke-linecap:round;stroke-linejoin:round;;fill:none"/>
<polyline points="2655.78,1327.59 2651.72,1326.28 2648.94,1325.53 2634.95,1322.56 2632.91,1322.23 2618.92,1320.76 2617.23,1320.67 2603.24,1320.67 2601.55,1320.76 2587.56,1322.23 2585.52,1322.56 2571.53,1325.53 2568.75,1326.28 2564.7,1327.59" style="stroke:rgb(255,0,0);stroke-width:31.496063;fill:none;stroke-opacity:0.5;stroke-linecap:round;stroke-linejoin:round;;fill:none"/>
<polyline points="2655.78,1327.59 2651.72,1326.28 2648.94,1325.53 2634.95,1322.56 2632.91,1322.23 2618.92,1320.76 2617.23,1320.67 2603.24,1320.67 2601.55,1320.76 2587.56,1322.23 2585.52,1322.56 2571.53,1325.53 2568.75,1326.28 2564.7,1327.59" style="stroke:rgb(0,0,0);stroke-width:1px;fill:none;stroke-opacity:1;stroke-linecap:round;stroke-linejoin:round;;fill:none"/>
<polyline points="2655.78,1327.59 2651.72,1326.28 2648.94,1325.53 2634.95,1322.56 2632.91,1322.23 2618.92,1320.76 2617.23,1320.67 2603.24,1320.67 2601.55,1320.76 2587.56,1322.23 2585.52,1322.56 2571.53,1325.53 2568.75,1326.28 2564.7,1327.59" style="stroke:rgb(255,0,0);stroke-width:31.496063;fill:none;stroke-opacity:0.5;stroke-linecap:round;stroke-linejoin:round;;fill:none"/>
<polyline points="2655.78,1327.59 2651.72,1326.28 2648.94,1325.53 2634.95,1322.56 2632.91,1322.23 2618.92,1320.76 2617.23,1320.67 2603.24,1320.67 2601.55,1320.76 2587.56,1322.23 2585.52,1322.56 2571.53,1325.53 2568.75,1326.28 2564.7,1327.59" style="stroke:rgb(0,0,0);stroke-width:1px;fill:none;stroke-opacity:1;stroke-linecap:round;stroke-linejoin:round;;fill:none"/>
</svg>
