<?xml version="1.0" standalone="no"?>
<!DOCTYPE svg PUBLIC "-//W3C//DTD SVG 1.1//EN"
"http://www.w3.org/Graphics/SVG/1.1/DTD/svg11.dtd">
<svg width="181.795" height="181.795" viewBox="0 0 3787.4 3787.4" version="1.1"
xmlns="http://www.w3.org/2000/svg"
xmlns:xlink="http://www.w3.org/1999/xlink">
<g fill-rule="evenodd"><path d="M 358.268,3192.91 L 363.43,3143.8 L 378.69,3096.83 L 403.382,3054.07 L 436.426,3017.37 L 476.378,2988.34 L 521.492,2968.25 L 569.796,2957.99 L 619.18,2957.99 L 667.484,2968.25 L 712.598,2988.34 L 752.551,3017.37 L 785.595,3054.07 L 810.286,3096.83 L 825.547,3143.8 L 830.709,3192.91 L 825.547,3242.03 L 810.286,3288.99 L 785.595,3331.76 L 752.551,3368.46 L 712.598,3397.49 L 667.484,3417.57 L 619.18,3427.84 L 569.796,3427.84 L 521.492,3417.57 L 476.378,3397.49 L 436.426,3368.46 L 403.382,3331.76 L 378.69,3288.99 L 363.43,3242.03 L 358.268,3192.91 z " style="fill-opacity:1.000000;fill:rgb(41,35,190);stroke:rgb(0,0,0);stroke-width:2"/></g>
<g fill-rule="evenodd"><path d="M 358.268,594.488 L 363.43,545.375 L 378.69,498.409 L 403.382,455.641 L 436.426,418.942 L 476.378,389.915 L 521.492,369.829 L 569.796,359.562 L 619.18,359.562 L 667.484,369.829 L 712.598,389.915 L 752.551,418.942 L 785.595,455.641 L 810.286,498.409 L 825.547,545.375 L 830.709,594.488 L 825.547,643.601 L 810.286,690.568 L 785.595,733.335 L 752.551,770.034 L 712.598,799.061 L 667.484,819.147 L 619.18,829.415 L 569.796,829.415 L 521.492,819.147 L 476.378,799.061 L 436.426,770.034 L 403.382,733.335 L 378.69,690.568 L 363.43,643.601 L 358.268,594.488 z " style="fill-opacity:1.000000;fill:rgb(132,225,108);stroke:rgb(0,0,0);stroke-width:2"/></g>
<g fill-rule="evenodd"><path d="M 358.936,3016.8 L 358.936,2029.66 L 358.936,1611.35 L 358.936,1436.78 L 358.936,1360.46 L 358.936,770.604 L 360.512,765.24 L 364.736,761.58 L 370.27,760.784 L 375.354,763.106 L 376.568,764.36 L 388.904,779.596 L 409.38,800.07 L 431.884,818.294 L 439.142,823.006 L 454.512,832.988 L 456.168,834.064 L 456.4,834.182 L 477.678,845.024 L 481.968,847.21 L 498.486,853.55 L 507.784,857.12 L 509.002,857.586 L 536.972,865.082 L 552.17,867.488 L 565.316,869.57 L 565.57,869.612 L 594.488,871.126 L 623.404,869.612 L 623.66,869.57 L 636.806,867.488 L 652.004,865.082 L 679.974,857.586 L 681.192,857.12 L 690.488,853.55 L 707.006,847.21 L 711.298,845.024 L 732.576,834.182 L 732.808,834.064 L 734.462,832.988 L 749.834,823.006 L 757.092,818.294 L 779.596,800.07 L 800.07,779.596 L 818.294,757.092 L 829.146,740.378 L 833.922,733.026 L 834.064,732.808 L 836.21,728.594 L 847.092,707.238 L 847.21,707.006 L 854.932,686.888 L 857.494,680.218 L 857.586,679.974 L 860.154,670.392 L 865.082,652.004 L 867.488,636.806 L 869.57,623.66 L 869.612,623.404 L 870.96,597.668 L 871.126,594.488 L 869.612,565.57 L 869.47,564.684 L 866.22,544.162 L 865.082,536.972 L 857.586,509.002 L 847.21,481.968 L 844.682,477.008 L 834.182,456.4 L 834.064,456.168 L 833.626,455.494 L 818.436,432.102 L 818.294,431.884 L 800.07,409.38 L 779.596,388.904 L 764.36,376.568 L 761.184,371.968 L 760.996,366.382 L 763.86,361.58 L 768.866,359.09 L 770.604,358.936 L 3016.8,358.936 L 3022.16,360.512 L 3025.82,364.736 L 3026.62,370.27 L 3024.29,375.354 L 3023.04,376.568 L 3007.81,388.904 L 2987.33,409.38 L 2969.11,431.884 L 2968.97,432.102 L 2953.77,455.494 L 2953.34,456.168 L 2953.22,456.4 L 2942.72,477.008 L 2940.19,481.968 L 2929.81,509.002 L 2922.32,536.972 L 2921.18,544.162 L 2917.93,564.684 L 2917.79,565.57 L 2916.27,594.488 L 2917.79,623.404 L 2917.83,623.66 L 2919.91,636.806 L 2922.32,652.004 L 2929.81,679.974 L 2929.91,680.216 L 2932.47,686.888 L 2940.19,707.006 L 2940.31,707.238 L 2951.19,728.594 L 2953.34,732.808 L 2953.48,733.024 L 2958.25,740.378 L 2969.11,757.092 L 2987.33,779.596 L 3007.81,800.07 L 3030.31,818.294 L 3037.57,823.006 L 3052.94,832.988 L 3054.59,834.064 L 3054.82,834.182 L 3076.1,845.024 L 3080.39,847.21 L 3096.91,853.55 L 3106.21,857.12 L 3107.43,857.586 L 3135.4,865.082 L 3150.59,867.488 L 3163.74,869.57 L 3164,869.612 L 3192.91,871.126 L 3221.83,869.612 L 3222.08,869.57 L 3235.23,867.488 L 3250.43,865.082 L 3278.4,857.586 L 3279.62,857.12 L 3288.91,853.55 L 3305.43,847.21 L 3309.72,845.024 L 3331,834.182 L 3331.23,834.064 L 3332.89,832.988 L 3348.26,823.006 L 3355.52,818.294 L 3378.02,800.07 L 3398.5,779.596 L 3410.83,764.36 L 3415.43,761.184 L 3421.02,760.996 L 3425.82,763.86 L 3428.31,768.866 L 3428.46,770.604 L 3428.46,3016.8 L 3426.89,3022.16 L 3422.66,3025.82 L 3417.13,3026.62 L 3412.05,3024.29 L 3410.83,3023.04 L 3406.06,3017.15 L 3398.5,3007.81 L 3378.02,2987.33 L 3355.52,2969.11 L 3337.15,2957.18 L 3331.45,2953.48 L 3331.23,2953.34 L 3331,2953.22 L 3305.66,2940.31 L 3305.43,2940.19 L 3278.4,2929.81 L 3250.43,2922.32 L 3234.44,2919.79 L 3222.08,2917.83 L 3221.83,2917.79 L 3192.91,2916.27 L 3164,2917.79 L 3163.74,2917.83 L 3151.39,2919.79 L 3135.4,2922.32 L 3107.43,2929.81 L 3080.39,2940.19 L 3080.16,2940.31 L 3054.82,2953.22 L 3054.59,2953.34 L 3030.31,2969.11 L 3007.81,2987.33 L 2987.33,3007.81 L 2969.11,3030.31 L 2968.97,3030.53 L 2953.87,3053.77 L 2953.34,3054.59 L 2953.22,3054.82 L 2940.97,3078.86 L 2940.19,3080.39 L 2929.81,3107.43 L 2922.32,3135.4 L 2917.79,3164 L 2916.27,3192.91 L 2917.79,3221.83 L 2917.83,3222.08 L 2918.57,3226.73 L 2922.32,3250.43 L 2929.81,3278.4 L 2940.19,3305.43 L 2953.34,3331.23 L 2969.11,3355.52 L 2987.33,3378.02 L 3007.81,3398.5 L 3008.01,3398.66 L 3023.04,3410.83 L 3026.22,3415.43 L 3026.4,3421.02 L 3023.54,3425.82 L 3018.53,3428.31 L 3016.8,3428.46 L 770.604,3428.46 L 765.24,3426.89 L 761.58,3422.66 L 760.784,3417.13 L 763.106,3412.05 L 764.36,3410.83 L 779.392,3398.66 L 779.596,3398.5 L 800.07,3378.02 L 818.294,3355.52 L 834.064,3331.23 L 847.21,3305.43 L 857.586,3278.4 L 865.082,3250.43 L 868.834,3226.73 L 869.57,3222.09 L 869.612,3221.83 L 871.126,3192.91 L 869.612,3164 L 865.082,3135.4 L 857.586,3107.43 L 847.21,3080.39 L 846.428,3078.86 L 834.182,3054.82 L 834.064,3054.59 L 833.532,3053.77 L 818.436,3030.53 L 818.294,3030.31 L 800.07,3007.81 L 779.596,2987.33 L 757.092,2969.11 L 738.722,2957.18 L 733.024,2953.48 L 732.808,2953.34 L 732.576,2953.22 L 707.238,2940.31 L 707.006,2940.19 L 679.974,2929.81 L 652.004,2922.32 L 636.014,2919.79 L 623.66,2917.83 L 623.404,2917.79 L 594.488,2916.27 L 565.57,2917.79 L 565.316,2917.83 L 552.96,2919.79 L 536.972,2922.32 L 509.002,2929.81 L 481.968,2940.19 L 481.736,2940.31 L 456.4,2953.22 L 456.168,2953.34 L 431.884,2969.11 L 409.38,2987.33 L 388.904,3007.81 L 381.338,3017.15 L 376.568,3023.04 L 371.968,3026.22 L 366.382,3026.4 L 361.58,3023.54 L 359.09,3018.53 L 358.936,3016.8M 989.526,1360.46 L 989.88,1361.66 L 989.988,1361.76 L 990.594,1361.89 L 1029.53,1361.89 L 1029.53,1330.71 L 1029.96,1326.62 L 1031.23,1322.7 L 1033.29,1319.14 L 1036.04,1316.08 L 1039.37,1313.66 L 1043.13,1311.99 L 1047.15,1311.13 L 1049.21,1311.13 L 1049.21,1311.02 L 1061.69,1311.02 L 1061.69,1272.45 L 1061.34,1271.25 L 1061.23,1271.15 L 1060.63,1271.02 L 1045.5,1271.02 L 1044.99,1271.05 L 1037.46,1271.83 L 1036.41,1272.06 L 1024.27,1276.11 L 1023.23,1276.59 L 1012.38,1283.31 L 1011.48,1284.02 L 1002.46,1293.06 L 1001.75,1293.96 L 995.054,1304.82 L 994.57,1305.86 L 990.54,1318.01 L 990.314,1319.06 L 989.552,1326.49 L 989.526,1327 L 989.526,1360.46M 989.528,1436.78 L 989.554,1437.29 L 990.334,1444.82 L 990.562,1445.87 L 994.612,1458.01 L 995.098,1459.05 L 1001.82,1469.91 L 1002.53,1470.8 L 1011.56,1479.82 L 1012.46,1480.53 L 1023.33,1487.23 L 1024.36,1487.71 L 1036.51,1491.74 L 1037.57,1491.97 L 1044.99,1492.73 L 1045.5,1492.76 L 1060.27,1492.76 L 1061.47,1492.4 L 1061.56,1492.29 L 1061.69,1491.69 L 1061.69,1491.33 L 1061.69,1452.76 L 1049.21,1452.76 L 1049.21,1452.65 L 1047.15,1452.65 L 1043.13,1451.79 L 1039.37,1450.12 L 1036.04,1447.7 L 1033.29,1444.64 L 1031.23,1441.08 L 1029.96,1437.16 L 1029.53,1433.07 L 1029.53,1401.89 L 990.954,1401.89 L 989.754,1402.24 L 989.658,1402.35 L 989.528,1402.96 L 989.528,1436.78M 1067.89,2029.66 L 1067.92,2030.07 L 1068.72,2044.03 L 1068.91,2047.22 L 1069,2047.62 L 1069.73,2050.89 L 1072.77,2064.38 L 1079.39,2080.68 L 1082.01,2084.96 L 1085.45,2090.56 L 1088.58,2095.68 L 1100.1,2108.97 L 1100.41,2109.23 L 1100.79,2109.54 L 1103.91,2114.18 L 1104.02,2119.77 L 1101.1,2124.53 L 1097.93,2126.46 L 1094.75,2127.66 L 1088.84,2129.87 L 1079.66,2136.75 L 1072.79,2145.93 L 1068.76,2156.67 L 1068.23,2161.56 L 1068.23,2303 L 1068.76,2307.9 L 1072.79,2318.64 L 1079.66,2327.82 L 1088.84,2334.69 L 1099.58,2338.72 L 1104.48,2339.25 L 1245.92,2339.25 L 1250.81,2338.72 L 1261.55,2334.69 L 1270.73,2327.82 L 1277.61,2318.64 L 1278.04,2317.49 L 1279.18,2314.44 L 1282.54,2309.97 L 1287.78,2308.03 L 1293.24,2309.23 L 1295.48,2310.91 L 1311.38,2326.81 L 1314.06,2331.72 L 1314.29,2333.83 L 1314.29,2581.69 L 1312.72,2587.05 L 1308.49,2590.72 L 1307.88,2590.96 L 1307.72,2591.03 L 1307.17,2591.22 L 1295.33,2598.54 L 1285.49,2608.4 L 1285.18,2608.89 L 1280.57,2616.37 L 1278.18,2620.26 L 1273.79,2633.47 L 1272.95,2641.7 L 1272.95,2877.98 L 1272.98,2878.24 L 1273.05,2878.89 L 1273.82,2886.31 L 1278.22,2899.52 L 1285.55,2911.37 L 1295.41,2921.2 L 1295.9,2921.51 L 1306.7,2928.16 L 1307.26,2928.51 L 1312.52,2930.26 L 1319.97,2932.73 L 1320.48,2932.9 L 1321.02,2932.95 L 1324.39,2933.3 L 1328.71,2933.74 L 1399.64,2933.74 L 1399.89,2933.71 L 1407.43,2932.93 L 1407.97,2932.88 L 1408.48,2932.7 L 1418.88,2929.23 L 1421.18,2928.47 L 1433.02,2921.14 L 1442.86,2911.28 L 1448.43,2902.24 L 1449.86,2899.92 L 1450.17,2899.43 L 1454.55,2886.21 L 1455.39,2877.98 L 1455.39,2641.7 L 1454.53,2633.37 L 1450.12,2620.16 L 1442.79,2608.32 L 1432.94,2598.48 L 1426.05,2594.24 L 1421.57,2591.47 L 1421.08,2591.17 L 1420.53,2590.99 L 1420.01,2590.75 L 1420.09,2590.57 L 1416.26,2587.91 L 1414.11,2582.75 L 1414.05,2581.68 L 1414.05,2315.26 L 1414.1,2314.38 L 1414.23,2313.79 L 1414.06,2308.43 L 1414.05,2308.11 L 1414.05,2305.92 L 1414.01,2305.6 L 1413.94,2304.67 L 1413.94,2304.58 L 1413.83,2301.19 L 1413.39,2299.66 L 1413.07,2298.13 L 1412.95,2297.17 L 1412.87,2296.55 L 1412.64,2295.97 L 1411.59,2293.31 L 1411.29,2292.43 L 1410.59,2290.02 L 1410.32,2289.09 L 1410,2288.55 L 1409.5,2287.71 L 1408.82,2286.32 L 1408.46,2285.41 L 1408.23,2284.83 L 1406.19,2282.02 L 1405.67,2281.24 L 1404.22,2278.78 L 1403.9,2278.24 L 1402.77,2277.11 L 1401.76,2275.93 L 1400.82,2274.64 L 1398.14,2272.42 L 1397.45,2271.79 L 1327.06,2201.4 L 1326.46,2200.74 L 1326.14,2200.23 L 1322.23,2196.56 L 1322.01,2196.35 L 1320.45,2194.79 L 1320.2,2194.6 L 1319.49,2193.99 L 1318.28,2192.85 L 1316.95,2191.61 L 1316.41,2191.31 L 1315.56,2190.84 L 1314.26,2189.98 L 1314.22,2189.96 L 1312.99,2189.01 L 1312.42,2188.76 L 1309.8,2187.62 L 1308.96,2187.21 L 1305.91,2185.54 L 1304.36,2185.14 L 1302.89,2184.63 L 1302,2184.25 L 1301.43,2184 L 1300.81,2183.9 L 1297.99,2183.46 L 1297.07,2183.27 L 1294.31,2182.56 L 1293.7,2182.4 L 1292.11,2182.4 L 1290.55,2182.28 L 1290.52,2182.27 L 1285.48,2179.87 L 1282.52,2175.13 L 1282.16,2172.48 L 1282.16,2161.56 L 1281.63,2156.67 L 1277.61,2145.93 L 1270.73,2136.75 L 1261.55,2129.87 L 1257.61,2128.4 L 1252.22,2126.37 L 1247.75,2123.02 L 1245.81,2117.78 L 1247,2112.31 L 1248.7,2110.06 L 1255.31,2103.47 L 1256.94,2101.85 L 1258.94,2099.06 L 1266.96,2087.9 L 1267.2,2087.56 L 1268.49,2084.96 L 1274.81,2072.16 L 1274.99,2071.8 L 1280.11,2054.97 L 1282.4,2037.53 L 1282.46,2035.36 L 1282.51,2033.2 L 1284.21,2027.88 L 1288.53,2024.32 L 1292.43,2023.52 L 1509.37,2023.52 L 1514.73,2025.1 L 1518.4,2029.32 L 1519.19,2034.85 L 1517.91,2038.49 L 1515.22,2043.04 L 1511.57,2055.62 L 1511.33,2058.56 L 1511.33,2092.65 L 1511.35,2092.85 L 1511.42,2093.79 L 1511.57,2095.59 L 1515.22,2108.17 L 1521.89,2119.45 L 1522.1,2119.66 L 1524.09,2124.73 L 1523,2130.21 L 1522.2,2131.46 L 1521.89,2131.76 L 1515.22,2143.04 L 1511.57,2155.62 L 1511.53,2156.13 L 1511.43,2157.29 L 1511.33,2158.56 L 1511.33,2192.65 L 1511.35,2192.85 L 1511.49,2194.6 L 1511.57,2195.59 L 1515.22,2208.17 L 1515.54,2208.71 L 1517.44,2211.93 L 1518.82,2217.35 L 1517.6,2221.76 L 1516.24,2224.22 L 1515.86,2225.72 L 1515.85,2225.77 L 1515.34,2227.24 L 1515.06,2227.89 L 1514.71,2228.7 L 1514.61,2229.32 L 1514.16,2232.14 L 1513.98,2233.06 L 1513.53,2234.79 L 1513.11,2236.43 L 1513.11,2238.02 L 1512.99,2239.58 L 1512.74,2241.15 L 1512.8,2241.77 L 1513.07,2244.62 L 1513.11,2245.55 L 1513.11,2247.53 L 1511.95,2252.08 L 1511.76,2252.32 L 1507.74,2263.06 L 1507.2,2267.96 L 1507.2,2527.51 L 1507.74,2532.4 L 1511.76,2543.14 L 1518.64,2552.32 L 1527.82,2559.2 L 1538.56,2563.22 L 1543.45,2563.76 L 1582.53,2563.76 L 1587.43,2563.22 L 1598.17,2559.2 L 1604.32,2554.59 L 1609.56,2552.63 L 1615.02,2553.82 L 1616.22,2554.59 L 1621.76,2558.74 L 1622.99,2559.41 L 1632.47,2562.97 L 1633.67,2563.25 L 1637.68,2563.69 L 1638.21,2563.72 L 1640.31,2563.72 L 1641.51,2563.36 L 1641.6,2563.26 L 1641.73,2562.65 L 1641.73,2391.91 L 1641.73,2391.9 L 1641.73,2271.75 L 1673.23,2271.75 L 1673.23,2523.72 L 1673.23,2523.72 L 1673.23,2562.29 L 1673.58,2563.49 L 1673.69,2563.59 L 1674.29,2563.72 L 1676.74,2563.72 L 1677.28,2563.69 L 1681.29,2563.25 L 1682.49,2562.97 L 1691.97,2559.41 L 1693.2,2558.74 L 1698.74,2554.59 L 1703.98,2552.63 L 1709.44,2553.82 L 1710.64,2554.59 L 1716.79,2559.2 L 1727.53,2563.22 L 1732.43,2563.76 L 1771.51,2563.76 L 1776.4,2563.22 L 1783.17,2560.69 L 1788.75,2560.28 L 1793.66,2562.95 L 1796.34,2567.85 L 1796.57,2569.98 L 1796.57,2588.87 L 1795,2594.24 L 1790.77,2597.9 L 1785.24,2598.69 L 1781.45,2597.32 L 1771.97,2591.47 L 1771.47,2591.17 L 1758.84,2586.98 L 1758.77,2586.96 L 1758.26,2586.79 L 1757.72,2586.73 L 1754.33,2586.38 L 1750.03,2585.94 L 1679.1,2585.94 L 1678.85,2585.97 L 1671.31,2586.75 L 1670.77,2586.81 L 1670.26,2586.98 L 1664.68,2588.84 L 1657.56,2591.22 L 1645.72,2598.54 L 1635.88,2608.4 L 1635.58,2608.89 L 1630.97,2616.37 L 1628.57,2620.26 L 1624.19,2633.47 L 1623.35,2641.7 L 1623.35,2877.98 L 1623.37,2878.24 L 1623.44,2878.89 L 1624.21,2886.31 L 1628.62,2899.52 L 1635.95,2911.37 L 1645.8,2921.2 L 1646.29,2921.51 L 1657.09,2928.16 L 1657.66,2928.51 L 1662.92,2930.26 L 1670.36,2932.73 L 1670.88,2932.9 L 1671.41,2932.95 L 1674.79,2933.3 L 1679.1,2933.74 L 1750.03,2933.74 L 1750.29,2933.71 L 1757.82,2932.93 L 1758.36,2932.88 L 1758.87,2932.7 L 1771.57,2928.47 L 1771.64,2928.68 L 1776.16,2927.98 L 1781.27,2930.26 L 1784.33,2934.93 L 1784.76,2937.82 L 1784.76,2948.85 L 1784.79,2949.11 L 1785.24,2953.48 L 1785.63,2957.18 L 1790.03,2970.39 L 1797.36,2982.23 L 1807.22,2992.07 L 1807.71,2992.37 L 1818.51,2999.03 L 1819.08,2999.38 L 1825.35,3001.46 L 1831.78,3003.59 L 1832.29,3003.76 L 1832.83,3003.82 L 1836.22,3004.17 L 1840.52,3004.61 L 1946.88,3004.61 L 1947.14,3004.58 L 1954.67,3003.8 L 1955.21,3003.74 L 1955.72,3003.57 L 1966.13,3000.1 L 1968.42,2999.33 L 1980.26,2992.01 L 1980.78,2991.49 L 1980.88,2991.43 L 1981.12,2991.24 L 1981.16,2991.28 L 1985.69,2988.8 L 1991.26,2989.2 L 1995.74,2992.54 L 1997.21,2995.36 L 2000.52,3005.26 L 2001,3006.3 L 2007.72,3017.15 L 2008.43,3018.05 L 2017.47,3027.07 L 2018.17,3027.62 L 2021.4,3032.18 L 2021.66,3037.77 L 2018.85,3042.6 L 2018.24,3043.14 L 2017.77,3043.43 L 2007.93,3053.28 L 2007.63,3053.77 L 2002.84,3061.54 L 1998.68,3065.28 L 1994.39,3066.26 L 1941.24,3066.26 L 1940.36,3066.22 L 1939.77,3066.09 L 1939.15,3066.11 L 1934.41,3066.25 L 1934.1,3066.26 L 1840.52,3066.26 L 1840.26,3066.29 L 1832.73,3067.07 L 1832.19,3067.12 L 1831.68,3067.3 L 1821.27,3070.77 L 1818.98,3071.53 L 1807.14,3078.86 L 1797.3,3088.72 L 1789.99,3100.57 L 1785.61,3113.79 L 1784.76,3122.02 L 1784.76,3192.94 L 1784.79,3193.2 L 1785.56,3200.63 L 1785.63,3201.27 L 1790.03,3214.48 L 1797.36,3226.33 L 1807.22,3236.17 L 1807.71,3236.47 L 1818.51,3243.12 L 1819.08,3243.47 L 1825.35,3245.56 L 1831.78,3247.69 L 1832.29,3247.86 L 1832.83,3247.91 L 1836.22,3248.26 L 1840.52,3248.7 L 1946.88,3248.7 L 1947.14,3248.67 L 1954.67,3247.89 L 1955.21,3247.84 L 1955.72,3247.66 L 1966.13,3244.19 L 1968.42,3243.43 L 1980.26,3236.1 L 1990.1,3226.24 L 1997.41,3214.39 L 2001.79,3201.17 L 2002.28,3196.41 L 2002.32,3196 L 2004.44,3190.82 L 2009.01,3187.61 L 2014.6,3187.39 L 2017.82,3188.97 L 2017.85,3188.92 L 2029.14,3195.88 L 2029.71,3196.23 L 2035.98,3198.31 L 2042.41,3200.44 L 2042.92,3200.61 L 2043.46,3200.67 L 2046.85,3201.02 L 2051.15,3201.46 L 2129.95,3201.46 L 2130.21,3201.43 L 2137.74,3200.65 L 2138.28,3200.59 L 2138.79,3200.42 L 2149.2,3196.95 L 2151.49,3196.18 L 2163.33,3188.86 L 2164.8,3187.39 L 2172.77,3179.41 L 2173.17,3179 L 2180.48,3167.14 L 2184.87,3153.93 L 2185.71,3145.7 L 2185.71,3086.58 L 2185.68,3086.33 L 2184.9,3078.79 L 2184.84,3078.25 L 2180.44,3065.04 L 2173.11,3053.2 L 2163.25,3043.36 L 2162.89,3043.14 L 2159.7,3038.63 L 2159.44,3033.05 L 2162.25,3028.21 L 2162.92,3027.63 L 2163.72,3027 L 2172.73,3017.97 L 2173.44,3017.07 L 2180.14,3006.2 L 2180.63,3005.16 L 2184.66,2993.01 L 2184.88,2991.96 L 2185.64,2984.53 L 2185.67,2984.03 L 2185.67,2976.15 L 2185.32,2974.95 L 2185.21,2974.86 L 2184.6,2974.72 L 2145.67,2974.72 L 2145.67,2980.31 L 2145.24,2984.41 L 2143.97,2988.32 L 2141.91,2991.89 L 2139.16,2994.94 L 2135.83,2997.36 L 2132.07,2999.04 L 2128.04,2999.89 L 2125.98,2999.89 L 2125.98,3000 L 2055.12,3000 L 2055.12,2999.89 L 2053.06,2999.89 L 2049.04,2999.04 L 2045.28,2997.36 L 2041.95,2994.94 L 2039.19,2991.89 L 2037.13,2988.32 L 2035.86,2984.41 L 2035.43,2980.31 L 2035.43,2929.13 L 2035.86,2925.04 L 2037.13,2921.13 L 2039.19,2917.56 L 2041.95,2914.51 L 2045.28,2912.09 L 2049.04,2910.41 L 2053.06,2909.56 L 2055.12,2909.56 L 2055.12,2909.45 L 2070.55,2909.45 L 2070.55,2870.87 L 2070.2,2869.67 L 2070.09,2869.58 L 2069.48,2869.45 L 2051.41,2869.45 L 2050.9,2869.47 L 2043.37,2870.26 L 2042.31,2870.48 L 2030.17,2874.53 L 2029.14,2875.02 L 2017.79,2882.04 L 2017.73,2881.93 L 2013.17,2883.77 L 2007.68,2882.74 L 2003.62,2878.89 L 2002.33,2874.93 L 2001.83,2870.13 L 2001.77,2869.59 L 1997.98,2858.22 L 1997.77,2852.63 L 2000.62,2847.82 L 2005.62,2845.32 L 2007.39,2845.16 L 2493.35,2845.16 L 2498.71,2846.73 L 2502.37,2850.96 L 2503.27,2855.08 L 2503.27,2865.99 L 2503.8,2870.89 L 2507.82,2881.63 L 2514.7,2890.81 L 2523.88,2897.69 L 2534.62,2901.71 L 2539.52,2902.24 L 2680.95,2902.24 L 2685.85,2901.71 L 2696.59,2897.69 L 2705.77,2890.81 L 2712.65,2881.63 L 2716.67,2870.89 L 2717.2,2865.99 L 2717.2,2724.56 L 2716.67,2719.66 L 2712.65,2708.92 L 2705.77,2699.74 L 2696.59,2692.86 L 2691.33,2690.89 L 2687.22,2689.35 L 2682.75,2685.99 L 2680.8,2680.75 L 2682,2675.29 L 2683.7,2673.03 L 2691.66,2665.1 L 2692.18,2664.48 L 2701.97,2650.87 L 2702.39,2650.17 L 2709.82,2635.14 L 2710.12,2634.38 L 2714.99,2618.34 L 2715.16,2617.55 L 2715.27,2616.69 L 2715.1,2615.57 L 2714.06,2615.27 L 2673.73,2615.27 L 2671.38,2622.5 L 2664.38,2634.62 L 2655.02,2645.01 L 2643.7,2653.24 L 2630.92,2658.93 L 2617.23,2661.84 L 2603.24,2661.84 L 2589.55,2658.93 L 2576.77,2653.24 L 2565.45,2645.01 L 2556.09,2634.62 L 2549.09,2622.5 L 2546.75,2615.27 L 2506.55,2615.27 L 2505.49,2615.59 L 2505.37,2616.37 L 2507.76,2626.96 L 2508,2627.74 L 2514.31,2643.28 L 2514.68,2644 L 2523.44,2658.3 L 2523.92,2658.95 L 2534.9,2671.63 L 2535.48,2672.19 L 2535.87,2672.52 L 2538.99,2677.16 L 2539.11,2682.75 L 2536.18,2687.51 L 2533.01,2689.44 L 2524.54,2692.62 L 2523.88,2692.86 L 2514.7,2699.74 L 2507.82,2708.92 L 2503.8,2719.66 L 2503.27,2724.56 L 2503.27,2735.47 L 2501.69,2740.84 L 2497.47,2744.5 L 2493.35,2745.39 L 1948.58,2745.39 L 1943.22,2743.82 L 1939.56,2739.59 L 1938.66,2735.47 L 1938.66,2717.85 L 1940.24,2712.48 L 1944.46,2708.82 L 1945.44,2708.44 L 1946.77,2708 L 1947.32,2707.66 L 1958.12,2700.97 L 1958.61,2700.67 L 1968.45,2690.81 L 1969.99,2688.31 L 1975.45,2679.45 L 1975.76,2678.96 L 1980.14,2665.74 L 1980.98,2657.51 L 1980.98,2657.25 L 1980.98,2580.94 L 1980.98,2547.21 L 1980.96,2546.96 L 1980.18,2539.42 L 1980.12,2538.88 L 1977.96,2532.4 L 1975.89,2526.22 L 1975.71,2525.67 L 1968.38,2513.83 L 1967.98,2513.42 L 1965.5,2510.95 L 1962.82,2506.05 L 1963.21,2500.47 L 1965.49,2496.92 L 1968.04,2494.37 L 1968.45,2493.96 L 1970.48,2490.66 L 1975.45,2482.6 L 1975.76,2482.1 L 1980.14,2468.89 L 1980.98,2460.66 L 1980.98,2384.08 L 1980.98,2350.36 L 1980.35,2344.21 L 1980.18,2342.57 L 1980.12,2342.03 L 1978.94,2338.5 L 1975.89,2329.37 L 1975.71,2328.82 L 1968.38,2316.98 L 1958.53,2307.14 L 1957.07,2306.25 L 1947.16,2300.14 L 1946.67,2299.83 L 1946.12,2299.65 L 1945.46,2299.43 L 1940.86,2296.25 L 1938.72,2291.08 L 1938.66,2290.01 L 1938.66,2248.98 L 1940.24,2243.62 L 1944.46,2239.95 L 1949.36,2239.09 L 1951.46,2239.25 L 1951.65,2239.27 L 2095.98,2239.27 L 2096.17,2239.25 L 2098.42,2239.08 L 2098.92,2239.04 L 2107.9,2236.43 L 2110.9,2235.56 L 2111.5,2235.38 L 2113.77,2234.04 L 2122.24,2229.03 L 2122.78,2228.71 L 2123.22,2228.27 L 2123.71,2227.89 L 2123.8,2228.01 L 2128,2225.72 L 2130.11,2225.49 L 2365.8,2225.49 L 2371.16,2227.06 L 2372.81,2228.4 L 2503.92,2359.5 L 2506.6,2364.41 L 2506.46,2369.17 L 2504.8,2375.16 L 2504.76,2375.57 L 2504.48,2378.15 L 2502.93,2392.65 L 2502.96,2393.06 L 2503.39,2400.52 L 2503.95,2410.21 L 2504.03,2410.61 L 2505.6,2417.55 L 2507.81,2427.37 L 2514.43,2443.67 L 2523.62,2458.67 L 2535.14,2471.96 L 2541.17,2476.97 L 2547.92,2482.58 L 2548.67,2483.2 L 2554.48,2486.6 L 2558.32,2490.66 L 2559.35,2496.16 L 2557.24,2501.34 L 2554.06,2503.96 L 2553.42,2504.29 L 2552.73,2504.73 L 2539.32,2514.8 L 2538.72,2515.33 L 2527.13,2527.46 L 2526.62,2528.09 L 2517.17,2541.94 L 2516.77,2542.65 L 2509.71,2557.86 L 2509.43,2558.62 L 2505.07,2574.34 L 2505.19,2575.01 L 2506.16,2575.27 L 2546.75,2575.27 L 2549.09,2568.05 L 2556.09,2555.94 L 2565.45,2545.54 L 2576.77,2537.31 L 2589.55,2531.62 L 2603.24,2528.71 L 2617.23,2528.71 L 2630.92,2531.62 L 2643.7,2537.31 L 2655.02,2545.54 L 2664.38,2555.94 L 2671.38,2568.05 L 2673.73,2575.27 L 2714.04,2575.27 L 2715.11,2574.96 L 2715.21,2574.25 L 2711.91,2561.09 L 2711.64,2560.32 L 2704.96,2544.95 L 2704.57,2544.23 L 2695.47,2530.15 L 2694.97,2529.51 L 2683.68,2517.1 L 2683.09,2516.55 L 2669.93,2506.16 L 2669.26,2505.71 L 2666.35,2504.1 L 2662.41,2500.13 L 2661.25,2494.66 L 2663.23,2489.44 L 2665.38,2487.34 L 2667.23,2486.02 L 2679.52,2477.26 L 2691.98,2464.84 L 2696.66,2458.32 L 2702,2450.89 L 2702.24,2450.56 L 2710.03,2434.79 L 2715.15,2417.96 L 2717.44,2400.52 L 2717.57,2395.27 L 2716.13,2377.74 L 2711.84,2360.68 L 2704.83,2344.55 L 2700.91,2338.5 L 2695.5,2330.13 L 2695.28,2329.78 L 2683.44,2316.78 L 2683.12,2316.52 L 2669.95,2306.13 L 2669.63,2305.87 L 2666.38,2304.08 L 2662.45,2300.11 L 2661.28,2294.64 L 2663.26,2289.41 L 2665.42,2287.32 L 2673.37,2281.64 L 2679.52,2277.26 L 2691.98,2264.84 L 2692.81,2263.68 L 2702,2250.89 L 2702.24,2250.56 L 2703.73,2247.53 L 2709.85,2235.15 L 2710.03,2234.79 L 2714.27,2220.83 L 2715.03,2218.35 L 2715.15,2217.96 L 2717.44,2200.52 L 2717.46,2199.81 L 2717.56,2195.54 L 2717.57,2195.27 L 2716.13,2177.74 L 2711.84,2160.68 L 2704.83,2144.55 L 2699.51,2136.33 L 2695.5,2130.13 L 2695.28,2129.78 L 2683.44,2116.78 L 2683.12,2116.52 L 2669.95,2106.13 L 2669.63,2105.87 L 2666.38,2104.08 L 2662.45,2100.11 L 2661.28,2094.64 L 2663.26,2089.41 L 2665.42,2087.32 L 2670.68,2083.56 L 2679.52,2077.26 L 2691.98,2064.84 L 2692.59,2063.98 L 2702,2050.89 L 2702.24,2050.56 L 2703.89,2047.22 L 2709.85,2035.15 L 2710.03,2034.79 L 2715.15,2017.96 L 2717.44,2000.52 L 2717.57,1995.27 L 2716.13,1977.74 L 2711.84,1960.68 L 2704.83,1944.55 L 2695.28,1929.78 L 2683.44,1916.78 L 2683.12,1916.52 L 2669.95,1906.13 L 2669.63,1905.87 L 2666.38,1904.08 L 2662.45,1900.11 L 2661.28,1894.64 L 2663.26,1889.41 L 2665.42,1887.32 L 2668.87,1884.85 L 2679.52,1877.26 L 2691.98,1864.84 L 2692.59,1863.98 L 2702,1850.89 L 2702.24,1850.56 L 2703.89,1847.22 L 2709.85,1835.15 L 2710.03,1834.79 L 2714.87,1818.88 L 2715.03,1818.35 L 2715.15,1817.96 L 2717.44,1800.52 L 2717.57,1795.27 L 2716.13,1777.74 L 2711.84,1760.68 L 2704.83,1744.55 L 2699.97,1737.04 L 2695.5,1730.13 L 2695.28,1729.78 L 2683.44,1716.78 L 2683.12,1716.52 L 2669.95,1706.13 L 2669.63,1705.87 L 2666.38,1704.08 L 2662.45,1700.11 L 2661.28,1694.64 L 2663.26,1689.41 L 2665.42,1687.32 L 2670.42,1683.75 L 2679.52,1677.26 L 2680.04,1676.73 L 2691.69,1665.13 L 2691.98,1664.84 L 2695.6,1659.79 L 2702,1650.89 L 2702.24,1650.56 L 2710.03,1634.79 L 2715.15,1617.96 L 2717.44,1600.52 L 2717.45,1600.25 L 2717.56,1595.54 L 2717.57,1595.27 L 2716.13,1577.74 L 2711.84,1560.68 L 2704.83,1544.55 L 2698.4,1534.61 L 2695.5,1530.13 L 2695.28,1529.78 L 2683.44,1516.78 L 2683.12,1516.52 L 2669.95,1506.13 L 2669.63,1505.87 L 2666.38,1504.08 L 2662.45,1500.11 L 2661.28,1494.64 L 2663.26,1489.41 L 2665.42,1487.32 L 2668.87,1484.85 L 2679.52,1477.26 L 2691.98,1464.84 L 2696.12,1459.07 L 2702,1450.89 L 2702.24,1450.56 L 2705.07,1444.83 L 2709.85,1435.15 L 2710.03,1434.79 L 2712.86,1425.5 L 2715.03,1418.35 L 2715.15,1417.96 L 2717.44,1400.52 L 2717.57,1395.27 L 2716.13,1377.74 L 2716.03,1377.35 L 2712.93,1365.01 L 2713.15,1359.43 L 2716.36,1354.85 L 2721.53,1352.73 L 2722.55,1352.68 L 2733.6,1352.68 L 2734.48,1352.72 L 2735.07,1352.85 L 2735.69,1352.83 L 2740.43,1352.68 L 2740.74,1352.68 L 2742.94,1352.68 L 2743.25,1352.64 L 2744.19,1352.56 L 2746.73,1352.48 L 2747.04,1352.47 L 2747.67,1352.45 L 2749.2,1352.01 L 2750.72,1351.69 L 2751.69,1351.57 L 2752.31,1351.49 L 2752.89,1351.26 L 2755.54,1350.21 L 2756.43,1349.91 L 2759.17,1349.11 L 2759.77,1348.94 L 2760.31,1348.62 L 2761.14,1348.13 L 2762.54,1347.44 L 2764.02,1346.85 L 2766.84,1344.81 L 2767.62,1344.29 L 2770.08,1342.84 L 2770.62,1342.52 L 2771.75,1341.39 L 2772.93,1340.38 L 2774.22,1339.45 L 2776.44,1336.76 L 2777.07,1336.07 L 2790.73,1322.41 L 2791.38,1321.82 L 2791.89,1321.49 L 2795.56,1317.58 L 2795.78,1317.36 L 2797.33,1315.81 L 2797.53,1315.55 L 2798.13,1314.84 L 2800.09,1312.76 L 2800.52,1312.31 L 2800.82,1311.76 L 2801.29,1310.91 L 2802.14,1309.61 L 2802.74,1308.84 L 2803.12,1308.35 L 2803.37,1307.77 L 2804.5,1305.15 L 2804.91,1304.31 L 2806.59,1301.26 L 2806.99,1299.72 L 2807.49,1298.24 L 2807.88,1297.35 L 2808.12,1296.78 L 2808.22,1296.16 L 2808.67,1293.34 L 2808.86,1292.43 L 2809.57,1289.66 L 2809.72,1289.06 L 2809.72,1287.46 L 2809.85,1285.91 L 2810,1284.95 L 2810.1,1284.33 L 2809.77,1280.87 L 2809.72,1279.93 L 2809.72,699.114 L 2809.77,698.234 L 2809.9,697.644 L 2809.73,692.282 L 2809.72,691.972 L 2809.72,689.774 L 2809.68,689.46 L 2809.61,688.528 L 2809.52,685.672 L 2809.5,685.048 L 2809.33,684.448 L 2809.06,683.516 L 2808.74,681.992 L 2808.62,681.028 L 2808.54,680.41 L 2808.31,679.828 L 2807.26,677.172 L 2806.96,676.288 L 2806.29,674.01 L 2805.99,672.944 L 2805.17,671.572 L 2804.49,670.174 L 2803.9,668.69 L 2801.85,665.874 L 2801.34,665.094 L 2799.89,662.634 L 2799.57,662.096 L 2798.44,660.97 L 2797.43,659.786 L 2796.86,659 L 2796.49,658.494 L 2793.81,656.276 L 2793.12,655.646 L 2760.13,622.656 L 2759.54,622.004 L 2759.21,621.494 L 2755.3,617.822 L 2755.08,617.606 L 2753.52,616.052 L 2753.27,615.856 L 2752.56,615.25 L 2750.48,613.294 L 2750.02,612.866 L 2749.48,612.566 L 2748.63,612.098 L 2747.33,611.244 L 2747.29,611.216 L 2746.07,610.266 L 2745.49,610.018 L 2742.87,608.884 L 2742.03,608.472 L 2738.98,606.796 L 2737.44,606.398 L 2735.96,605.894 L 2735.07,605.508 L 2734.5,605.26 L 2733.88,605.162 L 2731.06,604.716 L 2730.15,604.526 L 2727.38,603.816 L 2726.77,603.66 L 2725.18,603.66 L 2723.63,603.538 L 2722.67,603.386 L 2722.05,603.29 L 2721.43,603.348 L 2718.59,603.616 L 2717.65,603.66 L 2714.44,603.66 L 2709.07,602.086 L 2705.41,597.86 L 2704.62,592.328 L 2705.65,589.476 L 2705.53,589.418 L 2705.77,588.894 L 2706.07,588.404 L 2708.2,581.996 L 2710.29,575.7 L 2710.46,575.186 L 2711.3,566.96 L 2711.3,496.03 L 2711.11,494.188 L 2710.49,488.242 L 2710.43,487.702 L 2709.93,486.194 L 2706.21,475.038 L 2706.03,474.492 L 2698.7,462.65 L 2688.84,452.81 L 2688.11,452.356 L 2677.48,445.804 L 2676.99,445.502 L 2664.35,441.31 L 2664.28,441.288 L 2663.77,441.118 L 2663.23,441.062 L 2659.84,440.716 L 2655.54,440.274 L 2549.18,440.274 L 2548.92,440.302 L 2541.39,441.084 L 2540.85,441.14 L 2540.34,441.31 L 2529.94,444.782 L 2527.64,445.546 L 2527.15,445.85 L 2525.64,446.784 L 2520.25,448.268 L 2514.92,446.602 L 2511.88,443.398 L 2508.12,437.032 L 2507.36,436.054 L 2498.98,427.68 L 2498.01,426.922 L 2487.81,420.894 L 2486.68,420.402 L 2475.19,417.064 L 2474.2,416.884 L 2471.96,416.708 L 2471.57,416.692 L 2441.7,416.692 L 2440.5,417.044 L 2440.41,417.154 L 2440.27,417.76 L 2440.27,456.693 L 2466.54,456.693 L 2466.54,456.758 L 2467.77,456.758 L 2470.19,457.271 L 2472.44,458.275 L 2474.44,459.727 L 2476.09,461.562 L 2477.33,463.7 L 2478.09,466.048 L 2478.35,468.504 L 2478.35,492.126 L 2478.09,494.582 L 2477.33,496.93 L 2476.09,499.068 L 2474.44,500.903 L 2472.44,502.355 L 2470.19,503.359 L 2467.77,503.872 L 2466.54,503.872 L 2466.54,503.937 L 2440.27,503.937 L 2440.27,542.51 L 2440.63,543.71 L 2440.74,543.804 L 2442.38,544.162 L 2442.31,544.524 L 2445.67,545.512 L 2449.33,549.736 L 2450.13,555.27 L 2447.8,560.354 L 2447.32,560.872 L 2444.84,563.354 L 2439.94,566.032 L 2437.83,566.26 L 2380.67,566.26 L 2375.3,564.684 L 2371.64,560.46 L 2370.75,556.338 L 2370.75,553.858 L 2372.32,548.494 L 2376.55,544.832 L 2380.67,543.936 L 2398.85,543.936 L 2400.05,543.584 L 2400.14,543.474 L 2400.27,542.87 L 2400.27,503.937 L 2374.02,503.937 L 2374.02,503.872 L 2372.78,503.872 L 2370.37,503.359 L 2368.11,502.355 L 2366.11,500.903 L 2365.58,500.314 L 2350.77,500.314 L 2345.72,498.932 L 2340.82,496.03 L 2339.65,495.342 L 2339.05,495.168 L 2332.79,493.348 L 2327.07,491.688 L 2326.57,491.648 L 2324.33,491.472 L 2324.13,491.456 L 2283.63,491.456 L 2278.27,489.882 L 2276.61,488.55 L 2265.07,477.008 L 2251.27,463.208 L 2250.68,462.556 L 2250.35,462.046 L 2247.05,458.944 L 2246.44,458.374 L 2246.22,458.158 L 2244.67,456.602 L 2244.41,456.408 L 2243.7,455.8 L 2242.18,454.372 L 2241.17,453.418 L 2240.62,453.116 L 2239.77,452.65 L 2238.47,451.794 L 2238.43,451.766 L 2237.21,450.818 L 2236.63,450.57 L 2234.01,449.434 L 2233.17,449.024 L 2230.12,447.346 L 2228.58,446.95 L 2227.1,446.446 L 2226.21,446.06 L 2225.64,445.812 L 2225.02,445.714 L 2222.2,445.268 L 2221.29,445.078 L 2218.52,444.368 L 2217.92,444.212 L 2216.32,444.212 L 2214.77,444.09 L 2213.81,443.938 L 2213.19,443.84 L 2210.89,444.058 L 2209.73,444.168 L 2208.79,444.212 L 2186.72,444.212 L 2181.35,442.638 L 2178.28,439.512 L 2176.75,437.032 L 2173.11,431.154 L 2163.25,421.314 L 2158.07,418.118 L 2151.89,414.308 L 2151.4,414.006 L 2138.76,409.814 L 2138.69,409.792 L 2138.18,409.622 L 2137.64,409.566 L 2134.25,409.22 L 2129.95,408.778 L 2051.15,408.778 L 2050.89,408.806 L 2043.36,409.588 L 2042.82,409.642 L 2042.31,409.814 L 2031.9,413.286 L 2029.61,414.05 L 2017.77,421.38 L 2007.93,431.236 L 2007.63,431.726 L 2001.82,441.14 L 2000.62,443.09 L 1999.64,446.06 L 1998.17,450.474 L 1994.99,455.07 L 1989.83,457.214 L 1984.32,456.226 L 1981.75,454.372 L 1980.18,452.81 L 1979.44,452.356 L 1968.82,445.804 L 1968.33,445.502 L 1955.69,441.31 L 1955.62,441.288 L 1955.11,441.118 L 1954.57,441.062 L 1951.18,440.716 L 1946.88,440.274 L 1840.52,440.274 L 1840.26,440.302 L 1832.73,441.084 L 1832.19,441.14 L 1831.68,441.31 L 1821.27,444.782 L 1818.98,445.546 L 1807.14,452.876 L 1806.73,453.284 L 1802.3,457.724 L 1797.39,460.408 L 1791.82,460.014 L 1788.27,457.736 L 1787.97,457.442 L 1783.33,452.81 L 1782.59,452.356 L 1771.97,445.804 L 1771.47,445.502 L 1758.84,441.31 L 1758.77,441.288 L 1758.26,441.118 L 1757.72,441.062 L 1754.33,440.716 L 1750.03,440.274 L 1643.67,440.274 L 1643.41,440.302 L 1635.88,441.084 L 1635.34,441.14 L 1634.83,441.31 L 1624.42,444.782 L 1622.13,445.546 L 1610.29,452.876 L 1609.32,453.846 L 1608.82,454.35 L 1603.91,457.032 L 1598.33,456.64 L 1593.86,453.292 L 1592.38,450.48 L 1590.29,444.212 L 1589.89,442.996 L 1582.56,431.154 L 1572.7,421.314 L 1567.52,418.118 L 1561.34,414.308 L 1560.84,414.006 L 1548.21,409.814 L 1548.14,409.792 L 1547.63,409.622 L 1547.09,409.566 L 1543.7,409.22 L 1539.4,408.778 L 1460.6,408.778 L 1460.34,408.806 L 1452.81,409.588 L 1452.27,409.642 L 1451.75,409.814 L 1441.35,413.286 L 1439.06,414.05 L 1427.22,421.38 L 1417.38,431.236 L 1417.07,431.726 L 1412.28,439.496 L 1408.13,443.236 L 1403.84,444.212 L 1291.63,444.212 L 1290.75,444.17 L 1290.16,444.038 L 1289.54,444.058 L 1284.8,444.208 L 1284.49,444.212 L 1282.29,444.212 L 1281.98,444.252 L 1281.05,444.326 L 1277.57,444.434 L 1276.97,444.608 L 1276.04,444.88 L 1274.51,445.196 L 1272.93,445.396 L 1272.35,445.624 L 1269.69,446.676 L 1268.81,446.98 L 1265.46,447.95 L 1264.93,448.268 L 1264.09,448.762 L 1262.69,449.448 L 1261.21,450.034 L 1260.71,450.402 L 1258.39,452.08 L 1257.61,452.594 L 1255.15,454.048 L 1254.62,454.366 L 1253.49,455.494 L 1252.31,456.504 L 1251.01,457.442 L 1250.62,457.924 L 1248.8,460.124 L 1248.17,460.816 L 1232.89,476.09 L 1232.24,476.684 L 1231.73,477.008 L 1228.06,480.916 L 1227.84,481.14 L 1226.29,482.694 L 1226.09,482.946 L 1225.49,483.656 L 1223.1,486.194 L 1222.8,486.742 L 1222.33,487.592 L 1221.48,488.894 L 1220.5,490.154 L 1220.25,490.726 L 1219.12,493.348 L 1218.71,494.188 L 1217.03,497.238 L 1216.88,497.844 L 1216.63,498.784 L 1216.13,500.256 L 1215.5,501.72 L 1215.4,502.338 L 1214.95,505.158 L 1214.76,506.074 L 1213.9,509.446 L 1213.9,511.04 L 1213.77,512.592 L 1213.53,514.168 L 1213.45,514.156 L 1211.88,518.956 L 1209.35,521.416 L 1208.98,522.234 L 1208.98,564.374 L 1210.34,565.892 L 1211.58,568.031 L 1212.34,570.379 L 1212.6,572.835 L 1212.6,665.354 L 1212.34,667.81 L 1211.58,670.158 L 1210.34,672.297 L 1208.98,673.815 L 1208.98,688.594 L 1207.59,693.644 L 1206.88,694.854 L 1204,699.716 L 1203.83,700.316 L 1203.26,702.258 L 1200.35,712.296 L 1200.31,712.8 L 1200.26,713.456 L 1200.12,715.236 L 1200.12,818.228 L 1200.13,818.422 L 1200.3,820.524 L 1200.35,821.168 L 1202.24,827.674 L 1203.35,831.512 L 1204,833.748 L 1204.32,834.284 L 1210.35,844.486 L 1210.67,845.024 L 1219.94,854.288 L 1220.47,854.604 L 1225.36,857.494 L 1231.21,860.956 L 1231.81,861.13 L 1235.92,862.324 L 1243.79,864.61 L 1244.3,864.65 L 1246.54,864.826 L 1246.73,864.842 L 1280.83,864.842 L 1281.02,864.826 L 1283.26,864.65 L 1283.77,864.61 L 1291.63,862.324 L 1295.75,861.13 L 1296.35,860.956 L 1302.2,857.494 L 1307.08,854.604 L 1307.62,854.288 L 1316.23,845.682 L 1321.13,843.004 L 1326.71,843.402 L 1330.26,845.682 L 1388.16,903.582 L 1390.84,908.488 L 1391.06,910.598 L 1391.06,980.346 L 1391.93,988.674 L 1396.33,1001.88 L 1403.66,1013.73 L 1413.52,1023.57 L 1414.01,1023.87 L 1424.81,1030.53 L 1425.37,1030.87 L 1431.65,1032.96 L 1438.08,1035.09 L 1438.59,1035.26 L 1439.13,1035.31 L 1442.52,1035.66 L 1446.82,1036.1 L 1553.18,1036.1 L 1553.44,1036.08 L 1560.97,1035.29 L 1561.51,1035.24 L 1562.02,1035.07 L 1572.43,1031.6 L 1574.72,1030.83 L 1586.56,1023.5 L 1596.4,1013.65 L 1603.71,1001.79 L 1608.09,988.572 L 1608.94,980.346 L 1608.94,909.416 L 1608.84,908.488 L 1608.13,901.628 L 1608.07,901.088 L 1607.54,899.478 L 1603.85,888.424 L 1603.66,887.878 L 1596.34,876.034 L 1586.48,866.196 L 1585.99,865.894 L 1575.11,859.19 L 1574.62,858.888 L 1567.13,856.404 L 1561.92,854.674 L 1561.41,854.504 L 1560.87,854.448 L 1557.48,854.102 L 1553.18,853.66 L 1483.43,853.66 L 1478.07,852.086 L 1476.42,850.754 L 1391.37,765.708 L 1388.69,760.802 L 1388.46,758.692 L 1388.46,704.72 L 1390.04,699.356 L 1390.87,698.32 L 1391.02,698.126 L 1391.05,698.1 L 1391.37,697.704 L 1391.69,697.386 L 1391.84,697.534 L 1395.55,694.854 L 1401.13,694.552 L 1405.99,697.316 L 1408.26,701.068 L 1410.11,706.61 L 1417.44,718.452 L 1427.3,728.292 L 1427.79,728.594 L 1438.59,735.25 L 1439.15,735.598 L 1442.92,736.848 L 1451.86,739.812 L 1452.37,739.984 L 1452.91,740.038 L 1456.23,740.378 L 1460.6,740.826 L 1539.4,740.826 L 1539.66,740.8 L 1547.19,740.018 L 1547.73,739.962 L 1548.24,739.79 L 1558.65,736.32 L 1560.94,735.554 L 1572.78,728.226 L 1572.86,728.352 L 1577.34,726.538 L 1582.83,727.576 L 1586.89,731.42 L 1588.23,736.848 L 1588.19,737.422 L 1587.91,740.126 L 1587.91,811.054 L 1587.94,811.31 L 1588.68,818.436 L 1588.78,819.382 L 1588.95,819.898 L 1590.74,825.268 L 1593.18,832.594 L 1600.51,844.436 L 1610.37,854.276 L 1610.86,854.578 L 1621.66,861.236 L 1622.22,861.584 L 1628.5,863.666 L 1634.93,865.798 L 1635.44,865.968 L 1635.98,866.022 L 1639.04,866.336 L 1643.67,866.81 L 1750.03,866.81 L 1750.29,866.784 L 1757.82,866.002 L 1758.36,865.946 L 1758.87,865.774 L 1769.28,862.304 L 1771.57,861.538 L 1783.41,854.21 L 1786.86,850.754 L 1788.25,849.36 L 1793.16,846.678 L 1798.73,847.072 L 1802.28,849.348 L 1807.22,854.276 L 1807.71,854.578 L 1818.51,861.236 L 1819.08,861.584 L 1825.35,863.666 L 1831.78,865.798 L 1832.29,865.968 L 1832.83,866.022 L 1835.89,866.336 L 1840.52,866.81 L 1946.88,866.81 L 1947.14,866.784 L 1954.67,866.002 L 1955.21,865.946 L 1955.72,865.774 L 1966.13,862.304 L 1968.42,861.538 L 1980.26,854.21 L 1990.1,844.354 L 1997.41,832.498 L 1997.59,831.952 L 1997.84,831.428 L 1998.01,831.512 L 2000.67,827.674 L 2005.83,825.53 L 2006.9,825.472 L 2417.03,825.472 L 2417.91,825.514 L 2418.5,825.646 L 2419.12,825.626 L 2423.86,825.476 L 2424.17,825.472 L 2426.37,825.472 L 2426.68,825.432 L 2427.61,825.358 L 2430.15,825.278 L 2430.47,825.268 L 2431.09,825.25 L 2432.62,824.804 L 2434.15,824.488 L 2435.11,824.366 L 2435.73,824.288 L 2436.31,824.058 L 2438.97,823.006 L 2439.85,822.704 L 2442.6,821.908 L 2443.2,821.734 L 2443.73,821.416 L 2444.57,820.922 L 2445.97,820.236 L 2447.45,819.65 L 2449.12,818.436 L 2450.27,817.602 L 2451.05,817.09 L 2453.51,815.636 L 2454.04,815.318 L 2455.17,814.19 L 2456.36,813.178 L 2457.14,812.608 L 2457.65,812.242 L 2459.87,809.558 L 2460.49,808.866 L 2476.49,792.874 L 2481.39,790.194 L 2486.97,790.592 L 2491.45,793.944 L 2493.4,799.18 L 2493.42,799.888 L 2493.42,811.054 L 2493.45,811.31 L 2494.19,818.436 L 2494.29,819.382 L 2494.46,819.898 L 2496.25,825.268 L 2498.7,832.594 L 2506.02,844.436 L 2515.88,854.276 L 2516.37,854.578 L 2527.17,861.236 L 2527.74,861.584 L 2534.02,863.666 L 2540.44,865.798 L 2540.96,865.968 L 2541.49,866.022 L 2544.55,866.336 L 2549.18,866.81 L 2550.43,866.81 L 2555.8,868.386 L 2559.46,872.61 L 2560.35,876.732 L 2560.35,894.62 L 2558.78,899.984 L 2555.01,903.42 L 2553.04,904.448 L 2552.71,904.694 L 2544.85,910.598 L 2538.97,915.01 L 2526.82,927.726 L 2526.59,928.064 L 2517.72,941.062 L 2513.4,944.606 L 2509.53,945.394 L 2227.46,945.394 L 2226.58,945.352 L 2225.99,945.22 L 2225.37,945.24 L 2220.63,945.388 L 2220.32,945.394 L 2218.12,945.394 L 2217.81,945.432 L 2216.87,945.506 L 2214.37,945.586 L 2214.02,945.596 L 2213.39,945.616 L 2212,946.02 L 2211.86,946.06 L 2210.34,946.376 L 2209.78,946.446 L 2208.76,946.576 L 2208.18,946.806 L 2205.52,947.858 L 2204.63,948.16 L 2201.29,949.132 L 2200.75,949.45 L 2199.92,949.944 L 2198.52,950.628 L 2197.04,951.216 L 2196.53,951.582 L 2194.22,953.262 L 2193.44,953.776 L 2190.98,955.23 L 2190.44,955.548 L 2189.32,956.674 L 2188.13,957.686 L 2186.84,958.624 L 2186.44,959.104 L 2184.62,961.306 L 2183.99,961.998 L 1730.98,1415.01 L 1726.07,1417.69 L 1720.5,1417.29 L 1718.91,1416.54 L 1718.32,1416.19 L 1717.18,1415.69 L 1705.7,1412.36 L 1704.71,1412.18 L 1702.47,1412 L 1702.08,1411.99 L 1651.54,1411.99 L 1650.34,1412.34 L 1650.25,1412.45 L 1650.11,1413.05 L 1650.11,1451.99 L 1697.04,1451.99 L 1697.04,1452.05 L 1698.28,1452.05 L 1700.69,1452.56 L 1702.95,1453.57 L 1704.95,1455.02 L 1706.6,1456.85 L 1707.83,1458.99 L 1708.6,1461.34 L 1708.85,1463.8 L 1708.85,1487.42 L 1708.6,1489.87 L 1707.83,1492.22 L 1706.6,1494.36 L 1704.95,1496.2 L 1702.95,1497.65 L 1700.69,1498.65 L 1698.28,1499.17 L 1697.04,1499.17 L 1697.04,1499.23 L 1563.19,1499.23 L 1563.19,1499.17 L 1561.95,1499.17 L 1559.54,1498.65 L 1557.28,1497.65 L 1555.28,1496.2 L 1553.63,1494.36 L 1552.4,1492.22 L 1551.63,1489.87 L 1551.37,1487.42 L 1551.37,1463.8 L 1551.63,1461.34 L 1552.4,1458.99 L 1553.63,1456.85 L 1555.28,1455.02 L 1557.28,1453.57 L 1559.54,1452.56 L 1561.95,1452.05 L 1563.19,1452.05 L 1563.19,1451.99 L 1610.11,1451.99 L 1610.11,1413.41 L 1609.76,1412.21 L 1609.65,1412.12 L 1609.05,1411.99 L 1558.15,1411.99 L 1557.76,1412 L 1555.52,1412.18 L 1554.53,1412.36 L 1543.04,1415.69 L 1541.91,1416.19 L 1531.71,1422.21 L 1530.45,1423.19 L 1525.25,1425.24 L 1519.76,1424.14 L 1515.74,1420.26 L 1514.45,1415.36 L 1514.45,1290.12 L 1516.02,1284.75 L 1520.25,1281.09 L 1524.37,1280.2 L 1553.18,1280.2 L 1553.44,1280.17 L 1560.97,1279.39 L 1561.51,1279.33 L 1562.02,1279.16 L 1574.17,1275.11 L 1574.72,1274.92 L 1586.56,1267.6 L 1587.53,1266.62 L 1595.99,1258.15 L 1596.4,1257.74 L 1597.07,1256.65 L 1603.41,1246.37 L 1603.71,1245.88 L 1608.09,1232.67 L 1608.94,1224.44 L 1608.94,1153.51 L 1608.07,1145.18 L 1603.66,1131.97 L 1596.34,1120.13 L 1586.48,1110.29 L 1579.72,1106.13 L 1575.11,1103.28 L 1574.62,1102.98 L 1561.99,1098.79 L 1561.92,1098.77 L 1561.41,1098.6 L 1560.87,1098.54 L 1557.48,1098.2 L 1553.18,1097.76 L 1446.82,1097.76 L 1446.56,1097.78 L 1439.03,1098.56 L 1438.49,1098.62 L 1437.98,1098.79 L 1427.57,1102.26 L 1425.28,1103.03 L 1413.44,1110.36 L 1403.6,1120.21 L 1403.29,1120.7 L 1397.7,1129.78 L 1396.29,1132.07 L 1391.91,1145.29 L 1391.06,1153.51 L 1391.06,1224.44 L 1391.09,1224.7 L 1391.33,1226.98 L 1391.93,1232.77 L 1396.33,1245.98 L 1403.66,1257.82 L 1404.07,1258.23 L 1411.77,1265.92 L 1414.46,1270.82 L 1414.68,1272.94 L 1414.68,1276.75 L 1413.11,1282.11 L 1408.88,1285.77 L 1403.35,1286.57 L 1398.27,1284.24 L 1397.99,1283.99 L 1397.91,1283.93 L 1397.5,1283.52 L 1393.57,1281.09 L 1386.14,1276.51 L 1385.65,1276.21 L 1375.78,1272.94 L 1372.94,1272 L 1372.43,1271.83 L 1371.89,1271.77 L 1368.5,1271.42 L 1364.2,1270.98 L 1291.31,1270.98 L 1291.05,1271.01 L 1283.52,1271.79 L 1282.98,1271.85 L 1282.46,1272.02 L 1274.67,1274.62 L 1269.77,1276.26 L 1257.92,1283.58 L 1248.09,1293.44 L 1247.78,1293.93 L 1242.93,1301.81 L 1240.78,1305.3 L 1236.39,1318.51 L 1235.55,1326.74 L 1235.55,1437.04 L 1235.58,1437.29 L 1236.36,1444.82 L 1236.41,1445.37 L 1240.82,1458.58 L 1248.15,1470.42 L 1258.01,1480.26 L 1258.5,1480.56 L 1269.31,1487.23 L 1269.86,1487.57 L 1275.42,1489.41 L 1282.57,1491.78 L 1283.08,1491.95 L 1283.62,1492.01 L 1287.01,1492.35 L 1291.31,1492.79 L 1322.09,1492.79 L 1327.45,1494.37 L 1331.11,1498.59 L 1332.01,1502.72 L 1332.01,1710.33 L 1331.97,1711.21 L 1331.83,1711.8 L 1331.85,1712.43 L 1332,1717.16 L 1332.01,1717.48 L 1332.01,1719.67 L 1332.05,1719.98 L 1332.12,1720.92 L 1332.23,1724.4 L 1332.59,1725.64 L 1332.67,1725.93 L 1332.99,1727.46 L 1333.19,1729.04 L 1333.42,1729.62 L 1334.47,1732.28 L 1334.77,1733.16 L 1335.75,1736.5 L 1336.06,1737.04 L 1336.56,1737.88 L 1337.24,1739.27 L 1337.83,1740.76 L 1338.2,1741.26 L 1339.88,1743.57 L 1340.39,1744.35 L 1342.16,1747.35 L 1343.29,1748.48 L 1344.3,1749.66 L 1345.24,1750.95 L 1346.53,1752.02 L 1347.92,1753.17 L 1348.61,1753.8 L 1401.3,1806.49 L 1401.9,1807.15 L 1402.22,1807.66 L 1402.68,1808.08 L 1405.29,1810.54 L 1408.12,1815.36 L 1407.9,1820.95 L 1404.69,1825.52 L 1399.52,1827.64 L 1398.5,1827.69 L 1291.29,1827.69 L 1285.93,1826.12 L 1282.27,1821.89 L 1281.41,1818.59 L 1281.12,1815.16 L 1281.09,1814.75 L 1276.8,1797.69 L 1269.79,1781.56 L 1260.24,1766.79 L 1248.4,1753.78 L 1248.08,1753.53 L 1234.91,1743.13 L 1234.59,1742.88 L 1231.3,1741.06 L 1227.37,1737.09 L 1226.21,1731.63 L 1228.18,1726.4 L 1230.34,1724.3 L 1244.12,1714.47 L 1244.74,1713.95 L 1256.62,1702.11 L 1257.14,1701.49 L 1266.93,1687.87 L 1267.35,1687.18 L 1274.78,1672.15 L 1275.08,1671.39 L 1279.95,1655.35 L 1280.12,1654.55 L 1280.23,1653.7 L 1280.06,1652.58 L 1279.02,1652.28 L 1238.69,1652.28 L 1236.34,1659.51 L 1229.34,1671.62 L 1219.98,1682.02 L 1208.66,1690.25 L 1195.88,1695.94 L 1182.19,1698.85 L 1168.2,1698.85 L 1154.51,1695.94 L 1141.73,1690.25 L 1130.41,1682.02 L 1121.05,1671.62 L 1114.05,1659.51 L 1111.71,1652.28 L 1071.51,1652.28 L 1070.45,1652.6 L 1070.33,1653.38 L 1072.72,1663.97 L 1072.96,1664.75 L 1079.27,1680.28 L 1079.64,1681.01 L 1088.4,1695.31 L 1088.88,1695.96 L 1099.86,1708.63 L 1100.44,1709.2 L 1113.34,1719.91 L 1114.01,1720.38 L 1119.45,1723.56 L 1123.28,1727.62 L 1124.31,1733.12 L 1122.21,1738.3 L 1119.02,1740.92 L 1118,1741.46 L 1117.67,1741.7 L 1104.82,1751.35 L 1103.93,1752.02 L 1091.78,1764.73 L 1081.87,1779.27 L 1080.63,1781.94 L 1075.74,1792.46 L 1074.46,1795.22 L 1069.76,1812.17 L 1067.89,1829.66 L 1067.92,1830.07 L 1068.88,1846.81 L 1068.91,1847.22 L 1069,1847.62 L 1069.73,1850.89 L 1072.77,1864.38 L 1079.39,1880.68 L 1088.58,1895.68 L 1100.1,1908.97 L 1113.63,1920.21 L 1114.99,1921 L 1119.4,1923.58 L 1123.24,1927.65 L 1124.27,1933.14 L 1122.17,1938.32 L 1118.98,1940.95 L 1118,1941.46 L 1117.67,1941.7 L 1104.26,1951.77 L 1103.93,1952.02 L 1091.78,1964.73 L 1081.87,1979.27 L 1081.7,1979.64 L 1075.74,1992.46 L 1074.46,1995.22 L 1069.76,2012.17 L 1067.89,2029.66M 1070.03,1611.35 L 1070.15,1612.02 L 1071.12,1612.28 L 1111.71,1612.28 L 1114.05,1605.06 L 1121.05,1592.94 L 1130.41,1582.55 L 1141.73,1574.32 L 1154.51,1568.63 L 1155.2,1568.49 L 1155.2,1528.59 L 1154.89,1527.54 L 1153.76,1527.38 L 1150.73,1527.85 L 1149.94,1528.03 L 1134,1533.24 L 1133.26,1533.56 L 1118.38,1541.3 L 1117.7,1541.73 L 1104.29,1551.8 L 1103.68,1552.34 L 1092.09,1564.47 L 1091.58,1565.1 L 1082.13,1578.95 L 1081.73,1579.65 L 1074.67,1594.86 L 1074.39,1595.63 L 1070.03,1611.35M 1101.69,1491.33 L 1102.04,1492.53 L 1102.15,1492.62 L 1102.76,1492.76 L 1117.88,1492.76 L 1118.39,1492.73 L 1125.92,1491.95 L 1126.98,1491.72 L 1139.12,1487.67 L 1140.15,1487.18 L 1151.01,1480.47 L 1151.91,1479.76 L 1160.92,1470.72 L 1161.63,1469.82 L 1168.33,1458.96 L 1168.82,1457.92 L 1172.84,1445.77 L 1173.07,1444.72 L 1173.83,1437.29 L 1173.86,1436.78 L 1173.86,1403.32 L 1173.51,1402.12 L 1173.4,1402.02 L 1172.79,1401.89 L 1133.86,1401.89 L 1133.86,1433.07 L 1133.43,1437.16 L 1132.16,1441.08 L 1130.1,1444.64 L 1127.35,1447.7 L 1124.02,1450.12 L 1120.26,1451.79 L 1116.23,1452.65 L 1114.17,1452.65 L 1114.17,1452.76 L 1101.69,1452.76 L 1101.69,1491.33M 1101.69,1311.02 L 1114.17,1311.02 L 1114.17,1311.13 L 1116.23,1311.13 L 1120.26,1311.99 L 1124.02,1313.66 L 1127.35,1316.08 L 1130.1,1319.14 L 1132.16,1322.7 L 1133.43,1326.62 L 1133.86,1330.71 L 1133.86,1361.89 L 1172.43,1361.89 L 1173.63,1361.54 L 1173.73,1361.43 L 1173.86,1360.82 L 1173.86,1327 L 1173.83,1326.49 L 1173.05,1318.96 L 1172.82,1317.9 L 1168.77,1305.76 L 1168.29,1304.73 L 1161.57,1293.87 L 1160.86,1292.98 L 1151.82,1283.96 L 1150.93,1283.25 L 1140.06,1276.55 L 1139.02,1276.07 L 1126.87,1272.04 L 1125.82,1271.81 L 1118.39,1271.05 L 1117.88,1271.02 L 1103.12,1271.02 L 1101.92,1271.38 L 1101.82,1271.48 L 1101.69,1272.09 L 1101.69,1311.02M 1125.35,670.392 L 1125.37,670.78 L 1125.55,673.018 L 1125.73,674.01 L 1129.06,685.494 L 1129.55,686.63 L 1135.58,696.824 L 1136.34,697.802 L 1144.72,706.176 L 1145.69,706.936 L 1155.89,712.964 L 1157.02,713.456 L 1167.61,716.53 L 1168.72,716.526 L 1168.98,715.954 L 1168.98,673.813 L 1167.61,672.297 L 1166.38,670.158 L 1165.61,667.81 L 1165.35,665.354 L 1165.35,639.094 L 1126.78,639.094 L 1125.58,639.446 L 1125.49,639.556 L 1125.35,640.16 L 1125.35,670.392M 1125.35,597.668 L 1125.71,598.868 L 1125.82,598.962 L 1126.42,599.094 L 1165.35,599.094 L 1165.35,572.835 L 1165.61,570.379 L 1166.38,568.031 L 1167.61,565.892 L 1168.98,564.376 L 1168.98,522.686 L 1168.66,521.62 L 1168.04,521.532 L 1157.02,524.732 L 1155.89,525.224 L 1145.69,531.252 L 1144.72,532.012 L 1136.34,540.384 L 1135.58,541.364 L 1129.55,551.556 L 1129.06,552.694 L 1125.73,564.178 L 1125.55,565.17 L 1125.37,567.408 L 1125.35,567.796 L 1125.35,597.668M 1195.2,1568.48 L 1195.88,1568.63 L 1208.66,1574.32 L 1219.98,1582.55 L 1229.34,1592.94 L 1236.34,1605.06 L 1238.69,1612.28 L 1279,1612.28 L 1280.07,1611.97 L 1280.17,1611.26 L 1276.87,1598.1 L 1276.61,1597.33 L 1269.92,1581.95 L 1269.54,1581.24 L 1260.43,1567.16 L 1259.93,1566.52 L 1248.65,1554.11 L 1248.05,1553.56 L 1234.89,1543.17 L 1234.22,1542.72 L 1219.54,1534.61 L 1218.8,1534.28 L 1202.99,1528.68 L 1202.2,1528.48 L 1196.6,1527.48 L 1195.55,1527.59 L 1195.2,1528.74 L 1195.2,1568.48M 2042.68,2657.25 L 2042.7,2657.76 L 2043.48,2665.29 L 2043.71,2666.35 L 2047.76,2678.49 L 2048.25,2679.52 L 2054.96,2690.38 L 2055.68,2691.28 L 2064.71,2700.29 L 2065.61,2701 L 2076.48,2707.7 L 2077.51,2708.19 L 2089.66,2712.21 L 2090.71,2712.44 L 2098.14,2713.2 L 2098.65,2713.23 L 2113.42,2713.23 L 2114.62,2712.88 L 2114.71,2712.77 L 2114.84,2712.16 L 2114.84,2711.8 L 2114.84,2673.23 L 2102.36,2673.23 L 2102.36,2673.12 L 2100.3,2673.12 L 2096.28,2672.26 L 2092.52,2670.59 L 2089.19,2668.17 L 2086.44,2665.11 L 2084.38,2661.55 L 2083.11,2657.64 L 2082.68,2653.54 L 2082.68,2622.36 L 2044.1,2622.36 L 2042.9,2622.71 L 2042.81,2622.82 L 2042.68,2623.43 L 2042.68,2657.25M 2042.68,2580.94 L 2043.03,2582.14 L 2043.14,2582.23 L 2043.74,2582.36 L 2082.68,2582.36 L 2082.68,2551.18 L 2083.11,2547.09 L 2084.38,2543.17 L 2086.44,2539.61 L 2089.19,2536.55 L 2092.52,2534.13 L 2096.28,2532.46 L 2100.3,2531.6 L 2102.36,2531.6 L 2102.36,2531.5 L 2114.84,2531.5 L 2114.84,2476.38 L 2102.36,2476.38 L 2102.36,2476.27 L 2100.3,2476.27 L 2096.28,2475.41 L 2092.52,2473.74 L 2089.19,2471.32 L 2086.44,2468.26 L 2084.38,2464.7 L 2083.11,2460.79 L 2082.68,2456.69 L 2082.68,2425.51 L 2044.1,2425.51 L 2042.9,2425.86 L 2042.81,2425.97 L 2042.68,2426.58 L 2042.68,2460.4 L 2042.7,2460.91 L 2043.48,2468.44 L 2043.71,2469.5 L 2047.76,2481.64 L 2048.25,2482.67 L 2054.96,2493.53 L 2055.68,2494.43 L 2058.17,2496.92 L 2060.86,2501.82 L 2060.46,2507.4 L 2058.19,2510.95 L 2055.61,2513.53 L 2054.9,2514.43 L 2048.2,2525.29 L 2047.72,2526.33 L 2043.69,2538.48 L 2043.46,2539.53 L 2042.7,2546.96 L 2042.68,2547.47 L 2042.68,2580.94M 2042.68,2384.08 L 2043.03,2385.28 L 2043.14,2385.38 L 2043.74,2385.51 L 2082.68,2385.51 L 2082.68,2354.33 L 2083.11,2350.24 L 2084.38,2346.32 L 2086.44,2342.76 L 2089.19,2339.7 L 2092.52,2337.28 L 2096.28,2335.61 L 2100.3,2334.75 L 2102.36,2334.75 L 2102.36,2334.65 L 2114.84,2334.65 L 2114.84,2296.07 L 2114.49,2294.87 L 2114.38,2294.78 L 2113.78,2294.65 L 2098.65,2294.65 L 2098.14,2294.67 L 2090.61,2295.45 L 2089.56,2295.68 L 2077.42,2299.73 L 2076.38,2300.22 L 2065.53,2306.93 L 2064.63,2307.64 L 2055.61,2316.68 L 2054.9,2317.58 L 2048.2,2328.44 L 2047.72,2329.48 L 2043.69,2341.63 L 2043.46,2342.68 L 2042.7,2350.11 L 2042.68,2350.62 L 2042.68,2384.08M 2110.55,2909.45 L 2125.98,2909.45 L 2125.98,2909.56 L 2128.04,2909.56 L 2132.07,2910.41 L 2135.83,2912.09 L 2139.16,2914.51 L 2141.91,2917.56 L 2143.97,2921.13 L 2145.24,2925.04 L 2145.67,2929.13 L 2145.67,2934.72 L 2184.24,2934.72 L 2185.44,2934.37 L 2185.54,2934.26 L 2185.67,2933.66 L 2185.67,2925.42 L 2185.64,2924.91 L 2184.86,2917.38 L 2184.63,2916.33 L 2180.58,2904.19 L 2180.1,2903.15 L 2173.38,2892.3 L 2172.67,2891.4 L 2163.63,2882.38 L 2162.74,2881.67 L 2151.87,2874.97 L 2150.83,2874.49 L 2138.68,2870.46 L 2137.63,2870.24 L 2130.2,2869.47 L 2129.7,2869.45 L 2111.98,2869.45 L 2110.78,2869.8 L 2110.68,2869.91 L 2110.55,2870.51 L 2110.55,2909.45M 2154.84,2711.8 L 2155.19,2713 L 2155.3,2713.1 L 2155.91,2713.23 L 2171.03,2713.23 L 2171.54,2713.2 L 2179.07,2712.42 L 2180.13,2712.19 L 2192.27,2708.14 L 2193.3,2707.66 L 2204.16,2700.94 L 2205.06,2700.23 L 2214.07,2691.19 L 2214.78,2690.3 L 2221.48,2679.43 L 2221.96,2678.39 L 2225.99,2666.24 L 2226.22,2665.19 L 2226.98,2657.76 L 2227.01,2657.25 L 2227.01,2623.79 L 2226.65,2622.59 L 2226.55,2622.49 L 2225.94,2622.36 L 2187.01,2622.36 L 2187.01,2653.54 L 2186.58,2657.64 L 2185.31,2661.55 L 2183.25,2665.11 L 2180.49,2668.17 L 2177.17,2670.59 L 2173.41,2672.26 L 2169.38,2673.12 L 2167.32,2673.12 L 2167.32,2673.23 L 2154.84,2673.23 L 2154.84,2711.8M 2154.84,2531.5 L 2167.32,2531.5 L 2167.32,2531.6 L 2169.38,2531.6 L 2173.41,2532.46 L 2177.17,2534.13 L 2180.49,2536.55 L 2183.25,2539.61 L 2185.31,2543.17 L 2186.58,2547.09 L 2187.01,2551.18 L 2187.01,2582.36 L 2225.58,2582.36 L 2226.78,2582.01 L 2226.88,2581.9 L 2227.01,2581.29 L 2227.01,2547.47 L 2226.98,2546.96 L 2226.2,2539.43 L 2225.97,2538.38 L 2221.92,2526.24 L 2221.44,2525.2 L 2214.72,2514.35 L 2214.01,2513.45 L 2211.51,2510.95 L 2208.83,2506.05 L 2209.22,2500.47 L 2211.5,2496.92 L 2214.07,2494.34 L 2214.78,2493.45 L 2221.48,2482.58 L 2221.96,2481.54 L 2225.99,2469.39 L 2226.22,2468.34 L 2226.98,2460.91 L 2227.01,2460.4 L 2227.01,2426.94 L 2226.65,2425.74 L 2226.55,2425.64 L 2225.94,2425.51 L 2187.01,2425.51 L 2187.01,2456.69 L 2186.58,2460.79 L 2185.31,2464.7 L 2183.25,2468.26 L 2180.49,2471.32 L 2177.17,2473.74 L 2173.41,2475.41 L 2169.38,2476.27 L 2167.32,2476.27 L 2167.32,2476.38 L 2154.84,2476.38 L 2154.84,2531.5M 2154.84,2334.65 L 2167.32,2334.65 L 2167.32,2334.75 L 2169.38,2334.75 L 2173.41,2335.61 L 2177.17,2337.28 L 2180.49,2339.7 L 2183.25,2342.76 L 2185.31,2346.32 L 2186.58,2350.24 L 2187.01,2354.33 L 2187.01,2385.51 L 2225.58,2385.51 L 2226.78,2385.16 L 2226.88,2385.05 L 2227.01,2384.44 L 2227.01,2350.62 L 2226.98,2350.11 L 2226.2,2342.58 L 2225.97,2341.53 L 2221.92,2329.39 L 2221.44,2328.35 L 2214.72,2317.49 L 2214.01,2316.6 L 2204.97,2307.58 L 2204.07,2306.87 L 2193.21,2300.17 L 2192.17,2299.69 L 2180.02,2295.66 L 2178.97,2295.43 L 2171.54,2294.67 L 2171.03,2294.65 L 2156.27,2294.65 L 2155.07,2295 L 2154.97,2295.11 L 2154.84,2295.71 L 2154.84,2334.65M 2322.84,458.944 L 2322.84,460.054 L 2323.41,460.314 L 2365.58,460.314 L 2366.11,459.727 L 2368.11,458.275 L 2370.37,457.271 L 2372.78,456.758 L 2374.02,456.758 L 2374.02,456.693 L 2400.27,456.693 L 2400.27,418.118 L 2399.92,416.918 L 2399.81,416.824 L 2399.21,416.692 L 2368.98,416.692 L 2368.59,416.708 L 2366.35,416.884 L 2365.36,417.064 L 2353.87,420.402 L 2352.74,420.894 L 2342.54,426.922 L 2341.57,427.68 L 2333.19,436.054 L 2332.43,437.032 L 2326.41,447.226 L 2325.91,448.362 L 2322.84,458.944 z " style="fill-opacity:1.000000;fill:rgb(214,174,82);stroke:rgb(0,0,0);stroke-width:2"/></g>
<g fill-rule="evenodd"><path d="M 1108.27,2299.21 L 1108.27,2165.35 L 1242.13,2165.35 L 1242.13,2222.44 L 1287.4,2222.44 L 1289.32,2222.63 L 1291.17,2223.19 L 1292.87,2224.1 L 1294.36,2225.32 L 1371.13,2302.09 L 1372.36,2303.59 L 1373.26,2305.29 L 1373.83,2307.13 L 1374.01,2309.05 L 1374.01,2625.98 L 1395.67,2625.98 L 1395.67,2626.09 L 1397.73,2626.09 L 1401.75,2626.95 L 1405.51,2628.62 L 1408.84,2631.04 L 1411.59,2634.1 L 1413.65,2637.66 L 1414.92,2641.58 L 1415.35,2645.67 L 1415.35,2874.02 L 1414.92,2878.11 L 1413.65,2882.02 L 1411.59,2885.59 L 1408.84,2888.64 L 1405.51,2891.06 L 1401.75,2892.74 L 1397.73,2893.59 L 1395.67,2893.59 L 1395.67,2893.7 L 1332.68,2893.7 L 1332.68,2893.59 L 1330.62,2893.59 L 1326.59,2892.74 L 1322.83,2891.06 L 1319.51,2888.64 L 1316.75,2885.59 L 1314.69,2882.02 L 1313.42,2878.11 L 1312.99,2874.02 L 1312.99,2645.67 L 1313.42,2641.58 L 1314.69,2637.66 L 1316.75,2634.1 L 1319.51,2631.04 L 1322.83,2628.62 L 1326.59,2626.95 L 1330.62,2626.09 L 1332.68,2626.09 L 1332.68,2625.98 L 1354.33,2625.98 L 1354.33,2313.13 L 1283.32,2242.12 L 1242.13,2242.12 L 1242.13,2299.21 L 1108.27,2299.21 z " style="fill-opacity:1.000000;fill:rgb(144,73,241);stroke:rgb(0,0,0);stroke-width:2"/></g>
<g fill-rule="evenodd"><path d="M 1108.27,2032.28 L 1109.73,2018.37 L 1114.05,2005.06 L 1121.05,1992.94 L 1130.41,1982.55 L 1141.73,1974.32 L 1154.51,1968.63 L 1168.2,1965.72 L 1182.19,1965.72 L 1195.88,1968.63 L 1208.66,1974.32 L 1216.4,1979.94 L 1226.3,1970.04 L 1227.5,1969.06 L 1228.86,1968.33 L 1230.34,1967.88 L 1231.87,1967.73 L 1551.37,1967.73 L 1551.37,1963.8 L 1551.63,1961.34 L 1552.4,1958.99 L 1553.63,1956.85 L 1555.28,1955.02 L 1557.28,1953.57 L 1559.54,1952.56 L 1561.95,1952.05 L 1563.19,1952.05 L 1563.19,1951.99 L 1697.04,1951.99 L 1697.04,1952.05 L 1698.28,1952.05 L 1700.69,1952.56 L 1702.95,1953.57 L 1704.95,1955.02 L 1706.6,1956.85 L 1707.83,1958.99 L 1708.6,1961.34 L 1708.85,1963.8 L 1708.85,1987.42 L 1708.6,1989.87 L 1707.83,1992.22 L 1706.6,1994.36 L 1704.95,1996.2 L 1702.95,1997.65 L 1700.69,1998.65 L 1698.28,1999.17 L 1697.04,1999.17 L 1697.04,1999.23 L 1563.19,1999.23 L 1563.19,1999.17 L 1561.95,1999.17 L 1559.54,1998.65 L 1557.28,1997.65 L 1555.28,1996.2 L 1553.63,1994.36 L 1552.4,1992.22 L 1551.63,1989.87 L 1551.37,1987.42 L 1551.37,1983.48 L 1235.13,1983.48 L 1227.6,1991.01 L 1229.34,1992.94 L 1236.34,2005.06 L 1240.66,2018.37 L 1242.13,2032.28 L 1240.66,2046.2 L 1236.34,2059.51 L 1229.34,2071.62 L 1219.98,2082.02 L 1208.66,2090.25 L 1195.88,2095.94 L 1182.19,2098.85 L 1168.2,2098.85 L 1154.51,2095.94 L 1141.73,2090.25 L 1130.41,2082.02 L 1121.05,2071.62 L 1114.05,2059.51 L 1109.73,2046.2 L 1108.27,2032.28 z " style="fill-opacity:1.000000;fill:rgb(241,187,233);stroke:rgb(0,0,0);stroke-width:2"/></g>
<g fill-rule="evenodd"><path d="M 1108.27,1832.28 L 1109.73,1818.37 L 1114.05,1805.06 L 1121.05,1792.94 L 1130.41,1782.55 L 1141.73,1774.32 L 1154.51,1768.63 L 1168.2,1765.72 L 1182.19,1765.72 L 1195.88,1768.63 L 1208.66,1774.32 L 1219.98,1782.55 L 1229.34,1792.94 L 1236.34,1805.06 L 1240.66,1818.37 L 1242.13,1832.28 L 1240.66,1846.2 L 1236.34,1859.51 L 1231.59,1867.73 L 1551.37,1867.73 L 1551.37,1863.8 L 1551.63,1861.34 L 1552.4,1858.99 L 1553.63,1856.85 L 1555.28,1855.02 L 1557.28,1853.57 L 1559.54,1852.56 L 1561.95,1852.05 L 1563.19,1852.05 L 1563.19,1851.99 L 1697.04,1851.99 L 1697.04,1852.05 L 1698.28,1852.05 L 1700.69,1852.56 L 1702.95,1853.57 L 1704.95,1855.02 L 1706.6,1856.85 L 1707.83,1858.99 L 1708.6,1861.34 L 1708.85,1863.8 L 1708.85,1887.42 L 1708.6,1889.87 L 1707.83,1892.22 L 1706.6,1894.36 L 1704.95,1896.2 L 1702.95,1897.65 L 1700.69,1898.65 L 1698.28,1899.17 L 1697.04,1899.17 L 1697.04,1899.23 L 1563.19,1899.23 L 1563.19,1899.17 L 1561.95,1899.17 L 1559.54,1898.65 L 1557.28,1897.65 L 1555.28,1896.2 L 1553.63,1894.36 L 1552.4,1892.22 L 1551.63,1889.87 L 1551.37,1887.42 L 1551.37,1883.48 L 1218.52,1883.48 L 1218.04,1883.43 L 1208.66,1890.25 L 1195.88,1895.94 L 1182.19,1898.85 L 1168.2,1898.85 L 1154.51,1895.94 L 1141.73,1890.25 L 1130.41,1882.02 L 1121.05,1871.62 L 1114.05,1859.51 L 1109.73,1846.2 L 1108.27,1832.28 z " style="fill-opacity:1.000000;fill:rgb(235,179,166);stroke:rgb(0,0,0);stroke-width:2"/></g>
<g fill-rule="evenodd"><path d="M 1240.16,812.992 L 1240.16,720.472 L 1240.42,718.017 L 1241.18,715.668 L 1242.41,713.53 L 1244.07,711.695 L 1246.06,710.244 L 1248.32,709.239 L 1250.73,708.726 L 1251.97,708.726 L 1251.97,708.661 L 1253.94,708.661 L 1253.94,515.748 L 1254.12,513.827 L 1254.68,511.981 L 1255.59,510.279 L 1256.82,508.788 L 1278.47,487.134 L 1279.96,485.91 L 1281.67,485 L 1283.51,484.44 L 1285.43,484.251 L 1444.88,484.251 L 1444.88,468.504 L 1445.31,464.411 L 1446.58,460.497 L 1448.64,456.933 L 1451.4,453.875 L 1454.72,451.456 L 1458.48,449.782 L 1462.51,448.927 L 1464.57,448.927 L 1464.57,448.819 L 1535.43,448.819 L 1535.43,448.927 L 1537.49,448.927 L 1541.52,449.782 L 1545.28,451.456 L 1548.6,453.875 L 1551.36,456.933 L 1553.42,460.497 L 1554.69,464.411 L 1555.12,468.504 L 1555.12,519.685 L 1554.69,523.778 L 1553.42,527.692 L 1551.36,531.256 L 1548.6,534.314 L 1545.28,536.733 L 1541.52,538.407 L 1537.49,539.262 L 1535.43,539.262 L 1535.43,539.37 L 1464.57,539.37 L 1464.57,539.262 L 1462.51,539.262 L 1458.48,538.407 L 1454.72,536.733 L 1451.4,534.314 L 1448.64,531.256 L 1446.58,527.692 L 1445.31,523.778 L 1444.88,519.685 L 1444.88,503.936 L 1289.51,503.936 L 1273.62,519.825 L 1273.62,708.661 L 1275.59,708.661 L 1275.59,708.726 L 1276.83,708.726 L 1279.24,709.239 L 1281.5,710.244 L 1283.49,711.695 L 1285.15,713.53 L 1286.38,715.668 L 1287.14,718.017 L 1287.4,720.472 L 1287.4,812.992 L 1287.14,815.448 L 1286.38,817.796 L 1285.15,819.934 L 1283.49,821.769 L 1281.5,823.221 L 1279.24,824.225 L 1276.83,824.738 L 1275.59,824.738 L 1275.59,824.803 L 1251.97,824.803 L 1251.97,824.738 L 1250.73,824.738 L 1248.32,824.225 L 1246.06,823.221 L 1244.07,821.769 L 1242.41,819.934 L 1241.18,817.796 L 1240.42,815.448 L 1240.16,812.992 z " style="fill-opacity:1.000000;fill:rgb(219,60,135);stroke:rgb(0,0,0);stroke-width:2"/></g>
<g fill-rule="evenodd"><path d="M 1275.59,1433.07 L 1275.59,1330.71 L 1276.02,1326.62 L 1277.29,1322.7 L 1279.35,1319.14 L 1282.1,1316.08 L 1285.43,1313.66 L 1289.19,1311.99 L 1293.22,1311.13 L 1295.28,1311.13 L 1295.28,1311.02 L 1360.24,1311.02 L 1360.24,1311.13 L 1362.29,1311.13 L 1366.32,1311.99 L 1370.08,1313.66 L 1373.41,1316.08 L 1376.16,1319.14 L 1378.22,1322.7 L 1379.49,1326.62 L 1379.92,1330.71 L 1379.92,1420.13 L 1388.85,1429.06 L 1390.07,1430.55 L 1390.98,1432.25 L 1391.54,1434.1 L 1391.73,1436.02 L 1391.73,1712.46 L 1445.04,1765.77 L 1551.37,1765.77 L 1551.37,1763.8 L 1551.63,1761.34 L 1552.4,1758.99 L 1553.63,1756.85 L 1555.28,1755.02 L 1557.28,1753.57 L 1559.54,1752.56 L 1561.95,1752.05 L 1563.19,1752.05 L 1563.19,1751.99 L 1697.04,1751.99 L 1697.04,1752.05 L 1698.28,1752.05 L 1700.69,1752.56 L 1702.95,1753.57 L 1704.95,1755.02 L 1706.6,1756.85 L 1707.83,1758.99 L 1708.6,1761.34 L 1708.85,1763.8 L 1708.85,1787.42 L 1708.6,1789.87 L 1707.83,1792.22 L 1706.6,1794.36 L 1704.95,1796.2 L 1702.95,1797.65 L 1700.69,1798.65 L 1698.28,1799.17 L 1697.04,1799.17 L 1697.04,1799.23 L 1563.19,1799.23 L 1563.19,1799.17 L 1561.95,1799.17 L 1559.54,1798.65 L 1557.28,1797.65 L 1555.28,1796.2 L 1553.63,1794.36 L 1552.4,1792.22 L 1551.63,1789.87 L 1551.37,1787.42 L 1551.37,1785.45 L 1440.96,1785.45 L 1439.04,1785.26 L 1437.19,1784.7 L 1435.49,1783.79 L 1434,1782.57 L 1374.93,1723.49 L 1373.71,1722 L 1372.8,1720.3 L 1372.24,1718.45 L 1372.05,1716.53 L 1372.05,1448.69 L 1370.08,1450.12 L 1366.32,1451.79 L 1362.29,1452.65 L 1360.24,1452.65 L 1360.24,1452.76 L 1295.28,1452.76 L 1295.28,1452.65 L 1293.22,1452.65 L 1289.19,1451.79 L 1285.43,1450.12 L 1282.1,1447.7 L 1279.35,1444.64 L 1277.29,1441.08 L 1276.02,1437.16 L 1275.59,1433.07 z " style="fill-opacity:1.000000;fill:rgb(12,62,153);stroke:rgb(0,0,0);stroke-width:2"/></g>
<g fill-rule="evenodd"><path d="M 1314.96,665.354 L 1314.96,572.835 L 1315.22,570.379 L 1315.98,568.031 L 1317.22,565.892 L 1318.87,564.057 L 1320.87,562.606 L 1323.12,561.602 L 1325.54,561.088 L 1326.77,561.088 L 1326.77,561.024 L 1350.39,561.024 L 1350.39,561.088 L 1351.63,561.088 L 1354.04,561.602 L 1356.3,562.606 L 1358.3,564.057 L 1359.95,565.892 L 1361.18,568.031 L 1361.95,570.379 L 1362.2,572.835 L 1362.2,665.354 L 1361.95,667.81 L 1361.18,670.158 L 1359.95,672.297 L 1358.3,674.132 L 1356.3,675.583 L 1354.04,676.587 L 1351.63,677.101 L 1350.39,677.101 L 1350.39,677.165 L 1348.42,677.165 L 1348.42,779.387 L 1462.74,893.701 L 1549.21,893.701 L 1549.21,893.809 L 1551.27,893.809 L 1555.3,894.664 L 1559.06,896.338 L 1562.38,898.757 L 1565.14,901.815 L 1567.2,905.379 L 1568.47,909.293 L 1568.9,913.386 L 1568.9,976.378 L 1568.47,980.471 L 1567.2,984.385 L 1565.14,987.949 L 1562.38,991.007 L 1559.06,993.426 L 1555.3,995.1 L 1551.27,995.955 L 1549.21,995.955 L 1549.21,996.063 L 1450.79,996.063 L 1450.79,995.955 L 1448.73,995.955 L 1444.7,995.1 L 1440.94,993.426 L 1437.62,991.007 L 1434.86,987.949 L 1432.8,984.385 L 1431.53,980.471 L 1431.1,976.378 L 1431.1,913.386 L 1431.53,909.293 L 1432.8,905.379 L 1434.86,901.815 L 1437.62,898.757 L 1438.97,897.772 L 1331.62,790.423 L 1330.4,788.932 L 1329.49,787.23 L 1328.93,785.384 L 1328.74,783.464 L 1328.74,677.165 L 1326.77,677.165 L 1326.77,677.101 L 1325.54,677.101 L 1323.12,676.587 L 1320.87,675.583 L 1318.87,674.132 L 1317.22,672.297 L 1315.98,670.158 L 1315.22,667.81 L 1314.96,665.354 z " style="fill-opacity:1.000000;fill:rgb(36,94,13);stroke:rgb(0,0,0);stroke-width:2"/></g>
<g fill-rule="evenodd"><path d="M 1431.1,1220.47 L 1431.1,1157.48 L 1431.53,1153.39 L 1432.8,1149.47 L 1434.86,1145.91 L 1437.62,1142.85 L 1440.94,1140.43 L 1444.7,1138.76 L 1448.73,1137.9 L 1450.79,1137.9 L 1450.79,1137.8 L 1549.21,1137.8 L 1549.21,1137.9 L 1551.27,1137.9 L 1555.3,1138.76 L 1559.06,1140.43 L 1562.38,1142.85 L 1565.14,1145.91 L 1567.2,1149.47 L 1568.47,1153.39 L 1568.9,1157.48 L 1568.9,1220.47 L 1568.47,1224.57 L 1567.2,1228.48 L 1565.14,1232.04 L 1562.38,1235.1 L 1559.06,1237.52 L 1555.3,1239.19 L 1551.27,1240.05 L 1549.21,1240.05 L 1549.21,1240.16 L 1474.41,1240.16 L 1474.41,1617.97 L 1522.2,1665.77 L 1551.37,1665.77 L 1551.37,1663.8 L 1551.63,1661.34 L 1552.4,1658.99 L 1553.63,1656.85 L 1555.28,1655.02 L 1557.28,1653.57 L 1559.54,1652.56 L 1561.95,1652.05 L 1563.19,1652.05 L 1563.19,1651.99 L 1697.04,1651.99 L 1697.04,1652.05 L 1698.28,1652.05 L 1700.69,1652.56 L 1702.95,1653.57 L 1704.95,1655.02 L 1706.6,1656.85 L 1707.83,1658.99 L 1708.6,1661.34 L 1708.85,1663.8 L 1708.85,1665.77 L 1753.38,1665.77 L 1805.12,1614.03 L 1805.12,1480.31 L 1805.31,1478.39 L 1805.87,1476.55 L 1806.78,1474.85 L 1808,1473.35 L 2162.33,1119.02 L 2163.82,1117.8 L 2165.52,1116.89 L 2167.37,1116.33 L 2169.29,1116.14 L 2540.94,1116.14 L 2542.86,1116.33 L 2544.71,1116.89 L 2546.41,1117.8 L 2547.9,1119.02 L 2570.64,1141.76 L 2576.77,1137.31 L 2589.55,1131.62 L 2603.24,1128.71 L 2617.23,1128.71 L 2630.92,1131.62 L 2643.7,1137.31 L 2655.02,1145.54 L 2664.38,1155.94 L 2671.38,1168.05 L 2675.7,1181.36 L 2677.17,1195.28 L 2675.7,1209.19 L 2671.38,1222.5 L 2664.38,1234.62 L 2655.02,1245.01 L 2643.7,1253.24 L 2630.92,1258.93 L 2617.23,1261.84 L 2603.24,1261.84 L 2589.55,1258.93 L 2576.77,1253.24 L 2565.45,1245.01 L 2556.09,1234.62 L 2549.09,1222.5 L 2544.77,1209.19 L 2543.31,1195.28 L 2544.77,1181.36 L 2549.09,1168.05 L 2556.09,1155.94 L 2556.51,1155.47 L 2536.87,1135.83 L 2173.37,1135.83 L 1824.8,1484.39 L 1824.8,1618.11 L 1824.61,1620.03 L 1824.05,1621.88 L 1823.14,1623.58 L 1821.92,1625.07 L 1764.42,1682.57 L 1762.93,1683.79 L 1761.23,1684.7 L 1759.38,1685.26 L 1757.46,1685.45 L 1708.85,1685.45 L 1708.85,1687.42 L 1708.6,1689.87 L 1707.83,1692.22 L 1706.6,1694.36 L 1704.95,1696.2 L 1702.95,1697.65 L 1700.69,1698.65 L 1698.28,1699.17 L 1697.04,1699.17 L 1697.04,1699.23 L 1563.19,1699.23 L 1563.19,1699.17 L 1561.95,1699.17 L 1559.54,1698.65 L 1557.28,1697.65 L 1555.28,1696.2 L 1553.63,1694.36 L 1552.4,1692.22 L 1551.63,1689.87 L 1551.37,1687.42 L 1551.37,1685.45 L 1518.13,1685.45 L 1516.21,1685.26 L 1514.36,1684.7 L 1512.66,1683.79 L 1511.17,1682.57 L 1457.61,1629.01 L 1456.38,1627.51 L 1455.47,1625.81 L 1454.91,1623.97 L 1454.72,1622.05 L 1454.72,1240.16 L 1450.79,1240.16 L 1450.79,1240.05 L 1448.73,1240.05 L 1444.7,1239.19 L 1440.94,1237.52 L 1437.62,1235.1 L 1434.86,1232.04 L 1432.8,1228.48 L 1431.53,1224.57 L 1431.1,1220.47 z " style="fill-opacity:1.000000;fill:rgb(28,6,183);stroke:rgb(0,0,0);stroke-width:2"/></g>
<g fill-rule="evenodd"><path d="M 1444.88,681.102 L 1444.88,629.921 L 1445.31,625.829 L 1446.58,621.915 L 1448.64,618.351 L 1451.4,615.292 L 1454.72,612.874 L 1458.48,611.2 L 1462.51,610.344 L 1464.57,610.344 L 1464.57,610.236 L 1535.43,610.236 L 1535.43,610.344 L 1537.49,610.344 L 1541.52,611.2 L 1545.28,612.874 L 1548.6,615.292 L 1551.36,618.351 L 1553.42,621.915 L 1554.69,625.829 L 1555.12,629.921 L 1555.12,645.669 L 1568.76,645.669 L 1635.82,578.605 L 1634.47,577.621 L 1631.71,574.563 L 1629.65,570.999 L 1628.38,567.085 L 1627.95,562.992 L 1627.95,500 L 1628.38,495.907 L 1629.65,491.993 L 1631.71,488.429 L 1634.47,485.371 L 1637.8,482.952 L 1641.55,481.278 L 1645.58,480.423 L 1647.64,480.423 L 1647.64,480.315 L 1746.06,480.315 L 1746.06,480.423 L 1748.12,480.423 L 1752.15,481.278 L 1755.91,482.952 L 1759.23,485.371 L 1761.99,488.429 L 1764.05,491.993 L 1765.32,495.907 L 1765.75,500 L 1765.75,562.992 L 1765.32,567.085 L 1764.05,570.999 L 1761.99,574.563 L 1759.23,577.621 L 1755.91,580.04 L 1752.15,581.714 L 1748.12,582.569 L 1746.06,582.569 L 1746.06,582.677 L 1659.59,582.677 L 1579.79,662.471 L 1578.3,663.695 L 1576.6,664.605 L 1574.75,665.165 L 1572.83,665.354 L 1555.12,665.354 L 1555.12,681.102 L 1554.69,685.195 L 1553.42,689.109 L 1551.36,692.673 L 1548.6,695.731 L 1545.28,698.15 L 1541.52,699.824 L 1537.49,700.68 L 1535.43,700.68 L 1535.43,700.787 L 1464.57,700.787 L 1464.57,700.68 L 1462.51,700.68 L 1458.48,699.824 L 1454.72,698.15 L 1451.4,695.731 L 1448.64,692.673 L 1446.58,689.109 L 1445.31,685.195 L 1444.88,681.102 z " style="fill-opacity:1.000000;fill:rgb(71,222,179);stroke:rgb(0,0,0);stroke-width:2"/></g>
<g fill-rule="evenodd"><path d="M 1547.24,2523.72 L 1547.24,2271.75 L 1553.15,2271.75 L 1553.15,2242.73 L 1553.34,2240.81 L 1553.9,2238.96 L 1554.81,2237.26 L 1556.03,2235.77 L 1592.57,2199.23 L 1563.19,2199.23 L 1563.19,2199.17 L 1561.95,2199.17 L 1559.54,2198.65 L 1557.28,2197.65 L 1555.28,2196.2 L 1553.63,2194.36 L 1552.4,2192.22 L 1551.63,2189.87 L 1551.37,2187.42 L 1551.37,2163.8 L 1551.63,2161.34 L 1552.4,2158.99 L 1553.63,2156.85 L 1555.28,2155.02 L 1557.28,2153.57 L 1559.54,2152.56 L 1561.95,2152.05 L 1563.19,2152.05 L 1563.19,2151.99 L 1697.04,2151.99 L 1697.04,2152.05 L 1698.28,2152.05 L 1700.69,2152.56 L 1702.95,2153.57 L 1704.95,2155.02 L 1706.6,2156.85 L 1707.83,2158.99 L 1708.6,2161.34 L 1708.85,2163.8 L 1708.85,2187.42 L 1708.6,2189.87 L 1707.83,2192.22 L 1706.6,2194.36 L 1704.95,2196.2 L 1702.95,2197.65 L 1700.69,2198.65 L 1698.28,2199.17 L 1697.04,2199.17 L 1697.04,2199.23 L 1620.41,2199.23 L 1572.83,2246.81 L 1572.83,2271.75 L 1578.74,2271.75 L 1578.74,2523.72 L 1547.24,2523.72 z " style="fill-opacity:1.000000;fill:rgb(18,77,200);stroke:rgb(0,0,0);stroke-width:2"/></g>
<g fill-rule="evenodd"><path d="M 1551.37,2087.42 L 1551.37,2063.8 L 1551.63,2061.34 L 1552.4,2058.99 L 1553.63,2056.85 L 1555.28,2055.02 L 1557.28,2053.57 L 1559.54,2052.56 L 1561.95,2052.05 L 1563.19,2052.05 L 1563.19,2051.99 L 1697.04,2051.99 L 1697.04,2052.05 L 1698.28,2052.05 L 1700.69,2052.56 L 1702.95,2053.57 L 1704.95,2055.02 L 1706.6,2056.85 L 1707.83,2058.99 L 1708.6,2061.34 L 1708.85,2063.8 L 1708.85,2065.77 L 1721.28,2065.77 L 1723.2,2065.95 L 1725.04,2066.51 L 1726.74,2067.42 L 1728.24,2068.65 L 1758.93,2099.34 L 1760.15,2100.83 L 1761.06,2102.53 L 1761.62,2104.38 L 1761.81,2106.3 L 1761.81,2271.75 L 1767.72,2271.75 L 1767.72,2523.72 L 1736.22,2523.72 L 1736.22,2271.75 L 1742.13,2271.75 L 1742.13,2110.37 L 1717.2,2085.45 L 1708.85,2085.45 L 1708.85,2087.42 L 1708.6,2089.87 L 1707.83,2092.22 L 1706.6,2094.36 L 1704.95,2096.2 L 1702.95,2097.65 L 1700.69,2098.65 L 1698.28,2099.17 L 1697.04,2099.17 L 1697.04,2099.23 L 1563.19,2099.23 L 1563.19,2099.17 L 1561.95,2099.17 L 1559.54,2098.65 L 1557.28,2097.65 L 1555.28,2096.2 L 1553.63,2094.36 L 1552.4,2092.22 L 1551.63,2089.87 L 1551.37,2087.42 z " style="fill-opacity:1.000000;fill:rgb(67,187,139);stroke:rgb(0,0,0);stroke-width:2"/></g>
<g fill-rule="evenodd"><path d="M 1551.37,1587.42 L 1551.37,1563.8 L 1551.63,1561.34 L 1552.4,1558.99 L 1553.63,1556.85 L 1555.28,1555.02 L 1557.28,1553.57 L 1559.54,1552.56 L 1561.95,1552.05 L 1563.19,1552.05 L 1563.19,1551.99 L 1697.04,1551.99 L 1697.04,1552.05 L 1698.28,1552.05 L 1700.69,1552.56 L 1702.95,1553.57 L 1704.95,1555.02 L 1706.6,1556.85 L 1707.83,1558.99 L 1708.6,1561.34 L 1708.85,1563.8 L 1708.85,1565.77 L 1735.27,1565.77 L 1746.06,1554.98 L 1746.06,1460.63 L 1746.25,1458.71 L 1746.81,1456.86 L 1747.72,1455.16 L 1748.94,1453.67 L 2214.3,988.314 L 2215.79,987.09 L 2217.49,986.18 L 2219.34,985.62 L 2221.26,985.431 L 2544.34,985.431 L 2544.77,981.36 L 2549.09,968.053 L 2556.09,955.936 L 2565.45,945.538 L 2576.77,937.313 L 2589.55,931.622 L 2600.39,929.318 L 2600.39,826.772 L 2553.15,826.772 L 2553.15,826.664 L 2551.09,826.664 L 2547.07,825.808 L 2543.31,824.134 L 2539.98,821.715 L 2537.22,818.657 L 2535.17,815.093 L 2533.89,811.179 L 2533.46,807.087 L 2533.46,744.094 L 2533.89,740.002 L 2535.17,736.088 L 2537.22,732.524 L 2539.98,729.466 L 2543.31,727.047 L 2547.07,725.373 L 2551.09,724.517 L 2553.15,724.517 L 2553.15,724.409 L 2651.57,724.409 L 2651.57,724.517 L 2653.63,724.517 L 2657.66,725.373 L 2661.42,727.047 L 2664.75,729.466 L 2667.5,732.524 L 2669.56,736.088 L 2670.83,740.002 L 2671.26,744.094 L 2671.26,807.087 L 2670.83,811.179 L 2669.56,815.093 L 2667.5,818.657 L 2664.75,821.715 L 2661.42,824.134 L 2657.66,825.808 L 2653.63,826.664 L 2651.57,826.664 L 2651.57,826.772 L 2620.08,826.772 L 2620.08,929.318 L 2630.92,931.622 L 2643.7,937.313 L 2655.02,945.538 L 2664.38,955.936 L 2671.38,968.053 L 2675.7,981.36 L 2677.17,995.276 L 2675.7,1009.19 L 2671.38,1022.5 L 2664.38,1034.62 L 2655.02,1045.01 L 2643.7,1053.24 L 2630.92,1058.93 L 2617.23,1061.84 L 2603.24,1061.84 L 2589.55,1058.93 L 2576.77,1053.24 L 2565.45,1045.01 L 2556.09,1034.62 L 2549.09,1022.5 L 2544.77,1009.19 L 2544.34,1005.12 L 2225.34,1005.12 L 1765.75,1464.71 L 1765.75,1559.05 L 1765.56,1560.97 L 1765,1562.82 L 1764.09,1564.52 L 1762.86,1566.01 L 1746.31,1582.57 L 1744.82,1583.79 L 1743.12,1584.7 L 1741.27,1585.26 L 1739.35,1585.45 L 1708.85,1585.45 L 1708.85,1587.42 L 1708.6,1589.87 L 1707.83,1592.22 L 1706.6,1594.36 L 1704.95,1596.2 L 1702.95,1597.65 L 1700.69,1598.65 L 1698.28,1599.17 L 1697.04,1599.17 L 1697.04,1599.23 L 1563.19,1599.23 L 1563.19,1599.17 L 1561.95,1599.17 L 1559.54,1598.65 L 1557.28,1597.65 L 1555.28,1596.2 L 1553.63,1594.36 L 1552.4,1592.22 L 1551.63,1589.87 L 1551.37,1587.42 z " style="fill-opacity:1.000000;fill:rgb(166,31,3);stroke:rgb(0,0,0);stroke-width:2"/></g>
<g fill-rule="evenodd"><path d="M 1627.95,807.087 L 1627.95,744.094 L 1628.38,740.002 L 1629.65,736.088 L 1631.71,732.524 L 1634.47,729.466 L 1637.8,727.047 L 1641.55,725.373 L 1645.58,724.517 L 1647.64,724.517 L 1647.64,724.409 L 1746.06,724.409 L 1746.06,724.517 L 1748.12,724.517 L 1752.15,725.373 L 1755.91,727.047 L 1759.23,729.466 L 1761.99,732.524 L 1764.05,736.088 L 1765.32,740.002 L 1765.75,744.094 L 1765.75,765.747 L 1824.8,765.747 L 1824.8,744.094 L 1825.23,740.002 L 1826.51,736.088 L 1828.56,732.524 L 1831.32,729.466 L 1834.65,727.047 L 1838.41,725.373 L 1842.43,724.517 L 1844.49,724.517 L 1844.49,724.409 L 1942.91,724.409 L 1942.91,724.517 L 1944.97,724.517 L 1949,725.373 L 1952.76,727.047 L 1956.09,729.466 L 1958.84,732.524 L 1960.9,736.088 L 1962.17,740.002 L 1962.6,744.094 L 1962.6,765.747 L 2419.15,765.747 L 2538.31,646.582 L 2539.81,645.358 L 2541.51,644.448 L 2543.35,643.888 L 2545.27,643.699 L 2720.47,643.699 L 2722.39,643.888 L 2724.24,644.448 L 2725.94,645.358 L 2727.43,646.582 L 2766.8,685.952 L 2768.03,687.443 L 2768.93,689.145 L 2769.5,690.991 L 2769.68,692.912 L 2769.68,1282.75 L 2769.5,1284.67 L 2768.93,1286.52 L 2768.03,1288.22 L 2766.8,1289.71 L 2746.76,1309.75 L 2745.27,1310.98 L 2743.57,1311.89 L 2741.72,1312.45 L 2739.8,1312.64 L 2508.37,1312.64 L 2338.44,1482.57 L 2336.94,1483.79 L 2335.24,1484.7 L 2333.4,1485.26 L 2331.48,1485.45 L 2102.56,1485.45 L 2102.56,1487.42 L 2102.3,1489.87 L 2101.53,1492.22 L 2100.3,1494.36 L 2098.65,1496.2 L 2096.65,1497.65 L 2094.39,1498.65 L 2091.98,1499.17 L 2090.74,1499.17 L 2090.74,1499.23 L 1956.89,1499.23 L 1956.89,1499.17 L 1955.65,1499.17 L 1953.24,1498.65 L 1950.98,1497.65 L 1948.98,1496.2 L 1947.33,1494.36 L 1946.1,1492.22 L 1945.33,1489.87 L 1945.08,1487.42 L 1945.08,1485.45 L 1922.17,1485.45 L 1898.62,1509 L 1898.62,2334.65 L 1921.26,2334.65 L 1921.26,2334.75 L 1923.32,2334.75 L 1927.34,2335.61 L 1931.1,2337.28 L 1934.43,2339.7 L 1937.19,2342.76 L 1939.24,2346.32 L 1940.51,2350.24 L 1940.94,2354.33 L 1940.94,2456.69 L 1940.51,2460.79 L 1939.24,2464.7 L 1937.19,2468.26 L 1934.43,2471.32 L 1931.1,2473.74 L 1927.34,2475.41 L 1923.32,2476.27 L 1921.26,2476.27 L 1921.26,2476.38 L 1898.62,2476.38 L 1898.62,2531.5 L 1921.26,2531.5 L 1921.26,2531.6 L 1923.32,2531.6 L 1927.34,2532.46 L 1931.1,2534.13 L 1934.43,2536.55 L 1937.19,2539.61 L 1939.24,2543.17 L 1940.51,2547.09 L 1940.94,2551.18 L 1940.94,2653.54 L 1940.51,2657.64 L 1939.24,2661.55 L 1937.19,2665.11 L 1934.43,2668.17 L 1931.1,2670.59 L 1927.34,2672.26 L 1923.32,2673.12 L 1921.26,2673.12 L 1921.26,2673.23 L 1898.62,2673.23 L 1898.62,2782.34 L 1901.71,2785.43 L 2543.31,2785.43 L 2543.31,2728.35 L 2677.17,2728.35 L 2677.17,2862.2 L 2543.31,2862.2 L 2543.31,2805.12 L 1903.54,2805.12 L 1903.54,2862.2 L 1942.91,2862.2 L 1942.91,2862.31 L 1944.97,2862.31 L 1949,2863.17 L 1952.76,2864.84 L 1956.09,2867.26 L 1958.84,2870.32 L 1960.9,2873.88 L 1962.17,2877.8 L 1962.6,2881.89 L 1962.6,2944.88 L 1962.17,2948.97 L 1960.9,2952.89 L 1958.84,2956.45 L 1956.09,2959.51 L 1952.76,2961.93 L 1949,2963.6 L 1944.97,2964.46 L 1942.91,2964.46 L 1942.91,2964.57 L 1844.49,2964.57 L 1844.49,2964.46 L 1842.43,2964.46 L 1838.41,2963.6 L 1834.65,2961.93 L 1831.32,2959.51 L 1828.56,2956.45 L 1826.51,2952.89 L 1825.23,2948.97 L 1824.8,2944.88 L 1824.8,2881.89 L 1825.23,2877.8 L 1826.51,2873.88 L 1828.56,2870.32 L 1831.32,2867.26 L 1834.65,2864.84 L 1838.41,2863.17 L 1842.43,2862.31 L 1844.49,2862.31 L 1844.49,2862.2 L 1883.86,2862.2 L 1883.86,2805.12 L 1765.75,2805.12 L 1765.75,2874.02 L 1765.32,2878.11 L 1764.05,2882.02 L 1761.99,2885.59 L 1759.23,2888.64 L 1755.91,2891.06 L 1752.15,2892.74 L 1748.12,2893.59 L 1746.06,2893.59 L 1746.06,2893.7 L 1683.07,2893.7 L 1683.07,2893.59 L 1681.01,2893.59 L 1676.99,2892.74 L 1673.23,2891.06 L 1669.9,2888.64 L 1667.15,2885.59 L 1665.09,2882.02 L 1663.82,2878.11 L 1663.39,2874.02 L 1663.39,2645.67 L 1663.82,2641.58 L 1665.09,2637.66 L 1667.15,2634.1 L 1669.9,2631.04 L 1673.23,2628.62 L 1676.99,2626.95 L 1681.01,2626.09 L 1683.07,2626.09 L 1683.07,2625.98 L 1746.06,2625.98 L 1746.06,2626.09 L 1748.12,2626.09 L 1752.15,2626.95 L 1755.91,2628.62 L 1759.23,2631.04 L 1761.99,2634.1 L 1764.05,2637.66 L 1765.32,2641.58 L 1765.75,2645.67 L 1765.75,2785.43 L 1878.94,2785.43 L 1878.94,2673.23 L 1856.3,2673.23 L 1856.3,2673.12 L 1854.24,2673.12 L 1850.22,2672.26 L 1846.46,2670.59 L 1843.13,2668.17 L 1840.37,2665.11 L 1838.32,2661.55 L 1837.04,2657.64 L 1836.61,2653.54 L 1836.61,2551.18 L 1837.04,2547.09 L 1838.32,2543.17 L 1840.37,2539.61 L 1843.13,2536.55 L 1846.46,2534.13 L 1850.22,2532.46 L 1854.24,2531.6 L 1856.3,2531.6 L 1856.3,2531.5 L 1878.94,2531.5 L 1878.94,2476.38 L 1856.3,2476.38 L 1856.3,2476.27 L 1854.24,2476.27 L 1850.22,2475.41 L 1846.46,2473.74 L 1843.13,2471.32 L 1840.37,2468.26 L 1838.32,2464.7 L 1837.04,2460.79 L 1836.61,2456.69 L 1836.61,2354.33 L 1837.04,2350.24 L 1838.32,2346.32 L 1840.37,2342.76 L 1843.13,2339.7 L 1846.46,2337.28 L 1850.22,2335.61 L 1854.24,2334.75 L 1856.3,2334.75 L 1856.3,2334.65 L 1878.94,2334.65 L 1878.94,1504.92 L 1879.12,1503 L 1879.68,1501.15 L 1880.59,1499.45 L 1881.82,1497.96 L 1911.13,1468.65 L 1912.62,1467.42 L 1914.33,1466.51 L 1916.17,1465.95 L 1918.09,1465.77 L 1945.08,1465.77 L 1945.08,1463.8 L 1945.33,1461.34 L 1946.1,1458.99 L 1947.33,1456.85 L 1948.98,1455.02 L 1950.98,1453.57 L 1953.24,1452.56 L 1955.65,1452.05 L 1956.89,1452.05 L 1956.89,1451.99 L 2090.74,1451.99 L 2090.74,1452.05 L 2091.98,1452.05 L 2094.39,1452.56 L 2096.65,1453.57 L 2098.65,1455.02 L 2100.3,1456.85 L 2101.53,1458.99 L 2102.3,1461.34 L 2102.56,1463.8 L 2102.56,1465.77 L 2327.4,1465.77 L 2497.33,1295.83 L 2498.82,1294.61 L 2500.53,1293.7 L 2502.37,1293.14 L 2504.29,1292.95 L 2735.72,1292.95 L 2750,1278.68 L 2750,696.989 L 2716.39,663.384 L 2549.35,663.384 L 2430.19,782.549 L 2428.7,783.773 L 2426.99,784.683 L 2425.15,785.243 L 2423.23,785.432 L 1962.6,785.432 L 1962.6,807.087 L 1962.17,811.179 L 1960.9,815.093 L 1958.84,818.657 L 1956.09,821.715 L 1952.76,824.134 L 1949,825.808 L 1944.97,826.664 L 1942.91,826.664 L 1942.91,826.772 L 1844.49,826.772 L 1844.49,826.664 L 1842.43,826.664 L 1838.41,825.808 L 1834.65,824.134 L 1831.32,821.715 L 1828.56,818.657 L 1826.51,815.093 L 1825.23,811.179 L 1824.8,807.087 L 1824.8,785.432 L 1765.75,785.432 L 1765.75,807.087 L 1765.32,811.179 L 1764.05,815.093 L 1761.99,818.657 L 1759.23,821.715 L 1755.91,824.134 L 1752.15,825.808 L 1748.12,826.664 L 1746.06,826.664 L 1746.06,826.772 L 1647.64,826.772 L 1647.64,826.664 L 1645.58,826.664 L 1641.55,825.808 L 1637.8,824.134 L 1634.47,821.715 L 1631.71,818.657 L 1629.65,815.093 L 1628.38,811.179 L 1627.95,807.087 z " style="fill-opacity:1.000000;fill:rgb(90,125,9);stroke:rgb(0,0,0);stroke-width:2"/></g>
<g fill-rule="evenodd"><path d="M 1824.8,3188.98 L 1824.8,3125.98 L 1825.23,3121.89 L 1826.51,3117.98 L 1828.56,3114.41 L 1831.32,3111.36 L 1834.65,3108.94 L 1838.41,3107.26 L 1842.43,3106.41 L 1844.49,3106.41 L 1844.49,3106.3 L 1935.04,3106.3 L 1935.04,3106.3 L 2035.43,3106.3 L 2035.43,3090.55 L 2035.86,3086.46 L 2037.13,3082.54 L 2039.19,3078.98 L 2041.95,3075.92 L 2045.28,3073.5 L 2049.04,3071.83 L 2053.06,3070.97 L 2055.12,3070.97 L 2055.12,3070.87 L 2125.98,3070.87 L 2125.98,3070.97 L 2128.04,3070.97 L 2132.07,3071.83 L 2135.83,3073.5 L 2139.16,3075.92 L 2141.91,3078.98 L 2143.97,3082.54 L 2145.24,3086.46 L 2145.67,3090.55 L 2145.67,3141.73 L 2145.24,3145.83 L 2143.97,3149.74 L 2141.91,3153.3 L 2139.16,3156.36 L 2135.83,3158.78 L 2132.07,3160.45 L 2128.04,3161.31 L 2125.98,3161.31 L 2125.98,3161.42 L 2055.12,3161.42 L 2055.12,3161.31 L 2053.06,3161.31 L 2049.04,3160.45 L 2045.28,3158.78 L 2041.95,3156.36 L 2039.19,3153.3 L 2037.13,3149.74 L 2035.86,3145.83 L 2035.43,3141.73 L 2035.43,3125.98 L 1962.6,3125.98 L 1962.6,3125.98 L 1962.6,3188.98 L 1962.17,3193.07 L 1960.9,3196.98 L 1958.84,3200.55 L 1956.09,3203.61 L 1952.76,3206.02 L 1949,3207.7 L 1944.97,3208.55 L 1942.91,3208.55 L 1942.91,3208.66 L 1844.49,3208.66 L 1844.49,3208.55 L 1842.43,3208.55 L 1838.41,3207.7 L 1834.65,3206.02 L 1831.32,3203.61 L 1828.56,3200.55 L 1826.51,3196.98 L 1825.23,3193.07 L 1824.8,3188.98 z " style="fill-opacity:1.000000;fill:rgb(56,37,31);stroke:rgb(0,0,0);stroke-width:2"/></g>
<g fill-rule="evenodd"><path d="M 1824.8,562.992 L 1824.8,500 L 1825.23,495.907 L 1826.51,491.993 L 1828.56,488.429 L 1831.32,485.371 L 1834.65,482.952 L 1838.41,481.278 L 1842.43,480.423 L 1844.49,480.423 L 1844.49,480.315 L 1942.91,480.315 L 1942.91,480.423 L 1944.97,480.423 L 1949,481.278 L 1952.76,482.952 L 1956.09,485.371 L 1958.84,488.429 L 1960.9,491.993 L 1962.17,495.907 L 1962.6,500 L 1962.6,562.992 L 1962.17,567.085 L 1960.9,570.999 L 1958.84,574.563 L 1956.09,577.621 L 1954.73,578.606 L 2021.79,645.669 L 2035.43,645.669 L 2035.43,629.921 L 2035.86,625.829 L 2037.13,621.915 L 2039.19,618.351 L 2041.95,615.292 L 2045.28,612.874 L 2049.04,611.2 L 2053.06,610.344 L 2055.12,610.344 L 2055.12,610.236 L 2125.98,610.236 L 2125.98,610.344 L 2128.04,610.344 L 2132.07,611.2 L 2135.83,612.874 L 2139.16,615.292 L 2141.91,618.351 L 2143.97,621.915 L 2145.24,625.829 L 2145.67,629.921 L 2145.67,681.102 L 2145.24,685.195 L 2143.97,689.109 L 2141.91,692.673 L 2139.16,695.731 L 2135.83,698.15 L 2132.07,699.824 L 2128.04,700.68 L 2125.98,700.68 L 2125.98,700.787 L 2055.12,700.787 L 2055.12,700.68 L 2053.06,700.68 L 2049.04,699.824 L 2045.28,698.15 L 2041.95,695.731 L 2039.19,692.673 L 2037.13,689.109 L 2035.86,685.195 L 2035.43,681.102 L 2035.43,665.354 L 2017.72,665.354 L 2015.8,665.165 L 2013.95,664.605 L 2012.25,663.695 L 2010.76,662.471 L 1930.96,582.677 L 1844.49,582.677 L 1844.49,582.569 L 1842.43,582.569 L 1838.41,581.714 L 1834.65,580.04 L 1831.32,577.621 L 1828.56,574.563 L 1826.51,570.999 L 1825.23,567.085 L 1824.8,562.992 z " style="fill-opacity:1.000000;fill:rgb(93,212,203);stroke:rgb(0,0,0);stroke-width:2"/></g>
<g fill-rule="evenodd"><path d="M 1945.08,2187.42 L 1945.08,2163.8 L 1945.33,2161.34 L 1946.1,2158.99 L 1947.33,2156.85 L 1948.98,2155.02 L 1950.98,2153.57 L 1953.24,2152.56 L 1955.65,2152.05 L 1956.89,2152.05 L 1956.89,2151.99 L 2090.74,2151.99 L 2090.74,2152.05 L 2091.98,2152.05 L 2094.39,2152.56 L 2096.65,2153.57 L 2098.65,2155.02 L 2100.3,2156.85 L 2101.53,2158.99 L 2102.3,2161.34 L 2102.56,2163.8 L 2102.56,2165.77 L 2390.57,2165.77 L 2392.49,2165.95 L 2394.33,2166.51 L 2396.04,2167.42 L 2397.53,2168.65 L 2570.65,2341.76 L 2576.77,2337.31 L 2589.55,2331.62 L 2603.24,2328.71 L 2617.23,2328.71 L 2630.92,2331.62 L 2643.7,2337.31 L 2655.02,2345.54 L 2664.38,2355.94 L 2671.38,2368.05 L 2675.7,2381.36 L 2677.17,2395.28 L 2675.7,2409.19 L 2671.38,2422.5 L 2664.38,2434.62 L 2655.02,2445.01 L 2643.7,2453.24 L 2630.92,2458.93 L 2617.23,2461.84 L 2603.24,2461.84 L 2589.55,2458.93 L 2576.77,2453.24 L 2565.45,2445.01 L 2556.09,2434.62 L 2549.09,2422.5 L 2544.77,2409.19 L 2543.31,2395.28 L 2544.77,2381.36 L 2549.09,2368.05 L 2556.09,2355.94 L 2556.51,2355.47 L 2386.49,2185.45 L 2102.56,2185.45 L 2102.56,2187.42 L 2102.3,2189.87 L 2101.53,2192.22 L 2100.3,2194.36 L 2098.65,2196.2 L 2096.65,2197.65 L 2094.39,2198.65 L 2091.98,2199.17 L 2090.74,2199.17 L 2090.74,2199.23 L 1956.89,2199.23 L 1956.89,2199.17 L 1955.65,2199.17 L 1953.24,2198.65 L 1950.98,2197.65 L 1948.98,2196.2 L 1947.33,2194.36 L 1946.1,2192.22 L 1945.33,2189.87 L 1945.08,2187.42 z " style="fill-opacity:1.000000;fill:rgb(252,150,245);stroke:rgb(0,0,0);stroke-width:2"/></g>
<g fill-rule="evenodd"><path d="M 1945.08,2087.42 L 1945.08,2063.8 L 1945.33,2061.34 L 1946.1,2058.99 L 1947.33,2056.85 L 1948.98,2055.02 L 1950.98,2053.57 L 1953.24,2052.56 L 1955.65,2052.05 L 1956.89,2052.05 L 1956.89,2051.99 L 2090.74,2051.99 L 2090.74,2052.05 L 2091.98,2052.05 L 2094.39,2052.56 L 2096.65,2053.57 L 2098.65,2055.02 L 2100.3,2056.85 L 2101.53,2058.99 L 2102.3,2061.34 L 2102.56,2063.8 L 2102.56,2065.77 L 2490.57,2065.77 L 2492.49,2065.95 L 2494.33,2066.51 L 2496.04,2067.42 L 2497.53,2068.65 L 2570.65,2141.76 L 2576.77,2137.31 L 2589.55,2131.62 L 2603.24,2128.71 L 2617.23,2128.71 L 2630.92,2131.62 L 2643.7,2137.31 L 2655.02,2145.54 L 2664.38,2155.94 L 2671.38,2168.05 L 2675.7,2181.36 L 2677.17,2195.28 L 2675.7,2209.19 L 2671.38,2222.5 L 2664.38,2234.62 L 2655.02,2245.01 L 2643.7,2253.24 L 2630.92,2258.93 L 2617.23,2261.84 L 2603.24,2261.84 L 2589.55,2258.93 L 2576.77,2253.24 L 2565.45,2245.01 L 2556.09,2234.62 L 2549.09,2222.5 L 2544.77,2209.19 L 2543.31,2195.28 L 2544.77,2181.36 L 2549.09,2168.05 L 2556.09,2155.94 L 2556.51,2155.47 L 2486.49,2085.45 L 2102.56,2085.45 L 2102.56,2087.42 L 2102.3,2089.87 L 2101.53,2092.22 L 2100.3,2094.36 L 2098.65,2096.2 L 2096.65,2097.65 L 2094.39,2098.65 L 2091.98,2099.17 L 2090.74,2099.17 L 2090.74,2099.23 L 1956.89,2099.23 L 1956.89,2099.17 L 1955.65,2099.17 L 1953.24,2098.65 L 1950.98,2097.65 L 1948.98,2096.2 L 1947.33,2094.36 L 1946.1,2092.22 L 1945.33,2089.87 L 1945.08,2087.42 z " style="fill-opacity:1.000000;fill:rgb(69,59,19);stroke:rgb(0,0,0);stroke-width:2"/></g>
<g fill-rule="evenodd"><path d="M 1945.08,1987.42 L 1945.08,1963.8 L 1945.33,1961.34 L 1946.1,1958.99 L 1947.33,1956.85 L 1948.98,1955.02 L 1950.98,1953.57 L 1953.24,1952.56 L 1955.65,1952.05 L 1956.89,1952.05 L 1956.89,1951.99 L 2090.74,1951.99 L 2090.74,1952.05 L 2091.98,1952.05 L 2094.39,1952.56 L 2096.65,1953.57 L 2098.65,1955.02 L 2100.3,1956.85 L 2101.53,1958.99 L 2102.3,1961.34 L 2102.56,1963.8 L 2102.56,1965.77 L 2550.41,1965.77 L 2556.09,1955.94 L 2565.45,1945.54 L 2576.77,1937.31 L 2589.55,1931.62 L 2603.24,1928.71 L 2617.23,1928.71 L 2630.92,1931.62 L 2643.7,1937.31 L 2655.02,1945.54 L 2664.38,1955.94 L 2671.38,1968.05 L 2675.7,1981.36 L 2677.17,1995.28 L 2675.7,2009.19 L 2671.38,2022.5 L 2664.38,2034.62 L 2655.02,2045.01 L 2643.7,2053.24 L 2630.92,2058.93 L 2617.23,2061.84 L 2603.24,2061.84 L 2589.55,2058.93 L 2576.77,2053.24 L 2565.45,2045.01 L 2556.09,2034.62 L 2549.09,2022.5 L 2544.77,2009.19 L 2543.31,1995.28 L 2544.34,1985.45 L 2102.56,1985.45 L 2102.56,1987.42 L 2102.3,1989.87 L 2101.53,1992.22 L 2100.3,1994.36 L 2098.65,1996.2 L 2096.65,1997.65 L 2094.39,1998.65 L 2091.98,1999.17 L 2090.74,1999.17 L 2090.74,1999.23 L 1956.89,1999.23 L 1956.89,1999.17 L 1955.65,1999.17 L 1953.24,1998.65 L 1950.98,1997.65 L 1948.98,1996.2 L 1947.33,1994.36 L 1946.1,1992.22 L 1945.33,1989.87 L 1945.08,1987.42 z " style="fill-opacity:1.000000;fill:rgb(13,137,10);stroke:rgb(0,0,0);stroke-width:2"/></g>
<g fill-rule="evenodd"><path d="M 1945.08,1887.42 L 1945.08,1863.8 L 1945.33,1861.34 L 1946.1,1858.99 L 1947.33,1856.85 L 1948.98,1855.02 L 1950.98,1853.57 L 1953.24,1852.56 L 1955.65,1852.05 L 1956.89,1852.05 L 1956.89,1851.99 L 2090.74,1851.99 L 2090.74,1852.05 L 2091.98,1852.05 L 2094.39,1852.56 L 2096.65,1853.57 L 2098.65,1855.02 L 2100.3,1856.85 L 2101.53,1858.99 L 2102.3,1861.34 L 2102.56,1863.8 L 2102.56,1865.77 L 2525.83,1865.77 L 2556.51,1835.08 L 2556.09,1834.62 L 2549.09,1822.5 L 2544.77,1809.19 L 2543.31,1795.28 L 2544.77,1781.36 L 2549.09,1768.05 L 2556.09,1755.94 L 2565.45,1745.54 L 2576.77,1737.31 L 2589.55,1731.62 L 2603.24,1728.71 L 2617.23,1728.71 L 2630.92,1731.62 L 2643.7,1737.31 L 2655.02,1745.54 L 2664.38,1755.94 L 2671.38,1768.05 L 2675.7,1781.36 L 2677.17,1795.28 L 2675.7,1809.19 L 2671.38,1822.5 L 2664.38,1834.62 L 2655.02,1845.01 L 2643.7,1853.24 L 2630.92,1858.93 L 2617.23,1861.84 L 2603.24,1861.84 L 2589.55,1858.93 L 2576.77,1853.24 L 2570.64,1848.79 L 2536.86,1882.57 L 2535.37,1883.79 L 2533.67,1884.7 L 2531.82,1885.26 L 2529.9,1885.45 L 2102.56,1885.45 L 2102.56,1887.42 L 2102.3,1889.87 L 2101.53,1892.22 L 2100.3,1894.36 L 2098.65,1896.2 L 2096.65,1897.65 L 2094.39,1898.65 L 2091.98,1899.17 L 2090.74,1899.17 L 2090.74,1899.23 L 1956.89,1899.23 L 1956.89,1899.17 L 1955.65,1899.17 L 1953.24,1898.65 L 1950.98,1897.65 L 1948.98,1896.2 L 1947.33,1894.36 L 1946.1,1892.22 L 1945.33,1889.87 L 1945.08,1887.42 z " style="fill-opacity:1.000000;fill:rgb(28,219,174);stroke:rgb(0,0,0);stroke-width:2"/></g>
<g fill-rule="evenodd"><path d="M 1945.08,1787.42 L 1945.08,1763.8 L 1945.33,1761.34 L 1946.1,1758.99 L 1947.33,1756.85 L 1948.98,1755.02 L 1950.98,1753.57 L 1953.24,1752.56 L 1955.65,1752.05 L 1956.89,1752.05 L 1956.89,1751.99 L 2090.74,1751.99 L 2090.74,1752.05 L 2091.98,1752.05 L 2094.39,1752.56 L 2096.65,1753.57 L 2098.65,1755.02 L 2100.3,1756.85 L 2101.53,1758.99 L 2102.3,1761.34 L 2102.56,1763.8 L 2102.56,1765.77 L 2425.83,1765.77 L 2556.51,1635.08 L 2556.09,1634.62 L 2549.09,1622.5 L 2544.77,1609.19 L 2543.31,1595.28 L 2544.77,1581.36 L 2549.09,1568.05 L 2556.09,1555.94 L 2565.45,1545.54 L 2576.77,1537.31 L 2589.55,1531.62 L 2603.24,1528.71 L 2617.23,1528.71 L 2630.92,1531.62 L 2643.7,1537.31 L 2655.02,1545.54 L 2664.38,1555.94 L 2671.38,1568.05 L 2675.7,1581.36 L 2677.17,1595.28 L 2675.7,1609.19 L 2671.38,1622.5 L 2664.38,1634.62 L 2655.02,1645.01 L 2643.7,1653.24 L 2630.92,1658.93 L 2617.23,1661.84 L 2603.24,1661.84 L 2589.55,1658.93 L 2576.77,1653.24 L 2570.64,1648.79 L 2436.86,1782.57 L 2435.37,1783.79 L 2433.67,1784.7 L 2431.82,1785.26 L 2429.9,1785.45 L 2102.56,1785.45 L 2102.56,1787.42 L 2102.3,1789.87 L 2101.53,1792.22 L 2100.3,1794.36 L 2098.65,1796.2 L 2096.65,1797.65 L 2094.39,1798.65 L 2091.98,1799.17 L 2090.74,1799.17 L 2090.74,1799.23 L 1956.89,1799.23 L 1956.89,1799.17 L 1955.65,1799.17 L 1953.24,1798.65 L 1950.98,1797.65 L 1948.98,1796.2 L 1947.33,1794.36 L 1946.1,1792.22 L 1945.33,1789.87 L 1945.08,1787.42 z " style="fill-opacity:1.000000;fill:rgb(50,32,154);stroke:rgb(0,0,0);stroke-width:2"/></g>
<g fill-rule="evenodd"><path d="M 1945.08,1687.42 L 1945.08,1663.8 L 1945.33,1661.34 L 1946.1,1658.99 L 1947.33,1656.85 L 1948.98,1655.02 L 1950.98,1653.57 L 1953.24,1652.56 L 1955.65,1652.05 L 1956.89,1652.05 L 1956.89,1651.99 L 2090.74,1651.99 L 2090.74,1652.05 L 2091.98,1652.05 L 2094.39,1652.56 L 2096.65,1653.57 L 2098.65,1655.02 L 2100.3,1656.85 L 2101.53,1658.99 L 2102.3,1661.34 L 2102.56,1663.8 L 2102.56,1665.77 L 2325.83,1665.77 L 2556.51,1435.08 L 2556.09,1434.62 L 2549.09,1422.5 L 2544.77,1409.19 L 2543.31,1395.28 L 2544.77,1381.36 L 2549.09,1368.05 L 2556.09,1355.94 L 2565.45,1345.54 L 2576.77,1337.31 L 2589.55,1331.62 L 2603.24,1328.71 L 2617.23,1328.71 L 2630.92,1331.62 L 2643.7,1337.31 L 2655.02,1345.54 L 2664.38,1355.94 L 2671.38,1368.05 L 2675.7,1381.36 L 2677.17,1395.28 L 2675.7,1409.19 L 2671.38,1422.5 L 2664.38,1434.62 L 2655.02,1445.01 L 2643.7,1453.24 L 2630.92,1458.93 L 2617.23,1461.84 L 2603.24,1461.84 L 2589.55,1458.93 L 2576.77,1453.24 L 2570.64,1448.79 L 2336.86,1682.57 L 2335.37,1683.79 L 2333.67,1684.7 L 2331.82,1685.26 L 2329.9,1685.45 L 2102.56,1685.45 L 2102.56,1687.42 L 2102.3,1689.87 L 2101.53,1692.22 L 2100.3,1694.36 L 2098.65,1696.2 L 2096.65,1697.65 L 2094.39,1698.65 L 2091.98,1699.17 L 2090.74,1699.17 L 2090.74,1699.23 L 1956.89,1699.23 L 1956.89,1699.17 L 1955.65,1699.17 L 1953.24,1698.65 L 1950.98,1697.65 L 1948.98,1696.2 L 1947.33,1694.36 L 1946.1,1692.22 L 1945.33,1689.87 L 1945.08,1687.42 z " style="fill-opacity:1.000000;fill:rgb(80,238,64);stroke:rgb(0,0,0);stroke-width:2"/></g>
<g fill-rule="evenodd"><path d="M 1945.08,1587.42 L 1945.08,1563.8 L 1945.33,1561.34 L 1946.1,1558.99 L 1947.33,1556.85 L 1948.98,1555.02 L 1950.98,1553.57 L 1953.24,1552.56 L 1955.65,1552.05 L 1956.89,1552.05 L 1956.89,1551.99 L 2090.74,1551.99 L 2090.74,1552.05 L 2091.98,1552.05 L 2094.39,1552.56 L 2096.65,1553.57 L 2098.65,1555.02 L 2100.3,1556.85 L 2101.53,1558.99 L 2102.3,1561.34 L 2102.56,1563.8 L 2102.56,1587.42 L 2102.3,1589.87 L 2101.53,1592.22 L 2100.3,1594.36 L 2098.65,1596.2 L 2096.65,1597.65 L 2094.39,1598.65 L 2091.98,1599.17 L 2090.74,1599.17 L 2090.74,1599.23 L 1956.89,1599.23 L 1956.89,1599.17 L 1955.65,1599.17 L 1953.24,1598.65 L 1950.98,1597.65 L 1948.98,1596.2 L 1947.33,1594.36 L 1946.1,1592.22 L 1945.33,1589.87 L 1945.08,1587.42 z " style="fill-opacity:1.000000;fill:rgb(120,54,253);stroke:rgb(0,0,0);stroke-width:2"/></g>
<g fill-rule="evenodd"><path d="M 2035.43,519.685 L 2035.43,468.504 L 2035.86,464.411 L 2037.13,460.497 L 2039.19,456.933 L 2041.95,453.875 L 2045.28,451.456 L 2049.04,449.782 L 2053.06,448.927 L 2055.12,448.927 L 2055.12,448.819 L 2125.98,448.819 L 2125.98,448.927 L 2128.04,448.927 L 2132.07,449.782 L 2135.83,451.456 L 2139.16,453.875 L 2141.91,456.933 L 2143.97,460.497 L 2145.24,464.411 L 2145.67,468.504 L 2145.67,484.251 L 2211.61,484.251 L 2213.53,484.44 L 2215.38,485 L 2217.08,485.91 L 2218.57,487.134 L 2262.94,531.496 L 2318.9,531.496 L 2318.9,531.561 L 2320.13,531.561 L 2322.55,532.074 L 2324.8,533.078 L 2326.8,534.53 L 2328.45,536.365 L 2329.69,538.503 L 2330.45,540.851 L 2330.71,543.307 L 2330.71,566.929 L 2330.45,569.385 L 2329.69,571.733 L 2328.45,573.871 L 2326.8,575.706 L 2324.8,577.158 L 2322.55,578.162 L 2320.13,578.675 L 2318.9,578.675 L 2318.9,578.74 L 2226.38,578.74 L 2226.38,578.675 L 2225.14,578.675 L 2222.73,578.162 L 2220.47,577.158 L 2218.47,575.706 L 2216.82,573.871 L 2215.59,571.733 L 2214.83,569.385 L 2214.57,566.929 L 2214.57,543.307 L 2214.83,540.851 L 2215.59,538.503 L 2216.82,536.365 L 2218.47,534.53 L 2220.47,533.078 L 2222.73,532.074 L 2225.14,531.561 L 2226.38,531.561 L 2226.38,531.496 L 2235.1,531.496 L 2207.54,503.936 L 2145.67,503.936 L 2145.67,519.685 L 2145.24,523.778 L 2143.97,527.692 L 2141.91,531.256 L 2139.16,534.314 L 2135.83,536.733 L 2132.07,538.407 L 2128.04,539.262 L 2125.98,539.262 L 2125.98,539.37 L 2055.12,539.37 L 2055.12,539.262 L 2053.06,539.262 L 2049.04,538.407 L 2045.28,536.733 L 2041.95,534.314 L 2039.19,531.256 L 2037.13,527.692 L 2035.86,523.778 L 2035.43,519.685 z " style="fill-opacity:1.000000;fill:rgb(18,73,50);stroke:rgb(0,0,0);stroke-width:2"/></g>
<g fill-rule="evenodd"><path d="M 2362.2,641.732 L 2362.2,618.11 L 2362.46,615.655 L 2363.23,613.306 L 2364.46,611.168 L 2366.11,609.333 L 2368.11,607.882 L 2370.37,606.877 L 2372.78,606.364 L 2374.02,606.364 L 2374.02,606.299 L 2458.52,606.299 L 2533.46,531.355 L 2533.46,500 L 2533.89,495.907 L 2535.17,491.993 L 2537.22,488.429 L 2539.98,485.371 L 2543.31,482.952 L 2547.07,481.278 L 2551.09,480.423 L 2553.15,480.423 L 2553.15,480.315 L 2651.57,480.315 L 2651.57,480.423 L 2653.63,480.423 L 2657.66,481.278 L 2661.42,482.952 L 2664.75,485.371 L 2667.5,488.429 L 2669.56,491.993 L 2670.83,495.907 L 2671.26,500 L 2671.26,562.992 L 2670.83,567.085 L 2669.56,570.999 L 2667.5,574.563 L 2664.75,577.621 L 2661.42,580.04 L 2657.66,581.714 L 2653.63,582.569 L 2651.57,582.569 L 2651.57,582.677 L 2553.15,582.677 L 2553.15,582.569 L 2551.09,582.569 L 2547.07,581.714 L 2543.31,580.04 L 2539.98,577.621 L 2537.22,574.563 L 2535.17,570.999 L 2533.89,567.085 L 2533.46,562.992 L 2533.46,559.194 L 2477.82,614.835 L 2478.09,615.655 L 2478.35,618.11 L 2478.35,641.732 L 2478.09,644.188 L 2477.33,646.536 L 2476.09,648.675 L 2474.44,650.51 L 2472.44,651.961 L 2470.19,652.965 L 2467.77,653.479 L 2466.54,653.479 L 2466.54,653.543 L 2374.02,653.543 L 2374.02,653.479 L 2372.78,653.479 L 2370.37,652.965 L 2368.11,651.961 L 2366.11,650.51 L 2364.46,648.675 L 2363.23,646.536 L 2362.46,644.188 L 2362.2,641.732 z " style="fill-opacity:1.000000;fill:rgb(246,158,125);stroke:rgb(0,0,0);stroke-width:2"/></g>
<g fill-rule="evenodd"><path d="M 2956.69,3192.91 L 2961.85,3143.8 L 2977.12,3096.83 L 3001.81,3054.07 L 3034.85,3017.37 L 3074.8,2988.34 L 3119.92,2968.25 L 3168.22,2957.99 L 3217.61,2957.99 L 3265.91,2968.25 L 3311.02,2988.34 L 3350.98,3017.37 L 3384.02,3054.07 L 3408.71,3096.83 L 3423.97,3143.8 L 3429.13,3192.91 L 3423.97,3242.03 L 3408.71,3288.99 L 3384.02,3331.76 L 3350.98,3368.46 L 3311.02,3397.49 L 3265.91,3417.57 L 3217.61,3427.84 L 3168.22,3427.84 L 3119.92,3417.57 L 3074.8,3397.49 L 3034.85,3368.46 L 3001.81,3331.76 L 2977.12,3288.99 L 2961.85,3242.03 L 2956.69,3192.91 z " style="fill-opacity:1.000000;fill:rgb(73,220,173);stroke:rgb(0,0,0);stroke-width:2"/></g>
<g fill-rule="evenodd"><path d="M 2956.69,594.488 L 2961.85,545.375 L 2977.12,498.409 L 3001.81,455.641 L 3034.85,418.942 L 3074.8,389.915 L 3119.92,369.829 L 3168.22,359.562 L 3217.61,359.562 L 3265.91,369.829 L 3311.02,389.915 L 3350.98,418.942 L 3384.02,455.641 L 3408.71,498.409 L 3423.97,545.375 L 3429.13,594.488 L 3423.97,643.601 L 3408.71,690.568 L 3384.02,733.335 L 3350.98,770.034 L 3311.02,799.061 L 3265.91,819.147 L 3217.61,829.415 L 3168.22,829.415 L 3119.92,819.147 L 3074.8,799.061 L 3034.85,770.034 L 3001.81,733.335 L 2977.12,690.568 L 2961.85,643.601 L 2956.69,594.488 z " style="fill-opacity:1.000000;fill:rgb(79,20,242);stroke:rgb(0,0,0);stroke-width:2"/></g>
</svg>
