%TF.GenerationSoftware,KiCad,Pcbnew,(6.0.4)*%
%TF.CreationDate,2022-07-17T16:02:17+02:00*%
%TF.ProjectId,uTerm2-s_exp,75546572-6d32-42d7-935f-6578702e6b69,rev?*%
%TF.SameCoordinates,PX6146580PY3dfd240*%
%TF.FileFunction,Copper,L1,Top*%
%TF.FilePolarity,Positive*%
%FSLAX46Y46*%
G04 Gerber Fmt 4.6, Leading zero omitted, Abs format (unit mm)*
G04 Created by KiCad (PCBNEW (6.0.4)) date 2022-07-17 16:02:17*
%MOMM*%
%LPD*%
G01*
G04 APERTURE LIST*
G04 Aperture macros list*
%AMRoundRect*
0 Rectangle with rounded corners*
0 $1 Rounding radius*
0 $2 $3 $4 $5 $6 $7 $8 $9 X,Y pos of 4 corners*
0 Add a 4 corners polygon primitive as box body*
4,1,4,$2,$3,$4,$5,$6,$7,$8,$9,$2,$3,0*
0 Add four circle primitives for the rounded corners*
1,1,$1+$1,$2,$3*
1,1,$1+$1,$4,$5*
1,1,$1+$1,$6,$7*
1,1,$1+$1,$8,$9*
0 Add four rect primitives between the rounded corners*
20,1,$1+$1,$2,$3,$4,$5,0*
20,1,$1+$1,$4,$5,$6,$7,0*
20,1,$1+$1,$6,$7,$8,$9,0*
20,1,$1+$1,$8,$9,$2,$3,0*%
G04 Aperture macros list end*
%TA.AperFunction,SMDPad,CuDef*%
%ADD10RoundRect,0.250000X0.650000X-0.412500X0.650000X0.412500X-0.650000X0.412500X-0.650000X-0.412500X0*%
%TD*%
%TA.AperFunction,SMDPad,CuDef*%
%ADD11RoundRect,0.250001X-0.924999X0.499999X-0.924999X-0.499999X0.924999X-0.499999X0.924999X0.499999X0*%
%TD*%
%TA.AperFunction,SMDPad,CuDef*%
%ADD12RoundRect,0.250000X0.400000X0.625000X-0.400000X0.625000X-0.400000X-0.625000X0.400000X-0.625000X0*%
%TD*%
%TA.AperFunction,SMDPad,CuDef*%
%ADD13R,1.500000X1.000000*%
%TD*%
%TA.AperFunction,SMDPad,CuDef*%
%ADD14R,1.500000X0.700000*%
%TD*%
%TA.AperFunction,SMDPad,CuDef*%
%ADD15R,2.800000X1.500000*%
%TD*%
%TA.AperFunction,SMDPad,CuDef*%
%ADD16RoundRect,0.250000X-0.412500X-0.650000X0.412500X-0.650000X0.412500X0.650000X-0.412500X0.650000X0*%
%TD*%
%TA.AperFunction,SMDPad,CuDef*%
%ADD17RoundRect,0.250000X0.475000X0.700000X-0.475000X0.700000X-0.475000X-0.700000X0.475000X-0.700000X0*%
%TD*%
%TA.AperFunction,SMDPad,CuDef*%
%ADD18R,2.000000X0.500000*%
%TD*%
%TA.AperFunction,SMDPad,CuDef*%
%ADD19R,1.700000X2.000000*%
%TD*%
%TA.AperFunction,SMDPad,CuDef*%
%ADD20RoundRect,0.250000X-0.400000X-0.625000X0.400000X-0.625000X0.400000X0.625000X-0.400000X0.625000X0*%
%TD*%
%TA.AperFunction,SMDPad,CuDef*%
%ADD21RoundRect,0.250000X-0.650000X0.412500X-0.650000X-0.412500X0.650000X-0.412500X0.650000X0.412500X0*%
%TD*%
%TA.AperFunction,SMDPad,CuDef*%
%ADD22RoundRect,0.150000X-0.150000X0.850000X-0.150000X-0.850000X0.150000X-0.850000X0.150000X0.850000X0*%
%TD*%
%TA.AperFunction,SMDPad,CuDef*%
%ADD23RoundRect,0.150000X0.150000X-0.825000X0.150000X0.825000X-0.150000X0.825000X-0.150000X-0.825000X0*%
%TD*%
%TA.AperFunction,SMDPad,CuDef*%
%ADD24R,0.400000X3.200000*%
%TD*%
%TA.AperFunction,SMDPad,CuDef*%
%ADD25RoundRect,0.250000X-0.400000X-1.450000X0.400000X-1.450000X0.400000X1.450000X-0.400000X1.450000X0*%
%TD*%
%TA.AperFunction,ComponentPad*%
%ADD26R,1.700000X1.700000*%
%TD*%
%TA.AperFunction,ComponentPad*%
%ADD27O,1.700000X1.700000*%
%TD*%
%TA.AperFunction,ViaPad*%
%ADD28C,1.500000*%
%TD*%
%TA.AperFunction,Conductor*%
%ADD29C,0.250000*%
%TD*%
%TA.AperFunction,Conductor*%
%ADD30C,0.500000*%
%TD*%
G04 APERTURE END LIST*
D10*
X15000000Y-37562500D03*
X15000000Y-34437500D03*
D11*
X32500000Y-14875000D03*
X32500000Y-18125000D03*
D12*
X35550000Y-8500000D03*
X32450000Y-8500000D03*
D13*
X25975000Y-22375000D03*
X25975000Y-19875000D03*
X25975000Y-17375000D03*
X25975000Y-14875000D03*
X25975000Y-12375000D03*
X25975000Y-9875000D03*
X25975000Y-7445000D03*
X25975000Y-5745000D03*
X25975000Y-24875000D03*
D14*
X25975000Y-4445000D03*
X25975000Y-3245000D03*
D15*
X24175000Y-26950000D03*
X2675000Y-1850000D03*
X24175000Y-1850000D03*
X2675000Y-29150000D03*
D16*
X11437500Y-50000000D03*
X14562500Y-50000000D03*
D17*
X40200000Y-15000000D03*
X35800000Y-15000000D03*
D18*
X6725000Y-41900000D03*
X6725000Y-42700000D03*
X6725000Y-43500000D03*
X6725000Y-44300000D03*
X6725000Y-45100000D03*
D19*
X6625000Y-39050000D03*
X1175000Y-47950000D03*
X6625000Y-47950000D03*
X1175000Y-39050000D03*
D20*
X28950000Y-25500000D03*
X32050000Y-25500000D03*
D16*
X11437500Y-53500000D03*
X14562500Y-53500000D03*
D21*
X29000000Y-14937500D03*
X29000000Y-18062500D03*
D22*
X18945000Y-41000000D03*
X17675000Y-41000000D03*
X16405000Y-41000000D03*
X15135000Y-41000000D03*
X13865000Y-41000000D03*
X12595000Y-41000000D03*
X11325000Y-41000000D03*
X10055000Y-41000000D03*
X10055000Y-46000000D03*
X11325000Y-46000000D03*
X12595000Y-46000000D03*
X13865000Y-46000000D03*
X15135000Y-46000000D03*
X16405000Y-46000000D03*
X17675000Y-46000000D03*
X18945000Y-46000000D03*
D21*
X32000000Y-38937500D03*
X32000000Y-42062500D03*
D23*
X35095000Y-43475000D03*
X36365000Y-43475000D03*
X37635000Y-43475000D03*
X38905000Y-43475000D03*
X38905000Y-38525000D03*
X37635000Y-38525000D03*
X36365000Y-38525000D03*
X35095000Y-38525000D03*
D24*
X11922380Y-37057285D03*
X10722380Y-37057285D03*
X9522380Y-37057285D03*
D25*
X3275000Y-53500000D03*
X7725000Y-53500000D03*
D26*
X46591408Y-31059616D03*
D27*
X46591408Y-33599616D03*
X44051408Y-31059616D03*
X44051408Y-33599616D03*
X41511408Y-31059616D03*
X41511408Y-33599616D03*
X38971408Y-31059616D03*
X38971408Y-33599616D03*
X36431408Y-31059616D03*
X36431408Y-33599616D03*
X33891408Y-31059616D03*
X33891408Y-33599616D03*
X31351408Y-31059616D03*
X31351408Y-33599616D03*
X28811408Y-31059616D03*
X28811408Y-33599616D03*
D26*
X22950157Y-34991611D03*
D27*
X22950157Y-37531611D03*
X22950157Y-40071611D03*
X22950157Y-42611611D03*
X22950157Y-45151611D03*
X22950157Y-47691611D03*
X22950157Y-50231611D03*
X22950157Y-52771611D03*
D28*
X31000000Y-46500000D03*
X28000000Y-46500000D03*
X20000000Y-42950000D03*
X20000000Y-35000000D03*
X18000000Y-49500000D03*
X18000000Y-35000000D03*
X34000000Y-28500000D03*
X35160000Y-46000000D03*
X31500000Y-28500000D03*
X32366000Y-44500000D03*
X40500000Y-25500000D03*
X46500000Y-25500000D03*
X34000000Y-25500000D03*
X41500000Y-25500000D03*
D29*
X18500000Y-39000000D02*
X17675000Y-39825000D01*
X20500000Y-39000000D02*
X18500000Y-39000000D01*
X22950157Y-40071611D02*
X21571611Y-40071611D01*
X17675000Y-39825000D02*
X17675000Y-41000000D01*
X21571611Y-40071611D02*
X20500000Y-39000000D01*
X20968389Y-37531611D02*
X20500000Y-38000000D01*
X16405000Y-39595000D02*
X16405000Y-41000000D01*
X20500000Y-38000000D02*
X18000000Y-38000000D01*
X18000000Y-38000000D02*
X16405000Y-39595000D01*
X22950157Y-37531611D02*
X20968389Y-37531611D01*
X20417116Y-52080266D02*
X21108461Y-52771611D01*
X21108461Y-52771611D02*
X22950157Y-52771611D01*
X20417116Y-45111218D02*
X20417116Y-52080266D01*
X19613589Y-44307691D02*
X20417116Y-45111218D01*
X16405000Y-46000000D02*
X16405000Y-44595000D01*
X16405000Y-44595000D02*
X16692309Y-44307691D01*
X16692309Y-44307691D02*
X19613589Y-44307691D01*
X20000000Y-42950000D02*
X19550000Y-42950000D01*
X15135000Y-43365000D02*
X15500000Y-43000000D01*
X15135000Y-46000000D02*
X15135000Y-43365000D01*
X20008389Y-34991611D02*
X22950157Y-34991611D01*
X20000000Y-35000000D02*
X20008389Y-34991611D01*
X15500000Y-43000000D02*
X19500000Y-43000000D01*
X19550000Y-42950000D02*
X19500000Y-43000000D01*
D30*
X31140192Y-11140192D02*
X42948842Y-11140192D01*
X44646088Y-12837438D02*
X44646088Y-30464936D01*
X25975000Y-7445000D02*
X27445000Y-7445000D01*
X42948842Y-11140192D02*
X44646088Y-12837438D01*
X44646088Y-30464936D02*
X44051408Y-31059616D01*
X27445000Y-7445000D02*
X31140192Y-11140192D01*
D29*
X3000000Y-43000000D02*
X3000000Y-53225000D01*
X3000000Y-53225000D02*
X3275000Y-53500000D01*
X6625000Y-41900000D02*
X5125000Y-41900000D01*
X3500000Y-42500000D02*
X3000000Y-43000000D01*
X5125000Y-41900000D02*
X4525000Y-42500000D01*
X4525000Y-42500000D02*
X3500000Y-42500000D01*
D30*
X25975000Y-14875000D02*
X28937500Y-14875000D01*
X35675000Y-14875000D02*
X35800000Y-15000000D01*
X32500000Y-14875000D02*
X35675000Y-14875000D01*
X28937500Y-14875000D02*
X29000000Y-14937500D01*
X29000000Y-14937500D02*
X32437500Y-14937500D01*
X32437500Y-14937500D02*
X32500000Y-14875000D01*
D29*
X18000000Y-48000000D02*
X18945000Y-47055000D01*
X25000000Y-32500000D02*
X19500000Y-32500000D01*
X19500000Y-32500000D02*
X18000000Y-34000000D01*
X11437500Y-53500000D02*
X11437500Y-50000000D01*
X18945000Y-47055000D02*
X18945000Y-46000000D01*
X7725000Y-53500000D02*
X11437500Y-53500000D01*
X12500000Y-48000000D02*
X18000000Y-48000000D01*
X11437500Y-50000000D02*
X11437500Y-49062500D01*
X24888389Y-42611611D02*
X25000000Y-42500000D01*
X25000000Y-42500000D02*
X25500000Y-42000000D01*
X11437500Y-49062500D02*
X12500000Y-48000000D01*
X18000000Y-34000000D02*
X18000000Y-35000000D01*
X18000000Y-49500000D02*
X18000000Y-48000000D01*
X22950157Y-42611611D02*
X24888389Y-42611611D01*
X25500000Y-42000000D02*
X25500000Y-33000000D01*
X25500000Y-33000000D02*
X25000000Y-32500000D01*
X15000000Y-37562500D02*
X15135000Y-37697500D01*
X15135000Y-37697500D02*
X15135000Y-41000000D01*
X42763352Y-32311560D02*
X42763352Y-29025377D01*
D30*
X25975000Y-12375000D02*
X42375000Y-12375000D01*
X43500000Y-13500000D02*
X43500000Y-28182147D01*
X42375000Y-12375000D02*
X43500000Y-13500000D01*
X43500000Y-28182147D02*
X42710061Y-28972086D01*
D29*
X42763352Y-29025377D02*
X42710061Y-28972086D01*
X44051408Y-33599616D02*
X42763352Y-32311560D01*
D30*
X34500000Y-22000000D02*
X41511408Y-29011408D01*
X41511408Y-29011408D02*
X41511408Y-31059616D01*
X28100000Y-22000000D02*
X34500000Y-22000000D01*
X25975000Y-19875000D02*
X28100000Y-22000000D01*
D29*
X40245492Y-32333700D02*
X41511408Y-33599616D01*
D30*
X26600000Y-23000000D02*
X34000000Y-23000000D01*
X25975000Y-22375000D02*
X26600000Y-23000000D01*
D29*
X40245492Y-29245492D02*
X40245492Y-32333700D01*
D30*
X34000000Y-23000000D02*
X40000000Y-29000000D01*
D29*
X40000000Y-29000000D02*
X40245492Y-29245492D01*
X37796897Y-32234127D02*
X38971408Y-31059616D01*
X37796897Y-34796897D02*
X37796897Y-32234127D01*
X36365000Y-39865000D02*
X36800966Y-40300966D01*
X40201483Y-37201483D02*
X37796897Y-34796897D01*
X40201483Y-40300966D02*
X40201483Y-37201483D01*
X36800966Y-40300966D02*
X40201483Y-40300966D01*
X36365000Y-38525000D02*
X36365000Y-39865000D01*
X38971408Y-34634497D02*
X38971408Y-33599616D01*
X37635000Y-43475000D02*
X37635000Y-41796595D01*
X41119358Y-40572929D02*
X41119358Y-36782447D01*
X41119358Y-36782447D02*
X38971408Y-34634497D01*
X38178759Y-41252836D02*
X40439451Y-41252836D01*
X37635000Y-41796595D02*
X38178759Y-41252836D01*
X40439451Y-41252836D02*
X41119358Y-40572929D01*
X33891408Y-28608592D02*
X33891408Y-31059616D01*
X34000000Y-28500000D02*
X33891408Y-28608592D01*
X36365000Y-43475000D02*
X36365000Y-44795000D01*
X36365000Y-44795000D02*
X35160000Y-46000000D01*
X38905000Y-37405000D02*
X37500000Y-36000000D01*
X34500000Y-36000000D02*
X33891408Y-35391408D01*
X38905000Y-38525000D02*
X38905000Y-37405000D01*
X33891408Y-35391408D02*
X33891408Y-33599616D01*
X37500000Y-36000000D02*
X34500000Y-36000000D01*
X31351408Y-28648592D02*
X31351408Y-31059616D01*
X32366000Y-44500000D02*
X34070000Y-44500000D01*
X31500000Y-28500000D02*
X31351408Y-28648592D01*
X35095000Y-43475000D02*
X34070000Y-44500000D01*
X33000000Y-36500000D02*
X31351408Y-34851408D01*
X31351408Y-34851408D02*
X31351408Y-33599616D01*
X37000000Y-36500000D02*
X33000000Y-36500000D01*
X37635000Y-38525000D02*
X37635000Y-37135000D01*
X37635000Y-37135000D02*
X37000000Y-36500000D01*
X6625000Y-42700000D02*
X12300000Y-42700000D01*
X12595000Y-42405000D02*
X12595000Y-41000000D01*
X12300000Y-42700000D02*
X12595000Y-42405000D01*
X13000000Y-43500000D02*
X13865000Y-42635000D01*
X13865000Y-42635000D02*
X13865000Y-41000000D01*
X6625000Y-43500000D02*
X13000000Y-43500000D01*
D30*
X28325000Y-24875000D02*
X25975000Y-24875000D01*
X28950000Y-25500000D02*
X28325000Y-24875000D01*
X25975000Y-5745000D02*
X28245000Y-5745000D01*
X28245000Y-5745000D02*
X31000000Y-8500000D01*
X31000000Y-8500000D02*
X32450000Y-8500000D01*
D29*
X11325000Y-41000000D02*
X11325000Y-39675000D01*
X11922380Y-39077620D02*
X11922380Y-37057285D01*
X11325000Y-39675000D02*
X11922380Y-39077620D01*
X9522380Y-39022380D02*
X9522380Y-37057285D01*
X10000000Y-40945000D02*
X10000000Y-39500000D01*
X10000000Y-39500000D02*
X9522380Y-39022380D01*
X10055000Y-41000000D02*
X10000000Y-40945000D01*
X29500000Y-47500000D02*
X31000000Y-49000000D01*
D30*
X40500000Y-25500000D02*
X41500000Y-25500000D01*
X39000000Y-10000000D02*
X43500000Y-10000000D01*
D29*
X29500000Y-39500000D02*
X29500000Y-47500000D01*
D30*
X46591408Y-25591408D02*
X46591408Y-31059616D01*
X32050000Y-25500000D02*
X34000000Y-25500000D01*
X46000000Y-25000000D02*
X46500000Y-25500000D01*
X40200000Y-15000000D02*
X40500000Y-15300000D01*
D29*
X31000000Y-49000000D02*
X47500000Y-49000000D01*
X32000000Y-38937500D02*
X30062500Y-38937500D01*
D30*
X46500000Y-25500000D02*
X46591408Y-25591408D01*
X35550000Y-8500000D02*
X37500000Y-8500000D01*
D29*
X49059616Y-31059616D02*
X46591408Y-31059616D01*
D30*
X37500000Y-8500000D02*
X39000000Y-10000000D01*
D29*
X49500000Y-47000000D02*
X49500000Y-31500000D01*
X30062500Y-38937500D02*
X29500000Y-39500000D01*
D30*
X43500000Y-10000000D02*
X46000000Y-12500000D01*
D29*
X47500000Y-49000000D02*
X49500000Y-47000000D01*
X49500000Y-31500000D02*
X49059616Y-31059616D01*
X32000000Y-38937500D02*
X34682500Y-38937500D01*
D30*
X46000000Y-12500000D02*
X46000000Y-25000000D01*
X40500000Y-15300000D02*
X40500000Y-25500000D01*
D29*
X34682500Y-38937500D02*
X35095000Y-38525000D01*
%TA.AperFunction,Conductor*%
G36*
X907014Y-528502D02*
G01*
X953507Y-582158D01*
X963611Y-652432D01*
X934117Y-717012D01*
X925397Y-725136D01*
X925626Y-725365D01*
X906715Y-744276D01*
X830214Y-846351D01*
X821676Y-861946D01*
X776522Y-982394D01*
X772895Y-997649D01*
X767369Y-1048514D01*
X767000Y-1055328D01*
X767000Y-1577885D01*
X771475Y-1593124D01*
X772865Y-1594329D01*
X780548Y-1596000D01*
X4564884Y-1596000D01*
X4580123Y-1591525D01*
X4581328Y-1590135D01*
X4582999Y-1582452D01*
X4582999Y-1055331D01*
X4582629Y-1048510D01*
X4577105Y-997648D01*
X4573479Y-982396D01*
X4528324Y-861946D01*
X4519786Y-846351D01*
X4443285Y-744276D01*
X4424374Y-725365D01*
X4426503Y-723236D01*
X4393030Y-678474D01*
X4388000Y-607656D01*
X4422056Y-545360D01*
X4484385Y-511366D01*
X4511107Y-508500D01*
X22338893Y-508500D01*
X22407014Y-528502D01*
X22453507Y-582158D01*
X22463611Y-652432D01*
X22434117Y-717012D01*
X22425397Y-725136D01*
X22425626Y-725365D01*
X22406715Y-744276D01*
X22330214Y-846351D01*
X22321676Y-861946D01*
X22276522Y-982394D01*
X22272895Y-997649D01*
X22267369Y-1048514D01*
X22267000Y-1055328D01*
X22267000Y-1577885D01*
X22271475Y-1593124D01*
X22272865Y-1594329D01*
X22280548Y-1596000D01*
X26064884Y-1596000D01*
X26080123Y-1591525D01*
X26081328Y-1590135D01*
X26082999Y-1582452D01*
X26082999Y-1055331D01*
X26082629Y-1048510D01*
X26077105Y-997648D01*
X26073479Y-982396D01*
X26028324Y-861946D01*
X26019786Y-846351D01*
X25943285Y-744276D01*
X25924374Y-725365D01*
X25926503Y-723236D01*
X25893030Y-678474D01*
X25888000Y-607656D01*
X25922056Y-545360D01*
X25984385Y-511366D01*
X26011107Y-508500D01*
X54365500Y-508500D01*
X54433621Y-528502D01*
X54480114Y-582158D01*
X54491500Y-634500D01*
X54491500Y-57365500D01*
X54471498Y-57433621D01*
X54417842Y-57480114D01*
X54365500Y-57491500D01*
X634500Y-57491500D01*
X566379Y-57471498D01*
X519886Y-57417842D01*
X508500Y-57365500D01*
X508500Y-49584000D01*
X528502Y-49515879D01*
X582158Y-49469386D01*
X634500Y-49458000D01*
X902885Y-49458000D01*
X918124Y-49453525D01*
X919329Y-49452135D01*
X921000Y-49444452D01*
X921000Y-49439884D01*
X1429000Y-49439884D01*
X1433475Y-49455123D01*
X1434865Y-49456328D01*
X1442548Y-49457999D01*
X2069669Y-49457999D01*
X2076490Y-49457629D01*
X2127352Y-49452105D01*
X2142603Y-49448479D01*
X2196270Y-49428360D01*
X2267077Y-49423177D01*
X2329446Y-49457097D01*
X2363575Y-49519352D01*
X2366500Y-49546342D01*
X2366500Y-51433607D01*
X2346498Y-51501728D01*
X2329673Y-51522625D01*
X2275695Y-51576697D01*
X2271855Y-51582927D01*
X2271854Y-51582928D01*
X2248249Y-51621223D01*
X2182885Y-51727262D01*
X2127203Y-51895139D01*
X2116500Y-51999600D01*
X2116500Y-55000400D01*
X2127474Y-55106166D01*
X2183450Y-55273946D01*
X2276522Y-55424348D01*
X2401697Y-55549305D01*
X2407927Y-55553145D01*
X2407928Y-55553146D01*
X2545090Y-55637694D01*
X2552262Y-55642115D01*
X2632005Y-55668564D01*
X2713611Y-55695632D01*
X2713613Y-55695632D01*
X2720139Y-55697797D01*
X2726975Y-55698497D01*
X2726978Y-55698498D01*
X2770031Y-55702909D01*
X2824600Y-55708500D01*
X3725400Y-55708500D01*
X3728646Y-55708163D01*
X3728650Y-55708163D01*
X3824308Y-55698238D01*
X3824312Y-55698237D01*
X3831166Y-55697526D01*
X3837702Y-55695345D01*
X3837704Y-55695345D01*
X3969806Y-55651272D01*
X3998946Y-55641550D01*
X4149348Y-55548478D01*
X4274305Y-55423303D01*
X4367115Y-55272738D01*
X4422797Y-55104861D01*
X4433500Y-55000400D01*
X4433500Y-51999600D01*
X4427755Y-51944228D01*
X4423238Y-51900692D01*
X4423237Y-51900688D01*
X4422526Y-51893834D01*
X4366550Y-51726054D01*
X4273478Y-51575652D01*
X4148303Y-51450695D01*
X4142072Y-51446854D01*
X4003968Y-51361725D01*
X4003966Y-51361724D01*
X3997738Y-51357885D01*
X3837254Y-51304655D01*
X3836389Y-51304368D01*
X3836387Y-51304368D01*
X3829861Y-51302203D01*
X3823025Y-51301503D01*
X3823022Y-51301502D01*
X3746657Y-51293678D01*
X3680930Y-51266837D01*
X3640148Y-51208722D01*
X3633500Y-51168334D01*
X3633500Y-48994669D01*
X5267001Y-48994669D01*
X5267371Y-49001490D01*
X5272895Y-49052352D01*
X5276521Y-49067604D01*
X5321676Y-49188054D01*
X5330214Y-49203649D01*
X5406715Y-49305724D01*
X5419276Y-49318285D01*
X5521351Y-49394786D01*
X5536946Y-49403324D01*
X5657394Y-49448478D01*
X5672649Y-49452105D01*
X5723514Y-49457631D01*
X5730328Y-49458000D01*
X6352885Y-49458000D01*
X6368124Y-49453525D01*
X6369329Y-49452135D01*
X6371000Y-49444452D01*
X6371000Y-49439884D01*
X6879000Y-49439884D01*
X6883475Y-49455123D01*
X6884865Y-49456328D01*
X6892548Y-49457999D01*
X7519669Y-49457999D01*
X7526490Y-49457629D01*
X7577352Y-49452105D01*
X7592604Y-49448479D01*
X7713054Y-49403324D01*
X7728649Y-49394786D01*
X7830724Y-49318285D01*
X7843285Y-49305724D01*
X7919786Y-49203649D01*
X7928324Y-49188054D01*
X7973478Y-49067606D01*
X7977105Y-49052351D01*
X7982631Y-49001486D01*
X7983000Y-48994672D01*
X7983000Y-48222115D01*
X7978525Y-48206876D01*
X7977135Y-48205671D01*
X7969452Y-48204000D01*
X6897115Y-48204000D01*
X6881876Y-48208475D01*
X6880671Y-48209865D01*
X6879000Y-48217548D01*
X6879000Y-49439884D01*
X6371000Y-49439884D01*
X6371000Y-48222115D01*
X6366525Y-48206876D01*
X6365135Y-48205671D01*
X6357452Y-48204000D01*
X5285116Y-48204000D01*
X5269877Y-48208475D01*
X5268672Y-48209865D01*
X5267001Y-48217548D01*
X5267001Y-48994669D01*
X3633500Y-48994669D01*
X3633500Y-47677885D01*
X5267000Y-47677885D01*
X5271475Y-47693124D01*
X5272865Y-47694329D01*
X5280548Y-47696000D01*
X6352885Y-47696000D01*
X6368124Y-47691525D01*
X6369329Y-47690135D01*
X6371000Y-47682452D01*
X6371000Y-47677885D01*
X6879000Y-47677885D01*
X6883475Y-47693124D01*
X6884865Y-47694329D01*
X6892548Y-47696000D01*
X7964884Y-47696000D01*
X7980123Y-47691525D01*
X7981328Y-47690135D01*
X7982999Y-47682452D01*
X7982999Y-46905331D01*
X7982629Y-46898510D01*
X7977105Y-46847648D01*
X7973479Y-46832396D01*
X7928324Y-46711946D01*
X7919786Y-46696351D01*
X7843285Y-46594276D01*
X7830724Y-46581715D01*
X7728649Y-46505214D01*
X7713054Y-46496676D01*
X7592606Y-46451522D01*
X7577351Y-46447895D01*
X7526486Y-46442369D01*
X7519672Y-46442000D01*
X6897115Y-46442000D01*
X6881876Y-46446475D01*
X6880671Y-46447865D01*
X6879000Y-46455548D01*
X6879000Y-47677885D01*
X6371000Y-47677885D01*
X6371000Y-46460116D01*
X6366525Y-46444877D01*
X6365135Y-46443672D01*
X6357452Y-46442001D01*
X5730331Y-46442001D01*
X5723510Y-46442371D01*
X5672648Y-46447895D01*
X5657396Y-46451521D01*
X5536946Y-46496676D01*
X5521351Y-46505214D01*
X5419276Y-46581715D01*
X5406715Y-46594276D01*
X5330214Y-46696351D01*
X5321676Y-46711946D01*
X5276522Y-46832394D01*
X5272895Y-46847649D01*
X5267369Y-46898514D01*
X5267000Y-46905328D01*
X5267000Y-47677885D01*
X3633500Y-47677885D01*
X3633500Y-46806037D01*
X3653502Y-46737916D01*
X3707158Y-46691423D01*
X3777432Y-46681319D01*
X3797594Y-46685934D01*
X3814306Y-46691235D01*
X3968227Y-46708500D01*
X4074769Y-46708500D01*
X4077825Y-46708200D01*
X4077832Y-46708200D01*
X4136340Y-46702463D01*
X4221833Y-46694080D01*
X4227734Y-46692298D01*
X4227736Y-46692298D01*
X4304435Y-46669141D01*
X4411169Y-46636916D01*
X4585796Y-46544066D01*
X4705454Y-46446475D01*
X4734287Y-46422960D01*
X4734290Y-46422957D01*
X4739062Y-46419065D01*
X4781023Y-46368343D01*
X4861201Y-46271425D01*
X4861203Y-46271421D01*
X4865130Y-46266675D01*
X4959198Y-46092701D01*
X5017682Y-45903768D01*
X5022492Y-45858000D01*
X5037711Y-45713204D01*
X5037711Y-45713202D01*
X5038355Y-45707075D01*
X5033749Y-45656466D01*
X5047494Y-45586814D01*
X5096715Y-45535649D01*
X5165784Y-45519218D01*
X5232772Y-45542736D01*
X5269749Y-45584536D01*
X5280212Y-45603646D01*
X5356715Y-45705724D01*
X5369276Y-45718285D01*
X5471351Y-45794786D01*
X5486946Y-45803324D01*
X5607394Y-45848478D01*
X5622649Y-45852105D01*
X5673514Y-45857631D01*
X5680328Y-45858000D01*
X6456885Y-45858000D01*
X6472124Y-45853525D01*
X6473329Y-45852135D01*
X6475000Y-45844452D01*
X6475000Y-45839884D01*
X6975000Y-45839884D01*
X6979475Y-45855123D01*
X6980865Y-45856328D01*
X6988548Y-45857999D01*
X7769669Y-45857999D01*
X7776490Y-45857629D01*
X7827352Y-45852105D01*
X7842604Y-45848479D01*
X7963054Y-45803324D01*
X7978649Y-45794786D01*
X8080724Y-45718285D01*
X8093285Y-45705724D01*
X8169786Y-45603649D01*
X8178324Y-45588054D01*
X8223478Y-45467606D01*
X8227105Y-45452351D01*
X8232631Y-45401486D01*
X8233000Y-45394672D01*
X8233000Y-45368115D01*
X8228525Y-45352876D01*
X8227135Y-45351671D01*
X8219452Y-45350000D01*
X6993115Y-45350000D01*
X6977876Y-45354475D01*
X6976671Y-45355865D01*
X6975000Y-45363548D01*
X6975000Y-45839884D01*
X6475000Y-45839884D01*
X6475000Y-45368115D01*
X6470525Y-45352876D01*
X6469135Y-45351671D01*
X6461452Y-45350000D01*
X5235116Y-45350000D01*
X5219877Y-45354475D01*
X5213562Y-45361763D01*
X5185897Y-45412427D01*
X5123584Y-45446452D01*
X5052769Y-45441386D01*
X4995933Y-45398839D01*
X4975928Y-45358905D01*
X4966331Y-45326296D01*
X4966330Y-45326295D01*
X4964590Y-45320381D01*
X4960229Y-45312038D01*
X4896421Y-45189986D01*
X4872960Y-45145110D01*
X4749032Y-44990975D01*
X4597526Y-44863846D01*
X4592128Y-44860879D01*
X4592123Y-44860875D01*
X4429608Y-44771533D01*
X4429609Y-44771533D01*
X4424213Y-44768567D01*
X4418346Y-44766706D01*
X4418344Y-44766705D01*
X4241564Y-44710627D01*
X4241563Y-44710627D01*
X4235694Y-44708765D01*
X4081773Y-44691500D01*
X3975231Y-44691500D01*
X3972175Y-44691800D01*
X3972168Y-44691800D01*
X3913660Y-44697537D01*
X3828167Y-44705920D01*
X3795916Y-44715657D01*
X3724925Y-44716198D01*
X3664908Y-44678271D01*
X3634923Y-44613918D01*
X3633500Y-44595035D01*
X3633500Y-43314595D01*
X3653502Y-43246474D01*
X3670405Y-43225499D01*
X3725501Y-43170404D01*
X3787814Y-43136379D01*
X3814596Y-43133500D01*
X4446233Y-43133500D01*
X4457416Y-43134027D01*
X4464909Y-43135702D01*
X4472835Y-43135453D01*
X4472836Y-43135453D01*
X4532986Y-43133562D01*
X4536945Y-43133500D01*
X4564856Y-43133500D01*
X4568791Y-43133003D01*
X4568856Y-43132995D01*
X4580693Y-43132062D01*
X4612951Y-43131048D01*
X4616970Y-43130922D01*
X4624889Y-43130673D01*
X4644343Y-43125021D01*
X4663700Y-43121013D01*
X4675930Y-43119468D01*
X4675931Y-43119468D01*
X4683797Y-43118474D01*
X4691168Y-43115555D01*
X4691170Y-43115555D01*
X4724912Y-43102196D01*
X4736142Y-43098351D01*
X4770983Y-43088229D01*
X4770984Y-43088229D01*
X4778593Y-43086018D01*
X4785412Y-43081985D01*
X4785417Y-43081983D01*
X4796028Y-43075707D01*
X4813776Y-43067012D01*
X4832617Y-43059552D01*
X4842379Y-43052460D01*
X4868387Y-43033564D01*
X4878307Y-43027048D01*
X4909535Y-43008580D01*
X4909538Y-43008578D01*
X4916362Y-43004542D01*
X4930683Y-42990221D01*
X4945717Y-42977380D01*
X4955694Y-42970131D01*
X4962107Y-42965472D01*
X4990298Y-42931395D01*
X4998288Y-42922616D01*
X5001942Y-42918962D01*
X5064254Y-42884936D01*
X5135069Y-42890001D01*
X5191905Y-42932548D01*
X5215757Y-42998215D01*
X5216500Y-42998134D01*
X5216587Y-42998931D01*
X5223255Y-43060316D01*
X5226029Y-43067715D01*
X5226775Y-43070854D01*
X5226775Y-43129146D01*
X5226029Y-43132285D01*
X5223255Y-43139684D01*
X5216500Y-43201866D01*
X5216500Y-43798134D01*
X5223255Y-43860316D01*
X5226029Y-43867715D01*
X5226775Y-43870854D01*
X5226775Y-43929146D01*
X5226029Y-43932285D01*
X5223255Y-43939684D01*
X5216500Y-44001866D01*
X5216500Y-44598134D01*
X5223255Y-44660316D01*
X5226029Y-44667716D01*
X5227034Y-44671942D01*
X5227034Y-44730239D01*
X5222895Y-44747646D01*
X5217369Y-44798514D01*
X5217000Y-44805328D01*
X5217000Y-44831885D01*
X5221475Y-44847124D01*
X5222865Y-44848329D01*
X5230548Y-44850000D01*
X5251300Y-44850000D01*
X5319421Y-44870002D01*
X5352127Y-44900436D01*
X5356355Y-44906078D01*
X5356358Y-44906081D01*
X5361739Y-44913261D01*
X5368919Y-44918642D01*
X5368922Y-44918645D01*
X5410625Y-44949899D01*
X5478295Y-45000615D01*
X5614684Y-45051745D01*
X5676866Y-45058500D01*
X7773134Y-45058500D01*
X7835316Y-45051745D01*
X7971705Y-45000615D01*
X8039375Y-44949899D01*
X8081078Y-44918645D01*
X8081081Y-44918642D01*
X8088261Y-44913261D01*
X8093642Y-44906081D01*
X8093645Y-44906078D01*
X8097873Y-44900436D01*
X8154731Y-44857921D01*
X8198700Y-44850000D01*
X8214884Y-44850000D01*
X8230123Y-44845525D01*
X8231328Y-44844135D01*
X8232999Y-44836452D01*
X8232999Y-44805331D01*
X8232629Y-44798510D01*
X8227105Y-44747651D01*
X8222965Y-44730236D01*
X8222966Y-44671942D01*
X8223971Y-44667716D01*
X8226745Y-44660316D01*
X8233500Y-44598134D01*
X8233500Y-44259500D01*
X8253502Y-44191379D01*
X8307158Y-44144886D01*
X8359500Y-44133500D01*
X12921233Y-44133500D01*
X12932416Y-44134027D01*
X12939909Y-44135702D01*
X12947835Y-44135453D01*
X12947836Y-44135453D01*
X13007986Y-44133562D01*
X13011945Y-44133500D01*
X13039856Y-44133500D01*
X13043791Y-44133003D01*
X13043856Y-44132995D01*
X13055693Y-44132062D01*
X13087951Y-44131048D01*
X13091970Y-44130922D01*
X13099889Y-44130673D01*
X13119343Y-44125021D01*
X13138700Y-44121013D01*
X13150930Y-44119468D01*
X13150931Y-44119468D01*
X13158797Y-44118474D01*
X13166168Y-44115555D01*
X13166170Y-44115555D01*
X13199912Y-44102196D01*
X13211142Y-44098351D01*
X13245983Y-44088229D01*
X13245984Y-44088229D01*
X13253593Y-44086018D01*
X13260412Y-44081985D01*
X13260417Y-44081983D01*
X13271028Y-44075707D01*
X13288776Y-44067012D01*
X13307617Y-44059552D01*
X13331684Y-44042067D01*
X13343387Y-44033564D01*
X13353307Y-44027048D01*
X13384535Y-44008580D01*
X13384538Y-44008578D01*
X13391362Y-44004542D01*
X13405683Y-43990221D01*
X13420717Y-43977380D01*
X13437107Y-43965472D01*
X13442158Y-43959367D01*
X13442163Y-43959362D01*
X13465299Y-43931396D01*
X13473287Y-43922618D01*
X14257253Y-43138652D01*
X14265539Y-43131112D01*
X14272018Y-43127000D01*
X14282204Y-43116153D01*
X14303532Y-43093441D01*
X14364745Y-43057476D01*
X14435685Y-43060313D01*
X14493829Y-43101054D01*
X14520717Y-43166762D01*
X14519830Y-43199407D01*
X14514901Y-43230524D01*
X14512495Y-43242144D01*
X14508967Y-43255885D01*
X14501500Y-43284970D01*
X14501500Y-43305224D01*
X14499949Y-43324934D01*
X14496780Y-43344943D01*
X14497526Y-43352835D01*
X14500941Y-43388961D01*
X14501500Y-43400819D01*
X14501500Y-44451776D01*
X14481498Y-44519897D01*
X14427842Y-44566390D01*
X14357568Y-44576494D01*
X14311364Y-44560231D01*
X14278601Y-44540855D01*
X14270990Y-44538644D01*
X14270988Y-44538643D01*
X14180743Y-44512425D01*
X14118831Y-44494438D01*
X14112426Y-44493934D01*
X14112421Y-44493933D01*
X14083958Y-44491693D01*
X14083950Y-44491693D01*
X14081502Y-44491500D01*
X13648498Y-44491500D01*
X13646050Y-44491693D01*
X13646042Y-44491693D01*
X13617579Y-44493933D01*
X13617574Y-44493934D01*
X13611169Y-44494438D01*
X13549257Y-44512425D01*
X13459012Y-44538643D01*
X13459010Y-44538644D01*
X13451399Y-44540855D01*
X13308193Y-44625547D01*
X13305511Y-44628229D01*
X13241139Y-44653502D01*
X13171516Y-44639600D01*
X13155688Y-44629428D01*
X13151807Y-44625547D01*
X13008601Y-44540855D01*
X13000990Y-44538644D01*
X13000988Y-44538643D01*
X12910743Y-44512425D01*
X12848831Y-44494438D01*
X12842426Y-44493934D01*
X12842421Y-44493933D01*
X12813958Y-44491693D01*
X12813950Y-44491693D01*
X12811502Y-44491500D01*
X12378498Y-44491500D01*
X12376050Y-44491693D01*
X12376042Y-44491693D01*
X12347579Y-44493933D01*
X12347574Y-44493934D01*
X12341169Y-44494438D01*
X12279257Y-44512425D01*
X12189012Y-44538643D01*
X12189010Y-44538644D01*
X12181399Y-44540855D01*
X12038193Y-44625547D01*
X12035511Y-44628229D01*
X11971139Y-44653502D01*
X11901516Y-44639600D01*
X11885688Y-44629428D01*
X11881807Y-44625547D01*
X11738601Y-44540855D01*
X11730990Y-44538644D01*
X11730988Y-44538643D01*
X11640743Y-44512425D01*
X11578831Y-44494438D01*
X11572426Y-44493934D01*
X11572421Y-44493933D01*
X11543958Y-44491693D01*
X11543950Y-44491693D01*
X11541502Y-44491500D01*
X11108498Y-44491500D01*
X11106050Y-44491693D01*
X11106042Y-44491693D01*
X11077579Y-44493933D01*
X11077574Y-44493934D01*
X11071169Y-44494438D01*
X11009257Y-44512425D01*
X10919012Y-44538643D01*
X10919010Y-44538644D01*
X10911399Y-44540855D01*
X10768193Y-44625547D01*
X10765511Y-44628229D01*
X10701139Y-44653502D01*
X10631516Y-44639600D01*
X10615688Y-44629428D01*
X10611807Y-44625547D01*
X10468601Y-44540855D01*
X10460990Y-44538644D01*
X10460988Y-44538643D01*
X10370743Y-44512425D01*
X10308831Y-44494438D01*
X10302426Y-44493934D01*
X10302421Y-44493933D01*
X10273958Y-44491693D01*
X10273950Y-44491693D01*
X10271502Y-44491500D01*
X9838498Y-44491500D01*
X9836050Y-44491693D01*
X9836042Y-44491693D01*
X9807579Y-44493933D01*
X9807574Y-44493934D01*
X9801169Y-44494438D01*
X9739257Y-44512425D01*
X9649012Y-44538643D01*
X9649010Y-44538644D01*
X9641399Y-44540855D01*
X9634572Y-44544892D01*
X9634573Y-44544892D01*
X9505020Y-44621509D01*
X9505017Y-44621511D01*
X9498193Y-44625547D01*
X9380547Y-44743193D01*
X9376511Y-44750017D01*
X9376509Y-44750020D01*
X9325394Y-44836452D01*
X9295855Y-44886399D01*
X9293644Y-44894010D01*
X9293643Y-44894012D01*
X9290221Y-44905790D01*
X9249438Y-45046169D01*
X9248934Y-45052574D01*
X9248933Y-45052579D01*
X9246693Y-45081042D01*
X9246500Y-45083498D01*
X9246500Y-46916502D01*
X9249438Y-46953831D01*
X9266922Y-47014012D01*
X9289260Y-47090899D01*
X9295855Y-47113601D01*
X9312893Y-47142411D01*
X9376509Y-47249980D01*
X9376511Y-47249983D01*
X9380547Y-47256807D01*
X9498193Y-47374453D01*
X9505017Y-47378489D01*
X9505020Y-47378491D01*
X9602432Y-47436100D01*
X9641399Y-47459145D01*
X9649010Y-47461356D01*
X9649012Y-47461357D01*
X9695181Y-47474770D01*
X9801169Y-47505562D01*
X9807574Y-47506066D01*
X9807579Y-47506067D01*
X9836042Y-47508307D01*
X9836050Y-47508307D01*
X9838498Y-47508500D01*
X10271502Y-47508500D01*
X10273950Y-47508307D01*
X10273958Y-47508307D01*
X10302421Y-47506067D01*
X10302426Y-47506066D01*
X10308831Y-47505562D01*
X10414819Y-47474770D01*
X10460988Y-47461357D01*
X10460990Y-47461356D01*
X10468601Y-47459145D01*
X10611807Y-47374453D01*
X10614489Y-47371771D01*
X10678861Y-47346498D01*
X10748484Y-47360400D01*
X10764312Y-47370572D01*
X10768193Y-47374453D01*
X10911399Y-47459145D01*
X10919010Y-47461356D01*
X10919012Y-47461357D01*
X10965181Y-47474770D01*
X11071169Y-47505562D01*
X11077574Y-47506066D01*
X11077579Y-47506067D01*
X11106042Y-47508307D01*
X11106050Y-47508307D01*
X11108498Y-47508500D01*
X11541502Y-47508500D01*
X11543950Y-47508307D01*
X11543958Y-47508307D01*
X11572421Y-47506067D01*
X11572426Y-47506066D01*
X11578831Y-47505562D01*
X11684819Y-47474770D01*
X11730988Y-47461357D01*
X11730990Y-47461356D01*
X11738601Y-47459145D01*
X11874221Y-47378940D01*
X11943035Y-47361481D01*
X12010367Y-47383998D01*
X12054836Y-47439342D01*
X12062324Y-47509943D01*
X12035411Y-47567748D01*
X12034670Y-47568643D01*
X12026712Y-47577384D01*
X11048611Y-48555484D01*
X10986299Y-48589510D01*
X10972520Y-48591716D01*
X10953368Y-48593703D01*
X10875693Y-48601762D01*
X10875690Y-48601763D01*
X10868834Y-48602474D01*
X10862298Y-48604655D01*
X10862296Y-48604655D01*
X10730194Y-48648728D01*
X10701054Y-48658450D01*
X10550652Y-48751522D01*
X10425695Y-48876697D01*
X10421855Y-48882927D01*
X10421854Y-48882928D01*
X10346709Y-49004836D01*
X10332885Y-49027262D01*
X10277203Y-49195139D01*
X10276503Y-49201975D01*
X10276502Y-49201978D01*
X10272762Y-49238481D01*
X10266500Y-49299600D01*
X10266500Y-50700400D01*
X10266837Y-50703646D01*
X10266837Y-50703650D01*
X10276752Y-50799206D01*
X10277474Y-50806166D01*
X10333450Y-50973946D01*
X10426522Y-51124348D01*
X10551697Y-51249305D01*
X10557927Y-51253145D01*
X10557928Y-51253146D01*
X10695288Y-51337816D01*
X10702262Y-51342115D01*
X10709210Y-51344420D01*
X10709211Y-51344420D01*
X10717670Y-51347226D01*
X10776029Y-51387658D01*
X10803264Y-51453223D01*
X10804000Y-51466818D01*
X10804000Y-52033314D01*
X10783998Y-52101435D01*
X10730342Y-52147928D01*
X10717885Y-52152835D01*
X10701054Y-52158450D01*
X10694830Y-52162301D01*
X10694829Y-52162302D01*
X10619161Y-52209127D01*
X10550652Y-52251522D01*
X10425695Y-52376697D01*
X10421855Y-52382927D01*
X10421854Y-52382928D01*
X10338981Y-52517373D01*
X10332885Y-52527262D01*
X10277203Y-52695139D01*
X10276503Y-52701975D01*
X10276502Y-52701978D01*
X10271239Y-52753344D01*
X10244397Y-52819071D01*
X10186282Y-52859852D01*
X10145895Y-52866500D01*
X9009500Y-52866500D01*
X8941379Y-52846498D01*
X8894886Y-52792842D01*
X8883500Y-52740500D01*
X8883500Y-51999600D01*
X8877755Y-51944228D01*
X8873238Y-51900692D01*
X8873237Y-51900688D01*
X8872526Y-51893834D01*
X8816550Y-51726054D01*
X8723478Y-51575652D01*
X8598303Y-51450695D01*
X8592072Y-51446854D01*
X8453968Y-51361725D01*
X8453966Y-51361724D01*
X8447738Y-51357885D01*
X8287254Y-51304655D01*
X8286389Y-51304368D01*
X8286387Y-51304368D01*
X8279861Y-51302203D01*
X8273025Y-51301503D01*
X8273022Y-51301502D01*
X8229969Y-51297091D01*
X8175400Y-51291500D01*
X7274600Y-51291500D01*
X7271354Y-51291837D01*
X7271350Y-51291837D01*
X7175692Y-51301762D01*
X7175688Y-51301763D01*
X7168834Y-51302474D01*
X7162298Y-51304655D01*
X7162296Y-51304655D01*
X7051709Y-51341550D01*
X7001054Y-51358450D01*
X6850652Y-51451522D01*
X6725695Y-51576697D01*
X6721855Y-51582927D01*
X6721854Y-51582928D01*
X6698249Y-51621223D01*
X6632885Y-51727262D01*
X6577203Y-51895139D01*
X6566500Y-51999600D01*
X6566500Y-55000400D01*
X6577474Y-55106166D01*
X6633450Y-55273946D01*
X6726522Y-55424348D01*
X6851697Y-55549305D01*
X6857927Y-55553145D01*
X6857928Y-55553146D01*
X6995090Y-55637694D01*
X7002262Y-55642115D01*
X7082005Y-55668564D01*
X7163611Y-55695632D01*
X7163613Y-55695632D01*
X7170139Y-55697797D01*
X7176975Y-55698497D01*
X7176978Y-55698498D01*
X7220031Y-55702909D01*
X7274600Y-55708500D01*
X8175400Y-55708500D01*
X8178646Y-55708163D01*
X8178650Y-55708163D01*
X8274308Y-55698238D01*
X8274312Y-55698237D01*
X8281166Y-55697526D01*
X8287702Y-55695345D01*
X8287704Y-55695345D01*
X8419806Y-55651272D01*
X8448946Y-55641550D01*
X8599348Y-55548478D01*
X8724305Y-55423303D01*
X8817115Y-55272738D01*
X8872797Y-55104861D01*
X8883500Y-55000400D01*
X8883500Y-54259500D01*
X8903502Y-54191379D01*
X8957158Y-54144886D01*
X9009500Y-54133500D01*
X10145956Y-54133500D01*
X10214077Y-54153502D01*
X10260570Y-54207158D01*
X10271283Y-54246497D01*
X10276618Y-54297914D01*
X10277474Y-54306166D01*
X10333450Y-54473946D01*
X10426522Y-54624348D01*
X10551697Y-54749305D01*
X10557927Y-54753145D01*
X10557928Y-54753146D01*
X10695288Y-54837816D01*
X10702262Y-54842115D01*
X10782005Y-54868564D01*
X10863611Y-54895632D01*
X10863613Y-54895632D01*
X10870139Y-54897797D01*
X10876975Y-54898497D01*
X10876978Y-54898498D01*
X10920031Y-54902909D01*
X10974600Y-54908500D01*
X11900400Y-54908500D01*
X11903646Y-54908163D01*
X11903650Y-54908163D01*
X11999308Y-54898238D01*
X11999312Y-54898237D01*
X12006166Y-54897526D01*
X12012702Y-54895345D01*
X12012704Y-54895345D01*
X12144806Y-54851272D01*
X12173946Y-54841550D01*
X12324348Y-54748478D01*
X12449305Y-54623303D01*
X12542115Y-54472738D01*
X12597797Y-54304861D01*
X12608500Y-54200400D01*
X12608500Y-54197095D01*
X13392001Y-54197095D01*
X13392338Y-54203614D01*
X13402257Y-54299206D01*
X13405149Y-54312600D01*
X13456588Y-54466784D01*
X13462761Y-54479962D01*
X13548063Y-54617807D01*
X13557099Y-54629208D01*
X13671829Y-54743739D01*
X13683240Y-54752751D01*
X13821243Y-54837816D01*
X13834424Y-54843963D01*
X13988710Y-54895138D01*
X14002086Y-54898005D01*
X14096438Y-54907672D01*
X14102854Y-54908000D01*
X14290385Y-54908000D01*
X14305624Y-54903525D01*
X14306829Y-54902135D01*
X14308500Y-54894452D01*
X14308500Y-54889884D01*
X14816500Y-54889884D01*
X14820975Y-54905123D01*
X14822365Y-54906328D01*
X14830048Y-54907999D01*
X15022095Y-54907999D01*
X15028614Y-54907662D01*
X15124206Y-54897743D01*
X15137600Y-54894851D01*
X15291784Y-54843412D01*
X15304962Y-54837239D01*
X15442807Y-54751937D01*
X15454208Y-54742901D01*
X15568739Y-54628171D01*
X15577751Y-54616760D01*
X15662816Y-54478757D01*
X15668963Y-54465576D01*
X15720138Y-54311290D01*
X15723005Y-54297914D01*
X15732672Y-54203562D01*
X15733000Y-54197146D01*
X15733000Y-53772115D01*
X15728525Y-53756876D01*
X15727135Y-53755671D01*
X15719452Y-53754000D01*
X14834615Y-53754000D01*
X14819376Y-53758475D01*
X14818171Y-53759865D01*
X14816500Y-53767548D01*
X14816500Y-54889884D01*
X14308500Y-54889884D01*
X14308500Y-53772115D01*
X14304025Y-53756876D01*
X14302635Y-53755671D01*
X14294952Y-53754000D01*
X13410116Y-53754000D01*
X13394877Y-53758475D01*
X13393672Y-53759865D01*
X13392001Y-53767548D01*
X13392001Y-54197095D01*
X12608500Y-54197095D01*
X12608500Y-53227885D01*
X13392000Y-53227885D01*
X13396475Y-53243124D01*
X13397865Y-53244329D01*
X13405548Y-53246000D01*
X14290385Y-53246000D01*
X14305624Y-53241525D01*
X14306829Y-53240135D01*
X14308500Y-53232452D01*
X14308500Y-53227885D01*
X14816500Y-53227885D01*
X14820975Y-53243124D01*
X14822365Y-53244329D01*
X14830048Y-53246000D01*
X15714884Y-53246000D01*
X15730123Y-53241525D01*
X15731328Y-53240135D01*
X15732999Y-53232452D01*
X15732999Y-52802905D01*
X15732662Y-52796386D01*
X15722743Y-52700794D01*
X15719851Y-52687400D01*
X15668412Y-52533216D01*
X15662239Y-52520038D01*
X15576937Y-52382193D01*
X15567901Y-52370792D01*
X15453171Y-52256261D01*
X15441760Y-52247249D01*
X15303757Y-52162184D01*
X15290576Y-52156037D01*
X15136290Y-52104862D01*
X15122914Y-52101995D01*
X15028562Y-52092328D01*
X15022145Y-52092000D01*
X14834615Y-52092000D01*
X14819376Y-52096475D01*
X14818171Y-52097865D01*
X14816500Y-52105548D01*
X14816500Y-53227885D01*
X14308500Y-53227885D01*
X14308500Y-52110116D01*
X14304025Y-52094877D01*
X14302635Y-52093672D01*
X14294952Y-52092001D01*
X14102905Y-52092001D01*
X14096386Y-52092338D01*
X14000794Y-52102257D01*
X13987400Y-52105149D01*
X13833216Y-52156588D01*
X13820038Y-52162761D01*
X13682193Y-52248063D01*
X13670792Y-52257099D01*
X13556261Y-52371829D01*
X13547249Y-52383240D01*
X13462184Y-52521243D01*
X13456037Y-52534424D01*
X13404862Y-52688710D01*
X13401995Y-52702086D01*
X13392328Y-52796438D01*
X13392000Y-52802855D01*
X13392000Y-53227885D01*
X12608500Y-53227885D01*
X12608500Y-52799600D01*
X12602368Y-52740500D01*
X12598238Y-52700692D01*
X12598237Y-52700688D01*
X12597526Y-52693834D01*
X12541550Y-52526054D01*
X12448478Y-52375652D01*
X12441868Y-52369053D01*
X12328483Y-52255866D01*
X12323303Y-52250695D01*
X12316394Y-52246436D01*
X12178968Y-52161725D01*
X12178966Y-52161724D01*
X12172738Y-52157885D01*
X12165789Y-52155580D01*
X12157330Y-52152774D01*
X12098971Y-52112342D01*
X12071736Y-52046777D01*
X12071000Y-52033182D01*
X12071000Y-51466686D01*
X12091002Y-51398565D01*
X12144658Y-51352072D01*
X12157115Y-51347165D01*
X12173946Y-51341550D01*
X12180913Y-51337239D01*
X12318120Y-51252332D01*
X12324348Y-51248478D01*
X12449305Y-51123303D01*
X12453338Y-51116760D01*
X12538275Y-50978968D01*
X12538276Y-50978966D01*
X12542115Y-50972738D01*
X12584077Y-50846227D01*
X12595632Y-50811389D01*
X12595632Y-50811387D01*
X12597797Y-50804861D01*
X12608500Y-50700400D01*
X12608500Y-50697095D01*
X13392001Y-50697095D01*
X13392338Y-50703614D01*
X13402257Y-50799206D01*
X13405149Y-50812600D01*
X13456588Y-50966784D01*
X13462761Y-50979962D01*
X13548063Y-51117807D01*
X13557099Y-51129208D01*
X13671829Y-51243739D01*
X13683240Y-51252751D01*
X13821243Y-51337816D01*
X13834424Y-51343963D01*
X13988710Y-51395138D01*
X14002086Y-51398005D01*
X14096438Y-51407672D01*
X14102854Y-51408000D01*
X14290385Y-51408000D01*
X14305624Y-51403525D01*
X14306829Y-51402135D01*
X14308500Y-51394452D01*
X14308500Y-51389884D01*
X14816500Y-51389884D01*
X14820975Y-51405123D01*
X14822365Y-51406328D01*
X14830048Y-51407999D01*
X15022095Y-51407999D01*
X15028614Y-51407662D01*
X15124206Y-51397743D01*
X15137600Y-51394851D01*
X15291784Y-51343412D01*
X15304962Y-51337239D01*
X15442807Y-51251937D01*
X15454208Y-51242901D01*
X15568739Y-51128171D01*
X15577751Y-51116760D01*
X15662816Y-50978757D01*
X15668963Y-50965576D01*
X15720138Y-50811290D01*
X15723005Y-50797914D01*
X15732672Y-50703562D01*
X15733000Y-50697146D01*
X15733000Y-50272115D01*
X15728525Y-50256876D01*
X15727135Y-50255671D01*
X15719452Y-50254000D01*
X14834615Y-50254000D01*
X14819376Y-50258475D01*
X14818171Y-50259865D01*
X14816500Y-50267548D01*
X14816500Y-51389884D01*
X14308500Y-51389884D01*
X14308500Y-50272115D01*
X14304025Y-50256876D01*
X14302635Y-50255671D01*
X14294952Y-50254000D01*
X13410116Y-50254000D01*
X13394877Y-50258475D01*
X13393672Y-50259865D01*
X13392001Y-50267548D01*
X13392001Y-50697095D01*
X12608500Y-50697095D01*
X12608500Y-49299600D01*
X12605981Y-49275319D01*
X12598238Y-49200692D01*
X12598237Y-49200688D01*
X12597526Y-49193834D01*
X12541550Y-49026054D01*
X12528418Y-49004834D01*
X12509581Y-48936384D01*
X12530742Y-48868614D01*
X12546468Y-48849437D01*
X12725500Y-48670405D01*
X12787812Y-48636379D01*
X12814595Y-48633500D01*
X13490359Y-48633500D01*
X13558480Y-48653502D01*
X13604973Y-48707158D01*
X13615077Y-48777432D01*
X13585583Y-48842012D01*
X13579531Y-48848519D01*
X13556261Y-48871829D01*
X13547249Y-48883240D01*
X13462184Y-49021243D01*
X13456037Y-49034424D01*
X13404862Y-49188710D01*
X13401995Y-49202086D01*
X13392328Y-49296438D01*
X13392000Y-49302855D01*
X13392000Y-49727885D01*
X13396475Y-49743124D01*
X13397865Y-49744329D01*
X13405548Y-49746000D01*
X15714884Y-49746000D01*
X15730123Y-49741525D01*
X15731328Y-49740135D01*
X15732999Y-49732452D01*
X15732999Y-49302905D01*
X15732662Y-49296386D01*
X15722743Y-49200794D01*
X15719851Y-49187400D01*
X15668412Y-49033216D01*
X15662239Y-49020038D01*
X15576937Y-48882193D01*
X15567900Y-48870791D01*
X15545743Y-48848672D01*
X15511665Y-48786389D01*
X15516668Y-48715569D01*
X15559166Y-48658697D01*
X15625665Y-48633829D01*
X15634762Y-48633500D01*
X16828342Y-48633500D01*
X16896463Y-48653502D01*
X16942956Y-48707158D01*
X16953060Y-48777432D01*
X16931555Y-48831770D01*
X16905944Y-48868347D01*
X16903621Y-48873329D01*
X16903618Y-48873334D01*
X16881415Y-48920949D01*
X16812880Y-49067924D01*
X16755885Y-49280629D01*
X16736693Y-49500000D01*
X16755885Y-49719371D01*
X16812880Y-49932076D01*
X16835842Y-49981318D01*
X16903618Y-50126666D01*
X16903621Y-50126671D01*
X16905944Y-50131653D01*
X16909100Y-50136160D01*
X16909101Y-50136162D01*
X17024886Y-50301519D01*
X17032251Y-50312038D01*
X17187962Y-50467749D01*
X17368346Y-50594056D01*
X17567924Y-50687120D01*
X17780629Y-50744115D01*
X18000000Y-50763307D01*
X18219371Y-50744115D01*
X18432076Y-50687120D01*
X18631654Y-50594056D01*
X18812038Y-50467749D01*
X18967749Y-50312038D01*
X18975115Y-50301519D01*
X19090899Y-50136162D01*
X19090900Y-50136160D01*
X19094056Y-50131653D01*
X19096379Y-50126671D01*
X19096382Y-50126666D01*
X19164158Y-49981318D01*
X19187120Y-49932076D01*
X19244115Y-49719371D01*
X19263307Y-49500000D01*
X19244115Y-49280629D01*
X19187120Y-49067924D01*
X19118585Y-48920949D01*
X19096382Y-48873334D01*
X19096379Y-48873329D01*
X19094056Y-48868347D01*
X19090900Y-48863840D01*
X19090899Y-48863838D01*
X18970908Y-48692473D01*
X18970906Y-48692470D01*
X18967749Y-48687962D01*
X18812038Y-48532251D01*
X18807530Y-48529094D01*
X18807527Y-48529092D01*
X18754134Y-48491706D01*
X18687228Y-48444858D01*
X18642901Y-48389402D01*
X18633500Y-48341646D01*
X18633500Y-48314595D01*
X18653502Y-48246474D01*
X18670405Y-48225499D01*
X18990222Y-47905683D01*
X19337258Y-47558647D01*
X19345537Y-47551113D01*
X19352018Y-47547000D01*
X19398644Y-47497348D01*
X19401398Y-47494507D01*
X19421135Y-47474770D01*
X19423615Y-47471573D01*
X19431320Y-47462551D01*
X19432441Y-47461357D01*
X19461586Y-47430321D01*
X19465405Y-47423375D01*
X19465407Y-47423372D01*
X19471348Y-47412566D01*
X19482199Y-47396047D01*
X19487322Y-47389442D01*
X19502058Y-47374704D01*
X19501807Y-47374453D01*
X19568521Y-47307739D01*
X19630833Y-47273713D01*
X19701648Y-47278778D01*
X19758484Y-47321325D01*
X19783295Y-47387845D01*
X19783616Y-47396834D01*
X19783616Y-52001499D01*
X19783089Y-52012682D01*
X19781414Y-52020175D01*
X19781663Y-52028101D01*
X19781663Y-52028102D01*
X19783554Y-52088252D01*
X19783616Y-52092211D01*
X19783616Y-52120122D01*
X19784113Y-52124056D01*
X19784113Y-52124057D01*
X19784121Y-52124122D01*
X19785054Y-52135959D01*
X19786443Y-52180155D01*
X19792094Y-52199605D01*
X19796103Y-52218966D01*
X19798642Y-52239063D01*
X19801561Y-52246434D01*
X19801561Y-52246436D01*
X19814920Y-52280178D01*
X19818765Y-52291408D01*
X19831098Y-52333859D01*
X19835131Y-52340678D01*
X19835133Y-52340683D01*
X19841409Y-52351294D01*
X19850104Y-52369042D01*
X19857564Y-52387883D01*
X19862226Y-52394299D01*
X19862226Y-52394300D01*
X19883552Y-52423653D01*
X19890068Y-52433573D01*
X19912574Y-52471628D01*
X19926895Y-52485949D01*
X19939735Y-52500982D01*
X19951644Y-52517373D01*
X19957750Y-52522424D01*
X19985721Y-52545564D01*
X19994500Y-52553554D01*
X20604804Y-53163858D01*
X20612348Y-53172148D01*
X20616461Y-53178629D01*
X20622238Y-53184054D01*
X20666128Y-53225269D01*
X20668970Y-53228024D01*
X20688691Y-53247745D01*
X20691886Y-53250223D01*
X20700908Y-53257929D01*
X20733140Y-53288197D01*
X20740089Y-53292017D01*
X20750893Y-53297957D01*
X20767417Y-53308810D01*
X20783420Y-53321224D01*
X20824004Y-53338787D01*
X20834634Y-53343994D01*
X20873401Y-53365306D01*
X20881078Y-53367277D01*
X20881083Y-53367279D01*
X20893019Y-53370343D01*
X20911727Y-53376748D01*
X20930316Y-53384792D01*
X20938141Y-53386031D01*
X20938143Y-53386032D01*
X20973980Y-53391708D01*
X20985601Y-53394115D01*
X21020750Y-53403139D01*
X21028431Y-53405111D01*
X21048692Y-53405111D01*
X21068401Y-53406662D01*
X21088404Y-53409830D01*
X21096296Y-53409084D01*
X21101523Y-53408590D01*
X21132415Y-53405670D01*
X21144272Y-53405111D01*
X21674431Y-53405111D01*
X21742552Y-53425113D01*
X21781864Y-53465276D01*
X21850144Y-53576699D01*
X21996407Y-53745549D01*
X22168283Y-53888243D01*
X22361157Y-54000949D01*
X22569849Y-54080641D01*
X22574917Y-54081672D01*
X22574920Y-54081673D01*
X22682174Y-54103494D01*
X22788754Y-54125178D01*
X22793929Y-54125368D01*
X22793931Y-54125368D01*
X23006830Y-54133175D01*
X23006834Y-54133175D01*
X23011994Y-54133364D01*
X23017114Y-54132708D01*
X23017116Y-54132708D01*
X23228445Y-54105636D01*
X23228446Y-54105636D01*
X23233573Y-54104979D01*
X23238523Y-54103494D01*
X23442586Y-54042272D01*
X23442591Y-54042270D01*
X23447541Y-54040785D01*
X23648151Y-53942507D01*
X23830017Y-53812784D01*
X23988253Y-53655100D01*
X24118610Y-53473688D01*
X24122768Y-53465276D01*
X24215293Y-53278064D01*
X24215294Y-53278062D01*
X24217587Y-53273422D01*
X24282527Y-53059680D01*
X24311686Y-52838201D01*
X24311768Y-52834851D01*
X24313231Y-52774976D01*
X24313231Y-52774972D01*
X24313313Y-52771611D01*
X24295009Y-52548972D01*
X24240588Y-52332313D01*
X24151511Y-52127451D01*
X24070029Y-52001499D01*
X24032979Y-51944228D01*
X24032977Y-51944225D01*
X24030171Y-51939888D01*
X23879827Y-51774662D01*
X23875776Y-51771463D01*
X23875772Y-51771459D01*
X23708571Y-51639411D01*
X23708567Y-51639409D01*
X23704516Y-51636209D01*
X23663210Y-51613407D01*
X23613241Y-51562975D01*
X23598469Y-51493532D01*
X23623585Y-51427127D01*
X23650937Y-51400520D01*
X23718859Y-51352072D01*
X23830017Y-51272784D01*
X23988253Y-51115100D01*
X24047751Y-51032300D01*
X24115592Y-50937888D01*
X24118610Y-50933688D01*
X24179103Y-50811290D01*
X24215293Y-50738064D01*
X24215294Y-50738062D01*
X24217587Y-50733422D01*
X24282527Y-50519680D01*
X24311686Y-50298201D01*
X24311768Y-50294851D01*
X24313231Y-50234976D01*
X24313231Y-50234972D01*
X24313313Y-50231611D01*
X24295009Y-50008972D01*
X24240588Y-49792313D01*
X24151511Y-49587451D01*
X24094245Y-49498931D01*
X24032979Y-49404228D01*
X24032977Y-49404225D01*
X24030171Y-49399888D01*
X23879827Y-49234662D01*
X23875776Y-49231463D01*
X23875772Y-49231459D01*
X23708571Y-49099411D01*
X23708567Y-49099409D01*
X23704516Y-49096209D01*
X23663210Y-49073407D01*
X23613241Y-49022975D01*
X23598469Y-48953532D01*
X23623585Y-48887127D01*
X23650937Y-48860520D01*
X23694760Y-48829261D01*
X23830017Y-48732784D01*
X23988253Y-48575100D01*
X23991559Y-48570500D01*
X24115592Y-48397888D01*
X24118610Y-48393688D01*
X24209461Y-48209865D01*
X24215293Y-48198064D01*
X24215294Y-48198062D01*
X24217587Y-48193422D01*
X24282527Y-47979680D01*
X24311686Y-47758201D01*
X24312836Y-47711142D01*
X24313231Y-47694976D01*
X24313231Y-47694972D01*
X24313313Y-47691611D01*
X24295009Y-47468972D01*
X24240588Y-47252313D01*
X24151511Y-47047451D01*
X24112063Y-46986473D01*
X24032979Y-46864228D01*
X24032977Y-46864225D01*
X24030171Y-46859888D01*
X23879827Y-46694662D01*
X23875776Y-46691463D01*
X23875772Y-46691459D01*
X23708571Y-46559411D01*
X23708567Y-46559409D01*
X23704516Y-46556209D01*
X23662726Y-46533140D01*
X23612755Y-46482708D01*
X23597983Y-46413265D01*
X23623099Y-46346859D01*
X23650451Y-46320252D01*
X23825485Y-46195403D01*
X23833357Y-46188750D01*
X23984209Y-46038423D01*
X23990887Y-46030576D01*
X24115160Y-45857631D01*
X24120470Y-45848794D01*
X24214827Y-45657878D01*
X24218626Y-45648283D01*
X24280534Y-45444521D01*
X24282712Y-45434448D01*
X24284143Y-45423573D01*
X24281932Y-45409389D01*
X24268774Y-45405611D01*
X21633382Y-45405611D01*
X21619851Y-45409584D01*
X21618414Y-45419577D01*
X21648722Y-45554057D01*
X21651802Y-45563886D01*
X21731927Y-45761214D01*
X21736570Y-45770405D01*
X21847851Y-45951999D01*
X21853934Y-45960310D01*
X21993370Y-46121278D01*
X22000737Y-46128494D01*
X22164591Y-46264527D01*
X22173038Y-46270442D01*
X22242126Y-46310814D01*
X22290850Y-46362453D01*
X22303921Y-46432236D01*
X22277190Y-46498007D01*
X22236741Y-46531363D01*
X22223764Y-46538118D01*
X22219631Y-46541221D01*
X22219628Y-46541223D01*
X22096029Y-46634024D01*
X22045122Y-46672246D01*
X22028754Y-46689374D01*
X21911534Y-46812038D01*
X21890786Y-46833749D01*
X21764900Y-47018291D01*
X21731197Y-47090899D01*
X21673388Y-47215438D01*
X21670845Y-47220916D01*
X21611146Y-47436181D01*
X21587408Y-47658306D01*
X21587705Y-47663459D01*
X21587705Y-47663462D01*
X21598651Y-47853307D01*
X21600267Y-47881326D01*
X21601404Y-47886372D01*
X21601405Y-47886378D01*
X21612838Y-47937107D01*
X21649379Y-48099250D01*
X21733423Y-48306227D01*
X21736122Y-48310631D01*
X21818377Y-48444859D01*
X21850144Y-48496699D01*
X21996407Y-48665549D01*
X22168283Y-48808243D01*
X22208547Y-48831771D01*
X22241602Y-48851087D01*
X22290326Y-48902725D01*
X22303397Y-48972508D01*
X22276666Y-49038280D01*
X22236212Y-49071638D01*
X22223764Y-49078118D01*
X22219631Y-49081221D01*
X22219628Y-49081223D01*
X22056572Y-49203649D01*
X22045122Y-49212246D01*
X21890786Y-49373749D01*
X21887872Y-49378021D01*
X21887871Y-49378022D01*
X21819257Y-49478607D01*
X21764900Y-49558291D01*
X21733925Y-49625022D01*
X21677769Y-49746000D01*
X21670845Y-49760916D01*
X21611146Y-49976181D01*
X21587408Y-50198306D01*
X21587705Y-50203459D01*
X21587705Y-50203462D01*
X21594190Y-50315935D01*
X21600267Y-50421326D01*
X21601404Y-50426372D01*
X21601405Y-50426378D01*
X21610729Y-50467749D01*
X21649379Y-50639250D01*
X21733423Y-50846227D01*
X21736122Y-50850631D01*
X21815376Y-50979962D01*
X21850144Y-51036699D01*
X21996407Y-51205549D01*
X22168283Y-51348243D01*
X22191355Y-51361725D01*
X22241602Y-51391087D01*
X22290326Y-51442725D01*
X22303397Y-51512508D01*
X22276666Y-51578280D01*
X22236212Y-51611638D01*
X22223764Y-51618118D01*
X22219631Y-51621221D01*
X22219628Y-51621223D01*
X22069145Y-51734209D01*
X22045122Y-51752246D01*
X22041550Y-51755984D01*
X21902035Y-51901978D01*
X21890786Y-51913749D01*
X21887872Y-51918021D01*
X21887871Y-51918022D01*
X21775252Y-52083115D01*
X21720341Y-52128118D01*
X21671164Y-52138111D01*
X21423056Y-52138111D01*
X21354935Y-52118109D01*
X21333961Y-52101206D01*
X21087521Y-51854766D01*
X21053495Y-51792454D01*
X21050616Y-51765671D01*
X21050616Y-45189986D01*
X21051143Y-45178803D01*
X21052818Y-45171310D01*
X21050678Y-45103219D01*
X21050616Y-45099262D01*
X21050616Y-45071362D01*
X21050112Y-45067371D01*
X21049179Y-45055529D01*
X21049087Y-45052579D01*
X21047790Y-45011329D01*
X21045578Y-45003715D01*
X21045577Y-45003710D01*
X21042139Y-44991877D01*
X21038128Y-44972513D01*
X21036583Y-44960282D01*
X21035590Y-44952421D01*
X21032673Y-44945054D01*
X21032672Y-44945049D01*
X21019314Y-44911310D01*
X21015470Y-44900083D01*
X21009511Y-44879573D01*
X21003134Y-44857625D01*
X20992823Y-44840190D01*
X20984128Y-44822442D01*
X20976668Y-44803601D01*
X20950680Y-44767831D01*
X20944164Y-44757911D01*
X20925696Y-44726683D01*
X20925694Y-44726680D01*
X20921658Y-44719856D01*
X20907337Y-44705535D01*
X20894496Y-44690501D01*
X20887247Y-44680524D01*
X20882588Y-44674111D01*
X20876483Y-44669060D01*
X20876478Y-44669055D01*
X20848518Y-44645924D01*
X20839740Y-44637937D01*
X20495789Y-44293986D01*
X20461764Y-44231674D01*
X20466828Y-44160859D01*
X20509375Y-44104023D01*
X20531634Y-44090696D01*
X20626667Y-44046382D01*
X20626672Y-44046379D01*
X20631654Y-44044056D01*
X20752609Y-43959362D01*
X20807527Y-43920908D01*
X20807529Y-43920906D01*
X20812038Y-43917749D01*
X20967749Y-43762038D01*
X20977482Y-43748139D01*
X21090899Y-43586162D01*
X21090900Y-43586160D01*
X21094056Y-43581653D01*
X21096379Y-43576671D01*
X21096382Y-43576666D01*
X21149752Y-43462213D01*
X21187120Y-43382076D01*
X21244115Y-43169371D01*
X21263307Y-42950000D01*
X21244115Y-42730629D01*
X21187120Y-42517924D01*
X21135652Y-42407551D01*
X21096382Y-42323334D01*
X21096379Y-42323329D01*
X21094056Y-42318347D01*
X21066513Y-42279011D01*
X20970908Y-42142473D01*
X20970906Y-42142470D01*
X20967749Y-42137962D01*
X20812038Y-41982251D01*
X20803167Y-41976039D01*
X20684349Y-41892842D01*
X20631654Y-41855944D01*
X20432076Y-41762880D01*
X20219371Y-41705885D01*
X20000000Y-41686693D01*
X19994525Y-41687172D01*
X19889981Y-41696318D01*
X19820376Y-41682328D01*
X19769384Y-41632929D01*
X19753000Y-41570797D01*
X19753000Y-41272115D01*
X19748525Y-41256876D01*
X19747135Y-41255671D01*
X19739452Y-41254000D01*
X18817000Y-41254000D01*
X18748879Y-41233998D01*
X18702386Y-41180342D01*
X18691000Y-41128000D01*
X18691000Y-40872000D01*
X18711002Y-40803879D01*
X18764658Y-40757386D01*
X18817000Y-40746000D01*
X19734884Y-40746000D01*
X19750123Y-40741525D01*
X19751328Y-40740135D01*
X19752999Y-40732452D01*
X19752999Y-40086017D01*
X19752805Y-40081080D01*
X19750570Y-40052664D01*
X19748270Y-40040069D01*
X19705893Y-39894210D01*
X19699648Y-39879779D01*
X19666447Y-39823639D01*
X19648988Y-39754823D01*
X19671505Y-39687492D01*
X19726849Y-39643022D01*
X19774901Y-39633500D01*
X20185405Y-39633500D01*
X20253526Y-39653502D01*
X20274501Y-39670405D01*
X20672352Y-40068257D01*
X21067964Y-40463869D01*
X21075498Y-40472148D01*
X21079611Y-40478629D01*
X21096817Y-40494786D01*
X21129262Y-40525254D01*
X21132104Y-40528009D01*
X21151841Y-40547746D01*
X21155038Y-40550226D01*
X21164058Y-40557929D01*
X21196290Y-40588197D01*
X21203236Y-40592016D01*
X21203239Y-40592018D01*
X21214045Y-40597959D01*
X21230564Y-40608810D01*
X21246570Y-40621225D01*
X21253839Y-40624370D01*
X21253843Y-40624373D01*
X21287148Y-40638785D01*
X21297798Y-40644002D01*
X21336551Y-40665306D01*
X21344226Y-40667277D01*
X21344227Y-40667277D01*
X21356173Y-40670344D01*
X21374878Y-40676748D01*
X21393466Y-40684792D01*
X21401289Y-40686031D01*
X21401299Y-40686034D01*
X21437135Y-40691710D01*
X21448755Y-40694116D01*
X21483900Y-40703139D01*
X21491581Y-40705111D01*
X21511835Y-40705111D01*
X21531545Y-40706662D01*
X21551554Y-40709831D01*
X21559446Y-40709085D01*
X21595572Y-40705670D01*
X21607430Y-40705111D01*
X21674431Y-40705111D01*
X21742552Y-40725113D01*
X21781864Y-40765276D01*
X21850144Y-40876699D01*
X21996407Y-41045549D01*
X22168283Y-41188243D01*
X22238752Y-41229422D01*
X22241602Y-41231087D01*
X22290326Y-41282725D01*
X22303397Y-41352508D01*
X22276666Y-41418280D01*
X22236212Y-41451638D01*
X22223764Y-41458118D01*
X22219631Y-41461221D01*
X22219628Y-41461223D01*
X22073689Y-41570797D01*
X22045122Y-41592246D01*
X22006244Y-41632929D01*
X21901004Y-41743057D01*
X21890786Y-41753749D01*
X21887872Y-41758021D01*
X21887871Y-41758022D01*
X21841909Y-41825400D01*
X21764900Y-41938291D01*
X21739072Y-41993933D01*
X21676557Y-42128611D01*
X21670845Y-42140916D01*
X21611146Y-42356181D01*
X21587408Y-42578306D01*
X21587705Y-42583459D01*
X21587705Y-42583462D01*
X21597761Y-42757856D01*
X21600267Y-42801326D01*
X21601404Y-42806372D01*
X21601405Y-42806378D01*
X21620251Y-42890001D01*
X21649379Y-43019250D01*
X21701472Y-43147540D01*
X21731301Y-43221000D01*
X21733423Y-43226227D01*
X21752973Y-43258129D01*
X21842127Y-43403616D01*
X21850144Y-43416699D01*
X21996407Y-43585549D01*
X22168283Y-43728243D01*
X22232785Y-43765935D01*
X22242112Y-43771385D01*
X22290836Y-43823023D01*
X22303907Y-43892806D01*
X22277176Y-43958578D01*
X22236719Y-43991938D01*
X22228614Y-43996157D01*
X22219895Y-44001647D01*
X22049590Y-44129516D01*
X22041883Y-44136359D01*
X21894747Y-44290328D01*
X21888261Y-44298338D01*
X21768255Y-44474260D01*
X21763157Y-44483234D01*
X21673495Y-44676394D01*
X21669932Y-44686081D01*
X21614546Y-44885794D01*
X21616069Y-44894218D01*
X21628449Y-44897611D01*
X24268501Y-44897611D01*
X24282032Y-44893638D01*
X24283337Y-44884558D01*
X24241371Y-44717486D01*
X24238051Y-44707735D01*
X24153129Y-44512425D01*
X24148262Y-44503350D01*
X24032583Y-44324537D01*
X24026293Y-44316368D01*
X23882963Y-44158851D01*
X23875430Y-44151826D01*
X23708296Y-44019833D01*
X23699713Y-44014131D01*
X23662759Y-43993731D01*
X23612788Y-43943298D01*
X23598016Y-43873856D01*
X23623132Y-43807450D01*
X23650484Y-43780843D01*
X23714943Y-43734865D01*
X23830017Y-43652784D01*
X23988253Y-43495100D01*
X24047751Y-43412300D01*
X24115592Y-43317888D01*
X24118610Y-43313688D01*
X24120903Y-43309048D01*
X24122603Y-43306219D01*
X24174831Y-43258129D01*
X24230608Y-43245111D01*
X24809622Y-43245111D01*
X24820805Y-43245638D01*
X24828298Y-43247313D01*
X24836224Y-43247064D01*
X24836225Y-43247064D01*
X24896375Y-43245173D01*
X24900334Y-43245111D01*
X24928245Y-43245111D01*
X24932180Y-43244614D01*
X24932245Y-43244606D01*
X24944082Y-43243673D01*
X24976340Y-43242659D01*
X24980359Y-43242533D01*
X24988278Y-43242284D01*
X25007732Y-43236632D01*
X25027089Y-43232624D01*
X25039319Y-43231079D01*
X25039320Y-43231079D01*
X25047186Y-43230085D01*
X25054557Y-43227166D01*
X25054559Y-43227166D01*
X25088301Y-43213807D01*
X25099531Y-43209962D01*
X25134372Y-43199840D01*
X25134373Y-43199840D01*
X25141982Y-43197629D01*
X25148801Y-43193596D01*
X25148806Y-43193594D01*
X25159417Y-43187318D01*
X25177165Y-43178623D01*
X25196006Y-43171163D01*
X25203285Y-43165875D01*
X25231776Y-43145175D01*
X25241696Y-43138659D01*
X25272924Y-43120191D01*
X25272927Y-43120189D01*
X25279751Y-43116153D01*
X25294075Y-43101829D01*
X25309102Y-43088994D01*
X25325496Y-43077083D01*
X25330811Y-43070659D01*
X25353676Y-43043019D01*
X25361666Y-43034238D01*
X25418525Y-42977380D01*
X25476135Y-42919770D01*
X25476138Y-42919766D01*
X25892258Y-42503647D01*
X25900537Y-42496113D01*
X25907018Y-42492000D01*
X25953644Y-42442348D01*
X25956398Y-42439507D01*
X25976135Y-42419770D01*
X25978615Y-42416573D01*
X25986320Y-42407551D01*
X26011159Y-42381100D01*
X26016586Y-42375321D01*
X26020405Y-42368375D01*
X26020407Y-42368372D01*
X26026348Y-42357566D01*
X26037199Y-42341047D01*
X26044758Y-42331301D01*
X26049614Y-42325041D01*
X26052759Y-42317772D01*
X26052762Y-42317768D01*
X26067174Y-42284463D01*
X26072391Y-42273813D01*
X26093695Y-42235060D01*
X26098733Y-42215437D01*
X26105137Y-42196734D01*
X26110033Y-42185420D01*
X26110033Y-42185419D01*
X26113181Y-42178145D01*
X26114420Y-42170322D01*
X26114423Y-42170312D01*
X26120099Y-42134476D01*
X26122505Y-42122856D01*
X26131528Y-42087711D01*
X26131528Y-42087710D01*
X26133500Y-42080030D01*
X26133500Y-42059776D01*
X26135051Y-42040065D01*
X26136980Y-42027886D01*
X26138220Y-42020057D01*
X26134059Y-41976038D01*
X26133500Y-41964181D01*
X26133500Y-33867582D01*
X27479665Y-33867582D01*
X27509973Y-34002062D01*
X27513053Y-34011891D01*
X27593178Y-34209219D01*
X27597821Y-34218410D01*
X27709102Y-34400004D01*
X27715185Y-34408315D01*
X27854621Y-34569283D01*
X27861988Y-34576499D01*
X28025842Y-34712532D01*
X28034289Y-34718447D01*
X28218164Y-34825895D01*
X28227450Y-34830345D01*
X28426409Y-34906319D01*
X28436307Y-34909195D01*
X28539658Y-34930222D01*
X28553707Y-34929026D01*
X28557408Y-34918681D01*
X28557408Y-33871731D01*
X28552933Y-33856492D01*
X28551543Y-33855287D01*
X28543860Y-33853616D01*
X27494633Y-33853616D01*
X27481102Y-33857589D01*
X27479665Y-33867582D01*
X26133500Y-33867582D01*
X26133500Y-33333799D01*
X27475797Y-33333799D01*
X27477320Y-33342223D01*
X27489700Y-33345616D01*
X28539293Y-33345616D01*
X28554532Y-33341141D01*
X28555737Y-33339751D01*
X28557408Y-33332068D01*
X28557408Y-31331731D01*
X28552933Y-31316492D01*
X28551543Y-31315287D01*
X28543860Y-31313616D01*
X27494633Y-31313616D01*
X27481102Y-31317589D01*
X27479665Y-31327582D01*
X27509973Y-31462062D01*
X27513053Y-31471891D01*
X27593178Y-31669219D01*
X27597821Y-31678410D01*
X27709102Y-31860004D01*
X27715185Y-31868315D01*
X27854621Y-32029283D01*
X27861988Y-32036499D01*
X28025842Y-32172532D01*
X28034289Y-32178447D01*
X28103887Y-32219117D01*
X28152611Y-32270756D01*
X28165682Y-32340539D01*
X28138951Y-32406310D01*
X28098495Y-32439669D01*
X28089870Y-32444158D01*
X28081146Y-32449652D01*
X27910841Y-32577521D01*
X27903134Y-32584364D01*
X27755998Y-32738333D01*
X27749512Y-32746343D01*
X27629506Y-32922265D01*
X27624408Y-32931239D01*
X27534746Y-33124399D01*
X27531183Y-33134086D01*
X27475797Y-33333799D01*
X26133500Y-33333799D01*
X26133500Y-33078768D01*
X26134027Y-33067585D01*
X26135702Y-33060092D01*
X26133562Y-32992001D01*
X26133500Y-32988044D01*
X26133500Y-32960144D01*
X26132996Y-32956153D01*
X26132063Y-32944311D01*
X26131350Y-32921602D01*
X26130674Y-32900111D01*
X26128462Y-32892497D01*
X26128461Y-32892492D01*
X26125023Y-32880659D01*
X26121012Y-32861295D01*
X26119467Y-32849064D01*
X26118474Y-32841203D01*
X26115557Y-32833836D01*
X26115556Y-32833831D01*
X26102198Y-32800092D01*
X26098354Y-32788865D01*
X26093611Y-32772542D01*
X26086018Y-32746407D01*
X26075707Y-32728972D01*
X26067012Y-32711224D01*
X26059552Y-32692383D01*
X26033564Y-32656613D01*
X26027048Y-32646693D01*
X26008580Y-32615465D01*
X26008578Y-32615462D01*
X26004542Y-32608638D01*
X25990221Y-32594317D01*
X25977380Y-32579283D01*
X25970132Y-32569307D01*
X25965472Y-32562893D01*
X25931407Y-32534712D01*
X25922626Y-32526722D01*
X25503647Y-32107742D01*
X25496113Y-32099463D01*
X25492000Y-32092982D01*
X25442348Y-32046356D01*
X25439507Y-32043602D01*
X25419770Y-32023865D01*
X25416573Y-32021385D01*
X25407551Y-32013680D01*
X25394116Y-32001064D01*
X25375321Y-31983414D01*
X25368375Y-31979595D01*
X25368372Y-31979593D01*
X25357566Y-31973652D01*
X25341047Y-31962801D01*
X25340583Y-31962441D01*
X25325041Y-31950386D01*
X25317772Y-31947241D01*
X25317768Y-31947238D01*
X25284463Y-31932826D01*
X25273813Y-31927609D01*
X25235060Y-31906305D01*
X25215437Y-31901267D01*
X25196734Y-31894863D01*
X25185420Y-31889967D01*
X25185419Y-31889967D01*
X25178145Y-31886819D01*
X25170322Y-31885580D01*
X25170312Y-31885577D01*
X25134476Y-31879901D01*
X25122856Y-31877495D01*
X25087711Y-31868472D01*
X25087710Y-31868472D01*
X25080030Y-31866500D01*
X25059776Y-31866500D01*
X25040065Y-31864949D01*
X25037534Y-31864548D01*
X25020057Y-31861780D01*
X25012165Y-31862526D01*
X24976039Y-31865941D01*
X24964181Y-31866500D01*
X19578763Y-31866500D01*
X19567579Y-31865973D01*
X19560091Y-31864299D01*
X19552168Y-31864548D01*
X19492033Y-31866438D01*
X19488075Y-31866500D01*
X19460144Y-31866500D01*
X19456229Y-31866995D01*
X19456225Y-31866995D01*
X19456167Y-31867003D01*
X19456138Y-31867006D01*
X19444296Y-31867939D01*
X19400110Y-31869327D01*
X19382744Y-31874372D01*
X19380658Y-31874978D01*
X19361306Y-31878986D01*
X19354235Y-31879880D01*
X19341203Y-31881526D01*
X19333834Y-31884443D01*
X19333832Y-31884444D01*
X19300097Y-31897800D01*
X19288869Y-31901645D01*
X19246407Y-31913982D01*
X19239585Y-31918016D01*
X19239579Y-31918019D01*
X19228968Y-31924294D01*
X19211218Y-31932990D01*
X19199756Y-31937528D01*
X19199751Y-31937531D01*
X19192383Y-31940448D01*
X19174970Y-31953099D01*
X19156625Y-31966427D01*
X19146707Y-31972943D01*
X19135463Y-31979593D01*
X19108637Y-31995458D01*
X19094313Y-32009782D01*
X19079281Y-32022621D01*
X19062893Y-32034528D01*
X19034712Y-32068593D01*
X19026722Y-32077373D01*
X17607747Y-33496348D01*
X17599461Y-33503888D01*
X17592982Y-33508000D01*
X17587557Y-33513777D01*
X17546357Y-33557651D01*
X17543602Y-33560493D01*
X17523865Y-33580230D01*
X17521385Y-33583427D01*
X17513682Y-33592447D01*
X17483414Y-33624679D01*
X17479595Y-33631625D01*
X17479593Y-33631628D01*
X17473652Y-33642434D01*
X17462801Y-33658953D01*
X17450386Y-33674959D01*
X17447241Y-33682228D01*
X17447238Y-33682232D01*
X17432826Y-33715537D01*
X17427609Y-33726187D01*
X17406305Y-33764940D01*
X17404334Y-33772615D01*
X17404334Y-33772616D01*
X17401267Y-33784562D01*
X17394863Y-33803266D01*
X17391319Y-33811457D01*
X17386819Y-33821855D01*
X17385579Y-33829682D01*
X17385579Y-33829683D01*
X17382510Y-33849060D01*
X17352098Y-33913213D01*
X17330331Y-33932563D01*
X17192478Y-34029088D01*
X17192472Y-34029093D01*
X17187962Y-34032251D01*
X17032251Y-34187962D01*
X17029094Y-34192470D01*
X17029092Y-34192473D01*
X16927117Y-34338109D01*
X16905944Y-34368347D01*
X16903621Y-34373329D01*
X16903618Y-34373334D01*
X16887171Y-34408606D01*
X16812880Y-34567924D01*
X16755885Y-34780629D01*
X16736693Y-35000000D01*
X16755885Y-35219371D01*
X16812880Y-35432076D01*
X16840495Y-35491297D01*
X16903618Y-35626666D01*
X16903621Y-35626671D01*
X16905944Y-35631653D01*
X16909100Y-35636160D01*
X16909101Y-35636162D01*
X16938985Y-35678840D01*
X17032251Y-35812038D01*
X17187962Y-35967749D01*
X17368346Y-36094056D01*
X17567924Y-36187120D01*
X17780629Y-36244115D01*
X18000000Y-36263307D01*
X18219371Y-36244115D01*
X18432076Y-36187120D01*
X18631654Y-36094056D01*
X18812038Y-35967749D01*
X18910905Y-35868882D01*
X18973217Y-35834856D01*
X19044032Y-35839921D01*
X19089095Y-35868882D01*
X19187962Y-35967749D01*
X19368346Y-36094056D01*
X19567924Y-36187120D01*
X19780629Y-36244115D01*
X20000000Y-36263307D01*
X20219371Y-36244115D01*
X20432076Y-36187120D01*
X20631654Y-36094056D01*
X20812038Y-35967749D01*
X20967749Y-35812038D01*
X21061016Y-35678839D01*
X21116472Y-35634512D01*
X21164228Y-35625111D01*
X21465657Y-35625111D01*
X21533778Y-35645113D01*
X21580271Y-35698769D01*
X21591657Y-35751111D01*
X21591657Y-35889745D01*
X21598412Y-35951927D01*
X21649542Y-36088316D01*
X21736896Y-36204872D01*
X21853452Y-36292226D01*
X21861861Y-36295378D01*
X21861862Y-36295379D01*
X21970608Y-36336146D01*
X22027373Y-36378787D01*
X22052073Y-36445349D01*
X22036866Y-36514698D01*
X22017473Y-36541179D01*
X21919457Y-36643747D01*
X21890786Y-36673749D01*
X21887872Y-36678021D01*
X21887871Y-36678022D01*
X21775252Y-36843115D01*
X21720341Y-36888118D01*
X21671164Y-36898111D01*
X21047156Y-36898111D01*
X21035973Y-36897584D01*
X21028480Y-36895909D01*
X21020554Y-36896158D01*
X21020553Y-36896158D01*
X20960403Y-36898049D01*
X20956444Y-36898111D01*
X20928533Y-36898111D01*
X20924599Y-36898608D01*
X20924598Y-36898608D01*
X20924533Y-36898616D01*
X20912696Y-36899549D01*
X20880438Y-36900563D01*
X20876419Y-36900689D01*
X20868500Y-36900938D01*
X20849046Y-36906590D01*
X20829689Y-36910598D01*
X20817459Y-36912143D01*
X20817458Y-36912143D01*
X20809592Y-36913137D01*
X20802221Y-36916056D01*
X20802219Y-36916056D01*
X20768477Y-36929415D01*
X20757247Y-36933260D01*
X20722406Y-36943382D01*
X20722405Y-36943382D01*
X20714796Y-36945593D01*
X20707977Y-36949626D01*
X20707972Y-36949628D01*
X20697361Y-36955904D01*
X20679613Y-36964599D01*
X20660772Y-36972059D01*
X20654356Y-36976721D01*
X20654355Y-36976721D01*
X20625002Y-36998047D01*
X20615082Y-37004563D01*
X20583854Y-37023031D01*
X20583851Y-37023033D01*
X20577027Y-37027069D01*
X20562706Y-37041390D01*
X20547673Y-37054230D01*
X20531282Y-37066139D01*
X20513557Y-37087565D01*
X20503101Y-37100204D01*
X20495111Y-37108985D01*
X20274499Y-37329596D01*
X20212187Y-37363621D01*
X20185404Y-37366500D01*
X18078768Y-37366500D01*
X18067585Y-37365973D01*
X18060092Y-37364298D01*
X18052166Y-37364547D01*
X18052165Y-37364547D01*
X17992002Y-37366438D01*
X17988044Y-37366500D01*
X17960144Y-37366500D01*
X17956154Y-37367004D01*
X17944320Y-37367936D01*
X17900111Y-37369326D01*
X17892495Y-37371539D01*
X17892493Y-37371539D01*
X17880652Y-37374979D01*
X17861293Y-37378988D01*
X17859983Y-37379154D01*
X17841203Y-37381526D01*
X17833837Y-37384442D01*
X17833831Y-37384444D01*
X17800098Y-37397800D01*
X17788868Y-37401645D01*
X17754017Y-37411770D01*
X17746407Y-37413981D01*
X17739584Y-37418016D01*
X17728966Y-37424295D01*
X17711213Y-37432992D01*
X17703568Y-37436019D01*
X17692383Y-37440448D01*
X17685968Y-37445109D01*
X17656612Y-37466437D01*
X17646695Y-37472951D01*
X17608638Y-37495458D01*
X17594317Y-37509779D01*
X17579284Y-37522619D01*
X17562893Y-37534528D01*
X17545504Y-37555548D01*
X17534702Y-37568605D01*
X17526712Y-37577384D01*
X16012747Y-39091348D01*
X16004461Y-39098888D01*
X15997982Y-39103000D01*
X15992557Y-39108777D01*
X15986351Y-39115386D01*
X15925138Y-39151352D01*
X15854198Y-39148515D01*
X15796054Y-39107775D01*
X15769165Y-39042067D01*
X15768500Y-39029134D01*
X15768500Y-38825883D01*
X15788502Y-38757762D01*
X15842158Y-38711269D01*
X15854624Y-38706359D01*
X15867684Y-38702002D01*
X15973946Y-38666550D01*
X16124348Y-38573478D01*
X16249305Y-38448303D01*
X16261253Y-38428920D01*
X16338275Y-38303968D01*
X16338276Y-38303966D01*
X16342115Y-38297738D01*
X16373865Y-38202015D01*
X16395632Y-38136389D01*
X16395632Y-38136387D01*
X16397797Y-38129861D01*
X16408500Y-38025400D01*
X16408500Y-37099600D01*
X16408092Y-37095668D01*
X16398238Y-37000692D01*
X16398237Y-37000688D01*
X16397526Y-36993834D01*
X16395019Y-36986318D01*
X16347242Y-36843115D01*
X16341550Y-36826054D01*
X16248478Y-36675652D01*
X16123303Y-36550695D01*
X16076800Y-36522030D01*
X15978968Y-36461725D01*
X15978966Y-36461724D01*
X15972738Y-36457885D01*
X15812254Y-36404655D01*
X15811389Y-36404368D01*
X15811387Y-36404368D01*
X15804861Y-36402203D01*
X15798025Y-36401503D01*
X15798022Y-36401502D01*
X15754969Y-36397091D01*
X15700400Y-36391500D01*
X14299600Y-36391500D01*
X14296354Y-36391837D01*
X14296350Y-36391837D01*
X14200692Y-36401762D01*
X14200688Y-36401763D01*
X14193834Y-36402474D01*
X14187298Y-36404655D01*
X14187296Y-36404655D01*
X14098575Y-36434255D01*
X14026054Y-36458450D01*
X13875652Y-36551522D01*
X13750695Y-36676697D01*
X13746855Y-36682927D01*
X13746854Y-36682928D01*
X13692873Y-36770502D01*
X13657885Y-36827262D01*
X13633448Y-36900938D01*
X13608507Y-36976134D01*
X13602203Y-36995139D01*
X13601503Y-37001975D01*
X13601502Y-37001978D01*
X13597894Y-37037199D01*
X13591500Y-37099600D01*
X13591500Y-38025400D01*
X13591837Y-38028646D01*
X13591837Y-38028650D01*
X13594229Y-38051697D01*
X13602474Y-38131166D01*
X13604655Y-38137702D01*
X13604655Y-38137704D01*
X13628106Y-38207994D01*
X13658450Y-38298946D01*
X13751522Y-38449348D01*
X13876697Y-38574305D01*
X13882927Y-38578145D01*
X13882928Y-38578146D01*
X14020090Y-38662694D01*
X14027262Y-38667115D01*
X14099536Y-38691087D01*
X14188611Y-38720632D01*
X14188613Y-38720632D01*
X14195139Y-38722797D01*
X14201975Y-38723497D01*
X14201978Y-38723498D01*
X14245031Y-38727909D01*
X14299600Y-38733500D01*
X14375500Y-38733500D01*
X14443621Y-38753502D01*
X14490114Y-38807158D01*
X14501500Y-38859500D01*
X14501500Y-39451776D01*
X14481498Y-39519897D01*
X14427842Y-39566390D01*
X14357568Y-39576494D01*
X14311364Y-39560231D01*
X14278601Y-39540855D01*
X14270990Y-39538644D01*
X14270988Y-39538643D01*
X14189503Y-39514970D01*
X14118831Y-39494438D01*
X14112426Y-39493934D01*
X14112421Y-39493933D01*
X14083958Y-39491693D01*
X14083950Y-39491693D01*
X14081502Y-39491500D01*
X13648498Y-39491500D01*
X13646050Y-39491693D01*
X13646042Y-39491693D01*
X13617579Y-39493933D01*
X13617574Y-39493934D01*
X13611169Y-39494438D01*
X13540497Y-39514970D01*
X13459012Y-39538643D01*
X13459010Y-39538644D01*
X13451399Y-39540855D01*
X13308193Y-39625547D01*
X13305511Y-39628229D01*
X13241139Y-39653502D01*
X13171516Y-39639600D01*
X13155688Y-39629428D01*
X13151807Y-39625547D01*
X13008601Y-39540855D01*
X13000990Y-39538644D01*
X13000988Y-39538643D01*
X12919503Y-39514970D01*
X12848831Y-39494438D01*
X12842426Y-39493934D01*
X12842421Y-39493933D01*
X12813958Y-39491693D01*
X12813950Y-39491693D01*
X12811502Y-39491500D01*
X12629610Y-39491500D01*
X12561489Y-39471498D01*
X12514996Y-39417842D01*
X12504892Y-39347568D01*
X12512384Y-39319394D01*
X12516075Y-39312680D01*
X12521113Y-39293057D01*
X12527517Y-39274354D01*
X12532413Y-39263040D01*
X12532413Y-39263039D01*
X12535561Y-39255765D01*
X12536800Y-39247942D01*
X12536803Y-39247932D01*
X12542479Y-39212096D01*
X12544885Y-39200476D01*
X12553908Y-39165331D01*
X12553908Y-39165330D01*
X12555880Y-39157650D01*
X12555880Y-39137396D01*
X12557431Y-39117685D01*
X12559360Y-39105506D01*
X12560600Y-39097677D01*
X12556439Y-39053658D01*
X12555880Y-39041801D01*
X12555880Y-38964835D01*
X12570644Y-38907127D01*
X12572995Y-38903990D01*
X12624125Y-38767601D01*
X12630195Y-38711725D01*
X12630511Y-38708816D01*
X12630880Y-38705419D01*
X12630880Y-35409151D01*
X12624125Y-35346969D01*
X12572995Y-35210580D01*
X12485641Y-35094024D01*
X12369085Y-35006670D01*
X12232696Y-34955540D01*
X12170514Y-34948785D01*
X11674246Y-34948785D01*
X11612064Y-34955540D01*
X11475675Y-35006670D01*
X11467763Y-35012600D01*
X11397528Y-35065238D01*
X11331022Y-35090086D01*
X11261639Y-35075033D01*
X11246398Y-35065238D01*
X11176028Y-35012499D01*
X11160434Y-35003961D01*
X11039986Y-34958807D01*
X11024731Y-34955180D01*
X10973866Y-34949654D01*
X10967052Y-34949285D01*
X10940495Y-34949285D01*
X10925256Y-34953760D01*
X10924051Y-34955150D01*
X10922380Y-34962833D01*
X10922380Y-37131285D01*
X10902378Y-37199406D01*
X10848722Y-37245899D01*
X10796380Y-37257285D01*
X10648380Y-37257285D01*
X10580259Y-37237283D01*
X10533766Y-37183627D01*
X10522380Y-37131285D01*
X10522380Y-34967401D01*
X10517905Y-34952162D01*
X10516515Y-34950957D01*
X10508832Y-34949286D01*
X10477711Y-34949286D01*
X10470890Y-34949656D01*
X10420028Y-34955180D01*
X10404776Y-34958806D01*
X10284326Y-35003961D01*
X10268732Y-35012499D01*
X10198362Y-35065238D01*
X10131856Y-35090086D01*
X10062473Y-35075033D01*
X10047232Y-35065238D01*
X9976997Y-35012600D01*
X9969085Y-35006670D01*
X9832696Y-34955540D01*
X9770514Y-34948785D01*
X9274246Y-34948785D01*
X9212064Y-34955540D01*
X9075675Y-35006670D01*
X8959119Y-35094024D01*
X8871765Y-35210580D01*
X8820635Y-35346969D01*
X8813880Y-35409151D01*
X8813880Y-38705419D01*
X8814249Y-38708816D01*
X8814565Y-38711725D01*
X8820635Y-38767601D01*
X8871765Y-38903990D01*
X8872453Y-38904908D01*
X8884300Y-38962364D01*
X8886678Y-38962289D01*
X8888818Y-39030366D01*
X8888880Y-39034325D01*
X8888880Y-39062236D01*
X8889377Y-39066170D01*
X8889377Y-39066171D01*
X8889385Y-39066236D01*
X8890318Y-39078073D01*
X8891707Y-39122269D01*
X8896102Y-39137396D01*
X8897358Y-39141719D01*
X8901367Y-39161080D01*
X8902330Y-39168699D01*
X8903906Y-39181177D01*
X8906825Y-39188548D01*
X8906825Y-39188550D01*
X8920184Y-39222292D01*
X8924029Y-39233522D01*
X8930336Y-39255230D01*
X8936362Y-39275973D01*
X8940395Y-39282792D01*
X8940397Y-39282797D01*
X8946673Y-39293408D01*
X8955368Y-39311156D01*
X8962828Y-39329997D01*
X8967490Y-39336413D01*
X8967490Y-39336414D01*
X8988816Y-39365767D01*
X8995332Y-39375687D01*
X9011285Y-39402661D01*
X9017838Y-39413742D01*
X9032159Y-39428063D01*
X9044999Y-39443096D01*
X9056908Y-39459487D01*
X9081635Y-39479943D01*
X9090985Y-39487678D01*
X9099764Y-39495668D01*
X9299078Y-39694982D01*
X9333104Y-39757294D01*
X9328039Y-39828109D01*
X9318437Y-39848215D01*
X9295855Y-39886399D01*
X9293644Y-39894010D01*
X9293643Y-39894012D01*
X9290493Y-39904856D01*
X9249438Y-40046169D01*
X9248934Y-40052574D01*
X9248933Y-40052579D01*
X9247079Y-40076142D01*
X9246500Y-40083498D01*
X9246500Y-41916502D01*
X9246693Y-41918958D01*
X9246694Y-41918976D01*
X9247610Y-41930611D01*
X9233016Y-42000091D01*
X9183175Y-42050652D01*
X9121999Y-42066500D01*
X8359500Y-42066500D01*
X8291379Y-42046498D01*
X8244886Y-41992842D01*
X8233500Y-41940500D01*
X8233500Y-41601866D01*
X8226745Y-41539684D01*
X8175615Y-41403295D01*
X8088261Y-41286739D01*
X7971705Y-41199385D01*
X7835316Y-41148255D01*
X7773134Y-41141500D01*
X5676866Y-41141500D01*
X5614684Y-41148255D01*
X5478295Y-41199385D01*
X5471110Y-41204770D01*
X5471108Y-41204771D01*
X5422333Y-41241326D01*
X5355826Y-41266174D01*
X5346768Y-41266500D01*
X5203767Y-41266500D01*
X5192584Y-41265973D01*
X5185091Y-41264298D01*
X5177166Y-41264547D01*
X5177165Y-41264547D01*
X5164470Y-41264946D01*
X5153570Y-41265289D01*
X5084855Y-41247437D01*
X5036699Y-41195269D01*
X5024131Y-41150776D01*
X5020430Y-41110112D01*
X5001429Y-41045549D01*
X4970749Y-40941307D01*
X4964590Y-40920381D01*
X4959686Y-40910999D01*
X4907995Y-40812125D01*
X4872960Y-40745110D01*
X4749032Y-40590975D01*
X4742727Y-40585684D01*
X4700461Y-40550219D01*
X4597526Y-40463846D01*
X4592128Y-40460879D01*
X4592123Y-40460875D01*
X4429608Y-40371533D01*
X4429609Y-40371533D01*
X4424213Y-40368567D01*
X4418346Y-40366706D01*
X4418344Y-40366705D01*
X4241564Y-40310627D01*
X4241563Y-40310627D01*
X4235694Y-40308765D01*
X4081773Y-40291500D01*
X3975231Y-40291500D01*
X3972175Y-40291800D01*
X3972168Y-40291800D01*
X3913660Y-40297537D01*
X3828167Y-40305920D01*
X3822266Y-40307702D01*
X3822264Y-40307702D01*
X3748947Y-40329838D01*
X3638831Y-40363084D01*
X3464204Y-40455934D01*
X3377938Y-40526291D01*
X3315713Y-40577040D01*
X3315710Y-40577043D01*
X3310938Y-40580935D01*
X3307011Y-40585682D01*
X3307009Y-40585684D01*
X3188799Y-40728575D01*
X3188797Y-40728579D01*
X3184870Y-40733325D01*
X3090802Y-40907299D01*
X3032318Y-41096232D01*
X3031674Y-41102357D01*
X3031674Y-41102358D01*
X3014457Y-41266174D01*
X3011645Y-41292925D01*
X3017226Y-41354246D01*
X3028617Y-41479411D01*
X3029570Y-41489888D01*
X3031308Y-41495794D01*
X3031309Y-41495798D01*
X3058781Y-41589141D01*
X3085410Y-41679619D01*
X3088265Y-41685080D01*
X3088267Y-41685085D01*
X3161622Y-41825400D01*
X3175456Y-41895035D01*
X3149446Y-41961096D01*
X3121241Y-41985937D01*
X3121727Y-41986563D01*
X3115466Y-41991420D01*
X3108638Y-41995458D01*
X3094317Y-42009779D01*
X3079284Y-42022619D01*
X3062893Y-42034528D01*
X3042649Y-42058999D01*
X3034712Y-42068593D01*
X3026722Y-42077374D01*
X2607742Y-42496353D01*
X2599463Y-42503887D01*
X2592982Y-42508000D01*
X2551120Y-42552579D01*
X2546357Y-42557651D01*
X2543602Y-42560493D01*
X2523865Y-42580230D01*
X2521385Y-42583427D01*
X2513682Y-42592447D01*
X2483414Y-42624679D01*
X2479595Y-42631625D01*
X2479593Y-42631628D01*
X2473652Y-42642434D01*
X2462801Y-42658953D01*
X2450386Y-42674959D01*
X2447241Y-42682228D01*
X2447238Y-42682232D01*
X2432826Y-42715537D01*
X2427609Y-42726187D01*
X2406305Y-42764940D01*
X2404334Y-42772615D01*
X2404334Y-42772616D01*
X2401267Y-42784562D01*
X2394863Y-42803266D01*
X2386819Y-42821855D01*
X2385580Y-42829678D01*
X2385577Y-42829688D01*
X2379901Y-42865524D01*
X2377495Y-42877144D01*
X2366500Y-42919970D01*
X2366500Y-42940224D01*
X2364949Y-42959934D01*
X2361780Y-42979943D01*
X2365200Y-43016117D01*
X2365941Y-43023961D01*
X2366500Y-43035819D01*
X2366500Y-46353658D01*
X2346498Y-46421779D01*
X2292842Y-46468272D01*
X2222568Y-46478376D01*
X2196270Y-46471640D01*
X2142605Y-46451522D01*
X2127351Y-46447895D01*
X2076486Y-46442369D01*
X2069672Y-46442000D01*
X1447115Y-46442000D01*
X1431876Y-46446475D01*
X1430671Y-46447865D01*
X1429000Y-46455548D01*
X1429000Y-49439884D01*
X921000Y-49439884D01*
X921000Y-46460116D01*
X916525Y-46444877D01*
X915135Y-46443672D01*
X907452Y-46442001D01*
X634500Y-46442001D01*
X566379Y-46421999D01*
X519886Y-46368343D01*
X508500Y-46316001D01*
X508500Y-40684000D01*
X528502Y-40615879D01*
X582158Y-40569386D01*
X634500Y-40558000D01*
X902885Y-40558000D01*
X918124Y-40553525D01*
X919329Y-40552135D01*
X921000Y-40544452D01*
X921000Y-40539884D01*
X1429000Y-40539884D01*
X1433475Y-40555123D01*
X1434865Y-40556328D01*
X1442548Y-40557999D01*
X2069669Y-40557999D01*
X2076490Y-40557629D01*
X2127352Y-40552105D01*
X2142604Y-40548479D01*
X2263054Y-40503324D01*
X2278649Y-40494786D01*
X2380724Y-40418285D01*
X2393285Y-40405724D01*
X2469786Y-40303649D01*
X2478324Y-40288054D01*
X2523478Y-40167606D01*
X2527105Y-40152351D01*
X2532631Y-40101486D01*
X2533000Y-40094672D01*
X2533000Y-40094669D01*
X5267001Y-40094669D01*
X5267371Y-40101490D01*
X5272895Y-40152352D01*
X5276521Y-40167604D01*
X5321676Y-40288054D01*
X5330214Y-40303649D01*
X5406715Y-40405724D01*
X5419276Y-40418285D01*
X5521351Y-40494786D01*
X5536946Y-40503324D01*
X5657394Y-40548478D01*
X5672649Y-40552105D01*
X5723514Y-40557631D01*
X5730328Y-40558000D01*
X6352885Y-40558000D01*
X6368124Y-40553525D01*
X6369329Y-40552135D01*
X6371000Y-40544452D01*
X6371000Y-40539884D01*
X6879000Y-40539884D01*
X6883475Y-40555123D01*
X6884865Y-40556328D01*
X6892548Y-40557999D01*
X7519669Y-40557999D01*
X7526490Y-40557629D01*
X7577352Y-40552105D01*
X7592604Y-40548479D01*
X7713054Y-40503324D01*
X7728649Y-40494786D01*
X7830724Y-40418285D01*
X7843285Y-40405724D01*
X7919786Y-40303649D01*
X7928324Y-40288054D01*
X7973478Y-40167606D01*
X7977105Y-40152351D01*
X7982631Y-40101486D01*
X7983000Y-40094672D01*
X7983000Y-39322115D01*
X7978525Y-39306876D01*
X7977135Y-39305671D01*
X7969452Y-39304000D01*
X6897115Y-39304000D01*
X6881876Y-39308475D01*
X6880671Y-39309865D01*
X6879000Y-39317548D01*
X6879000Y-40539884D01*
X6371000Y-40539884D01*
X6371000Y-39322115D01*
X6366525Y-39306876D01*
X6365135Y-39305671D01*
X6357452Y-39304000D01*
X5285116Y-39304000D01*
X5269877Y-39308475D01*
X5268672Y-39309865D01*
X5267001Y-39317548D01*
X5267001Y-40094669D01*
X2533000Y-40094669D01*
X2533000Y-39322115D01*
X2528525Y-39306876D01*
X2527135Y-39305671D01*
X2519452Y-39304000D01*
X1447115Y-39304000D01*
X1431876Y-39308475D01*
X1430671Y-39309865D01*
X1429000Y-39317548D01*
X1429000Y-40539884D01*
X921000Y-40539884D01*
X921000Y-38777885D01*
X1429000Y-38777885D01*
X1433475Y-38793124D01*
X1434865Y-38794329D01*
X1442548Y-38796000D01*
X2514884Y-38796000D01*
X2530123Y-38791525D01*
X2531328Y-38790135D01*
X2532999Y-38782452D01*
X2532999Y-38777885D01*
X5267000Y-38777885D01*
X5271475Y-38793124D01*
X5272865Y-38794329D01*
X5280548Y-38796000D01*
X6352885Y-38796000D01*
X6368124Y-38791525D01*
X6369329Y-38790135D01*
X6371000Y-38782452D01*
X6371000Y-38777885D01*
X6879000Y-38777885D01*
X6883475Y-38793124D01*
X6884865Y-38794329D01*
X6892548Y-38796000D01*
X7964884Y-38796000D01*
X7980123Y-38791525D01*
X7981328Y-38790135D01*
X7982999Y-38782452D01*
X7982999Y-38005331D01*
X7982629Y-37998510D01*
X7977105Y-37947648D01*
X7973479Y-37932396D01*
X7928324Y-37811946D01*
X7919786Y-37796351D01*
X7843285Y-37694276D01*
X7830724Y-37681715D01*
X7728649Y-37605214D01*
X7713054Y-37596676D01*
X7592606Y-37551522D01*
X7577351Y-37547895D01*
X7526486Y-37542369D01*
X7519672Y-37542000D01*
X6897115Y-37542000D01*
X6881876Y-37546475D01*
X6880671Y-37547865D01*
X6879000Y-37555548D01*
X6879000Y-38777885D01*
X6371000Y-38777885D01*
X6371000Y-37560116D01*
X6366525Y-37544877D01*
X6365135Y-37543672D01*
X6357452Y-37542001D01*
X5730331Y-37542001D01*
X5723510Y-37542371D01*
X5672648Y-37547895D01*
X5657396Y-37551521D01*
X5536946Y-37596676D01*
X5521351Y-37605214D01*
X5419276Y-37681715D01*
X5406715Y-37694276D01*
X5330214Y-37796351D01*
X5321676Y-37811946D01*
X5276522Y-37932394D01*
X5272895Y-37947649D01*
X5267369Y-37998514D01*
X5267000Y-38005328D01*
X5267000Y-38777885D01*
X2532999Y-38777885D01*
X2532999Y-38005331D01*
X2532629Y-37998510D01*
X2527105Y-37947648D01*
X2523479Y-37932396D01*
X2478324Y-37811946D01*
X2469786Y-37796351D01*
X2393285Y-37694276D01*
X2380724Y-37681715D01*
X2278649Y-37605214D01*
X2263054Y-37596676D01*
X2142606Y-37551522D01*
X2127351Y-37547895D01*
X2076486Y-37542369D01*
X2069672Y-37542000D01*
X1447115Y-37542000D01*
X1431876Y-37546475D01*
X1430671Y-37547865D01*
X1429000Y-37555548D01*
X1429000Y-38777885D01*
X921000Y-38777885D01*
X921000Y-37560116D01*
X916525Y-37544877D01*
X915135Y-37543672D01*
X907452Y-37542001D01*
X634500Y-37542001D01*
X566379Y-37521999D01*
X519886Y-37468343D01*
X508500Y-37416001D01*
X508500Y-34897095D01*
X13592001Y-34897095D01*
X13592338Y-34903614D01*
X13602257Y-34999206D01*
X13605149Y-35012600D01*
X13656588Y-35166784D01*
X13662761Y-35179962D01*
X13748063Y-35317807D01*
X13757099Y-35329208D01*
X13871829Y-35443739D01*
X13883240Y-35452751D01*
X14021243Y-35537816D01*
X14034424Y-35543963D01*
X14188710Y-35595138D01*
X14202086Y-35598005D01*
X14296438Y-35607672D01*
X14302854Y-35608000D01*
X14727885Y-35608000D01*
X14743124Y-35603525D01*
X14744329Y-35602135D01*
X14746000Y-35594452D01*
X14746000Y-35589884D01*
X15254000Y-35589884D01*
X15258475Y-35605123D01*
X15259865Y-35606328D01*
X15267548Y-35607999D01*
X15697095Y-35607999D01*
X15703614Y-35607662D01*
X15799206Y-35597743D01*
X15812600Y-35594851D01*
X15966784Y-35543412D01*
X15979962Y-35537239D01*
X16117807Y-35451937D01*
X16129208Y-35442901D01*
X16243739Y-35328171D01*
X16252751Y-35316760D01*
X16337816Y-35178757D01*
X16343963Y-35165576D01*
X16395138Y-35011290D01*
X16398005Y-34997914D01*
X16407672Y-34903562D01*
X16408000Y-34897146D01*
X16408000Y-34709615D01*
X16403525Y-34694376D01*
X16402135Y-34693171D01*
X16394452Y-34691500D01*
X15272115Y-34691500D01*
X15256876Y-34695975D01*
X15255671Y-34697365D01*
X15254000Y-34705048D01*
X15254000Y-35589884D01*
X14746000Y-35589884D01*
X14746000Y-34709615D01*
X14741525Y-34694376D01*
X14740135Y-34693171D01*
X14732452Y-34691500D01*
X13610116Y-34691500D01*
X13594877Y-34695975D01*
X13593672Y-34697365D01*
X13592001Y-34705048D01*
X13592001Y-34897095D01*
X508500Y-34897095D01*
X508500Y-34165385D01*
X13592000Y-34165385D01*
X13596475Y-34180624D01*
X13597865Y-34181829D01*
X13605548Y-34183500D01*
X14727885Y-34183500D01*
X14743124Y-34179025D01*
X14744329Y-34177635D01*
X14746000Y-34169952D01*
X14746000Y-34165385D01*
X15254000Y-34165385D01*
X15258475Y-34180624D01*
X15259865Y-34181829D01*
X15267548Y-34183500D01*
X16389884Y-34183500D01*
X16405123Y-34179025D01*
X16406328Y-34177635D01*
X16407999Y-34169952D01*
X16407999Y-33977905D01*
X16407662Y-33971386D01*
X16397743Y-33875794D01*
X16394851Y-33862400D01*
X16343412Y-33708216D01*
X16337239Y-33695038D01*
X16251937Y-33557193D01*
X16242901Y-33545792D01*
X16128171Y-33431261D01*
X16116760Y-33422249D01*
X15978757Y-33337184D01*
X15965576Y-33331037D01*
X15811290Y-33279862D01*
X15797914Y-33276995D01*
X15703562Y-33267328D01*
X15697145Y-33267000D01*
X15272115Y-33267000D01*
X15256876Y-33271475D01*
X15255671Y-33272865D01*
X15254000Y-33280548D01*
X15254000Y-34165385D01*
X14746000Y-34165385D01*
X14746000Y-33285116D01*
X14741525Y-33269877D01*
X14740135Y-33268672D01*
X14732452Y-33267001D01*
X14302905Y-33267001D01*
X14296386Y-33267338D01*
X14200794Y-33277257D01*
X14187400Y-33280149D01*
X14033216Y-33331588D01*
X14020038Y-33337761D01*
X13882193Y-33423063D01*
X13870792Y-33432099D01*
X13756261Y-33546829D01*
X13747249Y-33558240D01*
X13662184Y-33696243D01*
X13656037Y-33709424D01*
X13604862Y-33863710D01*
X13601995Y-33877086D01*
X13592328Y-33971438D01*
X13592000Y-33977855D01*
X13592000Y-34165385D01*
X508500Y-34165385D01*
X508500Y-30793799D01*
X27475797Y-30793799D01*
X27477320Y-30802223D01*
X27489700Y-30805616D01*
X28539293Y-30805616D01*
X28554532Y-30801141D01*
X28555737Y-30799751D01*
X28557408Y-30792068D01*
X28557408Y-29742718D01*
X28553490Y-29729374D01*
X28539214Y-29727387D01*
X28500732Y-29733276D01*
X28490696Y-29735667D01*
X28288276Y-29801828D01*
X28278767Y-29805825D01*
X28089871Y-29904158D01*
X28081146Y-29909652D01*
X27910841Y-30037521D01*
X27903134Y-30044364D01*
X27755998Y-30198333D01*
X27749512Y-30206343D01*
X27629506Y-30382265D01*
X27624408Y-30391239D01*
X27534746Y-30584399D01*
X27531183Y-30594086D01*
X27475797Y-30793799D01*
X508500Y-30793799D01*
X508500Y-29944669D01*
X767001Y-29944669D01*
X767371Y-29951490D01*
X772895Y-30002352D01*
X776521Y-30017604D01*
X821676Y-30138054D01*
X830214Y-30153649D01*
X906715Y-30255724D01*
X919276Y-30268285D01*
X1021351Y-30344786D01*
X1036946Y-30353324D01*
X1157394Y-30398478D01*
X1172649Y-30402105D01*
X1223514Y-30407631D01*
X1230328Y-30408000D01*
X2402885Y-30408000D01*
X2418124Y-30403525D01*
X2419329Y-30402135D01*
X2421000Y-30394452D01*
X2421000Y-30389884D01*
X2929000Y-30389884D01*
X2933475Y-30405123D01*
X2934865Y-30406328D01*
X2942548Y-30407999D01*
X4119669Y-30407999D01*
X4126490Y-30407629D01*
X4177352Y-30402105D01*
X4192604Y-30398479D01*
X4313054Y-30353324D01*
X4328649Y-30344786D01*
X4430724Y-30268285D01*
X4443285Y-30255724D01*
X4519786Y-30153649D01*
X4528324Y-30138054D01*
X4573478Y-30017606D01*
X4577105Y-30002351D01*
X4582631Y-29951486D01*
X4583000Y-29944672D01*
X4583000Y-29422115D01*
X4578525Y-29406876D01*
X4577135Y-29405671D01*
X4569452Y-29404000D01*
X2947115Y-29404000D01*
X2931876Y-29408475D01*
X2930671Y-29409865D01*
X2929000Y-29417548D01*
X2929000Y-30389884D01*
X2421000Y-30389884D01*
X2421000Y-29422115D01*
X2416525Y-29406876D01*
X2415135Y-29405671D01*
X2407452Y-29404000D01*
X785116Y-29404000D01*
X769877Y-29408475D01*
X768672Y-29409865D01*
X767001Y-29417548D01*
X767001Y-29944669D01*
X508500Y-29944669D01*
X508500Y-28877885D01*
X767000Y-28877885D01*
X771475Y-28893124D01*
X772865Y-28894329D01*
X780548Y-28896000D01*
X2402885Y-28896000D01*
X2418124Y-28891525D01*
X2419329Y-28890135D01*
X2421000Y-28882452D01*
X2421000Y-28877885D01*
X2929000Y-28877885D01*
X2933475Y-28893124D01*
X2934865Y-28894329D01*
X2942548Y-28896000D01*
X4564884Y-28896000D01*
X4580123Y-28891525D01*
X4581328Y-28890135D01*
X4582999Y-28882452D01*
X4582999Y-28355331D01*
X4582629Y-28348510D01*
X4577105Y-28297648D01*
X4573479Y-28282396D01*
X4528324Y-28161946D01*
X4519786Y-28146351D01*
X4443285Y-28044276D01*
X4430724Y-28031715D01*
X4328649Y-27955214D01*
X4313054Y-27946676D01*
X4192606Y-27901522D01*
X4177351Y-27897895D01*
X4126486Y-27892369D01*
X4119672Y-27892000D01*
X2947115Y-27892000D01*
X2931876Y-27896475D01*
X2930671Y-27897865D01*
X2929000Y-27905548D01*
X2929000Y-28877885D01*
X2421000Y-28877885D01*
X2421000Y-27910116D01*
X2416525Y-27894877D01*
X2415135Y-27893672D01*
X2407452Y-27892001D01*
X1230331Y-27892001D01*
X1223510Y-27892371D01*
X1172648Y-27897895D01*
X1157396Y-27901521D01*
X1036946Y-27946676D01*
X1021351Y-27955214D01*
X919276Y-28031715D01*
X906715Y-28044276D01*
X830214Y-28146351D01*
X821676Y-28161946D01*
X776522Y-28282394D01*
X772895Y-28297649D01*
X767369Y-28348514D01*
X767000Y-28355328D01*
X767000Y-28877885D01*
X508500Y-28877885D01*
X508500Y-27744669D01*
X22267001Y-27744669D01*
X22267371Y-27751490D01*
X22272895Y-27802352D01*
X22276521Y-27817604D01*
X22321676Y-27938054D01*
X22330214Y-27953649D01*
X22406715Y-28055724D01*
X22419276Y-28068285D01*
X22521351Y-28144786D01*
X22536946Y-28153324D01*
X22657394Y-28198478D01*
X22672649Y-28202105D01*
X22723514Y-28207631D01*
X22730328Y-28208000D01*
X23902885Y-28208000D01*
X23918124Y-28203525D01*
X23919329Y-28202135D01*
X23921000Y-28194452D01*
X23921000Y-28189884D01*
X24429000Y-28189884D01*
X24433475Y-28205123D01*
X24434865Y-28206328D01*
X24442548Y-28207999D01*
X25619669Y-28207999D01*
X25626490Y-28207629D01*
X25677352Y-28202105D01*
X25692604Y-28198479D01*
X25813054Y-28153324D01*
X25828649Y-28144786D01*
X25930724Y-28068285D01*
X25943285Y-28055724D01*
X26019786Y-27953649D01*
X26028324Y-27938054D01*
X26073478Y-27817606D01*
X26077105Y-27802351D01*
X26082631Y-27751486D01*
X26083000Y-27744672D01*
X26083000Y-27222115D01*
X26078525Y-27206876D01*
X26077135Y-27205671D01*
X26069452Y-27204000D01*
X24447115Y-27204000D01*
X24431876Y-27208475D01*
X24430671Y-27209865D01*
X24429000Y-27217548D01*
X24429000Y-28189884D01*
X23921000Y-28189884D01*
X23921000Y-27222115D01*
X23916525Y-27206876D01*
X23915135Y-27205671D01*
X23907452Y-27204000D01*
X22285116Y-27204000D01*
X22269877Y-27208475D01*
X22268672Y-27209865D01*
X22267001Y-27217548D01*
X22267001Y-27744669D01*
X508500Y-27744669D01*
X508500Y-25800000D01*
X13125000Y-25800000D01*
X22073501Y-25800000D01*
X22141622Y-25820002D01*
X22168131Y-25843341D01*
X22168802Y-25844300D01*
X22254707Y-25930205D01*
X22288733Y-25992517D01*
X22283594Y-26063530D01*
X22276519Y-26082401D01*
X22272895Y-26097643D01*
X22267369Y-26148514D01*
X22267000Y-26155328D01*
X22267000Y-26677885D01*
X22271475Y-26693124D01*
X22272865Y-26694329D01*
X22280548Y-26696000D01*
X26064884Y-26696000D01*
X26080123Y-26691525D01*
X26081328Y-26690135D01*
X26082999Y-26682452D01*
X26082999Y-26155331D01*
X26082629Y-26148510D01*
X26077105Y-26097648D01*
X26073478Y-26082390D01*
X26062733Y-26053728D01*
X26057550Y-25982921D01*
X26091472Y-25920552D01*
X26153728Y-25886424D01*
X26180715Y-25883500D01*
X26773134Y-25883500D01*
X26835316Y-25876745D01*
X26971705Y-25825615D01*
X27088261Y-25738261D01*
X27128976Y-25683935D01*
X27185835Y-25641420D01*
X27229802Y-25633500D01*
X27665500Y-25633500D01*
X27733621Y-25653502D01*
X27780114Y-25707158D01*
X27791500Y-25759500D01*
X27791500Y-26175400D01*
X27791837Y-26178646D01*
X27791837Y-26178650D01*
X27799078Y-26248431D01*
X27802474Y-26281166D01*
X27858450Y-26448946D01*
X27951522Y-26599348D01*
X28076697Y-26724305D01*
X28082927Y-26728145D01*
X28082928Y-26728146D01*
X28220090Y-26812694D01*
X28227262Y-26817115D01*
X28279499Y-26834441D01*
X28388611Y-26870632D01*
X28388613Y-26870632D01*
X28395139Y-26872797D01*
X28401975Y-26873497D01*
X28401978Y-26873498D01*
X28445031Y-26877909D01*
X28499600Y-26883500D01*
X29400400Y-26883500D01*
X29403646Y-26883163D01*
X29403650Y-26883163D01*
X29499308Y-26873238D01*
X29499312Y-26873237D01*
X29506166Y-26872526D01*
X29512702Y-26870345D01*
X29512704Y-26870345D01*
X29644806Y-26826272D01*
X29673946Y-26816550D01*
X29824348Y-26723478D01*
X29949305Y-26598303D01*
X30042115Y-26447738D01*
X30085832Y-26315935D01*
X30095632Y-26286389D01*
X30095632Y-26286387D01*
X30097797Y-26279861D01*
X30108500Y-26175400D01*
X30108500Y-24824600D01*
X30106865Y-24808841D01*
X30098238Y-24725692D01*
X30098237Y-24725688D01*
X30097526Y-24718834D01*
X30041550Y-24551054D01*
X29948478Y-24400652D01*
X29823303Y-24275695D01*
X29793437Y-24257285D01*
X29678968Y-24186725D01*
X29678966Y-24186724D01*
X29672738Y-24182885D01*
X29512254Y-24129655D01*
X29511389Y-24129368D01*
X29511387Y-24129368D01*
X29504861Y-24127203D01*
X29498025Y-24126503D01*
X29498022Y-24126502D01*
X29454969Y-24122091D01*
X29400400Y-24116500D01*
X28499600Y-24116500D01*
X28484323Y-24118085D01*
X28463018Y-24120295D01*
X28430585Y-24118085D01*
X28430390Y-24119369D01*
X28424834Y-24118524D01*
X28419390Y-24117192D01*
X28408236Y-24116500D01*
X28408238Y-24116464D01*
X28404245Y-24116225D01*
X28400053Y-24115851D01*
X28392885Y-24114360D01*
X28326675Y-24116151D01*
X28315479Y-24116454D01*
X28312072Y-24116500D01*
X27229802Y-24116500D01*
X27161681Y-24096498D01*
X27128976Y-24066065D01*
X27105250Y-24034407D01*
X27088261Y-24011739D01*
X27053018Y-23985326D01*
X27010503Y-23928467D01*
X27005477Y-23857649D01*
X27039537Y-23795355D01*
X27101868Y-23761365D01*
X27128583Y-23758500D01*
X33633629Y-23758500D01*
X33701750Y-23778502D01*
X33722724Y-23795405D01*
X33959751Y-24032432D01*
X33993777Y-24094744D01*
X33988712Y-24165559D01*
X33946165Y-24222395D01*
X33881638Y-24247048D01*
X33833706Y-24251241D01*
X33780629Y-24255885D01*
X33567924Y-24312880D01*
X33502793Y-24343251D01*
X33373334Y-24403618D01*
X33373329Y-24403621D01*
X33368347Y-24405944D01*
X33363840Y-24409100D01*
X33363838Y-24409101D01*
X33256703Y-24484118D01*
X33189429Y-24506806D01*
X33120568Y-24489521D01*
X33077288Y-24447208D01*
X33052332Y-24406880D01*
X33048478Y-24400652D01*
X32923303Y-24275695D01*
X32893437Y-24257285D01*
X32778968Y-24186725D01*
X32778966Y-24186724D01*
X32772738Y-24182885D01*
X32612254Y-24129655D01*
X32611389Y-24129368D01*
X32611387Y-24129368D01*
X32604861Y-24127203D01*
X32598025Y-24126503D01*
X32598022Y-24126502D01*
X32554969Y-24122091D01*
X32500400Y-24116500D01*
X31599600Y-24116500D01*
X31596354Y-24116837D01*
X31596350Y-24116837D01*
X31500692Y-24126762D01*
X31500688Y-24126763D01*
X31493834Y-24127474D01*
X31487298Y-24129655D01*
X31487296Y-24129655D01*
X31379680Y-24165559D01*
X31326054Y-24183450D01*
X31175652Y-24276522D01*
X31050695Y-24401697D01*
X31046855Y-24407927D01*
X31046854Y-24407928D01*
X30961884Y-24545775D01*
X30957885Y-24552262D01*
X30955581Y-24559209D01*
X30912876Y-24687962D01*
X30902203Y-24720139D01*
X30891500Y-24824600D01*
X30891500Y-26175400D01*
X30891837Y-26178646D01*
X30891837Y-26178650D01*
X30899078Y-26248431D01*
X30902474Y-26281166D01*
X30958450Y-26448946D01*
X31051522Y-26599348D01*
X31176697Y-26724305D01*
X31182927Y-26728145D01*
X31182928Y-26728146D01*
X31320090Y-26812694D01*
X31327262Y-26817115D01*
X31379499Y-26834441D01*
X31488611Y-26870632D01*
X31488613Y-26870632D01*
X31495139Y-26872797D01*
X31501975Y-26873497D01*
X31501978Y-26873498D01*
X31545031Y-26877909D01*
X31599600Y-26883500D01*
X32500400Y-26883500D01*
X32503646Y-26883163D01*
X32503650Y-26883163D01*
X32599308Y-26873238D01*
X32599312Y-26873237D01*
X32606166Y-26872526D01*
X32612702Y-26870345D01*
X32612704Y-26870345D01*
X32744806Y-26826272D01*
X32773946Y-26816550D01*
X32924348Y-26723478D01*
X33049305Y-26598303D01*
X33067219Y-26569242D01*
X33077223Y-26553013D01*
X33129995Y-26505520D01*
X33200067Y-26494098D01*
X33256752Y-26515917D01*
X33368346Y-26594056D01*
X33567924Y-26687120D01*
X33780629Y-26744115D01*
X34000000Y-26763307D01*
X34219371Y-26744115D01*
X34432076Y-26687120D01*
X34631654Y-26594056D01*
X34812038Y-26467749D01*
X34967749Y-26312038D01*
X34980700Y-26293543D01*
X35090899Y-26136162D01*
X35090900Y-26136160D01*
X35094056Y-26131653D01*
X35096379Y-26126671D01*
X35096382Y-26126666D01*
X35158936Y-25992517D01*
X35187120Y-25932076D01*
X35244115Y-25719371D01*
X35251628Y-25633500D01*
X35252952Y-25618362D01*
X35278815Y-25552244D01*
X35336319Y-25510605D01*
X35407206Y-25506664D01*
X35467568Y-25540249D01*
X39466817Y-29539498D01*
X39500843Y-29601810D01*
X39495778Y-29672625D01*
X39453231Y-29729461D01*
X39386711Y-29754272D01*
X39335661Y-29747365D01*
X39324501Y-29743413D01*
X39324496Y-29743412D01*
X39319620Y-29741685D01*
X39314527Y-29740778D01*
X39314524Y-29740777D01*
X39104781Y-29703416D01*
X39104775Y-29703415D01*
X39099692Y-29702510D01*
X39025860Y-29701608D01*
X38881489Y-29699844D01*
X38881487Y-29699844D01*
X38876319Y-29699781D01*
X38655499Y-29733571D01*
X38443164Y-29802973D01*
X38397894Y-29826539D01*
X38269383Y-29893438D01*
X38245015Y-29906123D01*
X38240882Y-29909226D01*
X38240879Y-29909228D01*
X38096536Y-30017604D01*
X38066373Y-30040251D01*
X37912037Y-30201754D01*
X37804609Y-30359237D01*
X37749701Y-30404237D01*
X37679176Y-30412408D01*
X37615429Y-30381154D01*
X37594732Y-30356670D01*
X37514230Y-30232233D01*
X37514228Y-30232230D01*
X37511422Y-30227893D01*
X37361078Y-30062667D01*
X37357027Y-30059468D01*
X37357023Y-30059464D01*
X37189822Y-29927416D01*
X37189818Y-29927414D01*
X37185767Y-29924214D01*
X37181239Y-29921714D01*
X37085252Y-29868727D01*
X36990197Y-29816254D01*
X36985328Y-29814530D01*
X36985324Y-29814528D01*
X36784495Y-29743411D01*
X36784491Y-29743410D01*
X36779620Y-29741685D01*
X36774527Y-29740778D01*
X36774524Y-29740777D01*
X36564781Y-29703416D01*
X36564775Y-29703415D01*
X36559692Y-29702510D01*
X36485860Y-29701608D01*
X36341489Y-29699844D01*
X36341487Y-29699844D01*
X36336319Y-29699781D01*
X36115499Y-29733571D01*
X35903164Y-29802973D01*
X35857894Y-29826539D01*
X35729383Y-29893438D01*
X35705015Y-29906123D01*
X35700882Y-29909226D01*
X35700879Y-29909228D01*
X35556536Y-30017604D01*
X35526373Y-30040251D01*
X35372037Y-30201754D01*
X35264609Y-30359237D01*
X35209701Y-30404237D01*
X35139176Y-30412408D01*
X35075429Y-30381154D01*
X35054732Y-30356670D01*
X34974230Y-30232233D01*
X34974228Y-30232230D01*
X34971422Y-30227893D01*
X34821078Y-30062667D01*
X34817027Y-30059468D01*
X34817023Y-30059464D01*
X34649822Y-29927416D01*
X34649818Y-29927414D01*
X34645767Y-29924214D01*
X34641243Y-29921717D01*
X34641239Y-29921714D01*
X34590016Y-29893438D01*
X34540044Y-29843006D01*
X34524908Y-29783129D01*
X34524908Y-29724103D01*
X34544910Y-29655982D01*
X34597657Y-29609909D01*
X34631654Y-29594056D01*
X34636152Y-29590907D01*
X34636158Y-29590903D01*
X34807527Y-29470908D01*
X34807529Y-29470906D01*
X34812038Y-29467749D01*
X34967749Y-29312038D01*
X35094056Y-29131653D01*
X35096379Y-29126671D01*
X35096382Y-29126666D01*
X35160652Y-28988837D01*
X35187120Y-28932076D01*
X35244115Y-28719371D01*
X35263307Y-28500000D01*
X35244115Y-28280629D01*
X35187120Y-28067924D01*
X35111403Y-27905548D01*
X35096382Y-27873334D01*
X35096379Y-27873329D01*
X35094056Y-27868347D01*
X35058527Y-27817606D01*
X34970908Y-27692473D01*
X34970906Y-27692470D01*
X34967749Y-27687962D01*
X34812038Y-27532251D01*
X34631654Y-27405944D01*
X34432076Y-27312880D01*
X34219371Y-27255885D01*
X34000000Y-27236693D01*
X33780629Y-27255885D01*
X33567924Y-27312880D01*
X33474562Y-27356415D01*
X33373334Y-27403618D01*
X33373329Y-27403621D01*
X33368347Y-27405944D01*
X33363840Y-27409100D01*
X33363838Y-27409101D01*
X33192473Y-27529092D01*
X33192470Y-27529094D01*
X33187962Y-27532251D01*
X33032251Y-27687962D01*
X33029094Y-27692470D01*
X33029092Y-27692473D01*
X32941473Y-27817606D01*
X32905944Y-27868347D01*
X32903621Y-27873329D01*
X32903618Y-27873334D01*
X32864195Y-27957878D01*
X32817278Y-28011163D01*
X32749000Y-28030624D01*
X32681040Y-28010082D01*
X32635805Y-27957878D01*
X32596382Y-27873334D01*
X32596379Y-27873329D01*
X32594056Y-27868347D01*
X32558527Y-27817606D01*
X32470908Y-27692473D01*
X32470906Y-27692470D01*
X32467749Y-27687962D01*
X32312038Y-27532251D01*
X32131654Y-27405944D01*
X31932076Y-27312880D01*
X31719371Y-27255885D01*
X31500000Y-27236693D01*
X31280629Y-27255885D01*
X31067924Y-27312880D01*
X30974562Y-27356415D01*
X30873334Y-27403618D01*
X30873329Y-27403621D01*
X30868347Y-27405944D01*
X30863840Y-27409100D01*
X30863838Y-27409101D01*
X30692473Y-27529092D01*
X30692470Y-27529094D01*
X30687962Y-27532251D01*
X30532251Y-27687962D01*
X30529094Y-27692470D01*
X30529092Y-27692473D01*
X30441473Y-27817606D01*
X30405944Y-27868347D01*
X30403621Y-27873329D01*
X30403618Y-27873334D01*
X30388597Y-27905548D01*
X30312880Y-28067924D01*
X30255885Y-28280629D01*
X30236693Y-28500000D01*
X30255885Y-28719371D01*
X30312880Y-28932076D01*
X30339348Y-28988837D01*
X30403618Y-29126666D01*
X30403621Y-29126671D01*
X30405944Y-29131653D01*
X30532251Y-29312038D01*
X30681003Y-29460790D01*
X30715029Y-29523102D01*
X30717908Y-29549885D01*
X30717908Y-29781308D01*
X30697906Y-29849429D01*
X30650091Y-29893069D01*
X30625015Y-29906123D01*
X30620882Y-29909226D01*
X30620879Y-29909228D01*
X30476536Y-30017604D01*
X30446373Y-30040251D01*
X30292037Y-30201754D01*
X30289128Y-30206019D01*
X30289122Y-30206027D01*
X30276812Y-30224073D01*
X30184612Y-30359234D01*
X30184306Y-30359682D01*
X30129395Y-30404685D01*
X30058870Y-30412856D01*
X29995123Y-30381602D01*
X29974426Y-30357118D01*
X29893834Y-30232542D01*
X29887544Y-30224373D01*
X29744214Y-30066856D01*
X29736681Y-30059831D01*
X29569547Y-29927838D01*
X29560960Y-29922133D01*
X29374525Y-29819215D01*
X29365113Y-29814985D01*
X29164367Y-29743896D01*
X29154396Y-29741262D01*
X29083245Y-29728588D01*
X29069948Y-29730048D01*
X29065408Y-29744605D01*
X29065408Y-34918133D01*
X29069472Y-34931975D01*
X29082886Y-34934009D01*
X29089592Y-34933150D01*
X29099670Y-34931008D01*
X29303663Y-34869807D01*
X29313250Y-34866049D01*
X29504503Y-34772355D01*
X29513353Y-34767080D01*
X29686736Y-34643408D01*
X29694608Y-34636755D01*
X29845460Y-34486428D01*
X29852138Y-34478581D01*
X29979430Y-34301435D01*
X29980687Y-34302338D01*
X30027781Y-34258978D01*
X30097719Y-34246761D01*
X30163159Y-34274294D01*
X30190987Y-34306127D01*
X30251395Y-34404704D01*
X30397658Y-34573554D01*
X30481798Y-34643408D01*
X30561545Y-34709615D01*
X30569534Y-34716248D01*
X30655479Y-34766470D01*
X30704202Y-34818107D01*
X30717908Y-34875257D01*
X30717908Y-34891264D01*
X30718405Y-34895198D01*
X30718405Y-34895199D01*
X30718413Y-34895264D01*
X30719346Y-34907101D01*
X30720735Y-34951297D01*
X30725414Y-34967401D01*
X30726386Y-34970747D01*
X30730395Y-34990108D01*
X30732934Y-35010205D01*
X30735853Y-35017576D01*
X30735853Y-35017578D01*
X30749212Y-35051320D01*
X30753057Y-35062550D01*
X30759778Y-35085684D01*
X30765390Y-35105001D01*
X30769423Y-35111820D01*
X30769425Y-35111825D01*
X30775701Y-35122436D01*
X30784396Y-35140184D01*
X30791856Y-35159025D01*
X30796518Y-35165441D01*
X30796518Y-35165442D01*
X30817844Y-35194795D01*
X30824360Y-35204715D01*
X30841682Y-35234004D01*
X30846866Y-35242770D01*
X30861187Y-35257091D01*
X30874027Y-35272124D01*
X30885936Y-35288515D01*
X30892042Y-35293566D01*
X30920013Y-35316706D01*
X30928792Y-35324696D01*
X32496343Y-36892247D01*
X32503887Y-36900537D01*
X32508000Y-36907018D01*
X32513777Y-36912443D01*
X32557667Y-36953658D01*
X32560509Y-36956413D01*
X32580230Y-36976134D01*
X32583425Y-36978612D01*
X32592447Y-36986318D01*
X32624679Y-37016586D01*
X32631628Y-37020406D01*
X32642432Y-37026346D01*
X32658956Y-37037199D01*
X32674959Y-37049613D01*
X32715543Y-37067176D01*
X32726173Y-37072383D01*
X32764940Y-37093695D01*
X32772617Y-37095666D01*
X32772622Y-37095668D01*
X32784558Y-37098732D01*
X32803266Y-37105137D01*
X32821855Y-37113181D01*
X32829683Y-37114421D01*
X32829690Y-37114423D01*
X32865524Y-37120099D01*
X32877144Y-37122505D01*
X32911343Y-37131285D01*
X32919970Y-37133500D01*
X32940224Y-37133500D01*
X32959934Y-37135051D01*
X32979943Y-37138220D01*
X32987835Y-37137474D01*
X33023961Y-37134059D01*
X33035819Y-37133500D01*
X34294088Y-37133500D01*
X34362209Y-37153502D01*
X34408702Y-37207158D01*
X34418806Y-37277432D01*
X34402543Y-37323636D01*
X34335855Y-37436399D01*
X34333644Y-37444010D01*
X34333643Y-37444012D01*
X34318697Y-37495458D01*
X34289438Y-37596169D01*
X34286500Y-37633498D01*
X34286500Y-38178000D01*
X34266498Y-38246121D01*
X34212842Y-38292614D01*
X34160500Y-38304000D01*
X33466686Y-38304000D01*
X33398565Y-38283998D01*
X33352072Y-38230342D01*
X33347163Y-38217879D01*
X33341550Y-38201054D01*
X33331686Y-38185113D01*
X33252332Y-38056880D01*
X33248478Y-38050652D01*
X33123303Y-37925695D01*
X33117072Y-37921854D01*
X32978968Y-37836725D01*
X32978966Y-37836724D01*
X32972738Y-37832885D01*
X32812254Y-37779655D01*
X32811389Y-37779368D01*
X32811387Y-37779368D01*
X32804861Y-37777203D01*
X32798025Y-37776503D01*
X32798022Y-37776502D01*
X32754969Y-37772091D01*
X32700400Y-37766500D01*
X31299600Y-37766500D01*
X31296354Y-37766837D01*
X31296350Y-37766837D01*
X31200692Y-37776762D01*
X31200688Y-37776763D01*
X31193834Y-37777474D01*
X31187298Y-37779655D01*
X31187296Y-37779655D01*
X31090509Y-37811946D01*
X31026054Y-37833450D01*
X30875652Y-37926522D01*
X30750695Y-38051697D01*
X30746855Y-38057927D01*
X30746854Y-38057928D01*
X30679011Y-38167990D01*
X30657885Y-38202262D01*
X30655580Y-38209210D01*
X30655580Y-38209211D01*
X30652774Y-38217670D01*
X30612342Y-38276029D01*
X30546777Y-38303264D01*
X30533182Y-38304000D01*
X30141267Y-38304000D01*
X30130084Y-38303473D01*
X30122591Y-38301798D01*
X30114665Y-38302047D01*
X30114664Y-38302047D01*
X30054514Y-38303938D01*
X30050555Y-38304000D01*
X30022644Y-38304000D01*
X30018710Y-38304497D01*
X30018709Y-38304497D01*
X30018644Y-38304505D01*
X30006807Y-38305438D01*
X29974990Y-38306438D01*
X29970529Y-38306578D01*
X29962610Y-38306827D01*
X29944954Y-38311956D01*
X29943158Y-38312478D01*
X29923806Y-38316486D01*
X29916735Y-38317380D01*
X29903703Y-38319026D01*
X29896334Y-38321943D01*
X29896332Y-38321944D01*
X29862597Y-38335300D01*
X29851369Y-38339145D01*
X29808907Y-38351482D01*
X29802084Y-38355517D01*
X29802082Y-38355518D01*
X29791472Y-38361793D01*
X29773724Y-38370488D01*
X29754883Y-38377948D01*
X29748467Y-38382610D01*
X29748466Y-38382610D01*
X29719113Y-38403936D01*
X29709193Y-38410452D01*
X29677965Y-38428920D01*
X29677962Y-38428922D01*
X29671138Y-38432958D01*
X29656817Y-38447279D01*
X29641784Y-38460119D01*
X29625393Y-38472028D01*
X29601083Y-38501414D01*
X29597212Y-38506093D01*
X29589222Y-38514874D01*
X29107742Y-38996353D01*
X29099463Y-39003887D01*
X29092982Y-39008000D01*
X29061241Y-39041801D01*
X29046357Y-39057651D01*
X29043602Y-39060493D01*
X29023865Y-39080230D01*
X29021385Y-39083427D01*
X29013682Y-39092447D01*
X28983414Y-39124679D01*
X28979595Y-39131625D01*
X28979593Y-39131628D01*
X28973652Y-39142434D01*
X28962801Y-39158953D01*
X28950386Y-39174959D01*
X28947241Y-39182228D01*
X28947238Y-39182232D01*
X28932826Y-39215537D01*
X28927609Y-39226187D01*
X28906305Y-39264940D01*
X28904334Y-39272615D01*
X28904334Y-39272616D01*
X28901267Y-39284562D01*
X28894863Y-39303266D01*
X28886819Y-39321855D01*
X28885580Y-39329678D01*
X28885577Y-39329688D01*
X28879901Y-39365524D01*
X28877495Y-39377144D01*
X28866500Y-39419970D01*
X28866500Y-39440224D01*
X28864949Y-39459934D01*
X28861780Y-39479943D01*
X28862526Y-39487835D01*
X28865941Y-39523961D01*
X28866500Y-39535819D01*
X28866500Y-47421233D01*
X28865973Y-47432416D01*
X28864298Y-47439909D01*
X28864547Y-47447835D01*
X28864547Y-47447836D01*
X28866438Y-47507986D01*
X28866500Y-47511945D01*
X28866500Y-47539856D01*
X28866997Y-47543790D01*
X28866997Y-47543791D01*
X28867005Y-47543856D01*
X28867938Y-47555693D01*
X28869327Y-47599889D01*
X28874978Y-47619339D01*
X28878987Y-47638700D01*
X28881526Y-47658797D01*
X28884445Y-47666168D01*
X28884445Y-47666170D01*
X28897804Y-47699912D01*
X28901649Y-47711142D01*
X28913982Y-47753593D01*
X28918015Y-47760412D01*
X28918017Y-47760417D01*
X28924293Y-47771028D01*
X28932988Y-47788776D01*
X28940448Y-47807617D01*
X28945110Y-47814033D01*
X28945110Y-47814034D01*
X28966436Y-47843387D01*
X28972952Y-47853307D01*
X28989523Y-47881326D01*
X28995458Y-47891362D01*
X29009779Y-47905683D01*
X29022619Y-47920716D01*
X29034528Y-47937107D01*
X29040634Y-47942158D01*
X29068605Y-47965298D01*
X29077384Y-47973288D01*
X30496343Y-49392247D01*
X30503887Y-49400537D01*
X30508000Y-49407018D01*
X30513777Y-49412443D01*
X30557667Y-49453658D01*
X30560509Y-49456413D01*
X30580230Y-49476134D01*
X30583425Y-49478612D01*
X30592447Y-49486318D01*
X30624679Y-49516586D01*
X30631628Y-49520406D01*
X30642432Y-49526346D01*
X30658956Y-49537199D01*
X30674959Y-49549613D01*
X30715543Y-49567176D01*
X30726173Y-49572383D01*
X30764940Y-49593695D01*
X30772617Y-49595666D01*
X30772622Y-49595668D01*
X30784558Y-49598732D01*
X30803266Y-49605137D01*
X30821855Y-49613181D01*
X30829680Y-49614420D01*
X30829682Y-49614421D01*
X30865519Y-49620097D01*
X30877140Y-49622504D01*
X30908959Y-49630673D01*
X30919970Y-49633500D01*
X30940231Y-49633500D01*
X30959940Y-49635051D01*
X30979943Y-49638219D01*
X30987835Y-49637473D01*
X30993062Y-49636979D01*
X31023954Y-49634059D01*
X31035811Y-49633500D01*
X47421233Y-49633500D01*
X47432416Y-49634027D01*
X47439909Y-49635702D01*
X47447835Y-49635453D01*
X47447836Y-49635453D01*
X47507986Y-49633562D01*
X47511945Y-49633500D01*
X47539856Y-49633500D01*
X47543791Y-49633003D01*
X47543856Y-49632995D01*
X47555693Y-49632062D01*
X47587951Y-49631048D01*
X47591970Y-49630922D01*
X47599889Y-49630673D01*
X47619343Y-49625021D01*
X47638700Y-49621013D01*
X47650930Y-49619468D01*
X47650931Y-49619468D01*
X47658797Y-49618474D01*
X47666168Y-49615555D01*
X47666170Y-49615555D01*
X47699912Y-49602196D01*
X47711142Y-49598351D01*
X47745983Y-49588229D01*
X47745984Y-49588229D01*
X47753593Y-49586018D01*
X47760412Y-49581985D01*
X47760417Y-49581983D01*
X47771028Y-49575707D01*
X47788776Y-49567012D01*
X47807617Y-49559552D01*
X47827987Y-49544753D01*
X47843387Y-49533564D01*
X47853307Y-49527048D01*
X47884535Y-49508580D01*
X47884538Y-49508578D01*
X47891362Y-49504542D01*
X47905683Y-49490221D01*
X47920717Y-49477380D01*
X47922432Y-49476134D01*
X47937107Y-49465472D01*
X47965298Y-49431395D01*
X47973288Y-49422616D01*
X49892253Y-47503652D01*
X49900539Y-47496112D01*
X49907018Y-47492000D01*
X49953644Y-47442348D01*
X49956398Y-47439507D01*
X49976135Y-47419770D01*
X49978615Y-47416573D01*
X49986320Y-47407551D01*
X50016586Y-47375321D01*
X50020405Y-47368375D01*
X50020407Y-47368372D01*
X50026348Y-47357566D01*
X50037199Y-47341047D01*
X50044758Y-47331301D01*
X50049614Y-47325041D01*
X50052759Y-47317772D01*
X50052762Y-47317768D01*
X50067174Y-47284463D01*
X50072391Y-47273813D01*
X50093695Y-47235060D01*
X50098733Y-47215437D01*
X50105137Y-47196734D01*
X50110033Y-47185420D01*
X50110033Y-47185419D01*
X50113181Y-47178145D01*
X50114420Y-47170322D01*
X50114423Y-47170312D01*
X50120099Y-47134476D01*
X50122505Y-47122856D01*
X50131528Y-47087711D01*
X50131528Y-47087710D01*
X50133500Y-47080030D01*
X50133500Y-47059776D01*
X50135051Y-47040065D01*
X50136980Y-47027886D01*
X50138220Y-47020057D01*
X50134059Y-46976038D01*
X50133500Y-46964181D01*
X50133500Y-31578767D01*
X50134027Y-31567584D01*
X50135702Y-31560091D01*
X50133562Y-31492014D01*
X50133500Y-31488055D01*
X50133500Y-31460144D01*
X50132995Y-31456144D01*
X50132062Y-31444301D01*
X50130922Y-31408030D01*
X50130673Y-31400111D01*
X50125021Y-31380657D01*
X50121013Y-31361300D01*
X50119468Y-31349070D01*
X50119468Y-31349069D01*
X50118474Y-31341203D01*
X50113081Y-31327582D01*
X50102196Y-31300088D01*
X50098351Y-31288858D01*
X50088229Y-31254017D01*
X50088229Y-31254016D01*
X50086018Y-31246407D01*
X50081985Y-31239588D01*
X50081983Y-31239583D01*
X50075707Y-31228972D01*
X50067012Y-31211224D01*
X50059552Y-31192383D01*
X50033564Y-31156613D01*
X50027048Y-31146693D01*
X50008580Y-31115465D01*
X50008578Y-31115462D01*
X50004542Y-31108638D01*
X49990221Y-31094317D01*
X49977380Y-31079283D01*
X49970132Y-31069307D01*
X49965472Y-31062893D01*
X49931407Y-31034712D01*
X49922626Y-31026722D01*
X49563262Y-30667357D01*
X49555729Y-30659079D01*
X49551616Y-30652598D01*
X49501978Y-30605986D01*
X49499135Y-30603231D01*
X49482187Y-30586282D01*
X49479386Y-30583481D01*
X49476189Y-30581001D01*
X49467167Y-30573296D01*
X49434937Y-30543030D01*
X49427991Y-30539211D01*
X49427988Y-30539209D01*
X49417182Y-30533268D01*
X49400663Y-30522417D01*
X49400199Y-30522057D01*
X49384657Y-30510002D01*
X49377388Y-30506857D01*
X49377384Y-30506854D01*
X49344079Y-30492442D01*
X49333429Y-30487225D01*
X49294676Y-30465921D01*
X49275053Y-30460883D01*
X49256350Y-30454479D01*
X49245036Y-30449583D01*
X49245035Y-30449583D01*
X49237761Y-30446435D01*
X49229938Y-30445196D01*
X49229928Y-30445193D01*
X49194092Y-30439517D01*
X49182472Y-30437111D01*
X49147327Y-30428088D01*
X49147326Y-30428088D01*
X49139646Y-30426116D01*
X49119392Y-30426116D01*
X49099681Y-30424565D01*
X49087502Y-30422636D01*
X49079673Y-30421396D01*
X49071781Y-30422142D01*
X49035655Y-30425557D01*
X49023797Y-30426116D01*
X48075908Y-30426116D01*
X48007787Y-30406114D01*
X47961294Y-30352458D01*
X47949908Y-30300116D01*
X47949908Y-30161482D01*
X47943153Y-30099300D01*
X47892023Y-29962911D01*
X47804669Y-29846355D01*
X47688113Y-29759001D01*
X47551724Y-29707871D01*
X47489542Y-29701116D01*
X47475908Y-29701116D01*
X47407787Y-29681114D01*
X47361294Y-29627458D01*
X47349908Y-29575116D01*
X47349908Y-26482069D01*
X47369910Y-26413948D01*
X47386813Y-26392974D01*
X47467749Y-26312038D01*
X47480700Y-26293543D01*
X47590899Y-26136162D01*
X47590900Y-26136160D01*
X47594056Y-26131653D01*
X47596379Y-26126671D01*
X47596382Y-26126666D01*
X47658936Y-25992517D01*
X47687120Y-25932076D01*
X47744115Y-25719371D01*
X47763307Y-25500000D01*
X47744115Y-25280629D01*
X47687120Y-25067924D01*
X47643585Y-24974562D01*
X47596382Y-24873334D01*
X47596379Y-24873329D01*
X47594056Y-24868347D01*
X47561185Y-24821402D01*
X47470908Y-24692473D01*
X47470906Y-24692470D01*
X47467749Y-24687962D01*
X47312038Y-24532251D01*
X47302706Y-24525716D01*
X47232759Y-24476739D01*
X47131654Y-24405944D01*
X47044034Y-24365086D01*
X46937059Y-24315203D01*
X46937053Y-24315201D01*
X46932076Y-24312880D01*
X46926768Y-24311458D01*
X46926766Y-24311457D01*
X46895848Y-24303173D01*
X46851888Y-24291394D01*
X46791266Y-24254442D01*
X46760245Y-24190582D01*
X46758500Y-24169687D01*
X46758500Y-12567070D01*
X46759933Y-12548120D01*
X46762099Y-12533885D01*
X46762099Y-12533881D01*
X46763199Y-12526651D01*
X46758915Y-12473982D01*
X46758500Y-12463767D01*
X46758500Y-12455707D01*
X46755209Y-12427480D01*
X46754778Y-12423121D01*
X46749453Y-12357660D01*
X46748860Y-12350364D01*
X46746605Y-12343403D01*
X46745418Y-12337463D01*
X46744029Y-12331588D01*
X46743182Y-12324319D01*
X46718264Y-12255670D01*
X46716847Y-12251542D01*
X46696607Y-12189064D01*
X46696606Y-12189062D01*
X46694351Y-12182101D01*
X46690555Y-12175846D01*
X46688049Y-12170372D01*
X46685330Y-12164942D01*
X46682833Y-12158063D01*
X46642814Y-12097024D01*
X46640467Y-12093305D01*
X46602595Y-12030893D01*
X46595197Y-12022516D01*
X46595224Y-12022492D01*
X46592571Y-12019500D01*
X46589868Y-12016267D01*
X46585856Y-12010148D01*
X46529617Y-11956872D01*
X46527175Y-11954494D01*
X44083770Y-9511089D01*
X44071384Y-9496677D01*
X44062851Y-9485082D01*
X44062846Y-9485077D01*
X44058508Y-9479182D01*
X44052930Y-9474443D01*
X44052927Y-9474440D01*
X44018232Y-9444965D01*
X44010716Y-9438035D01*
X44005021Y-9432340D01*
X43998880Y-9427482D01*
X43982749Y-9414719D01*
X43979345Y-9411928D01*
X43929297Y-9369409D01*
X43929295Y-9369408D01*
X43923715Y-9364667D01*
X43917199Y-9361339D01*
X43912150Y-9357972D01*
X43907021Y-9354805D01*
X43901284Y-9350266D01*
X43835125Y-9319345D01*
X43831225Y-9317439D01*
X43766192Y-9284231D01*
X43759084Y-9282492D01*
X43753441Y-9280393D01*
X43747678Y-9278476D01*
X43741050Y-9275378D01*
X43669583Y-9260513D01*
X43665299Y-9259543D01*
X43594390Y-9242192D01*
X43588788Y-9241844D01*
X43588785Y-9241844D01*
X43583236Y-9241500D01*
X43583238Y-9241464D01*
X43579245Y-9241225D01*
X43575053Y-9240851D01*
X43567885Y-9239360D01*
X43501675Y-9241151D01*
X43490479Y-9241454D01*
X43487072Y-9241500D01*
X39366371Y-9241500D01*
X39298250Y-9221498D01*
X39277276Y-9204595D01*
X38083770Y-8011089D01*
X38071384Y-7996677D01*
X38062851Y-7985082D01*
X38062846Y-7985077D01*
X38058508Y-7979182D01*
X38052930Y-7974443D01*
X38052927Y-7974440D01*
X38018232Y-7944965D01*
X38010716Y-7938035D01*
X38005021Y-7932340D01*
X37998880Y-7927482D01*
X37982749Y-7914719D01*
X37979345Y-7911928D01*
X37929297Y-7869409D01*
X37929295Y-7869408D01*
X37923715Y-7864667D01*
X37917199Y-7861339D01*
X37912150Y-7857972D01*
X37907021Y-7854805D01*
X37901284Y-7850266D01*
X37835125Y-7819345D01*
X37831225Y-7817439D01*
X37766192Y-7784231D01*
X37759084Y-7782492D01*
X37753441Y-7780393D01*
X37747678Y-7778476D01*
X37741050Y-7775378D01*
X37669583Y-7760513D01*
X37665299Y-7759543D01*
X37594390Y-7742192D01*
X37588788Y-7741844D01*
X37588785Y-7741844D01*
X37583236Y-7741500D01*
X37583238Y-7741464D01*
X37579245Y-7741225D01*
X37575053Y-7740851D01*
X37567885Y-7739360D01*
X37501675Y-7741151D01*
X37490479Y-7741454D01*
X37487072Y-7741500D01*
X36795879Y-7741500D01*
X36727758Y-7721498D01*
X36681265Y-7667842D01*
X36676356Y-7655377D01*
X36643870Y-7558007D01*
X36643868Y-7558002D01*
X36641550Y-7551054D01*
X36548478Y-7400652D01*
X36423303Y-7275695D01*
X36417072Y-7271854D01*
X36278968Y-7186725D01*
X36278966Y-7186724D01*
X36272738Y-7182885D01*
X36112254Y-7129655D01*
X36111389Y-7129368D01*
X36111387Y-7129368D01*
X36104861Y-7127203D01*
X36098025Y-7126503D01*
X36098022Y-7126502D01*
X36054969Y-7122091D01*
X36000400Y-7116500D01*
X35099600Y-7116500D01*
X35096354Y-7116837D01*
X35096350Y-7116837D01*
X35000692Y-7126762D01*
X35000688Y-7126763D01*
X34993834Y-7127474D01*
X34987298Y-7129655D01*
X34987296Y-7129655D01*
X34855194Y-7173728D01*
X34826054Y-7183450D01*
X34675652Y-7276522D01*
X34550695Y-7401697D01*
X34457885Y-7552262D01*
X34402203Y-7720139D01*
X34401503Y-7726975D01*
X34401502Y-7726978D01*
X34400019Y-7741454D01*
X34391500Y-7824600D01*
X34391500Y-9175400D01*
X34391837Y-9178646D01*
X34391837Y-9178650D01*
X34401719Y-9273888D01*
X34402474Y-9281166D01*
X34404655Y-9287702D01*
X34404655Y-9287704D01*
X34428300Y-9358577D01*
X34458450Y-9448946D01*
X34551522Y-9599348D01*
X34676697Y-9724305D01*
X34682927Y-9728145D01*
X34682928Y-9728146D01*
X34820090Y-9812694D01*
X34827262Y-9817115D01*
X34907005Y-9843564D01*
X34988611Y-9870632D01*
X34988613Y-9870632D01*
X34995139Y-9872797D01*
X35001975Y-9873497D01*
X35001978Y-9873498D01*
X35045031Y-9877909D01*
X35099600Y-9883500D01*
X36000400Y-9883500D01*
X36003646Y-9883163D01*
X36003650Y-9883163D01*
X36099308Y-9873238D01*
X36099312Y-9873237D01*
X36106166Y-9872526D01*
X36112702Y-9870345D01*
X36112704Y-9870345D01*
X36244806Y-9826272D01*
X36273946Y-9816550D01*
X36424348Y-9723478D01*
X36549305Y-9598303D01*
X36607222Y-9504345D01*
X36638275Y-9453968D01*
X36638276Y-9453966D01*
X36642115Y-9447738D01*
X36674445Y-9350266D01*
X36676247Y-9344833D01*
X36716678Y-9286473D01*
X36782242Y-9259236D01*
X36795840Y-9258500D01*
X37133629Y-9258500D01*
X37201750Y-9278502D01*
X37222724Y-9295405D01*
X38093916Y-10166597D01*
X38127942Y-10228909D01*
X38122877Y-10299724D01*
X38080330Y-10356560D01*
X38013810Y-10381371D01*
X38004821Y-10381692D01*
X31506563Y-10381692D01*
X31438442Y-10361690D01*
X31417468Y-10344787D01*
X30330312Y-9257631D01*
X30296286Y-9195319D01*
X30301351Y-9124504D01*
X30343898Y-9067668D01*
X30410418Y-9042857D01*
X30479792Y-9057948D01*
X30497583Y-9069721D01*
X30517251Y-9085281D01*
X30520655Y-9088072D01*
X30570703Y-9130591D01*
X30576285Y-9135333D01*
X30582801Y-9138661D01*
X30587850Y-9142028D01*
X30592979Y-9145195D01*
X30598716Y-9149734D01*
X30664875Y-9180655D01*
X30668769Y-9182558D01*
X30733808Y-9215769D01*
X30740916Y-9217508D01*
X30746559Y-9219607D01*
X30752322Y-9221524D01*
X30758950Y-9224622D01*
X30766112Y-9226112D01*
X30766113Y-9226112D01*
X30830412Y-9239486D01*
X30834696Y-9240456D01*
X30905610Y-9257808D01*
X30911212Y-9258156D01*
X30911215Y-9258156D01*
X30916764Y-9258500D01*
X30916762Y-9258536D01*
X30920755Y-9258775D01*
X30924947Y-9259149D01*
X30932115Y-9260640D01*
X31009520Y-9258546D01*
X31012928Y-9258500D01*
X31204121Y-9258500D01*
X31272242Y-9278502D01*
X31318735Y-9332158D01*
X31323644Y-9344623D01*
X31355729Y-9440790D01*
X31358450Y-9448946D01*
X31451522Y-9599348D01*
X31576697Y-9724305D01*
X31582927Y-9728145D01*
X31582928Y-9728146D01*
X31720090Y-9812694D01*
X31727262Y-9817115D01*
X31807005Y-9843564D01*
X31888611Y-9870632D01*
X31888613Y-9870632D01*
X31895139Y-9872797D01*
X31901975Y-9873497D01*
X31901978Y-9873498D01*
X31945031Y-9877909D01*
X31999600Y-9883500D01*
X32900400Y-9883500D01*
X32903646Y-9883163D01*
X32903650Y-9883163D01*
X32999308Y-9873238D01*
X32999312Y-9873237D01*
X33006166Y-9872526D01*
X33012702Y-9870345D01*
X33012704Y-9870345D01*
X33144806Y-9826272D01*
X33173946Y-9816550D01*
X33324348Y-9723478D01*
X33449305Y-9598303D01*
X33507222Y-9504345D01*
X33538275Y-9453968D01*
X33538276Y-9453966D01*
X33542115Y-9447738D01*
X33585333Y-9317439D01*
X33595632Y-9286389D01*
X33595632Y-9286387D01*
X33597797Y-9279861D01*
X33599767Y-9260640D01*
X33608172Y-9178598D01*
X33608500Y-9175400D01*
X33608500Y-7824600D01*
X33608163Y-7821350D01*
X33598238Y-7725692D01*
X33598237Y-7725688D01*
X33597526Y-7718834D01*
X33541550Y-7551054D01*
X33448478Y-7400652D01*
X33323303Y-7275695D01*
X33317072Y-7271854D01*
X33178968Y-7186725D01*
X33178966Y-7186724D01*
X33172738Y-7182885D01*
X33012254Y-7129655D01*
X33011389Y-7129368D01*
X33011387Y-7129368D01*
X33004861Y-7127203D01*
X32998025Y-7126503D01*
X32998022Y-7126502D01*
X32954969Y-7122091D01*
X32900400Y-7116500D01*
X31999600Y-7116500D01*
X31996354Y-7116837D01*
X31996350Y-7116837D01*
X31900692Y-7126762D01*
X31900688Y-7126763D01*
X31893834Y-7127474D01*
X31887298Y-7129655D01*
X31887296Y-7129655D01*
X31755194Y-7173728D01*
X31726054Y-7183450D01*
X31575652Y-7276522D01*
X31450695Y-7401697D01*
X31357885Y-7552262D01*
X31357528Y-7552042D01*
X31313583Y-7601957D01*
X31245307Y-7621423D01*
X31177346Y-7600886D01*
X31157203Y-7584522D01*
X28828770Y-5256089D01*
X28816384Y-5241677D01*
X28807851Y-5230082D01*
X28807846Y-5230077D01*
X28803508Y-5224182D01*
X28797930Y-5219443D01*
X28797927Y-5219440D01*
X28763232Y-5189965D01*
X28755716Y-5183035D01*
X28750021Y-5177340D01*
X28743880Y-5172482D01*
X28727749Y-5159719D01*
X28724345Y-5156928D01*
X28674297Y-5114409D01*
X28674295Y-5114408D01*
X28668715Y-5109667D01*
X28662199Y-5106339D01*
X28657150Y-5102972D01*
X28652021Y-5099805D01*
X28646284Y-5095266D01*
X28580125Y-5064345D01*
X28576225Y-5062439D01*
X28568511Y-5058500D01*
X28511192Y-5029231D01*
X28504084Y-5027492D01*
X28498441Y-5025393D01*
X28492678Y-5023476D01*
X28486050Y-5020378D01*
X28414583Y-5005513D01*
X28410299Y-5004543D01*
X28339390Y-4987192D01*
X28333788Y-4986844D01*
X28333785Y-4986844D01*
X28328236Y-4986500D01*
X28328238Y-4986464D01*
X28324245Y-4986225D01*
X28320053Y-4985851D01*
X28312885Y-4984360D01*
X28246675Y-4986151D01*
X28235479Y-4986454D01*
X28232072Y-4986500D01*
X27358355Y-4986500D01*
X27290234Y-4966498D01*
X27243741Y-4912842D01*
X27233586Y-4849963D01*
X27232947Y-4849928D01*
X27233106Y-4846993D01*
X27233091Y-4846900D01*
X27233131Y-4846533D01*
X27233131Y-4846529D01*
X27233500Y-4843134D01*
X27233500Y-4046866D01*
X27226745Y-3984684D01*
X27223973Y-3977288D01*
X27223971Y-3977282D01*
X27190961Y-3889229D01*
X27185778Y-3818422D01*
X27190961Y-3800771D01*
X27223971Y-3712718D01*
X27223973Y-3712712D01*
X27226745Y-3705316D01*
X27233500Y-3643134D01*
X27233500Y-2846866D01*
X27226745Y-2784684D01*
X27175615Y-2648295D01*
X27088261Y-2531739D01*
X26971705Y-2444385D01*
X26835316Y-2393255D01*
X26773134Y-2386500D01*
X26209000Y-2386500D01*
X26140879Y-2366498D01*
X26094386Y-2312842D01*
X26083000Y-2260500D01*
X26083000Y-2122115D01*
X26078525Y-2106876D01*
X26077135Y-2105671D01*
X26069452Y-2104000D01*
X24447115Y-2104000D01*
X24431876Y-2108475D01*
X24430671Y-2109865D01*
X24429000Y-2117548D01*
X24429000Y-3089884D01*
X24433475Y-3105123D01*
X24434865Y-3106328D01*
X24442548Y-3107999D01*
X24590500Y-3107999D01*
X24658621Y-3128001D01*
X24705114Y-3181657D01*
X24716500Y-3233999D01*
X24716500Y-3643134D01*
X24723255Y-3705316D01*
X24726027Y-3712712D01*
X24726029Y-3712718D01*
X24759039Y-3800771D01*
X24764222Y-3871578D01*
X24759039Y-3889229D01*
X24726029Y-3977282D01*
X24726027Y-3977288D01*
X24723255Y-3984684D01*
X24716500Y-4046866D01*
X24716500Y-4843134D01*
X24723255Y-4905316D01*
X24726027Y-4912709D01*
X24726027Y-4912711D01*
X24749667Y-4975771D01*
X24754850Y-5046578D01*
X24749667Y-5064229D01*
X24726027Y-5127289D01*
X24723255Y-5134684D01*
X24722402Y-5142532D01*
X24722402Y-5142534D01*
X24720684Y-5158350D01*
X24716500Y-5196866D01*
X24716500Y-6293134D01*
X24723255Y-6355316D01*
X24774385Y-6491705D01*
X24779771Y-6498891D01*
X24795168Y-6519436D01*
X24820015Y-6585943D01*
X24804961Y-6655325D01*
X24795168Y-6670564D01*
X24774385Y-6698295D01*
X24723255Y-6834684D01*
X24716500Y-6896866D01*
X24716500Y-7993134D01*
X24723255Y-8055316D01*
X24774385Y-8191705D01*
X24861739Y-8308261D01*
X24978295Y-8395615D01*
X25114684Y-8446745D01*
X25176866Y-8453500D01*
X26773134Y-8453500D01*
X26835316Y-8446745D01*
X26971705Y-8395615D01*
X27085055Y-8310663D01*
X27151560Y-8285816D01*
X27220942Y-8300869D01*
X27249714Y-8322395D01*
X30328724Y-11401405D01*
X30362750Y-11463717D01*
X30357685Y-11534532D01*
X30315138Y-11591368D01*
X30248618Y-11616179D01*
X30239629Y-11616500D01*
X27229802Y-11616500D01*
X27161681Y-11596498D01*
X27128976Y-11566065D01*
X27093642Y-11518919D01*
X27088261Y-11511739D01*
X26971705Y-11424385D01*
X26835316Y-11373255D01*
X26773134Y-11366500D01*
X25176866Y-11366500D01*
X25114684Y-11373255D01*
X24978295Y-11424385D01*
X24861739Y-11511739D01*
X24774385Y-11628295D01*
X24723255Y-11764684D01*
X24716500Y-11826866D01*
X24716500Y-12923134D01*
X24723255Y-12985316D01*
X24774385Y-13121705D01*
X24861739Y-13238261D01*
X24978295Y-13325615D01*
X25114684Y-13376745D01*
X25176866Y-13383500D01*
X26773134Y-13383500D01*
X26835316Y-13376745D01*
X26971705Y-13325615D01*
X27088261Y-13238261D01*
X27128976Y-13183935D01*
X27185835Y-13141420D01*
X27229802Y-13133500D01*
X42008629Y-13133500D01*
X42076750Y-13153502D01*
X42097724Y-13170405D01*
X42704595Y-13777276D01*
X42738621Y-13839588D01*
X42741500Y-13866371D01*
X42741500Y-24679298D01*
X42721498Y-24747419D01*
X42667842Y-24793912D01*
X42597568Y-24804016D01*
X42532988Y-24774522D01*
X42512287Y-24751569D01*
X42470908Y-24692473D01*
X42470906Y-24692470D01*
X42467749Y-24687962D01*
X42312038Y-24532251D01*
X42302706Y-24525716D01*
X42232759Y-24476739D01*
X42131654Y-24405944D01*
X41932076Y-24312880D01*
X41719371Y-24255885D01*
X41500000Y-24236693D01*
X41395481Y-24245837D01*
X41325877Y-24231848D01*
X41274884Y-24182448D01*
X41258500Y-24120316D01*
X41258500Y-16234658D01*
X41277240Y-16168542D01*
X41363275Y-16028968D01*
X41363276Y-16028966D01*
X41367115Y-16022738D01*
X41415256Y-15877598D01*
X41420632Y-15861389D01*
X41420632Y-15861387D01*
X41422797Y-15854861D01*
X41424108Y-15842072D01*
X41433172Y-15753598D01*
X41433500Y-15750400D01*
X41433500Y-14249600D01*
X41426175Y-14179000D01*
X41423238Y-14150692D01*
X41423237Y-14150688D01*
X41422526Y-14143834D01*
X41414945Y-14121109D01*
X41368868Y-13983002D01*
X41366550Y-13976054D01*
X41273478Y-13825652D01*
X41148303Y-13700695D01*
X41115672Y-13680581D01*
X41003968Y-13611725D01*
X41003966Y-13611724D01*
X40997738Y-13607885D01*
X40837254Y-13554655D01*
X40836389Y-13554368D01*
X40836387Y-13554368D01*
X40829861Y-13552203D01*
X40823025Y-13551503D01*
X40823022Y-13551502D01*
X40779969Y-13547091D01*
X40725400Y-13541500D01*
X39674600Y-13541500D01*
X39671354Y-13541837D01*
X39671350Y-13541837D01*
X39575692Y-13551762D01*
X39575688Y-13551763D01*
X39568834Y-13552474D01*
X39562298Y-13554655D01*
X39562296Y-13554655D01*
X39430194Y-13598728D01*
X39401054Y-13608450D01*
X39250652Y-13701522D01*
X39125695Y-13826697D01*
X39121855Y-13832927D01*
X39121854Y-13832928D01*
X39100933Y-13866869D01*
X39032885Y-13977262D01*
X38977203Y-14145139D01*
X38966500Y-14249600D01*
X38966500Y-15750400D01*
X38966837Y-15753646D01*
X38966837Y-15753650D01*
X38976012Y-15842072D01*
X38977474Y-15856166D01*
X38979655Y-15862702D01*
X38979655Y-15862704D01*
X39008272Y-15948478D01*
X39033450Y-16023946D01*
X39126522Y-16174348D01*
X39251697Y-16299305D01*
X39257927Y-16303145D01*
X39257928Y-16303146D01*
X39395090Y-16387694D01*
X39402262Y-16392115D01*
X39482005Y-16418564D01*
X39563611Y-16445632D01*
X39563613Y-16445632D01*
X39570139Y-16447797D01*
X39576975Y-16448497D01*
X39576978Y-16448498D01*
X39628344Y-16453761D01*
X39694071Y-16480603D01*
X39734852Y-16538718D01*
X39741500Y-16579105D01*
X39741500Y-24429198D01*
X39721498Y-24497319D01*
X39696496Y-24525716D01*
X39692473Y-24529092D01*
X39687962Y-24532251D01*
X39532251Y-24687962D01*
X39529094Y-24692470D01*
X39529092Y-24692473D01*
X39438815Y-24821402D01*
X39405944Y-24868347D01*
X39403621Y-24873329D01*
X39403618Y-24873334D01*
X39356415Y-24974562D01*
X39312880Y-25067924D01*
X39255885Y-25280629D01*
X39255406Y-25286105D01*
X39247048Y-25381638D01*
X39221185Y-25447756D01*
X39163681Y-25489395D01*
X39092794Y-25493336D01*
X39032432Y-25459751D01*
X35083770Y-21511089D01*
X35071384Y-21496677D01*
X35062851Y-21485082D01*
X35062846Y-21485077D01*
X35058508Y-21479182D01*
X35052930Y-21474443D01*
X35052927Y-21474440D01*
X35018232Y-21444965D01*
X35010716Y-21438035D01*
X35005021Y-21432340D01*
X34990982Y-21421233D01*
X34982749Y-21414719D01*
X34979345Y-21411928D01*
X34929297Y-21369409D01*
X34929295Y-21369408D01*
X34923715Y-21364667D01*
X34917199Y-21361339D01*
X34912150Y-21357972D01*
X34907021Y-21354805D01*
X34901284Y-21350266D01*
X34835125Y-21319345D01*
X34831225Y-21317439D01*
X34766192Y-21284231D01*
X34759084Y-21282492D01*
X34753441Y-21280393D01*
X34747678Y-21278476D01*
X34741050Y-21275378D01*
X34669583Y-21260513D01*
X34665299Y-21259543D01*
X34594390Y-21242192D01*
X34588788Y-21241844D01*
X34588785Y-21241844D01*
X34583236Y-21241500D01*
X34583238Y-21241464D01*
X34579245Y-21241225D01*
X34575053Y-21240851D01*
X34567885Y-21239360D01*
X34501675Y-21241151D01*
X34490479Y-21241454D01*
X34487072Y-21241500D01*
X28466371Y-21241500D01*
X28398250Y-21221498D01*
X28377276Y-21204595D01*
X27270405Y-20097724D01*
X27236379Y-20035412D01*
X27233500Y-20008629D01*
X27233500Y-19326866D01*
X27226745Y-19264684D01*
X27175615Y-19128295D01*
X27088261Y-19011739D01*
X26971705Y-18924385D01*
X26835316Y-18873255D01*
X26773134Y-18866500D01*
X25176866Y-18866500D01*
X25114684Y-18873255D01*
X24978295Y-18924385D01*
X24861739Y-19011739D01*
X24774385Y-19128295D01*
X24723255Y-19264684D01*
X24716500Y-19326866D01*
X24716500Y-20423134D01*
X24723255Y-20485316D01*
X24774385Y-20621705D01*
X24861739Y-20738261D01*
X24978295Y-20825615D01*
X25114684Y-20876745D01*
X25176866Y-20883500D01*
X25858629Y-20883500D01*
X25926750Y-20903502D01*
X25947724Y-20920405D01*
X26178724Y-21151405D01*
X26212750Y-21213717D01*
X26207685Y-21284532D01*
X26165138Y-21341368D01*
X26098618Y-21366179D01*
X26089629Y-21366500D01*
X25176866Y-21366500D01*
X25114684Y-21373255D01*
X24978295Y-21424385D01*
X24861739Y-21511739D01*
X24774385Y-21628295D01*
X24723255Y-21764684D01*
X24716500Y-21826866D01*
X24716500Y-22923134D01*
X24723255Y-22985316D01*
X24774385Y-23121705D01*
X24861739Y-23238261D01*
X24978295Y-23325615D01*
X25114684Y-23376745D01*
X25176866Y-23383500D01*
X25858629Y-23383500D01*
X25926750Y-23403502D01*
X25947724Y-23420405D01*
X26016230Y-23488911D01*
X26028616Y-23503323D01*
X26037149Y-23514918D01*
X26037154Y-23514923D01*
X26041492Y-23520818D01*
X26047070Y-23525557D01*
X26047073Y-23525560D01*
X26081768Y-23555035D01*
X26089284Y-23561965D01*
X26094979Y-23567660D01*
X26097861Y-23569940D01*
X26117251Y-23585281D01*
X26120655Y-23588072D01*
X26170700Y-23630589D01*
X26170705Y-23630592D01*
X26176285Y-23635333D01*
X26179348Y-23636897D01*
X26223898Y-23690110D01*
X26232808Y-23760546D01*
X26202223Y-23824617D01*
X26141854Y-23861981D01*
X26108413Y-23866500D01*
X25176866Y-23866500D01*
X25114684Y-23873255D01*
X24978295Y-23924385D01*
X24861739Y-24011739D01*
X24774385Y-24128295D01*
X24723255Y-24264684D01*
X24716500Y-24326866D01*
X24716500Y-24740720D01*
X24696498Y-24808841D01*
X24642842Y-24855334D01*
X24572568Y-24865438D01*
X24507988Y-24835944D01*
X24469604Y-24776218D01*
X24468593Y-24771900D01*
X24468543Y-24771913D01*
X24410707Y-24556067D01*
X24410706Y-24556065D01*
X24409284Y-24550757D01*
X24406961Y-24545775D01*
X24314849Y-24348238D01*
X24314846Y-24348233D01*
X24312523Y-24343251D01*
X24234518Y-24231848D01*
X24184357Y-24160211D01*
X24184355Y-24160208D01*
X24181198Y-24155700D01*
X24019300Y-23993802D01*
X24014792Y-23990645D01*
X24014789Y-23990643D01*
X23936611Y-23935902D01*
X23831749Y-23862477D01*
X23826767Y-23860154D01*
X23826762Y-23860151D01*
X23629225Y-23768039D01*
X23629224Y-23768039D01*
X23624243Y-23765716D01*
X23618935Y-23764294D01*
X23618933Y-23764293D01*
X23408402Y-23707881D01*
X23408400Y-23707881D01*
X23403087Y-23706457D01*
X23303520Y-23697746D01*
X23234851Y-23691738D01*
X23234844Y-23691738D01*
X23232127Y-23691500D01*
X23117873Y-23691500D01*
X23115156Y-23691738D01*
X23115149Y-23691738D01*
X23046480Y-23697746D01*
X22946913Y-23706457D01*
X22941600Y-23707881D01*
X22941598Y-23707881D01*
X22731067Y-23764293D01*
X22731065Y-23764294D01*
X22725757Y-23765716D01*
X22720776Y-23768039D01*
X22720775Y-23768039D01*
X22523238Y-23860151D01*
X22523233Y-23860154D01*
X22518251Y-23862477D01*
X22413389Y-23935902D01*
X22335211Y-23990643D01*
X22335208Y-23990645D01*
X22330700Y-23993802D01*
X22290095Y-24034407D01*
X22227783Y-24068433D01*
X22156968Y-24063368D01*
X22100132Y-24020821D01*
X22075321Y-23954301D01*
X22075000Y-23945312D01*
X22075000Y-18522095D01*
X27592001Y-18522095D01*
X27592338Y-18528614D01*
X27602257Y-18624206D01*
X27605149Y-18637600D01*
X27656588Y-18791784D01*
X27662761Y-18804962D01*
X27748063Y-18942807D01*
X27757099Y-18954208D01*
X27871829Y-19068739D01*
X27883240Y-19077751D01*
X28021243Y-19162816D01*
X28034424Y-19168963D01*
X28188710Y-19220138D01*
X28202086Y-19223005D01*
X28296438Y-19232672D01*
X28302854Y-19233000D01*
X28727885Y-19233000D01*
X28743124Y-19228525D01*
X28744329Y-19227135D01*
X28746000Y-19219452D01*
X28746000Y-19214884D01*
X29254000Y-19214884D01*
X29258475Y-19230123D01*
X29259865Y-19231328D01*
X29267548Y-19232999D01*
X29697095Y-19232999D01*
X29703614Y-19232662D01*
X29799206Y-19222743D01*
X29812600Y-19219851D01*
X29966784Y-19168412D01*
X29979962Y-19162239D01*
X30117807Y-19076937D01*
X30129208Y-19067901D01*
X30243739Y-18953171D01*
X30252751Y-18941760D01*
X30337816Y-18803757D01*
X30343963Y-18790576D01*
X30383262Y-18672096D01*
X30817000Y-18672096D01*
X30817337Y-18678611D01*
X30827256Y-18774203D01*
X30830150Y-18787602D01*
X30881588Y-18941783D01*
X30887762Y-18954962D01*
X30973063Y-19092807D01*
X30982099Y-19104208D01*
X31096830Y-19218739D01*
X31108241Y-19227751D01*
X31246245Y-19312818D01*
X31259423Y-19318962D01*
X31413716Y-19370139D01*
X31427081Y-19373005D01*
X31521439Y-19382672D01*
X31527855Y-19383000D01*
X32227885Y-19383000D01*
X32243124Y-19378525D01*
X32244329Y-19377135D01*
X32246000Y-19369452D01*
X32246000Y-19364885D01*
X32754000Y-19364885D01*
X32758475Y-19380124D01*
X32759865Y-19381329D01*
X32767548Y-19383000D01*
X33472096Y-19383000D01*
X33478611Y-19382663D01*
X33574203Y-19372744D01*
X33587602Y-19369850D01*
X33741783Y-19318412D01*
X33754962Y-19312238D01*
X33892807Y-19226937D01*
X33904208Y-19217901D01*
X34018739Y-19103170D01*
X34027751Y-19091759D01*
X34112818Y-18953755D01*
X34118962Y-18940577D01*
X34170139Y-18786284D01*
X34173005Y-18772919D01*
X34182672Y-18678561D01*
X34183000Y-18672145D01*
X34183000Y-18397115D01*
X34178525Y-18381876D01*
X34177135Y-18380671D01*
X34169452Y-18379000D01*
X32772115Y-18379000D01*
X32756876Y-18383475D01*
X32755671Y-18384865D01*
X32754000Y-18392548D01*
X32754000Y-19364885D01*
X32246000Y-19364885D01*
X32246000Y-18397115D01*
X32241525Y-18381876D01*
X32240135Y-18380671D01*
X32232452Y-18379000D01*
X30835115Y-18379000D01*
X30819876Y-18383475D01*
X30818671Y-18384865D01*
X30817000Y-18392548D01*
X30817000Y-18672096D01*
X30383262Y-18672096D01*
X30395138Y-18636290D01*
X30398005Y-18622914D01*
X30407672Y-18528562D01*
X30408000Y-18522146D01*
X30408000Y-18334615D01*
X30403525Y-18319376D01*
X30402135Y-18318171D01*
X30394452Y-18316500D01*
X29272115Y-18316500D01*
X29256876Y-18320975D01*
X29255671Y-18322365D01*
X29254000Y-18330048D01*
X29254000Y-19214884D01*
X28746000Y-19214884D01*
X28746000Y-18334615D01*
X28741525Y-18319376D01*
X28740135Y-18318171D01*
X28732452Y-18316500D01*
X27610116Y-18316500D01*
X27594877Y-18320975D01*
X27593672Y-18322365D01*
X27592001Y-18330048D01*
X27592001Y-18522095D01*
X22075000Y-18522095D01*
X22075000Y-17919669D01*
X24717001Y-17919669D01*
X24717371Y-17926490D01*
X24722895Y-17977352D01*
X24726521Y-17992604D01*
X24771676Y-18113054D01*
X24780214Y-18128649D01*
X24856715Y-18230724D01*
X24869276Y-18243285D01*
X24971351Y-18319786D01*
X24986946Y-18328324D01*
X25107394Y-18373478D01*
X25122649Y-18377105D01*
X25173514Y-18382631D01*
X25180328Y-18383000D01*
X25702885Y-18383000D01*
X25718124Y-18378525D01*
X25719329Y-18377135D01*
X25721000Y-18369452D01*
X25721000Y-18364884D01*
X26229000Y-18364884D01*
X26233475Y-18380123D01*
X26234865Y-18381328D01*
X26242548Y-18382999D01*
X26769669Y-18382999D01*
X26776490Y-18382629D01*
X26827352Y-18377105D01*
X26842604Y-18373479D01*
X26963054Y-18328324D01*
X26978649Y-18319786D01*
X27080724Y-18243285D01*
X27093285Y-18230724D01*
X27169786Y-18128649D01*
X27178324Y-18113054D01*
X27223478Y-17992606D01*
X27227105Y-17977351D01*
X27232631Y-17926486D01*
X27233000Y-17919672D01*
X27233000Y-17852885D01*
X30817000Y-17852885D01*
X30821475Y-17868124D01*
X30822865Y-17869329D01*
X30830548Y-17871000D01*
X32227885Y-17871000D01*
X32243124Y-17866525D01*
X32244329Y-17865135D01*
X32246000Y-17857452D01*
X32246000Y-17852885D01*
X32754000Y-17852885D01*
X32758475Y-17868124D01*
X32759865Y-17869329D01*
X32767548Y-17871000D01*
X34164885Y-17871000D01*
X34180124Y-17866525D01*
X34181329Y-17865135D01*
X34183000Y-17857452D01*
X34183000Y-17577904D01*
X34182663Y-17571389D01*
X34172744Y-17475797D01*
X34169850Y-17462398D01*
X34118412Y-17308217D01*
X34112238Y-17295038D01*
X34026937Y-17157193D01*
X34017901Y-17145792D01*
X33903170Y-17031261D01*
X33891759Y-17022249D01*
X33753755Y-16937182D01*
X33740577Y-16931038D01*
X33586284Y-16879861D01*
X33572919Y-16876995D01*
X33478561Y-16867328D01*
X33472144Y-16867000D01*
X32772115Y-16867000D01*
X32756876Y-16871475D01*
X32755671Y-16872865D01*
X32754000Y-16880548D01*
X32754000Y-17852885D01*
X32246000Y-17852885D01*
X32246000Y-16885115D01*
X32241525Y-16869876D01*
X32240135Y-16868671D01*
X32232452Y-16867000D01*
X31527904Y-16867000D01*
X31521389Y-16867337D01*
X31425797Y-16877256D01*
X31412398Y-16880150D01*
X31258217Y-16931588D01*
X31245038Y-16937762D01*
X31107193Y-17023063D01*
X31095792Y-17032099D01*
X30981261Y-17146830D01*
X30972249Y-17158241D01*
X30887182Y-17296245D01*
X30881038Y-17309423D01*
X30829861Y-17463716D01*
X30826995Y-17477081D01*
X30817328Y-17571439D01*
X30817000Y-17577856D01*
X30817000Y-17852885D01*
X27233000Y-17852885D01*
X27233000Y-17790385D01*
X27592000Y-17790385D01*
X27596475Y-17805624D01*
X27597865Y-17806829D01*
X27605548Y-17808500D01*
X28727885Y-17808500D01*
X28743124Y-17804025D01*
X28744329Y-17802635D01*
X28746000Y-17794952D01*
X28746000Y-17790385D01*
X29254000Y-17790385D01*
X29258475Y-17805624D01*
X29259865Y-17806829D01*
X29267548Y-17808500D01*
X30389884Y-17808500D01*
X30405123Y-17804025D01*
X30406328Y-17802635D01*
X30407999Y-17794952D01*
X30407999Y-17602905D01*
X30407661Y-17596377D01*
X30397743Y-17500794D01*
X30394851Y-17487400D01*
X30343412Y-17333216D01*
X30337239Y-17320038D01*
X30251937Y-17182193D01*
X30242901Y-17170792D01*
X30128171Y-17056261D01*
X30116760Y-17047249D01*
X29978757Y-16962184D01*
X29965576Y-16956037D01*
X29811290Y-16904862D01*
X29797914Y-16901995D01*
X29703562Y-16892328D01*
X29697145Y-16892000D01*
X29272115Y-16892000D01*
X29256876Y-16896475D01*
X29255671Y-16897865D01*
X29254000Y-16905548D01*
X29254000Y-17790385D01*
X28746000Y-17790385D01*
X28746000Y-16910116D01*
X28741525Y-16894877D01*
X28740135Y-16893672D01*
X28732452Y-16892001D01*
X28302905Y-16892001D01*
X28296386Y-16892338D01*
X28200794Y-16902257D01*
X28187400Y-16905149D01*
X28033216Y-16956588D01*
X28020038Y-16962761D01*
X27882193Y-17048063D01*
X27870792Y-17057099D01*
X27756261Y-17171829D01*
X27747249Y-17183240D01*
X27662184Y-17321243D01*
X27656037Y-17334424D01*
X27604862Y-17488710D01*
X27601995Y-17502086D01*
X27592328Y-17596438D01*
X27592000Y-17602855D01*
X27592000Y-17790385D01*
X27233000Y-17790385D01*
X27233000Y-17647115D01*
X27228525Y-17631876D01*
X27227135Y-17630671D01*
X27219452Y-17629000D01*
X26247115Y-17629000D01*
X26231876Y-17633475D01*
X26230671Y-17634865D01*
X26229000Y-17642548D01*
X26229000Y-18364884D01*
X25721000Y-18364884D01*
X25721000Y-17647115D01*
X25716525Y-17631876D01*
X25715135Y-17630671D01*
X25707452Y-17629000D01*
X24735116Y-17629000D01*
X24719877Y-17633475D01*
X24718672Y-17634865D01*
X24717001Y-17642548D01*
X24717001Y-17919669D01*
X22075000Y-17919669D01*
X22075000Y-17102885D01*
X24717000Y-17102885D01*
X24721475Y-17118124D01*
X24722865Y-17119329D01*
X24730548Y-17121000D01*
X25702885Y-17121000D01*
X25718124Y-17116525D01*
X25719329Y-17115135D01*
X25721000Y-17107452D01*
X25721000Y-17102885D01*
X26229000Y-17102885D01*
X26233475Y-17118124D01*
X26234865Y-17119329D01*
X26242548Y-17121000D01*
X27214884Y-17121000D01*
X27230123Y-17116525D01*
X27231328Y-17115135D01*
X27232999Y-17107452D01*
X27232999Y-16830331D01*
X27232629Y-16823510D01*
X27227105Y-16772648D01*
X27223479Y-16757396D01*
X27178324Y-16636946D01*
X27169786Y-16621351D01*
X27093285Y-16519276D01*
X27080724Y-16506715D01*
X26978649Y-16430214D01*
X26963054Y-16421676D01*
X26842606Y-16376522D01*
X26827351Y-16372895D01*
X26776486Y-16367369D01*
X26769672Y-16367000D01*
X26247115Y-16367000D01*
X26231876Y-16371475D01*
X26230671Y-16372865D01*
X26229000Y-16380548D01*
X26229000Y-17102885D01*
X25721000Y-17102885D01*
X25721000Y-16385116D01*
X25716525Y-16369877D01*
X25715135Y-16368672D01*
X25707452Y-16367001D01*
X25180331Y-16367001D01*
X25173510Y-16367371D01*
X25122648Y-16372895D01*
X25107396Y-16376521D01*
X24986946Y-16421676D01*
X24971351Y-16430214D01*
X24869276Y-16506715D01*
X24856715Y-16519276D01*
X24780214Y-16621351D01*
X24771676Y-16636946D01*
X24726522Y-16757394D01*
X24722895Y-16772649D01*
X24717369Y-16823514D01*
X24717000Y-16830328D01*
X24717000Y-17102885D01*
X22075000Y-17102885D01*
X22075000Y-15423134D01*
X24716500Y-15423134D01*
X24723255Y-15485316D01*
X24774385Y-15621705D01*
X24861739Y-15738261D01*
X24978295Y-15825615D01*
X25114684Y-15876745D01*
X25176866Y-15883500D01*
X26773134Y-15883500D01*
X26835316Y-15876745D01*
X26971705Y-15825615D01*
X27088261Y-15738261D01*
X27128976Y-15683935D01*
X27185835Y-15641420D01*
X27229802Y-15633500D01*
X27563219Y-15633500D01*
X27631340Y-15653502D01*
X27670363Y-15693197D01*
X27751522Y-15824348D01*
X27756704Y-15829521D01*
X27788628Y-15861389D01*
X27876697Y-15949305D01*
X27882927Y-15953145D01*
X27882928Y-15953146D01*
X28020090Y-16037694D01*
X28027262Y-16042115D01*
X28089306Y-16062694D01*
X28188611Y-16095632D01*
X28188613Y-16095632D01*
X28195139Y-16097797D01*
X28201975Y-16098497D01*
X28201978Y-16098498D01*
X28245031Y-16102909D01*
X28299600Y-16108500D01*
X29700400Y-16108500D01*
X29703646Y-16108163D01*
X29703650Y-16108163D01*
X29799308Y-16098238D01*
X29799312Y-16098237D01*
X29806166Y-16097526D01*
X29812702Y-16095345D01*
X29812704Y-16095345D01*
X29944806Y-16051272D01*
X29973946Y-16041550D01*
X30124348Y-15948478D01*
X30249305Y-15823303D01*
X30290863Y-15755884D01*
X30343636Y-15708390D01*
X30398123Y-15696000D01*
X30811425Y-15696000D01*
X30879546Y-15716002D01*
X30918569Y-15755697D01*
X30976522Y-15849348D01*
X31101697Y-15974305D01*
X31107927Y-15978145D01*
X31107928Y-15978146D01*
X31245090Y-16062694D01*
X31252262Y-16067115D01*
X31332005Y-16093564D01*
X31413611Y-16120632D01*
X31413613Y-16120632D01*
X31420139Y-16122797D01*
X31426975Y-16123497D01*
X31426978Y-16123498D01*
X31470031Y-16127909D01*
X31524600Y-16133500D01*
X33475400Y-16133500D01*
X33478646Y-16133163D01*
X33478650Y-16133163D01*
X33574307Y-16123238D01*
X33574311Y-16123237D01*
X33581165Y-16122526D01*
X33587701Y-16120345D01*
X33587703Y-16120345D01*
X33719805Y-16076272D01*
X33748945Y-16066550D01*
X33899348Y-15973478D01*
X34024305Y-15848303D01*
X34035883Y-15829521D01*
X34117115Y-15697738D01*
X34118795Y-15698774D01*
X34159121Y-15652969D01*
X34226405Y-15633500D01*
X34440971Y-15633500D01*
X34509092Y-15653502D01*
X34555585Y-15707158D01*
X34566177Y-15750433D01*
X34566500Y-15750400D01*
X34566837Y-15753646D01*
X34566837Y-15753650D01*
X34576012Y-15842072D01*
X34577474Y-15856166D01*
X34579655Y-15862702D01*
X34579655Y-15862704D01*
X34608272Y-15948478D01*
X34633450Y-16023946D01*
X34726522Y-16174348D01*
X34851697Y-16299305D01*
X34857927Y-16303145D01*
X34857928Y-16303146D01*
X34995090Y-16387694D01*
X35002262Y-16392115D01*
X35082005Y-16418564D01*
X35163611Y-16445632D01*
X35163613Y-16445632D01*
X35170139Y-16447797D01*
X35176975Y-16448497D01*
X35176978Y-16448498D01*
X35220031Y-16452909D01*
X35274600Y-16458500D01*
X36325400Y-16458500D01*
X36328646Y-16458163D01*
X36328650Y-16458163D01*
X36424308Y-16448238D01*
X36424312Y-16448237D01*
X36431166Y-16447526D01*
X36437702Y-16445345D01*
X36437704Y-16445345D01*
X36569806Y-16401272D01*
X36598946Y-16391550D01*
X36749348Y-16298478D01*
X36874305Y-16173303D01*
X36899048Y-16133163D01*
X36963275Y-16028968D01*
X36963276Y-16028966D01*
X36967115Y-16022738D01*
X37015256Y-15877598D01*
X37020632Y-15861389D01*
X37020632Y-15861387D01*
X37022797Y-15854861D01*
X37024108Y-15842072D01*
X37033172Y-15753598D01*
X37033500Y-15750400D01*
X37033500Y-14249600D01*
X37026175Y-14179000D01*
X37023238Y-14150692D01*
X37023237Y-14150688D01*
X37022526Y-14143834D01*
X37014945Y-14121109D01*
X36968868Y-13983002D01*
X36966550Y-13976054D01*
X36873478Y-13825652D01*
X36748303Y-13700695D01*
X36715672Y-13680581D01*
X36603968Y-13611725D01*
X36603966Y-13611724D01*
X36597738Y-13607885D01*
X36437254Y-13554655D01*
X36436389Y-13554368D01*
X36436387Y-13554368D01*
X36429861Y-13552203D01*
X36423025Y-13551503D01*
X36423022Y-13551502D01*
X36379969Y-13547091D01*
X36325400Y-13541500D01*
X35274600Y-13541500D01*
X35271354Y-13541837D01*
X35271350Y-13541837D01*
X35175692Y-13551762D01*
X35175688Y-13551763D01*
X35168834Y-13552474D01*
X35162298Y-13554655D01*
X35162296Y-13554655D01*
X35030194Y-13598728D01*
X35001054Y-13608450D01*
X34850652Y-13701522D01*
X34725695Y-13826697D01*
X34721855Y-13832927D01*
X34721854Y-13832928D01*
X34700933Y-13866869D01*
X34632885Y-13977262D01*
X34621450Y-14011739D01*
X34615337Y-14030168D01*
X34574906Y-14088527D01*
X34509342Y-14115764D01*
X34495744Y-14116500D01*
X34226387Y-14116500D01*
X34158266Y-14096498D01*
X34117816Y-14050272D01*
X34116550Y-14051055D01*
X34027332Y-13906880D01*
X34023478Y-13900652D01*
X33898303Y-13775695D01*
X33883386Y-13766500D01*
X33753968Y-13686725D01*
X33753966Y-13686724D01*
X33747738Y-13682885D01*
X33587254Y-13629655D01*
X33586389Y-13629368D01*
X33586387Y-13629368D01*
X33579861Y-13627203D01*
X33573025Y-13626503D01*
X33573022Y-13626502D01*
X33529969Y-13622091D01*
X33475400Y-13616500D01*
X31524600Y-13616500D01*
X31521354Y-13616837D01*
X31521350Y-13616837D01*
X31425693Y-13626762D01*
X31425689Y-13626763D01*
X31418835Y-13627474D01*
X31412299Y-13629655D01*
X31412297Y-13629655D01*
X31280195Y-13673728D01*
X31251055Y-13683450D01*
X31100652Y-13776522D01*
X30975695Y-13901697D01*
X30971855Y-13907927D01*
X30971854Y-13907928D01*
X30924834Y-13984209D01*
X30882885Y-14052262D01*
X30869483Y-14092668D01*
X30829052Y-14151028D01*
X30763487Y-14178264D01*
X30749890Y-14179000D01*
X30398105Y-14179000D01*
X30329984Y-14158998D01*
X30290961Y-14119303D01*
X30252332Y-14056880D01*
X30248478Y-14050652D01*
X30123303Y-13925695D01*
X30117072Y-13921854D01*
X29978968Y-13836725D01*
X29978966Y-13836724D01*
X29972738Y-13832885D01*
X29892995Y-13806436D01*
X29811389Y-13779368D01*
X29811387Y-13779368D01*
X29804861Y-13777203D01*
X29798025Y-13776503D01*
X29798022Y-13776502D01*
X29752655Y-13771854D01*
X29700400Y-13766500D01*
X28299600Y-13766500D01*
X28296354Y-13766837D01*
X28296350Y-13766837D01*
X28200692Y-13776762D01*
X28200688Y-13776763D01*
X28193834Y-13777474D01*
X28187298Y-13779655D01*
X28187296Y-13779655D01*
X28083810Y-13814181D01*
X28026054Y-13833450D01*
X27875652Y-13926522D01*
X27750695Y-14051697D01*
X27746854Y-14057928D01*
X27742317Y-14063673D01*
X27740987Y-14062623D01*
X27694893Y-14104108D01*
X27640403Y-14116500D01*
X27229802Y-14116500D01*
X27161681Y-14096498D01*
X27128976Y-14066065D01*
X27093642Y-14018919D01*
X27088261Y-14011739D01*
X26971705Y-13924385D01*
X26835316Y-13873255D01*
X26773134Y-13866500D01*
X25176866Y-13866500D01*
X25114684Y-13873255D01*
X24978295Y-13924385D01*
X24861739Y-14011739D01*
X24774385Y-14128295D01*
X24723255Y-14264684D01*
X24716500Y-14326866D01*
X24716500Y-15423134D01*
X22075000Y-15423134D01*
X22075000Y-10419669D01*
X24717001Y-10419669D01*
X24717371Y-10426490D01*
X24722895Y-10477352D01*
X24726521Y-10492604D01*
X24771676Y-10613054D01*
X24780214Y-10628649D01*
X24856715Y-10730724D01*
X24869276Y-10743285D01*
X24971351Y-10819786D01*
X24986946Y-10828324D01*
X25107394Y-10873478D01*
X25122649Y-10877105D01*
X25173514Y-10882631D01*
X25180328Y-10883000D01*
X25702885Y-10883000D01*
X25718124Y-10878525D01*
X25719329Y-10877135D01*
X25721000Y-10869452D01*
X25721000Y-10864884D01*
X26229000Y-10864884D01*
X26233475Y-10880123D01*
X26234865Y-10881328D01*
X26242548Y-10882999D01*
X26769669Y-10882999D01*
X26776490Y-10882629D01*
X26827352Y-10877105D01*
X26842604Y-10873479D01*
X26963054Y-10828324D01*
X26978649Y-10819786D01*
X27080724Y-10743285D01*
X27093285Y-10730724D01*
X27169786Y-10628649D01*
X27178324Y-10613054D01*
X27223478Y-10492606D01*
X27227105Y-10477351D01*
X27232631Y-10426486D01*
X27233000Y-10419672D01*
X27233000Y-10147115D01*
X27228525Y-10131876D01*
X27227135Y-10130671D01*
X27219452Y-10129000D01*
X26247115Y-10129000D01*
X26231876Y-10133475D01*
X26230671Y-10134865D01*
X26229000Y-10142548D01*
X26229000Y-10864884D01*
X25721000Y-10864884D01*
X25721000Y-10147115D01*
X25716525Y-10131876D01*
X25715135Y-10130671D01*
X25707452Y-10129000D01*
X24735116Y-10129000D01*
X24719877Y-10133475D01*
X24718672Y-10134865D01*
X24717001Y-10142548D01*
X24717001Y-10419669D01*
X22075000Y-10419669D01*
X22075000Y-9602885D01*
X24717000Y-9602885D01*
X24721475Y-9618124D01*
X24722865Y-9619329D01*
X24730548Y-9621000D01*
X25702885Y-9621000D01*
X25718124Y-9616525D01*
X25719329Y-9615135D01*
X25721000Y-9607452D01*
X25721000Y-9602885D01*
X26229000Y-9602885D01*
X26233475Y-9618124D01*
X26234865Y-9619329D01*
X26242548Y-9621000D01*
X27214884Y-9621000D01*
X27230123Y-9616525D01*
X27231328Y-9615135D01*
X27232999Y-9607452D01*
X27232999Y-9330331D01*
X27232629Y-9323510D01*
X27227105Y-9272648D01*
X27223479Y-9257396D01*
X27178324Y-9136946D01*
X27169786Y-9121351D01*
X27093285Y-9019276D01*
X27080724Y-9006715D01*
X26978649Y-8930214D01*
X26963054Y-8921676D01*
X26842606Y-8876522D01*
X26827351Y-8872895D01*
X26776486Y-8867369D01*
X26769672Y-8867000D01*
X26247115Y-8867000D01*
X26231876Y-8871475D01*
X26230671Y-8872865D01*
X26229000Y-8880548D01*
X26229000Y-9602885D01*
X25721000Y-9602885D01*
X25721000Y-8885116D01*
X25716525Y-8869877D01*
X25715135Y-8868672D01*
X25707452Y-8867001D01*
X25180331Y-8867001D01*
X25173510Y-8867371D01*
X25122648Y-8872895D01*
X25107396Y-8876521D01*
X24986946Y-8921676D01*
X24971351Y-8930214D01*
X24869276Y-9006715D01*
X24856715Y-9019276D01*
X24780214Y-9121351D01*
X24771676Y-9136946D01*
X24726522Y-9257394D01*
X24722895Y-9272649D01*
X24717369Y-9323514D01*
X24717000Y-9330328D01*
X24717000Y-9602885D01*
X22075000Y-9602885D01*
X22075000Y-4830000D01*
X13125000Y-4830000D01*
X13125000Y-25800000D01*
X508500Y-25800000D01*
X508500Y-3992575D01*
X22111404Y-3992575D01*
X22130218Y-4199303D01*
X22131956Y-4205209D01*
X22131957Y-4205213D01*
X22175473Y-4353068D01*
X22188827Y-4398440D01*
X22284999Y-4582400D01*
X22415071Y-4744177D01*
X22419788Y-4748135D01*
X22419790Y-4748137D01*
X22517351Y-4830000D01*
X22574089Y-4877609D01*
X22579481Y-4880573D01*
X22579485Y-4880576D01*
X22638177Y-4912842D01*
X22755995Y-4977613D01*
X22953861Y-5040379D01*
X22959978Y-5041065D01*
X22959982Y-5041066D01*
X23036598Y-5049659D01*
X23115413Y-5058500D01*
X23227237Y-5058500D01*
X23230293Y-5058200D01*
X23230300Y-5058200D01*
X23375466Y-5043966D01*
X23375469Y-5043965D01*
X23381592Y-5043365D01*
X23513546Y-5003526D01*
X23574407Y-4985152D01*
X23574410Y-4985151D01*
X23580315Y-4983368D01*
X23587635Y-4979476D01*
X23758153Y-4888809D01*
X23758155Y-4888808D01*
X23763599Y-4885913D01*
X23832155Y-4830000D01*
X23919689Y-4758610D01*
X23919692Y-4758607D01*
X23924464Y-4754715D01*
X24056783Y-4594770D01*
X24060876Y-4587201D01*
X24152584Y-4417590D01*
X24152586Y-4417585D01*
X24155514Y-4412170D01*
X24216898Y-4213871D01*
X24218429Y-4199303D01*
X24237952Y-4013554D01*
X24237952Y-4013552D01*
X24238596Y-4007425D01*
X24219782Y-3800697D01*
X24217298Y-3792255D01*
X24162912Y-3607469D01*
X24161173Y-3601560D01*
X24065001Y-3417600D01*
X23934929Y-3255823D01*
X23935214Y-3255594D01*
X23903453Y-3195951D01*
X23909259Y-3125192D01*
X23917184Y-3111993D01*
X23921000Y-3094452D01*
X23921000Y-2122115D01*
X23916525Y-2106876D01*
X23915135Y-2105671D01*
X23907452Y-2104000D01*
X22285116Y-2104000D01*
X22269877Y-2108475D01*
X22268672Y-2109865D01*
X22267001Y-2117548D01*
X22267001Y-2644669D01*
X22267371Y-2651490D01*
X22272895Y-2702352D01*
X22276521Y-2717604D01*
X22321676Y-2838054D01*
X22330214Y-2853649D01*
X22406715Y-2955724D01*
X22419275Y-2968284D01*
X22470594Y-3006745D01*
X22513110Y-3063604D01*
X22518136Y-3134423D01*
X22484076Y-3196716D01*
X22474666Y-3205214D01*
X22430317Y-3241384D01*
X22430307Y-3241394D01*
X22425536Y-3245285D01*
X22421608Y-3250033D01*
X22421607Y-3250034D01*
X22412847Y-3260623D01*
X22293217Y-3405230D01*
X22290288Y-3410647D01*
X22290286Y-3410650D01*
X22197416Y-3582410D01*
X22197414Y-3582415D01*
X22194486Y-3587830D01*
X22133102Y-3786129D01*
X22132458Y-3792254D01*
X22132458Y-3792255D01*
X22126915Y-3845000D01*
X22111404Y-3992575D01*
X508500Y-3992575D01*
X508500Y-2644669D01*
X767001Y-2644669D01*
X767371Y-2651490D01*
X772895Y-2702352D01*
X776521Y-2717604D01*
X821676Y-2838054D01*
X830214Y-2853649D01*
X906715Y-2955724D01*
X919276Y-2968285D01*
X1021351Y-3044786D01*
X1036946Y-3053324D01*
X1157394Y-3098478D01*
X1172649Y-3102105D01*
X1223514Y-3107631D01*
X1230328Y-3108000D01*
X2402885Y-3108000D01*
X2418124Y-3103525D01*
X2419329Y-3102135D01*
X2421000Y-3094452D01*
X2421000Y-3089884D01*
X2929000Y-3089884D01*
X2933475Y-3105123D01*
X2934865Y-3106328D01*
X2942548Y-3107999D01*
X4119669Y-3107999D01*
X4126490Y-3107629D01*
X4177352Y-3102105D01*
X4192604Y-3098479D01*
X4313054Y-3053324D01*
X4328649Y-3044786D01*
X4430724Y-2968285D01*
X4443285Y-2955724D01*
X4519786Y-2853649D01*
X4528324Y-2838054D01*
X4573478Y-2717606D01*
X4577105Y-2702351D01*
X4582631Y-2651486D01*
X4583000Y-2644672D01*
X4583000Y-2122115D01*
X4578525Y-2106876D01*
X4577135Y-2105671D01*
X4569452Y-2104000D01*
X2947115Y-2104000D01*
X2931876Y-2108475D01*
X2930671Y-2109865D01*
X2929000Y-2117548D01*
X2929000Y-3089884D01*
X2421000Y-3089884D01*
X2421000Y-2122115D01*
X2416525Y-2106876D01*
X2415135Y-2105671D01*
X2407452Y-2104000D01*
X785116Y-2104000D01*
X769877Y-2108475D01*
X768672Y-2109865D01*
X767001Y-2117548D01*
X767001Y-2644669D01*
X508500Y-2644669D01*
X508500Y-634500D01*
X528502Y-566379D01*
X582158Y-519886D01*
X634500Y-508500D01*
X838893Y-508500D01*
X907014Y-528502D01*
G37*
%TD.AperFunction*%
%TA.AperFunction,Conductor*%
G36*
X48808621Y-31713118D02*
G01*
X48855114Y-31766774D01*
X48866500Y-31819116D01*
X48866500Y-46685406D01*
X48846498Y-46753527D01*
X48829595Y-46774501D01*
X47274500Y-48329595D01*
X47212188Y-48363621D01*
X47185405Y-48366500D01*
X31314595Y-48366500D01*
X31246474Y-48346498D01*
X31225500Y-48329595D01*
X30170405Y-47274500D01*
X30136379Y-47212188D01*
X30133500Y-47185405D01*
X30133500Y-41790385D01*
X30592000Y-41790385D01*
X30596475Y-41805624D01*
X30597865Y-41806829D01*
X30605548Y-41808500D01*
X31727885Y-41808500D01*
X31743124Y-41804025D01*
X31744329Y-41802635D01*
X31746000Y-41794952D01*
X31746000Y-41790385D01*
X32254000Y-41790385D01*
X32258475Y-41805624D01*
X32259865Y-41806829D01*
X32267548Y-41808500D01*
X33389884Y-41808500D01*
X33405123Y-41804025D01*
X33406328Y-41802635D01*
X33407999Y-41794952D01*
X33407999Y-41602905D01*
X33407662Y-41596386D01*
X33397743Y-41500794D01*
X33394851Y-41487400D01*
X33343412Y-41333216D01*
X33337239Y-41320038D01*
X33251937Y-41182193D01*
X33242901Y-41170792D01*
X33128171Y-41056261D01*
X33116760Y-41047249D01*
X32978757Y-40962184D01*
X32965576Y-40956037D01*
X32811290Y-40904862D01*
X32797914Y-40901995D01*
X32703562Y-40892328D01*
X32697145Y-40892000D01*
X32272115Y-40892000D01*
X32256876Y-40896475D01*
X32255671Y-40897865D01*
X32254000Y-40905548D01*
X32254000Y-41790385D01*
X31746000Y-41790385D01*
X31746000Y-40910116D01*
X31741525Y-40894877D01*
X31740135Y-40893672D01*
X31732452Y-40892001D01*
X31302905Y-40892001D01*
X31296386Y-40892338D01*
X31200794Y-40902257D01*
X31187400Y-40905149D01*
X31033216Y-40956588D01*
X31020038Y-40962761D01*
X30882193Y-41048063D01*
X30870792Y-41057099D01*
X30756261Y-41171829D01*
X30747249Y-41183240D01*
X30662184Y-41321243D01*
X30656037Y-41334424D01*
X30604862Y-41488710D01*
X30601995Y-41502086D01*
X30592328Y-41596438D01*
X30592000Y-41602855D01*
X30592000Y-41790385D01*
X30133500Y-41790385D01*
X30133500Y-39814595D01*
X30153502Y-39746474D01*
X30170405Y-39725499D01*
X30288001Y-39607904D01*
X30350313Y-39573879D01*
X30377096Y-39571000D01*
X30533314Y-39571000D01*
X30601435Y-39591002D01*
X30647928Y-39644658D01*
X30652835Y-39657115D01*
X30658450Y-39673946D01*
X30662301Y-39680170D01*
X30662302Y-39680171D01*
X30713190Y-39762404D01*
X30751522Y-39824348D01*
X30876697Y-39949305D01*
X30882927Y-39953145D01*
X30882928Y-39953146D01*
X31020090Y-40037694D01*
X31027262Y-40042115D01*
X31095993Y-40064912D01*
X31188611Y-40095632D01*
X31188613Y-40095632D01*
X31195139Y-40097797D01*
X31201975Y-40098497D01*
X31201978Y-40098498D01*
X31245031Y-40102909D01*
X31299600Y-40108500D01*
X32700400Y-40108500D01*
X32703646Y-40108163D01*
X32703650Y-40108163D01*
X32799308Y-40098238D01*
X32799312Y-40098237D01*
X32806166Y-40097526D01*
X32812702Y-40095345D01*
X32812704Y-40095345D01*
X32960101Y-40046169D01*
X32973946Y-40041550D01*
X33124348Y-39948478D01*
X33249305Y-39823303D01*
X33284045Y-39766945D01*
X33338275Y-39678968D01*
X33338276Y-39678966D01*
X33342115Y-39672738D01*
X33347226Y-39657330D01*
X33387658Y-39598971D01*
X33453223Y-39571736D01*
X33466818Y-39571000D01*
X34238792Y-39571000D01*
X34306913Y-39591002D01*
X34347244Y-39632859D01*
X34420547Y-39756807D01*
X34538193Y-39874453D01*
X34545017Y-39878489D01*
X34545020Y-39878491D01*
X34606348Y-39914760D01*
X34681399Y-39959145D01*
X34689010Y-39961356D01*
X34689012Y-39961357D01*
X34701170Y-39964889D01*
X34841169Y-40005562D01*
X34847574Y-40006066D01*
X34847579Y-40006067D01*
X34876042Y-40008307D01*
X34876050Y-40008307D01*
X34878498Y-40008500D01*
X35311502Y-40008500D01*
X35313950Y-40008307D01*
X35313958Y-40008307D01*
X35342421Y-40006067D01*
X35342426Y-40006066D01*
X35348831Y-40005562D01*
X35488830Y-39964889D01*
X35500988Y-39961357D01*
X35500990Y-39961356D01*
X35508601Y-39959145D01*
X35557282Y-39930355D01*
X35626098Y-39912895D01*
X35693429Y-39935412D01*
X35737898Y-39990756D01*
X35742593Y-40008506D01*
X35743562Y-40008257D01*
X35745532Y-40015930D01*
X35746526Y-40023797D01*
X35749445Y-40031168D01*
X35749445Y-40031170D01*
X35762804Y-40064912D01*
X35766649Y-40076142D01*
X35772940Y-40097797D01*
X35778982Y-40118593D01*
X35783015Y-40125412D01*
X35783017Y-40125417D01*
X35789293Y-40136028D01*
X35797988Y-40153776D01*
X35805448Y-40172617D01*
X35810110Y-40179033D01*
X35810110Y-40179034D01*
X35831436Y-40208387D01*
X35837952Y-40218307D01*
X35860458Y-40256362D01*
X35874779Y-40270683D01*
X35887619Y-40285716D01*
X35899528Y-40302107D01*
X35931413Y-40328484D01*
X35933593Y-40330288D01*
X35942374Y-40338278D01*
X36297320Y-40693225D01*
X36304853Y-40701503D01*
X36308966Y-40707984D01*
X36314745Y-40713411D01*
X36314747Y-40713413D01*
X36358601Y-40754593D01*
X36361445Y-40757349D01*
X36381196Y-40777101D01*
X36384393Y-40779581D01*
X36393413Y-40787284D01*
X36425645Y-40817552D01*
X36432591Y-40821371D01*
X36432594Y-40821373D01*
X36443400Y-40827314D01*
X36459919Y-40838165D01*
X36475925Y-40850580D01*
X36483194Y-40853725D01*
X36483198Y-40853728D01*
X36516503Y-40868140D01*
X36527153Y-40873357D01*
X36565906Y-40894661D01*
X36573581Y-40896632D01*
X36573582Y-40896632D01*
X36585528Y-40899699D01*
X36604233Y-40906103D01*
X36622821Y-40914147D01*
X36630644Y-40915386D01*
X36630654Y-40915389D01*
X36666490Y-40921065D01*
X36678110Y-40923471D01*
X36713255Y-40932494D01*
X36720936Y-40934466D01*
X36741190Y-40934466D01*
X36760900Y-40936017D01*
X36780909Y-40939186D01*
X36788801Y-40938440D01*
X36824927Y-40935025D01*
X36836785Y-40934466D01*
X37297034Y-40934466D01*
X37365155Y-40954468D01*
X37411648Y-41008124D01*
X37421752Y-41078398D01*
X37392258Y-41142978D01*
X37386129Y-41149561D01*
X37242747Y-41292943D01*
X37234461Y-41300483D01*
X37227982Y-41304595D01*
X37222557Y-41310372D01*
X37181357Y-41354246D01*
X37178602Y-41357088D01*
X37158865Y-41376825D01*
X37156385Y-41380022D01*
X37148682Y-41389042D01*
X37118414Y-41421274D01*
X37114595Y-41428220D01*
X37114593Y-41428223D01*
X37108652Y-41439029D01*
X37097801Y-41455548D01*
X37085386Y-41471554D01*
X37082241Y-41478823D01*
X37082238Y-41478827D01*
X37067826Y-41512132D01*
X37062609Y-41522782D01*
X37041305Y-41561535D01*
X37039334Y-41569210D01*
X37039334Y-41569211D01*
X37036267Y-41581157D01*
X37029863Y-41599861D01*
X37028568Y-41602855D01*
X37021819Y-41618450D01*
X37020580Y-41626273D01*
X37020577Y-41626283D01*
X37014901Y-41662119D01*
X37012495Y-41673739D01*
X37006698Y-41696318D01*
X37001500Y-41716565D01*
X37001500Y-41736819D01*
X36999949Y-41756529D01*
X36996780Y-41776538D01*
X37000874Y-41819842D01*
X37000941Y-41820556D01*
X37001500Y-41832414D01*
X37001500Y-41951776D01*
X36981498Y-42019897D01*
X36927842Y-42066390D01*
X36857568Y-42076494D01*
X36811364Y-42060231D01*
X36778601Y-42040855D01*
X36770990Y-42038644D01*
X36770988Y-42038643D01*
X36679848Y-42012165D01*
X36618831Y-41994438D01*
X36612426Y-41993934D01*
X36612421Y-41993933D01*
X36583958Y-41991693D01*
X36583950Y-41991693D01*
X36581502Y-41991500D01*
X36148498Y-41991500D01*
X36146050Y-41991693D01*
X36146042Y-41991693D01*
X36117579Y-41993933D01*
X36117574Y-41993934D01*
X36111169Y-41994438D01*
X36050152Y-42012165D01*
X35959012Y-42038643D01*
X35959010Y-42038644D01*
X35951399Y-42040855D01*
X35808193Y-42125547D01*
X35805511Y-42128229D01*
X35741139Y-42153502D01*
X35671516Y-42139600D01*
X35655688Y-42129428D01*
X35651807Y-42125547D01*
X35508601Y-42040855D01*
X35500990Y-42038644D01*
X35500988Y-42038643D01*
X35409848Y-42012165D01*
X35348831Y-41994438D01*
X35342426Y-41993934D01*
X35342421Y-41993933D01*
X35313958Y-41991693D01*
X35313950Y-41991693D01*
X35311502Y-41991500D01*
X34878498Y-41991500D01*
X34876050Y-41991693D01*
X34876042Y-41991693D01*
X34847579Y-41993933D01*
X34847574Y-41993934D01*
X34841169Y-41994438D01*
X34780152Y-42012165D01*
X34689012Y-42038643D01*
X34689010Y-42038644D01*
X34681399Y-42040855D01*
X34674572Y-42044892D01*
X34674573Y-42044892D01*
X34545020Y-42121509D01*
X34545017Y-42121511D01*
X34538193Y-42125547D01*
X34420547Y-42243193D01*
X34416511Y-42250017D01*
X34416509Y-42250020D01*
X34372142Y-42325041D01*
X34335855Y-42386399D01*
X34333644Y-42394010D01*
X34333643Y-42394012D01*
X34322139Y-42433610D01*
X34289438Y-42546169D01*
X34288934Y-42552574D01*
X34288933Y-42552579D01*
X34286757Y-42580230D01*
X34286500Y-42583498D01*
X34286500Y-43335405D01*
X34266498Y-43403526D01*
X34249595Y-43424501D01*
X33844499Y-43829596D01*
X33782187Y-43863621D01*
X33755404Y-43866500D01*
X33524354Y-43866500D01*
X33456233Y-43846498D01*
X33421141Y-43812771D01*
X33417416Y-43807450D01*
X33333749Y-43687962D01*
X33178038Y-43532251D01*
X32997654Y-43405944D01*
X32992669Y-43403620D01*
X32992663Y-43403616D01*
X32972405Y-43394170D01*
X32919120Y-43347254D01*
X32899658Y-43278977D01*
X32920199Y-43211016D01*
X32972202Y-43165875D01*
X32979955Y-43162243D01*
X33117807Y-43076937D01*
X33129208Y-43067901D01*
X33243739Y-42953171D01*
X33252751Y-42941760D01*
X33337816Y-42803757D01*
X33343963Y-42790576D01*
X33395138Y-42636290D01*
X33398005Y-42622914D01*
X33407672Y-42528562D01*
X33408000Y-42522146D01*
X33408000Y-42334615D01*
X33403525Y-42319376D01*
X33402135Y-42318171D01*
X33394452Y-42316500D01*
X30610116Y-42316500D01*
X30594877Y-42320975D01*
X30593672Y-42322365D01*
X30592001Y-42330048D01*
X30592001Y-42522095D01*
X30592338Y-42528614D01*
X30602257Y-42624206D01*
X30605149Y-42637600D01*
X30656588Y-42791784D01*
X30662761Y-42804962D01*
X30748063Y-42942807D01*
X30757099Y-42954208D01*
X30871829Y-43068739D01*
X30883240Y-43077751D01*
X31021243Y-43162816D01*
X31034424Y-43168963D01*
X31188710Y-43220138D01*
X31202086Y-43223005D01*
X31296438Y-43232672D01*
X31302854Y-43233000D01*
X31581716Y-43233000D01*
X31649837Y-43253002D01*
X31696330Y-43306658D01*
X31706434Y-43376932D01*
X31676940Y-43441512D01*
X31653986Y-43462213D01*
X31558478Y-43529088D01*
X31558472Y-43529093D01*
X31553962Y-43532251D01*
X31398251Y-43687962D01*
X31395094Y-43692470D01*
X31395092Y-43692473D01*
X31287243Y-43846498D01*
X31271944Y-43868347D01*
X31269621Y-43873329D01*
X31269618Y-43873334D01*
X31247559Y-43920641D01*
X31178880Y-44067924D01*
X31121885Y-44280629D01*
X31102693Y-44500000D01*
X31121885Y-44719371D01*
X31178880Y-44932076D01*
X31190830Y-44957703D01*
X31269618Y-45126666D01*
X31269621Y-45126671D01*
X31271944Y-45131653D01*
X31275100Y-45136160D01*
X31275101Y-45136162D01*
X31388882Y-45298657D01*
X31398251Y-45312038D01*
X31553962Y-45467749D01*
X31734346Y-45594056D01*
X31933924Y-45687120D01*
X32146629Y-45744115D01*
X32366000Y-45763307D01*
X32585371Y-45744115D01*
X32798076Y-45687120D01*
X32997654Y-45594056D01*
X33178038Y-45467749D01*
X33333749Y-45312038D01*
X33347494Y-45292409D01*
X33401857Y-45214770D01*
X33421142Y-45187228D01*
X33476598Y-45142901D01*
X33524354Y-45133500D01*
X33988342Y-45133500D01*
X34056463Y-45153502D01*
X34102956Y-45207158D01*
X34113060Y-45277432D01*
X34091555Y-45331770D01*
X34065944Y-45368347D01*
X34063621Y-45373329D01*
X34063618Y-45373334D01*
X34029523Y-45446452D01*
X33972880Y-45567924D01*
X33915885Y-45780629D01*
X33896693Y-46000000D01*
X33915885Y-46219371D01*
X33972880Y-46432076D01*
X34003624Y-46498007D01*
X34063618Y-46626666D01*
X34063621Y-46626671D01*
X34065944Y-46631653D01*
X34069100Y-46636160D01*
X34069101Y-46636162D01*
X34122166Y-46711946D01*
X34192251Y-46812038D01*
X34347962Y-46967749D01*
X34528346Y-47094056D01*
X34727924Y-47187120D01*
X34940629Y-47244115D01*
X35160000Y-47263307D01*
X35379371Y-47244115D01*
X35592076Y-47187120D01*
X35791654Y-47094056D01*
X35972038Y-46967749D01*
X36127749Y-46812038D01*
X36197835Y-46711946D01*
X36250899Y-46636162D01*
X36250900Y-46636160D01*
X36254056Y-46631653D01*
X36256379Y-46626671D01*
X36256382Y-46626666D01*
X36316376Y-46498007D01*
X36347120Y-46432076D01*
X36404115Y-46219371D01*
X36423307Y-46000000D01*
X36404115Y-45780629D01*
X36402692Y-45775319D01*
X36402691Y-45775312D01*
X36395716Y-45749281D01*
X36397406Y-45678304D01*
X36428328Y-45627576D01*
X36757247Y-45298657D01*
X36765537Y-45291113D01*
X36772018Y-45287000D01*
X36818659Y-45237332D01*
X36821413Y-45234491D01*
X36841134Y-45214770D01*
X36843612Y-45211575D01*
X36851318Y-45202553D01*
X36865708Y-45187229D01*
X36881586Y-45170321D01*
X36891346Y-45152568D01*
X36902199Y-45136045D01*
X36909753Y-45126306D01*
X36914613Y-45120041D01*
X36932176Y-45079457D01*
X36937383Y-45068827D01*
X36958695Y-45030060D01*
X36960666Y-45022383D01*
X36960668Y-45022378D01*
X36963732Y-45010442D01*
X36970138Y-44991730D01*
X36975034Y-44980417D01*
X36978181Y-44973145D01*
X36979421Y-44965318D01*
X36981633Y-44957703D01*
X36983113Y-44958133D01*
X37009693Y-44902070D01*
X37069963Y-44864546D01*
X37140952Y-44865563D01*
X37167865Y-44877485D01*
X37221399Y-44909145D01*
X37229010Y-44911356D01*
X37229012Y-44911357D01*
X37271202Y-44923614D01*
X37381169Y-44955562D01*
X37387574Y-44956066D01*
X37387579Y-44956067D01*
X37416042Y-44958307D01*
X37416050Y-44958307D01*
X37418498Y-44958500D01*
X37851502Y-44958500D01*
X37853950Y-44958307D01*
X37853958Y-44958307D01*
X37882421Y-44956067D01*
X37882426Y-44956066D01*
X37888831Y-44955562D01*
X37998798Y-44923614D01*
X38040988Y-44911357D01*
X38040990Y-44911356D01*
X38048601Y-44909145D01*
X38191807Y-44824453D01*
X38194747Y-44821513D01*
X38259271Y-44796179D01*
X38328894Y-44810080D01*
X38347640Y-44822129D01*
X38355323Y-44828089D01*
X38484779Y-44904648D01*
X38499210Y-44910893D01*
X38633605Y-44949939D01*
X38647706Y-44949899D01*
X38651000Y-44942630D01*
X38651000Y-44936878D01*
X39159000Y-44936878D01*
X39162973Y-44950409D01*
X39170871Y-44951544D01*
X39310790Y-44910893D01*
X39325221Y-44904648D01*
X39454678Y-44828089D01*
X39467104Y-44818449D01*
X39573449Y-44712104D01*
X39583089Y-44699678D01*
X39659648Y-44570221D01*
X39665893Y-44555790D01*
X39708269Y-44409935D01*
X39710570Y-44397333D01*
X39712807Y-44368916D01*
X39713000Y-44363986D01*
X39713000Y-43747115D01*
X39708525Y-43731876D01*
X39707135Y-43730671D01*
X39699452Y-43729000D01*
X39177115Y-43729000D01*
X39161876Y-43733475D01*
X39160671Y-43734865D01*
X39159000Y-43742548D01*
X39159000Y-44936878D01*
X38651000Y-44936878D01*
X38651000Y-43347000D01*
X38671002Y-43278879D01*
X38724658Y-43232386D01*
X38777000Y-43221000D01*
X39694884Y-43221000D01*
X39710123Y-43216525D01*
X39711328Y-43215135D01*
X39712999Y-43207452D01*
X39712999Y-42586017D01*
X39712805Y-42581080D01*
X39710570Y-42552664D01*
X39708270Y-42540069D01*
X39665893Y-42394210D01*
X39659648Y-42379779D01*
X39583089Y-42250322D01*
X39573449Y-42237896D01*
X39467104Y-42131551D01*
X39454677Y-42121911D01*
X39452783Y-42120791D01*
X39451600Y-42119524D01*
X39448408Y-42117048D01*
X39448807Y-42116533D01*
X39404329Y-42068899D01*
X39391623Y-41999048D01*
X39418697Y-41933417D01*
X39476956Y-41892842D01*
X39516920Y-41886336D01*
X40360684Y-41886336D01*
X40371867Y-41886863D01*
X40379360Y-41888538D01*
X40387286Y-41888289D01*
X40387287Y-41888289D01*
X40447437Y-41886398D01*
X40451396Y-41886336D01*
X40479307Y-41886336D01*
X40483242Y-41885839D01*
X40483307Y-41885831D01*
X40495144Y-41884898D01*
X40527402Y-41883884D01*
X40531421Y-41883758D01*
X40539340Y-41883509D01*
X40558794Y-41877857D01*
X40578151Y-41873849D01*
X40590381Y-41872304D01*
X40590382Y-41872304D01*
X40598248Y-41871310D01*
X40605619Y-41868391D01*
X40605621Y-41868391D01*
X40639363Y-41855032D01*
X40650593Y-41851187D01*
X40685434Y-41841065D01*
X40685435Y-41841065D01*
X40693044Y-41838854D01*
X40699863Y-41834821D01*
X40699868Y-41834819D01*
X40710479Y-41828543D01*
X40728227Y-41819848D01*
X40747068Y-41812388D01*
X40754720Y-41806829D01*
X40782838Y-41786400D01*
X40792758Y-41779884D01*
X40823986Y-41761416D01*
X40823989Y-41761414D01*
X40830813Y-41757378D01*
X40845134Y-41743057D01*
X40860168Y-41730216D01*
X40876558Y-41718308D01*
X40904749Y-41684231D01*
X40912739Y-41675452D01*
X41511605Y-41076586D01*
X41519895Y-41069042D01*
X41526376Y-41064929D01*
X41542979Y-41047249D01*
X41573016Y-41015262D01*
X41575771Y-41012420D01*
X41595493Y-40992698D01*
X41597977Y-40989496D01*
X41605675Y-40980484D01*
X41630519Y-40954027D01*
X41635944Y-40948250D01*
X41645705Y-40930495D01*
X41656556Y-40913976D01*
X41668972Y-40897970D01*
X41686532Y-40857392D01*
X41691749Y-40846742D01*
X41713053Y-40807989D01*
X41718091Y-40788366D01*
X41724495Y-40769663D01*
X41729391Y-40758349D01*
X41729391Y-40758348D01*
X41732539Y-40751074D01*
X41733778Y-40743251D01*
X41733781Y-40743241D01*
X41739457Y-40707405D01*
X41741863Y-40695785D01*
X41750886Y-40660640D01*
X41750886Y-40660639D01*
X41752858Y-40652959D01*
X41752858Y-40632705D01*
X41754409Y-40612994D01*
X41756338Y-40600815D01*
X41757578Y-40592986D01*
X41753417Y-40548967D01*
X41752858Y-40537110D01*
X41752858Y-36861214D01*
X41753385Y-36850031D01*
X41755060Y-36842538D01*
X41752920Y-36774461D01*
X41752858Y-36770502D01*
X41752858Y-36742591D01*
X41752353Y-36738591D01*
X41751420Y-36726748D01*
X41750280Y-36690477D01*
X41750031Y-36682558D01*
X41744379Y-36663104D01*
X41740371Y-36643747D01*
X41738826Y-36631517D01*
X41738826Y-36631516D01*
X41737832Y-36623650D01*
X41734913Y-36616277D01*
X41721554Y-36582535D01*
X41717709Y-36571305D01*
X41707587Y-36536464D01*
X41707587Y-36536463D01*
X41705376Y-36528854D01*
X41701343Y-36522035D01*
X41701341Y-36522030D01*
X41695065Y-36511419D01*
X41686370Y-36493671D01*
X41678910Y-36474830D01*
X41667010Y-36458450D01*
X41652922Y-36439060D01*
X41646406Y-36429140D01*
X41627938Y-36397912D01*
X41627936Y-36397909D01*
X41623900Y-36391085D01*
X41609579Y-36376764D01*
X41596738Y-36361730D01*
X41589489Y-36351753D01*
X41584830Y-36345340D01*
X41550753Y-36317149D01*
X41541974Y-36309159D01*
X39951707Y-34718891D01*
X39917681Y-34656579D01*
X39922746Y-34585763D01*
X39951861Y-34540547D01*
X40009504Y-34483105D01*
X40139861Y-34301693D01*
X40141184Y-34302644D01*
X40188053Y-34259473D01*
X40257988Y-34247241D01*
X40323434Y-34274760D01*
X40351283Y-34306610D01*
X40411395Y-34404704D01*
X40557658Y-34573554D01*
X40641798Y-34643408D01*
X40721545Y-34709615D01*
X40729534Y-34716248D01*
X40922408Y-34828954D01*
X41131100Y-34908646D01*
X41136168Y-34909677D01*
X41136171Y-34909678D01*
X41231270Y-34929026D01*
X41350005Y-34953183D01*
X41355180Y-34953373D01*
X41355182Y-34953373D01*
X41568081Y-34961180D01*
X41568085Y-34961180D01*
X41573245Y-34961369D01*
X41578365Y-34960713D01*
X41578367Y-34960713D01*
X41789696Y-34933641D01*
X41789697Y-34933641D01*
X41794824Y-34932984D01*
X41799774Y-34931499D01*
X42003837Y-34870277D01*
X42003842Y-34870275D01*
X42008792Y-34868790D01*
X42209402Y-34770512D01*
X42391268Y-34640789D01*
X42459059Y-34573235D01*
X42545843Y-34486753D01*
X42549504Y-34483105D01*
X42679861Y-34301693D01*
X42681184Y-34302644D01*
X42728053Y-34259473D01*
X42797988Y-34247241D01*
X42863434Y-34274760D01*
X42891283Y-34306610D01*
X42951395Y-34404704D01*
X43097658Y-34573554D01*
X43181798Y-34643408D01*
X43261545Y-34709615D01*
X43269534Y-34716248D01*
X43462408Y-34828954D01*
X43671100Y-34908646D01*
X43676168Y-34909677D01*
X43676171Y-34909678D01*
X43771270Y-34929026D01*
X43890005Y-34953183D01*
X43895180Y-34953373D01*
X43895182Y-34953373D01*
X44108081Y-34961180D01*
X44108085Y-34961180D01*
X44113245Y-34961369D01*
X44118365Y-34960713D01*
X44118367Y-34960713D01*
X44329696Y-34933641D01*
X44329697Y-34933641D01*
X44334824Y-34932984D01*
X44339774Y-34931499D01*
X44543837Y-34870277D01*
X44543842Y-34870275D01*
X44548792Y-34868790D01*
X44749402Y-34770512D01*
X44931268Y-34640789D01*
X44999059Y-34573235D01*
X45085843Y-34486753D01*
X45089504Y-34483105D01*
X45219861Y-34301693D01*
X45221184Y-34302644D01*
X45268053Y-34259473D01*
X45337988Y-34247241D01*
X45403434Y-34274760D01*
X45431283Y-34306610D01*
X45491395Y-34404704D01*
X45637658Y-34573554D01*
X45721798Y-34643408D01*
X45801545Y-34709615D01*
X45809534Y-34716248D01*
X46002408Y-34828954D01*
X46211100Y-34908646D01*
X46216168Y-34909677D01*
X46216171Y-34909678D01*
X46311270Y-34929026D01*
X46430005Y-34953183D01*
X46435180Y-34953373D01*
X46435182Y-34953373D01*
X46648081Y-34961180D01*
X46648085Y-34961180D01*
X46653245Y-34961369D01*
X46658365Y-34960713D01*
X46658367Y-34960713D01*
X46869696Y-34933641D01*
X46869697Y-34933641D01*
X46874824Y-34932984D01*
X46879774Y-34931499D01*
X47083837Y-34870277D01*
X47083842Y-34870275D01*
X47088792Y-34868790D01*
X47289402Y-34770512D01*
X47471268Y-34640789D01*
X47539059Y-34573235D01*
X47625843Y-34486753D01*
X47629504Y-34483105D01*
X47759861Y-34301693D01*
X47773403Y-34274294D01*
X47856544Y-34106069D01*
X47856545Y-34106067D01*
X47858838Y-34101427D01*
X47917271Y-33909101D01*
X47922273Y-33892639D01*
X47922273Y-33892637D01*
X47923778Y-33887685D01*
X47952937Y-33666206D01*
X47953581Y-33639866D01*
X47954482Y-33602981D01*
X47954482Y-33602977D01*
X47954564Y-33599616D01*
X47936260Y-33376977D01*
X47881839Y-33160318D01*
X47792762Y-32955456D01*
X47738212Y-32871134D01*
X47674230Y-32772233D01*
X47674228Y-32772230D01*
X47671422Y-32767893D01*
X47667940Y-32764066D01*
X47524206Y-32606104D01*
X47493154Y-32542258D01*
X47501549Y-32471759D01*
X47546725Y-32416991D01*
X47573169Y-32403322D01*
X47679705Y-32363383D01*
X47688113Y-32360231D01*
X47804669Y-32272877D01*
X47892023Y-32156321D01*
X47943153Y-32019932D01*
X47949908Y-31957750D01*
X47949908Y-31819116D01*
X47969910Y-31750995D01*
X48023566Y-31704502D01*
X48075908Y-31693116D01*
X48740500Y-31693116D01*
X48808621Y-31713118D01*
G37*
%TD.AperFunction*%
M02*
