M48
; DRILL file {KiCad (6.0.4)} date Sun Jul 17 16:02:24 2022
; FORMAT={-:-/ absolute / metric / decimal}
; #@! TF.CreationDate,2022-07-17T16:02:24+02:00
; #@! TF.GenerationSoftware,Kicad,Pcbnew,(6.0.4)
; #@! TF.FileFunction,Plated,1,2,PTH
FMAT,2
METRIC
; #@! TA.AperFunction,Plated,PTH,ViaDrill
T1C0.600
; #@! TA.AperFunction,Plated,PTH,ComponentDrill
T2C1.000
%
G90
G05
T1
X18.0Y-35.0
X18.0Y-49.5
X20.0Y-35.0
X20.0Y-42.95
X28.0Y-46.5
X31.0Y-46.5
X31.5Y-28.5
X32.366Y-44.5
X34.0Y-25.5
X34.0Y-28.5
X35.16Y-46.0
X40.5Y-25.5
X41.5Y-25.5
X46.5Y-25.5
T2
X22.95Y-34.992
X22.95Y-37.532
X22.95Y-40.072
X22.95Y-42.612
X22.95Y-45.152
X22.95Y-47.692
X22.95Y-50.232
X22.95Y-52.772
X28.811Y-31.06
X28.811Y-33.6
X31.351Y-31.06
X31.351Y-33.6
X33.891Y-31.06
X33.891Y-33.6
X36.431Y-31.06
X36.431Y-33.6
X38.971Y-31.06
X38.971Y-33.6
X41.511Y-31.06
X41.511Y-33.6
X44.051Y-31.06
X44.051Y-33.6
X46.591Y-31.06
X46.591Y-33.6
T0
M30
