<?xml version="1.0" standalone="no"?>
<!DOCTYPE svg PUBLIC "-//W3C//DTD SVG 1.1//EN"
"http://www.w3.org/Graphics/SVG/1.1/DTD/svg11.dtd">
<svg width="401.008" height="287.622" viewBox="0 0 8354.33 5992.13" version="1.1"
xmlns="http://www.w3.org/2000/svg"
xmlns:xlink="http://www.w3.org/1999/xlink">
<circle cx="2280.16" cy="3771.97" r="15.748" style=""/>
<circle cx="880.157" cy="2681.97" r="15.748" style=""/>
<circle cx="710.157" cy="2881.97" r="15.748" style=""/>
<circle cx="970.157" cy="3081.97" r="15.748" style=""/>
<circle cx="1670.16" cy="2581.97" r="15.748" style=""/>
<circle cx="1870.16" cy="2161.97" r="15.748" style=""/>
<circle cx="2780.16" cy="3281.97" r="15.748" style=""/>
<circle cx="3490.16" cy="2771.97" r="15.748" style=""/>
<circle cx="3980.16" cy="2361.97" r="15.748" style=""/>
<circle cx="4280.16" cy="3181.97" r="15.748" style=""/>
<circle cx="4990.16" cy="3371.97" r="15.748" style=""/>
<circle cx="5080.16" cy="2961.97" r="15.748" style=""/>
<circle cx="6752.13" cy="4675.98" r="15.748" style=""/>
<circle cx="6984.17" cy="4683.94" r="15.748" style=""/>
<circle cx="7184.17" cy="4683.94" r="15.748" style=""/>
<circle cx="6448.19" cy="1060" r="15.748" style=""/>
<circle cx="7196.14" cy="1027.95" r="15.748" style=""/>
<circle cx="7420.16" cy="1007.95" r="15.748" style=""/>
<circle cx="544.488" cy="3280.71" r="30" style=""/>
<circle cx="544.488" cy="3080.71" r="30" style=""/>
<circle cx="544.488" cy="2880.71" r="30" style=""/>
<circle cx="544.488" cy="2680.71" r="30" style=""/>
<circle cx="681.102" cy="5496.85" r="39.3701" style=""/>
<circle cx="681.102" cy="5296.85" r="39.3701" style=""/>
<circle cx="881.102" cy="5296.85" r="39.3701" style=""/>
<circle cx="1081.1" cy="5296.85" r="39.3701" style=""/>
<circle cx="881.102" cy="5496.85" r="39.3701" style=""/>
<circle cx="1081.1" cy="5496.85" r="39.3701" style=""/>
<circle cx="1281.1" cy="5296.85" r="39.3701" style=""/>
<circle cx="1281.1" cy="5496.85" r="39.3701" style=""/>
<circle cx="1481.1" cy="5496.85" r="39.3701" style=""/>
<circle cx="1481.1" cy="5296.85" r="39.3701" style=""/>
<circle cx="1681.1" cy="5296.85" r="39.3701" style=""/>
<circle cx="1681.1" cy="5496.85" r="39.3701" style=""/>
<circle cx="1881.1" cy="5496.85" r="39.3701" style=""/>
<circle cx="2081.1" cy="5496.85" r="39.3701" style=""/>
<circle cx="1881.1" cy="5296.85" r="39.3701" style=""/>
<circle cx="2081.1" cy="5296.85" r="39.3701" style=""/>
<circle cx="2281.1" cy="5296.85" r="39.3701" style=""/>
<circle cx="2281.1" cy="5496.85" r="39.3701" style=""/>
<circle cx="2481.1" cy="5296.85" r="39.3701" style=""/>
<circle cx="2681.1" cy="5296.85" r="39.3701" style=""/>
<circle cx="2481.1" cy="5496.85" r="39.3701" style=""/>
<circle cx="2681.1" cy="5496.85" r="39.3701" style=""/>
<circle cx="2881.1" cy="5296.85" r="39.3701" style=""/>
<circle cx="2881.1" cy="5496.85" r="39.3701" style=""/>
<circle cx="3081.1" cy="5496.85" r="39.3701" style=""/>
<circle cx="3281.1" cy="5496.85" r="39.3701" style=""/>
<circle cx="3081.1" cy="5296.85" r="39.3701" style=""/>
<circle cx="3281.1" cy="5296.85" r="39.3701" style=""/>
<circle cx="3481.1" cy="5296.85" r="39.3701" style=""/>
<circle cx="3481.1" cy="5496.85" r="39.3701" style=""/>
<circle cx="3681.1" cy="5296.85" r="39.3701" style=""/>
<circle cx="3881.1" cy="5296.85" r="39.3701" style=""/>
<circle cx="3681.1" cy="5496.85" r="39.3701" style=""/>
<circle cx="3881.1" cy="5496.85" r="39.3701" style=""/>
<circle cx="4081.1" cy="5296.85" r="39.3701" style=""/>
<circle cx="4081.1" cy="5496.85" r="39.3701" style=""/>
<circle cx="4281.1" cy="5296.85" r="39.3701" style=""/>
<circle cx="4481.1" cy="5296.85" r="39.3701" style=""/>
<circle cx="4281.1" cy="5496.85" r="39.3701" style=""/>
<circle cx="4481.1" cy="5496.85" r="39.3701" style=""/>
<circle cx="4681.1" cy="5296.85" r="39.3701" style=""/>
<circle cx="4681.1" cy="5496.85" r="39.3701" style=""/>
<circle cx="4881.1" cy="5296.85" r="39.3701" style=""/>
<circle cx="4881.1" cy="5496.85" r="39.3701" style=""/>
<circle cx="5081.1" cy="5296.85" r="39.3701" style=""/>
<circle cx="5281.1" cy="5296.85" r="39.3701" style=""/>
<circle cx="5081.1" cy="5496.85" r="39.3701" style=""/>
<circle cx="5281.1" cy="5496.85" r="39.3701" style=""/>
<circle cx="5481.1" cy="5296.85" r="39.3701" style=""/>
<circle cx="5681.1" cy="5296.85" r="39.3701" style=""/>
<circle cx="5481.1" cy="5496.85" r="39.3701" style=""/>
<circle cx="5681.1" cy="5496.85" r="39.3701" style=""/>
<circle cx="5881.1" cy="5296.85" r="39.3701" style=""/>
<circle cx="5881.1" cy="5496.85" r="39.3701" style=""/>
<circle cx="6081.1" cy="5296.85" r="39.3701" style=""/>
<circle cx="6081.1" cy="5496.85" r="39.3701" style=""/>
<circle cx="6281.1" cy="5296.85" r="39.3701" style=""/>
<circle cx="6281.1" cy="5496.85" r="39.3701" style=""/>
<circle cx="6481.1" cy="5296.85" r="39.3701" style=""/>
<circle cx="6681.1" cy="5296.85" r="39.3701" style=""/>
<circle cx="6481.1" cy="5496.85" r="39.3701" style=""/>
<circle cx="6681.1" cy="5496.85" r="39.3701" style=""/>
<circle cx="6881.1" cy="5296.85" r="39.3701" style=""/>
<circle cx="6881.1" cy="5496.85" r="39.3701" style=""/>
<circle cx="7081.1" cy="5496.85" r="39.3701" style=""/>
<circle cx="7281.1" cy="5296.85" r="39.3701" style=""/>
<circle cx="7481.1" cy="5296.85" r="39.3701" style=""/>
<circle cx="7681.1" cy="5496.85" r="39.3701" style=""/>
<circle cx="7681.1" cy="5296.85" r="39.3701" style=""/>
<circle cx="7481.1" cy="5496.85" r="39.3701" style=""/>
<circle cx="7281.1" cy="5496.85" r="39.3701" style=""/>
<circle cx="7081.1" cy="5296.85" r="39.3701" style=""/>
<circle cx="5520.87" cy="3779.45" r="39.3701" style=""/>
<circle cx="5520.87" cy="3579.45" r="39.3701" style=""/>
<circle cx="5520.87" cy="3379.45" r="39.3701" style=""/>
<circle cx="5520.87" cy="3179.45" r="39.3701" style=""/>
<circle cx="5520.87" cy="2979.45" r="39.3701" style=""/>
<circle cx="5520.87" cy="2779.45" r="39.3701" style=""/>
<circle cx="5520.87" cy="2579.45" r="39.3701" style=""/>
<circle cx="5520.87" cy="2379.45" r="39.3701" style=""/>
<circle cx="5520.87" cy="2179.45" r="39.3701" style=""/>
<circle cx="6881.1" cy="696.85" r="39.3701" style=""/>
<circle cx="7081.1" cy="496.85" r="39.3701" style=""/>
<circle cx="7281.1" cy="696.85" r="39.3701" style=""/>
<circle cx="7481.1" cy="496.85" r="39.3701" style=""/>
<circle cx="7681.1" cy="696.85" r="39.3701" style=""/>
<circle cx="7681.1" cy="496.85" r="39.3701" style=""/>
<circle cx="7481.1" cy="696.85" r="39.3701" style=""/>
<circle cx="7281.1" cy="496.85" r="39.3701" style=""/>
<circle cx="7081.1" cy="696.85" r="39.3701" style=""/>
<circle cx="6881.1" cy="496.85" r="39.3701" style=""/>
<circle cx="6681.1" cy="696.85" r="39.3701" style=""/>
<circle cx="6681.1" cy="496.85" r="39.3701" style=""/>
<circle cx="6481.1" cy="696.85" r="39.3701" style=""/>
<circle cx="6481.1" cy="496.85" r="39.3701" style=""/>
<circle cx="6281.1" cy="696.85" r="39.3701" style=""/>
<circle cx="6281.1" cy="496.85" r="39.3701" style=""/>
<circle cx="6081.1" cy="696.85" r="39.3701" style=""/>
<circle cx="6081.1" cy="496.85" r="39.3701" style=""/>
<circle cx="5881.1" cy="696.85" r="39.3701" style=""/>
<circle cx="5881.1" cy="496.85" r="39.3701" style=""/>
<circle cx="5681.1" cy="696.85" r="39.3701" style=""/>
<circle cx="5681.1" cy="496.85" r="39.3701" style=""/>
<circle cx="5481.1" cy="696.85" r="39.3701" style=""/>
<circle cx="5481.1" cy="496.85" r="39.3701" style=""/>
<circle cx="5281.1" cy="696.85" r="39.3701" style=""/>
<circle cx="5281.1" cy="496.85" r="39.3701" style=""/>
<circle cx="5081.1" cy="696.85" r="39.3701" style=""/>
<circle cx="5081.1" cy="496.85" r="39.3701" style=""/>
<circle cx="4881.1" cy="696.85" r="39.3701" style=""/>
<circle cx="4881.1" cy="496.85" r="39.3701" style=""/>
<circle cx="4681.1" cy="696.85" r="39.3701" style=""/>
<circle cx="4681.1" cy="496.85" r="39.3701" style=""/>
<circle cx="4481.1" cy="696.85" r="39.3701" style=""/>
<circle cx="4481.1" cy="496.85" r="39.3701" style=""/>
<circle cx="4281.1" cy="696.85" r="39.3701" style=""/>
<circle cx="4281.1" cy="496.85" r="39.3701" style=""/>
<circle cx="4081.1" cy="696.85" r="39.3701" style=""/>
<circle cx="4081.1" cy="496.85" r="39.3701" style=""/>
<circle cx="3881.1" cy="496.85" r="39.3701" style=""/>
<circle cx="3881.1" cy="696.85" r="39.3701" style=""/>
<circle cx="3681.1" cy="496.85" r="39.3701" style=""/>
<circle cx="3681.1" cy="696.85" r="39.3701" style=""/>
<circle cx="3481.1" cy="496.85" r="39.3701" style=""/>
<circle cx="3481.1" cy="696.85" r="39.3701" style=""/>
<circle cx="3281.1" cy="496.85" r="39.3701" style=""/>
<circle cx="3281.1" cy="696.85" r="39.3701" style=""/>
<circle cx="3081.1" cy="496.85" r="39.3701" style=""/>
<circle cx="3081.1" cy="696.85" r="39.3701" style=""/>
<circle cx="2881.1" cy="496.85" r="39.3701" style=""/>
<circle cx="2881.1" cy="696.85" r="39.3701" style=""/>
<circle cx="2681.1" cy="496.85" r="39.3701" style=""/>
<circle cx="2681.1" cy="696.85" r="39.3701" style=""/>
<circle cx="2481.1" cy="496.85" r="39.3701" style=""/>
<circle cx="2481.1" cy="696.85" r="39.3701" style=""/>
<circle cx="2281.1" cy="496.85" r="39.3701" style=""/>
<circle cx="2281.1" cy="696.85" r="39.3701" style=""/>
<circle cx="2081.1" cy="496.85" r="39.3701" style=""/>
<circle cx="2081.1" cy="696.85" r="39.3701" style=""/>
<circle cx="1881.1" cy="496.85" r="39.3701" style=""/>
<circle cx="1881.1" cy="696.85" r="39.3701" style=""/>
<circle cx="1681.1" cy="496.85" r="39.3701" style=""/>
<circle cx="1681.1" cy="696.85" r="39.3701" style=""/>
<circle cx="1481.1" cy="496.85" r="39.3701" style=""/>
<circle cx="1481.1" cy="696.85" r="39.3701" style=""/>
<circle cx="1281.1" cy="496.85" r="39.3701" style=""/>
<circle cx="1281.1" cy="696.85" r="39.3701" style=""/>
<circle cx="1081.1" cy="496.85" r="39.3701" style=""/>
<circle cx="1081.1" cy="696.85" r="39.3701" style=""/>
<circle cx="881.102" cy="496.85" r="39.3701" style=""/>
<circle cx="881.102" cy="696.85" r="39.3701" style=""/>
<circle cx="681.102" cy="496.85" r="39.3701" style=""/>
<circle cx="681.102" cy="696.85" r="39.3701" style=""/>
<circle cx="5940.31" cy="1973.62" r="43.3071" style=""/>
<circle cx="5940.31" cy="2327.95" r="43.3071" style=""/>
<circle cx="6452.13" cy="1973.62" r="43.3071" style=""/>
<circle cx="6688.35" cy="1662.28" r="43.3071" style=""/>
<circle cx="6688.35" cy="1307.95" r="43.3071" style=""/>
<circle cx="7200.16" cy="1307.95" r="43.3071" style=""/>
<circle cx="7200.16" cy="1662.28" r="43.3071" style=""/>
<circle cx="7420.24" cy="1966.77" r="43.3071" style=""/>
<circle cx="7420.24" cy="2321.1" r="43.3071" style=""/>
<circle cx="7192.05" cy="2622.83" r="43.3071" style=""/>
<circle cx="7192.05" cy="2977.17" r="43.3071" style=""/>
<circle cx="6452.13" cy="2327.95" r="43.3071" style=""/>
<circle cx="6680.24" cy="2622.83" r="43.3071" style=""/>
<circle cx="6680.24" cy="2977.17" r="43.3071" style=""/>
<circle cx="6176.14" cy="3833.62" r="43.3071" style=""/>
<circle cx="6176.14" cy="4187.95" r="43.3071" style=""/>
<circle cx="6687.95" cy="3833.62" r="43.3071" style=""/>
<circle cx="6687.95" cy="4187.95" r="43.3071" style=""/>
<circle cx="7184.25" cy="3838.82" r="43.3071" style=""/>
<circle cx="7184.25" cy="4193.15" r="43.3071" style=""/>
<circle cx="7696.06" cy="4193.15" r="43.3071" style=""/>
<circle cx="7696.06" cy="3838.82" r="43.3071" style=""/>
<circle cx="7932.05" cy="2321.1" r="43.3071" style=""/>
<circle cx="7932.05" cy="1966.77" r="43.3071" style=""/>
</svg>
