<?xml version="1.0" standalone="no"?>
<!DOCTYPE svg PUBLIC "-//W3C//DTD SVG 1.1//EN"
"http://www.w3.org/Graphics/SVG/1.1/DTD/svg11.dtd">
<svg width="408.567" height="295.181" viewBox="0 0 8511.81 6149.61" version="1.1"
xmlns="http://www.w3.org/2000/svg"
xmlns:xlink="http://www.w3.org/1999/xlink">
<polyline points="161.418,5830.71 161.418,318.901 164.444,288.177 173.406,258.635 187.958,231.409 207.544,207.545 231.408,187.959 258.634,173.407 288.176,164.445 318.898,161.419 8192.91,161.419 8223.63,164.445 8253.18,173.407 8280.4,187.959 8304.27,207.545 8323.85,231.409 8338.4,258.635 8347.37,288.177 8350.39,318.901 8350.39,5830.71 8348,5858.05 8340.89,5884.57 8329.29,5909.45 8313.55,5931.93 8294.14,5951.34 8271.65,5967.09 8246.77,5978.69 8220.26,5985.79 8192.91,5988.19 318.898,5988.19 288.176,5985.16 258.634,5976.2 231.408,5961.65 207.544,5942.06 187.958,5918.2 173.406,5890.97 164.444,5861.43 161.418,5830.71" style="stroke:rgb(41,35,190);stroke-width:314.960630;fill:none;stroke-opacity:0.5;stroke-linecap:round;stroke-linejoin:round;;fill:none"/>
<polyline points="161.418,5830.71 161.418,318.901 164.444,288.177 173.406,258.635 187.958,231.409 207.544,207.545 231.408,187.959 258.634,173.407 288.176,164.445 318.898,161.419 8192.91,161.419 8223.63,164.445 8253.18,173.407 8280.4,187.959 8304.27,207.545 8323.85,231.409 8338.4,258.635 8347.37,288.177 8350.39,318.901 8350.39,5830.71 8348,5858.05 8340.89,5884.57 8329.29,5909.45 8313.55,5931.93 8294.14,5951.34 8271.65,5967.09 8246.77,5978.69 8220.26,5985.79 8192.91,5988.19 318.898,5988.19 288.176,5985.16 258.634,5976.2 231.408,5961.65 207.544,5942.06 187.958,5918.2 173.406,5890.97 164.444,5861.43 161.418,5830.71" style="stroke:rgb(0,0,0);stroke-width:1px;fill:none;stroke-opacity:1;stroke-linecap:round;stroke-linejoin:round;;fill:none"/>
</svg>
