<?xml version="1.0" standalone="no"?>
<!DOCTYPE svg PUBLIC "-//W3C//DTD SVG 1.1//EN"
"http://www.w3.org/Graphics/SVG/1.1/DTD/svg11.dtd">
<svg width="684.283" height="363.024" viewBox="0 0 14255.9 7562.99" version="1.1"
xmlns="http://www.w3.org/2000/svg"
xmlns:xlink="http://www.w3.org/1999/xlink">
<polyline points="7819.28,2545.06 7818.54,2550.08 7818.34,2552.08 7817.74,2564.42 7817.74,2566.28 7818.34,2578.63 7818.54,2580.62 7819.29,2585.65" style="stroke:rgb(255,0,0);stroke-width:23.622047;fill:none;stroke-opacity:0.5;stroke-linecap:round;stroke-linejoin:round;;fill:none"/>
<polyline points="7819.28,2545.06 7818.54,2550.08 7818.34,2552.08 7817.74,2564.42 7817.74,2566.28 7818.34,2578.63 7818.54,2580.62 7819.29,2585.65" style="stroke:rgb(0,0,0);stroke-width:1px;fill:none;stroke-opacity:1;stroke-linecap:round;stroke-linejoin:round;;fill:none"/>
<polyline points="7819.28,2545.06 7818.54,2550.08 7818.34,2552.08 7817.74,2564.42 7817.74,2566.28 7818.34,2578.63 7818.54,2580.62 7819.29,2585.65" style="stroke:rgb(255,0,0);stroke-width:23.622047;fill:none;stroke-opacity:0.5;stroke-linecap:round;stroke-linejoin:round;;fill:none"/>
<polyline points="7819.28,2545.06 7818.54,2550.08 7818.34,2552.08 7817.74,2564.42 7817.74,2566.28 7818.34,2578.63 7818.54,2580.62 7819.29,2585.65" style="stroke:rgb(0,0,0);stroke-width:1px;fill:none;stroke-opacity:1;stroke-linecap:round;stroke-linejoin:round;;fill:none"/>
<polyline points="7819.28,2545.06 7818.54,2550.08 7818.34,2552.08 7817.74,2564.42 7817.74,2566.28 7818.34,2578.63 7818.54,2580.62 7819.29,2585.65" style="stroke:rgb(255,0,0);stroke-width:23.622047;fill:none;stroke-opacity:0.5;stroke-linecap:round;stroke-linejoin:round;;fill:none"/>
<polyline points="7819.28,2545.06 7818.54,2550.08 7818.34,2552.08 7817.74,2564.42 7817.74,2566.28 7818.34,2578.63 7818.54,2580.62 7819.29,2585.65" style="stroke:rgb(0,0,0);stroke-width:1px;fill:none;stroke-opacity:1;stroke-linecap:round;stroke-linejoin:round;;fill:none"/>
<polyline points="7819.28,2545.06 7818.54,2550.08 7818.34,2552.08 7817.74,2564.42 7817.74,2566.28 7818.34,2578.63 7818.54,2580.62 7819.29,2585.65" style="stroke:rgb(255,0,0);stroke-width:23.622047;fill:none;stroke-opacity:0.5;stroke-linecap:round;stroke-linejoin:round;;fill:none"/>
<polyline points="7819.28,2545.06 7818.54,2550.08 7818.34,2552.08 7817.74,2564.42 7817.74,2566.28 7818.34,2578.63 7818.54,2580.62 7819.29,2585.65" style="stroke:rgb(0,0,0);stroke-width:1px;fill:none;stroke-opacity:1;stroke-linecap:round;stroke-linejoin:round;;fill:none"/>
<polyline points="7022.44,2535.68 7022.33,2536.1 7021.91,2538.2 7020.08,2550.55 7019.92,2552.23 7019.31,2564.58 7019.31,2566.12 7019.92,2578.47 7020.08,2580.16 7021.91,2592.5 7022.33,2594.6 7022.44,2595.03" style="stroke:rgb(255,0,0);stroke-width:23.622047;fill:none;stroke-opacity:0.5;stroke-linecap:round;stroke-linejoin:round;;fill:none"/>
<polyline points="7022.44,2535.68 7022.33,2536.1 7021.91,2538.2 7020.08,2550.55 7019.92,2552.23 7019.31,2564.58 7019.31,2566.12 7019.92,2578.47 7020.08,2580.16 7021.91,2592.5 7022.33,2594.6 7022.44,2595.03" style="stroke:rgb(0,0,0);stroke-width:1px;fill:none;stroke-opacity:1;stroke-linecap:round;stroke-linejoin:round;;fill:none"/>
<polyline points="7022.44,2535.68 7022.33,2536.1 7021.91,2538.2 7020.08,2550.55 7019.92,2552.23 7019.31,2564.58 7019.31,2566.12 7019.92,2578.47 7020.08,2580.16 7021.91,2592.5 7022.33,2594.6 7022.44,2595.03" style="stroke:rgb(255,0,0);stroke-width:23.622047;fill:none;stroke-opacity:0.5;stroke-linecap:round;stroke-linejoin:round;;fill:none"/>
<polyline points="7022.44,2535.68 7022.33,2536.1 7021.91,2538.2 7020.08,2550.55 7019.92,2552.23 7019.31,2564.58 7019.31,2566.12 7019.92,2578.47 7020.08,2580.16 7021.91,2592.5 7022.33,2594.6 7022.44,2595.03" style="stroke:rgb(0,0,0);stroke-width:1px;fill:none;stroke-opacity:1;stroke-linecap:round;stroke-linejoin:round;;fill:none"/>
<polyline points="7022.44,2535.68 7022.33,2536.1 7021.91,2538.2 7020.08,2550.55 7019.92,2552.23 7019.31,2564.58 7019.31,2566.12 7019.92,2578.47 7020.08,2580.16 7021.91,2592.5 7022.33,2594.6 7022.44,2595.03" style="stroke:rgb(255,0,0);stroke-width:23.622047;fill:none;stroke-opacity:0.5;stroke-linecap:round;stroke-linejoin:round;;fill:none"/>
<polyline points="7022.44,2535.68 7022.33,2536.1 7021.91,2538.2 7020.08,2550.55 7019.92,2552.23 7019.31,2564.58 7019.31,2566.12 7019.92,2578.47 7020.08,2580.16 7021.91,2592.5 7022.33,2594.6 7022.44,2595.03" style="stroke:rgb(0,0,0);stroke-width:1px;fill:none;stroke-opacity:1;stroke-linecap:round;stroke-linejoin:round;;fill:none"/>
<polyline points="7022.44,2535.68 7022.33,2536.1 7021.91,2538.2 7020.08,2550.55 7019.92,2552.23 7019.31,2564.58 7019.31,2566.12 7019.92,2578.47 7020.08,2580.16 7021.91,2592.5 7022.33,2594.6 7022.44,2595.03" style="stroke:rgb(255,0,0);stroke-width:23.622047;fill:none;stroke-opacity:0.5;stroke-linecap:round;stroke-linejoin:round;;fill:none"/>
<polyline points="7022.44,2535.68 7022.33,2536.1 7021.91,2538.2 7020.08,2550.55 7019.92,2552.23 7019.31,2564.58 7019.31,2566.12 7019.92,2578.47 7020.08,2580.16 7021.91,2592.5 7022.33,2594.6 7022.44,2595.03" style="stroke:rgb(0,0,0);stroke-width:1px;fill:none;stroke-opacity:1;stroke-linecap:round;stroke-linejoin:round;;fill:none"/>
<polyline points="6961.02,2545.05 6961.77,2550.08 6961.97,2552.07 6962.57,2564.42 6962.57,2566.28 6961.97,2578.63 6961.77,2580.62 6961.02,2585.65" style="stroke:rgb(255,0,0);stroke-width:23.622047;fill:none;stroke-opacity:0.5;stroke-linecap:round;stroke-linejoin:round;;fill:none"/>
<polyline points="6961.02,2545.05 6961.77,2550.08 6961.97,2552.07 6962.57,2564.42 6962.57,2566.28 6961.97,2578.63 6961.77,2580.62 6961.02,2585.65" style="stroke:rgb(0,0,0);stroke-width:1px;fill:none;stroke-opacity:1;stroke-linecap:round;stroke-linejoin:round;;fill:none"/>
<polyline points="6961.02,2545.05 6961.77,2550.08 6961.97,2552.07 6962.57,2564.42 6962.57,2566.28 6961.97,2578.63 6961.77,2580.62 6961.02,2585.65" style="stroke:rgb(255,0,0);stroke-width:23.622047;fill:none;stroke-opacity:0.5;stroke-linecap:round;stroke-linejoin:round;;fill:none"/>
<polyline points="6961.02,2545.05 6961.77,2550.08 6961.97,2552.07 6962.57,2564.42 6962.57,2566.28 6961.97,2578.63 6961.77,2580.62 6961.02,2585.65" style="stroke:rgb(0,0,0);stroke-width:1px;fill:none;stroke-opacity:1;stroke-linecap:round;stroke-linejoin:round;;fill:none"/>
<polyline points="6961.02,2545.05 6961.77,2550.08 6961.97,2552.07 6962.57,2564.42 6962.57,2566.28 6961.97,2578.63 6961.77,2580.62 6961.02,2585.65" style="stroke:rgb(255,0,0);stroke-width:23.622047;fill:none;stroke-opacity:0.5;stroke-linecap:round;stroke-linejoin:round;;fill:none"/>
<polyline points="6961.02,2545.05 6961.77,2550.08 6961.97,2552.07 6962.57,2564.42 6962.57,2566.28 6961.97,2578.63 6961.77,2580.62 6961.02,2585.65" style="stroke:rgb(0,0,0);stroke-width:1px;fill:none;stroke-opacity:1;stroke-linecap:round;stroke-linejoin:round;;fill:none"/>
<polyline points="6961.02,2545.05 6961.77,2550.08 6961.97,2552.07 6962.57,2564.42 6962.57,2566.28 6961.97,2578.63 6961.77,2580.62 6961.02,2585.65" style="stroke:rgb(255,0,0);stroke-width:23.622047;fill:none;stroke-opacity:0.5;stroke-linecap:round;stroke-linejoin:round;;fill:none"/>
<polyline points="6961.02,2545.05 6961.77,2550.08 6961.97,2552.07 6962.57,2564.42 6962.57,2566.28 6961.97,2578.63 6961.77,2580.62 6961.02,2585.65" style="stroke:rgb(0,0,0);stroke-width:1px;fill:none;stroke-opacity:1;stroke-linecap:round;stroke-linejoin:round;;fill:none"/>
<polyline points="7022.44,1935.68 7022.33,1936.1 7021.91,1938.2 7020.08,1950.55 7019.92,1952.23 7019.31,1964.58 7019.31,1966.12 7019.92,1978.47 7020.08,1980.16 7021.91,1992.5 7022.33,1994.6 7022.44,1995.03" style="stroke:rgb(255,0,0);stroke-width:23.622047;fill:none;stroke-opacity:0.5;stroke-linecap:round;stroke-linejoin:round;;fill:none"/>
<polyline points="7022.44,1935.68 7022.33,1936.1 7021.91,1938.2 7020.08,1950.55 7019.92,1952.23 7019.31,1964.58 7019.31,1966.12 7019.92,1978.47 7020.08,1980.16 7021.91,1992.5 7022.33,1994.6 7022.44,1995.03" style="stroke:rgb(0,0,0);stroke-width:1px;fill:none;stroke-opacity:1;stroke-linecap:round;stroke-linejoin:round;;fill:none"/>
<polyline points="7022.44,1935.68 7022.33,1936.1 7021.91,1938.2 7020.08,1950.55 7019.92,1952.23 7019.31,1964.58 7019.31,1966.12 7019.92,1978.47 7020.08,1980.16 7021.91,1992.5 7022.33,1994.6 7022.44,1995.03" style="stroke:rgb(255,0,0);stroke-width:23.622047;fill:none;stroke-opacity:0.5;stroke-linecap:round;stroke-linejoin:round;;fill:none"/>
<polyline points="7022.44,1935.68 7022.33,1936.1 7021.91,1938.2 7020.08,1950.55 7019.92,1952.23 7019.31,1964.58 7019.31,1966.12 7019.92,1978.47 7020.08,1980.16 7021.91,1992.5 7022.33,1994.6 7022.44,1995.03" style="stroke:rgb(0,0,0);stroke-width:1px;fill:none;stroke-opacity:1;stroke-linecap:round;stroke-linejoin:round;;fill:none"/>
<polyline points="7022.44,1935.68 7022.33,1936.1 7021.91,1938.2 7020.08,1950.55 7019.92,1952.23 7019.31,1964.58 7019.31,1966.12 7019.92,1978.47 7020.08,1980.16 7021.91,1992.5 7022.33,1994.6 7022.44,1995.03" style="stroke:rgb(255,0,0);stroke-width:23.622047;fill:none;stroke-opacity:0.5;stroke-linecap:round;stroke-linejoin:round;;fill:none"/>
<polyline points="7022.44,1935.68 7022.33,1936.1 7021.91,1938.2 7020.08,1950.55 7019.92,1952.23 7019.31,1964.58 7019.31,1966.12 7019.92,1978.47 7020.08,1980.16 7021.91,1992.5 7022.33,1994.6 7022.44,1995.03" style="stroke:rgb(0,0,0);stroke-width:1px;fill:none;stroke-opacity:1;stroke-linecap:round;stroke-linejoin:round;;fill:none"/>
<polyline points="7022.44,1935.68 7022.33,1936.1 7021.91,1938.2 7020.08,1950.55 7019.92,1952.23 7019.31,1964.58 7019.31,1966.12 7019.92,1978.47 7020.08,1980.16 7021.91,1992.5 7022.33,1994.6 7022.44,1995.03" style="stroke:rgb(255,0,0);stroke-width:23.622047;fill:none;stroke-opacity:0.5;stroke-linecap:round;stroke-linejoin:round;;fill:none"/>
<polyline points="7022.44,1935.68 7022.33,1936.1 7021.91,1938.2 7020.08,1950.55 7019.92,1952.23 7019.31,1964.58 7019.31,1966.12 7019.92,1978.47 7020.08,1980.16 7021.91,1992.5 7022.33,1994.6 7022.44,1995.03" style="stroke:rgb(0,0,0);stroke-width:1px;fill:none;stroke-opacity:1;stroke-linecap:round;stroke-linejoin:round;;fill:none"/>
<polyline points="7022.44,2595.04 7022.33,2594.6 7021.91,2592.5 7020.08,2580.16 7019.92,2578.47 7019.31,2566.12 7019.31,2564.58 7019.92,2552.23 7020.08,2550.55 7021.91,2538.2 7022.33,2536.1 7022.44,2535.67" style="stroke:rgb(255,0,0);stroke-width:23.622047;fill:none;stroke-opacity:0.5;stroke-linecap:round;stroke-linejoin:round;;fill:none"/>
<polyline points="7022.44,2595.04 7022.33,2594.6 7021.91,2592.5 7020.08,2580.16 7019.92,2578.47 7019.31,2566.12 7019.31,2564.58 7019.92,2552.23 7020.08,2550.55 7021.91,2538.2 7022.33,2536.1 7022.44,2535.67" style="stroke:rgb(0,0,0);stroke-width:1px;fill:none;stroke-opacity:1;stroke-linecap:round;stroke-linejoin:round;;fill:none"/>
<polyline points="7022.44,2595.04 7022.33,2594.6 7021.91,2592.5 7020.08,2580.16 7019.92,2578.47 7019.31,2566.12 7019.31,2564.58 7019.92,2552.23 7020.08,2550.55 7021.91,2538.2 7022.33,2536.1 7022.44,2535.67" style="stroke:rgb(255,0,0);stroke-width:23.622047;fill:none;stroke-opacity:0.5;stroke-linecap:round;stroke-linejoin:round;;fill:none"/>
<polyline points="7022.44,2595.04 7022.33,2594.6 7021.91,2592.5 7020.08,2580.16 7019.92,2578.47 7019.31,2566.12 7019.31,2564.58 7019.92,2552.23 7020.08,2550.55 7021.91,2538.2 7022.33,2536.1 7022.44,2535.67" style="stroke:rgb(0,0,0);stroke-width:1px;fill:none;stroke-opacity:1;stroke-linecap:round;stroke-linejoin:round;;fill:none"/>
<polyline points="7022.44,2595.04 7022.33,2594.6 7021.91,2592.5 7020.08,2580.16 7019.92,2578.47 7019.31,2566.12 7019.31,2564.58 7019.92,2552.23 7020.08,2550.55 7021.91,2538.2 7022.33,2536.1 7022.44,2535.67" style="stroke:rgb(255,0,0);stroke-width:23.622047;fill:none;stroke-opacity:0.5;stroke-linecap:round;stroke-linejoin:round;;fill:none"/>
<polyline points="7022.44,2595.04 7022.33,2594.6 7021.91,2592.5 7020.08,2580.16 7019.92,2578.47 7019.31,2566.12 7019.31,2564.58 7019.92,2552.23 7020.08,2550.55 7021.91,2538.2 7022.33,2536.1 7022.44,2535.67" style="stroke:rgb(0,0,0);stroke-width:1px;fill:none;stroke-opacity:1;stroke-linecap:round;stroke-linejoin:round;;fill:none"/>
<polyline points="7022.44,2595.04 7022.33,2594.6 7021.91,2592.5 7020.08,2580.16 7019.92,2578.47 7019.31,2566.12 7019.31,2564.58 7019.92,2552.23 7020.08,2550.55 7021.91,2538.2 7022.33,2536.1 7022.44,2535.67" style="stroke:rgb(255,0,0);stroke-width:23.622047;fill:none;stroke-opacity:0.5;stroke-linecap:round;stroke-linejoin:round;;fill:none"/>
<polyline points="7022.44,2595.04 7022.33,2594.6 7021.91,2592.5 7020.08,2580.16 7019.92,2578.47 7019.31,2566.12 7019.31,2564.58 7019.92,2552.23 7020.08,2550.55 7021.91,2538.2 7022.33,2536.1 7022.44,2535.67" style="stroke:rgb(0,0,0);stroke-width:1px;fill:none;stroke-opacity:1;stroke-linecap:round;stroke-linejoin:round;;fill:none"/>
<polyline points="6619.29,2545.05 6618.54,2550.08 6618.34,2552.08 6617.74,2564.42 6617.74,2566.28 6618.34,2578.63 6618.54,2580.62 6619.29,2585.66" style="stroke:rgb(255,0,0);stroke-width:23.622047;fill:none;stroke-opacity:0.5;stroke-linecap:round;stroke-linejoin:round;;fill:none"/>
<polyline points="6619.29,2545.05 6618.54,2550.08 6618.34,2552.08 6617.74,2564.42 6617.74,2566.28 6618.34,2578.63 6618.54,2580.62 6619.29,2585.66" style="stroke:rgb(0,0,0);stroke-width:1px;fill:none;stroke-opacity:1;stroke-linecap:round;stroke-linejoin:round;;fill:none"/>
<polyline points="6619.29,2545.05 6618.54,2550.08 6618.34,2552.08 6617.74,2564.42 6617.74,2566.28 6618.34,2578.63 6618.54,2580.62 6619.29,2585.66" style="stroke:rgb(255,0,0);stroke-width:23.622047;fill:none;stroke-opacity:0.5;stroke-linecap:round;stroke-linejoin:round;;fill:none"/>
<polyline points="6619.29,2545.05 6618.54,2550.08 6618.34,2552.08 6617.74,2564.42 6617.74,2566.28 6618.34,2578.63 6618.54,2580.62 6619.29,2585.66" style="stroke:rgb(0,0,0);stroke-width:1px;fill:none;stroke-opacity:1;stroke-linecap:round;stroke-linejoin:round;;fill:none"/>
<polyline points="6619.29,2545.05 6618.54,2550.08 6618.34,2552.08 6617.74,2564.42 6617.74,2566.28 6618.34,2578.63 6618.54,2580.62 6619.29,2585.66" style="stroke:rgb(255,0,0);stroke-width:23.622047;fill:none;stroke-opacity:0.5;stroke-linecap:round;stroke-linejoin:round;;fill:none"/>
<polyline points="6619.29,2545.05 6618.54,2550.08 6618.34,2552.08 6617.74,2564.42 6617.74,2566.28 6618.34,2578.63 6618.54,2580.62 6619.29,2585.66" style="stroke:rgb(0,0,0);stroke-width:1px;fill:none;stroke-opacity:1;stroke-linecap:round;stroke-linejoin:round;;fill:none"/>
<polyline points="6619.29,2545.05 6618.54,2550.08 6618.34,2552.08 6617.74,2564.42 6617.74,2566.28 6618.34,2578.63 6618.54,2580.62 6619.29,2585.66" style="stroke:rgb(255,0,0);stroke-width:23.622047;fill:none;stroke-opacity:0.5;stroke-linecap:round;stroke-linejoin:round;;fill:none"/>
<polyline points="6619.29,2545.05 6618.54,2550.08 6618.34,2552.08 6617.74,2564.42 6617.74,2566.28 6618.34,2578.63 6618.54,2580.62 6619.29,2585.66" style="stroke:rgb(0,0,0);stroke-width:1px;fill:none;stroke-opacity:1;stroke-linecap:round;stroke-linejoin:round;;fill:none"/>
<polyline points="6557.87,2535.68 6557.98,2536.1 6558.4,2538.2 6560.23,2550.55 6560.4,2552.23 6561,2564.58 6561,2566.13 6560.4,2578.48 6560.23,2580.16 6558.4,2592.5 6557.98,2594.6 6557.87,2595.03" style="stroke:rgb(255,0,0);stroke-width:23.622047;fill:none;stroke-opacity:0.5;stroke-linecap:round;stroke-linejoin:round;;fill:none"/>
<polyline points="6557.87,2535.68 6557.98,2536.1 6558.4,2538.2 6560.23,2550.55 6560.4,2552.23 6561,2564.58 6561,2566.13 6560.4,2578.48 6560.23,2580.16 6558.4,2592.5 6557.98,2594.6 6557.87,2595.03" style="stroke:rgb(0,0,0);stroke-width:1px;fill:none;stroke-opacity:1;stroke-linecap:round;stroke-linejoin:round;;fill:none"/>
<polyline points="6557.87,2535.68 6557.98,2536.1 6558.4,2538.2 6560.23,2550.55 6560.4,2552.23 6561,2564.58 6561,2566.13 6560.4,2578.48 6560.23,2580.16 6558.4,2592.5 6557.98,2594.6 6557.87,2595.03" style="stroke:rgb(255,0,0);stroke-width:23.622047;fill:none;stroke-opacity:0.5;stroke-linecap:round;stroke-linejoin:round;;fill:none"/>
<polyline points="6557.87,2535.68 6557.98,2536.1 6558.4,2538.2 6560.23,2550.55 6560.4,2552.23 6561,2564.58 6561,2566.13 6560.4,2578.48 6560.23,2580.16 6558.4,2592.5 6557.98,2594.6 6557.87,2595.03" style="stroke:rgb(0,0,0);stroke-width:1px;fill:none;stroke-opacity:1;stroke-linecap:round;stroke-linejoin:round;;fill:none"/>
<polyline points="6557.87,2535.68 6557.98,2536.1 6558.4,2538.2 6560.23,2550.55 6560.4,2552.23 6561,2564.58 6561,2566.13 6560.4,2578.48 6560.23,2580.16 6558.4,2592.5 6557.98,2594.6 6557.87,2595.03" style="stroke:rgb(255,0,0);stroke-width:23.622047;fill:none;stroke-opacity:0.5;stroke-linecap:round;stroke-linejoin:round;;fill:none"/>
<polyline points="6557.87,2535.68 6557.98,2536.1 6558.4,2538.2 6560.23,2550.55 6560.4,2552.23 6561,2564.58 6561,2566.13 6560.4,2578.48 6560.23,2580.16 6558.4,2592.5 6557.98,2594.6 6557.87,2595.03" style="stroke:rgb(0,0,0);stroke-width:1px;fill:none;stroke-opacity:1;stroke-linecap:round;stroke-linejoin:round;;fill:none"/>
<polyline points="6557.87,2535.68 6557.98,2536.1 6558.4,2538.2 6560.23,2550.55 6560.4,2552.23 6561,2564.58 6561,2566.13 6560.4,2578.48 6560.23,2580.16 6558.4,2592.5 6557.98,2594.6 6557.87,2595.03" style="stroke:rgb(255,0,0);stroke-width:23.622047;fill:none;stroke-opacity:0.5;stroke-linecap:round;stroke-linejoin:round;;fill:none"/>
<polyline points="6557.87,2535.68 6557.98,2536.1 6558.4,2538.2 6560.23,2550.55 6560.4,2552.23 6561,2564.58 6561,2566.13 6560.4,2578.48 6560.23,2580.16 6558.4,2592.5 6557.98,2594.6 6557.87,2595.03" style="stroke:rgb(0,0,0);stroke-width:1px;fill:none;stroke-opacity:1;stroke-linecap:round;stroke-linejoin:round;;fill:none"/>
<polyline points="6619.29,1945.05 6618.54,1950.08 6618.34,1952.08 6617.74,1964.42 6617.74,1966.28 6618.34,1978.63 6618.54,1980.62 6619.29,1985.66" style="stroke:rgb(255,0,0);stroke-width:23.622047;fill:none;stroke-opacity:0.5;stroke-linecap:round;stroke-linejoin:round;;fill:none"/>
<polyline points="6619.29,1945.05 6618.54,1950.08 6618.34,1952.08 6617.74,1964.42 6617.74,1966.28 6618.34,1978.63 6618.54,1980.62 6619.29,1985.66" style="stroke:rgb(0,0,0);stroke-width:1px;fill:none;stroke-opacity:1;stroke-linecap:round;stroke-linejoin:round;;fill:none"/>
<polyline points="6619.29,1945.05 6618.54,1950.08 6618.34,1952.08 6617.74,1964.42 6617.74,1966.28 6618.34,1978.63 6618.54,1980.62 6619.29,1985.66" style="stroke:rgb(255,0,0);stroke-width:23.622047;fill:none;stroke-opacity:0.5;stroke-linecap:round;stroke-linejoin:round;;fill:none"/>
<polyline points="6619.29,1945.05 6618.54,1950.08 6618.34,1952.08 6617.74,1964.42 6617.74,1966.28 6618.34,1978.63 6618.54,1980.62 6619.29,1985.66" style="stroke:rgb(0,0,0);stroke-width:1px;fill:none;stroke-opacity:1;stroke-linecap:round;stroke-linejoin:round;;fill:none"/>
<polyline points="6619.29,1945.05 6618.54,1950.08 6618.34,1952.08 6617.74,1964.42 6617.74,1966.28 6618.34,1978.63 6618.54,1980.62 6619.29,1985.66" style="stroke:rgb(255,0,0);stroke-width:23.622047;fill:none;stroke-opacity:0.5;stroke-linecap:round;stroke-linejoin:round;;fill:none"/>
<polyline points="6619.29,1945.05 6618.54,1950.08 6618.34,1952.08 6617.74,1964.42 6617.74,1966.28 6618.34,1978.63 6618.54,1980.62 6619.29,1985.66" style="stroke:rgb(0,0,0);stroke-width:1px;fill:none;stroke-opacity:1;stroke-linecap:round;stroke-linejoin:round;;fill:none"/>
<polyline points="6619.29,1945.05 6618.54,1950.08 6618.34,1952.08 6617.74,1964.42 6617.74,1966.28 6618.34,1978.63 6618.54,1980.62 6619.29,1985.66" style="stroke:rgb(255,0,0);stroke-width:23.622047;fill:none;stroke-opacity:0.5;stroke-linecap:round;stroke-linejoin:round;;fill:none"/>
<polyline points="6619.29,1945.05 6618.54,1950.08 6618.34,1952.08 6617.74,1964.42 6617.74,1966.28 6618.34,1978.63 6618.54,1980.62 6619.29,1985.66" style="stroke:rgb(0,0,0);stroke-width:1px;fill:none;stroke-opacity:1;stroke-linecap:round;stroke-linejoin:round;;fill:none"/>
<polyline points="6619.29,2585.67 6618.54,2580.62 6618.34,2578.63 6617.74,2566.28 6617.74,2564.42 6618.34,2552.08 6618.54,2550.08 6619.29,2545.03" style="stroke:rgb(255,0,0);stroke-width:23.622047;fill:none;stroke-opacity:0.5;stroke-linecap:round;stroke-linejoin:round;;fill:none"/>
<polyline points="6619.29,2585.67 6618.54,2580.62 6618.34,2578.63 6617.74,2566.28 6617.74,2564.42 6618.34,2552.08 6618.54,2550.08 6619.29,2545.03" style="stroke:rgb(0,0,0);stroke-width:1px;fill:none;stroke-opacity:1;stroke-linecap:round;stroke-linejoin:round;;fill:none"/>
<polyline points="6619.29,2585.67 6618.54,2580.62 6618.34,2578.63 6617.74,2566.28 6617.74,2564.42 6618.34,2552.08 6618.54,2550.08 6619.29,2545.03" style="stroke:rgb(255,0,0);stroke-width:23.622047;fill:none;stroke-opacity:0.5;stroke-linecap:round;stroke-linejoin:round;;fill:none"/>
<polyline points="6619.29,2585.67 6618.54,2580.62 6618.34,2578.63 6617.74,2566.28 6617.74,2564.42 6618.34,2552.08 6618.54,2550.08 6619.29,2545.03" style="stroke:rgb(0,0,0);stroke-width:1px;fill:none;stroke-opacity:1;stroke-linecap:round;stroke-linejoin:round;;fill:none"/>
<polyline points="6619.29,2585.67 6618.54,2580.62 6618.34,2578.63 6617.74,2566.28 6617.74,2564.42 6618.34,2552.08 6618.54,2550.08 6619.29,2545.03" style="stroke:rgb(255,0,0);stroke-width:23.622047;fill:none;stroke-opacity:0.5;stroke-linecap:round;stroke-linejoin:round;;fill:none"/>
<polyline points="6619.29,2585.67 6618.54,2580.62 6618.34,2578.63 6617.74,2566.28 6617.74,2564.42 6618.34,2552.08 6618.54,2550.08 6619.29,2545.03" style="stroke:rgb(0,0,0);stroke-width:1px;fill:none;stroke-opacity:1;stroke-linecap:round;stroke-linejoin:round;;fill:none"/>
<polyline points="6619.29,2585.67 6618.54,2580.62 6618.34,2578.63 6617.74,2566.28 6617.74,2564.42 6618.34,2552.08 6618.54,2550.08 6619.29,2545.03" style="stroke:rgb(255,0,0);stroke-width:23.622047;fill:none;stroke-opacity:0.5;stroke-linecap:round;stroke-linejoin:round;;fill:none"/>
<polyline points="6619.29,2585.67 6618.54,2580.62 6618.34,2578.63 6617.74,2566.28 6617.74,2564.42 6618.34,2552.08 6618.54,2550.08 6619.29,2545.03" style="stroke:rgb(0,0,0);stroke-width:1px;fill:none;stroke-opacity:1;stroke-linecap:round;stroke-linejoin:round;;fill:none"/>
<polyline points="6557.87,2595.05 6557.98,2594.6 6558.4,2592.5 6560.23,2580.16 6560.4,2578.48 6561,2566.13 6561,2564.58 6560.4,2552.23 6560.23,2550.55 6558.4,2538.2 6557.98,2536.1 6557.87,2535.67" style="stroke:rgb(255,0,0);stroke-width:23.622047;fill:none;stroke-opacity:0.5;stroke-linecap:round;stroke-linejoin:round;;fill:none"/>
<polyline points="6557.87,2595.05 6557.98,2594.6 6558.4,2592.5 6560.23,2580.16 6560.4,2578.48 6561,2566.13 6561,2564.58 6560.4,2552.23 6560.23,2550.55 6558.4,2538.2 6557.98,2536.1 6557.87,2535.67" style="stroke:rgb(0,0,0);stroke-width:1px;fill:none;stroke-opacity:1;stroke-linecap:round;stroke-linejoin:round;;fill:none"/>
<polyline points="6557.87,2595.05 6557.98,2594.6 6558.4,2592.5 6560.23,2580.16 6560.4,2578.48 6561,2566.13 6561,2564.58 6560.4,2552.23 6560.23,2550.55 6558.4,2538.2 6557.98,2536.1 6557.87,2535.67" style="stroke:rgb(255,0,0);stroke-width:23.622047;fill:none;stroke-opacity:0.5;stroke-linecap:round;stroke-linejoin:round;;fill:none"/>
<polyline points="6557.87,2595.05 6557.98,2594.6 6558.4,2592.5 6560.23,2580.16 6560.4,2578.48 6561,2566.13 6561,2564.58 6560.4,2552.23 6560.23,2550.55 6558.4,2538.2 6557.98,2536.1 6557.87,2535.67" style="stroke:rgb(0,0,0);stroke-width:1px;fill:none;stroke-opacity:1;stroke-linecap:round;stroke-linejoin:round;;fill:none"/>
<polyline points="6557.87,2595.05 6557.98,2594.6 6558.4,2592.5 6560.23,2580.16 6560.4,2578.48 6561,2566.13 6561,2564.58 6560.4,2552.23 6560.23,2550.55 6558.4,2538.2 6557.98,2536.1 6557.87,2535.67" style="stroke:rgb(255,0,0);stroke-width:23.622047;fill:none;stroke-opacity:0.5;stroke-linecap:round;stroke-linejoin:round;;fill:none"/>
<polyline points="6557.87,2595.05 6557.98,2594.6 6558.4,2592.5 6560.23,2580.16 6560.4,2578.48 6561,2566.13 6561,2564.58 6560.4,2552.23 6560.23,2550.55 6558.4,2538.2 6557.98,2536.1 6557.87,2535.67" style="stroke:rgb(0,0,0);stroke-width:1px;fill:none;stroke-opacity:1;stroke-linecap:round;stroke-linejoin:round;;fill:none"/>
<polyline points="6557.87,2595.05 6557.98,2594.6 6558.4,2592.5 6560.23,2580.16 6560.4,2578.48 6561,2566.13 6561,2564.58 6560.4,2552.23 6560.23,2550.55 6558.4,2538.2 6557.98,2536.1 6557.87,2535.67" style="stroke:rgb(255,0,0);stroke-width:23.622047;fill:none;stroke-opacity:0.5;stroke-linecap:round;stroke-linejoin:round;;fill:none"/>
<polyline points="6557.87,2595.05 6557.98,2594.6 6558.4,2592.5 6560.23,2580.16 6560.4,2578.48 6561,2566.13 6561,2564.58 6560.4,2552.23 6560.23,2550.55 6558.4,2538.2 6557.98,2536.1 6557.87,2535.67" style="stroke:rgb(0,0,0);stroke-width:1px;fill:none;stroke-opacity:1;stroke-linecap:round;stroke-linejoin:round;;fill:none"/>
<polyline points="6557.87,1935.68 6557.98,1936.1 6558.4,1938.2 6560.23,1950.55 6560.4,1952.23 6561,1964.58 6561,1966.13 6560.4,1978.48 6560.23,1980.16 6558.4,1992.5 6557.98,1994.6 6557.87,1995.03" style="stroke:rgb(255,0,0);stroke-width:23.622047;fill:none;stroke-opacity:0.5;stroke-linecap:round;stroke-linejoin:round;;fill:none"/>
<polyline points="6557.87,1935.68 6557.98,1936.1 6558.4,1938.2 6560.23,1950.55 6560.4,1952.23 6561,1964.58 6561,1966.13 6560.4,1978.48 6560.23,1980.16 6558.4,1992.5 6557.98,1994.6 6557.87,1995.03" style="stroke:rgb(0,0,0);stroke-width:1px;fill:none;stroke-opacity:1;stroke-linecap:round;stroke-linejoin:round;;fill:none"/>
<polyline points="6557.87,1935.68 6557.98,1936.1 6558.4,1938.2 6560.23,1950.55 6560.4,1952.23 6561,1964.58 6561,1966.13 6560.4,1978.48 6560.23,1980.16 6558.4,1992.5 6557.98,1994.6 6557.87,1995.03" style="stroke:rgb(255,0,0);stroke-width:23.622047;fill:none;stroke-opacity:0.5;stroke-linecap:round;stroke-linejoin:round;;fill:none"/>
<polyline points="6557.87,1935.68 6557.98,1936.1 6558.4,1938.2 6560.23,1950.55 6560.4,1952.23 6561,1964.58 6561,1966.13 6560.4,1978.48 6560.23,1980.16 6558.4,1992.5 6557.98,1994.6 6557.87,1995.03" style="stroke:rgb(0,0,0);stroke-width:1px;fill:none;stroke-opacity:1;stroke-linecap:round;stroke-linejoin:round;;fill:none"/>
<polyline points="6557.87,1935.68 6557.98,1936.1 6558.4,1938.2 6560.23,1950.55 6560.4,1952.23 6561,1964.58 6561,1966.13 6560.4,1978.48 6560.23,1980.16 6558.4,1992.5 6557.98,1994.6 6557.87,1995.03" style="stroke:rgb(255,0,0);stroke-width:23.622047;fill:none;stroke-opacity:0.5;stroke-linecap:round;stroke-linejoin:round;;fill:none"/>
<polyline points="6557.87,1935.68 6557.98,1936.1 6558.4,1938.2 6560.23,1950.55 6560.4,1952.23 6561,1964.58 6561,1966.13 6560.4,1978.48 6560.23,1980.16 6558.4,1992.5 6557.98,1994.6 6557.87,1995.03" style="stroke:rgb(0,0,0);stroke-width:1px;fill:none;stroke-opacity:1;stroke-linecap:round;stroke-linejoin:round;;fill:none"/>
<polyline points="6557.87,1935.68 6557.98,1936.1 6558.4,1938.2 6560.23,1950.55 6560.4,1952.23 6561,1964.58 6561,1966.13 6560.4,1978.48 6560.23,1980.16 6558.4,1992.5 6557.98,1994.6 6557.87,1995.03" style="stroke:rgb(255,0,0);stroke-width:23.622047;fill:none;stroke-opacity:0.5;stroke-linecap:round;stroke-linejoin:round;;fill:none"/>
<polyline points="6557.87,1935.68 6557.98,1936.1 6558.4,1938.2 6560.23,1950.55 6560.4,1952.23 6561,1964.58 6561,1966.13 6560.4,1978.48 6560.23,1980.16 6558.4,1992.5 6557.98,1994.6 6557.87,1995.03" style="stroke:rgb(0,0,0);stroke-width:1px;fill:none;stroke-opacity:1;stroke-linecap:round;stroke-linejoin:round;;fill:none"/>
<polyline points="6619.29,1985.67 6618.54,1980.62 6618.34,1978.63 6617.74,1966.28 6617.74,1964.42 6618.34,1952.08 6618.54,1950.08 6619.29,1945.03" style="stroke:rgb(255,0,0);stroke-width:23.622047;fill:none;stroke-opacity:0.5;stroke-linecap:round;stroke-linejoin:round;;fill:none"/>
<polyline points="6619.29,1985.67 6618.54,1980.62 6618.34,1978.63 6617.74,1966.28 6617.74,1964.42 6618.34,1952.08 6618.54,1950.08 6619.29,1945.03" style="stroke:rgb(0,0,0);stroke-width:1px;fill:none;stroke-opacity:1;stroke-linecap:round;stroke-linejoin:round;;fill:none"/>
<polyline points="6619.29,1985.67 6618.54,1980.62 6618.34,1978.63 6617.74,1966.28 6617.74,1964.42 6618.34,1952.08 6618.54,1950.08 6619.29,1945.03" style="stroke:rgb(255,0,0);stroke-width:23.622047;fill:none;stroke-opacity:0.5;stroke-linecap:round;stroke-linejoin:round;;fill:none"/>
<polyline points="6619.29,1985.67 6618.54,1980.62 6618.34,1978.63 6617.74,1966.28 6617.74,1964.42 6618.34,1952.08 6618.54,1950.08 6619.29,1945.03" style="stroke:rgb(0,0,0);stroke-width:1px;fill:none;stroke-opacity:1;stroke-linecap:round;stroke-linejoin:round;;fill:none"/>
<polyline points="6619.29,1985.67 6618.54,1980.62 6618.34,1978.63 6617.74,1966.28 6617.74,1964.42 6618.34,1952.08 6618.54,1950.08 6619.29,1945.03" style="stroke:rgb(255,0,0);stroke-width:23.622047;fill:none;stroke-opacity:0.5;stroke-linecap:round;stroke-linejoin:round;;fill:none"/>
<polyline points="6619.29,1985.67 6618.54,1980.62 6618.34,1978.63 6617.74,1966.28 6617.74,1964.42 6618.34,1952.08 6618.54,1950.08 6619.29,1945.03" style="stroke:rgb(0,0,0);stroke-width:1px;fill:none;stroke-opacity:1;stroke-linecap:round;stroke-linejoin:round;;fill:none"/>
<polyline points="6619.29,1985.67 6618.54,1980.62 6618.34,1978.63 6617.74,1966.28 6617.74,1964.42 6618.34,1952.08 6618.54,1950.08 6619.29,1945.03" style="stroke:rgb(255,0,0);stroke-width:23.622047;fill:none;stroke-opacity:0.5;stroke-linecap:round;stroke-linejoin:round;;fill:none"/>
<polyline points="6619.29,1985.67 6618.54,1980.62 6618.34,1978.63 6617.74,1966.28 6617.74,1964.42 6618.34,1952.08 6618.54,1950.08 6619.29,1945.03" style="stroke:rgb(0,0,0);stroke-width:1px;fill:none;stroke-opacity:1;stroke-linecap:round;stroke-linejoin:round;;fill:none"/>
<polyline points="6961.02,2585.69 6961.77,2580.62 6961.97,2578.63 6962.57,2566.28 6962.57,2564.42 6961.97,2552.07 6961.77,2550.08 6961.02,2545.02" style="stroke:rgb(255,0,0);stroke-width:23.622047;fill:none;stroke-opacity:0.5;stroke-linecap:round;stroke-linejoin:round;;fill:none"/>
<polyline points="6961.02,2585.69 6961.77,2580.62 6961.97,2578.63 6962.57,2566.28 6962.57,2564.42 6961.97,2552.07 6961.77,2550.08 6961.02,2545.02" style="stroke:rgb(0,0,0);stroke-width:1px;fill:none;stroke-opacity:1;stroke-linecap:round;stroke-linejoin:round;;fill:none"/>
<polyline points="6961.02,2585.69 6961.77,2580.62 6961.97,2578.63 6962.57,2566.28 6962.57,2564.42 6961.97,2552.07 6961.77,2550.08 6961.02,2545.02" style="stroke:rgb(255,0,0);stroke-width:23.622047;fill:none;stroke-opacity:0.5;stroke-linecap:round;stroke-linejoin:round;;fill:none"/>
<polyline points="6961.02,2585.69 6961.77,2580.62 6961.97,2578.63 6962.57,2566.28 6962.57,2564.42 6961.97,2552.07 6961.77,2550.08 6961.02,2545.02" style="stroke:rgb(0,0,0);stroke-width:1px;fill:none;stroke-opacity:1;stroke-linecap:round;stroke-linejoin:round;;fill:none"/>
<polyline points="6961.02,2585.69 6961.77,2580.62 6961.97,2578.63 6962.57,2566.28 6962.57,2564.42 6961.97,2552.07 6961.77,2550.08 6961.02,2545.02" style="stroke:rgb(255,0,0);stroke-width:23.622047;fill:none;stroke-opacity:0.5;stroke-linecap:round;stroke-linejoin:round;;fill:none"/>
<polyline points="6961.02,2585.69 6961.77,2580.62 6961.97,2578.63 6962.57,2566.28 6962.57,2564.42 6961.97,2552.07 6961.77,2550.08 6961.02,2545.02" style="stroke:rgb(0,0,0);stroke-width:1px;fill:none;stroke-opacity:1;stroke-linecap:round;stroke-linejoin:round;;fill:none"/>
<polyline points="6961.02,2585.69 6961.77,2580.62 6961.97,2578.63 6962.57,2566.28 6962.57,2564.42 6961.97,2552.07 6961.77,2550.08 6961.02,2545.02" style="stroke:rgb(255,0,0);stroke-width:23.622047;fill:none;stroke-opacity:0.5;stroke-linecap:round;stroke-linejoin:round;;fill:none"/>
<polyline points="6961.02,2585.69 6961.77,2580.62 6961.97,2578.63 6962.57,2566.28 6962.57,2564.42 6961.97,2552.07 6961.77,2550.08 6961.02,2545.02" style="stroke:rgb(0,0,0);stroke-width:1px;fill:none;stroke-opacity:1;stroke-linecap:round;stroke-linejoin:round;;fill:none"/>
<polyline points="6961.02,1945.05 6961.77,1950.08 6961.97,1952.07 6962.57,1964.42 6962.57,1966.28 6961.97,1978.63 6961.77,1980.62 6961.02,1985.65" style="stroke:rgb(255,0,0);stroke-width:23.622047;fill:none;stroke-opacity:0.5;stroke-linecap:round;stroke-linejoin:round;;fill:none"/>
<polyline points="6961.02,1945.05 6961.77,1950.08 6961.97,1952.07 6962.57,1964.42 6962.57,1966.28 6961.97,1978.63 6961.77,1980.62 6961.02,1985.65" style="stroke:rgb(0,0,0);stroke-width:1px;fill:none;stroke-opacity:1;stroke-linecap:round;stroke-linejoin:round;;fill:none"/>
<polyline points="6961.02,1945.05 6961.77,1950.08 6961.97,1952.07 6962.57,1964.42 6962.57,1966.28 6961.97,1978.63 6961.77,1980.62 6961.02,1985.65" style="stroke:rgb(255,0,0);stroke-width:23.622047;fill:none;stroke-opacity:0.5;stroke-linecap:round;stroke-linejoin:round;;fill:none"/>
<polyline points="6961.02,1945.05 6961.77,1950.08 6961.97,1952.07 6962.57,1964.42 6962.57,1966.28 6961.97,1978.63 6961.77,1980.62 6961.02,1985.65" style="stroke:rgb(0,0,0);stroke-width:1px;fill:none;stroke-opacity:1;stroke-linecap:round;stroke-linejoin:round;;fill:none"/>
<polyline points="6961.02,1945.05 6961.77,1950.08 6961.97,1952.07 6962.57,1964.42 6962.57,1966.28 6961.97,1978.63 6961.77,1980.62 6961.02,1985.65" style="stroke:rgb(255,0,0);stroke-width:23.622047;fill:none;stroke-opacity:0.5;stroke-linecap:round;stroke-linejoin:round;;fill:none"/>
<polyline points="6961.02,1945.05 6961.77,1950.08 6961.97,1952.07 6962.57,1964.42 6962.57,1966.28 6961.97,1978.63 6961.77,1980.62 6961.02,1985.65" style="stroke:rgb(0,0,0);stroke-width:1px;fill:none;stroke-opacity:1;stroke-linecap:round;stroke-linejoin:round;;fill:none"/>
<polyline points="6961.02,1945.05 6961.77,1950.08 6961.97,1952.07 6962.57,1964.42 6962.57,1966.28 6961.97,1978.63 6961.77,1980.62 6961.02,1985.65" style="stroke:rgb(255,0,0);stroke-width:23.622047;fill:none;stroke-opacity:0.5;stroke-linecap:round;stroke-linejoin:round;;fill:none"/>
<polyline points="6961.02,1945.05 6961.77,1950.08 6961.97,1952.07 6962.57,1964.42 6962.57,1966.28 6961.97,1978.63 6961.77,1980.62 6961.02,1985.65" style="stroke:rgb(0,0,0);stroke-width:1px;fill:none;stroke-opacity:1;stroke-linecap:round;stroke-linejoin:round;;fill:none"/>
<polyline points="7022.44,1995.04 7022.33,1994.6 7021.91,1992.5 7020.08,1980.16 7019.92,1978.47 7019.31,1966.12 7019.31,1964.58 7019.92,1952.23 7020.08,1950.55 7021.91,1938.2 7022.33,1936.1 7022.44,1935.67" style="stroke:rgb(255,0,0);stroke-width:23.622047;fill:none;stroke-opacity:0.5;stroke-linecap:round;stroke-linejoin:round;;fill:none"/>
<polyline points="7022.44,1995.04 7022.33,1994.6 7021.91,1992.5 7020.08,1980.16 7019.92,1978.47 7019.31,1966.12 7019.31,1964.58 7019.92,1952.23 7020.08,1950.55 7021.91,1938.2 7022.33,1936.1 7022.44,1935.67" style="stroke:rgb(0,0,0);stroke-width:1px;fill:none;stroke-opacity:1;stroke-linecap:round;stroke-linejoin:round;;fill:none"/>
<polyline points="7022.44,1995.04 7022.33,1994.6 7021.91,1992.5 7020.08,1980.16 7019.92,1978.47 7019.31,1966.12 7019.31,1964.58 7019.92,1952.23 7020.08,1950.55 7021.91,1938.2 7022.33,1936.1 7022.44,1935.67" style="stroke:rgb(255,0,0);stroke-width:23.622047;fill:none;stroke-opacity:0.5;stroke-linecap:round;stroke-linejoin:round;;fill:none"/>
<polyline points="7022.44,1995.04 7022.33,1994.6 7021.91,1992.5 7020.08,1980.16 7019.92,1978.47 7019.31,1966.12 7019.31,1964.58 7019.92,1952.23 7020.08,1950.55 7021.91,1938.2 7022.33,1936.1 7022.44,1935.67" style="stroke:rgb(0,0,0);stroke-width:1px;fill:none;stroke-opacity:1;stroke-linecap:round;stroke-linejoin:round;;fill:none"/>
<polyline points="7022.44,1995.04 7022.33,1994.6 7021.91,1992.5 7020.08,1980.16 7019.92,1978.47 7019.31,1966.12 7019.31,1964.58 7019.92,1952.23 7020.08,1950.55 7021.91,1938.2 7022.33,1936.1 7022.44,1935.67" style="stroke:rgb(255,0,0);stroke-width:23.622047;fill:none;stroke-opacity:0.5;stroke-linecap:round;stroke-linejoin:round;;fill:none"/>
<polyline points="7022.44,1995.04 7022.33,1994.6 7021.91,1992.5 7020.08,1980.16 7019.92,1978.47 7019.31,1966.12 7019.31,1964.58 7019.92,1952.23 7020.08,1950.55 7021.91,1938.2 7022.33,1936.1 7022.44,1935.67" style="stroke:rgb(0,0,0);stroke-width:1px;fill:none;stroke-opacity:1;stroke-linecap:round;stroke-linejoin:round;;fill:none"/>
<polyline points="7022.44,1995.04 7022.33,1994.6 7021.91,1992.5 7020.08,1980.16 7019.92,1978.47 7019.31,1966.12 7019.31,1964.58 7019.92,1952.23 7020.08,1950.55 7021.91,1938.2 7022.33,1936.1 7022.44,1935.67" style="stroke:rgb(255,0,0);stroke-width:23.622047;fill:none;stroke-opacity:0.5;stroke-linecap:round;stroke-linejoin:round;;fill:none"/>
<polyline points="7022.44,1995.04 7022.33,1994.6 7021.91,1992.5 7020.08,1980.16 7019.92,1978.47 7019.31,1966.12 7019.31,1964.58 7019.92,1952.23 7020.08,1950.55 7021.91,1938.2 7022.33,1936.1 7022.44,1935.67" style="stroke:rgb(0,0,0);stroke-width:1px;fill:none;stroke-opacity:1;stroke-linecap:round;stroke-linejoin:round;;fill:none"/>
<polyline points="6557.87,1995.05 6557.98,1994.6 6558.4,1992.5 6560.23,1980.16 6560.4,1978.48 6561,1966.13 6561,1964.58 6560.4,1952.23 6560.23,1950.55 6558.4,1938.2 6557.98,1936.1 6557.87,1935.67" style="stroke:rgb(255,0,0);stroke-width:23.622047;fill:none;stroke-opacity:0.5;stroke-linecap:round;stroke-linejoin:round;;fill:none"/>
<polyline points="6557.87,1995.05 6557.98,1994.6 6558.4,1992.5 6560.23,1980.16 6560.4,1978.48 6561,1966.13 6561,1964.58 6560.4,1952.23 6560.23,1950.55 6558.4,1938.2 6557.98,1936.1 6557.87,1935.67" style="stroke:rgb(0,0,0);stroke-width:1px;fill:none;stroke-opacity:1;stroke-linecap:round;stroke-linejoin:round;;fill:none"/>
<polyline points="6557.87,1995.05 6557.98,1994.6 6558.4,1992.5 6560.23,1980.16 6560.4,1978.48 6561,1966.13 6561,1964.58 6560.4,1952.23 6560.23,1950.55 6558.4,1938.2 6557.98,1936.1 6557.87,1935.67" style="stroke:rgb(255,0,0);stroke-width:23.622047;fill:none;stroke-opacity:0.5;stroke-linecap:round;stroke-linejoin:round;;fill:none"/>
<polyline points="6557.87,1995.05 6557.98,1994.6 6558.4,1992.5 6560.23,1980.16 6560.4,1978.48 6561,1966.13 6561,1964.58 6560.4,1952.23 6560.23,1950.55 6558.4,1938.2 6557.98,1936.1 6557.87,1935.67" style="stroke:rgb(0,0,0);stroke-width:1px;fill:none;stroke-opacity:1;stroke-linecap:round;stroke-linejoin:round;;fill:none"/>
<polyline points="6557.87,1995.05 6557.98,1994.6 6558.4,1992.5 6560.23,1980.16 6560.4,1978.48 6561,1966.13 6561,1964.58 6560.4,1952.23 6560.23,1950.55 6558.4,1938.2 6557.98,1936.1 6557.87,1935.67" style="stroke:rgb(255,0,0);stroke-width:23.622047;fill:none;stroke-opacity:0.5;stroke-linecap:round;stroke-linejoin:round;;fill:none"/>
<polyline points="6557.87,1995.05 6557.98,1994.6 6558.4,1992.5 6560.23,1980.16 6560.4,1978.48 6561,1966.13 6561,1964.58 6560.4,1952.23 6560.23,1950.55 6558.4,1938.2 6557.98,1936.1 6557.87,1935.67" style="stroke:rgb(0,0,0);stroke-width:1px;fill:none;stroke-opacity:1;stroke-linecap:round;stroke-linejoin:round;;fill:none"/>
<polyline points="6557.87,1995.05 6557.98,1994.6 6558.4,1992.5 6560.23,1980.16 6560.4,1978.48 6561,1966.13 6561,1964.58 6560.4,1952.23 6560.23,1950.55 6558.4,1938.2 6557.98,1936.1 6557.87,1935.67" style="stroke:rgb(255,0,0);stroke-width:23.622047;fill:none;stroke-opacity:0.5;stroke-linecap:round;stroke-linejoin:round;;fill:none"/>
<polyline points="6557.87,1995.05 6557.98,1994.6 6558.4,1992.5 6560.23,1980.16 6560.4,1978.48 6561,1966.13 6561,1964.58 6560.4,1952.23 6560.23,1950.55 6558.4,1938.2 6557.98,1936.1 6557.87,1935.67" style="stroke:rgb(0,0,0);stroke-width:1px;fill:none;stroke-opacity:1;stroke-linecap:round;stroke-linejoin:round;;fill:none"/>
<polyline points="7757.87,2535.67 7757.98,2536.1 7758.4,2538.2 7760.23,2550.55 7760.39,2552.23 7761,2564.58 7761,2566.13 7760.39,2578.48 7760.23,2580.16 7758.4,2592.5 7757.98,2594.6 7757.87,2595.03" style="stroke:rgb(255,0,0);stroke-width:23.622047;fill:none;stroke-opacity:0.5;stroke-linecap:round;stroke-linejoin:round;;fill:none"/>
<polyline points="7757.87,2535.67 7757.98,2536.1 7758.4,2538.2 7760.23,2550.55 7760.39,2552.23 7761,2564.58 7761,2566.13 7760.39,2578.48 7760.23,2580.16 7758.4,2592.5 7757.98,2594.6 7757.87,2595.03" style="stroke:rgb(0,0,0);stroke-width:1px;fill:none;stroke-opacity:1;stroke-linecap:round;stroke-linejoin:round;;fill:none"/>
<polyline points="7757.87,2535.67 7757.98,2536.1 7758.4,2538.2 7760.23,2550.55 7760.39,2552.23 7761,2564.58 7761,2566.13 7760.39,2578.48 7760.23,2580.16 7758.4,2592.5 7757.98,2594.6 7757.87,2595.03" style="stroke:rgb(255,0,0);stroke-width:23.622047;fill:none;stroke-opacity:0.5;stroke-linecap:round;stroke-linejoin:round;;fill:none"/>
<polyline points="7757.87,2535.67 7757.98,2536.1 7758.4,2538.2 7760.23,2550.55 7760.39,2552.23 7761,2564.58 7761,2566.13 7760.39,2578.48 7760.23,2580.16 7758.4,2592.5 7757.98,2594.6 7757.87,2595.03" style="stroke:rgb(0,0,0);stroke-width:1px;fill:none;stroke-opacity:1;stroke-linecap:round;stroke-linejoin:round;;fill:none"/>
<polyline points="7757.87,2535.67 7757.98,2536.1 7758.4,2538.2 7760.23,2550.55 7760.39,2552.23 7761,2564.58 7761,2566.13 7760.39,2578.48 7760.23,2580.16 7758.4,2592.5 7757.98,2594.6 7757.87,2595.03" style="stroke:rgb(255,0,0);stroke-width:23.622047;fill:none;stroke-opacity:0.5;stroke-linecap:round;stroke-linejoin:round;;fill:none"/>
<polyline points="7757.87,2535.67 7757.98,2536.1 7758.4,2538.2 7760.23,2550.55 7760.39,2552.23 7761,2564.58 7761,2566.13 7760.39,2578.48 7760.23,2580.16 7758.4,2592.5 7757.98,2594.6 7757.87,2595.03" style="stroke:rgb(0,0,0);stroke-width:1px;fill:none;stroke-opacity:1;stroke-linecap:round;stroke-linejoin:round;;fill:none"/>
<polyline points="7757.87,2535.67 7757.98,2536.1 7758.4,2538.2 7760.23,2550.55 7760.39,2552.23 7761,2564.58 7761,2566.13 7760.39,2578.48 7760.23,2580.16 7758.4,2592.5 7757.98,2594.6 7757.87,2595.03" style="stroke:rgb(255,0,0);stroke-width:23.622047;fill:none;stroke-opacity:0.5;stroke-linecap:round;stroke-linejoin:round;;fill:none"/>
<polyline points="7757.87,2535.67 7757.98,2536.1 7758.4,2538.2 7760.23,2550.55 7760.39,2552.23 7761,2564.58 7761,2566.13 7760.39,2578.48 7760.23,2580.16 7758.4,2592.5 7757.98,2594.6 7757.87,2595.03" style="stroke:rgb(0,0,0);stroke-width:1px;fill:none;stroke-opacity:1;stroke-linecap:round;stroke-linejoin:round;;fill:none"/>
<polyline points="7819.29,2585.67 7818.54,2580.62 7818.34,2578.63 7817.74,2566.28 7817.74,2564.42 7818.34,2552.08 7818.54,2550.08 7819.29,2545.04" style="stroke:rgb(255,0,0);stroke-width:23.622047;fill:none;stroke-opacity:0.5;stroke-linecap:round;stroke-linejoin:round;;fill:none"/>
<polyline points="7819.29,2585.67 7818.54,2580.62 7818.34,2578.63 7817.74,2566.28 7817.74,2564.42 7818.34,2552.08 7818.54,2550.08 7819.29,2545.04" style="stroke:rgb(0,0,0);stroke-width:1px;fill:none;stroke-opacity:1;stroke-linecap:round;stroke-linejoin:round;;fill:none"/>
<polyline points="7819.29,2585.67 7818.54,2580.62 7818.34,2578.63 7817.74,2566.28 7817.74,2564.42 7818.34,2552.08 7818.54,2550.08 7819.29,2545.04" style="stroke:rgb(255,0,0);stroke-width:23.622047;fill:none;stroke-opacity:0.5;stroke-linecap:round;stroke-linejoin:round;;fill:none"/>
<polyline points="7819.29,2585.67 7818.54,2580.62 7818.34,2578.63 7817.74,2566.28 7817.74,2564.42 7818.34,2552.08 7818.54,2550.08 7819.29,2545.04" style="stroke:rgb(0,0,0);stroke-width:1px;fill:none;stroke-opacity:1;stroke-linecap:round;stroke-linejoin:round;;fill:none"/>
<polyline points="7819.29,2585.67 7818.54,2580.62 7818.34,2578.63 7817.74,2566.28 7817.74,2564.42 7818.34,2552.08 7818.54,2550.08 7819.29,2545.04" style="stroke:rgb(255,0,0);stroke-width:23.622047;fill:none;stroke-opacity:0.5;stroke-linecap:round;stroke-linejoin:round;;fill:none"/>
<polyline points="7819.29,2585.67 7818.54,2580.62 7818.34,2578.63 7817.74,2566.28 7817.74,2564.42 7818.34,2552.08 7818.54,2550.08 7819.29,2545.04" style="stroke:rgb(0,0,0);stroke-width:1px;fill:none;stroke-opacity:1;stroke-linecap:round;stroke-linejoin:round;;fill:none"/>
<polyline points="7819.29,2585.67 7818.54,2580.62 7818.34,2578.63 7817.74,2566.28 7817.74,2564.42 7818.34,2552.08 7818.54,2550.08 7819.29,2545.04" style="stroke:rgb(255,0,0);stroke-width:23.622047;fill:none;stroke-opacity:0.5;stroke-linecap:round;stroke-linejoin:round;;fill:none"/>
<polyline points="7819.29,2585.67 7818.54,2580.62 7818.34,2578.63 7817.74,2566.28 7817.74,2564.42 7818.34,2552.08 7818.54,2550.08 7819.29,2545.04" style="stroke:rgb(0,0,0);stroke-width:1px;fill:none;stroke-opacity:1;stroke-linecap:round;stroke-linejoin:round;;fill:none"/>
<polyline points="7822.43,1935.69 7822.33,1936.1 7821.91,1938.2 7820.08,1950.55 7819.91,1952.23 7819.31,1964.58 7819.31,1966.12 7819.91,1978.47 7820.08,1980.16 7821.91,1992.5 7822.33,1994.6 7822.43,1995.02" style="stroke:rgb(255,0,0);stroke-width:23.622047;fill:none;stroke-opacity:0.5;stroke-linecap:round;stroke-linejoin:round;;fill:none"/>
<polyline points="7822.43,1935.69 7822.33,1936.1 7821.91,1938.2 7820.08,1950.55 7819.91,1952.23 7819.31,1964.58 7819.31,1966.12 7819.91,1978.47 7820.08,1980.16 7821.91,1992.5 7822.33,1994.6 7822.43,1995.02" style="stroke:rgb(0,0,0);stroke-width:1px;fill:none;stroke-opacity:1;stroke-linecap:round;stroke-linejoin:round;;fill:none"/>
<polyline points="7822.43,1935.69 7822.33,1936.1 7821.91,1938.2 7820.08,1950.55 7819.91,1952.23 7819.31,1964.58 7819.31,1966.12 7819.91,1978.47 7820.08,1980.16 7821.91,1992.5 7822.33,1994.6 7822.43,1995.02" style="stroke:rgb(255,0,0);stroke-width:23.622047;fill:none;stroke-opacity:0.5;stroke-linecap:round;stroke-linejoin:round;;fill:none"/>
<polyline points="7822.43,1935.69 7822.33,1936.1 7821.91,1938.2 7820.08,1950.55 7819.91,1952.23 7819.31,1964.58 7819.31,1966.12 7819.91,1978.47 7820.08,1980.16 7821.91,1992.5 7822.33,1994.6 7822.43,1995.02" style="stroke:rgb(0,0,0);stroke-width:1px;fill:none;stroke-opacity:1;stroke-linecap:round;stroke-linejoin:round;;fill:none"/>
<polyline points="7822.43,1935.69 7822.33,1936.1 7821.91,1938.2 7820.08,1950.55 7819.91,1952.23 7819.31,1964.58 7819.31,1966.12 7819.91,1978.47 7820.08,1980.16 7821.91,1992.5 7822.33,1994.6 7822.43,1995.02" style="stroke:rgb(255,0,0);stroke-width:23.622047;fill:none;stroke-opacity:0.5;stroke-linecap:round;stroke-linejoin:round;;fill:none"/>
<polyline points="7822.43,1935.69 7822.33,1936.1 7821.91,1938.2 7820.08,1950.55 7819.91,1952.23 7819.31,1964.58 7819.31,1966.12 7819.91,1978.47 7820.08,1980.16 7821.91,1992.5 7822.33,1994.6 7822.43,1995.02" style="stroke:rgb(0,0,0);stroke-width:1px;fill:none;stroke-opacity:1;stroke-linecap:round;stroke-linejoin:round;;fill:none"/>
<polyline points="7822.43,1935.69 7822.33,1936.1 7821.91,1938.2 7820.08,1950.55 7819.91,1952.23 7819.31,1964.58 7819.31,1966.12 7819.91,1978.47 7820.08,1980.16 7821.91,1992.5 7822.33,1994.6 7822.43,1995.02" style="stroke:rgb(255,0,0);stroke-width:23.622047;fill:none;stroke-opacity:0.5;stroke-linecap:round;stroke-linejoin:round;;fill:none"/>
<polyline points="7822.43,1935.69 7822.33,1936.1 7821.91,1938.2 7820.08,1950.55 7819.91,1952.23 7819.31,1964.58 7819.31,1966.12 7819.91,1978.47 7820.08,1980.16 7821.91,1992.5 7822.33,1994.6 7822.43,1995.02" style="stroke:rgb(0,0,0);stroke-width:1px;fill:none;stroke-opacity:1;stroke-linecap:round;stroke-linejoin:round;;fill:none"/>
<polyline points="7419.29,2545.05 7418.54,2550.08 7418.34,2552.08 7417.74,2564.42 7417.74,2566.28 7418.34,2578.63 7418.54,2580.62 7419.29,2585.66" style="stroke:rgb(255,0,0);stroke-width:23.622047;fill:none;stroke-opacity:0.5;stroke-linecap:round;stroke-linejoin:round;;fill:none"/>
<polyline points="7419.29,2545.05 7418.54,2550.08 7418.34,2552.08 7417.74,2564.42 7417.74,2566.28 7418.34,2578.63 7418.54,2580.62 7419.29,2585.66" style="stroke:rgb(0,0,0);stroke-width:1px;fill:none;stroke-opacity:1;stroke-linecap:round;stroke-linejoin:round;;fill:none"/>
<polyline points="7419.29,2545.05 7418.54,2550.08 7418.34,2552.08 7417.74,2564.42 7417.74,2566.28 7418.34,2578.63 7418.54,2580.62 7419.29,2585.66" style="stroke:rgb(255,0,0);stroke-width:23.622047;fill:none;stroke-opacity:0.5;stroke-linecap:round;stroke-linejoin:round;;fill:none"/>
<polyline points="7419.29,2545.05 7418.54,2550.08 7418.34,2552.08 7417.74,2564.42 7417.74,2566.28 7418.34,2578.63 7418.54,2580.62 7419.29,2585.66" style="stroke:rgb(0,0,0);stroke-width:1px;fill:none;stroke-opacity:1;stroke-linecap:round;stroke-linejoin:round;;fill:none"/>
<polyline points="7419.29,2545.05 7418.54,2550.08 7418.34,2552.08 7417.74,2564.42 7417.74,2566.28 7418.34,2578.63 7418.54,2580.62 7419.29,2585.66" style="stroke:rgb(255,0,0);stroke-width:23.622047;fill:none;stroke-opacity:0.5;stroke-linecap:round;stroke-linejoin:round;;fill:none"/>
<polyline points="7419.29,2545.05 7418.54,2550.08 7418.34,2552.08 7417.74,2564.42 7417.74,2566.28 7418.34,2578.63 7418.54,2580.62 7419.29,2585.66" style="stroke:rgb(0,0,0);stroke-width:1px;fill:none;stroke-opacity:1;stroke-linecap:round;stroke-linejoin:round;;fill:none"/>
<polyline points="7419.29,2545.05 7418.54,2550.08 7418.34,2552.08 7417.74,2564.42 7417.74,2566.28 7418.34,2578.63 7418.54,2580.62 7419.29,2585.66" style="stroke:rgb(255,0,0);stroke-width:23.622047;fill:none;stroke-opacity:0.5;stroke-linecap:round;stroke-linejoin:round;;fill:none"/>
<polyline points="7419.29,2545.05 7418.54,2550.08 7418.34,2552.08 7417.74,2564.42 7417.74,2566.28 7418.34,2578.63 7418.54,2580.62 7419.29,2585.66" style="stroke:rgb(0,0,0);stroke-width:1px;fill:none;stroke-opacity:1;stroke-linecap:round;stroke-linejoin:round;;fill:none"/>
<polyline points="7357.87,2535.68 7357.98,2536.1 7358.4,2538.2 7360.23,2550.55 7360.4,2552.23 7361,2564.58 7361,2566.13 7360.4,2578.48 7360.23,2580.16 7358.4,2592.5 7357.98,2594.6 7357.87,2595.03" style="stroke:rgb(255,0,0);stroke-width:23.622047;fill:none;stroke-opacity:0.5;stroke-linecap:round;stroke-linejoin:round;;fill:none"/>
<polyline points="7357.87,2535.68 7357.98,2536.1 7358.4,2538.2 7360.23,2550.55 7360.4,2552.23 7361,2564.58 7361,2566.13 7360.4,2578.48 7360.23,2580.16 7358.4,2592.5 7357.98,2594.6 7357.87,2595.03" style="stroke:rgb(0,0,0);stroke-width:1px;fill:none;stroke-opacity:1;stroke-linecap:round;stroke-linejoin:round;;fill:none"/>
<polyline points="7357.87,2535.68 7357.98,2536.1 7358.4,2538.2 7360.23,2550.55 7360.4,2552.23 7361,2564.58 7361,2566.13 7360.4,2578.48 7360.23,2580.16 7358.4,2592.5 7357.98,2594.6 7357.87,2595.03" style="stroke:rgb(255,0,0);stroke-width:23.622047;fill:none;stroke-opacity:0.5;stroke-linecap:round;stroke-linejoin:round;;fill:none"/>
<polyline points="7357.87,2535.68 7357.98,2536.1 7358.4,2538.2 7360.23,2550.55 7360.4,2552.23 7361,2564.58 7361,2566.13 7360.4,2578.48 7360.23,2580.16 7358.4,2592.5 7357.98,2594.6 7357.87,2595.03" style="stroke:rgb(0,0,0);stroke-width:1px;fill:none;stroke-opacity:1;stroke-linecap:round;stroke-linejoin:round;;fill:none"/>
<polyline points="7357.87,2535.68 7357.98,2536.1 7358.4,2538.2 7360.23,2550.55 7360.4,2552.23 7361,2564.58 7361,2566.13 7360.4,2578.48 7360.23,2580.16 7358.4,2592.5 7357.98,2594.6 7357.87,2595.03" style="stroke:rgb(255,0,0);stroke-width:23.622047;fill:none;stroke-opacity:0.5;stroke-linecap:round;stroke-linejoin:round;;fill:none"/>
<polyline points="7357.87,2535.68 7357.98,2536.1 7358.4,2538.2 7360.23,2550.55 7360.4,2552.23 7361,2564.58 7361,2566.13 7360.4,2578.48 7360.23,2580.16 7358.4,2592.5 7357.98,2594.6 7357.87,2595.03" style="stroke:rgb(0,0,0);stroke-width:1px;fill:none;stroke-opacity:1;stroke-linecap:round;stroke-linejoin:round;;fill:none"/>
<polyline points="7357.87,2535.68 7357.98,2536.1 7358.4,2538.2 7360.23,2550.55 7360.4,2552.23 7361,2564.58 7361,2566.13 7360.4,2578.48 7360.23,2580.16 7358.4,2592.5 7357.98,2594.6 7357.87,2595.03" style="stroke:rgb(255,0,0);stroke-width:23.622047;fill:none;stroke-opacity:0.5;stroke-linecap:round;stroke-linejoin:round;;fill:none"/>
<polyline points="7357.87,2535.68 7357.98,2536.1 7358.4,2538.2 7360.23,2550.55 7360.4,2552.23 7361,2564.58 7361,2566.13 7360.4,2578.48 7360.23,2580.16 7358.4,2592.5 7357.98,2594.6 7357.87,2595.03" style="stroke:rgb(0,0,0);stroke-width:1px;fill:none;stroke-opacity:1;stroke-linecap:round;stroke-linejoin:round;;fill:none"/>
<polyline points="7419.29,1945.05 7418.54,1950.08 7418.34,1952.08 7417.74,1964.42 7417.74,1966.28 7418.34,1978.63 7418.54,1980.62 7419.29,1985.66" style="stroke:rgb(255,0,0);stroke-width:23.622047;fill:none;stroke-opacity:0.5;stroke-linecap:round;stroke-linejoin:round;;fill:none"/>
<polyline points="7419.29,1945.05 7418.54,1950.08 7418.34,1952.08 7417.74,1964.42 7417.74,1966.28 7418.34,1978.63 7418.54,1980.62 7419.29,1985.66" style="stroke:rgb(0,0,0);stroke-width:1px;fill:none;stroke-opacity:1;stroke-linecap:round;stroke-linejoin:round;;fill:none"/>
<polyline points="7419.29,1945.05 7418.54,1950.08 7418.34,1952.08 7417.74,1964.42 7417.74,1966.28 7418.34,1978.63 7418.54,1980.62 7419.29,1985.66" style="stroke:rgb(255,0,0);stroke-width:23.622047;fill:none;stroke-opacity:0.5;stroke-linecap:round;stroke-linejoin:round;;fill:none"/>
<polyline points="7419.29,1945.05 7418.54,1950.08 7418.34,1952.08 7417.74,1964.42 7417.74,1966.28 7418.34,1978.63 7418.54,1980.62 7419.29,1985.66" style="stroke:rgb(0,0,0);stroke-width:1px;fill:none;stroke-opacity:1;stroke-linecap:round;stroke-linejoin:round;;fill:none"/>
<polyline points="7419.29,1945.05 7418.54,1950.08 7418.34,1952.08 7417.74,1964.42 7417.74,1966.28 7418.34,1978.63 7418.54,1980.62 7419.29,1985.66" style="stroke:rgb(255,0,0);stroke-width:23.622047;fill:none;stroke-opacity:0.5;stroke-linecap:round;stroke-linejoin:round;;fill:none"/>
<polyline points="7419.29,1945.05 7418.54,1950.08 7418.34,1952.08 7417.74,1964.42 7417.74,1966.28 7418.34,1978.63 7418.54,1980.62 7419.29,1985.66" style="stroke:rgb(0,0,0);stroke-width:1px;fill:none;stroke-opacity:1;stroke-linecap:round;stroke-linejoin:round;;fill:none"/>
<polyline points="7419.29,1945.05 7418.54,1950.08 7418.34,1952.08 7417.74,1964.42 7417.74,1966.28 7418.34,1978.63 7418.54,1980.62 7419.29,1985.66" style="stroke:rgb(255,0,0);stroke-width:23.622047;fill:none;stroke-opacity:0.5;stroke-linecap:round;stroke-linejoin:round;;fill:none"/>
<polyline points="7419.29,1945.05 7418.54,1950.08 7418.34,1952.08 7417.74,1964.42 7417.74,1966.28 7418.34,1978.63 7418.54,1980.62 7419.29,1985.66" style="stroke:rgb(0,0,0);stroke-width:1px;fill:none;stroke-opacity:1;stroke-linecap:round;stroke-linejoin:round;;fill:none"/>
<polyline points="7419.29,2585.67 7418.54,2580.62 7418.34,2578.63 7417.74,2566.28 7417.74,2564.42 7418.34,2552.08 7418.54,2550.08 7419.29,2545.03" style="stroke:rgb(255,0,0);stroke-width:23.622047;fill:none;stroke-opacity:0.5;stroke-linecap:round;stroke-linejoin:round;;fill:none"/>
<polyline points="7419.29,2585.67 7418.54,2580.62 7418.34,2578.63 7417.74,2566.28 7417.74,2564.42 7418.34,2552.08 7418.54,2550.08 7419.29,2545.03" style="stroke:rgb(0,0,0);stroke-width:1px;fill:none;stroke-opacity:1;stroke-linecap:round;stroke-linejoin:round;;fill:none"/>
<polyline points="7419.29,2585.67 7418.54,2580.62 7418.34,2578.63 7417.74,2566.28 7417.74,2564.42 7418.34,2552.08 7418.54,2550.08 7419.29,2545.03" style="stroke:rgb(255,0,0);stroke-width:23.622047;fill:none;stroke-opacity:0.5;stroke-linecap:round;stroke-linejoin:round;;fill:none"/>
<polyline points="7419.29,2585.67 7418.54,2580.62 7418.34,2578.63 7417.74,2566.28 7417.74,2564.42 7418.34,2552.08 7418.54,2550.08 7419.29,2545.03" style="stroke:rgb(0,0,0);stroke-width:1px;fill:none;stroke-opacity:1;stroke-linecap:round;stroke-linejoin:round;;fill:none"/>
<polyline points="7419.29,2585.67 7418.54,2580.62 7418.34,2578.63 7417.74,2566.28 7417.74,2564.42 7418.34,2552.08 7418.54,2550.08 7419.29,2545.03" style="stroke:rgb(255,0,0);stroke-width:23.622047;fill:none;stroke-opacity:0.5;stroke-linecap:round;stroke-linejoin:round;;fill:none"/>
<polyline points="7419.29,2585.67 7418.54,2580.62 7418.34,2578.63 7417.74,2566.28 7417.74,2564.42 7418.34,2552.08 7418.54,2550.08 7419.29,2545.03" style="stroke:rgb(0,0,0);stroke-width:1px;fill:none;stroke-opacity:1;stroke-linecap:round;stroke-linejoin:round;;fill:none"/>
<polyline points="7419.29,2585.67 7418.54,2580.62 7418.34,2578.63 7417.74,2566.28 7417.74,2564.42 7418.34,2552.08 7418.54,2550.08 7419.29,2545.03" style="stroke:rgb(255,0,0);stroke-width:23.622047;fill:none;stroke-opacity:0.5;stroke-linecap:round;stroke-linejoin:round;;fill:none"/>
<polyline points="7419.29,2585.67 7418.54,2580.62 7418.34,2578.63 7417.74,2566.28 7417.74,2564.42 7418.34,2552.08 7418.54,2550.08 7419.29,2545.03" style="stroke:rgb(0,0,0);stroke-width:1px;fill:none;stroke-opacity:1;stroke-linecap:round;stroke-linejoin:round;;fill:none"/>
<polyline points="7357.87,2595.05 7357.98,2594.6 7358.4,2592.5 7360.23,2580.16 7360.4,2578.48 7361,2566.13 7361,2564.58 7360.4,2552.23 7360.23,2550.55 7358.4,2538.2 7357.98,2536.1 7357.87,2535.67" style="stroke:rgb(255,0,0);stroke-width:23.622047;fill:none;stroke-opacity:0.5;stroke-linecap:round;stroke-linejoin:round;;fill:none"/>
<polyline points="7357.87,2595.05 7357.98,2594.6 7358.4,2592.5 7360.23,2580.16 7360.4,2578.48 7361,2566.13 7361,2564.58 7360.4,2552.23 7360.23,2550.55 7358.4,2538.2 7357.98,2536.1 7357.87,2535.67" style="stroke:rgb(0,0,0);stroke-width:1px;fill:none;stroke-opacity:1;stroke-linecap:round;stroke-linejoin:round;;fill:none"/>
<polyline points="7357.87,2595.05 7357.98,2594.6 7358.4,2592.5 7360.23,2580.16 7360.4,2578.48 7361,2566.13 7361,2564.58 7360.4,2552.23 7360.23,2550.55 7358.4,2538.2 7357.98,2536.1 7357.87,2535.67" style="stroke:rgb(255,0,0);stroke-width:23.622047;fill:none;stroke-opacity:0.5;stroke-linecap:round;stroke-linejoin:round;;fill:none"/>
<polyline points="7357.87,2595.05 7357.98,2594.6 7358.4,2592.5 7360.23,2580.16 7360.4,2578.48 7361,2566.13 7361,2564.58 7360.4,2552.23 7360.23,2550.55 7358.4,2538.2 7357.98,2536.1 7357.87,2535.67" style="stroke:rgb(0,0,0);stroke-width:1px;fill:none;stroke-opacity:1;stroke-linecap:round;stroke-linejoin:round;;fill:none"/>
<polyline points="7357.87,2595.05 7357.98,2594.6 7358.4,2592.5 7360.23,2580.16 7360.4,2578.48 7361,2566.13 7361,2564.58 7360.4,2552.23 7360.23,2550.55 7358.4,2538.2 7357.98,2536.1 7357.87,2535.67" style="stroke:rgb(255,0,0);stroke-width:23.622047;fill:none;stroke-opacity:0.5;stroke-linecap:round;stroke-linejoin:round;;fill:none"/>
<polyline points="7357.87,2595.05 7357.98,2594.6 7358.4,2592.5 7360.23,2580.16 7360.4,2578.48 7361,2566.13 7361,2564.58 7360.4,2552.23 7360.23,2550.55 7358.4,2538.2 7357.98,2536.1 7357.87,2535.67" style="stroke:rgb(0,0,0);stroke-width:1px;fill:none;stroke-opacity:1;stroke-linecap:round;stroke-linejoin:round;;fill:none"/>
<polyline points="7357.87,2595.05 7357.98,2594.6 7358.4,2592.5 7360.23,2580.16 7360.4,2578.48 7361,2566.13 7361,2564.58 7360.4,2552.23 7360.23,2550.55 7358.4,2538.2 7357.98,2536.1 7357.87,2535.67" style="stroke:rgb(255,0,0);stroke-width:23.622047;fill:none;stroke-opacity:0.5;stroke-linecap:round;stroke-linejoin:round;;fill:none"/>
<polyline points="7357.87,2595.05 7357.98,2594.6 7358.4,2592.5 7360.23,2580.16 7360.4,2578.48 7361,2566.13 7361,2564.58 7360.4,2552.23 7360.23,2550.55 7358.4,2538.2 7357.98,2536.1 7357.87,2535.67" style="stroke:rgb(0,0,0);stroke-width:1px;fill:none;stroke-opacity:1;stroke-linecap:round;stroke-linejoin:round;;fill:none"/>
<polyline points="7357.87,1935.68 7357.98,1936.1 7358.4,1938.2 7360.23,1950.55 7360.4,1952.23 7361,1964.58 7361,1966.13 7360.4,1978.48 7360.23,1980.16 7358.4,1992.5 7357.98,1994.6 7357.87,1995.03" style="stroke:rgb(255,0,0);stroke-width:23.622047;fill:none;stroke-opacity:0.5;stroke-linecap:round;stroke-linejoin:round;;fill:none"/>
<polyline points="7357.87,1935.68 7357.98,1936.1 7358.4,1938.2 7360.23,1950.55 7360.4,1952.23 7361,1964.58 7361,1966.13 7360.4,1978.48 7360.23,1980.16 7358.4,1992.5 7357.98,1994.6 7357.87,1995.03" style="stroke:rgb(0,0,0);stroke-width:1px;fill:none;stroke-opacity:1;stroke-linecap:round;stroke-linejoin:round;;fill:none"/>
<polyline points="7357.87,1935.68 7357.98,1936.1 7358.4,1938.2 7360.23,1950.55 7360.4,1952.23 7361,1964.58 7361,1966.13 7360.4,1978.48 7360.23,1980.16 7358.4,1992.5 7357.98,1994.6 7357.87,1995.03" style="stroke:rgb(255,0,0);stroke-width:23.622047;fill:none;stroke-opacity:0.5;stroke-linecap:round;stroke-linejoin:round;;fill:none"/>
<polyline points="7357.87,1935.68 7357.98,1936.1 7358.4,1938.2 7360.23,1950.55 7360.4,1952.23 7361,1964.58 7361,1966.13 7360.4,1978.48 7360.23,1980.16 7358.4,1992.5 7357.98,1994.6 7357.87,1995.03" style="stroke:rgb(0,0,0);stroke-width:1px;fill:none;stroke-opacity:1;stroke-linecap:round;stroke-linejoin:round;;fill:none"/>
<polyline points="7357.87,1935.68 7357.98,1936.1 7358.4,1938.2 7360.23,1950.55 7360.4,1952.23 7361,1964.58 7361,1966.13 7360.4,1978.48 7360.23,1980.16 7358.4,1992.5 7357.98,1994.6 7357.87,1995.03" style="stroke:rgb(255,0,0);stroke-width:23.622047;fill:none;stroke-opacity:0.5;stroke-linecap:round;stroke-linejoin:round;;fill:none"/>
<polyline points="7357.87,1935.68 7357.98,1936.1 7358.4,1938.2 7360.23,1950.55 7360.4,1952.23 7361,1964.58 7361,1966.13 7360.4,1978.48 7360.23,1980.16 7358.4,1992.5 7357.98,1994.6 7357.87,1995.03" style="stroke:rgb(0,0,0);stroke-width:1px;fill:none;stroke-opacity:1;stroke-linecap:round;stroke-linejoin:round;;fill:none"/>
<polyline points="7357.87,1935.68 7357.98,1936.1 7358.4,1938.2 7360.23,1950.55 7360.4,1952.23 7361,1964.58 7361,1966.13 7360.4,1978.48 7360.23,1980.16 7358.4,1992.5 7357.98,1994.6 7357.87,1995.03" style="stroke:rgb(255,0,0);stroke-width:23.622047;fill:none;stroke-opacity:0.5;stroke-linecap:round;stroke-linejoin:round;;fill:none"/>
<polyline points="7357.87,1935.68 7357.98,1936.1 7358.4,1938.2 7360.23,1950.55 7360.4,1952.23 7361,1964.58 7361,1966.13 7360.4,1978.48 7360.23,1980.16 7358.4,1992.5 7357.98,1994.6 7357.87,1995.03" style="stroke:rgb(0,0,0);stroke-width:1px;fill:none;stroke-opacity:1;stroke-linecap:round;stroke-linejoin:round;;fill:none"/>
<polyline points="7419.29,1985.67 7418.54,1980.62 7418.34,1978.63 7417.74,1966.28 7417.74,1964.42 7418.34,1952.08 7418.54,1950.08 7419.29,1945.03" style="stroke:rgb(255,0,0);stroke-width:23.622047;fill:none;stroke-opacity:0.5;stroke-linecap:round;stroke-linejoin:round;;fill:none"/>
<polyline points="7419.29,1985.67 7418.54,1980.62 7418.34,1978.63 7417.74,1966.28 7417.74,1964.42 7418.34,1952.08 7418.54,1950.08 7419.29,1945.03" style="stroke:rgb(0,0,0);stroke-width:1px;fill:none;stroke-opacity:1;stroke-linecap:round;stroke-linejoin:round;;fill:none"/>
<polyline points="7419.29,1985.67 7418.54,1980.62 7418.34,1978.63 7417.74,1966.28 7417.74,1964.42 7418.34,1952.08 7418.54,1950.08 7419.29,1945.03" style="stroke:rgb(255,0,0);stroke-width:23.622047;fill:none;stroke-opacity:0.5;stroke-linecap:round;stroke-linejoin:round;;fill:none"/>
<polyline points="7419.29,1985.67 7418.54,1980.62 7418.34,1978.63 7417.74,1966.28 7417.74,1964.42 7418.34,1952.08 7418.54,1950.08 7419.29,1945.03" style="stroke:rgb(0,0,0);stroke-width:1px;fill:none;stroke-opacity:1;stroke-linecap:round;stroke-linejoin:round;;fill:none"/>
<polyline points="7419.29,1985.67 7418.54,1980.62 7418.34,1978.63 7417.74,1966.28 7417.74,1964.42 7418.34,1952.08 7418.54,1950.08 7419.29,1945.03" style="stroke:rgb(255,0,0);stroke-width:23.622047;fill:none;stroke-opacity:0.5;stroke-linecap:round;stroke-linejoin:round;;fill:none"/>
<polyline points="7419.29,1985.67 7418.54,1980.62 7418.34,1978.63 7417.74,1966.28 7417.74,1964.42 7418.34,1952.08 7418.54,1950.08 7419.29,1945.03" style="stroke:rgb(0,0,0);stroke-width:1px;fill:none;stroke-opacity:1;stroke-linecap:round;stroke-linejoin:round;;fill:none"/>
<polyline points="7419.29,1985.67 7418.54,1980.62 7418.34,1978.63 7417.74,1966.28 7417.74,1964.42 7418.34,1952.08 7418.54,1950.08 7419.29,1945.03" style="stroke:rgb(255,0,0);stroke-width:23.622047;fill:none;stroke-opacity:0.5;stroke-linecap:round;stroke-linejoin:round;;fill:none"/>
<polyline points="7419.29,1985.67 7418.54,1980.62 7418.34,1978.63 7417.74,1966.28 7417.74,1964.42 7418.34,1952.08 7418.54,1950.08 7419.29,1945.03" style="stroke:rgb(0,0,0);stroke-width:1px;fill:none;stroke-opacity:1;stroke-linecap:round;stroke-linejoin:round;;fill:none"/>
<polyline points="7757.86,2595.06 7757.98,2594.6 7758.4,2592.5 7760.23,2580.16 7760.39,2578.48 7761,2566.13 7761,2564.58 7760.39,2552.23 7760.23,2550.55 7758.4,2538.2 7757.98,2536.1 7757.87,2535.66" style="stroke:rgb(255,0,0);stroke-width:23.622047;fill:none;stroke-opacity:0.5;stroke-linecap:round;stroke-linejoin:round;;fill:none"/>
<polyline points="7757.86,2595.06 7757.98,2594.6 7758.4,2592.5 7760.23,2580.16 7760.39,2578.48 7761,2566.13 7761,2564.58 7760.39,2552.23 7760.23,2550.55 7758.4,2538.2 7757.98,2536.1 7757.87,2535.66" style="stroke:rgb(0,0,0);stroke-width:1px;fill:none;stroke-opacity:1;stroke-linecap:round;stroke-linejoin:round;;fill:none"/>
<polyline points="7757.86,2595.06 7757.98,2594.6 7758.4,2592.5 7760.23,2580.16 7760.39,2578.48 7761,2566.13 7761,2564.58 7760.39,2552.23 7760.23,2550.55 7758.4,2538.2 7757.98,2536.1 7757.87,2535.66" style="stroke:rgb(255,0,0);stroke-width:23.622047;fill:none;stroke-opacity:0.5;stroke-linecap:round;stroke-linejoin:round;;fill:none"/>
<polyline points="7757.86,2595.06 7757.98,2594.6 7758.4,2592.5 7760.23,2580.16 7760.39,2578.48 7761,2566.13 7761,2564.58 7760.39,2552.23 7760.23,2550.55 7758.4,2538.2 7757.98,2536.1 7757.87,2535.66" style="stroke:rgb(0,0,0);stroke-width:1px;fill:none;stroke-opacity:1;stroke-linecap:round;stroke-linejoin:round;;fill:none"/>
<polyline points="7757.86,2595.06 7757.98,2594.6 7758.4,2592.5 7760.23,2580.16 7760.39,2578.48 7761,2566.13 7761,2564.58 7760.39,2552.23 7760.23,2550.55 7758.4,2538.2 7757.98,2536.1 7757.87,2535.66" style="stroke:rgb(255,0,0);stroke-width:23.622047;fill:none;stroke-opacity:0.5;stroke-linecap:round;stroke-linejoin:round;;fill:none"/>
<polyline points="7757.86,2595.06 7757.98,2594.6 7758.4,2592.5 7760.23,2580.16 7760.39,2578.48 7761,2566.13 7761,2564.58 7760.39,2552.23 7760.23,2550.55 7758.4,2538.2 7757.98,2536.1 7757.87,2535.66" style="stroke:rgb(0,0,0);stroke-width:1px;fill:none;stroke-opacity:1;stroke-linecap:round;stroke-linejoin:round;;fill:none"/>
<polyline points="7757.86,2595.06 7757.98,2594.6 7758.4,2592.5 7760.23,2580.16 7760.39,2578.48 7761,2566.13 7761,2564.58 7760.39,2552.23 7760.23,2550.55 7758.4,2538.2 7757.98,2536.1 7757.87,2535.66" style="stroke:rgb(255,0,0);stroke-width:23.622047;fill:none;stroke-opacity:0.5;stroke-linecap:round;stroke-linejoin:round;;fill:none"/>
<polyline points="7757.86,2595.06 7757.98,2594.6 7758.4,2592.5 7760.23,2580.16 7760.39,2578.48 7761,2566.13 7761,2564.58 7760.39,2552.23 7760.23,2550.55 7758.4,2538.2 7757.98,2536.1 7757.87,2535.66" style="stroke:rgb(0,0,0);stroke-width:1px;fill:none;stroke-opacity:1;stroke-linecap:round;stroke-linejoin:round;;fill:none"/>
<polyline points="7761.02,1945.05 7761.77,1950.08 7761.97,1952.07 7762.57,1964.42 7762.57,1966.28 7761.97,1978.63 7761.77,1980.62 7761.02,1985.66" style="stroke:rgb(255,0,0);stroke-width:23.622047;fill:none;stroke-opacity:0.5;stroke-linecap:round;stroke-linejoin:round;;fill:none"/>
<polyline points="7761.02,1945.05 7761.77,1950.08 7761.97,1952.07 7762.57,1964.42 7762.57,1966.28 7761.97,1978.63 7761.77,1980.62 7761.02,1985.66" style="stroke:rgb(0,0,0);stroke-width:1px;fill:none;stroke-opacity:1;stroke-linecap:round;stroke-linejoin:round;;fill:none"/>
<polyline points="7761.02,1945.05 7761.77,1950.08 7761.97,1952.07 7762.57,1964.42 7762.57,1966.28 7761.97,1978.63 7761.77,1980.62 7761.02,1985.66" style="stroke:rgb(255,0,0);stroke-width:23.622047;fill:none;stroke-opacity:0.5;stroke-linecap:round;stroke-linejoin:round;;fill:none"/>
<polyline points="7761.02,1945.05 7761.77,1950.08 7761.97,1952.07 7762.57,1964.42 7762.57,1966.28 7761.97,1978.63 7761.77,1980.62 7761.02,1985.66" style="stroke:rgb(0,0,0);stroke-width:1px;fill:none;stroke-opacity:1;stroke-linecap:round;stroke-linejoin:round;;fill:none"/>
<polyline points="7761.02,1945.05 7761.77,1950.08 7761.97,1952.07 7762.57,1964.42 7762.57,1966.28 7761.97,1978.63 7761.77,1980.62 7761.02,1985.66" style="stroke:rgb(255,0,0);stroke-width:23.622047;fill:none;stroke-opacity:0.5;stroke-linecap:round;stroke-linejoin:round;;fill:none"/>
<polyline points="7761.02,1945.05 7761.77,1950.08 7761.97,1952.07 7762.57,1964.42 7762.57,1966.28 7761.97,1978.63 7761.77,1980.62 7761.02,1985.66" style="stroke:rgb(0,0,0);stroke-width:1px;fill:none;stroke-opacity:1;stroke-linecap:round;stroke-linejoin:round;;fill:none"/>
<polyline points="7761.02,1945.05 7761.77,1950.08 7761.97,1952.07 7762.57,1964.42 7762.57,1966.28 7761.97,1978.63 7761.77,1980.62 7761.02,1985.66" style="stroke:rgb(255,0,0);stroke-width:23.622047;fill:none;stroke-opacity:0.5;stroke-linecap:round;stroke-linejoin:round;;fill:none"/>
<polyline points="7761.02,1945.05 7761.77,1950.08 7761.97,1952.07 7762.57,1964.42 7762.57,1966.28 7761.97,1978.63 7761.77,1980.62 7761.02,1985.66" style="stroke:rgb(0,0,0);stroke-width:1px;fill:none;stroke-opacity:1;stroke-linecap:round;stroke-linejoin:round;;fill:none"/>
<polyline points="7822.44,1995.04 7822.33,1994.6 7821.91,1992.5 7820.08,1980.16 7819.91,1978.47 7819.31,1966.12 7819.31,1964.58 7819.91,1952.23 7820.08,1950.55 7821.91,1938.2 7822.33,1936.1 7822.44,1935.67" style="stroke:rgb(255,0,0);stroke-width:23.622047;fill:none;stroke-opacity:0.5;stroke-linecap:round;stroke-linejoin:round;;fill:none"/>
<polyline points="7822.44,1995.04 7822.33,1994.6 7821.91,1992.5 7820.08,1980.16 7819.91,1978.47 7819.31,1966.12 7819.31,1964.58 7819.91,1952.23 7820.08,1950.55 7821.91,1938.2 7822.33,1936.1 7822.44,1935.67" style="stroke:rgb(0,0,0);stroke-width:1px;fill:none;stroke-opacity:1;stroke-linecap:round;stroke-linejoin:round;;fill:none"/>
<polyline points="7822.44,1995.04 7822.33,1994.6 7821.91,1992.5 7820.08,1980.16 7819.91,1978.47 7819.31,1966.12 7819.31,1964.58 7819.91,1952.23 7820.08,1950.55 7821.91,1938.2 7822.33,1936.1 7822.44,1935.67" style="stroke:rgb(255,0,0);stroke-width:23.622047;fill:none;stroke-opacity:0.5;stroke-linecap:round;stroke-linejoin:round;;fill:none"/>
<polyline points="7822.44,1995.04 7822.33,1994.6 7821.91,1992.5 7820.08,1980.16 7819.91,1978.47 7819.31,1966.12 7819.31,1964.58 7819.91,1952.23 7820.08,1950.55 7821.91,1938.2 7822.33,1936.1 7822.44,1935.67" style="stroke:rgb(0,0,0);stroke-width:1px;fill:none;stroke-opacity:1;stroke-linecap:round;stroke-linejoin:round;;fill:none"/>
<polyline points="7822.44,1995.04 7822.33,1994.6 7821.91,1992.5 7820.08,1980.16 7819.91,1978.47 7819.31,1966.12 7819.31,1964.58 7819.91,1952.23 7820.08,1950.55 7821.91,1938.2 7822.33,1936.1 7822.44,1935.67" style="stroke:rgb(255,0,0);stroke-width:23.622047;fill:none;stroke-opacity:0.5;stroke-linecap:round;stroke-linejoin:round;;fill:none"/>
<polyline points="7822.44,1995.04 7822.33,1994.6 7821.91,1992.5 7820.08,1980.16 7819.91,1978.47 7819.31,1966.12 7819.31,1964.58 7819.91,1952.23 7820.08,1950.55 7821.91,1938.2 7822.33,1936.1 7822.44,1935.67" style="stroke:rgb(0,0,0);stroke-width:1px;fill:none;stroke-opacity:1;stroke-linecap:round;stroke-linejoin:round;;fill:none"/>
<polyline points="7822.44,1995.04 7822.33,1994.6 7821.91,1992.5 7820.08,1980.16 7819.91,1978.47 7819.31,1966.12 7819.31,1964.58 7819.91,1952.23 7820.08,1950.55 7821.91,1938.2 7822.33,1936.1 7822.44,1935.67" style="stroke:rgb(255,0,0);stroke-width:23.622047;fill:none;stroke-opacity:0.5;stroke-linecap:round;stroke-linejoin:round;;fill:none"/>
<polyline points="7822.44,1995.04 7822.33,1994.6 7821.91,1992.5 7820.08,1980.16 7819.91,1978.47 7819.31,1966.12 7819.31,1964.58 7819.91,1952.23 7820.08,1950.55 7821.91,1938.2 7822.33,1936.1 7822.44,1935.67" style="stroke:rgb(0,0,0);stroke-width:1px;fill:none;stroke-opacity:1;stroke-linecap:round;stroke-linejoin:round;;fill:none"/>
<polyline points="7761.01,1985.7 7761.77,1980.62 7761.97,1978.63 7762.57,1966.28 7762.57,1964.42 7761.97,1952.07 7761.77,1950.08 7761.02,1945.01" style="stroke:rgb(255,0,0);stroke-width:23.622047;fill:none;stroke-opacity:0.5;stroke-linecap:round;stroke-linejoin:round;;fill:none"/>
<polyline points="7761.01,1985.7 7761.77,1980.62 7761.97,1978.63 7762.57,1966.28 7762.57,1964.42 7761.97,1952.07 7761.77,1950.08 7761.02,1945.01" style="stroke:rgb(0,0,0);stroke-width:1px;fill:none;stroke-opacity:1;stroke-linecap:round;stroke-linejoin:round;;fill:none"/>
<polyline points="7761.01,1985.7 7761.77,1980.62 7761.97,1978.63 7762.57,1966.28 7762.57,1964.42 7761.97,1952.07 7761.77,1950.08 7761.02,1945.01" style="stroke:rgb(255,0,0);stroke-width:23.622047;fill:none;stroke-opacity:0.5;stroke-linecap:round;stroke-linejoin:round;;fill:none"/>
<polyline points="7761.01,1985.7 7761.77,1980.62 7761.97,1978.63 7762.57,1966.28 7762.57,1964.42 7761.97,1952.07 7761.77,1950.08 7761.02,1945.01" style="stroke:rgb(0,0,0);stroke-width:1px;fill:none;stroke-opacity:1;stroke-linecap:round;stroke-linejoin:round;;fill:none"/>
<polyline points="7761.01,1985.7 7761.77,1980.62 7761.97,1978.63 7762.57,1966.28 7762.57,1964.42 7761.97,1952.07 7761.77,1950.08 7761.02,1945.01" style="stroke:rgb(255,0,0);stroke-width:23.622047;fill:none;stroke-opacity:0.5;stroke-linecap:round;stroke-linejoin:round;;fill:none"/>
<polyline points="7761.01,1985.7 7761.77,1980.62 7761.97,1978.63 7762.57,1966.28 7762.57,1964.42 7761.97,1952.07 7761.77,1950.08 7761.02,1945.01" style="stroke:rgb(0,0,0);stroke-width:1px;fill:none;stroke-opacity:1;stroke-linecap:round;stroke-linejoin:round;;fill:none"/>
<polyline points="7761.01,1985.7 7761.77,1980.62 7761.97,1978.63 7762.57,1966.28 7762.57,1964.42 7761.97,1952.07 7761.77,1950.08 7761.02,1945.01" style="stroke:rgb(255,0,0);stroke-width:23.622047;fill:none;stroke-opacity:0.5;stroke-linecap:round;stroke-linejoin:round;;fill:none"/>
<polyline points="7761.01,1985.7 7761.77,1980.62 7761.97,1978.63 7762.57,1966.28 7762.57,1964.42 7761.97,1952.07 7761.77,1950.08 7761.02,1945.01" style="stroke:rgb(0,0,0);stroke-width:1px;fill:none;stroke-opacity:1;stroke-linecap:round;stroke-linejoin:round;;fill:none"/>
<polyline points="6961.02,1985.69 6961.77,1980.62 6961.97,1978.63 6962.57,1966.28 6962.57,1964.42 6961.97,1952.07 6961.77,1950.08 6961.02,1945.02" style="stroke:rgb(255,0,0);stroke-width:23.622047;fill:none;stroke-opacity:0.5;stroke-linecap:round;stroke-linejoin:round;;fill:none"/>
<polyline points="6961.02,1985.69 6961.77,1980.62 6961.97,1978.63 6962.57,1966.28 6962.57,1964.42 6961.97,1952.07 6961.77,1950.08 6961.02,1945.02" style="stroke:rgb(0,0,0);stroke-width:1px;fill:none;stroke-opacity:1;stroke-linecap:round;stroke-linejoin:round;;fill:none"/>
<polyline points="6961.02,1985.69 6961.77,1980.62 6961.97,1978.63 6962.57,1966.28 6962.57,1964.42 6961.97,1952.07 6961.77,1950.08 6961.02,1945.02" style="stroke:rgb(255,0,0);stroke-width:23.622047;fill:none;stroke-opacity:0.5;stroke-linecap:round;stroke-linejoin:round;;fill:none"/>
<polyline points="6961.02,1985.69 6961.77,1980.62 6961.97,1978.63 6962.57,1966.28 6962.57,1964.42 6961.97,1952.07 6961.77,1950.08 6961.02,1945.02" style="stroke:rgb(0,0,0);stroke-width:1px;fill:none;stroke-opacity:1;stroke-linecap:round;stroke-linejoin:round;;fill:none"/>
<polyline points="6961.02,1985.69 6961.77,1980.62 6961.97,1978.63 6962.57,1966.28 6962.57,1964.42 6961.97,1952.07 6961.77,1950.08 6961.02,1945.02" style="stroke:rgb(255,0,0);stroke-width:23.622047;fill:none;stroke-opacity:0.5;stroke-linecap:round;stroke-linejoin:round;;fill:none"/>
<polyline points="6961.02,1985.69 6961.77,1980.62 6961.97,1978.63 6962.57,1966.28 6962.57,1964.42 6961.97,1952.07 6961.77,1950.08 6961.02,1945.02" style="stroke:rgb(0,0,0);stroke-width:1px;fill:none;stroke-opacity:1;stroke-linecap:round;stroke-linejoin:round;;fill:none"/>
<polyline points="6961.02,1985.69 6961.77,1980.62 6961.97,1978.63 6962.57,1966.28 6962.57,1964.42 6961.97,1952.07 6961.77,1950.08 6961.02,1945.02" style="stroke:rgb(255,0,0);stroke-width:23.622047;fill:none;stroke-opacity:0.5;stroke-linecap:round;stroke-linejoin:round;;fill:none"/>
<polyline points="6961.02,1985.69 6961.77,1980.62 6961.97,1978.63 6962.57,1966.28 6962.57,1964.42 6961.97,1952.07 6961.77,1950.08 6961.02,1945.02" style="stroke:rgb(0,0,0);stroke-width:1px;fill:none;stroke-opacity:1;stroke-linecap:round;stroke-linejoin:round;;fill:none"/>
<polyline points="7357.87,1995.05 7357.98,1994.6 7358.4,1992.5 7360.23,1980.16 7360.4,1978.48 7361,1966.13 7361,1964.58 7360.4,1952.23 7360.23,1950.55 7358.4,1938.2 7357.98,1936.1 7357.87,1935.67" style="stroke:rgb(255,0,0);stroke-width:23.622047;fill:none;stroke-opacity:0.5;stroke-linecap:round;stroke-linejoin:round;;fill:none"/>
<polyline points="7357.87,1995.05 7357.98,1994.6 7358.4,1992.5 7360.23,1980.16 7360.4,1978.48 7361,1966.13 7361,1964.58 7360.4,1952.23 7360.23,1950.55 7358.4,1938.2 7357.98,1936.1 7357.87,1935.67" style="stroke:rgb(0,0,0);stroke-width:1px;fill:none;stroke-opacity:1;stroke-linecap:round;stroke-linejoin:round;;fill:none"/>
<polyline points="7357.87,1995.05 7357.98,1994.6 7358.4,1992.5 7360.23,1980.16 7360.4,1978.48 7361,1966.13 7361,1964.58 7360.4,1952.23 7360.23,1950.55 7358.4,1938.2 7357.98,1936.1 7357.87,1935.67" style="stroke:rgb(255,0,0);stroke-width:23.622047;fill:none;stroke-opacity:0.5;stroke-linecap:round;stroke-linejoin:round;;fill:none"/>
<polyline points="7357.87,1995.05 7357.98,1994.6 7358.4,1992.5 7360.23,1980.16 7360.4,1978.48 7361,1966.13 7361,1964.58 7360.4,1952.23 7360.23,1950.55 7358.4,1938.2 7357.98,1936.1 7357.87,1935.67" style="stroke:rgb(0,0,0);stroke-width:1px;fill:none;stroke-opacity:1;stroke-linecap:round;stroke-linejoin:round;;fill:none"/>
<polyline points="7357.87,1995.05 7357.98,1994.6 7358.4,1992.5 7360.23,1980.16 7360.4,1978.48 7361,1966.13 7361,1964.58 7360.4,1952.23 7360.23,1950.55 7358.4,1938.2 7357.98,1936.1 7357.87,1935.67" style="stroke:rgb(255,0,0);stroke-width:23.622047;fill:none;stroke-opacity:0.5;stroke-linecap:round;stroke-linejoin:round;;fill:none"/>
<polyline points="7357.87,1995.05 7357.98,1994.6 7358.4,1992.5 7360.23,1980.16 7360.4,1978.48 7361,1966.13 7361,1964.58 7360.4,1952.23 7360.23,1950.55 7358.4,1938.2 7357.98,1936.1 7357.87,1935.67" style="stroke:rgb(0,0,0);stroke-width:1px;fill:none;stroke-opacity:1;stroke-linecap:round;stroke-linejoin:round;;fill:none"/>
<polyline points="7357.87,1995.05 7357.98,1994.6 7358.4,1992.5 7360.23,1980.16 7360.4,1978.48 7361,1966.13 7361,1964.58 7360.4,1952.23 7360.23,1950.55 7358.4,1938.2 7357.98,1936.1 7357.87,1935.67" style="stroke:rgb(255,0,0);stroke-width:23.622047;fill:none;stroke-opacity:0.5;stroke-linecap:round;stroke-linejoin:round;;fill:none"/>
<polyline points="7357.87,1995.05 7357.98,1994.6 7358.4,1992.5 7360.23,1980.16 7360.4,1978.48 7361,1966.13 7361,1964.58 7360.4,1952.23 7360.23,1950.55 7358.4,1938.2 7357.98,1936.1 7357.87,1935.67" style="stroke:rgb(0,0,0);stroke-width:1px;fill:none;stroke-opacity:1;stroke-linecap:round;stroke-linejoin:round;;fill:none"/>
</svg>
