<?xml version="1.0" standalone="no"?>
<!DOCTYPE svg PUBLIC "-//W3C//DTD SVG 1.1//EN"
"http://www.w3.org/Graphics/SVG/1.1/DTD/svg11.dtd">
<svg width="684.283" height="363.024" viewBox="0 0 14255.9 7562.99" version="1.1"
xmlns="http://www.w3.org/2000/svg"
xmlns:xlink="http://www.w3.org/1999/xlink">
<circle cx="7068.9" cy="6832.68" r="31.4961" style=""/>
<circle cx="7468.9" cy="6832.68" r="31.4961" style=""/>
<circle cx="7868.9" cy="6832.68" r="31.4961" style=""/>
<circle cx="8564.96" cy="6832.68" r="31.4961" style=""/>
<circle cx="8964.96" cy="6832.68" r="31.4961" style=""/>
<circle cx="9364.96" cy="6832.68" r="31.4961" style=""/>
<circle cx="9647.64" cy="5592.52" r="31.4961" style=""/>
<circle cx="10631.9" cy="5356.3" r="31.4961" style=""/>
<circle cx="10631.9" cy="5710.63" r="31.4961" style=""/>
<circle cx="11143.7" cy="5710.63" r="31.4961" style=""/>
<circle cx="11143.7" cy="5356.3" r="31.4961" style=""/>
<circle cx="13624" cy="6931.1" r="31.4961" style=""/>
<circle cx="13505.9" cy="5710.63" r="31.4961" style=""/>
<circle cx="13505.9" cy="5356.3" r="31.4961" style=""/>
<circle cx="12994.1" cy="5710.63" r="31.4961" style=""/>
<circle cx="12994.1" cy="5356.3" r="31.4961" style=""/>
<circle cx="12324.8" cy="4529.53" r="31.4961" style=""/>
<circle cx="12324.8" cy="4175.2" r="31.4961" style=""/>
<circle cx="11813" cy="4529.53" r="31.4961" style=""/>
<circle cx="11813" cy="4175.2" r="31.4961" style=""/>
<circle cx="11143.7" cy="3348.43" r="31.4961" style=""/>
<circle cx="11143.7" cy="2994.09" r="31.4961" style=""/>
<circle cx="11813" cy="2167.32" r="31.4961" style=""/>
<circle cx="12324.8" cy="2167.32" r="31.4961" style=""/>
<circle cx="12994.1" cy="2994.09" r="31.4961" style=""/>
<circle cx="12994.1" cy="3348.43" r="31.4961" style=""/>
<circle cx="13505.9" cy="3348.43" r="31.4961" style=""/>
<circle cx="13505.9" cy="2994.09" r="31.4961" style=""/>
<circle cx="13624" cy="631.89" r="31.4961" style=""/>
<circle cx="12324.8" cy="1812.99" r="31.4961" style=""/>
<circle cx="11813" cy="1812.99" r="31.4961" style=""/>
<circle cx="9341.34" cy="649.37" r="31.4961" style=""/>
<circle cx="8941.34" cy="649.37" r="31.4961" style=""/>
<circle cx="8541.34" cy="649.37" r="31.4961" style=""/>
<circle cx="8141.34" cy="649.37" r="31.4961" style=""/>
<circle cx="7741.34" cy="649.37" r="31.4961" style=""/>
<circle cx="7341.34" cy="649.37" r="31.4961" style=""/>
<circle cx="6941.34" cy="649.37" r="31.4961" style=""/>
<circle cx="6541.34" cy="649.37" r="31.4961" style=""/>
<circle cx="6141.34" cy="649.37" r="31.4961" style=""/>
<circle cx="5741.34" cy="649.37" r="31.4961" style=""/>
<circle cx="6281.5" cy="1202.76" r="31.4961" style=""/>
<circle cx="5915.35" cy="1264.96" r="31.4961" style=""/>
<circle cx="5715.35" cy="1264.96" r="31.4961" style=""/>
<circle cx="5515.35" cy="1264.96" r="31.4961" style=""/>
<circle cx="5315.35" cy="1264.96" r="31.4961" style=""/>
<circle cx="5115.35" cy="1264.96" r="31.4961" style=""/>
<circle cx="4915.35" cy="1264.96" r="31.4961" style=""/>
<circle cx="4715.35" cy="1264.96" r="31.4961" style=""/>
<circle cx="4515.35" cy="1264.96" r="31.4961" style=""/>
<circle cx="4315.35" cy="1264.96" r="31.4961" style=""/>
<circle cx="4115.35" cy="1264.96" r="31.4961" style=""/>
<circle cx="3915.35" cy="1264.96" r="31.4961" style=""/>
<circle cx="3715.35" cy="1264.96" r="31.4961" style=""/>
<circle cx="3515.35" cy="1264.96" r="31.4961" style=""/>
<circle cx="3128.74" cy="809.055" r="31.4961" style=""/>
<circle cx="3328.74" cy="809.055" r="31.4961" style=""/>
<circle cx="3528.74" cy="809.055" r="31.4961" style=""/>
<circle cx="3315.35" cy="1264.96" r="31.4961" style=""/>
<circle cx="3115.35" cy="1264.96" r="31.4961" style=""/>
<circle cx="2915.35" cy="1264.96" r="31.4961" style=""/>
<circle cx="2206.69" cy="651.575" r="31.4961" style=""/>
<circle cx="1806.69" cy="651.575" r="31.4961" style=""/>
<circle cx="2324.8" cy="1261.81" r="31.4961" style=""/>
<circle cx="1832.68" cy="1931.1" r="31.4961" style=""/>
<circle cx="631.89" cy="631.89" r="31.4961" style=""/>
<circle cx="432.677" cy="1931.1" r="31.4961" style=""/>
<circle cx="432.677" cy="5131.1" r="31.4961" style=""/>
<circle cx="631.89" cy="6931.1" r="31.4961" style=""/>
<circle cx="1832.68" cy="5131.1" r="31.4961" style=""/>
<circle cx="2324.8" cy="5592.52" r="31.4961" style=""/>
<circle cx="2482.28" cy="6340.55" r="31.4961" style=""/>
<circle cx="2653.15" cy="6834.8" r="31.4961" style=""/>
<circle cx="3053.15" cy="6834.8" r="31.4961" style=""/>
<circle cx="3453.15" cy="6834.8" r="31.4961" style=""/>
<circle cx="3250" cy="6340.55" r="31.4961" style=""/>
<circle cx="2935.51" cy="5888.74" r="31.4961" style=""/>
<circle cx="3135.51" cy="5888.74" r="31.4961" style=""/>
<circle cx="3658.43" cy="5891.73" r="31.4961" style=""/>
<circle cx="3858.43" cy="5891.73" r="31.4961" style=""/>
<circle cx="4430.39" cy="5885.91" r="31.4961" style=""/>
<circle cx="4630.39" cy="5885.91" r="31.4961" style=""/>
<circle cx="4431.1" cy="6360.24" r="31.4961" style=""/>
<circle cx="4116.14" cy="6832.68" r="31.4961" style=""/>
<circle cx="4516.14" cy="6832.68" r="31.4961" style=""/>
<circle cx="4916.14" cy="6832.68" r="31.4961" style=""/>
<circle cx="5238.19" cy="6340.55" r="31.4961" style=""/>
<circle cx="5212.36" cy="5877.56" r="31.4961" style=""/>
<circle cx="5412.36" cy="5877.56" r="31.4961" style=""/>
<circle cx="5586.22" cy="6834.8" r="31.4961" style=""/>
<circle cx="5986.22" cy="6834.8" r="31.4961" style=""/>
<circle cx="6386.22" cy="6834.8" r="31.4961" style=""/>
<circle cx="5986.22" cy="6301.18" r="31.4961" style=""/>
<circle cx="6141.97" cy="5880.08" r="31.4961" style=""/>
<circle cx="5941.97" cy="5880.08" r="31.4961" style=""/>
<circle cx="6557.09" cy="5080.71" r="31.4961" style=""/>
<circle cx="6141.97" cy="5280.08" r="31.4961" style=""/>
<circle cx="5941.97" cy="5280.08" r="31.4961" style=""/>
<circle cx="5769.69" cy="5100.39" r="31.4961" style=""/>
<circle cx="5412.36" cy="5277.56" r="31.4961" style=""/>
<circle cx="5212.36" cy="5277.56" r="31.4961" style=""/>
<circle cx="4982.28" cy="5100.39" r="31.4961" style=""/>
<circle cx="4630.39" cy="5285.91" r="31.4961" style=""/>
<circle cx="4430.39" cy="5285.91" r="31.4961" style=""/>
<circle cx="4214.57" cy="5100.39" r="31.4961" style=""/>
<circle cx="3858.43" cy="5291.73" r="31.4961" style=""/>
<circle cx="3658.43" cy="5291.73" r="31.4961" style=""/>
<circle cx="3486.22" cy="5100.39" r="31.4961" style=""/>
<circle cx="3135.51" cy="5288.74" r="31.4961" style=""/>
<circle cx="2935.51" cy="5288.74" r="31.4961" style=""/>
<circle cx="4027.17" cy="4184.65" r="31.4961" style=""/>
<circle cx="4227.17" cy="4184.65" r="31.4961" style=""/>
<circle cx="4427.17" cy="4184.65" r="31.4961" style=""/>
<circle cx="4627.17" cy="4184.65" r="31.4961" style=""/>
<circle cx="4827.17" cy="4184.65" r="31.4961" style=""/>
<circle cx="5027.17" cy="4184.65" r="31.4961" style=""/>
<circle cx="5227.17" cy="4184.65" r="31.4961" style=""/>
<circle cx="5427.17" cy="4184.65" r="31.4961" style=""/>
<circle cx="5627.17" cy="4184.65" r="31.4961" style=""/>
<circle cx="5827.17" cy="4184.65" r="31.4961" style=""/>
<circle cx="6027.17" cy="4184.65" r="31.4961" style=""/>
<circle cx="6227.17" cy="4184.65" r="31.4961" style=""/>
<circle cx="6427.17" cy="4184.65" r="31.4961" style=""/>
<circle cx="6627.17" cy="4184.65" r="31.4961" style=""/>
<circle cx="6827.17" cy="4184.65" r="31.4961" style=""/>
<circle cx="7027.17" cy="4184.65" r="31.4961" style=""/>
<circle cx="7227.17" cy="4184.65" r="31.4961" style=""/>
<circle cx="7427.17" cy="4184.65" r="31.4961" style=""/>
<circle cx="7627.17" cy="4184.65" r="31.4961" style=""/>
<circle cx="7827.17" cy="4184.65" r="31.4961" style=""/>
<circle cx="8328.74" cy="4017.72" r="31.4961" style=""/>
<circle cx="7427.17" cy="2984.65" r="31.4961" style=""/>
<circle cx="7227.17" cy="2984.65" r="31.4961" style=""/>
<circle cx="7027.17" cy="2984.65" r="31.4961" style=""/>
<circle cx="6827.17" cy="2984.65" r="31.4961" style=""/>
<circle cx="6627.17" cy="2984.65" r="31.4961" style=""/>
<circle cx="6427.17" cy="2984.65" r="31.4961" style=""/>
<circle cx="6227.17" cy="2984.65" r="31.4961" style=""/>
<circle cx="6027.17" cy="2984.65" r="31.4961" style=""/>
<circle cx="5827.17" cy="2984.65" r="31.4961" style=""/>
<circle cx="5627.17" cy="2984.65" r="31.4961" style=""/>
<circle cx="5427.17" cy="2984.65" r="31.4961" style=""/>
<circle cx="5227.17" cy="2984.65" r="31.4961" style=""/>
<circle cx="5027.17" cy="2984.65" r="31.4961" style=""/>
<circle cx="4827.17" cy="2984.65" r="31.4961" style=""/>
<circle cx="4627.17" cy="2984.65" r="31.4961" style=""/>
<circle cx="4427.17" cy="2984.65" r="31.4961" style=""/>
<circle cx="4227.17" cy="2984.65" r="31.4961" style=""/>
<circle cx="4027.17" cy="2984.65" r="31.4961" style=""/>
<circle cx="6090.16" cy="2565.35" r="31.4961" style=""/>
<circle cx="6290.16" cy="2565.35" r="31.4961" style=""/>
<circle cx="6090.16" cy="1965.35" r="31.4961" style=""/>
<circle cx="6290.16" cy="1965.35" r="31.4961" style=""/>
<circle cx="6490.16" cy="1965.35" r="31.4961" style=""/>
<circle cx="6690.16" cy="1965.35" r="31.4961" style=""/>
<circle cx="6890.16" cy="1965.35" r="31.4961" style=""/>
<circle cx="6490.16" cy="2565.35" r="31.4961" style=""/>
<circle cx="6690.16" cy="2565.35" r="31.4961" style=""/>
<circle cx="6890.16" cy="2565.35" r="31.4961" style=""/>
<circle cx="7090.16" cy="2565.35" r="31.4961" style=""/>
<circle cx="7290.16" cy="2565.35" r="31.4961" style=""/>
<circle cx="7490.16" cy="2565.35" r="31.4961" style=""/>
<circle cx="7690.16" cy="2565.35" r="31.4961" style=""/>
<circle cx="7627.17" cy="2984.65" r="31.4961" style=""/>
<circle cx="7827.17" cy="2984.65" r="31.4961" style=""/>
<circle cx="7890.16" cy="2565.35" r="31.4961" style=""/>
<circle cx="7090.16" cy="1965.35" r="31.4961" style=""/>
<circle cx="7290.16" cy="1965.35" r="31.4961" style=""/>
<circle cx="7490.16" cy="1965.35" r="31.4961" style=""/>
<circle cx="7690.16" cy="1965.35" r="31.4961" style=""/>
<circle cx="7890.16" cy="1965.35" r="31.4961" style=""/>
<circle cx="9116.14" cy="1202.76" r="31.4961" style=""/>
<circle cx="9647.64" cy="1261.81" r="31.4961" style=""/>
<circle cx="10631.9" cy="2994.09" r="31.4961" style=""/>
<circle cx="10631.9" cy="3348.43" r="31.4961" style=""/>
<circle cx="8328.74" cy="5395.67" r="31.4961" style=""/>
</svg>
