<?xml version="1.0" standalone="no"?>
<!DOCTYPE svg PUBLIC "-//W3C//DTD SVG 1.1//EN"
"http://www.w3.org/Graphics/SVG/1.1/DTD/svg11.dtd">
<svg width="684.283" height="363.024" viewBox="0 0 14255.9 7562.99" version="1.1"
xmlns="http://www.w3.org/2000/svg"
xmlns:xlink="http://www.w3.org/1999/xlink">
<polyline points="120.075,7324.8 120.075,238.187 122.345,215.145 129.067,192.989 139.981,172.569 154.669,154.671 172.567,139.983 192.987,129.069 215.143,122.347 238.187,120.077 14017.7,120.077 14040.8,122.347 14062.9,129.069 14083.3,139.983 14101.2,154.671 14115.9,172.569 14126.8,192.989 14133.6,215.145 14135.8,238.187 14135.8,7324.8 14134,7345.31 14128.7,7365.2 14120,7383.86 14108.2,7400.72 14093.6,7415.28 14076.8,7427.09 14058.1,7435.79 14038.2,7441.12 14017.7,7442.91 238.187,7442.91 215.143,7440.64 192.987,7433.92 172.567,7423.01 154.669,7408.32 139.981,7390.42 129.067,7370 122.345,7347.84 120.075,7324.8" style="stroke:rgb(41,35,190);stroke-width:236.220472;fill:none;stroke-opacity:0.5;stroke-linecap:round;stroke-linejoin:round;;fill:none"/>
<polyline points="120.075,7324.8 120.075,238.187 122.345,215.145 129.067,192.989 139.981,172.569 154.669,154.671 172.567,139.983 192.987,129.069 215.143,122.347 238.187,120.077 14017.7,120.077 14040.8,122.347 14062.9,129.069 14083.3,139.983 14101.2,154.671 14115.9,172.569 14126.8,192.989 14133.6,215.145 14135.8,238.187 14135.8,7324.8 14134,7345.31 14128.7,7365.2 14120,7383.86 14108.2,7400.72 14093.6,7415.28 14076.8,7427.09 14058.1,7435.79 14038.2,7441.12 14017.7,7442.91 238.187,7442.91 215.143,7440.64 192.987,7433.92 172.567,7423.01 154.669,7408.32 139.981,7390.42 129.067,7370 122.345,7347.84 120.075,7324.8" style="stroke:rgb(0,0,0);stroke-width:1px;fill:none;stroke-opacity:1;stroke-linecap:round;stroke-linejoin:round;;fill:none"/>
</svg>
