<?xml version="1.0" standalone="no"?>
<!DOCTYPE svg PUBLIC "-//W3C//DTD SVG 1.1//EN"
"http://www.w3.org/Graphics/SVG/1.1/DTD/svg11.dtd">
<svg width="339.78" height="243.78" viewBox="0 0 7078.74 5078.74" version="1.1"
xmlns="http://www.w3.org/2000/svg"
xmlns:xlink="http://www.w3.org/1999/xlink">
<circle cx="1047.32" cy="3997.17" r="15.748" style=""/>
<circle cx="1237.32" cy="3727.17" r="15.748" style=""/>
<circle cx="737.323" cy="2747.17" r="15.748" style=""/>
<circle cx="1937.32" cy="3017.17" r="15.748" style=""/>
<circle cx="1647.32" cy="3327.17" r="15.748" style=""/>
<circle cx="2147.32" cy="3837.17" r="15.748" style=""/>
<circle cx="2837.32" cy="3637.17" r="15.748" style=""/>
<circle cx="3437.32" cy="4137.17" r="15.748" style=""/>
<circle cx="3537.32" cy="3937.17" r="15.748" style=""/>
<circle cx="3337.32" cy="3127.17" r="15.748" style=""/>
<circle cx="3757.32" cy="1937.17" r="15.748" style=""/>
<circle cx="4127.32" cy="1617.17" r="15.748" style=""/>
<circle cx="3637.32" cy="1337.17" r="15.748" style=""/>
<circle cx="3837.32" cy="1027.17" r="15.748" style=""/>
<circle cx="3947.32" cy="1147.17" r="15.748" style=""/>
<circle cx="4447.32" cy="737.165" r="15.748" style=""/>
<circle cx="4337.32" cy="937.165" r="15.748" style=""/>
<circle cx="4207.32" cy="1237.17" r="15.748" style=""/>
<circle cx="4547.32" cy="1537.17" r="15.748" style=""/>
<circle cx="4937.32" cy="1837.17" r="15.748" style=""/>
<circle cx="4637.32" cy="2137.17" r="15.748" style=""/>
<circle cx="4837.32" cy="2337.17" r="15.748" style=""/>
<circle cx="5037.32" cy="2537.17" r="15.748" style=""/>
<circle cx="5217.32" cy="2437.17" r="15.748" style=""/>
<circle cx="5437.32" cy="2047.17" r="15.748" style=""/>
<circle cx="5337.32" cy="1727.17" r="15.748" style=""/>
<circle cx="5547.32" cy="1451.1" r="15.748" style=""/>
<circle cx="5677.32" cy="2237.17" r="15.748" style=""/>
<circle cx="6447.32" cy="2927.17" r="15.748" style=""/>
<circle cx="6597.32" cy="2637.17" r="15.748" style=""/>
<circle cx="39.3701" cy="5039.37" r="39.3701" style=""/>
<circle cx="239.37" cy="5039.37" r="39.3701" style=""/>
<circle cx="39.3701" cy="4839.37" r="39.3701" style=""/>
<circle cx="239.37" cy="4839.37" r="39.3701" style=""/>
<circle cx="439.37" cy="4839.37" r="39.3701" style=""/>
<circle cx="639.37" cy="4839.37" r="39.3701" style=""/>
<circle cx="439.37" cy="5039.37" r="39.3701" style=""/>
<circle cx="639.37" cy="5039.37" r="39.3701" style=""/>
<circle cx="839.37" cy="4839.37" r="39.3701" style=""/>
<circle cx="839.37" cy="5039.37" r="39.3701" style=""/>
<circle cx="1039.37" cy="5039.37" r="39.3701" style=""/>
<circle cx="1039.37" cy="4839.37" r="39.3701" style=""/>
<circle cx="1239.37" cy="4839.37" r="39.3701" style=""/>
<circle cx="1239.37" cy="5039.37" r="39.3701" style=""/>
<circle cx="1439.37" cy="5039.37" r="39.3701" style=""/>
<circle cx="1439.37" cy="4839.37" r="39.3701" style=""/>
<circle cx="1639.37" cy="4839.37" r="39.3701" style=""/>
<circle cx="1839.37" cy="4839.37" r="39.3701" style=""/>
<circle cx="1639.37" cy="5039.37" r="39.3701" style=""/>
<circle cx="1839.37" cy="5039.37" r="39.3701" style=""/>
<circle cx="2039.37" cy="4839.37" r="39.3701" style=""/>
<circle cx="2239.37" cy="4839.37" r="39.3701" style=""/>
<circle cx="2039.37" cy="5039.37" r="39.3701" style=""/>
<circle cx="2239.37" cy="5039.37" r="39.3701" style=""/>
<circle cx="2439.37" cy="4839.37" r="39.3701" style=""/>
<circle cx="2439.37" cy="5039.37" r="39.3701" style=""/>
<circle cx="2639.37" cy="4839.37" r="39.3701" style=""/>
<circle cx="2839.37" cy="4839.37" r="39.3701" style=""/>
<circle cx="2639.37" cy="5039.37" r="39.3701" style=""/>
<circle cx="2839.37" cy="5039.37" r="39.3701" style=""/>
<circle cx="3039.37" cy="4839.37" r="39.3701" style=""/>
<circle cx="3039.37" cy="5039.37" r="39.3701" style=""/>
<circle cx="3239.37" cy="5039.37" r="39.3701" style=""/>
<circle cx="3239.37" cy="4839.37" r="39.3701" style=""/>
<circle cx="3439.37" cy="4839.37" r="39.3701" style=""/>
<circle cx="3639.37" cy="4839.37" r="39.3701" style=""/>
<circle cx="3439.37" cy="5039.37" r="39.3701" style=""/>
<circle cx="3639.37" cy="5039.37" r="39.3701" style=""/>
<circle cx="3839.37" cy="4839.37" r="39.3701" style=""/>
<circle cx="3839.37" cy="5039.37" r="39.3701" style=""/>
<circle cx="4039.37" cy="4839.37" r="39.3701" style=""/>
<circle cx="4039.37" cy="5039.37" r="39.3701" style=""/>
<circle cx="4239.37" cy="4839.37" r="39.3701" style=""/>
<circle cx="4239.37" cy="5039.37" r="39.3701" style=""/>
<circle cx="4439.37" cy="4839.37" r="39.3701" style=""/>
<circle cx="4439.37" cy="5039.37" r="39.3701" style=""/>
<circle cx="4639.37" cy="4839.37" r="39.3701" style=""/>
<circle cx="4639.37" cy="5039.37" r="39.3701" style=""/>
<circle cx="4839.37" cy="4839.37" r="39.3701" style=""/>
<circle cx="5039.37" cy="4839.37" r="39.3701" style=""/>
<circle cx="4839.37" cy="5039.37" r="39.3701" style=""/>
<circle cx="5039.37" cy="5039.37" r="39.3701" style=""/>
<circle cx="5239.37" cy="4839.37" r="39.3701" style=""/>
<circle cx="5239.37" cy="5039.37" r="39.3701" style=""/>
<circle cx="5439.37" cy="4839.37" r="39.3701" style=""/>
<circle cx="5639.37" cy="4839.37" r="39.3701" style=""/>
<circle cx="5439.37" cy="5039.37" r="39.3701" style=""/>
<circle cx="5639.37" cy="5039.37" r="39.3701" style=""/>
<circle cx="5839.37" cy="4839.37" r="39.3701" style=""/>
<circle cx="6039.37" cy="4839.37" r="39.3701" style=""/>
<circle cx="5839.37" cy="5039.37" r="39.3701" style=""/>
<circle cx="6039.37" cy="5039.37" r="39.3701" style=""/>
<circle cx="6239.37" cy="4839.37" r="39.3701" style=""/>
<circle cx="6439.37" cy="4839.37" r="39.3701" style=""/>
<circle cx="6239.37" cy="5039.37" r="39.3701" style=""/>
<circle cx="6439.37" cy="5039.37" r="39.3701" style=""/>
<circle cx="6639.37" cy="4839.37" r="39.3701" style=""/>
<circle cx="6639.37" cy="5039.37" r="39.3701" style=""/>
<circle cx="6839.37" cy="5039.37" r="39.3701" style=""/>
<circle cx="7039.37" cy="5039.37" r="39.3701" style=""/>
<circle cx="7039.37" cy="4839.37" r="39.3701" style=""/>
<circle cx="6839.37" cy="4839.37" r="39.3701" style=""/>
<circle cx="6796.06" cy="4141.57" r="39.3701" style=""/>
<circle cx="6996.06" cy="4141.57" r="39.3701" style=""/>
<circle cx="6996.06" cy="3941.57" r="39.3701" style=""/>
<circle cx="6796.06" cy="3941.57" r="39.3701" style=""/>
<circle cx="6796.06" cy="3741.57" r="39.3701" style=""/>
<circle cx="6996.06" cy="3741.57" r="39.3701" style=""/>
<circle cx="6996.06" cy="3541.57" r="39.3701" style=""/>
<circle cx="6796.06" cy="3541.57" r="39.3701" style=""/>
<circle cx="6796.06" cy="3341.57" r="39.3701" style=""/>
<circle cx="6996.06" cy="3341.57" r="39.3701" style=""/>
<circle cx="6996.06" cy="3141.57" r="39.3701" style=""/>
<circle cx="6796.06" cy="3141.57" r="39.3701" style=""/>
<circle cx="6796.06" cy="2941.57" r="39.3701" style=""/>
<circle cx="6996.06" cy="2941.57" r="39.3701" style=""/>
<circle cx="6996.06" cy="2741.57" r="39.3701" style=""/>
<circle cx="6796.06" cy="2741.57" r="39.3701" style=""/>
<circle cx="6796.06" cy="2541.57" r="39.3701" style=""/>
<circle cx="6996.06" cy="2541.57" r="39.3701" style=""/>
<circle cx="6796.06" cy="2341.57" r="39.3701" style=""/>
<circle cx="6996.06" cy="2341.57" r="39.3701" style=""/>
<circle cx="6996.06" cy="2141.57" r="39.3701" style=""/>
<circle cx="6796.06" cy="2141.57" r="39.3701" style=""/>
<circle cx="6796.06" cy="1941.57" r="39.3701" style=""/>
<circle cx="6996.06" cy="1941.57" r="39.3701" style=""/>
<circle cx="6996.06" cy="1741.57" r="39.3701" style=""/>
<circle cx="6796.06" cy="1741.57" r="39.3701" style=""/>
<circle cx="6796.06" cy="1541.57" r="39.3701" style=""/>
<circle cx="6996.06" cy="1541.57" r="39.3701" style=""/>
<circle cx="6996.06" cy="1341.57" r="39.3701" style=""/>
<circle cx="6796.06" cy="1341.57" r="39.3701" style=""/>
<circle cx="6796.06" cy="1141.57" r="39.3701" style=""/>
<circle cx="6996.06" cy="1141.57" r="39.3701" style=""/>
<circle cx="6996.06" cy="941.575" r="39.3701" style=""/>
<circle cx="6796.06" cy="941.575" r="39.3701" style=""/>
<circle cx="7039.37" cy="239.37" r="39.3701" style=""/>
<circle cx="7039.37" cy="39.3701" r="39.3701" style=""/>
<circle cx="6839.37" cy="239.37" r="39.3701" style=""/>
<circle cx="6839.37" cy="39.3701" r="39.3701" style=""/>
<circle cx="6639.37" cy="239.37" r="39.3701" style=""/>
<circle cx="6639.37" cy="39.3701" r="39.3701" style=""/>
<circle cx="6439.37" cy="239.37" r="39.3701" style=""/>
<circle cx="6439.37" cy="39.3701" r="39.3701" style=""/>
<circle cx="6239.37" cy="239.37" r="39.3701" style=""/>
<circle cx="6239.37" cy="39.3701" r="39.3701" style=""/>
<circle cx="6039.37" cy="239.37" r="39.3701" style=""/>
<circle cx="6039.37" cy="39.3701" r="39.3701" style=""/>
<circle cx="5839.37" cy="239.37" r="39.3701" style=""/>
<circle cx="5839.37" cy="39.3701" r="39.3701" style=""/>
<circle cx="5639.37" cy="239.37" r="39.3701" style=""/>
<circle cx="5639.37" cy="39.3701" r="39.3701" style=""/>
<circle cx="5439.37" cy="239.37" r="39.3701" style=""/>
<circle cx="5439.37" cy="39.3701" r="39.3701" style=""/>
<circle cx="5239.37" cy="239.37" r="39.3701" style=""/>
<circle cx="5239.37" cy="39.3701" r="39.3701" style=""/>
<circle cx="5039.37" cy="39.3701" r="39.3701" style=""/>
<circle cx="5039.37" cy="239.37" r="39.3701" style=""/>
<circle cx="4839.37" cy="39.3701" r="39.3701" style=""/>
<circle cx="4839.37" cy="239.37" r="39.3701" style=""/>
<circle cx="4639.37" cy="39.3701" r="39.3701" style=""/>
<circle cx="4639.37" cy="239.37" r="39.3701" style=""/>
<circle cx="4439.37" cy="39.3701" r="39.3701" style=""/>
<circle cx="4439.37" cy="239.37" r="39.3701" style=""/>
<circle cx="4239.37" cy="39.3701" r="39.3701" style=""/>
<circle cx="4239.37" cy="239.37" r="39.3701" style=""/>
<circle cx="4039.37" cy="39.3701" r="39.3701" style=""/>
<circle cx="4039.37" cy="239.37" r="39.3701" style=""/>
<circle cx="3839.37" cy="39.3701" r="39.3701" style=""/>
<circle cx="3839.37" cy="239.37" r="39.3701" style=""/>
<circle cx="3639.37" cy="39.3701" r="39.3701" style=""/>
<circle cx="3639.37" cy="239.37" r="39.3701" style=""/>
<circle cx="3439.37" cy="39.3701" r="39.3701" style=""/>
<circle cx="3439.37" cy="239.37" r="39.3701" style=""/>
<circle cx="3239.37" cy="39.3701" r="39.3701" style=""/>
<circle cx="3239.37" cy="239.37" r="39.3701" style=""/>
<circle cx="3039.37" cy="39.3701" r="39.3701" style=""/>
<circle cx="3039.37" cy="239.37" r="39.3701" style=""/>
<circle cx="2839.37" cy="39.3701" r="39.3701" style=""/>
<circle cx="2839.37" cy="239.37" r="39.3701" style=""/>
<circle cx="2639.37" cy="39.3701" r="39.3701" style=""/>
<circle cx="2639.37" cy="239.37" r="39.3701" style=""/>
<circle cx="2439.37" cy="39.3701" r="39.3701" style=""/>
<circle cx="2439.37" cy="239.37" r="39.3701" style=""/>
<circle cx="2239.37" cy="39.3701" r="39.3701" style=""/>
<circle cx="2239.37" cy="239.37" r="39.3701" style=""/>
<circle cx="2039.37" cy="39.3701" r="39.3701" style=""/>
<circle cx="2039.37" cy="239.37" r="39.3701" style=""/>
<circle cx="1839.37" cy="39.3701" r="39.3701" style=""/>
<circle cx="1839.37" cy="239.37" r="39.3701" style=""/>
<circle cx="1639.37" cy="39.3701" r="39.3701" style=""/>
<circle cx="1639.37" cy="239.37" r="39.3701" style=""/>
<circle cx="1439.37" cy="39.3701" r="39.3701" style=""/>
<circle cx="1439.37" cy="239.37" r="39.3701" style=""/>
<circle cx="1239.37" cy="39.3701" r="39.3701" style=""/>
<circle cx="1239.37" cy="239.37" r="39.3701" style=""/>
<circle cx="1039.37" cy="39.3701" r="39.3701" style=""/>
<circle cx="1039.37" cy="239.37" r="39.3701" style=""/>
<circle cx="839.37" cy="39.3701" r="39.3701" style=""/>
<circle cx="839.37" cy="239.37" r="39.3701" style=""/>
<circle cx="639.37" cy="39.3701" r="39.3701" style=""/>
<circle cx="639.37" cy="239.37" r="39.3701" style=""/>
<circle cx="439.37" cy="39.3701" r="39.3701" style=""/>
<circle cx="439.37" cy="239.37" r="39.3701" style=""/>
<circle cx="239.37" cy="39.3701" r="39.3701" style=""/>
<circle cx="239.37" cy="239.37" r="39.3701" style=""/>
<circle cx="39.3701" cy="39.3701" r="39.3701" style=""/>
<circle cx="39.3701" cy="239.37" r="39.3701" style=""/>
</svg>
