<?xml version="1.0" standalone="no"?>
<!DOCTYPE svg PUBLIC "-//W3C//DTD SVG 1.1//EN"
"http://www.w3.org/Graphics/SVG/1.1/DTD/svg11.dtd">
<svg width="408.567" height="295.181" viewBox="0 0 8511.81 6149.61" version="1.1"
xmlns="http://www.w3.org/2000/svg"
xmlns:xlink="http://www.w3.org/1999/xlink">
<circle cx="1237.5" cy="4174.51" r="15.7" style=""/>
<circle cx="1764.9" cy="4522.51" r="15.7" style=""/>
<circle cx="1954.9" cy="4252.51" r="15.7" style=""/>
<circle cx="2654.9" cy="3542.51" r="15.7" style=""/>
<circle cx="2364.9" cy="3852.51" r="15.7" style=""/>
<circle cx="2864.9" cy="4362.51" r="15.7" style=""/>
<circle cx="3217.5" cy="4034.51" r="15.7" style=""/>
<circle cx="3554.9" cy="4162.51" r="15.7" style=""/>
<circle cx="4154.9" cy="4662.51" r="15.7" style=""/>
<circle cx="4254.9" cy="4462.51" r="15.7" style=""/>
<circle cx="4054.9" cy="3652.51" r="15.7" style=""/>
<circle cx="4474.9" cy="2462.51" r="15.7" style=""/>
<circle cx="4844.9" cy="2142.51" r="15.7" style=""/>
<circle cx="5354.9" cy="2662.51" r="15.7" style=""/>
<circle cx="5554.9" cy="2862.51" r="15.7" style=""/>
<circle cx="5754.9" cy="3062.51" r="15.7" style=""/>
<circle cx="6657.5" cy="4014.51" r="15.7" style=""/>
<circle cx="7164.9" cy="3452.51" r="15.7" style=""/>
<circle cx="7314.9" cy="3162.51" r="15.7" style=""/>
<circle cx="6264.9" cy="1976.51" r="15.7" style=""/>
<circle cx="6054.9" cy="2252.51" r="15.7" style=""/>
<circle cx="6154.9" cy="2572.51" r="15.7" style=""/>
<circle cx="6394.9" cy="2762.51" r="15.7" style=""/>
<circle cx="5934.9" cy="2962.51" r="15.7" style=""/>
<circle cx="5654.9" cy="2362.51" r="15.7" style=""/>
<circle cx="5264.9" cy="2062.51" r="15.7" style=""/>
<circle cx="4924.9" cy="1762.51" r="15.7" style=""/>
<circle cx="5054.9" cy="1462.51" r="15.7" style=""/>
<circle cx="5164.9" cy="1262.51" r="15.7" style=""/>
<circle cx="4664.9" cy="1672.51" r="15.7" style=""/>
<circle cx="4554.9" cy="1552.51" r="15.7" style=""/>
<circle cx="4354.9" cy="1862.51" r="15.7" style=""/>
<circle cx="3897.5" cy="1994.51" r="15.7" style=""/>
<circle cx="3217.5" cy="1994.51" r="15.7" style=""/>
<circle cx="2277.5" cy="1994.51" r="15.7" style=""/>
<circle cx="1257.5" cy="1974.51" r="15.7" style=""/>
<circle cx="1454.9" cy="3272.51" r="15.7" style=""/>
<circle cx="757.098" cy="5564.71" r="39.4" style=""/>
<circle cx="757.098" cy="5364.71" r="39.4" style=""/>
<circle cx="957.098" cy="5364.71" r="39.4" style=""/>
<circle cx="1157.1" cy="5364.71" r="39.4" style=""/>
<circle cx="957.098" cy="5564.71" r="39.4" style=""/>
<circle cx="1157.1" cy="5564.71" r="39.4" style=""/>
<circle cx="1357.1" cy="5364.71" r="39.4" style=""/>
<circle cx="1357.1" cy="5564.71" r="39.4" style=""/>
<circle cx="1557.1" cy="5564.71" r="39.4" style=""/>
<circle cx="1757.1" cy="5564.71" r="39.4" style=""/>
<circle cx="1557.1" cy="5364.71" r="39.4" style=""/>
<circle cx="1757.1" cy="5364.71" r="39.4" style=""/>
<circle cx="1957.1" cy="5364.71" r="39.4" style=""/>
<circle cx="2157.1" cy="5364.71" r="39.4" style=""/>
<circle cx="2357.1" cy="5364.71" r="39.4" style=""/>
<circle cx="1957.1" cy="5564.71" r="39.4" style=""/>
<circle cx="2157.1" cy="5564.71" r="39.4" style=""/>
<circle cx="2357.1" cy="5564.71" r="39.4" style=""/>
<circle cx="2557.1" cy="5364.71" r="39.4" style=""/>
<circle cx="2557.1" cy="5564.71" r="39.4" style=""/>
<circle cx="2757.1" cy="5364.71" r="39.4" style=""/>
<circle cx="2957.1" cy="5364.71" r="39.4" style=""/>
<circle cx="2757.1" cy="5564.71" r="39.4" style=""/>
<circle cx="2957.1" cy="5564.71" r="39.4" style=""/>
<circle cx="3157.1" cy="5364.71" r="39.4" style=""/>
<circle cx="3357.1" cy="5364.71" r="39.4" style=""/>
<circle cx="3157.1" cy="5564.71" r="39.4" style=""/>
<circle cx="3357.1" cy="5564.71" r="39.4" style=""/>
<circle cx="3557.1" cy="5364.71" r="39.4" style=""/>
<circle cx="3557.1" cy="5564.71" r="39.4" style=""/>
<circle cx="3757.1" cy="5364.71" r="39.4" style=""/>
<circle cx="3957.1" cy="5364.71" r="39.4" style=""/>
<circle cx="3757.1" cy="5564.71" r="39.4" style=""/>
<circle cx="3957.1" cy="5564.71" r="39.4" style=""/>
<circle cx="4157.1" cy="5364.71" r="39.4" style=""/>
<circle cx="4357.1" cy="5364.71" r="39.4" style=""/>
<circle cx="4157.1" cy="5564.71" r="39.4" style=""/>
<circle cx="4357.1" cy="5564.71" r="39.4" style=""/>
<circle cx="4557.1" cy="5364.71" r="39.4" style=""/>
<circle cx="4557.1" cy="5564.71" r="39.4" style=""/>
<circle cx="4757.1" cy="5364.71" r="39.4" style=""/>
<circle cx="4757.1" cy="5564.71" r="39.4" style=""/>
<circle cx="4957.1" cy="5364.71" r="39.4" style=""/>
<circle cx="5157.1" cy="5364.71" r="39.4" style=""/>
<circle cx="4957.1" cy="5564.71" r="39.4" style=""/>
<circle cx="5157.1" cy="5564.71" r="39.4" style=""/>
<circle cx="5357.1" cy="5364.71" r="39.4" style=""/>
<circle cx="5357.1" cy="5564.71" r="39.4" style=""/>
<circle cx="5557.1" cy="5364.71" r="39.4" style=""/>
<circle cx="5557.1" cy="5564.71" r="39.4" style=""/>
<circle cx="5757.1" cy="5364.71" r="39.4" style=""/>
<circle cx="5757.1" cy="5564.71" r="39.4" style=""/>
<circle cx="5957.1" cy="5364.71" r="39.4" style=""/>
<circle cx="6157.1" cy="5364.71" r="39.4" style=""/>
<circle cx="5957.1" cy="5564.71" r="39.4" style=""/>
<circle cx="6157.1" cy="5564.71" r="39.4" style=""/>
<circle cx="6357.1" cy="5364.71" r="39.4" style=""/>
<circle cx="6357.1" cy="5564.71" r="39.4" style=""/>
<circle cx="6557.1" cy="5364.71" r="39.4" style=""/>
<circle cx="6557.1" cy="5564.71" r="39.4" style=""/>
<circle cx="6757.1" cy="5364.71" r="39.4" style=""/>
<circle cx="6757.1" cy="5564.71" r="39.4" style=""/>
<circle cx="6957.1" cy="5364.71" r="39.4" style=""/>
<circle cx="7157.1" cy="5364.71" r="39.4" style=""/>
<circle cx="6957.1" cy="5564.71" r="39.4" style=""/>
<circle cx="7157.1" cy="5564.71" r="39.4" style=""/>
<circle cx="7357.1" cy="5364.71" r="39.4" style=""/>
<circle cx="7357.1" cy="5564.71" r="39.4" style=""/>
<circle cx="7557.1" cy="5364.71" r="39.4" style=""/>
<circle cx="7557.1" cy="5564.71" r="39.4" style=""/>
<circle cx="7757.1" cy="5564.71" r="39.4" style=""/>
<circle cx="7757.1" cy="5364.71" r="39.4" style=""/>
<circle cx="7513.7" cy="4666.91" r="39.4" style=""/>
<circle cx="7713.7" cy="4666.91" r="39.4" style=""/>
<circle cx="7713.7" cy="4466.91" r="39.4" style=""/>
<circle cx="7713.7" cy="4266.91" r="39.4" style=""/>
<circle cx="7713.7" cy="4066.91" r="39.4" style=""/>
<circle cx="7713.7" cy="3866.91" r="39.4" style=""/>
<circle cx="7713.7" cy="3666.91" r="39.4" style=""/>
<circle cx="7713.7" cy="3466.91" r="39.4" style=""/>
<circle cx="7713.7" cy="3266.91" r="39.4" style=""/>
<circle cx="7713.7" cy="3066.91" r="39.4" style=""/>
<circle cx="7713.7" cy="2866.91" r="39.4" style=""/>
<circle cx="7713.7" cy="2666.91" r="39.4" style=""/>
<circle cx="7713.7" cy="2466.91" r="39.4" style=""/>
<circle cx="7713.7" cy="2266.91" r="39.4" style=""/>
<circle cx="7713.7" cy="2066.91" r="39.4" style=""/>
<circle cx="7713.7" cy="1866.91" r="39.4" style=""/>
<circle cx="7713.7" cy="1666.91" r="39.4" style=""/>
<circle cx="7713.7" cy="1466.91" r="39.4" style=""/>
<circle cx="7513.7" cy="1466.91" r="39.4" style=""/>
<circle cx="7513.7" cy="1666.91" r="39.4" style=""/>
<circle cx="7513.7" cy="1866.91" r="39.4" style=""/>
<circle cx="7513.7" cy="2066.91" r="39.4" style=""/>
<circle cx="7513.7" cy="2266.91" r="39.4" style=""/>
<circle cx="7513.7" cy="2466.91" r="39.4" style=""/>
<circle cx="7513.7" cy="2666.91" r="39.4" style=""/>
<circle cx="7513.7" cy="2866.91" r="39.4" style=""/>
<circle cx="7513.7" cy="3066.91" r="39.4" style=""/>
<circle cx="7513.7" cy="3266.91" r="39.4" style=""/>
<circle cx="7513.7" cy="3466.91" r="39.4" style=""/>
<circle cx="7513.7" cy="3666.91" r="39.4" style=""/>
<circle cx="7513.7" cy="3866.91" r="39.4" style=""/>
<circle cx="7513.7" cy="4066.91" r="39.4" style=""/>
<circle cx="7513.7" cy="4266.91" r="39.4" style=""/>
<circle cx="7513.7" cy="4466.91" r="39.4" style=""/>
<circle cx="3957.1" cy="764.709" r="39.4" style=""/>
<circle cx="3757.1" cy="764.709" r="39.4" style=""/>
<circle cx="3557.1" cy="564.709" r="39.4" style=""/>
<circle cx="3357.1" cy="564.709" r="39.4" style=""/>
<circle cx="3157.1" cy="564.709" r="39.4" style=""/>
<circle cx="2957.1" cy="564.709" r="39.4" style=""/>
<circle cx="2757.1" cy="564.709" r="39.4" style=""/>
<circle cx="2557.1" cy="564.709" r="39.4" style=""/>
<circle cx="2357.1" cy="564.709" r="39.4" style=""/>
<circle cx="2157.1" cy="564.709" r="39.4" style=""/>
<circle cx="1957.1" cy="564.709" r="39.4" style=""/>
<circle cx="1757.1" cy="564.709" r="39.4" style=""/>
<circle cx="1557.1" cy="564.709" r="39.4" style=""/>
<circle cx="1357.1" cy="564.709" r="39.4" style=""/>
<circle cx="1157.1" cy="564.709" r="39.4" style=""/>
<circle cx="957.098" cy="564.709" r="39.4" style=""/>
<circle cx="757.098" cy="564.709" r="39.4" style=""/>
<circle cx="757.098" cy="764.709" r="39.4" style=""/>
<circle cx="957.098" cy="764.709" r="39.4" style=""/>
<circle cx="1157.1" cy="764.709" r="39.4" style=""/>
<circle cx="1357.1" cy="764.709" r="39.4" style=""/>
<circle cx="1557.1" cy="764.709" r="39.4" style=""/>
<circle cx="1757.1" cy="764.709" r="39.4" style=""/>
<circle cx="1957.1" cy="764.709" r="39.4" style=""/>
<circle cx="2157.1" cy="764.709" r="39.4" style=""/>
<circle cx="2357.1" cy="764.709" r="39.4" style=""/>
<circle cx="2557.1" cy="764.709" r="39.4" style=""/>
<circle cx="2757.1" cy="764.709" r="39.4" style=""/>
<circle cx="2957.1" cy="764.709" r="39.4" style=""/>
<circle cx="3157.1" cy="764.709" r="39.4" style=""/>
<circle cx="3357.1" cy="764.709" r="39.4" style=""/>
<circle cx="3557.1" cy="764.709" r="39.4" style=""/>
<circle cx="3757.1" cy="564.709" r="39.4" style=""/>
<circle cx="3957.1" cy="564.709" r="39.4" style=""/>
<circle cx="4157.1" cy="564.709" r="39.4" style=""/>
<circle cx="4357.1" cy="564.709" r="39.4" style=""/>
<circle cx="4157.1" cy="764.709" r="39.4" style=""/>
<circle cx="4357.1" cy="764.709" r="39.4" style=""/>
<circle cx="4557.1" cy="564.709" r="39.4" style=""/>
<circle cx="4557.1" cy="764.709" r="39.4" style=""/>
<circle cx="4757.1" cy="564.709" r="39.4" style=""/>
<circle cx="4757.1" cy="764.709" r="39.4" style=""/>
<circle cx="4957.1" cy="564.709" r="39.4" style=""/>
<circle cx="5157.1" cy="564.709" r="39.4" style=""/>
<circle cx="4957.1" cy="764.709" r="39.4" style=""/>
<circle cx="5157.1" cy="764.709" r="39.4" style=""/>
<circle cx="5357.1" cy="564.709" r="39.4" style=""/>
<circle cx="5357.1" cy="764.709" r="39.4" style=""/>
<circle cx="5557.1" cy="564.709" r="39.4" style=""/>
<circle cx="5557.1" cy="764.709" r="39.4" style=""/>
<circle cx="5757.1" cy="564.709" r="39.4" style=""/>
<circle cx="5757.1" cy="764.709" r="39.4" style=""/>
<circle cx="5957.1" cy="564.709" r="39.4" style=""/>
<circle cx="6157.1" cy="564.709" r="39.4" style=""/>
<circle cx="5957.1" cy="764.709" r="39.4" style=""/>
<circle cx="6157.1" cy="764.709" r="39.4" style=""/>
<circle cx="6357.1" cy="564.709" r="39.4" style=""/>
<circle cx="6357.1" cy="764.709" r="39.4" style=""/>
<circle cx="6557.1" cy="564.709" r="39.4" style=""/>
<circle cx="6557.1" cy="764.709" r="39.4" style=""/>
<circle cx="6757.1" cy="564.709" r="39.4" style=""/>
<circle cx="6757.1" cy="764.709" r="39.4" style=""/>
<circle cx="6957.1" cy="564.709" r="39.4" style=""/>
<circle cx="7157.1" cy="564.709" r="39.4" style=""/>
<circle cx="6957.1" cy="764.709" r="39.4" style=""/>
<circle cx="7157.1" cy="764.709" r="39.4" style=""/>
<circle cx="7357.1" cy="564.709" r="39.4" style=""/>
<circle cx="7357.1" cy="764.709" r="39.4" style=""/>
<circle cx="7557.1" cy="564.709" r="39.4" style=""/>
<circle cx="7557.1" cy="764.709" r="39.4" style=""/>
<circle cx="7757.1" cy="564.709" r="39.4" style=""/>
<circle cx="7757.1" cy="764.709" r="39.4" style=""/>
</svg>
