<?xml version="1.0" standalone="no"?>
<!DOCTYPE svg PUBLIC "-//W3C//DTD SVG 1.1//EN"
"http://www.w3.org/Graphics/SVG/1.1/DTD/svg11.dtd">
<svg width="401.008" height="287.622" viewBox="0 0 8354.33 5992.13" version="1.1"
xmlns="http://www.w3.org/2000/svg"
xmlns:xlink="http://www.w3.org/1999/xlink">
<g fill-rule="evenodd"><path d="M -5.68434e-14,5992.13 L -5.68434e-14,0 L 8354.33,0 L 8354.33,5992.13 L -5.68434e-14,5992.13 z " style="fill-opacity:0.200000;fill:rgb(41,35,190);"/></g>
<polyline points="122.047,5751.97 122.047,240.161 124.317,217.117 131.039,194.961 141.953,174.541 156.641,156.643 174.539,141.955 194.959,131.041 217.115,124.319 240.157,122.049 8114.17,122.049 8137.21,124.319 8159.37,131.041 8179.79,141.955 8197.69,156.643 8212.38,174.541 8223.29,194.961 8230.01,217.117 8232.28,240.161 8232.28,5751.97 8230.49,5772.48 8225.16,5792.36 8216.46,5811.02 8204.65,5827.89 8190.09,5842.44 8173.23,5854.25 8154.57,5862.95 8134.68,5868.28 8114.17,5870.08 240.157,5870.08 217.115,5867.81 194.959,5861.09 174.539,5850.17 156.641,5835.48 141.953,5817.59 131.039,5797.17 124.317,5775.01 122.047,5751.97" style="stroke:rgb(41,35,190);stroke-width:236.220472;fill:none;stroke-opacity:0.5;stroke-linecap:round;stroke-linejoin:round;;fill:none"/>
<polyline points="122.047,5751.97 122.047,240.161 124.317,217.117 131.039,194.961 141.953,174.541 156.641,156.643 174.539,141.955 194.959,131.041 217.115,124.319 240.157,122.049 8114.17,122.049 8137.21,124.319 8159.37,131.041 8179.79,141.955 8197.69,156.643 8212.38,174.541 8223.29,194.961 8230.01,217.117 8232.28,240.161 8232.28,5751.97 8230.49,5772.48 8225.16,5792.36 8216.46,5811.02 8204.65,5827.89 8190.09,5842.44 8173.23,5854.25 8154.57,5862.95 8134.68,5868.28 8114.17,5870.08 240.157,5870.08 217.115,5867.81 194.959,5861.09 174.539,5850.17 156.641,5835.48 141.953,5817.59 131.039,5797.17 124.317,5775.01 122.047,5751.97" style="stroke:rgb(0,0,0);stroke-width:1px;fill:none;stroke-opacity:1;stroke-linecap:round;stroke-linejoin:round;;fill:none"/>
<g fill-rule="evenodd"><path d="M 240.157,5751.97 L 240.157,240.159 L 8114.17,240.159 L 8114.17,5751.97 L 240.157,5751.97 z " style="fill-opacity:1.000000;fill:rgb(41,35,190);stroke:rgb(0,0,0);stroke-width:2"/></g>
</svg>
