<?xml version="1.0" standalone="no"?>
<!DOCTYPE svg PUBLIC "-//W3C//DTD SVG 1.1//EN"
"http://www.w3.org/Graphics/SVG/1.1/DTD/svg11.dtd">
<svg width="127.937" height="199.748" viewBox="0 0 2665.35 4161.42" version="1.1"
xmlns="http://www.w3.org/2000/svg"
xmlns:xlink="http://www.w3.org/1999/xlink">
<circle cx="968.504" cy="3763.78" r="15.748" style=""/>
<circle cx="968.504" cy="1421.26" r="15.748" style=""/>
<circle cx="1204.72" cy="1185.04" r="15.748" style=""/>
<circle cx="929.134" cy="535.433" r="15.748" style=""/>
<circle cx="1125.98" cy="535.433" r="15.748" style=""/>
<circle cx="1204.72" cy="397.638" r="15.748" style=""/>
<circle cx="1952.76" cy="515.748" r="15.748" style=""/>
<circle cx="1952.76" cy="897.795" r="15.748" style=""/>
<circle cx="430.866" cy="2867.48" r="39.3701" style=""/>
<circle cx="430.866" cy="2667.48" r="39.3701" style=""/>
<circle cx="430.866" cy="2467.48" r="39.3701" style=""/>
<circle cx="430.866" cy="2267.48" r="39.3701" style=""/>
<circle cx="430.866" cy="2067.48" r="39.3701" style=""/>
<circle cx="430.866" cy="1867.48" r="39.3701" style=""/>
<circle cx="430.866" cy="1667.48" r="39.3701" style=""/>
<circle cx="430.866" cy="1467.48" r="39.3701" style=""/>
<circle cx="430.866" cy="1267.48" r="39.3701" style=""/>
<circle cx="430.866" cy="1067.48" r="39.3701" style=""/>
<circle cx="430.866" cy="867.48" r="39.3701" style=""/>
<circle cx="430.866" cy="667.48" r="39.3701" style=""/>
<circle cx="430.866" cy="467.48" r="39.3701" style=""/>
<circle cx="2230.31" cy="468.031" r="39.3701" style=""/>
<circle cx="2230.31" cy="668.031" r="39.3701" style=""/>
<circle cx="2230.31" cy="868.031" r="39.3701" style=""/>
<circle cx="2230.31" cy="1068.03" r="39.3701" style=""/>
<circle cx="2230.31" cy="1268.03" r="39.3701" style=""/>
<circle cx="2230.31" cy="1468.03" r="39.3701" style=""/>
<circle cx="2230.31" cy="1668.03" r="39.3701" style=""/>
<circle cx="2230.31" cy="1868.03" r="39.3701" style=""/>
<circle cx="2230.31" cy="2068.03" r="39.3701" style=""/>
<circle cx="2230.31" cy="2268.03" r="39.3701" style=""/>
<circle cx="2230.31" cy="2468.03" r="39.3701" style=""/>
<circle cx="2230.31" cy="2668.03" r="39.3701" style=""/>
<circle cx="2230.31" cy="2868.03" r="39.3701" style=""/>
</svg>
