<?xml version="1.0" standalone="no"?>
<!DOCTYPE svg PUBLIC "-//W3C//DTD SVG 1.1//EN"
"http://www.w3.org/Graphics/SVG/1.1/DTD/svg11.dtd">
<svg width="127.937" height="199.748" viewBox="0 0 2665.35 4161.42" version="1.1"
xmlns="http://www.w3.org/2000/svg"
xmlns:xlink="http://www.w3.org/1999/xlink">
<g fill-rule="evenodd"><path d="M 318.898,3842.52 L 318.898,318.898 L 2346.46,318.898 L 2346.46,3842.52 L 318.898,3842.52M 1275.59,2866.14 L 1278.17,2890.7 L 1285.8,2914.18 L 1298.15,2935.56 L 1314.67,2953.91 L 1334.65,2968.43 L 1357.2,2978.47 L 1381.35,2983.6 L 1406.05,2983.6 L 1430.2,2978.47 L 1452.76,2968.43 L 1472.73,2953.91 L 1489.25,2935.56 L 1501.6,2914.18 L 1509.23,2890.7 L 1511.81,2866.14 L 1509.23,2841.58 L 1501.6,2818.1 L 1489.25,2796.72 L 1472.73,2778.37 L 1452.76,2763.85 L 1430.2,2753.81 L 1406.05,2748.68 L 1381.35,2748.68 L 1357.2,2753.81 L 1334.65,2763.85 L 1314.67,2778.37 L 1298.15,2796.72 L 1285.8,2818.1 L 1278.17,2841.58 L 1275.59,2866.14 z " style="fill-opacity:1.000000;fill:rgb(41,35,190);stroke:rgb(0,0,0);stroke-width:2"/></g>
</svg>
