<?xml version="1.0" standalone="no"?>
<!DOCTYPE svg PUBLIC "-//W3C//DTD SVG 1.1//EN"
"http://www.w3.org/Graphics/SVG/1.1/DTD/svg11.dtd">
<svg width="127.937" height="199.748" viewBox="0 0 2665.35 4161.42" version="1.1"
xmlns="http://www.w3.org/2000/svg"
xmlns:xlink="http://www.w3.org/1999/xlink">
<polyline points="161.418,3842.52 164.444,3873.24 173.406,3902.78 187.958,3930.01 207.544,3953.87 231.408,3973.46 258.634,3988.01 288.176,3996.97 318.898,4000 2346.46,4000 2377.18,3996.97 2406.72,3988.01 2433.95,3973.46 2457.81,3953.87 2477.4,3930.01 2491.95,3902.78 2500.91,3873.24 2503.94,3842.52 2503.94,318.898 2500.91,288.176 2491.95,258.634 2477.4,231.408 2457.81,207.544 2433.95,187.958 2406.72,173.406 2377.18,164.444 2346.46,161.418 318.898,161.418 288.176,164.444 258.634,173.406 231.408,187.958 207.544,207.544 187.958,231.408 173.406,258.634 164.444,288.176 161.418,318.898 161.418,3842.52" style="stroke:rgb(41,35,190);stroke-width:314.960630;fill:none;stroke-opacity:0.5;stroke-linecap:round;stroke-linejoin:round;;fill:none"/>
<polyline points="161.418,3842.52 164.444,3873.24 173.406,3902.78 187.958,3930.01 207.544,3953.87 231.408,3973.46 258.634,3988.01 288.176,3996.97 318.898,4000 2346.46,4000 2377.18,3996.97 2406.72,3988.01 2433.95,3973.46 2457.81,3953.87 2477.4,3930.01 2491.95,3902.78 2500.91,3873.24 2503.94,3842.52 2503.94,318.898 2500.91,288.176 2491.95,258.634 2477.4,231.408 2457.81,207.544 2433.95,187.958 2406.72,173.406 2377.18,164.444 2346.46,161.418 318.898,161.418 288.176,164.444 258.634,173.406 231.408,187.958 207.544,207.544 187.958,231.408 173.406,258.634 164.444,288.176 161.418,318.898 161.418,3842.52" style="stroke:rgb(0,0,0);stroke-width:1px;fill:none;stroke-opacity:1;stroke-linecap:round;stroke-linejoin:round;;fill:none"/>
</svg>
