<?xml version="1.0" standalone="no"?>
<!DOCTYPE svg PUBLIC "-//W3C//DTD SVG 1.1//EN"
"http://www.w3.org/Graphics/SVG/1.1/DTD/svg11.dtd">
<svg width="238.488" height="249.827" viewBox="0 0 4968.5 5204.72" version="1.1"
xmlns="http://www.w3.org/2000/svg"
xmlns:xlink="http://www.w3.org/1999/xlink">
<polyline points="936.241,3838.58 760.609,3838.58" style="stroke:rgb(255,0,0);stroke-width:31.496063;fill:none;stroke-opacity:0.5;stroke-linecap:round;stroke-linejoin:round;;fill:none"/>
<polyline points="936.241,3838.58 760.609,3838.58" style="stroke:rgb(0,0,0);stroke-width:1px;fill:none;stroke-opacity:1;stroke-linecap:round;stroke-linejoin:round;;fill:none"/>
<polyline points="936.241,3838.58 760.609,3838.58" style="stroke:rgb(255,0,0);stroke-width:31.496063;fill:none;stroke-opacity:0.5;stroke-linecap:round;stroke-linejoin:round;;fill:none"/>
<polyline points="936.241,3838.58 760.609,3838.58" style="stroke:rgb(0,0,0);stroke-width:1px;fill:none;stroke-opacity:1;stroke-linecap:round;stroke-linejoin:round;;fill:none"/>
<polyline points="2292.91,538.583 2293.5,538.138 2305.12,535.236 2332.67,535.236 2344.29,532.332 2345.32,531.562" style="stroke:rgb(255,0,0);stroke-width:31.496063;fill:none;stroke-opacity:0.5;stroke-linecap:round;stroke-linejoin:round;;fill:none"/>
<polyline points="2292.91,538.583 2293.5,538.138 2305.12,535.236 2332.67,535.236 2344.29,532.332 2345.32,531.562" style="stroke:rgb(0,0,0);stroke-width:1px;fill:none;stroke-opacity:1;stroke-linecap:round;stroke-linejoin:round;;fill:none"/>
<polyline points="2292.91,538.583 2293.5,538.138 2305.12,535.236 2332.67,535.236 2344.29,532.332 2345.32,531.561" style="stroke:rgb(255,0,0);stroke-width:31.496063;fill:none;stroke-opacity:0.5;stroke-linecap:round;stroke-linejoin:round;;fill:none"/>
<polyline points="2292.91,538.583 2293.5,538.138 2305.12,535.236 2332.67,535.236 2344.29,532.332 2345.32,531.561" style="stroke:rgb(0,0,0);stroke-width:1px;fill:none;stroke-opacity:1;stroke-linecap:round;stroke-linejoin:round;;fill:none"/>
<polyline points="760.605,3649.6 936.246,3649.6" style="stroke:rgb(255,0,0);stroke-width:31.496063;fill:none;stroke-opacity:0.5;stroke-linecap:round;stroke-linejoin:round;;fill:none"/>
<polyline points="760.605,3649.6 936.246,3649.6" style="stroke:rgb(0,0,0);stroke-width:1px;fill:none;stroke-opacity:1;stroke-linecap:round;stroke-linejoin:round;;fill:none"/>
<polyline points="760.605,3649.6 936.246,3649.6" style="stroke:rgb(255,0,0);stroke-width:31.496063;fill:none;stroke-opacity:0.5;stroke-linecap:round;stroke-linejoin:round;;fill:none"/>
<polyline points="760.605,3649.6 936.246,3649.6" style="stroke:rgb(0,0,0);stroke-width:1px;fill:none;stroke-opacity:1;stroke-linecap:round;stroke-linejoin:round;;fill:none"/>
<polyline points="760.607,3838.58 936.244,3838.58" style="stroke:rgb(255,0,0);stroke-width:31.496063;fill:none;stroke-opacity:0.5;stroke-linecap:round;stroke-linejoin:round;;fill:none"/>
<polyline points="760.607,3838.58 936.244,3838.58" style="stroke:rgb(0,0,0);stroke-width:1px;fill:none;stroke-opacity:1;stroke-linecap:round;stroke-linejoin:round;;fill:none"/>
<polyline points="760.607,3838.58 936.244,3838.58" style="stroke:rgb(255,0,0);stroke-width:31.496063;fill:none;stroke-opacity:0.5;stroke-linecap:round;stroke-linejoin:round;;fill:none"/>
<polyline points="760.607,3838.58 936.244,3838.58" style="stroke:rgb(0,0,0);stroke-width:1px;fill:none;stroke-opacity:1;stroke-linecap:round;stroke-linejoin:round;;fill:none"/>
<polyline points="936.239,3775.59 760.611,3775.59" style="stroke:rgb(255,0,0);stroke-width:31.496063;fill:none;stroke-opacity:0.5;stroke-linecap:round;stroke-linejoin:round;;fill:none"/>
<polyline points="936.239,3775.59 760.611,3775.59" style="stroke:rgb(0,0,0);stroke-width:1px;fill:none;stroke-opacity:1;stroke-linecap:round;stroke-linejoin:round;;fill:none"/>
<polyline points="936.239,3775.59 760.611,3775.59" style="stroke:rgb(255,0,0);stroke-width:31.496063;fill:none;stroke-opacity:0.5;stroke-linecap:round;stroke-linejoin:round;;fill:none"/>
<polyline points="936.239,3775.59 760.611,3775.59" style="stroke:rgb(0,0,0);stroke-width:1px;fill:none;stroke-opacity:1;stroke-linecap:round;stroke-linejoin:round;;fill:none"/>
<polyline points="760.604,3775.59 936.246,3775.59" style="stroke:rgb(255,0,0);stroke-width:31.496063;fill:none;stroke-opacity:0.5;stroke-linecap:round;stroke-linejoin:round;;fill:none"/>
<polyline points="760.604,3775.59 936.246,3775.59" style="stroke:rgb(0,0,0);stroke-width:1px;fill:none;stroke-opacity:1;stroke-linecap:round;stroke-linejoin:round;;fill:none"/>
<polyline points="760.604,3775.59 936.246,3775.59" style="stroke:rgb(255,0,0);stroke-width:31.496063;fill:none;stroke-opacity:0.5;stroke-linecap:round;stroke-linejoin:round;;fill:none"/>
<polyline points="760.604,3775.59 936.246,3775.59" style="stroke:rgb(0,0,0);stroke-width:1px;fill:none;stroke-opacity:1;stroke-linecap:round;stroke-linejoin:round;;fill:none"/>
<polyline points="936.239,3712.6 760.611,3712.6" style="stroke:rgb(255,0,0);stroke-width:31.496063;fill:none;stroke-opacity:0.5;stroke-linecap:round;stroke-linejoin:round;;fill:none"/>
<polyline points="936.239,3712.6 760.611,3712.6" style="stroke:rgb(0,0,0);stroke-width:1px;fill:none;stroke-opacity:1;stroke-linecap:round;stroke-linejoin:round;;fill:none"/>
<polyline points="936.239,3712.6 760.611,3712.6" style="stroke:rgb(255,0,0);stroke-width:31.496063;fill:none;stroke-opacity:0.5;stroke-linecap:round;stroke-linejoin:round;;fill:none"/>
<polyline points="936.239,3712.6 760.611,3712.6" style="stroke:rgb(0,0,0);stroke-width:1px;fill:none;stroke-opacity:1;stroke-linecap:round;stroke-linejoin:round;;fill:none"/>
<polyline points="760.604,3712.6 936.246,3712.6" style="stroke:rgb(255,0,0);stroke-width:31.496063;fill:none;stroke-opacity:0.5;stroke-linecap:round;stroke-linejoin:round;;fill:none"/>
<polyline points="760.604,3712.6 936.246,3712.6" style="stroke:rgb(0,0,0);stroke-width:1px;fill:none;stroke-opacity:1;stroke-linecap:round;stroke-linejoin:round;;fill:none"/>
<polyline points="760.604,3712.6 936.246,3712.6" style="stroke:rgb(255,0,0);stroke-width:31.496063;fill:none;stroke-opacity:0.5;stroke-linecap:round;stroke-linejoin:round;;fill:none"/>
<polyline points="760.604,3712.6 936.246,3712.6" style="stroke:rgb(0,0,0);stroke-width:1px;fill:none;stroke-opacity:1;stroke-linecap:round;stroke-linejoin:round;;fill:none"/>
<polyline points="936.239,3649.6 760.611,3649.6" style="stroke:rgb(255,0,0);stroke-width:31.496063;fill:none;stroke-opacity:0.5;stroke-linecap:round;stroke-linejoin:round;;fill:none"/>
<polyline points="936.239,3649.6 760.611,3649.6" style="stroke:rgb(0,0,0);stroke-width:1px;fill:none;stroke-opacity:1;stroke-linecap:round;stroke-linejoin:round;;fill:none"/>
<polyline points="936.239,3649.6 760.611,3649.6" style="stroke:rgb(255,0,0);stroke-width:31.496063;fill:none;stroke-opacity:0.5;stroke-linecap:round;stroke-linejoin:round;;fill:none"/>
<polyline points="936.239,3649.6 760.611,3649.6" style="stroke:rgb(0,0,0);stroke-width:1px;fill:none;stroke-opacity:1;stroke-linecap:round;stroke-linejoin:round;;fill:none"/>
<polyline points="3463.03,2733.16 3465.17,2746.66 3465.45,2749.31 3466.18,2763.3 3466.18,2765.77 3465.45,2779.76 3465.17,2782.41 3463.03,2795.91" style="stroke:rgb(255,0,0);stroke-width:31.496063;fill:none;stroke-opacity:0.5;stroke-linecap:round;stroke-linejoin:round;;fill:none"/>
<polyline points="3463.03,2733.16 3465.17,2746.66 3465.45,2749.31 3466.18,2763.3 3466.18,2765.77 3465.45,2779.76 3465.17,2782.41 3463.03,2795.91" style="stroke:rgb(0,0,0);stroke-width:1px;fill:none;stroke-opacity:1;stroke-linecap:round;stroke-linejoin:round;;fill:none"/>
<polyline points="3463.03,2733.16 3465.17,2746.66 3465.45,2749.31 3466.18,2763.3 3466.18,2765.77 3465.45,2779.76 3465.17,2782.41 3463.03,2795.91" style="stroke:rgb(255,0,0);stroke-width:31.496063;fill:none;stroke-opacity:0.5;stroke-linecap:round;stroke-linejoin:round;;fill:none"/>
<polyline points="3463.03,2733.16 3465.17,2746.66 3465.45,2749.31 3466.18,2763.3 3466.18,2765.77 3465.45,2779.76 3465.17,2782.41 3463.03,2795.91" style="stroke:rgb(0,0,0);stroke-width:1px;fill:none;stroke-opacity:1;stroke-linecap:round;stroke-linejoin:round;;fill:none"/>
<polyline points="3512.64,2797.51 3512.38,2796.3 3510.17,2782.31 3509.89,2779.73 3509.16,2765.74 3509.16,2763.33 3509.89,2749.34 3510.17,2746.76 3512.38,2732.77 3512.64,2731.56" style="stroke:rgb(255,0,0);stroke-width:31.496063;fill:none;stroke-opacity:0.5;stroke-linecap:round;stroke-linejoin:round;;fill:none"/>
<polyline points="3512.64,2797.51 3512.38,2796.3 3510.17,2782.31 3509.89,2779.73 3509.16,2765.74 3509.16,2763.33 3509.89,2749.34 3510.17,2746.76 3512.38,2732.77 3512.64,2731.56" style="stroke:rgb(0,0,0);stroke-width:1px;fill:none;stroke-opacity:1;stroke-linecap:round;stroke-linejoin:round;;fill:none"/>
<polyline points="3512.64,2797.51 3512.38,2796.3 3510.17,2782.31 3509.89,2779.73 3509.16,2765.74 3509.16,2763.33 3509.89,2749.34 3510.17,2746.76 3512.38,2732.77 3512.64,2731.56" style="stroke:rgb(255,0,0);stroke-width:31.496063;fill:none;stroke-opacity:0.5;stroke-linecap:round;stroke-linejoin:round;;fill:none"/>
<polyline points="3512.64,2797.51 3512.38,2796.3 3510.17,2782.31 3509.89,2779.73 3509.16,2765.74 3509.16,2763.33 3509.89,2749.34 3510.17,2746.76 3512.38,2732.77 3512.64,2731.56" style="stroke:rgb(0,0,0);stroke-width:1px;fill:none;stroke-opacity:1;stroke-linecap:round;stroke-linejoin:round;;fill:none"/>
<polyline points="3512.63,2731.59 3512.38,2732.77 3510.17,2746.76 3509.89,2749.34 3509.16,2763.33 3509.16,2765.74 3509.89,2779.73 3510.17,2782.31 3512.38,2796.3 3512.63,2797.49" style="stroke:rgb(255,0,0);stroke-width:31.496063;fill:none;stroke-opacity:0.5;stroke-linecap:round;stroke-linejoin:round;;fill:none"/>
<polyline points="3512.63,2731.59 3512.38,2732.77 3510.17,2746.76 3509.89,2749.34 3509.16,2763.33 3509.16,2765.74 3509.89,2779.73 3510.17,2782.31 3512.38,2796.3 3512.63,2797.49" style="stroke:rgb(0,0,0);stroke-width:1px;fill:none;stroke-opacity:1;stroke-linecap:round;stroke-linejoin:round;;fill:none"/>
<polyline points="3512.63,2731.59 3512.38,2732.77 3510.17,2746.76 3509.89,2749.34 3509.16,2763.33 3509.16,2765.74 3509.89,2779.73 3510.17,2782.31 3512.38,2796.3 3512.63,2797.49" style="stroke:rgb(255,0,0);stroke-width:31.496063;fill:none;stroke-opacity:0.5;stroke-linecap:round;stroke-linejoin:round;;fill:none"/>
<polyline points="3512.63,2731.59 3512.38,2732.77 3510.17,2746.76 3509.89,2749.34 3509.16,2763.33 3509.16,2765.74 3509.89,2779.73 3510.17,2782.31 3512.38,2796.3 3512.63,2797.49" style="stroke:rgb(0,0,0);stroke-width:1px;fill:none;stroke-opacity:1;stroke-linecap:round;stroke-linejoin:round;;fill:none"/>
<polyline points="3661.28,2799.82 3661.46,2799.15 3662.1,2796.13 3664.32,2782.14 3664.58,2779.67 3665.31,2765.68 3665.31,2763.39 3664.58,2749.4 3664.32,2746.93 3662.1,2732.94 3661.46,2729.92 3661.28,2729.26" style="stroke:rgb(255,0,0);stroke-width:31.496063;fill:none;stroke-opacity:0.5;stroke-linecap:round;stroke-linejoin:round;;fill:none"/>
<polyline points="3661.28,2799.82 3661.46,2799.15 3662.1,2796.13 3664.32,2782.14 3664.58,2779.67 3665.31,2765.68 3665.31,2763.39 3664.58,2749.4 3664.32,2746.93 3662.1,2732.94 3661.46,2729.92 3661.28,2729.26" style="stroke:rgb(0,0,0);stroke-width:1px;fill:none;stroke-opacity:1;stroke-linecap:round;stroke-linejoin:round;;fill:none"/>
<polyline points="3661.28,2799.82 3661.46,2799.15 3662.1,2796.13 3664.32,2782.14 3664.58,2779.67 3665.31,2765.68 3665.31,2763.39 3664.58,2749.4 3664.32,2746.93 3662.1,2732.94 3661.46,2729.92 3661.28,2729.26" style="stroke:rgb(255,0,0);stroke-width:31.496063;fill:none;stroke-opacity:0.5;stroke-linecap:round;stroke-linejoin:round;;fill:none"/>
<polyline points="3661.28,2799.82 3661.46,2799.15 3662.1,2796.13 3664.32,2782.14 3664.58,2779.67 3665.31,2765.68 3665.31,2763.39 3664.58,2749.4 3664.32,2746.93 3662.1,2732.94 3661.46,2729.92 3661.28,2729.26" style="stroke:rgb(0,0,0);stroke-width:1px;fill:none;stroke-opacity:1;stroke-linecap:round;stroke-linejoin:round;;fill:none"/>
<polyline points="3661.29,2729.28 3661.46,2729.92 3662.1,2732.94 3664.32,2746.93 3664.58,2749.4 3665.31,2763.39 3665.31,2765.68 3664.58,2779.67 3664.32,2782.14 3662.1,2796.13 3661.46,2799.15 3661.29,2799.79" style="stroke:rgb(255,0,0);stroke-width:31.496063;fill:none;stroke-opacity:0.5;stroke-linecap:round;stroke-linejoin:round;;fill:none"/>
<polyline points="3661.29,2729.28 3661.46,2729.92 3662.1,2732.94 3664.32,2746.93 3664.58,2749.4 3665.31,2763.39 3665.31,2765.68 3664.58,2779.67 3664.32,2782.14 3662.1,2796.13 3661.46,2799.15 3661.29,2799.79" style="stroke:rgb(0,0,0);stroke-width:1px;fill:none;stroke-opacity:1;stroke-linecap:round;stroke-linejoin:round;;fill:none"/>
<polyline points="3661.29,2729.28 3661.46,2729.92 3662.1,2732.94 3664.32,2746.93 3664.58,2749.4 3665.31,2763.39 3665.31,2765.68 3664.58,2779.67 3664.32,2782.14 3662.1,2796.13 3661.46,2799.15 3661.29,2799.79" style="stroke:rgb(255,0,0);stroke-width:31.496063;fill:none;stroke-opacity:0.5;stroke-linecap:round;stroke-linejoin:round;;fill:none"/>
<polyline points="3661.29,2729.28 3661.46,2729.92 3662.1,2732.94 3664.32,2746.93 3664.58,2749.4 3665.31,2763.39 3665.31,2765.68 3664.58,2779.67 3664.32,2782.14 3662.1,2796.13 3661.46,2799.15 3661.29,2799.79" style="stroke:rgb(0,0,0);stroke-width:1px;fill:none;stroke-opacity:1;stroke-linecap:round;stroke-linejoin:round;;fill:none"/>
<polyline points="3710.89,2792.55 3709.32,2782.59 3709.02,2779.82 3708.29,2765.83 3708.29,2763.24 3709.02,2749.25 3709.32,2746.48 3710.89,2736.52" style="stroke:rgb(255,0,0);stroke-width:31.496063;fill:none;stroke-opacity:0.5;stroke-linecap:round;stroke-linejoin:round;;fill:none"/>
<polyline points="3710.89,2792.55 3709.32,2782.59 3709.02,2779.82 3708.29,2765.83 3708.29,2763.24 3709.02,2749.25 3709.32,2746.48 3710.89,2736.52" style="stroke:rgb(0,0,0);stroke-width:1px;fill:none;stroke-opacity:1;stroke-linecap:round;stroke-linejoin:round;;fill:none"/>
<polyline points="3710.89,2792.55 3709.32,2782.59 3709.02,2779.82 3708.29,2765.83 3708.29,2763.24 3709.02,2749.25 3709.32,2746.48 3710.89,2736.52" style="stroke:rgb(255,0,0);stroke-width:31.496063;fill:none;stroke-opacity:0.5;stroke-linecap:round;stroke-linejoin:round;;fill:none"/>
<polyline points="3710.89,2792.55 3709.32,2782.59 3709.02,2779.82 3708.29,2765.83 3708.29,2763.24 3709.02,2749.25 3709.32,2746.48 3710.89,2736.52" style="stroke:rgb(0,0,0);stroke-width:1px;fill:none;stroke-opacity:1;stroke-linecap:round;stroke-linejoin:round;;fill:none"/>
<polyline points="2344.88,531.89 2344.29,532.332 2332.67,535.236 2305.12,535.236 2293.5,538.138 2292.49,538.9" style="stroke:rgb(255,0,0);stroke-width:31.496063;fill:none;stroke-opacity:0.5;stroke-linecap:round;stroke-linejoin:round;;fill:none"/>
<polyline points="2344.88,531.89 2344.29,532.332 2332.67,535.236 2305.12,535.236 2293.5,538.138 2292.49,538.9" style="stroke:rgb(0,0,0);stroke-width:1px;fill:none;stroke-opacity:1;stroke-linecap:round;stroke-linejoin:round;;fill:none"/>
<polyline points="2344.88,531.89 2344.29,532.332 2332.67,535.236 2305.12,535.236 2293.5,538.138 2292.49,538.9" style="stroke:rgb(255,0,0);stroke-width:31.496063;fill:none;stroke-opacity:0.5;stroke-linecap:round;stroke-linejoin:round;;fill:none"/>
<polyline points="2344.88,531.89 2344.29,532.332 2332.67,535.236 2305.12,535.236 2293.5,538.138 2292.49,538.9" style="stroke:rgb(0,0,0);stroke-width:1px;fill:none;stroke-opacity:1;stroke-linecap:round;stroke-linejoin:round;;fill:none"/>
<polyline points="3710.89,2736.55 3709.32,2746.48 3709.02,2749.25 3708.29,2763.24 3708.29,2765.83 3709.02,2779.82 3709.32,2782.59 3710.89,2792.53" style="stroke:rgb(255,0,0);stroke-width:31.496063;fill:none;stroke-opacity:0.5;stroke-linecap:round;stroke-linejoin:round;;fill:none"/>
<polyline points="3710.89,2736.55 3709.32,2746.48 3709.02,2749.25 3708.29,2763.24 3708.29,2765.83 3709.02,2779.82 3709.32,2782.59 3710.89,2792.53" style="stroke:rgb(0,0,0);stroke-width:1px;fill:none;stroke-opacity:1;stroke-linecap:round;stroke-linejoin:round;;fill:none"/>
<polyline points="3710.89,2736.55 3709.32,2746.48 3709.02,2749.25 3708.29,2763.24 3708.29,2765.83 3709.02,2779.82 3709.32,2782.59 3710.89,2792.53" style="stroke:rgb(255,0,0);stroke-width:31.496063;fill:none;stroke-opacity:0.5;stroke-linecap:round;stroke-linejoin:round;;fill:none"/>
<polyline points="3710.89,2736.55 3709.32,2746.48 3709.02,2749.25 3708.29,2763.24 3708.29,2765.83 3709.02,2779.82 3709.32,2782.59 3710.89,2792.53" style="stroke:rgb(0,0,0);stroke-width:1px;fill:none;stroke-opacity:1;stroke-linecap:round;stroke-linejoin:round;;fill:none"/>
<polyline points="3252.79,3178.35 3248.59,3176.6 3247.32,3176.11 3245.39,3175.42 3243.1,3174.72 3241.17,3174.24 3239.08,3173.82 3237.15,3173.54 3235.18,3173.34 3233.25,3173.25 3232.28,3173.22 3035.43,3173.22 3034.46,3173.2 3032.53,3173.11 3030.56,3172.91 3028.63,3172.63 3026.54,3172.21 3024.61,3171.73 3022.32,3171.03 3020.39,3170.34 3019.12,3169.85 3014.93,3168.11" style="stroke:rgb(255,0,0);stroke-width:31.496063;fill:none;stroke-opacity:0.5;stroke-linecap:round;stroke-linejoin:round;;fill:none"/>
<polyline points="3252.79,3178.35 3248.59,3176.6 3247.32,3176.11 3245.39,3175.42 3243.1,3174.72 3241.17,3174.24 3239.08,3173.82 3237.15,3173.54 3235.18,3173.34 3233.25,3173.25 3232.28,3173.22 3035.43,3173.22 3034.46,3173.2 3032.53,3173.11 3030.56,3172.91 3028.63,3172.63 3026.54,3172.21 3024.61,3171.73 3022.32,3171.03 3020.39,3170.34 3019.12,3169.85 3014.93,3168.11" style="stroke:rgb(0,0,0);stroke-width:1px;fill:none;stroke-opacity:1;stroke-linecap:round;stroke-linejoin:round;;fill:none"/>
<polyline points="3252.79,3178.35 3248.59,3176.6 3247.32,3176.11 3245.39,3175.42 3243.1,3174.72 3241.17,3174.24 3239.08,3173.82 3237.15,3173.54 3235.18,3173.34 3233.25,3173.25 3232.28,3173.22 3035.43,3173.22 3034.46,3173.2 3032.53,3173.11 3030.56,3172.91 3028.63,3172.63 3026.54,3172.21 3024.61,3171.73 3022.32,3171.03 3020.39,3170.34 3019.12,3169.85 3014.93,3168.11" style="stroke:rgb(255,0,0);stroke-width:31.496063;fill:none;stroke-opacity:0.5;stroke-linecap:round;stroke-linejoin:round;;fill:none"/>
<polyline points="3252.79,3178.35 3248.59,3176.6 3247.32,3176.11 3245.39,3175.42 3243.1,3174.72 3241.17,3174.24 3239.08,3173.82 3237.15,3173.54 3235.18,3173.34 3233.25,3173.25 3232.28,3173.22 3035.43,3173.22 3034.46,3173.2 3032.53,3173.11 3030.56,3172.91 3028.63,3172.63 3026.54,3172.21 3024.61,3171.73 3022.32,3171.03 3020.39,3170.34 3019.12,3169.85 3014.93,3168.11" style="stroke:rgb(0,0,0);stroke-width:1px;fill:none;stroke-opacity:1;stroke-linecap:round;stroke-linejoin:round;;fill:none"/>
<polyline points="3014.92,3168.1 3019.12,3169.85 3020.39,3170.34 3022.32,3171.03 3024.61,3171.73 3026.54,3172.21 3028.63,3172.63 3030.56,3172.91 3032.53,3173.11 3034.46,3173.2 3035.43,3173.22 3232.28,3173.22 3233.25,3173.25 3235.18,3173.34 3237.15,3173.54 3239.08,3173.82 3241.17,3174.24 3243.1,3174.72 3245.39,3175.42 3247.32,3176.11 3248.59,3176.6 3252.79,3178.34" style="stroke:rgb(255,0,0);stroke-width:31.496063;fill:none;stroke-opacity:0.5;stroke-linecap:round;stroke-linejoin:round;;fill:none"/>
<polyline points="3014.92,3168.1 3019.12,3169.85 3020.39,3170.34 3022.32,3171.03 3024.61,3171.73 3026.54,3172.21 3028.63,3172.63 3030.56,3172.91 3032.53,3173.11 3034.46,3173.2 3035.43,3173.22 3232.28,3173.22 3233.25,3173.25 3235.18,3173.34 3237.15,3173.54 3239.08,3173.82 3241.17,3174.24 3243.1,3174.72 3245.39,3175.42 3247.32,3176.11 3248.59,3176.6 3252.79,3178.34" style="stroke:rgb(0,0,0);stroke-width:1px;fill:none;stroke-opacity:1;stroke-linecap:round;stroke-linejoin:round;;fill:none"/>
<polyline points="3014.92,3168.1 3019.12,3169.85 3020.39,3170.34 3022.32,3171.03 3024.61,3171.73 3026.54,3172.21 3028.63,3172.63 3030.56,3172.91 3032.53,3173.11 3034.46,3173.2 3035.43,3173.22 3232.28,3173.22 3233.25,3173.25 3235.18,3173.34 3237.15,3173.54 3239.08,3173.82 3241.17,3174.24 3243.1,3174.72 3245.39,3175.42 3247.32,3176.11 3248.59,3176.6 3252.79,3178.34" style="stroke:rgb(255,0,0);stroke-width:31.496063;fill:none;stroke-opacity:0.5;stroke-linecap:round;stroke-linejoin:round;;fill:none"/>
<polyline points="3014.92,3168.1 3019.12,3169.85 3020.39,3170.34 3022.32,3171.03 3024.61,3171.73 3026.54,3172.21 3028.63,3172.63 3030.56,3172.91 3032.53,3173.11 3034.46,3173.2 3035.43,3173.22 3232.28,3173.22 3233.25,3173.25 3235.18,3173.34 3237.15,3173.54 3239.08,3173.82 3241.17,3174.24 3243.1,3174.72 3245.39,3175.42 3247.32,3176.11 3248.59,3176.6 3252.79,3178.34" style="stroke:rgb(0,0,0);stroke-width:1px;fill:none;stroke-opacity:1;stroke-linecap:round;stroke-linejoin:round;;fill:none"/>
<polyline points="3319.83,3010.36 3316.39,2997.52 3315.89,2995.16 3313.67,2981.17 3313.48,2979.35 3312.75,2965.36 3312.75,2963.71 3313.48,2949.72 3313.67,2947.9 3315.89,2933.91 3316.39,2931.55 3319.83,2918.7" style="stroke:rgb(255,0,0);stroke-width:31.496063;fill:none;stroke-opacity:0.5;stroke-linecap:round;stroke-linejoin:round;;fill:none"/>
<polyline points="3319.83,3010.36 3316.39,2997.52 3315.89,2995.16 3313.67,2981.17 3313.48,2979.35 3312.75,2965.36 3312.75,2963.71 3313.48,2949.72 3313.67,2947.9 3315.89,2933.91 3316.39,2931.55 3319.83,2918.7" style="stroke:rgb(0,0,0);stroke-width:1px;fill:none;stroke-opacity:1;stroke-linecap:round;stroke-linejoin:round;;fill:none"/>
<polyline points="3319.83,3010.36 3316.39,2997.52 3315.89,2995.16 3313.67,2981.17 3313.48,2979.35 3312.75,2965.36 3312.75,2963.71 3313.48,2949.72 3313.67,2947.9 3315.89,2933.91 3316.39,2931.55 3319.83,2918.7" style="stroke:rgb(255,0,0);stroke-width:31.496063;fill:none;stroke-opacity:0.5;stroke-linecap:round;stroke-linejoin:round;;fill:none"/>
<polyline points="3319.83,3010.36 3316.39,2997.52 3315.89,2995.16 3313.67,2981.17 3313.48,2979.35 3312.75,2965.36 3312.75,2963.71 3313.48,2949.72 3313.67,2947.9 3315.89,2933.91 3316.39,2931.55 3319.83,2918.7" style="stroke:rgb(0,0,0);stroke-width:1px;fill:none;stroke-opacity:1;stroke-linecap:round;stroke-linejoin:round;;fill:none"/>
<polyline points="3463.02,2795.95 3465.17,2782.41 3465.45,2779.76 3466.18,2765.77 3466.18,2763.3 3465.45,2749.31 3465.17,2746.66 3463.02,2733.12" style="stroke:rgb(255,0,0);stroke-width:31.496063;fill:none;stroke-opacity:0.5;stroke-linecap:round;stroke-linejoin:round;;fill:none"/>
<polyline points="3463.02,2795.95 3465.17,2782.41 3465.45,2779.76 3466.18,2765.77 3466.18,2763.3 3465.45,2749.31 3465.17,2746.66 3463.02,2733.12" style="stroke:rgb(0,0,0);stroke-width:1px;fill:none;stroke-opacity:1;stroke-linecap:round;stroke-linejoin:round;;fill:none"/>
<polyline points="3463.02,2795.95 3465.17,2782.41 3465.45,2779.76 3466.18,2765.77 3466.18,2763.3 3465.45,2749.31 3465.17,2746.66 3463.02,2733.12" style="stroke:rgb(255,0,0);stroke-width:31.496063;fill:none;stroke-opacity:0.5;stroke-linecap:round;stroke-linejoin:round;;fill:none"/>
<polyline points="3463.02,2795.95 3465.17,2782.41 3465.45,2779.76 3466.18,2765.77 3466.18,2763.3 3465.45,2749.31 3465.17,2746.66 3463.02,2733.12" style="stroke:rgb(0,0,0);stroke-width:1px;fill:none;stroke-opacity:1;stroke-linecap:round;stroke-linejoin:round;;fill:none"/>
<polyline points="3319.83,2918.72 3316.39,2931.55 3315.89,2933.91 3313.67,2947.9 3313.48,2949.72 3312.75,2963.71 3312.75,2965.36 3313.48,2979.35 3313.67,2981.17 3315.89,2995.16 3316.39,2997.52 3319.83,3010.35" style="stroke:rgb(255,0,0);stroke-width:31.496063;fill:none;stroke-opacity:0.5;stroke-linecap:round;stroke-linejoin:round;;fill:none"/>
<polyline points="3319.83,2918.72 3316.39,2931.55 3315.89,2933.91 3313.67,2947.9 3313.48,2949.72 3312.75,2963.71 3312.75,2965.36 3313.48,2979.35 3313.67,2981.17 3315.89,2995.16 3316.39,2997.52 3319.83,3010.35" style="stroke:rgb(0,0,0);stroke-width:1px;fill:none;stroke-opacity:1;stroke-linecap:round;stroke-linejoin:round;;fill:none"/>
<polyline points="3319.83,2918.72 3316.39,2931.55 3315.89,2933.91 3313.67,2947.9 3313.48,2949.72 3312.75,2963.71 3312.75,2965.36 3313.48,2979.35 3313.67,2981.17 3315.89,2995.16 3316.39,2997.52 3319.83,3010.35" style="stroke:rgb(255,0,0);stroke-width:31.496063;fill:none;stroke-opacity:0.5;stroke-linecap:round;stroke-linejoin:round;;fill:none"/>
<polyline points="3319.83,2918.72 3316.39,2931.55 3315.89,2933.91 3313.67,2947.9 3313.48,2949.72 3312.75,2963.71 3312.75,2965.36 3313.48,2979.35 3313.67,2981.17 3315.89,2995.16 3316.39,2997.52 3319.83,3010.35" style="stroke:rgb(0,0,0);stroke-width:1px;fill:none;stroke-opacity:1;stroke-linecap:round;stroke-linejoin:round;;fill:none"/>
</svg>
