<?xml version="1.0" standalone="no"?>
<!DOCTYPE svg PUBLIC "-//W3C//DTD SVG 1.1//EN"
"http://www.w3.org/Graphics/SVG/1.1/DTD/svg11.dtd">
<svg width="238.488" height="249.827" viewBox="0 0 4968.5 5204.72" version="1.1"
xmlns="http://www.w3.org/2000/svg"
xmlns:xlink="http://www.w3.org/1999/xlink">
<circle cx="1736.22" cy="4216.54" r="23.622" style=""/>
<circle cx="1893.7" cy="3700.79" r="23.622" style=""/>
<circle cx="1736.22" cy="3074.8" r="23.622" style=""/>
<circle cx="1893.7" cy="3074.8" r="23.622" style=""/>
<circle cx="2799.21" cy="2562.99" r="23.622" style=""/>
<circle cx="2996.06" cy="2562.99" r="23.622" style=""/>
<circle cx="2996.06" cy="2326.77" r="23.622" style=""/>
<circle cx="3507.87" cy="2326.77" r="23.622" style=""/>
<circle cx="3586.61" cy="2326.77" r="23.622" style=""/>
<circle cx="3980.31" cy="2326.77" r="23.622" style=""/>
<circle cx="3087.4" cy="3940.94" r="23.622" style=""/>
<circle cx="2867.4" cy="3822.83" r="23.622" style=""/>
<circle cx="2759.84" cy="3980.31" r="23.622" style=""/>
<circle cx="2523.62" cy="3980.31" r="23.622" style=""/>
<circle cx="2125.98" cy="4474.17" r="39.3701" style=""/>
<circle cx="2125.98" cy="4274.17" r="39.3701" style=""/>
<circle cx="2125.98" cy="4074.17" r="39.3701" style=""/>
<circle cx="2125.98" cy="3874.17" r="39.3701" style=""/>
<circle cx="2125.98" cy="3674.17" r="39.3701" style=""/>
<circle cx="2125.98" cy="3474.17" r="39.3701" style=""/>
<circle cx="2125.98" cy="3274.17" r="39.3701" style=""/>
<circle cx="2125.98" cy="3074.17" r="39.3701" style=""/>
<circle cx="2587.48" cy="2964.57" r="39.3701" style=""/>
<circle cx="2587.48" cy="2764.57" r="39.3701" style=""/>
<circle cx="2787.48" cy="2764.57" r="39.3701" style=""/>
<circle cx="2987.48" cy="2764.57" r="39.3701" style=""/>
<circle cx="2787.48" cy="2964.57" r="39.3701" style=""/>
<circle cx="2987.48" cy="2964.57" r="39.3701" style=""/>
<circle cx="3187.48" cy="2764.57" r="39.3701" style=""/>
<circle cx="3387.48" cy="2764.57" r="39.3701" style=""/>
<circle cx="3187.48" cy="2964.57" r="39.3701" style=""/>
<circle cx="3387.48" cy="2964.57" r="39.3701" style=""/>
<circle cx="3587.48" cy="2764.57" r="39.3701" style=""/>
<circle cx="3787.48" cy="2764.57" r="39.3701" style=""/>
<circle cx="3587.48" cy="2964.57" r="39.3701" style=""/>
<circle cx="3787.48" cy="2964.57" r="39.3701" style=""/>
<circle cx="3987.48" cy="2764.57" r="39.3701" style=""/>
<circle cx="3987.48" cy="2964.57" r="39.3701" style=""/>
</svg>
