<?xml version="1.0" standalone="no"?>
<!DOCTYPE svg PUBLIC "-//W3C//DTD SVG 1.1//EN"
"http://www.w3.org/Graphics/SVG/1.1/DTD/svg11.dtd">
<svg width="238.488" height="249.827" viewBox="0 0 4968.5 5204.72" version="1.1"
xmlns="http://www.w3.org/2000/svg"
xmlns:xlink="http://www.w3.org/1999/xlink">
<g fill-rule="evenodd"><path d="M 2.84217e-13,5204.72 L 2.84217e-13,2.84217e-13 L 4968.5,2.84217e-13 L 4968.5,5204.72 L 2.84217e-13,5204.72 z " style="fill-opacity:0.200000;fill:rgb(41,35,190);"/></g>
<polyline points="161.418,4885.83 164.444,4916.55 173.406,4946.09 187.958,4973.32 207.544,4997.18 231.408,5016.77 258.634,5031.32 288.176,5040.28 318.898,5043.31 4649.61,5043.31 4680.33,5040.28 4709.87,5031.32 4737.1,5016.77 4760.96,4997.18 4780.55,4973.32 4795.1,4946.09 4804.06,4916.55 4807.09,4885.83 4807.09,318.898 4804.06,288.176 4795.1,258.634 4780.55,231.408 4760.96,207.544 4737.1,187.958 4709.87,173.406 4680.33,164.444 4649.61,161.418 318.898,161.418 288.176,164.444 258.634,173.406 231.408,187.958 207.544,207.544 187.958,231.408 173.406,258.634 164.444,288.176 161.418,318.898 161.418,4885.83" style="stroke:rgb(41,35,190);stroke-width:314.960630;fill:none;stroke-opacity:0.5;stroke-linecap:round;stroke-linejoin:round;;fill:none"/>
<polyline points="161.418,4885.83 164.444,4916.55 173.406,4946.09 187.958,4973.32 207.544,4997.18 231.408,5016.77 258.634,5031.32 288.176,5040.28 318.898,5043.31 4649.61,5043.31 4680.33,5040.28 4709.87,5031.32 4737.1,5016.77 4760.96,4997.18 4780.55,4973.32 4795.1,4946.09 4804.06,4916.55 4807.09,4885.83 4807.09,318.898 4804.06,288.176 4795.1,258.634 4780.55,231.408 4760.96,207.544 4737.1,187.958 4709.87,173.406 4680.33,164.444 4649.61,161.418 318.898,161.418 288.176,164.444 258.634,173.406 231.408,187.958 207.544,207.544 187.958,231.408 173.406,258.634 164.444,288.176 161.418,318.898 161.418,4885.83" style="stroke:rgb(0,0,0);stroke-width:1px;fill:none;stroke-opacity:1;stroke-linecap:round;stroke-linejoin:round;;fill:none"/>
<g fill-rule="evenodd"><path d="M 318.898,4885.83 L 318.898,318.898 L 4649.61,318.898 L 4649.61,4885.83 L 318.898,4885.83 z " style="fill-opacity:1.000000;fill:rgb(41,35,190);stroke:rgb(0,0,0);stroke-width:2"/></g>
</svg>
